<svg xmlns="http://www.w3.org/2000/svg" xmlns:xlink="http://www.w3.org/1999/xlink" viewBox="0 0 1124.64 651.26"><defs><style>.cls-1{fill:none;}.cls-2{fill:#dd7a7a;}.cls-3{fill:#c6b366;}.cls-4{clip-path:url(#clip-path);}.cls-5{fill:#fff3c2;}.cls-6{fill:#fff3c3;}.cls-7{fill:#fff3c4;}.cls-8{fill:#fff4c5;}.cls-9{fill:#fff4c6;}.cls-10{fill:#fff4c7;}.cls-11{fill:#fff4c8;}.cls-12{fill:#fff4c9;}.cls-13{fill:#fff5ca;}.cls-14{fill:#fff5cb;}.cls-15{fill:#fff5cc;}.cls-16{fill:#fff5cd;}.cls-17{fill:#fff5ce;}.cls-18{fill:#fff6cf;}.cls-19{fill:#fff6d0;}.cls-20{fill:#fff6d1;}.cls-21{fill:#fff6d2;}.cls-22{fill:#fff6d3;}.cls-23{fill:#fff7d4;}.cls-24{fill:#fff7d5;}.cls-25{fill:#fff7d6;}.cls-26{fill:#fff7d7;}.cls-27{fill:#fff7d8;}.cls-28{fill:#fff8d9;}.cls-29{fill:#fff8da;}.cls-30{fill:#fff8db;}.cls-31{fill:#fff8dc;}.cls-32{fill:#fff8dd;}.cls-33{fill:#fff9de;}.cls-34{fill:#fff9df;}.cls-35{fill:#fff9e0;}.cls-36{fill:#fff9e2;}.cls-37{fill:#fff9e3;}.cls-38{fill:#fffae4;}.cls-39{fill:#fffae5;}.cls-40{fill:#fffae6;}.cls-41{fill:#fffae7;}.cls-42{fill:#fffae8;}.cls-43{fill:#fffbe9;}.cls-44{fill:#fffbea;}.cls-45{fill:#fffbeb;}.cls-46{fill:#fffbec;}.cls-47{fill:#fffbed;}.cls-48{fill:#fffcee;}.cls-49{fill:#fffcef;}.cls-50{fill:#fffcf0;}.cls-51{fill:#fffcf1;}.cls-52{fill:#fffcf2;}.cls-53{fill:#fffdf3;}.cls-54{fill:#fffdf4;}.cls-55{fill:#fffdf5;}.cls-56{fill:#fffdf6;}.cls-57{fill:#fffdf7;}.cls-58{fill:#fffef8;}.cls-59{fill:#fffef9;}.cls-60{fill:#fffefa;}.cls-61{fill:#fffefb;}.cls-62{fill:#fffefc;}.cls-63{fill:#fffffd;}.cls-64{fill:#fffffe;}.cls-65{fill:#fff;}.cls-66{fill:#ffeda1;}.cls-67{clip-path:url(#clip-path-2);}.cls-68{fill:#fffdfd;}.cls-69{fill:#3a1e1c;}.cls-70{clip-path:url(#clip-path-3);}.cls-71{fill:#d88268;}.cls-72{fill:#d98369;}.cls-73{fill:#da8469;}.cls-74{fill:#db856a;}.cls-75{fill:#dc866b;}.cls-76{fill:#dd876b;}.cls-77{fill:#de886c;}.cls-78{fill:#df896d;}.cls-79{fill:#e08a6d;}.cls-80{fill:#e18b6e;}.cls-81{fill:#e28c6f;}.cls-82{fill:#e48d70;}.cls-83{fill:#e58d70;}.cls-84{fill:#e68e71;}.cls-85{fill:#e78f72;}.cls-86{fill:#e89072;}.cls-87{fill:#e99173;}.cls-88{fill:#ea9274;}.cls-89{fill:#eb9374;}.cls-90{fill:#ec9475;}.cls-91{fill:#ed9576;}.cls-92{fill:#ee9676;}.cls-93{fill:#ef9777;}.cls-94{fill:#3d201f;}.cls-95{fill:#b5574d;}.cls-96{fill:#b3514e;}.cls-97{fill:#312235;}.cls-98{fill:#fc999c;}.cls-99{fill:#f9aaaa;}.cls-100{fill:#822222;}.cls-101{fill:#9b3737;}.cls-102{fill:#5b1f3c;}</style><clipPath id="clip-path"><path class="cls-1" d="M428.87,402.79a192.51,192.51,0,0,0-5.05-43.86c-32.69-73-109.23-124.15-198.45-124.15C106.43,234.78,10,325.78,10,438a193.16,193.16,0,0,0,5,43.87C47.74,554.84,124.28,606,213.5,606,332.44,606,428.87,515,428.87,402.79Z"/></clipPath><clipPath id="clip-path-2"><path class="cls-1" d="M541.11,351.64c-10.3-18-97.34-31.5-97.34-31.5S301.45,131.38,232.44,137.81s-80.25,56.58-80.25,56.58l-32.63,66.55C54.29,295.86,10.25,362,10.25,437.86c0,112.25,96.43,203.24,215.37,203.24,117.57,0,213.12-88.9,215.32-199.35C473.29,419.44,549.06,365.51,541.11,351.64Z"/></clipPath><clipPath id="clip-path-3"><path class="cls-1" d="M227.93,321.46l-2.36,9.79s-19.92,12.89-37.91,11.87c-5.34-.31,67.76,42.79,71.74,42.94s34.38-50.15,34.38-50.15-20.41-3.74-27.17-4-14.47-18.28-14.47-18.28Z"/></clipPath></defs><title>M3-fala1</title><g id="Camada_5" data-name="Camada 5"><path class="cls-2" d="M225.37,234.78c119,0,215.37,91,215.37,203.24S344.32,641.26,225.37,641.26,10,550.27,10,438s96.42-203.24,215.37-203.24m0-10a235.1,235.1,0,0,0-87.54,16.69A225.72,225.72,0,0,0,66.22,287,212.37,212.37,0,0,0,17.8,354.82a203.34,203.34,0,0,0,0,166.4A212.3,212.3,0,0,0,66.22,589a225.89,225.89,0,0,0,71.61,45.57,238.05,238.05,0,0,0,175.08,0A225.94,225.94,0,0,0,384.53,589a212.12,212.12,0,0,0,48.41-67.79,203.34,203.34,0,0,0,0-166.4A212.19,212.19,0,0,0,384.53,287a225.76,225.76,0,0,0-71.62-45.57,235.1,235.1,0,0,0-87.54-16.69Z"/><ellipse class="cls-3" cx="225.37" cy="438.02" rx="215.37" ry="203.24"/><g class="cls-4"><rect class="cls-5" x="10" y="234.78" width="418.87" height="371.24"/><path class="cls-5" d="M206.79,475.71a120.37,120.37,0,1,1,167,33A120.37,120.37,0,0,1,206.79,475.71Z"/><path class="cls-6" d="M208.43,474.61a118.4,118.4,0,1,1,164.26,32.46A118.39,118.39,0,0,1,208.43,474.61Z"/><path class="cls-7" d="M210.07,473.51a116.43,116.43,0,1,1,161.52,31.92A116.42,116.42,0,0,1,210.07,473.51Z"/><path class="cls-8" d="M211.71,472.41A114.45,114.45,0,1,1,370.5,503.79,114.44,114.44,0,0,1,211.71,472.41Z"/><circle class="cls-9" cx="306.79" cy="408.71" r="112.48"/><circle class="cls-10" cx="306.79" cy="408.71" r="110.5"/><circle class="cls-11" cx="306.79" cy="408.71" r="108.53"/><circle class="cls-12" cx="306.79" cy="408.71" r="106.56"/><circle class="cls-13" cx="306.79" cy="408.71" r="104.58"/><circle class="cls-14" cx="306.79" cy="408.71" r="102.61"/><circle class="cls-15" cx="306.79" cy="408.71" r="100.64"/><circle class="cls-16" cx="306.79" cy="408.71" r="98.66"/><circle class="cls-17" cx="306.79" cy="408.71" r="96.69"/><circle class="cls-18" cx="306.79" cy="408.71" r="94.72"/><circle class="cls-19" cx="306.79" cy="408.71" r="92.74"/><circle class="cls-20" cx="306.79" cy="408.71" r="90.77"/><circle class="cls-21" cx="306.79" cy="408.71" r="88.8"/><circle class="cls-22" cx="306.79" cy="408.71" r="86.82"/><circle class="cls-23" cx="306.79" cy="408.71" r="84.85"/><circle class="cls-24" cx="306.79" cy="408.71" r="82.88"/><circle class="cls-25" cx="306.79" cy="408.71" r="80.9"/><circle class="cls-26" cx="306.79" cy="408.71" r="78.93"/><circle class="cls-27" cx="306.79" cy="408.71" r="76.96"/><circle class="cls-28" cx="306.79" cy="408.71" r="74.98"/><circle class="cls-29" cx="306.79" cy="408.71" r="73.01"/><circle class="cls-30" cx="306.79" cy="408.71" r="71.04"/><circle class="cls-31" cx="306.79" cy="408.71" r="69.06"/><circle class="cls-32" cx="306.79" cy="408.71" r="67.09"/><circle class="cls-33" cx="306.79" cy="408.71" r="65.12"/><circle class="cls-34" cx="306.79" cy="408.71" r="63.15"/><circle class="cls-35" cx="306.79" cy="408.71" r="61.17"/><circle class="cls-36" cx="306.79" cy="408.71" r="59.2"/><circle class="cls-37" cx="306.79" cy="408.71" r="57.23"/><circle class="cls-38" cx="306.79" cy="408.71" r="55.25"/><circle class="cls-39" cx="306.79" cy="408.71" r="53.28"/><circle class="cls-40" cx="306.79" cy="408.71" r="51.31"/><circle class="cls-41" cx="306.79" cy="408.71" r="49.33"/><circle class="cls-42" cx="306.79" cy="408.71" r="47.36"/><circle class="cls-43" cx="306.79" cy="408.71" r="45.39"/><circle class="cls-44" cx="306.79" cy="408.71" r="43.41"/><circle class="cls-45" cx="306.79" cy="408.71" r="41.44"/><circle class="cls-46" cx="306.79" cy="408.71" r="39.47"/><circle class="cls-47" cx="306.79" cy="408.71" r="37.49"/><circle class="cls-48" cx="306.79" cy="408.71" r="35.52"/><circle class="cls-49" cx="306.79" cy="408.71" r="33.55"/><circle class="cls-50" cx="306.79" cy="408.71" r="31.57"/><circle class="cls-51" cx="306.79" cy="408.71" r="29.6"/><circle class="cls-52" cx="306.79" cy="408.71" r="27.63"/><circle class="cls-53" cx="306.79" cy="408.71" r="25.65"/><circle class="cls-54" cx="306.79" cy="408.71" r="23.68"/><circle class="cls-55" cx="306.79" cy="408.71" r="21.71"/><circle class="cls-56" cx="306.79" cy="408.71" r="19.73"/><circle class="cls-57" cx="306.79" cy="408.71" r="17.76"/><circle class="cls-58" cx="306.79" cy="408.71" r="15.79"/><circle class="cls-59" cx="306.79" cy="408.71" r="13.81"/><circle class="cls-60" cx="306.79" cy="408.71" r="11.84"/><circle class="cls-61" cx="306.79" cy="408.71" r="9.87"/><circle class="cls-62" cx="306.79" cy="408.71" r="7.89"/><circle class="cls-63" cx="306.79" cy="408.71" r="5.92"/><circle class="cls-64" cx="306.79" cy="408.71" r="3.95"/><circle class="cls-65" cx="306.79" cy="408.71" r="1.97"/></g><path class="cls-3" d="M787.8,44.22c-174.89,0-318.64,118.13-335.23,269.27L353,353.14s-6.51,2.41-5.85,11.74a12.7,12.7,0,0,0,7.43,10.89L458.82,407C492,541,626.68,641.26,787.8,641.26c186,0,336.84-133.65,336.84-298.52S973.83,44.22,787.8,44.22Z"/><path class="cls-66" d="M787.75,0C612.85,0,469.11,118.13,452.52,269.27L353,308.92s-6.51,2.41-5.86,11.74a12.7,12.7,0,0,0,7.44,10.88l104.21,31.28C492,496.78,626.63,597,787.75,597c186,0,336.84-133.65,336.84-298.52S973.78,0,787.75,0Z"/><g class="cls-67"><path class="cls-68" d="M329.94,510.18s.78-10,4.41-10.57l24.22,31.55-9.37,5.44Z"/><path class="cls-65" d="M153.53,566.53s24.48-21.86,24.48-27-14.35-8.34-14.35-8.34l-20.41,29.5,9.58,7.33Z"/><path class="cls-69" d="M176.44,360.74s-46.9-131.84,7.44-198.9c0,0,58.11-39.81,101.53,7s13,178.54,13,178.54Z"/><g class="cls-70"><polygon class="cls-71" points="293.71 313.64 293.74 313.95 182.31 324.32 182.31 313.64 293.71 313.64"/><polygon class="cls-71" points="293.74 313.95 293.78 314.33 293.78 314.76 182.31 325.13 182.31 324.32 293.74 313.95"/><polygon class="cls-72" points="293.78 315.57 182.31 325.95 182.31 325.13 293.78 314.76 293.78 315.57"/><polygon class="cls-73" points="293.78 316.39 182.31 326.76 182.31 325.95 293.78 315.57 293.78 316.39"/><polygon class="cls-74" points="293.78 317.2 182.31 327.57 182.31 326.76 293.78 316.39 293.78 317.2"/><polygon class="cls-75" points="293.78 318.01 182.31 328.39 182.31 327.57 293.78 317.2 293.78 318.01"/><polygon class="cls-76" points="293.78 318.83 182.31 329.2 182.31 328.39 293.78 318.01 293.78 318.83"/><polygon class="cls-77" points="293.78 319.64 182.31 330.01 182.31 329.2 293.78 318.83 293.78 319.64"/><polygon class="cls-78" points="293.78 320.45 182.31 330.83 182.31 330.01 293.78 319.64 293.78 320.45"/><polygon class="cls-79" points="293.78 321.27 182.31 331.64 182.31 330.83 293.78 320.45 293.78 321.27"/><polygon class="cls-80" points="293.78 322.08 182.31 332.45 182.31 331.64 293.78 321.27 293.78 322.08"/><polygon class="cls-81" points="293.78 322.89 182.31 333.27 182.31 332.45 293.78 322.08 293.78 322.89"/><polygon class="cls-82" points="293.78 323.71 182.31 334.08 182.31 333.27 293.78 322.89 293.78 323.71"/><polygon class="cls-83" points="293.78 324.52 182.31 334.89 182.31 334.08 293.78 323.71 293.78 324.52"/><polygon class="cls-84" points="293.78 325.33 182.31 335.71 182.31 334.89 293.78 324.52 293.78 325.33"/><polygon class="cls-85" points="293.78 326.14 182.31 336.52 182.31 335.71 293.78 325.33 293.78 326.14"/><polygon class="cls-86" points="293.78 326.96 182.31 337.33 182.31 336.52 293.78 326.14 293.78 326.96"/><polygon class="cls-87" points="293.78 327.77 182.31 338.14 182.31 337.33 293.78 326.96 293.78 327.77"/><polygon class="cls-88" points="293.78 328.58 182.31 338.96 182.31 338.14 293.78 327.77 293.78 328.58"/><polygon class="cls-89" points="293.78 329.4 182.31 339.77 182.31 338.96 293.78 328.58 293.78 329.4"/><polygon class="cls-90" points="293.78 330.21 182.31 340.58 182.31 339.77 293.78 329.4 293.78 330.21"/><polygon class="cls-91" points="293.78 331.02 182.31 341.4 182.31 340.58 293.78 330.21 293.78 331.02"/><polygon class="cls-92" points="293.78 331.84 182.31 342.21 182.31 341.4 293.78 331.02 293.78 331.84"/><polygon class="cls-93" points="293.78 332.65 182.31 343.02 182.31 342.21 293.78 331.84 293.78 332.65"/><polygon class="cls-93" points="184.35 386.21 182.31 364.39 182.31 343.02 293.78 332.65 293.78 386.21 184.35 386.21"/></g><path class="cls-93" d="M182.6,222.54s-.88,110.78,64.76,101.68c35.49-4.92,47.51-40.41,40.88-70.91a191.62,191.62,0,0,1-3.79-46.77s-4.08-29.37-38.7-20.3S196.11,192,196.11,192,180.54,195.13,182.6,222.54Z"/><path class="cls-69" d="M177.07,228.73s25.09-2.78,36.43-7.67l.58-15.4s2.55,9.93,4.85,12.41,22.88-.74,32-3.59,4.81-14.7,4.81-14.7l4.34,11.86s28.57,3.44,28.73-.93S285,186,276.62,182s-73.88-4.43-83.08,4.1S177.53,216.52,177.07,228.73Z"/><ellipse class="cls-94" cx="262.95" cy="244.39" rx="3.92" ry="3.17" transform="translate(-22.42 26.6) rotate(-5.56)"/><ellipse class="cls-94" cx="223.88" cy="248.1" rx="3.92" ry="3.17" transform="translate(-22.97 22.84) rotate(-5.56)"/><path class="cls-95" d="M250.55,278.83a15.34,15.34,0,0,1-5.17-.8l.35-.94c5.16,1.92,13.88,0,15.56-3.33,1.13-2.28-1.44-4.53-3.78-6-6.89-4.38-5.32-8.93-5.25-9.13l.94.35c0,.16-1.33,4,4.84,7.94,4.88,3.1,4.95,5.69,4.14,7.31C260.72,277.15,255.37,278.83,250.55,278.83Z"/><path class="cls-96" d="M262,289.89c-18.37,4.75-31.32.71-30.6,2,0,0-.78,13.73,15.42,13.63C263.55,305.45,262,289.89,262,289.89Z"/><path class="cls-65" d="M219.38,333.59s22.52,13.65,36.94,11.8c6.84-.87,18.95-14,18.95-14l13,129.74-49.8,2.24Z"/><path class="cls-97" d="M172.66,557.55S155.05,630.13,157,650s4.68,52.17,34,146c0,0,78.26,32.38,150.2-.81,0,0,6.29-1.86,10.91-43.81s12.42-142.59-8.72-187.47S172.66,557.55,172.66,557.55Z"/><path class="cls-69" d="M270.81,230.55s-4.74-6.21-9.75-3.11a.89.89,0,0,0-.58,1.12c.25.84,1.91-1.63,9.83,2.73C270.31,231.29,270.81,231.58,270.81,230.55Z"/><path class="cls-69" d="M213.93,234s4.75-6.2,9.75-3.1a.89.89,0,0,1,.58,1.12c-.25.83-1.91-1.64-9.83,2.73C214.43,234.73,213.93,235,213.93,234Z"/><path class="cls-65" d="M259.62,290.44s-.65,3.21-2,4.12-15.59,1.66-24.11,1c-2.87-.24-2.32-2.92-2.18-3.89C231.35,291.63,246.09,293.49,259.62,290.44Z"/><path class="cls-98" d="M251.34,305.09s-1.86-9.5-19.13-7C232.21,298.13,235.94,307.82,251.34,305.09Z"/><ellipse class="cls-99" cx="281.01" cy="254.61" rx="3.62" ry="6.23" transform="translate(3.96 513.52) rotate(-85.24)"/><ellipse class="cls-99" cx="214.79" cy="263.85" rx="6.23" ry="3.62" transform="translate(-52.96 53.94) rotate(-12.76)"/><path class="cls-100" d="M334.61,435.84,357,461.35s-6.12,9.16-12,18.65c-6.27,10.12-15.54,20.35-13.57,20.57,4,.44,26.78,31.77,26.78,31.77l28-38s21.11-33.38,20.75-37-18.37-28.47-24.44-34.21c-3.74-3.54-9.95-8.73-15.17-16.12-29.22-41.32-56.53-70.82-58.39-72.35s-11-6.17-14.23-4.64-19.19,1.4-19.19,1.4l2.64,115.37L219.63,333.58s-12.56,4.34-26.08,2.61-36.24,3.62-36.24,3.62-10.24,27.71-17.55,29.81-11,20.26-11,20.26c-2.17,2.65-10.18,14.08-19.61,27.71h0s-37.48,45.94-43,49.92S63.56,481,63.56,481l78.84,83.79,27.83-35.52c-7.13-.49-43.13-49.77-43.13-49.77,2.53-4.53,2.3-8.25,1.56-10.71,17.3-18.49,42.63-47.19,42.63-47.19.41,4.07,6.47,16.8,16.93,32.52s9.69,42.14,9.69,42.14c-14.94,21.68-25,61.34-25,61.34s1,7.93,26.28,20.55c11,5.5,46.51,16.31,46.51,16.31l39.46-43.29,50.78,35.64s9.12-9.12,8.21-18.27S325.71,505,325.71,505s-1.89-19,.27-24.66S334.61,435.84,334.61,435.84Z"/><path class="cls-71" d="M153.53,566.53s12.2,10.71,14.67,8.24l12.43-35.2S165.06,550.81,153.53,566.53Z"/><path class="cls-93" d="M170.88,567.7s5.9-5.86,14.86,2.8,9.68,9.26,9.68,9.26,7,2.88,7.52-4.62c0,0,8.8,1.29,6.83-8.4,0,0,6.13-4.42.7-12,0,0,5.51-1.05,2.24-11.46s-24-20.47-24-20.47-9.94-3.49-10.82,8.08c0,0-7.16.37-4.66,10.37,0,0-4.65,4.21-3.65,8.77s-.11,3.67-.11,3.67S162.79,561.13,170.88,567.7Z"/><path class="cls-95" d="M202.56,575.46c-.11-.13-11.87-13.67-24.48-19.79l.44-.9c12.79,6.21,24.68,19.9,24.8,20Z"/><path class="cls-95" d="M209.42,567.1c-.17-.16-17.14-16.09-29.48-22.74l.48-.88c12.45,6.71,29.52,22.74,29.69,22.9Z"/><path class="cls-95" d="M210.09,555c-.15-.17-15.21-17.9-27.55-21.75l.3-1c12.61,4,27.39,21.33,28,22.07Z"/><path class="cls-93" d="M347.86,556.51l-16.17,4.75s-6.95,2.88-7.52-4.62c0,0-8.8,1.29-6.82-8.4,0,0-6.14-4.42-.71-12,0,0-5.51-1.05-2.24-11.46s15.67-13.15,15.67-13.15,9.94-3.49,10.82,8.07c0,0,7.16.38,4.66,10.37,0,0,4.65,4.21,3.65,8.78s.11,3.66.11,3.66S356,549.94,347.86,556.51Z"/><path class="cls-95" d="M324.44,557.06l-.54-.84A275.78,275.78,0,0,1,349.09,542l.44.9A276.26,276.26,0,0,0,324.44,557.06Z"/><path class="cls-95" d="M317.64,548.64l-.59-.8c.16-.12,15.84-11.55,28.27-18.25l.47.88C333.42,537.14,317.8,548.53,317.64,548.64Z"/><path class="cls-95" d="M317.07,536.46l-.86-.51c.09-.16,9.39-15.38,24.63-16.79l.09,1C326.2,521.52,317.16,536.31,317.07,536.46Z"/><path class="cls-101" d="M219.38,333.59S195.23,345.24,182.15,365l44.38,12.67s-15.11,14.85-14.79,18.07,66.17,51,66.17,51,33.54-61.51,29.81-64.56-24.29-6.81-24.29-6.81,19.48-27.6,22.87-27.94-28-16.36-31-16.06,2.52,110.28,2.52,110.28l-.15,2.38Z"/><path class="cls-97" d="M277.91,446.79s9.26,81.81,7,104.33"/><circle class="cls-101" cx="291.65" cy="471.48" r="5.33"/><circle class="cls-101" cx="293.78" cy="509.48" r="5.33"/><path class="cls-102" d="M173.81,404.74l-1-.23a76.63,76.63,0,0,0-11.55-60.86l.82-.57A77.66,77.66,0,0,1,173.81,404.74Z"/><path class="cls-102" d="M329.09,406.93l-1-.09c1.1-12.29-3.36-24.57-7.3-35.4-4.66-12.82-10-27.35-20.07-37.88l.72-.7c10.27,10.69,15.59,25.32,20.29,38.23C325.7,382,330.21,394.42,329.09,406.93Z"/><path class="cls-102" d="M146.32,377a27.46,27.46,0,0,0-3.49-7l.82-.57a28.62,28.62,0,0,1,3.62,7.2Z"/><path class="cls-102" d="M136,392.63a35.43,35.43,0,0,0-6.08-.83l0-1a35.48,35.48,0,0,1,6.25.86Z"/><path class="cls-102" d="M334.44,441l-1-.12a73,73,0,0,0,.43-11.92l1-.05A75.14,75.14,0,0,1,334.44,441Z"/><path class="cls-102" d="M355.5,460.4l-.14-1a76.2,76.2,0,0,1,12.07-.73l0,1A73,73,0,0,0,355.5,460.4Z"/><path class="cls-102" d="M365,468.05a59.33,59.33,0,0,0-8.69-6.35l.51-.86a61.54,61.54,0,0,1,8.84,6.45Z"/><path class="cls-102" d="M200.41,496.57l-.52-.85a60,60,0,0,1,11.6-5.55l.33.94A59.49,59.49,0,0,0,200.41,496.57Z"/><path class="cls-102" d="M127.77,469.24c-2.32,0-10-.2-12.54-2.74l.7-.71c2.66,2.65,12.37,2.44,12.47,2.45l0,1Z"/><path class="cls-102" d="M118.83,482.89v-1c3.43,0,7.7-2.82,7.74-2.85l.56.83C126.94,480,122.56,482.89,118.83,482.89Z"/></g><path d="M604.76,214.25a15.17,15.17,0,0,1-3.56,10.31,11.66,11.66,0,0,1-9.23,4.1,11.11,11.11,0,0,1-9-4.1,15.5,15.5,0,0,1-3.44-10.31v-.41A15.54,15.54,0,0,1,583,203.53a11.1,11.1,0,0,1,9-4.12,11.64,11.64,0,0,1,9.23,4.12,15.21,15.21,0,0,1,3.56,10.31Zm-3.85-.45a13.07,13.07,0,0,0-2.37-8.1,7.77,7.77,0,0,0-6.57-3.13,7.29,7.29,0,0,0-6.28,3.14,13.53,13.53,0,0,0-2.26,8.09v.45a13.56,13.56,0,0,0,2.26,8.13,7.29,7.29,0,0,0,6.28,3.14,7.75,7.75,0,0,0,6.6-3.13,13.21,13.21,0,0,0,2.34-8.14Z"/><path d="M607.48,200.27v-2.49h7v27.47l3.18.54v2.46H607.48v-2.46l3.18-.54V200.81Z"/><path d="M634.39,228.25c-.12-.57-.21-1.08-.27-1.54s-.11-.91-.14-1.37a9.46,9.46,0,0,1-2.78,2.38,7.17,7.17,0,0,1-3.57.94,7.06,7.06,0,0,1-5-1.61,5.94,5.94,0,0,1-1.72-4.54,5.27,5.27,0,0,1,2.43-4.64,11.94,11.94,0,0,1,6.67-1.63h4v-2.46a3.8,3.8,0,0,0-1.17-2.94,4.63,4.63,0,0,0-3.26-1.08,7.88,7.88,0,0,0-2.55.37,4.82,4.82,0,0,0-1.79,1l-.41,2.23h-3v-4.1a11.5,11.5,0,0,1,3.5-1.85,13.84,13.84,0,0,1,4.45-.69,8.81,8.81,0,0,1,5.82,1.84,6.42,6.42,0,0,1,2.23,5.25V224c0,.27,0,.54,0,.8a6.81,6.81,0,0,0,0,.78l1.56.21v2.46Zm-6.19-2.81a6.75,6.75,0,0,0,3.49-.92,5.67,5.67,0,0,0,2.27-2.2v-3.48h-4.1a5.84,5.84,0,0,0-3.74,1.09,3.3,3.3,0,0,0-1.38,2.66,2.65,2.65,0,0,0,.86,2.12A3.92,3.92,0,0,0,628.2,225.44ZM630.83,199h4.5l0,.11-5.26,5.08h-2.87Z"/><path d="M646.19,227.32a8.85,8.85,0,0,1-.74,3.51,8.26,8.26,0,0,1-2,2.91l-1.39-1a10,10,0,0,0,1.36-2.56,8.43,8.43,0,0,0,.44-2.82v-2.77h2.33Z"/><path d="M669.19,226.69a6.67,6.67,0,0,0,4.11-1.33,4.34,4.34,0,0,0,1.77-3.69h2.07l0,.12a5.78,5.78,0,0,1-2.33,4.9,8.69,8.69,0,0,1-5.66,2,8,8,0,0,1-6.66-3,11.81,11.81,0,0,1-2.36-7.6v-.82a11.81,11.81,0,0,1,2.36-7.58,8,8,0,0,1,6.64-3,10.81,10.81,0,0,1,4.48.92,8.77,8.77,0,0,1,3.3,2.5l.1,4.61h-2l-.37-3.75a6.53,6.53,0,0,0-2.33-1.67,7.81,7.81,0,0,0-3.18-.62,5.62,5.62,0,0,0-5,2.43,10.77,10.77,0,0,0-1.64,6.13v.82a10.81,10.81,0,0,0,1.63,6.17A5.65,5.65,0,0,0,669.19,226.69Z"/><path d="M696.13,228.25a18,18,0,0,1-.33-1.85,11.87,11.87,0,0,1-.1-1.58,9.43,9.43,0,0,1-3.13,2.75,8.8,8.8,0,0,1-4.39,1.09,6.75,6.75,0,0,1-4.81-1.6,5.68,5.68,0,0,1-1.7-4.33,5.34,5.34,0,0,1,2.52-4.65,11.94,11.94,0,0,1,6.84-1.72h4.67v-2.79a4.52,4.52,0,0,0-1.46-3.56,5.92,5.92,0,0,0-4.07-1.29,10.2,10.2,0,0,0-3.21.48,7.21,7.21,0,0,0-2.43,1.3l-.2,2.83H682.4l0-4.06a12,12,0,0,1,3.5-1.84,13.22,13.22,0,0,1,4.35-.7,8.45,8.45,0,0,1,5.62,1.78A6.25,6.25,0,0,1,698,213.6V224c0,.43,0,.84,0,1.24a9,9,0,0,0,.13,1.16l2.11.13v1.72Zm-7.7-1.66a8.44,8.44,0,0,0,4.47-1.17,7,7,0,0,0,2.8-3v-4.23H691a8.87,8.87,0,0,0-5.09,1.31,3.92,3.92,0,0,0-1.9,3.33,3.49,3.49,0,0,0,1.18,2.75A4.77,4.77,0,0,0,688.43,226.59Z"/><path d="M708.67,207.12l.29,3.52v.25a7.59,7.59,0,0,1,2.45-3.06,6.23,6.23,0,0,1,3.68-1.1,4.94,4.94,0,0,1,.87.07,5.51,5.51,0,0,1,.69.14l-.31,2.19L714.6,209a5.29,5.29,0,0,0-3.62,1.24,6.81,6.81,0,0,0-2,3.4v12.62l3.18.25v1.72h-8.69v-1.72l3.19-.25V209.11l-3.19-.25v-1.74h5.22Z"/><path d="M751.28,218.23a14,14,0,0,1-2.28,7.33,6.9,6.9,0,0,1-6.11,3.1,3.56,3.56,0,0,1-2.56-1,4.91,4.91,0,0,1-1.35-2.76,7.48,7.48,0,0,1-2.55,2.82,6.59,6.59,0,0,1-3.53.93,4.21,4.21,0,0,1-3.88-2.33,10.37,10.37,0,0,1-1-6.2,15.08,15.08,0,0,1,2.75-8,6.86,6.86,0,0,1,5.59-3,7,7,0,0,1,2.94.53,13.34,13.34,0,0,1,2.47,1.58l0,0h.06l-1,11.21c-.13,1.72.07,2.89.59,3.52a2.36,2.36,0,0,0,1.86.93,5,5,0,0,0,4.38-2.43,12.45,12.45,0,0,0,1.81-6.32q.36-7.59-2.91-11.8t-10.35-4.21a13.31,13.31,0,0,0-10.42,4.6q-4.09,4.59-4.43,12.1t3.19,12q3.57,4.56,10.15,4.56a14.41,14.41,0,0,0,3.48-.43,11.75,11.75,0,0,0,3-1.11l.6,1.46a10.22,10.22,0,0,1-3.26,1.27,17.18,17.18,0,0,1-3.87.47q-7.42,0-11.48-4.87t-3.69-13.31q.35-8.28,4.93-13.34a15.31,15.31,0,0,1,11.9-5.06q7.63,0,11.48,4.72T751.28,218.23Zm-21.07,1.9a9.34,9.34,0,0,0,.51,4.82,2.77,2.77,0,0,0,2.69,1.8,5.71,5.71,0,0,0,3.05-.84,6.84,6.84,0,0,0,2.4-3.07v-.16a.77.77,0,0,1,0-.15l.92-10.6a5.45,5.45,0,0,0-1.4-.72,5.3,5.3,0,0,0-1.69-.26,5.18,5.18,0,0,0-4.33,2.32A13.81,13.81,0,0,0,730.21,220.13Z"/><path d="M773.76,226.69a6.67,6.67,0,0,0,4.11-1.33,4.34,4.34,0,0,0,1.77-3.69h2.07l0,.12a5.78,5.78,0,0,1-2.33,4.9,8.69,8.69,0,0,1-5.66,2,8,8,0,0,1-6.66-3,11.81,11.81,0,0,1-2.36-7.6v-.82a11.81,11.81,0,0,1,2.36-7.58,8,8,0,0,1,6.64-3,10.81,10.81,0,0,1,4.48.92,8.77,8.77,0,0,1,3.3,2.5l.1,4.61h-2l-.37-3.75a6.53,6.53,0,0,0-2.33-1.67,7.81,7.81,0,0,0-3.18-.62,5.62,5.62,0,0,0-5,2.43,10.77,10.77,0,0,0-1.64,6.13v.82a10.81,10.81,0,0,0,1.63,6.17A5.65,5.65,0,0,0,773.76,226.69Z"/><path d="M801.64,224.78a7.33,7.33,0,0,1-2.73,2.87,8,8,0,0,1-4.07,1,6.43,6.43,0,0,1-5.23-2.26c-1.25-1.51-1.88-3.86-1.88-7V209.11l-2.62-.25v-1.74h4.94v12.29q0,3.85,1.32,5.54a4.48,4.48,0,0,0,3.74,1.68,6.94,6.94,0,0,0,4.23-1.17,6.2,6.2,0,0,0,2.22-3.24V209.11l-3-.25v-1.74h5.35v19.16l2.83.25v1.72h-4.88Z"/><path d="M815.23,207.12l.29,3.52v.25a7.59,7.59,0,0,1,2.45-3.06,6.25,6.25,0,0,1,3.68-1.1,4.94,4.94,0,0,1,.87.07,6.14,6.14,0,0,1,.7.14l-.32,2.19-1.73-.11a5.3,5.3,0,0,0-3.63,1.24,6.88,6.88,0,0,0-2,3.4v12.62l3.19.25v1.72H810v-1.72l3.19-.25V209.11l-3.19-.25v-1.74h5.22Z"/><path d="M841.58,213.64h-1.92l-.27-3a5.91,5.91,0,0,0-2.22-1.43,8.55,8.55,0,0,0-3.07-.51,5.71,5.71,0,0,0-3.84,1.11,3.31,3.31,0,0,0-1.28,2.58,3.1,3.1,0,0,0,1.1,2.43,11,11,0,0,0,4.41,1.68,14.25,14.25,0,0,1,5.64,2.29,4.75,4.75,0,0,1,1.88,4,5.12,5.12,0,0,1-2.14,4.26,9.08,9.08,0,0,1-5.66,1.63A13,13,0,0,1,830,228a10,10,0,0,1-3.33-1.85v-4.25h1.89l.33,3a5.44,5.44,0,0,0,2.38,1.36,10.54,10.54,0,0,0,3,.42,6.5,6.5,0,0,0,4-1.11,3.31,3.31,0,0,0,1.46-2.7,3.45,3.45,0,0,0-1.22-2.6,9.93,9.93,0,0,0-4.4-1.81,14.8,14.8,0,0,1-5.6-2.18,4.44,4.44,0,0,1-1.82-3.8,5.08,5.08,0,0,1,2.05-4.09,8.31,8.31,0,0,1,5.41-1.67,12.21,12.21,0,0,1,4.24.71,8.58,8.58,0,0,1,3.14,1.93Z"/><path d="M846.11,226.53l3.18-.25V209.11l-3.18-.25v-1.74h5.51v19.16l3.18.25v1.72h-8.69Zm5.51-25.46h-2.33v-3.29h2.33Z"/><path d="M874.06,213.64h-1.92l-.27-3a5.91,5.91,0,0,0-2.22-1.43,8.55,8.55,0,0,0-3.07-.51,5.71,5.71,0,0,0-3.84,1.11,3.31,3.31,0,0,0-1.28,2.58,3.1,3.1,0,0,0,1.1,2.43,11,11,0,0,0,4.41,1.68,14.25,14.25,0,0,1,5.64,2.29,4.75,4.75,0,0,1,1.88,4,5.12,5.12,0,0,1-2.14,4.26,9.08,9.08,0,0,1-5.66,1.63,13,13,0,0,1-4.26-.65,10,10,0,0,1-3.33-1.85v-4.25H861l.33,3a5.44,5.44,0,0,0,2.38,1.36,10.54,10.54,0,0,0,3,.42,6.5,6.5,0,0,0,4-1.11,3.31,3.31,0,0,0,1.46-2.7,3.41,3.41,0,0,0-1.22-2.6,9.93,9.93,0,0,0-4.4-1.81,14.8,14.8,0,0,1-5.6-2.18,4.44,4.44,0,0,1-1.82-3.8,5.08,5.08,0,0,1,2-4.09,8.31,8.31,0,0,1,5.41-1.67,12.21,12.21,0,0,1,4.24.71,8.58,8.58,0,0,1,3.14,1.93Z"/><path d="M884.12,201.71v5.41h4.64V209h-4.64V222.8a4.52,4.52,0,0,0,.75,2.94,2.51,2.51,0,0,0,2,.87,9.9,9.9,0,0,0,1.1-.05c.36,0,.77-.08,1.24-.16l.35,1.74a5.91,5.91,0,0,1-1.42.39,10.56,10.56,0,0,1-1.68.13,4.42,4.42,0,0,1-3.47-1.4,6.67,6.67,0,0,1-1.24-4.46V209h-3.63v-1.91h3.63v-5.41Z"/><path d="M907.65,228.25a18,18,0,0,1-.33-1.85,11.87,11.87,0,0,1-.1-1.58,9.39,9.39,0,0,1-3.12,2.75,8.86,8.86,0,0,1-4.4,1.09,6.71,6.71,0,0,1-4.8-1.6,5.64,5.64,0,0,1-1.7-4.33,5.34,5.34,0,0,1,2.52-4.65,11.93,11.93,0,0,1,6.83-1.72h4.67v-2.79a4.51,4.51,0,0,0-1.45-3.56,5.94,5.94,0,0,0-4.08-1.29,10.2,10.2,0,0,0-3.21.48,7.21,7.21,0,0,0-2.43,1.3l-.2,2.83h-1.93l0-4.06a12.15,12.15,0,0,1,3.51-1.84,13.21,13.21,0,0,1,4.34-.7,8.48,8.48,0,0,1,5.63,1.78,6.25,6.25,0,0,1,2.13,5.09V224c0,.43,0,.84,0,1.24a11.12,11.12,0,0,0,.13,1.16l2.11.13v1.72ZM900,226.59a8.47,8.47,0,0,0,4.47-1.17,6.88,6.88,0,0,0,2.79-3v-4.23h-4.71a8.83,8.83,0,0,0-5.08,1.31,3.93,3.93,0,0,0-1.91,3.33,3.52,3.52,0,0,0,1.18,2.75A4.8,4.8,0,0,0,900,226.59Z"/><path d="M918.8,228.25H916V225h2.77Zm-.23-9.33h-2.33v-19.1h2.33Z"/><path d="M600.86,303.3h-1.72l-.32-4.1a7.73,7.73,0,0,0-2.8-2.07,9.44,9.44,0,0,0-4-.79,8.8,8.8,0,0,0-7.2,3.29,13.11,13.11,0,0,0-2.67,8.51v.39a13.27,13.27,0,0,0,2.64,8.53,8.47,8.47,0,0,0,7,3.31,10.48,10.48,0,0,0,4.15-.8,7.62,7.62,0,0,0,2.92-2.06l.32-4.1h1.72v4.75a9.57,9.57,0,0,1-3.68,2.91,12.29,12.29,0,0,1-5.43,1.17,10.66,10.66,0,0,1-8.49-3.85,14.55,14.55,0,0,1-3.31-9.86v-.35a14.63,14.63,0,0,1,3.3-9.88,10.76,10.76,0,0,1,8.61-3.85,11.86,11.86,0,0,1,5.38,1.18,9.68,9.68,0,0,1,3.62,2.92Z"/><path d="M604.22,294.56v-1.65h5.23v12.3a7.19,7.19,0,0,1,6.57-3.8,6.07,6.07,0,0,1,4.87,2q1.7,2,1.7,6.11V320l3,.24v1.63h-8.28v-1.63l3-.24V309.44c0-2.18-.42-3.74-1.28-4.68a4.56,4.56,0,0,0-3.56-1.42,6,6,0,0,0-3.81,1.19,7.05,7.05,0,0,0-2.26,3.18V320l3,.24v1.63h-8.26v-1.63l3-.24V294.8Z"/><path d="M637.62,322.24a8.06,8.06,0,0,1-6.27-2.77,10.17,10.17,0,0,1-2.49-7.06v-1a10.51,10.51,0,0,1,2.48-7.15,7.67,7.67,0,0,1,6-2.83,7.47,7.47,0,0,1,5.81,2.33,9,9,0,0,1,2.12,6.24v1.89H631.07v.54a8.85,8.85,0,0,0,1.81,5.67,5.78,5.78,0,0,0,4.74,2.29,9.56,9.56,0,0,0,3.53-.58,6.91,6.91,0,0,0,2.5-1.65l1,1.52a8.07,8.07,0,0,1-2.86,1.89A11.07,11.07,0,0,1,637.62,322.24Zm-.3-18.94a5.34,5.34,0,0,0-4.13,1.88,8.1,8.1,0,0,0-2,4.72l0,.1H643v-.56a6.47,6.47,0,0,0-1.54-4.38A5.29,5.29,0,0,0,637.32,303.3Z"/><path d="M649.31,312a13,13,0,0,1,2.05-7.69,6.6,6.6,0,0,1,5.69-2.88,7.13,7.13,0,0,1,3.7.93,7.57,7.57,0,0,1,2.59,2.65l.26-3.21h1.87v19.81a8.62,8.62,0,0,1-2.1,6.13,7.6,7.6,0,0,1-5.84,2.24,15,15,0,0,1-3.09-.35,12.38,12.38,0,0,1-2.87-1l.6-1.87a12.86,12.86,0,0,0,2.53.89,12,12,0,0,0,2.79.32,5.39,5.39,0,0,0,4.31-1.69,7,7,0,0,0,1.44-4.7v-2.54a7,7,0,0,1-2.57,2.37,7.72,7.72,0,0,1-3.66.82,6.69,6.69,0,0,1-5.66-2.69,11.57,11.57,0,0,1-2-7.18Zm2.23.39a10.12,10.12,0,0,0,1.47,5.78,5,5,0,0,0,4.41,2.16,6.22,6.22,0,0,0,3.61-1,6.31,6.31,0,0,0,2.21-2.71v-9.31a7,7,0,0,0-2.13-2.87,5.69,5.69,0,0,0-3.65-1.1,4.88,4.88,0,0,0-4.43,2.41,11.64,11.64,0,0,0-1.49,6.23Z"/><path d="M684.38,321.85c-.15-.68-.26-1.26-.32-1.76a12.33,12.33,0,0,1-.09-1.5,8.78,8.78,0,0,1-3,2.61,8.33,8.33,0,0,1-4.17,1,6.39,6.39,0,0,1-4.57-1.52,5.41,5.41,0,0,1-1.61-4.12,5.08,5.08,0,0,1,2.39-4.41,11.37,11.37,0,0,1,6.5-1.64H684V307.9a4.3,4.3,0,0,0-1.38-3.38,5.66,5.66,0,0,0-3.87-1.22,9.81,9.81,0,0,0-3.05.45,7.05,7.05,0,0,0-2.31,1.24l-.19,2.69h-1.84l0-3.86a11.66,11.66,0,0,1,3.33-1.75,12.77,12.77,0,0,1,4.13-.66,8.1,8.1,0,0,1,5.35,1.68,6,6,0,0,1,2,4.85v9.87c0,.41,0,.8,0,1.18a8,8,0,0,0,.12,1.1l2,.13v1.63Zm-7.31-1.57a8.07,8.07,0,0,0,4.25-1.12,6.57,6.57,0,0,0,2.65-2.87v-4H679.5a8.35,8.35,0,0,0-4.83,1.25,3.73,3.73,0,0,0-1.81,3.17,3.3,3.3,0,0,0,1.12,2.6A4.52,4.52,0,0,0,677.07,320.28Z"/><path d="M691,303.43v-1.65h5l.21,3.32a6.94,6.94,0,0,1,2.58-2.73,7.35,7.35,0,0,1,3.84-1,6.35,6.35,0,0,1,3.84,1.12,6.27,6.27,0,0,1,2.21,3.42,7.76,7.76,0,0,1,2.59-3.33,6.76,6.76,0,0,1,4.09-1.21,6.06,6.06,0,0,1,5,2.13q1.76,2.13,1.75,6.6V320l3,.26v1.63h-8.3v-1.63l3-.26v-9.85c0-2.48-.44-4.22-1.31-5.24a4.54,4.54,0,0,0-3.65-1.53,5,5,0,0,0-4,1.65,7.92,7.92,0,0,0-1.73,4.21,2.53,2.53,0,0,0,0,.28,3.12,3.12,0,0,1,0,.33V320l3,.24v1.63H703.9v-1.63l3-.24v-9.87c0-2.43-.44-4.16-1.32-5.21a4.54,4.54,0,0,0-3.65-1.56,5.54,5.54,0,0,0-3.76,1.19,6.37,6.37,0,0,0-1.94,3.22V320l3,.24v1.63H691v-1.63l3-.24V303.67Z"/><path d="M727.65,311.52a10.82,10.82,0,0,1,2.43-7.28,8.75,8.75,0,0,1,12.89,0,10.82,10.82,0,0,1,2.43,7.28v.61a10.76,10.76,0,0,1-2.42,7.28,8,8,0,0,1-6.43,2.83,8.1,8.1,0,0,1-6.47-2.83,10.76,10.76,0,0,1-2.43-7.28Zm2.22.61a9.51,9.51,0,0,0,1.77,5.86,6.21,6.21,0,0,0,9.78,0,9.57,9.57,0,0,0,1.76-5.86v-.61a9.54,9.54,0,0,0-1.77-5.83,6.19,6.19,0,0,0-9.77,0,9.54,9.54,0,0,0-1.77,5.83Z"/><path d="M763.59,308h-1.82l-.26-2.83a5.54,5.54,0,0,0-2.11-1.36,8.2,8.2,0,0,0-2.92-.48,5.43,5.43,0,0,0-3.64,1.05,3.14,3.14,0,0,0-1.22,2.46,2.93,2.93,0,0,0,1,2.3,10.33,10.33,0,0,0,4.18,1.59,13.72,13.72,0,0,1,5.37,2.18,4.53,4.53,0,0,1,1.78,3.76,4.84,4.84,0,0,1-2,4.05,8.56,8.56,0,0,1-5.37,1.55,12.38,12.38,0,0,1-4.05-.62,9.59,9.59,0,0,1-3.16-1.75v-4.05h1.8l.31,2.86a5.25,5.25,0,0,0,2.26,1.29,9.85,9.85,0,0,0,2.84.4,6.14,6.14,0,0,0,3.81-1.06,3.15,3.15,0,0,0,1.39-2.56,3.27,3.27,0,0,0-1.16-2.47,9.46,9.46,0,0,0-4.19-1.72,14.07,14.07,0,0,1-5.31-2.07,4.23,4.23,0,0,1-1.74-3.61,4.85,4.85,0,0,1,2-3.89,7.93,7.93,0,0,1,5.14-1.58,11.61,11.61,0,0,1,4,.67,8.1,8.1,0,0,1,3,1.83Z"/><path d="M776.87,320.22l3-.24V303.67l-3-.24v-1.65h5l.21,3.5a7.1,7.1,0,0,1,2.61-2.86,7.19,7.19,0,0,1,3.88-1,6.19,6.19,0,0,1,5,2q1.69,2,1.7,6.23V320l3,.24v1.63H790v-1.63l3-.24V309.64c0-2.3-.43-3.92-1.29-4.88a4.69,4.69,0,0,0-3.67-1.42,5.74,5.74,0,0,0-3.81,1.23,6.93,6.93,0,0,0-2.13,3.27V320l3,.24v1.63h-8.28Z"/><path d="M801.57,311.52a10.82,10.82,0,0,1,2.43-7.28,8.77,8.77,0,0,1,12.9,0,10.82,10.82,0,0,1,2.43,7.28v.61a10.81,10.81,0,0,1-2.42,7.28,8.78,8.78,0,0,1-12.91,0,10.76,10.76,0,0,1-2.43-7.28Zm2.23.61a9.51,9.51,0,0,0,1.76,5.86,6.21,6.21,0,0,0,9.78,0,9.57,9.57,0,0,0,1.76-5.86v-.61a9.54,9.54,0,0,0-1.77-5.83,6.19,6.19,0,0,0-9.77,0,9.54,9.54,0,0,0-1.76,5.83Z"/><path d="M831.78,320.22l3-.24V303.67l-3-.24v-1.65h5l.2,3.5a7.1,7.1,0,0,1,2.61-2.86,7.2,7.2,0,0,1,3.89-1,6.19,6.19,0,0,1,5,2q1.71,2,1.71,6.23V320l3,.24v1.63H844.9v-1.63l3-.24V309.64c0-2.3-.43-3.92-1.29-4.88a4.68,4.68,0,0,0-3.66-1.42,5.78,5.78,0,0,0-3.82,1.23,6.84,6.84,0,0,0-2.12,3.27V320l3,.24v1.63h-8.27Z"/><path d="M856.47,311.52a10.82,10.82,0,0,1,2.43-7.28,8.77,8.77,0,0,1,12.9,0,10.82,10.82,0,0,1,2.43,7.28v.61a10.81,10.81,0,0,1-2.42,7.28,8.78,8.78,0,0,1-12.91,0,10.76,10.76,0,0,1-2.43-7.28Zm2.23.61a9.57,9.57,0,0,0,1.76,5.86,5.78,5.78,0,0,0,4.92,2.38,5.71,5.71,0,0,0,4.86-2.38,9.51,9.51,0,0,0,1.76-5.86v-.61a9.54,9.54,0,0,0-1.77-5.83,6.19,6.19,0,0,0-9.77,0,9.6,9.6,0,0,0-1.76,5.83Z"/><path d="M892.41,308H890.6l-.26-2.83a5.54,5.54,0,0,0-2.11-1.36,8.24,8.24,0,0,0-2.92-.48,5.46,5.46,0,0,0-3.65,1.05,3.16,3.16,0,0,0-1.21,2.46,2.92,2.92,0,0,0,1,2.3,10.39,10.39,0,0,0,4.19,1.59,13.66,13.66,0,0,1,5.36,2.18,4.5,4.5,0,0,1,1.78,3.76,4.86,4.86,0,0,1-2,4.05,8.56,8.56,0,0,1-5.37,1.55,12.4,12.4,0,0,1-4.06-.62,9.69,9.69,0,0,1-3.16-1.75v-4.05H880l.32,2.86a5.21,5.21,0,0,0,2.25,1.29,10,10,0,0,0,2.85.4,6.1,6.1,0,0,0,3.8-1.06,3.12,3.12,0,0,0,1.39-2.56,3.24,3.24,0,0,0-1.16-2.47,9.36,9.36,0,0,0-4.18-1.72,14.13,14.13,0,0,1-5.32-2.07,4.25,4.25,0,0,1-1.73-3.61,4.85,4.85,0,0,1,1.95-3.89,7.93,7.93,0,0,1,5.14-1.58,11.55,11.55,0,0,1,4,.67,8.1,8.1,0,0,1,3,1.83Z"/><path d="M911.43,308h-1.82l-.26-2.83a5.42,5.42,0,0,0-2.1-1.36,8.24,8.24,0,0,0-2.92-.48,5.45,5.45,0,0,0-3.65,1.05,3.17,3.17,0,0,0-1.22,2.46,2.93,2.93,0,0,0,1,2.3,10.39,10.39,0,0,0,4.19,1.59,13.73,13.73,0,0,1,5.36,2.18,4.5,4.5,0,0,1,1.78,3.76,4.86,4.86,0,0,1-2,4.05,8.6,8.6,0,0,1-5.37,1.55,12.4,12.4,0,0,1-4.06-.62,9.59,9.59,0,0,1-3.16-1.75v-4.05H899l.31,2.86a5.31,5.31,0,0,0,2.26,1.29,10,10,0,0,0,2.85.4,6.12,6.12,0,0,0,3.8-1.06,3.12,3.12,0,0,0,1.39-2.56,3.24,3.24,0,0,0-1.16-2.47,9.41,9.41,0,0,0-4.18-1.72,14.13,14.13,0,0,1-5.32-2.07,4.25,4.25,0,0,1-1.73-3.61,4.85,4.85,0,0,1,2-3.89,7.91,7.91,0,0,1,5.14-1.58,11.55,11.55,0,0,1,4,.67,8.1,8.1,0,0,1,3,1.83Z"/><path d="M915.89,311.52a10.76,10.76,0,0,1,2.43-7.28,8.75,8.75,0,0,1,12.89,0,10.82,10.82,0,0,1,2.43,7.28v.61a10.76,10.76,0,0,1-2.42,7.28,8.77,8.77,0,0,1-12.9,0,10.71,10.71,0,0,1-2.43-7.28Zm2.22.61a9.57,9.57,0,0,0,1.76,5.86,5.78,5.78,0,0,0,4.92,2.38,5.69,5.69,0,0,0,4.86-2.38,9.51,9.51,0,0,0,1.77-5.86v-.61a9.55,9.55,0,0,0-1.78-5.83,6.19,6.19,0,0,0-9.77,0,9.6,9.6,0,0,0-1.76,5.83Z"/><path d="M586.08,342.53v4.85h3.8v2.71h-3.8v12.19a2.71,2.71,0,0,0,.58,2,2.1,2.1,0,0,0,1.55.58,7.35,7.35,0,0,0,1.08-.09c.41-.05.74-.11,1-.17l.5,2.5a4.55,4.55,0,0,1-1.52.55,9.8,9.8,0,0,1-2,.21,4.76,4.76,0,0,1-3.54-1.34,5.85,5.85,0,0,1-1.32-4.22V350.09h-3.17v-2.71h3.17v-4.85Z"/><path d="M602.77,367.84a8.49,8.49,0,0,1-6.67-2.79,10.51,10.51,0,0,1-2.47-7.24V357a10.31,10.31,0,0,1,2.55-7.14,7.87,7.87,0,0,1,6-2.84,7.59,7.59,0,0,1,6.13,2.45,9.73,9.73,0,0,1,2.09,6.53v2.28h-13l0,.09a7.88,7.88,0,0,0,1.46,4.76,4.68,4.68,0,0,0,3.95,1.87,9.25,9.25,0,0,0,3.26-.53,7.63,7.63,0,0,0,2.42-1.46l1.43,2.38a8.93,8.93,0,0,1-2.85,1.75A11.51,11.51,0,0,1,602.77,367.84Zm-.55-18a4,4,0,0,0-3.14,1.55,7.39,7.39,0,0,0-1.59,3.89l0,.09h9.26v-.48a5.57,5.57,0,0,0-1.15-3.6A4.08,4.08,0,0,0,602.22,349.88Z"/><path d="M614,349.73v-2.35h6.29l.35,2.91a6.93,6.93,0,0,1,2.11-2.41,4.88,4.88,0,0,1,2.86-.87,6.62,6.62,0,0,1,.88.06,4.24,4.24,0,0,1,.7.14l-.48,3.4-2.08-.12a4.17,4.17,0,0,0-2.43.68,4.38,4.38,0,0,0-1.52,1.9V364.6l3,.52v2.33H614v-2.33l3-.52V350.25Z"/><path d="M638.42,365a4.93,4.93,0,0,0,3.2-1.13,3.42,3.42,0,0,0,1.38-2.75h3.29l0,.11a5.64,5.64,0,0,1-2.31,4.61,8.44,8.44,0,0,1-5.59,2,8.11,8.11,0,0,1-6.69-2.85,11.07,11.07,0,0,1-2.31-7.18V357a11,11,0,0,1,2.32-7.16,8.08,8.08,0,0,1,6.68-2.86,11.21,11.21,0,0,1,4.33.79,8.93,8.93,0,0,1,3.18,2.19l.17,4.46h-2.91l-.8-3.16a4.82,4.82,0,0,0-1.67-1,6.41,6.41,0,0,0-2.3-.39,4.4,4.4,0,0,0-4.11,2.07,9.78,9.78,0,0,0-1.24,5.08v.78a9.84,9.84,0,0,0,1.23,5.13A4.43,4.43,0,0,0,638.42,365Z"/><path d="M659.05,367.84a8.48,8.48,0,0,1-6.67-2.79,10.52,10.52,0,0,1-2.48-7.24V357a10.31,10.31,0,0,1,2.55-7.14,7.9,7.9,0,0,1,6-2.84,7.6,7.6,0,0,1,6.14,2.45,9.73,9.73,0,0,1,2.08,6.53v2.28h-13l-.06.09a8,8,0,0,0,1.47,4.76,4.68,4.68,0,0,0,3.95,1.87,9.28,9.28,0,0,0,3.26-.53,7.63,7.63,0,0,0,2.42-1.46l1.43,2.38a8.93,8.93,0,0,1-2.85,1.75A11.51,11.51,0,0,1,659.05,367.84Zm-.56-18a4,4,0,0,0-3.13,1.55,7.32,7.32,0,0,0-1.6,3.89l0,.09h9.26v-.48a5.57,5.57,0,0,0-1.15-3.6A4.1,4.1,0,0,0,658.49,349.88Z"/><path d="M670.31,365.12l3-.52V350.25l-3-.52v-2.35H677V364.6l3,.52v2.33h-9.71ZM677,342.24h-3.65v-3.73H677Z"/><path d="M682.8,349.73v-2.35h6.29l.35,2.91a6.93,6.93,0,0,1,2.11-2.41,4.89,4.89,0,0,1,2.87-.87,6.85,6.85,0,0,1,.88.06,4.31,4.31,0,0,1,.69.14l-.48,3.4-2.08-.12a4.21,4.21,0,0,0-2.43.68,4.45,4.45,0,0,0-1.52,1.9V364.6l3,.52v2.33H682.8v-2.33l3-.52V350.25Z"/><path d="M698.16,357.23a11,11,0,0,1,2.42-7.34,8.92,8.92,0,0,1,13.12,0,11,11,0,0,1,2.43,7.35v.41a11,11,0,0,1-2.42,7.35,9,9,0,0,1-13.13,0,11,11,0,0,1-2.42-7.34Zm3.66.41a9.5,9.5,0,0,0,1.35,5.27,4.84,4.84,0,0,0,8,0,9.5,9.5,0,0,0,1.35-5.27v-.41a9.53,9.53,0,0,0-1.35-5.25,4.46,4.46,0,0,0-4-2.1,4.4,4.4,0,0,0-4,2.1,9.61,9.61,0,0,0-1.34,5.25Z"/><path d="M728.19,365.12l3-.52V350.25l-3-.52v-2.35h6.3l.25,2.61a6.57,6.57,0,0,1,2.48-2.2,7.65,7.65,0,0,1,3.53-.78,6.29,6.29,0,0,1,3.44.92,5.6,5.6,0,0,1,2.16,2.79,7.45,7.45,0,0,1,2.51-2.71,6.55,6.55,0,0,1,3.63-1,6,6,0,0,1,4.86,2.1q1.78,2.11,1.79,6.34v9.15l3,.52v2.33h-9.72v-2.33l3-.52v-9.19a6.66,6.66,0,0,0-1-4.2,3.7,3.7,0,0,0-3-1.23,3.83,3.83,0,0,0-3.07,1.34,5.8,5.8,0,0,0-1.35,3.39v9.89l3,.52v2.33h-9.7v-2.33l3-.52v-9.19a6.58,6.58,0,0,0-1.05-4.13,3.67,3.67,0,0,0-3-1.3,5,5,0,0,0-2.74.68,4.4,4.4,0,0,0-1.65,1.93v12l3,.52v2.33h-9.7Z"/><path d="M764.81,365.12l3-.52V350.25l-3-.52v-2.35h6.68V364.6l3,.52v2.33h-9.71Zm6.68-22.88h-3.65v-3.73h3.65Z"/><path d="M786.32,365a4.93,4.93,0,0,0,3.2-1.13,3.42,3.42,0,0,0,1.38-2.75h3.29l0,.11a5.64,5.64,0,0,1-2.31,4.61,8.46,8.46,0,0,1-5.59,2,8.11,8.11,0,0,1-6.69-2.85,11.07,11.07,0,0,1-2.31-7.18V357a11,11,0,0,1,2.32-7.16,8.08,8.08,0,0,1,6.68-2.86,11.21,11.21,0,0,1,4.33.79,8.93,8.93,0,0,1,3.18,2.19l.17,4.46h-2.91l-.8-3.16a4.92,4.92,0,0,0-1.67-1,6.41,6.41,0,0,0-2.3-.39,4.4,4.4,0,0,0-4.11,2.07A9.78,9.78,0,0,0,781,357v.78a9.84,9.84,0,0,0,1.23,5.13A4.43,4.43,0,0,0,786.32,365Z"/><path d="M797.78,349.73v-2.35h6.29l.36,2.91a7,7,0,0,1,2.1-2.41,4.92,4.92,0,0,1,2.87-.87,6.73,6.73,0,0,1,.88.06,4.47,4.47,0,0,1,.7.14l-.49,3.4-2.07-.12a4.17,4.17,0,0,0-2.43.68,4.4,4.4,0,0,0-1.53,1.9V364.6l3,.52v2.33h-9.71v-2.33l3-.52V350.25Z"/><path d="M813.15,357.23a11,11,0,0,1,2.41-7.34,8.1,8.1,0,0,1,6.55-2.88,8.18,8.18,0,0,1,6.58,2.87,11.05,11.05,0,0,1,2.42,7.35v.41A11.06,11.06,0,0,1,828.7,365a9,9,0,0,1-13.14,0,11,11,0,0,1-2.41-7.34Zm3.65.41a9.5,9.5,0,0,0,1.35,5.27,4.84,4.84,0,0,0,8,0,9.5,9.5,0,0,0,1.35-5.27v-.41A9.53,9.53,0,0,0,826.1,352a4.82,4.82,0,0,0-8,0,9.61,9.61,0,0,0-1.34,5.25Z"/><path d="M833.73,365.12l3-.52V350.25l-3-.52v-2.35H840l.24,2.61a6.67,6.67,0,0,1,2.49-2.2,7.62,7.62,0,0,1,3.53-.78,6.29,6.29,0,0,1,3.44.92,5.6,5.6,0,0,1,2.16,2.79A7.45,7.45,0,0,1,854.4,348a6.53,6.53,0,0,1,3.63-1,6,6,0,0,1,4.86,2.1q1.79,2.11,1.78,6.34v9.15l3,.52v2.33H858v-2.33l3-.52v-9.19a6.66,6.66,0,0,0-1-4.2,3.7,3.7,0,0,0-3-1.23,3.86,3.86,0,0,0-3.08,1.34,5.86,5.86,0,0,0-1.34,3.39v9.89l3,.52v2.33h-9.7v-2.33l3-.52v-9.19a6.65,6.65,0,0,0-1-4.13,3.67,3.67,0,0,0-3-1.3,5,5,0,0,0-2.74.68,4.49,4.49,0,0,0-1.66,1.93v12l3,.52v2.33h-9.7Z"/><path d="M884.71,364.48a6.5,6.5,0,0,1-5.88,3.36,6.43,6.43,0,0,1-5.1-2.09q-1.85-2.1-1.84-6.53v-9l-2.3-.52v-2.35h6v11.87c0,2.14.31,3.61.94,4.42a3.53,3.53,0,0,0,3,1.2,6,6,0,0,0,3.22-.78,5,5,0,0,0,1.92-2.24v-11.6l-2.69-.52v-2.35h6.35V364.6l2.3.52v2.33H885Z"/><path d="M892.9,365.12l3-.52V350.25l-3-.52v-2.35h6.29l.26,3a7.23,7.23,0,0,1,2.51-2.47,6.67,6.67,0,0,1,3.44-.88,6.54,6.54,0,0,1,5,1.9c1.19,1.27,1.78,3.22,1.78,5.87v9.82l3,.52v2.33h-9.71v-2.33l3-.52v-9.75a5.42,5.42,0,0,0-1-3.76,4.21,4.21,0,0,0-3.2-1.11,5.1,5.1,0,0,0-2.79.76,5.45,5.45,0,0,0-1.94,2.07V364.6l3,.52v2.33h-9.7Z"/><path d="M931.23,365.06a6.52,6.52,0,0,1-2.4,2.08,7.35,7.35,0,0,1-3.3.7,6.84,6.84,0,0,1-5.74-2.66,11.08,11.08,0,0,1-2.07-7v-.39a13.36,13.36,0,0,1,2.07-7.81,6.65,6.65,0,0,1,5.78-3,7.29,7.29,0,0,1,3.15.65,6.54,6.54,0,0,1,2.32,1.91v-8.19l-3-.52v-2.35h6.68V364.6l3,.52v2.33h-6.19Zm-9.85-6.88a8.54,8.54,0,0,0,1.24,4.86,4.32,4.32,0,0,0,3.84,1.83,4.81,4.81,0,0,0,2.75-.74A5.6,5.6,0,0,0,931,362v-9.32a5.61,5.61,0,0,0-1.83-2,4.81,4.81,0,0,0-2.71-.74,4.15,4.15,0,0,0-3.87,2.17,11.12,11.12,0,0,0-1.25,5.64Z"/><path d="M940.53,357.23a11,11,0,0,1,2.41-7.34,8.1,8.1,0,0,1,6.55-2.88,8.18,8.18,0,0,1,6.58,2.87,11.05,11.05,0,0,1,2.42,7.35v.41a11,11,0,0,1-2.42,7.35,9,9,0,0,1-13.13,0,11,11,0,0,1-2.41-7.34Zm3.65.41a9.5,9.5,0,0,0,1.35,5.27,4.84,4.84,0,0,0,8,0,9.5,9.5,0,0,0,1.35-5.27v-.41a9.53,9.53,0,0,0-1.35-5.25,4.46,4.46,0,0,0-4-2.1,4.4,4.4,0,0,0-4,2.1,9.61,9.61,0,0,0-1.34,5.25Z"/><path d="M966.52,367.45h-3.65v-3.74h3.65Z"/></g></svg>