<svg xmlns="http://www.w3.org/2000/svg" xmlns:xlink="http://www.w3.org/1999/xlink" viewBox="0 0 1124.64 651.26"><defs><style>.cls-1{fill:none;}.cls-2{fill:#dd7a7a;}.cls-3{fill:#c6b366;}.cls-4{clip-path:url(#clip-path);}.cls-5{fill:#fff3c2;}.cls-6{fill:#fff3c3;}.cls-7{fill:#fff3c4;}.cls-8{fill:#fff4c5;}.cls-9{fill:#fff4c6;}.cls-10{fill:#fff4c7;}.cls-11{fill:#fff4c8;}.cls-12{fill:#fff4c9;}.cls-13{fill:#fff5ca;}.cls-14{fill:#fff5cb;}.cls-15{fill:#fff5cc;}.cls-16{fill:#fff5cd;}.cls-17{fill:#fff5ce;}.cls-18{fill:#fff6cf;}.cls-19{fill:#fff6d0;}.cls-20{fill:#fff6d1;}.cls-21{fill:#fff6d2;}.cls-22{fill:#fff6d3;}.cls-23{fill:#fff7d4;}.cls-24{fill:#fff7d5;}.cls-25{fill:#fff7d6;}.cls-26{fill:#fff7d7;}.cls-27{fill:#fff7d8;}.cls-28{fill:#fff8d9;}.cls-29{fill:#fff8da;}.cls-30{fill:#fff8db;}.cls-31{fill:#fff8dc;}.cls-32{fill:#fff8dd;}.cls-33{fill:#fff9de;}.cls-34{fill:#fff9df;}.cls-35{fill:#fff9e0;}.cls-36{fill:#fff9e2;}.cls-37{fill:#fff9e3;}.cls-38{fill:#fffae4;}.cls-39{fill:#fffae5;}.cls-40{fill:#fffae6;}.cls-41{fill:#fffae7;}.cls-42{fill:#fffae8;}.cls-43{fill:#fffbe9;}.cls-44{fill:#fffbea;}.cls-45{fill:#fffbeb;}.cls-46{fill:#fffbec;}.cls-47{fill:#fffbed;}.cls-48{fill:#fffcee;}.cls-49{fill:#fffcef;}.cls-50{fill:#fffcf0;}.cls-51{fill:#fffcf1;}.cls-52{fill:#fffcf2;}.cls-53{fill:#fffdf3;}.cls-54{fill:#fffdf4;}.cls-55{fill:#fffdf5;}.cls-56{fill:#fffdf6;}.cls-57{fill:#fffdf7;}.cls-58{fill:#fffef8;}.cls-59{fill:#fffef9;}.cls-60{fill:#fffefa;}.cls-61{fill:#fffefb;}.cls-62{fill:#fffefc;}.cls-63{fill:#fffffd;}.cls-64{fill:#fffffe;}.cls-65{fill:#fff;}.cls-66{fill:#ffeda1;}.cls-67{clip-path:url(#clip-path-2);}.cls-68{fill:#ef9777;}.cls-69{fill:#3a1e1c;}.cls-70{clip-path:url(#clip-path-3);}.cls-71{fill:#d88268;}.cls-72{fill:#d98369;}.cls-73{fill:#da8469;}.cls-74{fill:#db856a;}.cls-75{fill:#dc866b;}.cls-76{fill:#dd876b;}.cls-77{fill:#de886c;}.cls-78{fill:#df896d;}.cls-79{fill:#e08a6d;}.cls-80{fill:#e18b6e;}.cls-81{fill:#e28c6f;}.cls-82{fill:#e48d70;}.cls-83{fill:#e58d70;}.cls-84{fill:#e68e71;}.cls-85{fill:#e78f72;}.cls-86{fill:#e89072;}.cls-87{fill:#e99173;}.cls-88{fill:#ea9274;}.cls-89{fill:#eb9374;}.cls-90{fill:#ec9475;}.cls-91{fill:#ed9576;}.cls-92{fill:#ee9676;}.cls-93{fill:#3d201f;}.cls-94{fill:#b5574d;}.cls-95{fill:#b3514e;}.cls-96{fill:#312235;}.cls-97{fill:#fc999c;}.cls-98{fill:#f9aaaa;}.cls-99{fill:#822222;}.cls-100{fill:#9b3737;}.cls-101{fill:#5b1f3c;}.cls-102{fill:#fffdfd;}.cls-103{clip-path:url(#clip-path-4);}.cls-104{fill:#ce7061;}</style><clipPath id="clip-path"><path class="cls-1" d="M428.87,402.79a192.51,192.51,0,0,0-5.05-43.86c-32.69-73-109.23-124.15-198.45-124.15C106.43,234.78,10,325.78,10,438a193.16,193.16,0,0,0,5,43.87C47.74,554.84,124.28,606,213.5,606,332.44,606,428.87,515,428.87,402.79Z"/></clipPath><clipPath id="clip-path-2"><path class="cls-1" d="M540.86,351.81c-10.3-18-97.34-31.5-97.34-31.5S301.2,131.55,232.19,138s-80.25,56.59-80.25,56.59l-32.63,66.55C54,296,10,362.17,10,438c0,112.25,96.43,203.24,215.37,203.24,117.57,0,213.12-88.9,215.32-199.34C473,419.61,548.81,365.68,540.86,351.81Z"/></clipPath><clipPath id="clip-path-3"><path class="cls-1" d="M227.68,319.63l-2.36,9.78s-19.92,12.9-37.91,11.87c-5.34-.3,67.76,42.8,71.74,43s34.38-50.16,34.38-50.16-20.41-3.73-27.17-4-14.47-18.28-14.47-18.28Z"/></clipPath><clipPath id="clip-path-4"><path class="cls-1" d="M541.11-404.43c-10.3-18-97.34-31.5-97.34-31.5S301.45-624.7,232.44-618.27s-80.25,56.59-80.25,56.59l-32.63,66.55C54.29-460.21,10.25-394.07,10.25-318.22,10.25-206,106.68-115,225.62-115c117.57,0,213.12-88.9,215.32-199.35C473.29-336.63,549.06-390.56,541.11-404.43Z"/></clipPath></defs><title>M3-fala2</title><g id="Camada_5" data-name="Camada 5"><path class="cls-2" d="M225.37,234.78c119,0,215.37,91,215.37,203.24S344.32,641.26,225.37,641.26,10,550.27,10,438s96.42-203.24,215.37-203.24m0-10a235.1,235.1,0,0,0-87.54,16.69A225.72,225.72,0,0,0,66.22,287,212.37,212.37,0,0,0,17.8,354.82a203.34,203.34,0,0,0,0,166.4A212.3,212.3,0,0,0,66.22,589a225.89,225.89,0,0,0,71.61,45.57,238.05,238.05,0,0,0,175.08,0A225.94,225.94,0,0,0,384.53,589a212.12,212.12,0,0,0,48.41-67.79,203.34,203.34,0,0,0,0-166.4A212.19,212.19,0,0,0,384.53,287a225.76,225.76,0,0,0-71.62-45.57,235.1,235.1,0,0,0-87.54-16.69Z"/><ellipse class="cls-3" cx="225.37" cy="438.02" rx="215.37" ry="203.24"/><g class="cls-4"><rect class="cls-5" x="10" y="234.78" width="418.87" height="371.24"/><path class="cls-5" d="M206.79,475.71a120.37,120.37,0,1,1,167,33A120.37,120.37,0,0,1,206.79,475.71Z"/><path class="cls-6" d="M208.43,474.61a118.4,118.4,0,1,1,164.26,32.46A118.39,118.39,0,0,1,208.43,474.61Z"/><path class="cls-7" d="M210.07,473.51a116.43,116.43,0,1,1,161.52,31.92A116.42,116.42,0,0,1,210.07,473.51Z"/><path class="cls-8" d="M211.71,472.41A114.45,114.45,0,1,1,370.5,503.79,114.44,114.44,0,0,1,211.71,472.41Z"/><circle class="cls-9" cx="306.79" cy="408.71" r="112.48"/><circle class="cls-10" cx="306.79" cy="408.71" r="110.5"/><circle class="cls-11" cx="306.79" cy="408.71" r="108.53"/><circle class="cls-12" cx="306.79" cy="408.71" r="106.56"/><circle class="cls-13" cx="306.79" cy="408.71" r="104.58"/><circle class="cls-14" cx="306.79" cy="408.71" r="102.61"/><circle class="cls-15" cx="306.79" cy="408.71" r="100.64"/><circle class="cls-16" cx="306.79" cy="408.71" r="98.66"/><circle class="cls-17" cx="306.79" cy="408.71" r="96.69"/><circle class="cls-18" cx="306.79" cy="408.71" r="94.72"/><circle class="cls-19" cx="306.79" cy="408.71" r="92.74"/><circle class="cls-20" cx="306.79" cy="408.71" r="90.77"/><circle class="cls-21" cx="306.79" cy="408.71" r="88.8"/><circle class="cls-22" cx="306.79" cy="408.71" r="86.82"/><circle class="cls-23" cx="306.79" cy="408.71" r="84.85"/><circle class="cls-24" cx="306.79" cy="408.71" r="82.88"/><circle class="cls-25" cx="306.79" cy="408.71" r="80.9"/><circle class="cls-26" cx="306.79" cy="408.71" r="78.93"/><circle class="cls-27" cx="306.79" cy="408.71" r="76.96"/><circle class="cls-28" cx="306.79" cy="408.71" r="74.98"/><circle class="cls-29" cx="306.79" cy="408.71" r="73.01"/><circle class="cls-30" cx="306.79" cy="408.71" r="71.04"/><circle class="cls-31" cx="306.79" cy="408.71" r="69.06"/><circle class="cls-32" cx="306.79" cy="408.71" r="67.09"/><circle class="cls-33" cx="306.79" cy="408.71" r="65.12"/><circle class="cls-34" cx="306.79" cy="408.71" r="63.15"/><circle class="cls-35" cx="306.79" cy="408.71" r="61.17"/><circle class="cls-36" cx="306.79" cy="408.71" r="59.2"/><circle class="cls-37" cx="306.79" cy="408.71" r="57.23"/><circle class="cls-38" cx="306.79" cy="408.71" r="55.25"/><circle class="cls-39" cx="306.79" cy="408.71" r="53.28"/><circle class="cls-40" cx="306.79" cy="408.71" r="51.31"/><circle class="cls-41" cx="306.79" cy="408.71" r="49.33"/><circle class="cls-42" cx="306.79" cy="408.71" r="47.36"/><circle class="cls-43" cx="306.79" cy="408.71" r="45.39"/><circle class="cls-44" cx="306.79" cy="408.71" r="43.41"/><circle class="cls-45" cx="306.79" cy="408.71" r="41.44"/><circle class="cls-46" cx="306.79" cy="408.71" r="39.47"/><circle class="cls-47" cx="306.79" cy="408.71" r="37.49"/><circle class="cls-48" cx="306.79" cy="408.71" r="35.52"/><circle class="cls-49" cx="306.79" cy="408.71" r="33.55"/><circle class="cls-50" cx="306.79" cy="408.71" r="31.57"/><circle class="cls-51" cx="306.79" cy="408.71" r="29.6"/><circle class="cls-52" cx="306.79" cy="408.71" r="27.63"/><circle class="cls-53" cx="306.79" cy="408.71" r="25.65"/><circle class="cls-54" cx="306.79" cy="408.71" r="23.68"/><circle class="cls-55" cx="306.79" cy="408.71" r="21.71"/><circle class="cls-56" cx="306.79" cy="408.71" r="19.73"/><circle class="cls-57" cx="306.79" cy="408.71" r="17.76"/><circle class="cls-58" cx="306.79" cy="408.71" r="15.79"/><circle class="cls-59" cx="306.79" cy="408.71" r="13.81"/><circle class="cls-60" cx="306.79" cy="408.71" r="11.84"/><circle class="cls-61" cx="306.79" cy="408.71" r="9.87"/><circle class="cls-62" cx="306.79" cy="408.71" r="7.89"/><circle class="cls-63" cx="306.79" cy="408.71" r="5.92"/><circle class="cls-64" cx="306.79" cy="408.71" r="3.95"/><circle class="cls-65" cx="306.79" cy="408.71" r="1.97"/></g><path class="cls-3" d="M787.8,44.22c-174.89,0-318.64,118.13-335.23,269.27L353,353.14s-6.51,2.41-5.85,11.74a12.7,12.7,0,0,0,7.43,10.89L458.82,407C492,541,626.68,641.26,787.8,641.26c186,0,336.84-133.65,336.84-298.52S973.83,44.22,787.8,44.22Z"/><path class="cls-66" d="M787.75,0C612.85,0,469.11,118.13,452.52,269.27L353,308.92s-6.51,2.41-5.86,11.74a12.7,12.7,0,0,0,7.44,10.88l104.21,31.28C492,496.78,626.63,597,787.75,597c186,0,336.84-133.65,336.84-298.52S973.78,0,787.75,0Z"/><g class="cls-67"><path class="cls-68" d="M534.21,352.94a18,18,0,0,0-2.21-1.87,19.39,19.39,0,0,0-1.77-1.13A22.73,22.73,0,0,0,526,348.1a17.85,17.85,0,0,0-2.86-.67s-45.4,6.11-38.5,3-1.62-3.79-1.62-3.79-21.76,4.67-30,9.17c-5.48,3-12.26,25.5-12.26,25.5L453,395.57s13.81-9.68,18.89-14.76c3.66-3.66,20.55-3.28,33.25-5.34,4.95-.8,12.12-3.69,14.92-4.36,3.25-.78,3.54-3.18,6.58-5.16a30.6,30.6,0,0,0,4.82-3.82c1.7-1.67,1.32-1.57,1.87-3.17.27-.79,1.73-2.75,1.7-3.67A3.43,3.43,0,0,0,534.21,352.94Zm-19.63,13.12s-16.06,2.81-17-.63c-2.53,1,21.79-1.33,28.2-3.88Z"/><path class="cls-65" d="M153.28,564.7s24.48-21.86,24.48-27-14.35-8.35-14.35-8.35L143,558.89l9.58,7.33Z"/><path class="cls-69" d="M175.94,358.82S129,227,183.38,159.92c0,0,58.11-39.81,101.53,7s13,178.54,13,178.54Z"/><g class="cls-70"><polygon class="cls-71" points="293.46 311.8 293.49 312.12 182.06 322.49 182.06 311.8 293.46 311.8"/><polygon class="cls-71" points="293.49 312.12 293.53 312.49 293.53 312.93 182.06 323.3 182.06 322.49 293.49 312.12"/><polygon class="cls-72" points="293.53 313.74 182.06 324.11 182.06 323.3 293.53 312.93 293.53 313.74"/><polygon class="cls-73" points="293.53 314.55 182.06 324.93 182.06 324.11 293.53 313.74 293.53 314.55"/><polygon class="cls-74" points="293.53 315.37 182.06 325.74 182.06 324.93 293.53 314.55 293.53 315.37"/><polygon class="cls-75" points="293.53 316.18 182.06 326.55 182.06 325.74 293.53 315.37 293.53 316.18"/><polygon class="cls-76" points="293.53 316.99 182.06 327.37 182.06 326.55 293.53 316.18 293.53 316.99"/><polygon class="cls-77" points="293.53 317.81 182.06 328.18 182.06 327.37 293.53 316.99 293.53 317.81"/><polygon class="cls-78" points="293.53 318.62 182.06 328.99 182.06 328.18 293.53 317.81 293.53 318.62"/><polygon class="cls-79" points="293.53 319.43 182.06 329.81 182.06 328.99 293.53 318.62 293.53 319.43"/><polygon class="cls-80" points="293.53 320.24 182.06 330.62 182.06 329.81 293.53 319.43 293.53 320.24"/><polygon class="cls-81" points="293.53 321.06 182.06 331.43 182.06 330.62 293.53 320.24 293.53 321.06"/><polygon class="cls-82" points="293.53 321.87 182.06 332.24 182.06 331.43 293.53 321.06 293.53 321.87"/><polygon class="cls-83" points="293.53 322.68 182.06 333.06 182.06 332.24 293.53 321.87 293.53 322.68"/><polygon class="cls-84" points="293.53 323.5 182.06 333.87 182.06 333.06 293.53 322.68 293.53 323.5"/><polygon class="cls-85" points="293.53 324.31 182.06 334.68 182.06 333.87 293.53 323.5 293.53 324.31"/><polygon class="cls-86" points="293.53 325.12 182.06 335.5 182.06 334.68 293.53 324.31 293.53 325.12"/><polygon class="cls-87" points="293.53 325.94 182.06 336.31 182.06 335.5 293.53 325.12 293.53 325.94"/><polygon class="cls-88" points="293.53 326.75 182.06 337.12 182.06 336.31 293.53 325.94 293.53 326.75"/><polygon class="cls-89" points="293.53 327.56 182.06 337.94 182.06 337.12 293.53 326.75 293.53 327.56"/><polygon class="cls-90" points="293.53 328.38 182.06 338.75 182.06 337.94 293.53 327.56 293.53 328.38"/><polygon class="cls-91" points="293.53 329.19 182.06 339.56 182.06 338.75 293.53 328.38 293.53 329.19"/><polygon class="cls-92" points="293.53 330 182.06 340.38 182.06 339.56 293.53 329.19 293.53 330"/><polygon class="cls-68" points="293.53 330.82 182.06 341.19 182.06 340.38 293.53 330 293.53 330.82"/><polygon class="cls-68" points="184.1 384.38 182.06 362.56 182.06 341.19 293.53 330.82 293.53 384.38 184.1 384.38"/></g><path class="cls-68" d="M182.35,220.71s-.88,110.78,64.76,101.68C282.6,317.47,294.62,282,288,251.47a191.55,191.55,0,0,1-3.79-46.76s-4.08-29.37-38.7-20.31-49.64,5.72-49.64,5.72S180.29,193.3,182.35,220.71Z"/><path class="cls-69" d="M176.82,226.89s25.09-2.78,36.43-7.67l.58-15.39s2.55,9.93,4.85,12.4,22.88-.73,32-3.58,4.81-14.7,4.81-14.7l4.33,11.85s28.58,3.45,28.74-.93-3.86-24.71-12.21-28.74-73.88-4.44-83.08,4.1S177.28,214.69,176.82,226.89Z"/><ellipse class="cls-93" cx="265.7" cy="242.56" rx="3.92" ry="3.17" transform="matrix(1, -0.1, 0.1, 1, -22.23, 26.86)"/><ellipse class="cls-93" cx="226.63" cy="246.26" rx="3.92" ry="3.17" transform="translate(-22.78 23.1) rotate(-5.56)"/><path class="cls-94" d="M250.3,277a15.34,15.34,0,0,1-5.17-.8l.35-.94c5.16,1.91,13.88,0,15.56-3.34,1.13-2.27-1.44-4.53-3.78-6-6.89-4.38-5.32-8.94-5.25-9.13l.94.34c0,.16-1.33,4,4.84,7.95,4.88,3.1,4.95,5.68,4.14,7.31C260.47,275.31,255.12,277,250.3,277Z"/><path class="cls-95" d="M264.7,287.05c-18.37,4.76-37.46.2-36.73,1.53,0,0,1.77,14.25,18,14.15C262.72,302.62,264.7,287.05,264.7,287.05Z"/><path class="cls-65" d="M219.13,331.75s22.52,13.66,36.94,11.81c6.84-.88,18.95-14,18.95-14l13,129.73-49.8,2.24Z"/><path class="cls-96" d="M172.41,555.72s-17.61,72.57-15.63,92.45,4.68,52.17,34,145.94c0,0,78.25,32.39,150.2-.8,0,0,6.29-1.86,10.91-43.82S364.32,606.9,343.18,562,172.41,555.72,172.41,555.72Z"/><path class="cls-69" d="M274.56,219.71s-4.74-6.2-9.75-3.1a.89.89,0,0,0-.58,1.12c.25.83,1.91-1.64,9.83,2.73C274.06,220.46,274.56,220.75,274.56,219.71Z"/><path class="cls-69" d="M214.68,224.15s4.75-6.21,9.75-3.11a.89.89,0,0,1,.58,1.12c-.25.84-1.91-1.63-9.83,2.73C215.18,224.89,214.68,225.18,214.68,224.15Z"/><path class="cls-65" d="M262.37,287.6s-.65,3.21-2,4.13-15.62,2-24.11.95c-5.38-.66-6.4-3.32-6.26-4.3C230,288.38,248.84,290.65,262.37,287.6Z"/><path class="cls-97" d="M249.13,302.5s-1.22-9.7-18.49-7.16C230.64,295.34,234.77,304.19,249.13,302.5Z"/><ellipse class="cls-98" cx="280.76" cy="252.77" rx="3.62" ry="6.23" transform="translate(5.56 511.58) rotate(-85.24)"/><ellipse class="cls-98" cx="214.54" cy="262.02" rx="6.23" ry="3.62" transform="translate(-52.56 53.84) rotate(-12.76)"/><path class="cls-99" d="M333.31,438.84l41.91,37.38s10.59,6.85,14.41,7.27c4,.44,11.28-4.8,11.28-4.8l67.67-73.64s-37.64-24.88-38-28.5-33.25,46.55-33.25,46.55-2.17-2.74-7.67-1.67c-3,.59-1.59,5.6-7.66-.14-3.74-3.54-9.95-8.73-15.17-16.11-29.22-41.33-56.53-70.83-58.39-72.35s-11-6.17-14.23-4.65S275,329.59,275,329.59L277.66,445,219.13,331.75s-12.56,4.33-26.08,2.61S156.81,338,156.81,338s-10.24,27.71-17.55,29.81-11,20.25-11,20.25c-2.17,2.65-10.18,14.08-19.61,27.72h0s-37.48,45.93-43,49.91-2.65,13.44-2.65,13.44L141.9,562.9l27.83-35.51c-7.13-.5-43.13-49.77-43.13-49.77,2.53-4.53,2.3-8.26,1.56-10.72,17.3-18.49,42.63-47.18,42.63-47.18.41,4.06,6.47,16.8,16.93,32.51s9.69,42.14,9.69,42.14c-14.94,21.68-25,61.35-25,61.35s1,7.92,26.28,20.54c11,5.51,46.51,16.31,46.51,16.31l39.46-43.28,50.78,35.64s9.12-9.13,8.21-18.27-18.44-63.5-18.44-63.5-1.89-19,.27-24.66S333.31,438.84,333.31,438.84Z"/><path class="cls-71" d="M153.28,564.7s12.2,10.7,14.67,8.23l12.43-35.19S164.81,549,153.28,564.7Z"/><path class="cls-68" d="M170.63,565.87s5.9-5.86,14.86,2.8,9.68,9.26,9.68,9.26,7,2.88,7.52-4.63c0,0,8.8,1.29,6.83-8.39,0,0,6.13-4.42.7-12,0,0,5.51-1.06,2.24-11.47s-24-20.46-24-20.46-9.94-3.49-10.82,8.07c0,0-7.16.38-4.66,10.38,0,0-4.65,4.2-3.65,8.77s-.11,3.66-.11,3.66S162.54,559.29,170.63,565.87Z"/><path class="cls-94" d="M202.31,573.63c-.11-.14-11.87-13.67-24.48-19.79l.44-.9c12.79,6.21,24.68,19.9,24.8,20Z"/><path class="cls-94" d="M209.17,565.27c-.17-.16-17.14-16.1-29.48-22.75l.48-.88c12.45,6.72,29.52,22.74,29.69,22.9Z"/><path class="cls-94" d="M209.84,553.19c-.15-.18-15.21-17.9-27.55-21.76l.3-.95c12.61,3.94,27.39,21.33,28,22.07Z"/><path class="cls-100" d="M219.13,331.75S195,343.4,181.9,363.18l44.38,12.67s-15.11,14.86-14.79,18.07,66.17,51,66.17,51,33.54-61.51,29.81-64.56-24.29-6.81-24.29-6.81,19.48-27.61,22.87-27.95-28-16.36-31-16.05,2.52,110.28,2.52,110.28l-.15,2.38Z"/><path class="cls-96" d="M277.66,445s9.26,81.81,7,104.33"/><circle class="cls-100" cx="291.4" cy="469.64" r="5.33"/><circle class="cls-100" cx="293.53" cy="507.64" r="5.33"/><path class="cls-101" d="M173.56,402.91l-1-.24A76.61,76.61,0,0,0,161,341.82l.82-.57A77.65,77.65,0,0,1,173.56,402.91Z"/><path class="cls-101" d="M328.84,405.1l-1-.09c1.1-12.3-3.36-24.58-7.3-35.41-4.66-12.82-10-27.35-20.07-37.88l.72-.69c10.27,10.68,15.59,25.32,20.29,38.23C325.45,380.19,330,392.58,328.84,405.1Z"/><path class="cls-101" d="M146.07,375.14a27.73,27.73,0,0,0-3.49-6.94l.82-.57a28.39,28.39,0,0,1,3.62,7.19Z"/><path class="cls-101" d="M135.79,390.8a34.62,34.62,0,0,0-6.08-.84l0-1a36.56,36.56,0,0,1,6.25.85Z"/><path class="cls-101" d="M334.19,439.12l-1-.12a73,73,0,0,0,.43-11.92l1,0A75,75,0,0,1,334.19,439.12Z"/><path class="cls-101" d="M400.14,437.11a74.37,74.37,0,0,0-2.84-11.6l.95-.31A74,74,0,0,1,401.12,437Z"/><path class="cls-101" d="M384.8,437.09l-1-.15a60.44,60.44,0,0,0,.75-10.74l1,0A60.42,60.42,0,0,1,384.8,437.09Z"/><path class="cls-101" d="M200.16,494.73l-.52-.85a59.68,59.68,0,0,1,11.6-5.54l.33.94A59.45,59.45,0,0,0,200.16,494.73Z"/><path class="cls-101" d="M127.52,467.41c-2.33,0-10-.2-12.54-2.75l.7-.71c2.65,2.65,12.37,2.45,12.47,2.45l0,1Z"/><path class="cls-101" d="M118.58,481.06v-1c3.43,0,7.7-2.83,7.74-2.86l.56.83C126.69,478.16,122.31,481.06,118.58,481.06Z"/><path class="cls-102" d="M429.66,380.81s2.67-5,6.17-7l37.67,21.76L464.16,407Z"/><path class="cls-94" d="M468.18,355l-.7-.71c1.94-1.94,15-3.57,16.44-3.75l.12,1C478.37,352.26,469.47,353.75,468.18,355Z"/><path class="cls-94" d="M493.85,354.74c-1.39,0-1.52-.19-1.63-.35a.58.58,0,0,1,.09-.77l.71.71a.45.45,0,0,0,.09-.36.39.39,0,0,0-.21-.27c1.86.69,34.52-3.93,36.74-4.53v0c.13,0,.56-.05.67.37l-.28.58c-.42.2-11.2,1.79-18.63,2.79C500.48,354.34,495.86,354.74,493.85,354.74Z"/><path class="cls-94" d="M496.51,358.81a13.91,13.91,0,0,1-4-.37l.37-.93c3.79,1.53,39.32-2.56,40.89-4.7a.17.17,0,0,0,0,.1l1,.07a1.12,1.12,0,0,1-.59.8C530.85,355.82,506.61,358.81,496.51,358.81Z"/><path class="cls-94" d="M506.71,368c-3.94,0-8-.56-9.1-1.28a.83.83,0,0,1-.47-1l1,.29a.28.28,0,0,0,0-.22c.27.31,2.34.86,5.94,1.08,4.89.3,9.1-.22,10.23-1.25l.15-.1,17-6.81a8.06,8.06,0,0,1,2,0,.64.64,0,0,1,.41.42c.14.44-.19,1.19-1,2.24l-.81-.59a7.23,7.23,0,0,0,.71-1.15c-.32,0-.81,0-1.25,0l-16.65,6.71C513.51,367.62,510.14,368,506.71,368Z"/><path class="cls-94" d="M470.37,365.43l-.41-.91c.2-.09,4.9-2.33,4.62-8.69l1,0A10,10,0,0,1,470.37,365.43Z"/><path class="cls-94" d="M457.8,373l-.94-.33c.14-.4,3.67-9.86,21.35-8.16.08,0,3.78.61,5.41-1l.08-.08.11,0c.25-.08,6.15-2.06,9.66.62l-.61.79c-2.85-2.18-7.85-.73-8.62-.49-2,1.9-6,1.25-6.16,1.22C461.2,363.85,457.83,372.88,457.8,373Z"/><path class="cls-94" d="M497.86,368.5l-.92-.39c.32-.77.61-2,.29-2.32-.07-.07-6.06-7.14-5.25-8.56a17.69,17.69,0,0,0,.19-4.89l1-.06c0,.74.23,4.49-.31,5.44,0,.89,4.21,6.49,5.08,7.36S498,368.09,497.86,368.5Z"/></g><g class="cls-103"><path class="cls-96" d="M190,275.55s-6.77,14.38-4.3,22.7S202.88,312,202.88,312s37.07,22.44,68.87,18.45,21.38-11,21.38-11l-55.79-45.94Z"/><path class="cls-96" d="M298,272s-5.18,10.44-3,17.43,15.57,10.15,15.57,10.15l10.35.39,104,5.36s7.43-21.13-51.76-33.44S298,272,298,272Z"/><path class="cls-104" d="M202.2,14.2l2.37,26.31s-29.12,70.66-9.27,203l-6,40.43s24.06,11.27,41.43,15.9a72.35,72.35,0,0,0,32,1.2s-39.64-43.48-45.34-49.63L267.07,11S238.58-46.54,202.2,14.2Z"/><path class="cls-104" d="M284.55,12.39S258.79,82.93,300,217.08c0,0,5.91,55.23-2.05,54.93s81.06,6.76,86.9,7-44.4-20.8-48.8-31.06-6.29-201.14-.33-218.46a234.54,234.54,0,0,0,8.72-34.22S289.46,1.67,284.55,12.39Z"/><path class="cls-96" d="M172.66-198.52S155.05-125.95,157-106.07s4.68,52.17,34,145.94c0,0,78.26,32.39,150.2-.8,0,0,6.29-1.86,10.91-43.82s12.42-142.59-8.72-187.46S172.66-198.52,172.66-198.52Z"/></g><path d="M584.74,205.89H574.25V216.5h12.09l.16-3.83h1.86v5.61H569.29v-1.55l2.86-.23v-22l-2.86-.23v-1.56h19v5.62h-1.86l-.16-3.83h-12v9.61h10.49Z"/><path d="M614.24,218.28c-.14-.65-.24-1.2-.3-1.67a11.16,11.16,0,0,1-.09-1.42,8.35,8.35,0,0,1-2.81,2.47,7.92,7.92,0,0,1-4,1,6.06,6.06,0,0,1-4.32-1.44,5.11,5.11,0,0,1-1.53-3.91,4.8,4.8,0,0,1,2.27-4.18,10.77,10.77,0,0,1,6.15-1.55h4.2v-2.51a4.06,4.06,0,0,0-1.31-3.2,5.34,5.34,0,0,0-3.66-1.16,9.19,9.19,0,0,0-2.9.43,6.55,6.55,0,0,0-2.18,1.17l-.18,2.55h-1.74l0-3.66a10.92,10.92,0,0,1,3.15-1.65,12,12,0,0,1,3.91-.63,7.64,7.64,0,0,1,5.07,1.6,5.64,5.64,0,0,1,1.91,4.59v9.35c0,.38,0,.76,0,1.11a8.88,8.88,0,0,0,.11,1.05l1.9.12v1.55Zm-6.93-1.49a7.67,7.67,0,0,0,4-1.06,6.24,6.24,0,0,0,2.51-2.72v-3.82h-4.24a7.94,7.94,0,0,0-4.58,1.19,3.54,3.54,0,0,0-1.71,3,3.15,3.15,0,0,0,1.06,2.46A4.27,4.27,0,0,0,607.31,216.79Z"/><path d="M621.06,208.93a12.3,12.3,0,0,1,1.94-7.29,6.24,6.24,0,0,1,5.39-2.73,6.63,6.63,0,0,1,3.5.89,7.1,7.1,0,0,1,2.46,2.5l.24-3h1.78V218a8.12,8.12,0,0,1-2,5.8,7.2,7.2,0,0,1-5.54,2.13,14.05,14.05,0,0,1-2.92-.33,11.72,11.72,0,0,1-2.72-.92l.56-1.77a12.65,12.65,0,0,0,2.4.84,11.39,11.39,0,0,0,2.65.3,5.08,5.08,0,0,0,4.08-1.6,6.65,6.65,0,0,0,1.37-4.45v-2.4a6.73,6.73,0,0,1-2.45,2.24,7.27,7.27,0,0,1-3.46.78A6.36,6.36,0,0,1,623,216.1a11,11,0,0,1-1.93-6.8Zm2.11.37a9.56,9.56,0,0,0,1.39,5.47,4.73,4.73,0,0,0,4.18,2,5.94,5.94,0,0,0,3.42-.93,6,6,0,0,0,2.1-2.57V204.5a6.71,6.71,0,0,0-2-2.72,5.41,5.41,0,0,0-3.47-1,4.62,4.62,0,0,0-4.19,2.28,11.1,11.1,0,0,0-1.41,5.91Z"/><path d="M641.15,208.49a10.24,10.24,0,0,1,2.3-6.89,8.28,8.28,0,0,1,12.22,0,10.24,10.24,0,0,1,2.3,6.89v.58a10.24,10.24,0,0,1-2.29,6.9,8.32,8.32,0,0,1-12.23,0,10.25,10.25,0,0,1-2.3-6.9Zm2.11.58a9,9,0,0,0,1.67,5.55,5.89,5.89,0,0,0,9.26,0,9,9,0,0,0,1.67-5.55v-.58a9,9,0,0,0-1.68-5.52,5.85,5.85,0,0,0-9.25,0,9,9,0,0,0-1.67,5.52Z"/><path d="M666,199.26l.27,3.16v.23a6.66,6.66,0,0,1,2.2-2.75,5.58,5.58,0,0,1,3.31-1,5.06,5.06,0,0,1,.79.06,4.69,4.69,0,0,1,.62.13l-.28,2L671.3,201a4.81,4.81,0,0,0-3.27,1.12,6.23,6.23,0,0,0-1.81,3.07V216.5l2.86.23v1.55h-7.82v-1.55l2.86-.23V201.05l-2.86-.23v-1.56H666Z"/><path d="M689,218.28c-.14-.65-.24-1.2-.3-1.67a11.16,11.16,0,0,1-.09-1.42,8.35,8.35,0,0,1-2.81,2.47,7.92,7.92,0,0,1-4,1,6.06,6.06,0,0,1-4.32-1.44A5.11,5.11,0,0,1,676,213.3a4.8,4.8,0,0,1,2.27-4.18,10.77,10.77,0,0,1,6.15-1.55h4.2v-2.51a4.06,4.06,0,0,0-1.31-3.2,5.34,5.34,0,0,0-3.66-1.16,9.19,9.19,0,0,0-2.9.43,6.55,6.55,0,0,0-2.18,1.17l-.18,2.55h-1.74l0-3.66a10.92,10.92,0,0,1,3.15-1.65,12,12,0,0,1,3.91-.63,7.64,7.64,0,0,1,5.07,1.6,5.64,5.64,0,0,1,1.91,4.59v9.35c0,.38,0,.76,0,1.11a8.88,8.88,0,0,0,.11,1.05l1.9.12v1.55Zm-6.93-1.49a7.67,7.67,0,0,0,4-1.06,6.24,6.24,0,0,0,2.51-2.72v-3.82h-4.24a7.94,7.94,0,0,0-4.58,1.19,3.54,3.54,0,0,0-1.71,3,3.15,3.15,0,0,0,1.06,2.46A4.27,4.27,0,0,0,682.07,216.79Z"/><path d="M710,200.82l-2.37.18,4.75,12.52.61,2.23h.11l.66-2.23L718.44,201l-2.37-.18v-1.56h6.4v1.56l-1.87.16-6.71,17.3H712.2L705.47,201l-1.87-.16v-1.56H710Z"/><path d="M737.65,218.28c-.14-.65-.24-1.2-.3-1.67a13.37,13.37,0,0,1-.08-1.42,8.39,8.39,0,0,1-2.82,2.47,7.91,7.91,0,0,1-4,1,6.09,6.09,0,0,1-4.33-1.44,5.1,5.1,0,0,1-1.52-3.91,4.82,4.82,0,0,1,2.26-4.18,10.79,10.79,0,0,1,6.15-1.55h4.21v-2.51a4.06,4.06,0,0,0-1.31-3.2,5.38,5.38,0,0,0-3.67-1.16,9.13,9.13,0,0,0-2.89.43,6.71,6.71,0,0,0-2.19,1.17l-.17,2.55H725.3v-3.66a10.85,10.85,0,0,1,3.16-1.65,12,12,0,0,1,3.91-.63,7.62,7.62,0,0,1,5.06,1.6,5.62,5.62,0,0,1,1.92,4.59v9.35c0,.38,0,.76,0,1.11a8.87,8.87,0,0,0,.12,1.05l1.9.12v1.55Zm-6.92-1.49a7.63,7.63,0,0,0,4-1.06,6.26,6.26,0,0,0,2.52-2.72v-3.82H733a7.91,7.91,0,0,0-4.58,1.19,3.54,3.54,0,0,0-1.71,3,3.12,3.12,0,0,0,1.06,2.46A4.25,4.25,0,0,0,730.73,216.79Z"/><path d="M743.93,200.82v-1.56h4.73l.19,3.15a6.63,6.63,0,0,1,2.44-2.59,7,7,0,0,1,3.64-.91,6,6,0,0,1,3.64,1.06,5.88,5.88,0,0,1,2.09,3.24,7.48,7.48,0,0,1,2.45-3.15,6.46,6.46,0,0,1,3.88-1.15,5.72,5.72,0,0,1,4.7,2c1.11,1.35,1.66,3.43,1.66,6.26v9.3l2.87.24v1.55h-7.86v-1.55l2.87-.24v-9.34c0-2.34-.42-4-1.24-5a4.3,4.3,0,0,0-3.46-1.45,4.68,4.68,0,0,0-3.78,1.56,7.45,7.45,0,0,0-1.65,4,2.17,2.17,0,0,0,0,.26,3,3,0,0,1,0,.32v9.63l2.86.23v1.55h-7.83v-1.55l2.86-.23v-9.35c0-2.29-.42-3.94-1.26-4.93a4.27,4.27,0,0,0-3.45-1.48,5.23,5.23,0,0,0-3.56,1.13,6.05,6.05,0,0,0-1.84,3V216.5l2.87.23v1.55h-7.84v-1.55l2.86-.23V201.05Z"/><path d="M778.65,208.49a10.19,10.19,0,0,1,2.3-6.89,8.27,8.27,0,0,1,12.21,0,10.2,10.2,0,0,1,2.31,6.89v.58a10.25,10.25,0,0,1-2.3,6.9A8.3,8.3,0,0,1,781,216a10.2,10.2,0,0,1-2.3-6.9Zm2.1.58a9.07,9.07,0,0,0,1.67,5.55,5.9,5.9,0,0,0,9.27,0,9.07,9.07,0,0,0,1.67-5.55v-.58a9,9,0,0,0-1.68-5.52,5.86,5.86,0,0,0-9.26,0,9.07,9.07,0,0,0-1.67,5.52Z"/><path d="M812.69,205.13H811l-.24-2.69a5.34,5.34,0,0,0-2-1.28,7.66,7.66,0,0,0-2.77-.46,5.17,5.17,0,0,0-3.45,1,3,3,0,0,0-1.15,2.33,2.76,2.76,0,0,0,1,2.18,9.5,9.5,0,0,0,4,1.51,13.08,13.08,0,0,1,5.08,2.07,4.25,4.25,0,0,1,1.69,3.56,4.61,4.61,0,0,1-1.92,3.84,8.18,8.18,0,0,1-5.09,1.47,11.9,11.9,0,0,1-3.84-.59,9.08,9.08,0,0,1-3-1.66v-3.83h1.7l.3,2.7a5,5,0,0,0,2.14,1.23,9.62,9.62,0,0,0,2.7.37,5.81,5.81,0,0,0,3.6-1,3,3,0,0,0,1.32-2.42,3.08,3.08,0,0,0-1.1-2.34,8.84,8.84,0,0,0-4-1.64,13.22,13.22,0,0,1-5-2,4,4,0,0,1-1.64-3.42,4.58,4.58,0,0,1,1.84-3.68,7.49,7.49,0,0,1,4.87-1.5,10.82,10.82,0,0,1,3.82.64,7.71,7.71,0,0,1,2.83,1.73Z"/><path d="M839.47,205.13h-1.73l-.24-2.69a5.34,5.34,0,0,0-2-1.28,7.62,7.62,0,0,0-2.77-.46,5.18,5.18,0,0,0-3.45,1,3,3,0,0,0-1.15,2.33,2.76,2.76,0,0,0,1,2.18,9.5,9.5,0,0,0,4,1.51,13,13,0,0,1,5.08,2.07,4.25,4.25,0,0,1,1.69,3.56,4.61,4.61,0,0,1-1.92,3.84,8.18,8.18,0,0,1-5.09,1.47,11.9,11.9,0,0,1-3.84-.59,9.08,9.08,0,0,1-3-1.66v-3.83h1.71l.29,2.7a5,5,0,0,0,2.14,1.23,9.62,9.62,0,0,0,2.7.37,5.81,5.81,0,0,0,3.6-1,3,3,0,0,0,1.32-2.42,3.08,3.08,0,0,0-1.1-2.34,8.84,8.84,0,0,0-4-1.64,13.29,13.29,0,0,1-5-2,4,4,0,0,1-1.64-3.42,4.58,4.58,0,0,1,1.84-3.68,7.49,7.49,0,0,1,4.87-1.5,10.92,10.92,0,0,1,3.83.64,7.75,7.75,0,0,1,2.82,1.73Z"/><path d="M856.81,218.28a16.44,16.44,0,0,1-.29-1.67,11.16,11.16,0,0,1-.09-1.42,8.35,8.35,0,0,1-2.81,2.47,7.94,7.94,0,0,1-4,1,6.06,6.06,0,0,1-4.32-1.44,5.11,5.11,0,0,1-1.53-3.91,4.82,4.82,0,0,1,2.26-4.18,10.82,10.82,0,0,1,6.16-1.55h4.2v-2.51a4.06,4.06,0,0,0-1.31-3.2,5.37,5.37,0,0,0-3.67-1.16,9.17,9.17,0,0,0-2.89.43,6.71,6.71,0,0,0-2.19,1.17l-.17,2.55h-1.74l0-3.66a10.79,10.79,0,0,1,3.15-1.65,12,12,0,0,1,3.91-.63,7.6,7.6,0,0,1,5.06,1.6,5.62,5.62,0,0,1,1.92,4.59v9.35c0,.38,0,.76,0,1.11a7.18,7.18,0,0,0,.11,1.05l1.9.12v1.55Zm-6.92-1.49a7.63,7.63,0,0,0,4-1.06,6.26,6.26,0,0,0,2.52-2.72v-3.82h-4.24a7.94,7.94,0,0,0-4.58,1.19,3.54,3.54,0,0,0-1.71,3,3.12,3.12,0,0,0,1.06,2.46A4.27,4.27,0,0,0,849.89,216.79Z"/><path d="M879.9,209.3a11,11,0,0,1-1.94,6.81,6.32,6.32,0,0,1-5.32,2.54,7.33,7.33,0,0,1-3.61-.84,6.31,6.31,0,0,1-2.44-2.4l-.23,2.87h-1.79V192.65l-2.87-.23v-1.56h5v11.39a6.48,6.48,0,0,1,5.94-3.34,6.2,6.2,0,0,1,5.36,2.73,12.37,12.37,0,0,1,1.94,7.29Zm-2.13-.37a11.11,11.11,0,0,0-1.41-5.92,4.59,4.59,0,0,0-4.15-2.27,5.48,5.48,0,0,0-3.56,1.09,6.44,6.44,0,0,0-2,2.79v8.6a6,6,0,0,0,2.1,2.62,5.87,5.87,0,0,0,3.49,1,4.67,4.67,0,0,0,4.13-2,9.57,9.57,0,0,0,1.39-5.48Z"/><path d="M891.85,218.65a7.64,7.64,0,0,1-5.94-2.63,9.64,9.64,0,0,1-2.36-6.69v-1a9.9,9.9,0,0,1,2.35-6.77,7.23,7.23,0,0,1,5.67-2.69,7.07,7.07,0,0,1,5.5,2.21,8.51,8.51,0,0,1,2,5.91v1.79H885.64v.51a8.37,8.37,0,0,0,1.72,5.37,5.44,5.44,0,0,0,4.49,2.17,9.24,9.24,0,0,0,3.34-.54,6.78,6.78,0,0,0,2.37-1.57l.9,1.45a7.66,7.66,0,0,1-2.71,1.78A10.4,10.4,0,0,1,891.85,218.65Zm-.28-18a5,5,0,0,0-3.91,1.79A7.65,7.65,0,0,0,885.8,207l0,.09H897v-.53a6.1,6.1,0,0,0-1.46-4.15A5,5,0,0,0,891.57,200.7Z"/><path d="M907.39,199.26l.26,3.16v.23a6.76,6.76,0,0,1,2.21-2.75,5.56,5.56,0,0,1,3.31-1,4.93,4.93,0,0,1,.78.06,5.28,5.28,0,0,1,.63.13l-.28,2-1.57-.11a4.8,4.8,0,0,0-3.26,1.12,6.17,6.17,0,0,0-1.82,3.07V216.5l2.87.23v1.55h-7.83v-1.55l2.87-.23V201.05l-2.87-.23v-1.56h4.7Z"/><path d="M940,215.15a6.49,6.49,0,0,1-2.45,2.58,7.12,7.12,0,0,1-3.67.92,5.78,5.78,0,0,1-4.7-2q-1.69-2-1.7-6.33v-9.23l-2.35-.23v-1.56h4.45v11.06q0,3.48,1.18,5a4,4,0,0,0,3.37,1.51,6.23,6.23,0,0,0,3.8-1,5.62,5.62,0,0,0,2-2.92v-11.8l-2.71-.23v-1.56h4.82V216.5l2.55.23v1.55h-4.4Z"/><path d="M947.25,200.82v-1.56H952l.2,3.15a6.63,6.63,0,0,1,2.44-2.59,7,7,0,0,1,3.64-.91A6,6,0,0,1,961.9,200a5.88,5.88,0,0,1,2.09,3.24,7.4,7.4,0,0,1,2.45-3.15,6.41,6.41,0,0,1,3.88-1.15,5.74,5.74,0,0,1,4.7,2c1.11,1.35,1.66,3.43,1.66,6.26v9.3l2.87.24v1.55h-7.86v-1.55l2.86-.24v-9.34c0-2.34-.41-4-1.24-5a4.27,4.27,0,0,0-3.45-1.45,4.71,4.71,0,0,0-3.79,1.56,7.52,7.52,0,0,0-1.64,4,2.17,2.17,0,0,0,0,.26c0,.09,0,.19,0,.32v9.63l2.86.23v1.55h-7.84v-1.55l2.87-.23v-9.35c0-2.29-.42-3.94-1.26-4.93a4.28,4.28,0,0,0-3.45-1.48,5.23,5.23,0,0,0-3.56,1.13,6,6,0,0,0-1.84,3V216.5l2.86.23v1.55h-7.84v-1.55l2.87-.23V201.05Z"/><path d="M569.18,244v-1.56h4.63l.26,2.95a6.65,6.65,0,0,1,6-3.3,6.22,6.22,0,0,1,5.37,2.73,12.37,12.37,0,0,1,1.93,7.29v.37a11,11,0,0,1-1.93,6.81,6.34,6.34,0,0,1-5.33,2.54,7.66,7.66,0,0,1-3.51-.77,6.4,6.4,0,0,1-2.45-2.17V267l2.87.23v1.56h-7.83v-1.56l2.87-.23V244.25Zm16.07,8.11a10.94,10.94,0,0,0-1.44-5.91,4.69,4.69,0,0,0-4.22-2.28,5.48,5.48,0,0,0-3.45,1,6.19,6.19,0,0,0-2,2.63v9.14a5.83,5.83,0,0,0,2.08,2.46,6.15,6.15,0,0,0,3.41.89,4.78,4.78,0,0,0,4.19-2.07,9.55,9.55,0,0,0,1.43-5.5Z"/><path d="M590.79,251.69a10.24,10.24,0,0,1,2.3-6.89,8.28,8.28,0,0,1,12.22,0,10.24,10.24,0,0,1,2.3,6.89v.58a10.24,10.24,0,0,1-2.29,6.9,8.32,8.32,0,0,1-12.23,0,10.25,10.25,0,0,1-2.3-6.9Zm2.11.58a9,9,0,0,0,1.67,5.55,5.89,5.89,0,0,0,9.26,0,9.07,9.07,0,0,0,1.67-5.55v-.58a9,9,0,0,0-1.68-5.52,5.85,5.85,0,0,0-9.25,0,9,9,0,0,0-1.67,5.52Z"/><path d="M625,258.35a6.42,6.42,0,0,1-2.45,2.58,7.1,7.1,0,0,1-3.66.92,5.79,5.79,0,0,1-4.71-2q-1.7-2-1.69-6.33v-9.23l-2.36-.23v-1.56h4.45v11.06q0,3.48,1.18,5a4,4,0,0,0,3.37,1.51,6.28,6.28,0,0,0,3.81-1,5.61,5.61,0,0,0,2-2.92v-11.8l-2.71-.23v-1.56h4.82V259.7l2.55.23v1.55h-4.39Z"/><path d="M640.81,260.07a6.06,6.06,0,0,0,3.7-1.19,3.94,3.94,0,0,0,1.6-3.32H648l0,.1a5.21,5.21,0,0,1-2.1,4.41,7.8,7.8,0,0,1-5.09,1.78,7.25,7.25,0,0,1-6-2.66,10.64,10.64,0,0,1-2.13-6.85v-.74a10.59,10.59,0,0,1,2.13-6.82,7.21,7.21,0,0,1,6-2.67,9.67,9.67,0,0,1,4,.82,8.07,8.07,0,0,1,3,2.25l.09,4.15h-1.79l-.34-3.37a5.87,5.87,0,0,0-2.1-1.5,7,7,0,0,0-2.85-.56,5.08,5.08,0,0,0-4.53,2.19,9.69,9.69,0,0,0-1.47,5.51v.74a9.79,9.79,0,0,0,1.46,5.55A5.07,5.07,0,0,0,640.81,260.07Z"/><path d="M651.92,251.69a10.2,10.2,0,0,1,2.31-6.89,8.27,8.27,0,0,1,12.21,0,10.2,10.2,0,0,1,2.31,6.89v.58a10.25,10.25,0,0,1-2.3,6.9,8.3,8.3,0,0,1-12.22,0,10.2,10.2,0,0,1-2.31-6.9Zm2.11.58a9.07,9.07,0,0,0,1.67,5.55,5.9,5.9,0,0,0,9.27,0,9.07,9.07,0,0,0,1.67-5.55v-.58a9,9,0,0,0-1.68-5.52,5.86,5.86,0,0,0-9.26,0,9.07,9.07,0,0,0-1.67,5.52Z"/><path d="M680.47,244v-1.56h4.73l.19,3.15a6.65,6.65,0,0,1,2.45-2.59,7,7,0,0,1,3.64-.91,6,6,0,0,1,3.63,1.06,5.88,5.88,0,0,1,2.1,3.25,7.37,7.37,0,0,1,2.45-3.16,6.4,6.4,0,0,1,3.87-1.15,5.75,5.75,0,0,1,4.71,2c1.1,1.35,1.66,3.43,1.66,6.26v9.3l2.86.24v1.55H704.9v-1.55l2.87-.24v-9.34c0-2.34-.41-4-1.24-5a4.29,4.29,0,0,0-3.45-1.45,4.7,4.7,0,0,0-3.79,1.56,7.45,7.45,0,0,0-1.64,4v.26a3,3,0,0,1,0,.32v9.63l2.87.23v1.55h-7.84v-1.55l2.86-.23v-9.35c0-2.29-.42-3.94-1.25-4.93a4.29,4.29,0,0,0-3.46-1.48,5.25,5.25,0,0,0-3.56,1.13,6,6,0,0,0-1.83,3.05V259.7l2.86.23v1.55h-7.84v-1.55l2.87-.23V244.25Z"/><path d="M728.49,261.48a16.44,16.44,0,0,1-.29-1.67,11.16,11.16,0,0,1-.09-1.42,8.45,8.45,0,0,1-2.81,2.47,7.94,7.94,0,0,1-4,1,6.06,6.06,0,0,1-4.32-1.44,5.11,5.11,0,0,1-1.53-3.91,4.82,4.82,0,0,1,2.26-4.18,10.82,10.82,0,0,1,6.16-1.55h4.2v-2.51a4.06,4.06,0,0,0-1.31-3.2,5.37,5.37,0,0,0-3.67-1.16,9.13,9.13,0,0,0-2.89.43,6.71,6.71,0,0,0-2.19,1.17l-.17,2.55h-1.74v-3.66a11,11,0,0,1,3.16-1.65,12,12,0,0,1,3.91-.63,7.6,7.6,0,0,1,5.06,1.6,5.62,5.62,0,0,1,1.92,4.59v9.35c0,.38,0,.76,0,1.11a7.18,7.18,0,0,0,.11,1.05l1.9.12v1.55ZM721.57,260a7.63,7.63,0,0,0,4-1.06,6.26,6.26,0,0,0,2.52-2.72v-3.82h-4.24a7.94,7.94,0,0,0-4.58,1.19,3.54,3.54,0,0,0-1.71,3,3.12,3.12,0,0,0,1.06,2.46A4.27,4.27,0,0,0,721.57,260Z"/><path d="M735.09,259.93l2.86-.23V244.25l-2.86-.23v-1.56H740V259.7l2.87.23v1.55h-7.82ZM740,237H738v-2.95H740Z"/><path d="M760.24,248.33h-1.72l-.25-2.69a5.3,5.3,0,0,0-2-1.28,7.7,7.7,0,0,0-2.77-.46,5.19,5.19,0,0,0-3.46,1,3,3,0,0,0-1.15,2.33,2.74,2.74,0,0,0,1,2.18,9.62,9.62,0,0,0,4,1.52,13,13,0,0,1,5.08,2.06,4.28,4.28,0,0,1,1.69,3.56,4.6,4.6,0,0,1-1.93,3.84,8.16,8.16,0,0,1-5.09,1.47,12,12,0,0,1-3.84-.59,9.14,9.14,0,0,1-3-1.66v-3.83h1.7l.3,2.7a4.87,4.87,0,0,0,2.14,1.23,9.6,9.6,0,0,0,2.69.37,5.82,5.82,0,0,0,3.61-1,3,3,0,0,0,1.32-2.42,3.08,3.08,0,0,0-1.1-2.34,8.94,8.94,0,0,0-4-1.64,13.17,13.17,0,0,1-5-2,4,4,0,0,1-1.65-3.42,4.59,4.59,0,0,1,1.85-3.68,7.48,7.48,0,0,1,4.87-1.5,10.86,10.86,0,0,1,3.82.64,7.58,7.58,0,0,1,2.82,1.73Z"/><path d="M786.34,261.48a16.44,16.44,0,0,1-.29-1.67,11.16,11.16,0,0,1-.09-1.42,8.45,8.45,0,0,1-2.81,2.47,8,8,0,0,1-4,1,6.06,6.06,0,0,1-4.32-1.44,5.11,5.11,0,0,1-1.53-3.91,4.82,4.82,0,0,1,2.26-4.18,10.82,10.82,0,0,1,6.16-1.55H786v-2.51a4.06,4.06,0,0,0-1.31-3.2A5.38,5.38,0,0,0,781,243.9a9.13,9.13,0,0,0-2.89.43,6.71,6.71,0,0,0-2.19,1.17l-.17,2.55H774v-3.66a11,11,0,0,1,3.16-1.65,12,12,0,0,1,3.91-.63,7.6,7.6,0,0,1,5.06,1.6,5.62,5.62,0,0,1,1.92,4.59v9.35c0,.38,0,.76,0,1.11a7.18,7.18,0,0,0,.11,1.05l1.9.12v1.55ZM779.42,260a7.63,7.63,0,0,0,4-1.06,6.26,6.26,0,0,0,2.52-2.72v-3.82h-4.24a7.91,7.91,0,0,0-4.58,1.19,3.54,3.54,0,0,0-1.71,3,3.12,3.12,0,0,0,1.06,2.46A4.27,4.27,0,0,0,779.42,260Z"/><path d="M806.38,242.46l.27,3.16v.23a6.74,6.74,0,0,1,2.2-2.75,5.59,5.59,0,0,1,3.32-1,4.93,4.93,0,0,1,.78.06,4.69,4.69,0,0,1,.62.13l-.28,2-1.56-.1a4.77,4.77,0,0,0-3.26,1.11,6.17,6.17,0,0,0-1.82,3.07V259.7l2.86.23v1.55h-7.82v-1.55l2.87-.23V244.25l-2.87-.23v-1.56h4.69Z"/><path d="M824.35,261.85a7.64,7.64,0,0,1-5.94-2.63,9.64,9.64,0,0,1-2.36-6.69v-1a9.9,9.9,0,0,1,2.35-6.77,7.23,7.23,0,0,1,5.67-2.69,7.07,7.07,0,0,1,5.5,2.21,8.51,8.51,0,0,1,2,5.91V252H818.14v.51a8.33,8.33,0,0,0,1.72,5.37,5.44,5.44,0,0,0,4.49,2.17,9.24,9.24,0,0,0,3.34-.54,6.64,6.64,0,0,0,2.37-1.57l.9,1.45a7.66,7.66,0,0,1-2.71,1.78A10.4,10.4,0,0,1,824.35,261.85Zm-.28-18a5,5,0,0,0-3.91,1.79,7.68,7.68,0,0,0-1.86,4.47l0,.09h11.14v-.53a6.1,6.1,0,0,0-1.46-4.15A5,5,0,0,0,824.07,243.9Z"/><path d="M849.13,248.33h-1.72l-.25-2.69a5.22,5.22,0,0,0-2-1.28,7.66,7.66,0,0,0-2.77-.46,5.17,5.17,0,0,0-3.45,1,3,3,0,0,0-1.15,2.33,2.76,2.76,0,0,0,1,2.18,9.62,9.62,0,0,0,4,1.52,12.93,12.93,0,0,1,5.08,2.06,4.25,4.25,0,0,1,1.69,3.56,4.61,4.61,0,0,1-1.92,3.84,8.18,8.18,0,0,1-5.09,1.47,11.9,11.9,0,0,1-3.84-.59,9.08,9.08,0,0,1-3-1.66v-3.83h1.7l.3,2.7a4.93,4.93,0,0,0,2.14,1.23,9.62,9.62,0,0,0,2.7.37,5.81,5.81,0,0,0,3.6-1,3,3,0,0,0,1.32-2.42,3.08,3.08,0,0,0-1.1-2.34,8.84,8.84,0,0,0-4-1.64,13.22,13.22,0,0,1-5-2,4,4,0,0,1-1.64-3.42,4.58,4.58,0,0,1,1.84-3.68,7.49,7.49,0,0,1,4.87-1.5,10.82,10.82,0,0,1,3.82.64,7.71,7.71,0,0,1,2.83,1.73Z"/><path d="M852.79,244v-1.56h4.62l.27,2.95a6.79,6.79,0,0,1,2.47-2.44,7,7,0,0,1,3.52-.86,6.2,6.2,0,0,1,5.36,2.73,12.37,12.37,0,0,1,1.94,7.29v.37a11,11,0,0,1-1.94,6.81,6.32,6.32,0,0,1-5.32,2.54,7.63,7.63,0,0,1-3.51-.77,6.4,6.4,0,0,1-2.45-2.17V267l2.86.23v1.56h-7.82v-1.56l2.86-.23V244.25Zm16.07,8.11a10.85,10.85,0,0,0-1.45-5.91,4.67,4.67,0,0,0-4.21-2.28,5.53,5.53,0,0,0-3.46,1,6.17,6.17,0,0,0-2,2.63v9.14a5.76,5.76,0,0,0,2.08,2.46,6.12,6.12,0,0,0,3.4.89,4.76,4.76,0,0,0,4.19-2.07,9.47,9.47,0,0,0,1.44-5.5Z"/><path d="M882.78,261.85a7.64,7.64,0,0,1-5.94-2.63,9.64,9.64,0,0,1-2.36-6.69v-1a9.9,9.9,0,0,1,2.35-6.77,7.23,7.23,0,0,1,5.67-2.69,7.07,7.07,0,0,1,5.5,2.21,8.51,8.51,0,0,1,2,5.91V252H876.57v.51a8.33,8.33,0,0,0,1.72,5.37,5.44,5.44,0,0,0,4.49,2.17,9.24,9.24,0,0,0,3.34-.54,6.64,6.64,0,0,0,2.37-1.57l.9,1.45a7.66,7.66,0,0,1-2.71,1.78A10.4,10.4,0,0,1,882.78,261.85Zm-.28-18a5,5,0,0,0-3.91,1.79,7.62,7.62,0,0,0-1.86,4.47l0,.09h11.14v-.53a6.1,6.1,0,0,0-1.46-4.15A5,5,0,0,0,882.5,243.9Z"/><path d="M893.62,259.93l2.87-.23V244.25l-2.87-.23v-1.56h5V259.7l2.87.23v1.55h-7.83Zm5-22.92h-2.09v-2.95h2.09Z"/><path d="M909.81,237.59v4.87H914v1.72h-4.19v12.4a4,4,0,0,0,.68,2.64,2.26,2.26,0,0,0,1.8.78c.34,0,.67,0,1,0s.7-.08,1.12-.15l.32,1.56a5.4,5.4,0,0,1-1.29.36,9.51,9.51,0,0,1-1.51.12,3.94,3.94,0,0,1-3.12-1.27,6,6,0,0,1-1.11-4v-12.4h-3.27v-1.72h3.27v-4.87Z"/><path d="M917.51,251.69a10.24,10.24,0,0,1,2.3-6.89,8.28,8.28,0,0,1,12.22,0,10.19,10.19,0,0,1,2.3,6.89v.58a10.24,10.24,0,0,1-2.29,6.9,7.61,7.61,0,0,1-6.09,2.68,7.7,7.7,0,0,1-6.14-2.68,10.25,10.25,0,0,1-2.3-6.9Zm2.11.58a9.07,9.07,0,0,0,1.67,5.55,5.9,5.9,0,0,0,9.27,0,9.07,9.07,0,0,0,1.67-5.55v-.58a9,9,0,0,0-1.68-5.52,5.86,5.86,0,0,0-9.26,0,9.07,9.07,0,0,0-1.67,5.52Z"/><path d="M959.73,258.74a6.56,6.56,0,0,1-2.44,2.3,7.25,7.25,0,0,1-3.51.81,6.31,6.31,0,0,1-5.34-2.55,11,11,0,0,1-1.92-6.8v-.37a12.44,12.44,0,0,1,1.92-7.29,6.19,6.19,0,0,1,5.37-2.73,6.91,6.91,0,0,1,3.45.83,6.83,6.83,0,0,1,2.42,2.39v-9.48l-2.86-.23v-1.56h5V259.7l2.87.23v1.55h-4.75Zm-11.09-6.24A9.65,9.65,0,0,0,950,258a4.69,4.69,0,0,0,4.16,2,5.9,5.9,0,0,0,3.38-.91,6,6,0,0,0,2.12-2.52v-9a6.48,6.48,0,0,0-2-2.63,5.46,5.46,0,0,0-3.43-1,4.59,4.59,0,0,0-4.18,2.27,11.2,11.2,0,0,0-1.4,5.92Z"/><path d="M967.89,251.69a10.24,10.24,0,0,1,2.3-6.89,8.28,8.28,0,0,1,12.22,0,10.19,10.19,0,0,1,2.3,6.89v.58a10.24,10.24,0,0,1-2.29,6.9,8.32,8.32,0,0,1-12.23,0,10.25,10.25,0,0,1-2.3-6.9Zm2.11.58a9.07,9.07,0,0,0,1.67,5.55,5.47,5.47,0,0,0,4.66,2.25,5.4,5.4,0,0,0,4.6-2.25,9,9,0,0,0,1.67-5.55v-.58a9.07,9.07,0,0,0-1.67-5.52,5.86,5.86,0,0,0-9.26,0,9.07,9.07,0,0,0-1.67,5.52Z"/><path d="M569.1,302.46,572,302V288.38l-2.86-.49v-2.23h6l.24,2.83a6.94,6.94,0,0,1,2.38-2.35,6.45,6.45,0,0,1,3.26-.83,6.23,6.23,0,0,1,4.77,1.8c1.12,1.2,1.69,3.06,1.69,5.56V302l2.86.49v2.22h-9.19v-2.22l2.86-.49v-9.23a5.14,5.14,0,0,0-1-3.56,4,4,0,0,0-3-1.06,4.9,4.9,0,0,0-2.65.72,5.29,5.29,0,0,0-1.84,2V302l2.87.49v2.22H569.1Z"/><path d="M592.62,295A10.48,10.48,0,0,1,594.9,288a8.46,8.46,0,0,1,12.44,0,10.44,10.44,0,0,1,2.29,7v.39a10.42,10.42,0,0,1-2.28,7,8.49,8.49,0,0,1-12.45,0,10.43,10.43,0,0,1-2.28-6.95Zm3.46.39a9,9,0,0,0,1.27,5,4.59,4.59,0,0,0,7.54,0,9,9,0,0,0,1.28-5V295a9,9,0,0,0-1.28-5,4.58,4.58,0,0,0-7.55,0,9.1,9.1,0,0,0-1.26,5Z"/><path d="M627.35,291.64h-2.6l-.56-2.29a4.82,4.82,0,0,0-1.59-1,6.19,6.19,0,0,0-2.18-.36,4,4,0,0,0-2.74.81,2.52,2.52,0,0,0-.89,2,2.18,2.18,0,0,0,.79,1.78,8.22,8.22,0,0,0,3.21,1.16,13.62,13.62,0,0,1,5.36,2.1,4.21,4.21,0,0,1,1.76,3.56,4.89,4.89,0,0,1-2,4.09,8.51,8.51,0,0,1-5.35,1.57,14,14,0,0,1-3.88-.5,10.54,10.54,0,0,1-3.08-1.45l0-4.34h2.61l.65,2.54a3.58,3.58,0,0,0,1.62.8,9.27,9.27,0,0,0,2.1.24,4.87,4.87,0,0,0,2.89-.75,2.29,2.29,0,0,0,1.05-2,2.37,2.37,0,0,0-.87-1.88,8.18,8.18,0,0,0-3.3-1.28,13.77,13.77,0,0,1-5.22-2.06,4.12,4.12,0,0,1-1.75-3.51,5,5,0,0,1,2-4,7.8,7.8,0,0,1,5.14-1.63,12.64,12.64,0,0,1,3.89.56,8.1,8.1,0,0,1,2.86,1.57Z"/><path d="M645.7,291.64h-2.6l-.56-2.29a4.63,4.63,0,0,0-1.59-1,6.17,6.17,0,0,0-2.17-.36,4,4,0,0,0-2.75.81,2.56,2.56,0,0,0-.89,2,2.18,2.18,0,0,0,.79,1.78,8.28,8.28,0,0,0,3.22,1.16,13.75,13.75,0,0,1,5.36,2.1,4.22,4.22,0,0,1,1.75,3.56,4.9,4.9,0,0,1-2,4.09,8.56,8.56,0,0,1-5.36,1.57,14,14,0,0,1-3.88-.5,10.66,10.66,0,0,1-3.08-1.45v-4.34h2.6l.65,2.54a3.63,3.63,0,0,0,1.62.8,9.27,9.27,0,0,0,2.1.24,4.92,4.92,0,0,0,2.9-.75,2.3,2.3,0,0,0,1-2,2.37,2.37,0,0,0-.87-1.88,8.18,8.18,0,0,0-3.29-1.28,13.83,13.83,0,0,1-5.23-2.06,4.12,4.12,0,0,1-1.75-3.51,5,5,0,0,1,2-4,7.83,7.83,0,0,1,5.15-1.63,12.62,12.62,0,0,1,3.88.56,8.23,8.23,0,0,1,2.87,1.57Z"/><path d="M649.52,295A10.48,10.48,0,0,1,651.8,288a8.46,8.46,0,0,1,12.44,0,10.44,10.44,0,0,1,2.29,7v.39a10.42,10.42,0,0,1-2.28,7,8.49,8.49,0,0,1-12.45,0,10.43,10.43,0,0,1-2.28-6.95Zm3.46.39a9,9,0,0,0,1.27,5,4.59,4.59,0,0,0,7.54,0,9,9,0,0,0,1.28-5V295a9,9,0,0,0-1.28-5,4.58,4.58,0,0,0-7.55,0,9.1,9.1,0,0,0-1.26,5Z"/><path d="M696.05,295.89a10.47,10.47,0,0,1-2,6.64,6.53,6.53,0,0,1-5.44,2.52,7,7,0,0,1-3.24-.71,6.18,6.18,0,0,1-2.28-2.1l-.32,2.44h-3V280l-2.86-.49v-2.23h6.33v10.65a5.88,5.88,0,0,1,2.22-1.93,6.74,6.74,0,0,1,3.1-.67,6.34,6.34,0,0,1,5.49,2.81,12.68,12.68,0,0,1,2,7.4Zm-3.49-.37a10.51,10.51,0,0,0-1.19-5.34,4,4,0,0,0-3.66-2.06,4.59,4.59,0,0,0-2.69.77,5.41,5.41,0,0,0-1.75,2.08v8.4a5.32,5.32,0,0,0,1.76,2.09,4.64,4.64,0,0,0,2.72.78,4.09,4.09,0,0,0,3.63-1.74,8.06,8.06,0,0,0,1.18-4.61Z"/><path d="M711.9,304.68c-.1-.52-.19-1-.25-1.39s-.09-.82-.12-1.23a8.38,8.38,0,0,1-2.5,2.14,6.5,6.5,0,0,1-3.21.85,6.36,6.36,0,0,1-4.52-1.45,5.34,5.34,0,0,1-1.55-4.09,4.73,4.73,0,0,1,2.19-4.17,10.66,10.66,0,0,1,6-1.47h3.56v-2.22a3.43,3.43,0,0,0-1-2.64,4.16,4.16,0,0,0-2.94-1,7,7,0,0,0-2.29.34,4.25,4.25,0,0,0-1.61.91l-.37,2h-2.67v-3.7a10.45,10.45,0,0,1,3.15-1.66,12.56,12.56,0,0,1,4-.62A8,8,0,0,1,713,287a5.77,5.77,0,0,1,2,4.73v9.16c0,.24,0,.48,0,.72s0,.47,0,.7l1.41.19v2.22Zm-5.57-2.53a6.18,6.18,0,0,0,3.15-.83,5.16,5.16,0,0,0,2-2v-3.13h-3.69a5.27,5.27,0,0,0-3.36,1,3,3,0,0,0-1.24,2.39,2.39,2.39,0,0,0,.77,1.91A3.55,3.55,0,0,0,706.33,302.15Z"/><path d="M719.32,302.46l2.86-.49V288.38l-2.86-.49v-2.23h6.33V302l2.86.49v2.22h-9.19Zm6.33-21.67h-3.47v-3.53h3.47Z"/><path d="M731.15,287.89v-2.23h6l.33,2.76a6.81,6.81,0,0,1,2-2.29,4.62,4.62,0,0,1,2.71-.82,6.15,6.15,0,0,1,.84.06,6.4,6.4,0,0,1,.66.13l-.46,3.22-2-.11a4,4,0,0,0-2.3.64,4.16,4.16,0,0,0-1.44,1.81V302l2.86.49v2.22h-9.19v-2.22L734,302V288.38Z"/><path d="M746,287.89v-2.23h6l.33,2.76a6.7,6.7,0,0,1,2-2.29,4.62,4.62,0,0,1,2.71-.82,6.15,6.15,0,0,1,.84.06,6.4,6.4,0,0,1,.66.13l-.46,3.22-2-.11a4,4,0,0,0-2.3.64,4.16,4.16,0,0,0-1.44,1.81V302l2.86.49v2.22H746v-2.22l2.86-.49V288.38Z"/><path d="M760.59,295a10.43,10.43,0,0,1,2.29-6.95,8.45,8.45,0,0,1,12.43,0,10.45,10.45,0,0,1,2.3,7v.39a10.37,10.37,0,0,1-2.29,7,8.48,8.48,0,0,1-12.44,0,10.38,10.38,0,0,1-2.29-6.95Zm3.47.39a9,9,0,0,0,1.27,5,4.58,4.58,0,0,0,7.53,0,8.91,8.91,0,0,0,1.29-5V295a8.94,8.94,0,0,0-1.29-5,4.57,4.57,0,0,0-7.54,0,9.1,9.1,0,0,0-1.26,5Z"/><path d="M784,303.84a8,8,0,0,1-.66,3.16,7.75,7.75,0,0,1-1.8,2.62l-1.25-.91a9.24,9.24,0,0,0,1.22-2.31,7.5,7.5,0,0,0,.4-2.53v-2.49H784Z"/><path d="M801.39,280.79v4.87h4.18v1.72h-4.18v12.4a4,4,0,0,0,.68,2.64,2.26,2.26,0,0,0,1.8.78c.34,0,.67,0,1,0s.7-.08,1.12-.15l.32,1.56a5.54,5.54,0,0,1-1.29.36,9.61,9.61,0,0,1-1.51.12,3.91,3.91,0,0,1-3.12-1.27,6,6,0,0,1-1.12-4v-12.4H796v-1.72h3.27v-4.87Z"/><path d="M822.57,304.68c-.14-.64-.24-1.2-.3-1.67a13.37,13.37,0,0,1-.08-1.42,8.39,8.39,0,0,1-2.82,2.47,7.91,7.91,0,0,1-4,1,6.09,6.09,0,0,1-4.33-1.44,5.1,5.1,0,0,1-1.53-3.9,4.83,4.83,0,0,1,2.27-4.19A10.79,10.79,0,0,1,818,294h4.21v-2.51a4.07,4.07,0,0,0-1.31-3.2,5.38,5.38,0,0,0-3.67-1.16,9.42,9.42,0,0,0-2.89.43,6.71,6.71,0,0,0-2.19,1.17l-.17,2.55h-1.74v-3.66a10.85,10.85,0,0,1,3.16-1.65,12,12,0,0,1,3.91-.63,7.62,7.62,0,0,1,5.06,1.6,5.62,5.62,0,0,1,1.92,4.59v9.35c0,.38,0,.76,0,1.11a8.87,8.87,0,0,0,.12,1.05l1.9.12v1.55Zm.76-26.35a3.57,3.57,0,0,1-1,2.57,3.18,3.18,0,0,1-2.41,1,4.61,4.61,0,0,1-2.65-1,4.21,4.21,0,0,0-2.3-1,1.81,1.81,0,0,0-1.39.62,2.2,2.2,0,0,0-.56,1.56l-1.39-.31a3.6,3.6,0,0,1,.94-2.54,3.07,3.07,0,0,1,2.4-1,4.86,4.86,0,0,1,2.59,1,4.63,4.63,0,0,0,2.36,1,1.81,1.81,0,0,0,1.39-.63,2.27,2.27,0,0,0,.58-1.6Zm-7.68,24.86a7.63,7.63,0,0,0,4-1.06,6.26,6.26,0,0,0,2.52-2.72v-3.82H818a7.91,7.91,0,0,0-4.58,1.19,3.54,3.54,0,0,0-1.71,3,3.15,3.15,0,0,0,1.06,2.47A4.3,4.3,0,0,0,815.65,303.19Z"/><path d="M829.31,294.89a10.19,10.19,0,0,1,2.3-6.89,8.27,8.27,0,0,1,12.21,0,10.2,10.2,0,0,1,2.31,6.89v.58a10.25,10.25,0,0,1-2.3,6.9,8.3,8.3,0,0,1-12.22,0,10.2,10.2,0,0,1-2.3-6.9Zm2.1.58a9.07,9.07,0,0,0,1.67,5.55,5.9,5.9,0,0,0,9.27,0,9.07,9.07,0,0,0,1.67-5.55v-.58a9,9,0,0,0-1.68-5.52,5.86,5.86,0,0,0-9.26,0,9.07,9.07,0,0,0-1.67,5.52Z"/><path d="M858.17,303.13l2.86-.23V287.45l-2.86-.23v-1.56h5V302.9l2.86.23v1.55h-7.82Zm5-22.92H861v-2.95h2.1Z"/><path d="M869.07,287.22v-1.56h4.73l.19,3.15a6.63,6.63,0,0,1,2.44-2.59,7,7,0,0,1,3.64-.91,6,6,0,0,1,3.64,1.06,5.87,5.87,0,0,1,2.09,3.25,7.45,7.45,0,0,1,2.45-3.16,6.43,6.43,0,0,1,3.88-1.15,5.73,5.73,0,0,1,4.7,2c1.11,1.35,1.66,3.43,1.66,6.26v9.3l2.87.24v1.55H893.5v-1.55l2.87-.24v-9.34c0-2.34-.42-4-1.24-5a4.3,4.3,0,0,0-3.46-1.45,4.71,4.71,0,0,0-3.79,1.56,7.52,7.52,0,0,0-1.64,4,2.35,2.35,0,0,0,0,.27,2.73,2.73,0,0,1,0,.31v9.63l2.86.23v1.55h-7.84v-1.55l2.87-.23v-9.35c0-2.29-.42-3.94-1.26-4.93a4.28,4.28,0,0,0-3.45-1.48,5.23,5.23,0,0,0-3.56,1.13,6.05,6.05,0,0,0-1.84,3.05V302.9l2.87.23v1.55h-7.84v-1.55l2.86-.23V287.45Z"/><path d="M903.4,287.22v-1.56H908l.26,2.95a7,7,0,0,1,2.47-2.44,7,7,0,0,1,3.53-.86,6.21,6.21,0,0,1,5.36,2.73,12.37,12.37,0,0,1,1.93,7.29v.37a11,11,0,0,1-1.93,6.81,6.34,6.34,0,0,1-5.33,2.54,7.62,7.62,0,0,1-3.5-.77,6.43,6.43,0,0,1-2.46-2.17v8.09l2.87.23V312H903.4v-1.56l2.86-.23V287.45Zm16.06,8.11a10.94,10.94,0,0,0-1.44-5.91,4.69,4.69,0,0,0-4.22-2.28,5.5,5.5,0,0,0-3.45,1,6.19,6.19,0,0,0-2,2.63v9.14a5.78,5.78,0,0,0,2.09,2.46,6.12,6.12,0,0,0,3.4.89A4.76,4.76,0,0,0,918,301.2a9.47,9.47,0,0,0,1.43-5.5Z"/><path d="M925,294.89a10.24,10.24,0,0,1,2.3-6.89,8.28,8.28,0,0,1,12.22,0,10.19,10.19,0,0,1,2.3,6.89v.58a10.24,10.24,0,0,1-2.29,6.9,8.32,8.32,0,0,1-12.23,0,10.25,10.25,0,0,1-2.3-6.9Zm2.11.58a9.07,9.07,0,0,0,1.67,5.55,5.47,5.47,0,0,0,4.66,2.25A5.4,5.4,0,0,0,938,301a9,9,0,0,0,1.67-5.55v-.58a9,9,0,0,0-1.68-5.52,5.85,5.85,0,0,0-9.25,0,9.07,9.07,0,0,0-1.67,5.52Z"/><path d="M949.8,285.66l.27,3.16v.23a6.74,6.74,0,0,1,2.2-2.75,5.59,5.59,0,0,1,3.32-1,4.93,4.93,0,0,1,.78.06c.25,0,.46.09.62.13l-.28,2-1.56-.1a4.77,4.77,0,0,0-3.26,1.11,6.17,6.17,0,0,0-1.82,3.07V302.9l2.86.23v1.55h-7.82v-1.55l2.87-.23V287.45l-2.87-.23v-1.56h4.69Z"/><path d="M965.11,280.79v4.87h4.19v1.72h-4.19v12.4a4,4,0,0,0,.68,2.64,2.26,2.26,0,0,0,1.8.78c.34,0,.67,0,1,0s.69-.08,1.11-.15l.32,1.56a5.4,5.4,0,0,1-1.29.36,9.51,9.51,0,0,1-1.51.12,3.94,3.94,0,0,1-3.12-1.27,6,6,0,0,1-1.11-4v-12.4h-3.27v-1.72H963v-4.87Z"/><path d="M986.3,304.68A16.3,16.3,0,0,1,986,303a11.16,11.16,0,0,1-.09-1.42,8.35,8.35,0,0,1-2.81,2.47,7.94,7.94,0,0,1-4,1,6.06,6.06,0,0,1-4.32-1.44,5.1,5.1,0,0,1-1.53-3.9,4.81,4.81,0,0,1,2.27-4.19,10.77,10.77,0,0,1,6.15-1.55h4.2v-2.51a4.07,4.07,0,0,0-1.31-3.2,5.37,5.37,0,0,0-3.67-1.16,9.47,9.47,0,0,0-2.89.43,6.71,6.71,0,0,0-2.19,1.17l-.17,2.55h-1.74l0-3.66a10.79,10.79,0,0,1,3.15-1.65,12,12,0,0,1,3.91-.63,7.6,7.6,0,0,1,5.06,1.6A5.62,5.62,0,0,1,988,291.5v9.35c0,.38,0,.76,0,1.11a7.18,7.18,0,0,0,.11,1.05l1.9.12v1.55Zm-6.93-1.49a7.69,7.69,0,0,0,4-1.06,6.24,6.24,0,0,0,2.51-2.72v-3.82h-4.24a7.94,7.94,0,0,0-4.58,1.19,3.54,3.54,0,0,0-1.71,3,3.15,3.15,0,0,0,1.06,2.47A4.31,4.31,0,0,0,979.37,303.19Z"/><path d="M992.64,303.13l2.87-.23V287.45l-2.87-.23v-1.56h4.73l.19,3.32a6.57,6.57,0,0,1,6.16-3.67,5.86,5.86,0,0,1,4.71,1.89c1.07,1.26,1.61,3.22,1.61,5.9v9.8l2.87.23v1.55h-7.84v-1.55l2.86-.23v-9.79c0-2.18-.4-3.72-1.22-4.62a4.43,4.43,0,0,0-3.47-1.35,5.42,5.42,0,0,0-3.61,1.17,6.46,6.46,0,0,0-2,3.1V302.9l2.86.23v1.55h-7.84Z"/><path d="M1021.05,280.79v4.87h4.18v1.72h-4.18v12.4a4,4,0,0,0,.67,2.64,2.3,2.3,0,0,0,1.81.78c.34,0,.67,0,1,0s.69-.08,1.12-.15l.31,1.56a5.45,5.45,0,0,1-1.28.36,9.7,9.7,0,0,1-1.51.12,3.91,3.91,0,0,1-3.12-1.27,5.92,5.92,0,0,1-1.12-4v-12.4h-3.27v-1.72h3.27v-4.87Z"/><path d="M1037.48,305.05a7.64,7.64,0,0,1-5.94-2.63,9.64,9.64,0,0,1-2.35-6.69v-1a9.94,9.94,0,0,1,2.34-6.77,7.29,7.29,0,0,1,5.67-2.69,7.05,7.05,0,0,1,5.5,2.21,8.47,8.47,0,0,1,2,5.91v1.79h-13.43v.51a8.38,8.38,0,0,0,1.71,5.37,5.44,5.44,0,0,0,4.49,2.17,9.2,9.2,0,0,0,3.34-.54,6.59,6.59,0,0,0,2.38-1.57l.89,1.45a7.53,7.53,0,0,1-2.7,1.78A10.46,10.46,0,0,1,1037.48,305.05Zm-.28-17.95a5,5,0,0,0-3.91,1.79,7.61,7.61,0,0,0-1.85,4.47l0,.09h11.15v-.53a6.1,6.1,0,0,0-1.46-4.15A5,5,0,0,0,1037.2,287.1Z"/><path d="M569.18,330.42v-1.56h4.63l.26,2.95a6.65,6.65,0,0,1,6-3.3,6.22,6.22,0,0,1,5.37,2.73,12.37,12.37,0,0,1,1.93,7.29v.37a11,11,0,0,1-1.93,6.81,6.34,6.34,0,0,1-5.33,2.54,7.66,7.66,0,0,1-3.51-.77,6.4,6.4,0,0,1-2.45-2.17v8.09l2.87.23v1.56h-7.83v-1.56l2.87-.23V330.65Zm16.07,8.11a10.91,10.91,0,0,0-1.44-5.91,4.69,4.69,0,0,0-4.22-2.28,5.48,5.48,0,0,0-3.45,1,6.22,6.22,0,0,0-2,2.62v9.15a5.83,5.83,0,0,0,2.08,2.46,6.15,6.15,0,0,0,3.41.89,4.78,4.78,0,0,0,4.19-2.07,9.55,9.55,0,0,0,1.43-5.5Z"/><path d="M603.92,347.88c-.14-.65-.24-1.2-.3-1.67a11.16,11.16,0,0,1-.09-1.42,8.35,8.35,0,0,1-2.81,2.47,7.92,7.92,0,0,1-4,1,6.06,6.06,0,0,1-4.32-1.44,5.12,5.12,0,0,1-1.53-3.91,4.83,4.83,0,0,1,2.27-4.18,10.77,10.77,0,0,1,6.15-1.55h4.2v-2.51a4,4,0,0,0-1.31-3.2,5.34,5.34,0,0,0-3.66-1.16,9.09,9.09,0,0,0-2.89.43,6.51,6.51,0,0,0-2.19,1.17l-.18,2.55h-1.74l0-3.66a10.92,10.92,0,0,1,3.15-1.65,12,12,0,0,1,3.92-.63,7.63,7.63,0,0,1,5.06,1.6,5.64,5.64,0,0,1,1.91,4.59v9.35c0,.38,0,.76,0,1.11s.06.71.11,1l1.9.12v1.55Zm-6.93-1.5a7.64,7.64,0,0,0,4-1.05,6.18,6.18,0,0,0,2.51-2.72v-3.82H599.3a7.91,7.91,0,0,0-4.58,1.19,3.52,3.52,0,0,0-1.72,3,3.13,3.13,0,0,0,1.07,2.47A4.22,4.22,0,0,0,597,346.38Z"/><path d="M615.2,328.86l.27,3.16v.23a6.74,6.74,0,0,1,2.2-2.75,5.59,5.59,0,0,1,3.32-1,4.93,4.93,0,0,1,.78.06,4.69,4.69,0,0,1,.62.13l-.28,2-1.56-.11a4.78,4.78,0,0,0-3.26,1.12,6.12,6.12,0,0,0-1.82,3.07V346.1l2.86.23v1.55h-7.82v-1.55l2.87-.23V330.65l-2.87-.23v-1.56h4.69Z"/><path d="M638.25,347.88c-.14-.65-.24-1.2-.3-1.67a11.16,11.16,0,0,1-.09-1.42,8.35,8.35,0,0,1-2.81,2.47,7.92,7.92,0,0,1-4,1,6.06,6.06,0,0,1-4.32-1.44,5.12,5.12,0,0,1-1.53-3.91,4.83,4.83,0,0,1,2.27-4.18,10.77,10.77,0,0,1,6.15-1.55h4.2v-2.51a4,4,0,0,0-1.31-3.2,5.34,5.34,0,0,0-3.66-1.16,9.09,9.09,0,0,0-2.89.43,6.51,6.51,0,0,0-2.19,1.17l-.18,2.55h-1.74l0-3.66a10.92,10.92,0,0,1,3.15-1.65,12,12,0,0,1,3.92-.63,7.63,7.63,0,0,1,5.06,1.6A5.64,5.64,0,0,1,640,334.7v9.35c0,.38,0,.76,0,1.11s.06.71.11,1l1.9.12v1.55Zm-6.93-1.5a7.64,7.64,0,0,0,4-1.05,6.18,6.18,0,0,0,2.51-2.72v-3.82h-4.23a7.91,7.91,0,0,0-4.58,1.19,3.52,3.52,0,0,0-1.72,3,3.13,3.13,0,0,0,1.07,2.47A4.22,4.22,0,0,0,631.32,346.38Z"/><path d="M666.87,347.88c-.14-.65-.24-1.2-.3-1.67a11.16,11.16,0,0,1-.09-1.42,8.35,8.35,0,0,1-2.81,2.47,7.94,7.94,0,0,1-4,1,6.06,6.06,0,0,1-4.32-1.44,5.12,5.12,0,0,1-1.53-3.91,4.8,4.8,0,0,1,2.27-4.18,10.77,10.77,0,0,1,6.15-1.55h4.2v-2.51a4.06,4.06,0,0,0-1.31-3.2,5.37,5.37,0,0,0-3.67-1.16,9.17,9.17,0,0,0-2.89.43,6.71,6.71,0,0,0-2.19,1.17l-.17,2.55h-1.74l0-3.66a10.79,10.79,0,0,1,3.15-1.65,12,12,0,0,1,3.91-.63,7.6,7.6,0,0,1,5.06,1.6,5.62,5.62,0,0,1,1.92,4.59v9.35c0,.38,0,.76,0,1.11a7.18,7.18,0,0,0,.11,1l1.9.12v1.55Zm-6.93-1.5a7.66,7.66,0,0,0,4-1.05,6.24,6.24,0,0,0,2.51-2.72v-3.82h-4.24a7.94,7.94,0,0,0-4.58,1.19,3.53,3.53,0,0,0-1.71,3,3.12,3.12,0,0,0,1.06,2.47A4.26,4.26,0,0,0,659.94,346.38Z"/><path d="M682,346.33l2.86-.23V330.65l-2.86-.23v-1.56h4.72l.2,3.32a6.7,6.7,0,0,1,2.47-2.71,6.84,6.84,0,0,1,3.68-1,5.86,5.86,0,0,1,4.71,1.89q1.62,1.89,1.62,5.89v9.81l2.86.23v1.55h-7.84v-1.55l2.87-.23v-9.79c0-2.18-.41-3.72-1.22-4.62a4.47,4.47,0,0,0-3.48-1.35A5.49,5.49,0,0,0,689,331.5a6.53,6.53,0,0,0-2,3.11V346.1l2.87.23v1.55H682Z"/><path d="M705.36,338.09a10.24,10.24,0,0,1,2.3-6.89,8.28,8.28,0,0,1,12.22,0,10.19,10.19,0,0,1,2.3,6.89v.58a10.24,10.24,0,0,1-2.29,6.9,8.32,8.32,0,0,1-12.23,0,10.25,10.25,0,0,1-2.3-6.9Zm2.11.58a9.07,9.07,0,0,0,1.67,5.55,5.47,5.47,0,0,0,4.66,2.25,5.4,5.4,0,0,0,4.6-2.25,9,9,0,0,0,1.67-5.55v-.58a9,9,0,0,0-1.67-5.52,5.86,5.86,0,0,0-9.26,0,9.07,9.07,0,0,0-1.67,5.52Z"/><path d="M739.41,334.73h-1.72l-.25-2.69a5.3,5.3,0,0,0-2-1.28,7.7,7.7,0,0,0-2.77-.46,5.19,5.19,0,0,0-3.46,1,3,3,0,0,0-1.15,2.33,2.74,2.74,0,0,0,1,2.18,9.5,9.5,0,0,0,4,1.51,13.14,13.14,0,0,1,5.08,2.07,4.28,4.28,0,0,1,1.69,3.56,4.6,4.6,0,0,1-1.93,3.84,8.16,8.16,0,0,1-5.09,1.47,12,12,0,0,1-3.84-.59,9.14,9.14,0,0,1-3-1.66v-3.83h1.7l.3,2.7a4.76,4.76,0,0,0,2.14,1.22,9.26,9.26,0,0,0,2.69.38,5.82,5.82,0,0,0,3.61-1,3,3,0,0,0,1.32-2.43,3.07,3.07,0,0,0-1.1-2.33,8.94,8.94,0,0,0-4-1.64,13.17,13.17,0,0,1-5-2,4,4,0,0,1-1.65-3.42,4.59,4.59,0,0,1,1.85-3.68,7.48,7.48,0,0,1,4.87-1.5,10.86,10.86,0,0,1,3.82.64,7.58,7.58,0,0,1,2.82,1.73Z"/><path d="M757.43,334.73h-1.72l-.25-2.69a5.26,5.26,0,0,0-2-1.28,7.61,7.61,0,0,0-2.76-.46,5.19,5.19,0,0,0-3.46,1,3,3,0,0,0-1.15,2.33,2.76,2.76,0,0,0,1,2.18,9.62,9.62,0,0,0,4,1.51,13.14,13.14,0,0,1,5.08,2.07,4.27,4.27,0,0,1,1.68,3.56,4.61,4.61,0,0,1-1.92,3.84,8.16,8.16,0,0,1-5.09,1.47,12,12,0,0,1-3.84-.59,9.29,9.29,0,0,1-3-1.66v-3.83h1.71l.3,2.7a4.78,4.78,0,0,0,2.13,1.22,9.27,9.27,0,0,0,2.7.38,5.79,5.79,0,0,0,3.6-1,3,3,0,0,0,1.32-2.43,3,3,0,0,0-1.1-2.33,8.84,8.84,0,0,0-4-1.64,13.29,13.29,0,0,1-5-2,4,4,0,0,1-1.64-3.42,4.59,4.59,0,0,1,1.85-3.68,7.48,7.48,0,0,1,4.87-1.5,10.9,10.9,0,0,1,3.82.64,7.75,7.75,0,0,1,2.82,1.73Z"/><path d="M774.78,347.88c-.14-.65-.24-1.2-.3-1.67a11.16,11.16,0,0,1-.09-1.42,8.35,8.35,0,0,1-2.81,2.47,7.92,7.92,0,0,1-4,1,6.06,6.06,0,0,1-4.32-1.44,5.12,5.12,0,0,1-1.53-3.91,4.83,4.83,0,0,1,2.27-4.18,10.77,10.77,0,0,1,6.15-1.55h4.2v-2.51a4.06,4.06,0,0,0-1.31-3.2,5.34,5.34,0,0,0-3.66-1.16,9.19,9.19,0,0,0-2.9.43,6.55,6.55,0,0,0-2.18,1.17l-.18,2.55h-1.74l0-3.66a10.92,10.92,0,0,1,3.15-1.65,12,12,0,0,1,3.91-.63,7.64,7.64,0,0,1,5.07,1.6,5.64,5.64,0,0,1,1.91,4.59v9.35c0,.38,0,.76,0,1.11a8.88,8.88,0,0,0,.11,1l1.9.12v1.55Zm-6.93-1.5a7.64,7.64,0,0,0,4-1.05,6.18,6.18,0,0,0,2.51-2.72v-3.82h-4.24a7.88,7.88,0,0,0-4.57,1.19,3.52,3.52,0,0,0-1.72,3,3.13,3.13,0,0,0,1.07,2.47A4.22,4.22,0,0,0,767.85,346.38Z"/><path d="M795.78,330.42l-2.37.18,4.75,12.52.61,2.23h.11l.67-2.23,4.67-12.52-2.37-.18v-1.56h6.4v1.56l-1.87.16-6.71,17.3H798l-6.73-17.3-1.86-.16v-1.56h6.39Z"/><path d="M810.43,346.33l2.86-.23V330.65l-2.86-.23v-1.56h5V346.1l2.87.23v1.55h-7.82Zm5-22.92h-2.09v-3h2.09Z"/><path d="M835,345.14a6.63,6.63,0,0,1-2.44,2.3,7.29,7.29,0,0,1-3.52.81,6.3,6.3,0,0,1-5.33-2.55,11,11,0,0,1-1.93-6.8v-.37a12.37,12.37,0,0,1,1.93-7.29,6.19,6.19,0,0,1,5.37-2.73,6.87,6.87,0,0,1,3.44.83,7,7,0,0,1,2.43,2.38v-9.47l-2.87-.23v-1.56h5V346.1l2.86.23v1.55h-4.74Zm-11.09-6.24a9.65,9.65,0,0,0,1.38,5.48,4.68,4.68,0,0,0,4.16,2,5.94,5.94,0,0,0,3.38-.91A6.11,6.11,0,0,0,835,343v-9a6.57,6.57,0,0,0-2-2.63,5.5,5.5,0,0,0-3.44-1,4.57,4.57,0,0,0-4.17,2.27,11.11,11.11,0,0,0-1.4,5.92Z"/><path d="M856.29,347.88c-.14-.65-.24-1.2-.3-1.67a11.16,11.16,0,0,1-.09-1.42,8.35,8.35,0,0,1-2.81,2.47,7.92,7.92,0,0,1-4,1,6.06,6.06,0,0,1-4.32-1.44,5.12,5.12,0,0,1-1.53-3.91,4.83,4.83,0,0,1,2.27-4.18,10.77,10.77,0,0,1,6.15-1.55h4.2v-2.51a4.06,4.06,0,0,0-1.31-3.2,5.34,5.34,0,0,0-3.66-1.16,9.19,9.19,0,0,0-2.9.43,6.55,6.55,0,0,0-2.18,1.17l-.18,2.55h-1.74l0-3.66a10.92,10.92,0,0,1,3.15-1.65,12,12,0,0,1,3.91-.63,7.64,7.64,0,0,1,5.07,1.6A5.64,5.64,0,0,1,858,334.7v9.35c0,.38,0,.76,0,1.11a8.88,8.88,0,0,0,.11,1l1.9.12v1.55Zm-6.93-1.5a7.64,7.64,0,0,0,4-1.05,6.18,6.18,0,0,0,2.51-2.72v-3.82h-4.24a7.88,7.88,0,0,0-4.57,1.19,3.52,3.52,0,0,0-1.72,3,3.13,3.13,0,0,0,1.07,2.47A4.22,4.22,0,0,0,849.36,346.38Z"/><path d="M871.48,330.58v-1.72h3.14v-2.78a6.32,6.32,0,0,1,1.44-4.43,5.22,5.22,0,0,1,4-1.56,7.85,7.85,0,0,1,1.16.09,10.78,10.78,0,0,1,1.21.24l-.26,1.74a8.15,8.15,0,0,0-.86-.16,6.38,6.38,0,0,0-1-.07,3.31,3.31,0,0,0-2.65,1.09,4.64,4.64,0,0,0-.92,3.06v2.78h4.54v1.72h-4.54V346.1l2.87.23v1.55h-7.84v-1.55l2.86-.23V330.58Z"/><path d="M897.65,347.88c-.14-.65-.24-1.2-.3-1.67a11.16,11.16,0,0,1-.09-1.42,8.35,8.35,0,0,1-2.81,2.47,7.92,7.92,0,0,1-4,1,6.06,6.06,0,0,1-4.32-1.44,5.12,5.12,0,0,1-1.53-3.91,4.83,4.83,0,0,1,2.27-4.18,10.77,10.77,0,0,1,6.15-1.55h4.2v-2.51a4,4,0,0,0-1.31-3.2,5.34,5.34,0,0,0-3.66-1.16,9.09,9.09,0,0,0-2.89.43,6.51,6.51,0,0,0-2.19,1.17l-.18,2.55h-1.74l0-3.66a10.92,10.92,0,0,1,3.15-1.65,12,12,0,0,1,3.92-.63,7.63,7.63,0,0,1,5.06,1.6,5.61,5.61,0,0,1,1.91,4.59v9.35c0,.38,0,.76,0,1.11s.06.71.11,1l1.9.12v1.55Zm-6.93-1.5a7.64,7.64,0,0,0,4-1.05,6.18,6.18,0,0,0,2.51-2.72v-3.82H893a7.91,7.91,0,0,0-4.58,1.19,3.52,3.52,0,0,0-1.72,3,3.13,3.13,0,0,0,1.07,2.47A4.24,4.24,0,0,0,890.72,346.38Z"/><path d="M903.92,330.42v-1.56h4.73l.2,3.15a6.63,6.63,0,0,1,2.44-2.59,7,7,0,0,1,3.64-.91,6,6,0,0,1,3.64,1.06,5.88,5.88,0,0,1,2.09,3.24,7.4,7.4,0,0,1,2.45-3.15,6.41,6.41,0,0,1,3.88-1.15,5.74,5.74,0,0,1,4.7,2c1.11,1.35,1.66,3.43,1.66,6.26v9.3l2.87.24v1.55h-7.86v-1.55l2.86-.24v-9.34c0-2.34-.41-4-1.24-5a4.27,4.27,0,0,0-3.45-1.45,4.71,4.71,0,0,0-3.79,1.56,7.52,7.52,0,0,0-1.64,4,2.17,2.17,0,0,0,0,.26c0,.09,0,.19,0,.32v9.63l2.86.23v1.55h-7.84v-1.55l2.87-.23v-9.35c0-2.29-.42-3.94-1.26-4.93a4.28,4.28,0,0,0-3.45-1.48,5.23,5.23,0,0,0-3.56,1.13,6,6,0,0,0-1.84,3V346.1l2.86.23v1.55h-7.84v-1.55l2.87-.23V330.65Z"/><path d="M938.68,346.33l2.86-.23V330.65l-2.86-.23v-1.56h5V346.1l2.87.23v1.55h-7.82Zm5-22.92h-2.09v-3h2.09Z"/><path d="M949.61,322v-1.56h5V346.1l2.86.23v1.55h-7.82v-1.55l2.87-.23V322.25Z"/><path d="M960.61,346.33l2.87-.23V330.65l-2.87-.23v-1.56h5V346.1l2.87.23v1.55h-7.83Zm5-22.92h-2.09v-3h2.09Z"/><path d="M985.1,347.88c-.14-.65-.24-1.2-.3-1.67a11.16,11.16,0,0,1-.09-1.42,8.35,8.35,0,0,1-2.81,2.47,7.91,7.91,0,0,1-3.95,1,6.07,6.07,0,0,1-4.33-1.44,5.12,5.12,0,0,1-1.53-3.91,4.83,4.83,0,0,1,2.27-4.18,10.77,10.77,0,0,1,6.15-1.55h4.2v-2.51a4,4,0,0,0-1.31-3.2,5.34,5.34,0,0,0-3.66-1.16,9.09,9.09,0,0,0-2.89.43,6.51,6.51,0,0,0-2.19,1.17l-.18,2.55h-1.74l0-3.66a10.85,10.85,0,0,1,3.16-1.65,11.92,11.92,0,0,1,3.91-.63,7.63,7.63,0,0,1,5.06,1.6,5.62,5.62,0,0,1,1.92,4.59v9.35c0,.38,0,.76,0,1.11a8.87,8.87,0,0,0,.12,1l1.89.12v1.55Zm-6.93-1.5a7.64,7.64,0,0,0,4-1.05,6.18,6.18,0,0,0,2.51-2.72v-3.82h-4.23A7.91,7.91,0,0,0,975.9,340a3.54,3.54,0,0,0-1.72,3,3.13,3.13,0,0,0,1.07,2.47A4.24,4.24,0,0,0,978.17,346.38Z"/><path d="M996.39,328.86l.26,3.16v.23a6.74,6.74,0,0,1,2.2-2.75,5.62,5.62,0,0,1,3.32-1,4.93,4.93,0,0,1,.78.06,4.69,4.69,0,0,1,.62.13l-.28,2-1.56-.11a4.78,4.78,0,0,0-3.26,1.12,6.12,6.12,0,0,0-1.82,3.07V346.1l2.86.23v1.55h-7.82v-1.55l2.87-.23V330.65l-2.87-.23v-1.56h4.7Z"/><path d="M1023.44,348.25a7.64,7.64,0,0,1-5.94-2.63,9.64,9.64,0,0,1-2.36-6.69v-1a9.89,9.89,0,0,1,2.35-6.76,7.23,7.23,0,0,1,5.67-2.69,7.07,7.07,0,0,1,5.5,2.21,8.51,8.51,0,0,1,2,5.91v1.79h-13.43v.51a8.37,8.37,0,0,0,1.72,5.37,5.44,5.44,0,0,0,4.49,2.17,9.24,9.24,0,0,0,3.34-.54,6.78,6.78,0,0,0,2.37-1.57l.9,1.44a7.68,7.68,0,0,1-2.71,1.79A10.4,10.4,0,0,1,1023.44,348.25Zm-.28-17.95a5.06,5.06,0,0,0-3.91,1.78,7.71,7.71,0,0,0-1.86,4.48l0,.09h11.14v-.53a6.1,6.1,0,0,0-1.46-4.15A5,5,0,0,0,1023.16,330.3Z"/><path d="M583,388.34a6.66,6.66,0,0,1-2.45,2.3,7.25,7.25,0,0,1-3.51.81,6.31,6.31,0,0,1-5.34-2.55,11,11,0,0,1-1.92-6.8v-.37a12.44,12.44,0,0,1,1.92-7.29,6.19,6.19,0,0,1,5.37-2.73,6.5,6.5,0,0,1,5.87,3.21v-9.47l-2.86-.23v-1.56h5V389.3l2.87.23v1.55h-4.75Zm-11.1-6.24a9.65,9.65,0,0,0,1.38,5.48,4.69,4.69,0,0,0,4.16,2,5.9,5.9,0,0,0,3.38-.91,6,6,0,0,0,2.12-2.52v-9a6.48,6.48,0,0,0-2-2.63,5.46,5.46,0,0,0-3.43-1,4.57,4.57,0,0,0-4.18,2.27,11.2,11.2,0,0,0-1.4,5.92Z"/><path d="M599.51,391.45a7.68,7.68,0,0,1-6-2.63,9.64,9.64,0,0,1-2.35-6.69v-1a9.9,9.9,0,0,1,2.35-6.77,7.23,7.23,0,0,1,5.67-2.69,7.07,7.07,0,0,1,5.5,2.21,8.51,8.51,0,0,1,2,5.91v1.79H593.3v.51A8.37,8.37,0,0,0,595,387.5a5.42,5.42,0,0,0,4.49,2.17,9.24,9.24,0,0,0,3.34-.54,6.78,6.78,0,0,0,2.37-1.57l.9,1.44a7.68,7.68,0,0,1-2.71,1.79A10.4,10.4,0,0,1,599.51,391.45Zm-.28-17.95a5.05,5.05,0,0,0-3.92,1.79,7.64,7.64,0,0,0-1.85,4.47l0,.09h11.15v-.53a6.1,6.1,0,0,0-1.46-4.15A5,5,0,0,0,599.23,373.5Z"/><path d="M618.86,389.53l2.87-.23V373.85l-2.87-.23v-1.56h4.73l.19,3.32a6.7,6.7,0,0,1,2.47-2.71,6.89,6.89,0,0,1,3.68-1,5.87,5.87,0,0,1,4.72,1.89c1.07,1.26,1.61,3.22,1.61,5.9v9.8l2.87.23v1.55h-7.84v-1.55l2.86-.23v-9.79c0-2.18-.4-3.72-1.22-4.62a4.43,4.43,0,0,0-3.47-1.35,5.42,5.42,0,0,0-3.61,1.17,6.47,6.47,0,0,0-2,3.1V389.3l2.87.23v1.55h-7.84Z"/><path d="M642.26,381.29a10.19,10.19,0,0,1,2.3-6.89,8.28,8.28,0,0,1,12.22,0,10.24,10.24,0,0,1,2.3,6.89v.58a10.25,10.25,0,0,1-2.3,6.9,7.61,7.61,0,0,1-6.09,2.68,7.69,7.69,0,0,1-6.13-2.68,10.2,10.2,0,0,1-2.3-6.9Zm2.11.58a9,9,0,0,0,1.67,5.55,5.89,5.89,0,0,0,9.26,0,9.07,9.07,0,0,0,1.67-5.55v-.58a9,9,0,0,0-1.68-5.52,5.85,5.85,0,0,0-9.25,0,9,9,0,0,0-1.67,5.52Z"/><path d="M676.31,377.93h-1.73l-.24-2.69a5.34,5.34,0,0,0-2-1.28,7.62,7.62,0,0,0-2.77-.46,5.18,5.18,0,0,0-3.45,1,3,3,0,0,0-1.15,2.33,2.76,2.76,0,0,0,1,2.18,9.5,9.5,0,0,0,4,1.51,13,13,0,0,1,5.08,2.07,4.25,4.25,0,0,1,1.69,3.56,4.61,4.61,0,0,1-1.92,3.84,8.18,8.18,0,0,1-5.09,1.47,11.9,11.9,0,0,1-3.84-.59,9.08,9.08,0,0,1-3-1.66v-3.83h1.71l.29,2.7a4.87,4.87,0,0,0,2.14,1.22,9.27,9.27,0,0,0,2.7.38,5.81,5.81,0,0,0,3.6-1,3,3,0,0,0,1.32-2.42,3.08,3.08,0,0,0-1.1-2.34,8.84,8.84,0,0,0-4-1.64,13.29,13.29,0,0,1-5-2,4,4,0,0,1-1.64-3.42,4.58,4.58,0,0,1,1.84-3.68,7.49,7.49,0,0,1,4.87-1.5,10.92,10.92,0,0,1,3.83.64,7.75,7.75,0,0,1,2.82,1.73Z"/><path d="M694.32,377.93H692.6l-.25-2.69a5.22,5.22,0,0,0-2-1.28,7.66,7.66,0,0,0-2.77-.46,5.17,5.17,0,0,0-3.45,1,3,3,0,0,0-1.16,2.33,2.77,2.77,0,0,0,1,2.18,9.5,9.5,0,0,0,4,1.51,13.08,13.08,0,0,1,5.08,2.07,4.25,4.25,0,0,1,1.69,3.56,4.6,4.6,0,0,1-1.93,3.84,8.13,8.13,0,0,1-5.08,1.47,12,12,0,0,1-3.85-.59,9.14,9.14,0,0,1-3-1.66v-3.83h1.7l.3,2.7a4.82,4.82,0,0,0,2.14,1.22,9.27,9.27,0,0,0,2.7.38,5.81,5.81,0,0,0,3.6-1,3,3,0,0,0,1.32-2.42,3.08,3.08,0,0,0-1.1-2.34,8.84,8.84,0,0,0-4-1.64,13.16,13.16,0,0,1-5-2,4,4,0,0,1-1.64-3.42,4.58,4.58,0,0,1,1.84-3.68,7.48,7.48,0,0,1,4.87-1.5,10.86,10.86,0,0,1,3.82.64,7.58,7.58,0,0,1,2.82,1.73Z"/><path d="M711.67,391.08c-.14-.65-.24-1.2-.3-1.67a11.16,11.16,0,0,1-.08-1.42,8.39,8.39,0,0,1-2.82,2.47,7.91,7.91,0,0,1-4,1,6.07,6.07,0,0,1-4.33-1.44,5.11,5.11,0,0,1-1.53-3.91,4.83,4.83,0,0,1,2.27-4.18,10.77,10.77,0,0,1,6.15-1.55h4.21v-2.51a4.06,4.06,0,0,0-1.31-3.2,5.38,5.38,0,0,0-3.67-1.16,9.13,9.13,0,0,0-2.89.43,6.71,6.71,0,0,0-2.19,1.17l-.17,2.55h-1.75l0-3.66a10.85,10.85,0,0,1,3.16-1.65,12,12,0,0,1,3.91-.63,7.62,7.62,0,0,1,5.06,1.6,5.62,5.62,0,0,1,1.92,4.59v9.35c0,.38,0,.76,0,1.11a8.87,8.87,0,0,0,.12,1.05l1.9.12v1.55Zm-6.92-1.5a7.63,7.63,0,0,0,4-1.05,6.26,6.26,0,0,0,2.52-2.72V382h-4.24a7.91,7.91,0,0,0-4.58,1.19,3.53,3.53,0,0,0-1.71,3,3.12,3.12,0,0,0,1.06,2.47A4.25,4.25,0,0,0,704.75,389.58Z"/><path d="M732.2,377.93h-1.72l-.25-2.69a5.22,5.22,0,0,0-2-1.28,7.66,7.66,0,0,0-2.77-.46,5.17,5.17,0,0,0-3.45,1,3,3,0,0,0-1.15,2.33,2.76,2.76,0,0,0,1,2.18,9.5,9.5,0,0,0,4,1.51,13.08,13.08,0,0,1,5.08,2.07,4.25,4.25,0,0,1,1.69,3.56,4.61,4.61,0,0,1-1.92,3.84,8.18,8.18,0,0,1-5.09,1.47,11.9,11.9,0,0,1-3.84-.59,9.08,9.08,0,0,1-3-1.66v-3.83h1.7l.3,2.7a4.87,4.87,0,0,0,2.14,1.22,9.27,9.27,0,0,0,2.7.38,5.81,5.81,0,0,0,3.6-1,3,3,0,0,0,1.32-2.42,3.08,3.08,0,0,0-1.1-2.34,8.84,8.84,0,0,0-4-1.64,13.22,13.22,0,0,1-5-2,4,4,0,0,1-1.64-3.42,4.58,4.58,0,0,1,1.84-3.68,7.49,7.49,0,0,1,4.87-1.5,10.82,10.82,0,0,1,3.82.64,7.71,7.71,0,0,1,2.83,1.73Z"/><path d="M753.3,389.67a6.05,6.05,0,0,0,3.69-1.19,3.91,3.91,0,0,0,1.6-3.32h1.86l0,.1a5.21,5.21,0,0,1-2.1,4.41,7.82,7.82,0,0,1-5.09,1.78,7.26,7.26,0,0,1-6-2.66,10.69,10.69,0,0,1-2.12-6.85v-.74a10.64,10.64,0,0,1,2.12-6.82,7.21,7.21,0,0,1,6-2.67,9.71,9.71,0,0,1,4,.82,8,8,0,0,1,3,2.25l.08,4.15h-1.79l-.33-3.37a6.08,6.08,0,0,0-2.1-1.51,7.19,7.19,0,0,0-2.86-.55,5.08,5.08,0,0,0-4.53,2.19,9.68,9.68,0,0,0-1.46,5.51v.74a9.79,9.79,0,0,0,1.45,5.55A5.09,5.09,0,0,0,753.3,389.67Z"/><path d="M769,372.06l.26,3.16v.23a6.76,6.76,0,0,1,2.21-2.75,5.58,5.58,0,0,1,3.31-1,5.63,5.63,0,0,1,1.41.19l-.28,2-1.57-.11a4.8,4.8,0,0,0-3.26,1.12,6.24,6.24,0,0,0-1.82,3.07V389.3l2.87.23v1.55h-7.82v-1.55l2.86-.23V373.85l-2.86-.23v-1.56H769Z"/><path d="M778.73,389.53l2.87-.23V373.85l-2.87-.23v-1.56h5V389.3l2.87.23v1.55h-7.83Zm5-22.92H781.6v-2.95h2.09Z"/><path d="M803.22,391.08c-.14-.65-.24-1.2-.3-1.67a11.16,11.16,0,0,1-.09-1.42,8.35,8.35,0,0,1-2.81,2.47,7.92,7.92,0,0,1-4,1,6.06,6.06,0,0,1-4.32-1.44,5.11,5.11,0,0,1-1.53-3.91,4.83,4.83,0,0,1,2.27-4.18,10.77,10.77,0,0,1,6.15-1.55h4.2v-2.51a4,4,0,0,0-1.31-3.2,5.34,5.34,0,0,0-3.66-1.16,9.09,9.09,0,0,0-2.89.43,6.51,6.51,0,0,0-2.19,1.17l-.18,2.55h-1.74l0-3.66a10.92,10.92,0,0,1,3.15-1.65,12,12,0,0,1,3.92-.63,7.63,7.63,0,0,1,5.06,1.6,5.61,5.61,0,0,1,1.91,4.59v9.35c0,.38,0,.76,0,1.11s.06.71.11,1.05l1.9.12v1.55Zm-6.93-1.5a7.64,7.64,0,0,0,4-1.05,6.18,6.18,0,0,0,2.51-2.72V382H798.6a7.91,7.91,0,0,0-4.58,1.19,3.52,3.52,0,0,0-1.72,3,3.13,3.13,0,0,0,1.07,2.47A4.24,4.24,0,0,0,796.29,389.58Z"/><path d="M809.56,389.53l2.87-.23V373.85l-2.87-.23v-1.56h4.73l.2,3.32a6.7,6.7,0,0,1,2.47-2.71,6.84,6.84,0,0,1,3.68-1,5.86,5.86,0,0,1,4.71,1.89c1.08,1.26,1.62,3.22,1.62,5.9v9.8l2.86.23v1.55H822v-1.55l2.87-.23v-9.79c0-2.18-.41-3.72-1.22-4.62a4.47,4.47,0,0,0-3.48-1.35,5.44,5.44,0,0,0-3.61,1.17,6.46,6.46,0,0,0-2,3.1V389.3l2.86.23v1.55h-7.84Z"/><path d="M841.08,389.67a6,6,0,0,0,3.69-1.19,3.91,3.91,0,0,0,1.6-3.32h1.87l0,.1a5.21,5.21,0,0,1-2.1,4.41,7.8,7.8,0,0,1-5.09,1.78,7.24,7.24,0,0,1-6-2.66,10.64,10.64,0,0,1-2.13-6.85v-.74a10.59,10.59,0,0,1,2.13-6.82,7.2,7.2,0,0,1,6-2.67,9.68,9.68,0,0,1,4,.82,7.86,7.86,0,0,1,3,2.25l.09,4.15h-1.79l-.34-3.37a5.9,5.9,0,0,0-2.1-1.51,7.19,7.19,0,0,0-2.86-.55,5.07,5.07,0,0,0-4.52,2.19,9.69,9.69,0,0,0-1.47,5.51v.74a9.79,9.79,0,0,0,1.46,5.55A5.07,5.07,0,0,0,841.08,389.67Zm.55,1.57-.2,1.12a4.31,4.31,0,0,1,2.25.85,2.67,2.67,0,0,1,.85,2.16,3,3,0,0,1-1.39,2.56,7,7,0,0,1-4,.95l-.13-1.37a6,6,0,0,0,2.65-.53,1.71,1.71,0,0,0,1.08-1.58,1.45,1.45,0,0,0-.72-1.39,6.67,6.67,0,0,0-2.55-.54l.49-2.23Z"/><path d="M865.32,391.08c-.14-.65-.24-1.2-.3-1.67a13.37,13.37,0,0,1-.08-1.42,8.39,8.39,0,0,1-2.82,2.47,7.91,7.91,0,0,1-4,1,6.09,6.09,0,0,1-4.33-1.44,5.11,5.11,0,0,1-1.53-3.91,4.83,4.83,0,0,1,2.27-4.18,10.79,10.79,0,0,1,6.15-1.55h4.21v-2.51a4.06,4.06,0,0,0-1.31-3.2A5.38,5.38,0,0,0,860,373.5a9.13,9.13,0,0,0-2.89.43,6.71,6.71,0,0,0-2.19,1.17l-.17,2.55H853V374a10.85,10.85,0,0,1,3.16-1.65,12,12,0,0,1,3.91-.63,7.62,7.62,0,0,1,5.06,1.6A5.62,5.62,0,0,1,867,377.9v9.35c0,.38,0,.76,0,1.11a8.87,8.87,0,0,0,.12,1.05l1.9.12v1.55Zm-6.92-1.5a7.63,7.63,0,0,0,4-1.05,6.26,6.26,0,0,0,2.52-2.72V382H860.7a7.91,7.91,0,0,0-4.58,1.19,3.53,3.53,0,0,0-1.71,3,3.12,3.12,0,0,0,1.06,2.47A4.25,4.25,0,0,0,858.4,389.58Z"/><path d="M885.85,377.93h-1.72l-.24-2.69a5.34,5.34,0,0,0-2-1.28,7.66,7.66,0,0,0-2.77-.46,5.18,5.18,0,0,0-3.45,1,3,3,0,0,0-1.15,2.33,2.76,2.76,0,0,0,1,2.18,9.5,9.5,0,0,0,4,1.51,13.08,13.08,0,0,1,5.08,2.07,4.25,4.25,0,0,1,1.69,3.56,4.61,4.61,0,0,1-1.92,3.84,8.18,8.18,0,0,1-5.09,1.47,11.9,11.9,0,0,1-3.84-.59,9.08,9.08,0,0,1-3-1.66v-3.83h1.7l.3,2.7a4.87,4.87,0,0,0,2.14,1.22,9.27,9.27,0,0,0,2.7.38,5.81,5.81,0,0,0,3.6-1,3,3,0,0,0,1.32-2.42,3.08,3.08,0,0,0-1.1-2.34,8.84,8.84,0,0,0-4-1.64,13.22,13.22,0,0,1-5-2,4,4,0,0,1-1.64-3.42,4.58,4.58,0,0,1,1.84-3.68,7.49,7.49,0,0,1,4.87-1.5,10.82,10.82,0,0,1,3.82.64,7.71,7.71,0,0,1,2.83,1.73Z"/><path d="M893.32,391.08h-2.4V388.2h2.4Z"/></g></svg>