<svg xmlns="http://www.w3.org/2000/svg" xmlns:xlink="http://www.w3.org/1999/xlink" viewBox="0 0 1124.64 651.26"><defs><style>.cls-1{fill:none;}.cls-2{clip-path:url(#clip-path);}.cls-3{fill:#312235;}.cls-4{fill:#ce7061;}.cls-5{fill:#dd7a7a;}.cls-6{fill:#c6b366;}.cls-7{clip-path:url(#clip-path-2);}.cls-8{fill:#fff3c2;}.cls-9{fill:#fff3c3;}.cls-10{fill:#fff3c4;}.cls-11{fill:#fff4c5;}.cls-12{fill:#fff4c6;}.cls-13{fill:#fff4c7;}.cls-14{fill:#fff4c8;}.cls-15{fill:#fff4c9;}.cls-16{fill:#fff5ca;}.cls-17{fill:#fff5cb;}.cls-18{fill:#fff5cc;}.cls-19{fill:#fff5cd;}.cls-20{fill:#fff5ce;}.cls-21{fill:#fff6cf;}.cls-22{fill:#fff6d0;}.cls-23{fill:#fff6d1;}.cls-24{fill:#fff6d2;}.cls-25{fill:#fff6d3;}.cls-26{fill:#fff7d4;}.cls-27{fill:#fff7d5;}.cls-28{fill:#fff7d6;}.cls-29{fill:#fff7d7;}.cls-30{fill:#fff7d8;}.cls-31{fill:#fff8d9;}.cls-32{fill:#fff8da;}.cls-33{fill:#fff8db;}.cls-34{fill:#fff8dc;}.cls-35{fill:#fff8dd;}.cls-36{fill:#fff9de;}.cls-37{fill:#fff9df;}.cls-38{fill:#fff9e0;}.cls-39{fill:#fff9e2;}.cls-40{fill:#fff9e3;}.cls-41{fill:#fffae4;}.cls-42{fill:#fffae5;}.cls-43{fill:#fffae6;}.cls-44{fill:#fffae7;}.cls-45{fill:#fffae8;}.cls-46{fill:#fffbe9;}.cls-47{fill:#fffbea;}.cls-48{fill:#fffbeb;}.cls-49{fill:#fffbec;}.cls-50{fill:#fffbed;}.cls-51{fill:#fffcee;}.cls-52{fill:#fffcef;}.cls-53{fill:#fffcf0;}.cls-54{fill:#fffcf1;}.cls-55{fill:#fffcf2;}.cls-56{fill:#fffdf3;}.cls-57{fill:#fffdf4;}.cls-58{fill:#fffdf5;}.cls-59{fill:#fffdf6;}.cls-60{fill:#fffdf7;}.cls-61{fill:#fffef8;}.cls-62{fill:#fffef9;}.cls-63{fill:#fffefa;}.cls-64{fill:#fffefb;}.cls-65{fill:#fffefc;}.cls-66{fill:#fffffd;}.cls-67{fill:#fffffe;}.cls-68{fill:#fff;}.cls-69{fill:#ffeda1;}.cls-70{clip-path:url(#clip-path-3);}.cls-71{fill:#3a1e1c;}.cls-72{clip-path:url(#clip-path-4);}.cls-73{fill:#d88268;}.cls-74{fill:#d98369;}.cls-75{fill:#da8469;}.cls-76{fill:#db856a;}.cls-77{fill:#dc866b;}.cls-78{fill:#dd876b;}.cls-79{fill:#de886c;}.cls-80{fill:#df896d;}.cls-81{fill:#e08a6d;}.cls-82{fill:#e18b6e;}.cls-83{fill:#e28c6f;}.cls-84{fill:#e48d70;}.cls-85{fill:#e58d70;}.cls-86{fill:#e68e71;}.cls-87{fill:#e78f72;}.cls-88{fill:#e89072;}.cls-89{fill:#e99173;}.cls-90{fill:#ea9274;}.cls-91{fill:#eb9374;}.cls-92{fill:#ec9475;}.cls-93{fill:#ed9576;}.cls-94{fill:#ee9676;}.cls-95{fill:#ef9777;}.cls-96{fill:#3d201f;}.cls-97{fill:#b5574d;}.cls-98{fill:#b3514e;}.cls-99{fill:#fc999c;}.cls-100{fill:#f9aaaa;}.cls-101{fill:#822222;}.cls-102{fill:#9b3737;}.cls-103{fill:#5b1f3c;}.cls-104{fill:#fffdfd;}</style><clipPath id="clip-path"><path class="cls-1" d="M540.86-384.19c-10.3-18-97.34-31.5-97.34-31.5S301.2-604.45,232.19-598s-80.25,56.59-80.25,56.59l-32.63,66.55C54-440,10-373.83,10-298,10-185.73,106.43-94.74,225.37-94.74c117.57,0,213.12-88.9,215.32-199.34C473-316.39,548.81-370.32,540.86-384.19Z"/></clipPath><clipPath id="clip-path-2"><path class="cls-1" d="M428.87,402.79a192.51,192.51,0,0,0-5.05-43.86c-32.69-73-109.23-124.15-198.45-124.15C106.43,234.78,10,325.78,10,438a193.16,193.16,0,0,0,5,43.87C47.74,554.84,124.28,606,213.5,606,332.44,606,428.87,515,428.87,402.79Z"/></clipPath><clipPath id="clip-path-3"><path class="cls-1" d="M541.08,351.81c-8.62-15-92-32.76-90.33-32.5,3.75,5-153.08-187.41-218.34-181.34-69,6.43-80.25,56.59-80.25,56.59l-32.63,66.55C54.27,296,10.22,362.17,10.22,438c0,112.25,96.43,203.24,215.37,203.24,117.57,0,213.12-88.9,215.32-199.34C473.26,419.61,549,365.68,541.08,351.81Z"/></clipPath><clipPath id="clip-path-4"><path class="cls-1" d="M227.9,319.63l-2.36,9.78s-19.92,12.9-37.91,11.87c-5.34-.3,67.76,42.8,71.74,43s34.38-50.16,34.38-50.16-20.41-3.73-27.17-4-14.47-18.28-14.47-18.28Z"/></clipPath></defs><title>M3-fala3</title><g id="Camada_5" data-name="Camada 5"><g class="cls-2"><path class="cls-3" d="M189.7,293.79s-6.77,14.38-4.3,22.7,17.23,13.73,17.23,13.73,37.07,22.44,68.87,18.45,21.38-11,21.38-11l-55.79-45.94Z"/><path class="cls-3" d="M297.71,290.25s-5.18,10.44-3,17.43,15.57,10.15,15.57,10.15l10.35.39,104,5.36s7.43-21.13-51.76-33.44S297.71,290.25,297.71,290.25Z"/><path class="cls-4" d="M202,32.44l2.37,26.31s-29.12,70.66-9.27,203l-6,40.43S213.13,313.4,230.5,318a72.35,72.35,0,0,0,32,1.2s-39.64-43.48-45.34-49.63L266.82,29.2S238.33-28.3,202,32.44Z"/><path class="cls-4" d="M284.3,30.63s-25.76,70.54,15.46,204.69c0,0,5.91,55.23-2.05,54.93s81.06,6.76,86.9,7-44.4-20.8-48.8-31.06S329.52,65,335.48,47.71a234.2,234.2,0,0,0,8.72-34.22S289.21,19.91,284.3,30.63Z"/><path class="cls-3" d="M172.41-180.28s-17.61,72.57-15.63,92.45,4.68,52.17,34,145.94c0,0,78.25,32.39,150.2-.8,0,0,6.29-1.86,10.91-43.82S364.32-129.1,343.18-174,172.41-180.28,172.41-180.28Z"/></g><path class="cls-5" d="M225.37,234.78c119,0,215.37,91,215.37,203.24S344.32,641.26,225.37,641.26,10,550.27,10,438s96.42-203.24,215.37-203.24m0-10a235.1,235.1,0,0,0-87.54,16.69A225.72,225.72,0,0,0,66.22,287,212.37,212.37,0,0,0,17.8,354.82a203.34,203.34,0,0,0,0,166.4A212.3,212.3,0,0,0,66.22,589a225.89,225.89,0,0,0,71.61,45.57,238.05,238.05,0,0,0,175.08,0A225.94,225.94,0,0,0,384.53,589a212.12,212.12,0,0,0,48.41-67.79,203.34,203.34,0,0,0,0-166.4A212.19,212.19,0,0,0,384.53,287a225.76,225.76,0,0,0-71.62-45.57,235.1,235.1,0,0,0-87.54-16.69Z"/><ellipse class="cls-6" cx="225.37" cy="438.02" rx="215.37" ry="203.24"/><g class="cls-7"><rect class="cls-8" x="10" y="234.78" width="418.87" height="371.24"/><path class="cls-8" d="M429.87,358.41v24.32h5.82a120.91,120.91,0,1,1,0-48.65h-5.82Z"/><circle class="cls-9" cx="316.21" cy="360" r="118.73"/><circle class="cls-10" cx="314.98" cy="361.6" r="116.75"/><circle class="cls-11" cx="313.75" cy="363.19" r="114.77"/><circle class="cls-12" cx="312.53" cy="364.78" r="112.79"/><circle class="cls-13" cx="311.3" cy="366.38" r="110.82"/><circle class="cls-14" cx="310.07" cy="367.97" r="108.84"/><circle class="cls-15" cx="308.85" cy="369.57" r="106.86"/><circle class="cls-16" cx="307.62" cy="371.16" r="104.88"/><circle class="cls-17" cx="306.39" cy="372.76" r="102.9"/><circle class="cls-18" cx="305.17" cy="374.35" r="100.92"/><circle class="cls-19" cx="303.94" cy="375.95" r="98.94"/><circle class="cls-20" cx="302.71" cy="377.54" r="96.96"/><circle class="cls-21" cx="301.48" cy="379.13" r="94.98"/><circle class="cls-22" cx="300.26" cy="380.73" r="93.01"/><circle class="cls-23" cx="299.03" cy="382.32" r="91.03"/><circle class="cls-24" cx="297.8" cy="383.92" r="89.05"/><circle class="cls-25" cx="296.58" cy="385.51" r="87.07"/><circle class="cls-26" cx="295.35" cy="387.11" r="85.09"/><circle class="cls-27" cx="294.12" cy="388.7" r="83.11"/><circle class="cls-28" cx="292.9" cy="390.3" r="81.13"/><circle class="cls-29" cx="291.67" cy="391.89" r="79.15"/><circle class="cls-30" cx="290.44" cy="393.48" r="77.18"/><circle class="cls-31" cx="289.22" cy="395.08" r="75.2"/><circle class="cls-32" cx="287.99" cy="396.67" r="73.22"/><circle class="cls-33" cx="286.76" cy="398.27" r="71.24"/><circle class="cls-34" cx="285.54" cy="399.86" r="69.26"/><circle class="cls-35" cx="284.31" cy="401.46" r="67.28"/><circle class="cls-36" cx="283.08" cy="403.05" r="65.3"/><circle class="cls-37" cx="281.85" cy="404.64" r="63.32"/><circle class="cls-38" cx="280.63" cy="406.24" r="61.34"/><circle class="cls-39" cx="279.4" cy="407.83" r="59.37"/><circle class="cls-40" cx="278.17" cy="409.43" r="57.39"/><circle class="cls-41" cx="276.95" cy="411.02" r="55.41"/><circle class="cls-42" cx="275.72" cy="412.62" r="53.43"/><circle class="cls-43" cx="274.49" cy="414.21" r="51.45"/><circle class="cls-44" cx="273.27" cy="415.81" r="49.47"/><circle class="cls-45" cx="272.04" cy="417.4" r="47.49"/><circle class="cls-46" cx="270.81" cy="418.99" r="45.51"/><circle class="cls-47" cx="269.59" cy="420.59" r="43.53"/><circle class="cls-48" cx="268.36" cy="422.18" r="41.56"/><circle class="cls-49" cx="267.13" cy="423.78" r="39.58"/><circle class="cls-50" cx="265.9" cy="425.37" r="37.6"/><circle class="cls-51" cx="264.68" cy="426.97" r="35.62"/><circle class="cls-52" cx="263.45" cy="428.56" r="33.64"/><circle class="cls-53" cx="262.22" cy="430.16" r="31.66"/><circle class="cls-54" cx="261" cy="431.75" r="29.68"/><circle class="cls-55" cx="259.77" cy="433.34" r="27.7"/><circle class="cls-56" cx="258.54" cy="434.94" r="25.73"/><circle class="cls-57" cx="257.32" cy="436.53" r="23.75"/><circle class="cls-58" cx="256.09" cy="438.13" r="21.77"/><circle class="cls-59" cx="254.86" cy="439.72" r="19.79"/><circle class="cls-60" cx="253.64" cy="441.32" r="17.81"/><circle class="cls-61" cx="252.41" cy="442.91" r="15.83"/><circle class="cls-62" cx="251.18" cy="444.51" r="13.85"/><circle class="cls-63" cx="249.96" cy="446.1" r="11.87"/><circle class="cls-64" cx="248.73" cy="447.69" r="9.89"/><circle class="cls-65" cx="247.5" cy="449.29" r="7.92"/><circle class="cls-66" cx="246.27" cy="450.88" r="5.94"/><circle class="cls-67" cx="245.05" cy="452.48" r="3.96"/><circle class="cls-68" cx="243.82" cy="454.07" r="1.98"/></g><path class="cls-6" d="M787.8,44.22c-174.89,0-318.64,118.13-335.23,269.27L353,353.14s-6.51,2.41-5.85,11.74a12.7,12.7,0,0,0,7.43,10.89L458.82,407C492,541,626.68,641.26,787.8,641.26c186,0,336.84-133.65,336.84-298.52S973.83,44.22,787.8,44.22Z"/><path class="cls-69" d="M787.75,0C612.85,0,469.11,118.13,452.52,269.27L353,308.92s-6.51,2.41-5.86,11.74a12.7,12.7,0,0,0,7.44,10.88l104.21,31.28C492,496.78,626.63,597,787.75,597c186,0,336.84-133.65,336.84-298.52S973.78,0,787.75,0Z"/><g class="cls-70"><path class="cls-68" d="M153.5,564.7s24.48-21.86,24.48-27-14.34-8.35-14.34-8.35l-20.42,29.5,9.58,7.33Z"/><path class="cls-71" d="M176.16,358.82S129.27,227,183.61,159.92c0,0,58.1-39.81,101.53,7s13,178.54,13,178.54Z"/><g class="cls-72"><polygon class="cls-73" points="293.69 311.8 293.71 312.12 182.29 322.49 182.29 311.8 293.69 311.8"/><polygon class="cls-73" points="293.71 312.12 293.75 312.49 293.75 312.93 182.29 323.3 182.29 322.49 293.71 312.12"/><polygon class="cls-74" points="293.75 313.74 182.29 324.11 182.29 323.3 293.75 312.93 293.75 313.74"/><polygon class="cls-75" points="293.75 314.55 182.29 324.93 182.29 324.11 293.75 313.74 293.75 314.55"/><polygon class="cls-76" points="293.75 315.37 182.29 325.74 182.29 324.93 293.75 314.55 293.75 315.37"/><polygon class="cls-77" points="293.75 316.18 182.29 326.55 182.29 325.74 293.75 315.37 293.75 316.18"/><polygon class="cls-78" points="293.75 316.99 182.29 327.37 182.29 326.55 293.75 316.18 293.75 316.99"/><polygon class="cls-79" points="293.75 317.81 182.29 328.18 182.29 327.37 293.75 316.99 293.75 317.81"/><polygon class="cls-80" points="293.75 318.62 182.29 328.99 182.29 328.18 293.75 317.81 293.75 318.62"/><polygon class="cls-81" points="293.75 319.43 182.29 329.81 182.29 328.99 293.75 318.62 293.75 319.43"/><polygon class="cls-82" points="293.75 320.24 182.29 330.62 182.29 329.81 293.75 319.43 293.75 320.24"/><polygon class="cls-83" points="293.75 321.06 182.29 331.43 182.29 330.62 293.75 320.24 293.75 321.06"/><polygon class="cls-84" points="293.75 321.87 182.29 332.24 182.29 331.43 293.75 321.06 293.75 321.87"/><polygon class="cls-85" points="293.75 322.68 182.29 333.06 182.29 332.24 293.75 321.87 293.75 322.68"/><polygon class="cls-86" points="293.75 323.5 182.29 333.87 182.29 333.06 293.75 322.68 293.75 323.5"/><polygon class="cls-87" points="293.75 324.31 182.29 334.68 182.29 333.87 293.75 323.5 293.75 324.31"/><polygon class="cls-88" points="293.75 325.12 182.29 335.5 182.29 334.68 293.75 324.31 293.75 325.12"/><polygon class="cls-89" points="293.75 325.94 182.29 336.31 182.29 335.5 293.75 325.12 293.75 325.94"/><polygon class="cls-90" points="293.75 326.75 182.29 337.12 182.29 336.31 293.75 325.94 293.75 326.75"/><polygon class="cls-91" points="293.75 327.56 182.29 337.94 182.29 337.12 293.75 326.75 293.75 327.56"/><polygon class="cls-92" points="293.75 328.38 182.29 338.75 182.29 337.94 293.75 327.56 293.75 328.38"/><polygon class="cls-93" points="293.75 329.19 182.29 339.56 182.29 338.75 293.75 328.38 293.75 329.19"/><polygon class="cls-94" points="293.75 330 182.29 340.38 182.29 339.56 293.75 329.19 293.75 330"/><polygon class="cls-95" points="293.75 330.82 182.29 341.19 182.29 340.38 293.75 330 293.75 330.82"/><polygon class="cls-95" points="184.32 384.38 182.29 362.56 182.29 341.19 293.75 330.82 293.75 384.38 184.32 384.38"/></g><path class="cls-95" d="M182.57,220.71s-.88,110.78,64.76,101.68c35.49-4.92,47.51-40.41,40.88-70.92a191.55,191.55,0,0,1-3.79-46.76s-4.08-29.37-38.7-20.31-49.64,5.72-49.64,5.72S180.51,193.3,182.57,220.71Z"/><path class="cls-71" d="M177,226.89s25.09-2.78,36.43-7.67l.58-15.39s2.55,9.93,4.85,12.4,22.88-.73,32-3.58,4.81-14.7,4.81-14.7l4.34,11.85s28.57,3.45,28.73-.93-3.86-24.71-12.21-28.74-73.88-4.44-83.08,4.1S177.5,214.69,177,226.89Z"/><ellipse class="cls-96" cx="265.92" cy="242.56" rx="3.92" ry="3.17" transform="translate(-22.23 26.88) rotate(-5.56)"/><ellipse class="cls-96" cx="226.86" cy="246.26" rx="3.92" ry="3.17" transform="translate(-22.77 23.12) rotate(-5.56)"/><path class="cls-97" d="M250.52,277a15.34,15.34,0,0,1-5.17-.8l.35-.94c5.16,1.91,13.88,0,15.56-3.34,1.13-2.27-1.43-4.53-3.78-6-6.89-4.38-5.32-8.94-5.25-9.13l.94.34c0,.16-1.33,4,4.84,7.95,4.89,3.1,4.95,5.68,4.15,7.31C260.69,275.31,255.34,277,250.52,277Z"/><path class="cls-98" d="M264.92,287.05c-18.37,3.57-37.46.15-36.73,1.15,0,0,1.77,10.68,18,10.61C262.94,298.73,264.92,287.05,264.92,287.05Z"/><path class="cls-68" d="M219.35,331.75s22.52,13.66,36.94,11.81c6.84-.88,19-14,19-14l13,129.73-49.8,2.24Z"/><path class="cls-3" d="M172.63,555.72S155,628.29,157,648.17s4.67,52.17,34,145.94c0,0,78.26,32.39,150.2-.8,0,0,6.29-1.86,10.91-43.82S364.54,606.9,343.4,562,172.63,555.72,172.63,555.72Z"/><path class="cls-71" d="M271,224s-6.44-4.41-10.23.1a.9.9,0,0,0-.21,1.24c.5.72,1.31-2.15,10.2-.47C270.78,224.88,271.34,225,271,224Z"/><path class="cls-71" d="M218.7,227.22s5.76-5.29,10.14-1.36a.89.89,0,0,1,.39,1.2c-.4.78-1.61-1.94-10.16,1C219.07,228,218.52,228.24,218.7,227.22Z"/><path class="cls-68" d="M262.59,287.47s-.64,2.4-2,3.09-15.62,1.5-24.11.72c-5.38-.5-6.4-2.5-6.25-3.23C230.25,288.05,249.06,289.75,262.59,287.47Z"/><path class="cls-99" d="M249.35,298.64s-1.22-7.27-18.49-5.37C230.86,293.27,235,299.91,249.35,298.64Z"/><ellipse class="cls-100" cx="280.98" cy="252.77" rx="3.62" ry="6.23" transform="translate(5.76 511.8) rotate(-85.24)"/><ellipse class="cls-100" cx="214.76" cy="262.02" rx="6.23" ry="3.62" transform="translate(-52.56 53.89) rotate(-12.76)"/><path class="cls-101" d="M333.53,438.84l41.91,37.38s10.59,6.85,14.42,7.27S408.13,474,408.13,474l39.67-86.66s-43.31-16.06-43.67-19.67-13.35,48.69-13.35,48.69-1-1.57-6.5-.5c-3,.58-1.8,5.6-7.86-.14-3.75-3.54-4.15-3.13-9.37-10.51-29.22-41.33-56.53-70.83-58.39-72.35s-11-6.17-14.23-4.65-19.18,1.41-19.18,1.41L277.88,445,219.35,331.75s-12.56,4.33-26.08,2.61S157,338,157,338s-10.23,27.71-17.55,29.81-11,20.25-11,20.25c-2.17,2.65-10.18,14.08-19.61,27.72h0s-37.48,45.93-43,49.91-2.65,13.44-2.65,13.44l78.84,83.79L170,527.39c-7.13-.5-43.13-49.77-43.13-49.77,2.54-4.53,2.3-8.26,1.56-10.72,17.3-18.49,42.63-47.18,42.63-47.18.41,4.06,6.47,16.8,16.94,32.51s9.68,42.14,9.68,42.14c-14.94,21.68-25,61.35-25,61.35s1,7.92,26.28,20.54c11,5.51,46.51,16.31,46.51,16.31l39.46-43.28,50.78,35.64s9.12-9.13,8.21-18.27-18.44-63.5-18.44-63.5-1.89-19,.28-24.66S333.53,438.84,333.53,438.84Z"/><path class="cls-73" d="M153.5,564.7s12.2,10.7,14.68,8.23l12.43-35.19S165,549,153.5,564.7Z"/><path class="cls-95" d="M170.85,565.87s5.9-5.86,14.86,2.8,9.68,9.26,9.68,9.26,7,2.88,7.52-4.63c0,0,8.8,1.29,6.83-8.39,0,0,6.13-4.42.71-12,0,0,5.5-1.06,2.23-11.47s-24-20.46-24-20.46-9.94-3.49-10.82,8.07c0,0-7.16.38-4.66,10.38,0,0-4.65,4.2-3.65,8.77s-.11,3.66-.11,3.66S162.76,559.29,170.85,565.87Z"/><path class="cls-97" d="M202.53,573.63c-.11-.14-11.87-13.67-24.48-19.79l.44-.9c12.8,6.21,24.68,19.9,24.8,20Z"/><path class="cls-97" d="M209.39,565.27c-.17-.16-17.14-16.1-29.48-22.75l.48-.88c12.45,6.72,29.52,22.74,29.69,22.9Z"/><path class="cls-97" d="M210.06,553.19c-.15-.18-15.21-17.9-27.54-21.76l.29-.95c12.61,3.94,27.39,21.33,28,22.07Z"/><path class="cls-102" d="M219.35,331.75s-24.15,11.65-37.22,31.43l44.37,12.67s-15.11,14.86-14.79,18.07,66.17,51,66.17,51,33.54-61.51,29.81-64.56-24.28-6.81-24.28-6.81,19.47-27.61,22.86-27.95-28-16.36-31-16.05,2.51,110.28,2.51,110.28l-.15,2.38Z"/><path class="cls-3" d="M277.88,445s9.26,81.81,7,104.33"/><circle class="cls-102" cx="291.62" cy="469.64" r="5.33"/><circle class="cls-102" cx="293.75" cy="507.64" r="5.33"/><path class="cls-103" d="M173.78,402.91l-1-.24a76.65,76.65,0,0,0-11.56-60.85l.82-.57A77.65,77.65,0,0,1,173.78,402.91Z"/><path class="cls-103" d="M329.06,405.1l-1-.09c1.1-12.3-3.36-24.58-7.3-35.41-4.66-12.82-9.95-27.35-20.07-37.88l.72-.69c10.27,10.68,15.59,25.32,20.29,38.23C325.67,380.19,330.18,392.58,329.06,405.1Z"/><path class="cls-103" d="M146.29,375.14a27.4,27.4,0,0,0-3.49-6.94l.82-.57a28.39,28.39,0,0,1,3.62,7.19Z"/><path class="cls-103" d="M136,390.8a34.62,34.62,0,0,0-6.08-.84l0-1a36.56,36.56,0,0,1,6.25.85Z"/><path class="cls-103" d="M334.41,439.12l-1-.12a74.15,74.15,0,0,0,.44-11.92l1,0A73.89,73.89,0,0,1,334.41,439.12Z"/><path class="cls-103" d="M396.36,433.11a73.8,73.8,0,0,0-2.84-11.6l1-.31A74,74,0,0,1,397.34,433Z"/><path class="cls-103" d="M383,434.09l-1-.15a59.23,59.23,0,0,0,.76-10.74l1,0A60.39,60.39,0,0,1,383,434.09Z"/><path class="cls-103" d="M200.39,494.73l-.53-.85a60,60,0,0,1,11.6-5.54l.33.94A59.09,59.09,0,0,0,200.39,494.73Z"/><path class="cls-103" d="M127.74,467.41c-2.32,0-10-.2-12.54-2.75l.71-.71c2.65,2.65,12.36,2.45,12.46,2.45l0,1Z"/><path class="cls-103" d="M118.8,481.06v-1c3.44,0,7.7-2.83,7.74-2.86l.56.83C126.91,478.16,122.54,481.06,118.8,481.06Z"/><path class="cls-104" d="M404.87,372.47a11.23,11.23,0,0,1,3.26-6.3L449,378l-4.26,11.35Z"/><path class="cls-95" d="M413.1,368.67s2.55-5.88,1.16-10.37-5.57-14.17-4.84-19.36a101.16,101.16,0,0,0,1.33-15.6c0-16-1.25-38.25-1.16-38.92.14-1,6.38-.85,6.68,2.46.12,1.26-.27,7.05.61,12.71,1.43,9.25,3.23,20.4,3.23,20.4s12.36-3.55,16.86-.31c0,0,8.21-2.12,9,1.69,0,0,6.59-.47,6.72,2.47a76.37,76.37,0,0,1,.05,9c-.07.53-3.31,5.76-3.68,8.66-.74,5.81,1,11.35-.56,14.66-2.34,5-7.64,8.17-7.83,9.53s-2.62,12.93-3.33,13.46S412.45,373.28,413.1,368.67Z"/><path class="cls-97" d="M431,344.62l-.38,0c-1.67-.14-3.4-1.31-3.24-4.18a17.18,17.18,0,0,1,1.35-4.27c.65-1.63,1.64-4.1,1.24-4.64a13.19,13.19,0,0,1-1.58-4.26c-1.17.7-3.23,1.63-4.27.23l.8-.6c.62.84,2.5-.14,3.5-.85l.71.1.06.09,0,.13a14.13,14.13,0,0,0,1.55,4.56c.74,1-.12,3.13-1.11,5.62a16.75,16.75,0,0,0-1.28,4c-.15,2.63,1.58,3.06,2.32,3.13a3.85,3.85,0,0,0,4.13-3.17,18.17,18.17,0,0,1,.85-2.57,32.9,32.9,0,0,0,1.46-4.53c.18-1.31-.43-10.27-.68-13.62l1-.07c0,.49.9,12.15.67,13.83a33.13,33.13,0,0,1-1.51,4.74c-.36,1-.77,2.09-.8,2.33A4.81,4.81,0,0,1,431,344.62Z"/><path class="cls-97" d="M440.13,344.18l-.3,0a6.62,6.62,0,0,1-4.95-3.46l.91-.42a5.59,5.59,0,0,0,4.18,2.89,1.2,1.2,0,0,0,.88-.26c1.28-1,2.28-4.2,2.95-9.54l.05-.43,1.65-11.64,1,.14-1.7,12.05c-.26,2.1-1.06,8.47-3.33,10.21A2.17,2.17,0,0,1,440.13,344.18Z"/><path class="cls-97" d="M447.39,342.16a4.36,4.36,0,0,1-1.46-.27,4.46,4.46,0,0,1-2.89-2.82l1-.23a3.56,3.56,0,0,0,2.26,2.11,2.43,2.43,0,0,0,2.26-.13c1.28-1,3.14-6.17,3.75-8.1l1,.31c-.24.74-2.34,7.26-4.11,8.59A2.86,2.86,0,0,1,447.39,342.16Z"/><path class="cls-95" d="M421.38,355.71c1.12.16,5.94-3.58,6.86-5.66s1.8-4.73,1.8-4.73,3.7-1.81,5.2-1.54c3.17.58,5.87-2.24,5.84-4,0-2-2.6-4.12-7.44-3,0,0-4.18,1.57-5.11,1.44s-3.64-.13-4.77.72a8.14,8.14,0,0,1-4.51,1.13c-.93-.13-3.36-.13-4.39.64"/><path class="cls-97" d="M421.43,356.21h-.12l.14-1c.79.06,5.42-3.32,6.34-5.37s1.77-4.66,1.78-4.69l.06-.2.19-.09c.39-.19,3.9-1.88,5.51-1.58a4.65,4.65,0,0,0,3.84-1.13,3.58,3.58,0,0,0,1.41-2.38,2.44,2.44,0,0,0-1-1.85c-1.26-1-3.38-1.26-5.8-.72-.65.25-4.29,1.59-5.29,1.45s-3.49-.07-4.4.62a8.56,8.56,0,0,1-4.88,1.22c-1-.14-3.19-.08-4,.55l-.6-.8c1.18-.89,3.76-.88,4.76-.74a7.75,7.75,0,0,0,4.14-1c1.31-1,4.23-.94,5.14-.81a21.68,21.68,0,0,0,4.86-1.42c3.8-.85,5.83.2,6.71.89a3.48,3.48,0,0,1,1.41,2.62,4.48,4.48,0,0,1-1.76,3.17,5.68,5.68,0,0,1-4.67,1.34c-.93-.16-3.3.74-4.7,1.41-.23.66-1,2.83-1.75,4.58C427.76,352.35,423,356.21,421.43,356.21Z"/></g><path d="M585.6,236.59l-2.39.19,7.07,19.51.51,1.71h.1l.51-1.71,7.05-19.51-2.39-.19V235h6.64v1.57l-2,.15-8.9,23.88h-2l-8.92-23.88-2-.15V235h6.64Z"/><path d="M617.65,260.62a14.69,14.69,0,0,1-.3-1.67,11.32,11.32,0,0,1-.09-1.43,8.37,8.37,0,0,1-2.81,2.48,7.94,7.94,0,0,1-4,1,6.06,6.06,0,0,1-4.32-1.44,5.1,5.1,0,0,1-1.53-3.9,4.81,4.81,0,0,1,2.26-4.18,10.82,10.82,0,0,1,6.16-1.55h4.2V247.4a4.06,4.06,0,0,0-1.31-3.2,5.32,5.32,0,0,0-3.67-1.16,9.17,9.17,0,0,0-2.89.43,6.35,6.35,0,0,0-2.19,1.17l-.17,2.55h-1.74l0-3.66a10.79,10.79,0,0,1,3.15-1.65,12,12,0,0,1,3.91-.64,7.65,7.65,0,0,1,5.06,1.6,5.65,5.65,0,0,1,1.92,4.59v9.35c0,.39,0,.76,0,1.12a7.18,7.18,0,0,0,.11,1.05l1.9.12v1.55Zm-6.93-1.5a7.63,7.63,0,0,0,4-1.05,6.28,6.28,0,0,0,2.52-2.73v-3.81H613a7.94,7.94,0,0,0-4.58,1.18,3.54,3.54,0,0,0-1.71,3,3.14,3.14,0,0,0,1.06,2.47A4.26,4.26,0,0,0,610.72,259.12Z"/><path d="M623.92,243.16V241.6h4.73l.19,3.14a6.7,6.7,0,0,1,2.45-2.58,6.94,6.94,0,0,1,3.63-.92,6,6,0,0,1,3.64,1.07,5.83,5.83,0,0,1,2.09,3.24,7.37,7.37,0,0,1,2.46-3.15,6.41,6.41,0,0,1,3.87-1.16,5.76,5.76,0,0,1,4.71,2c1.1,1.34,1.66,3.43,1.66,6.25v9.3l2.86.25v1.55h-7.86v-1.55l2.87-.25v-9.33c0-2.35-.41-4-1.24-5a4.33,4.33,0,0,0-3.45-1.45,4.67,4.67,0,0,0-3.79,1.57,7.53,7.53,0,0,0-1.65,4c0,.09,0,.18,0,.26a2.92,2.92,0,0,1,0,.32v9.63l2.87.23v1.55h-7.84v-1.55l2.86-.23v-9.35q0-3.45-1.25-4.93a4.3,4.3,0,0,0-3.46-1.49,5.23,5.23,0,0,0-3.56,1.14,6,6,0,0,0-1.83,3v11.58l2.86.23v1.55h-7.84v-1.55l2.87-.23V243.39Z"/><path d="M658.64,250.82a10.21,10.21,0,0,1,2.3-6.89,8.28,8.28,0,0,1,12.22,0,10.26,10.26,0,0,1,2.3,6.89v.58a10.26,10.26,0,0,1-2.29,6.9,8.32,8.32,0,0,1-12.23,0,10.16,10.16,0,0,1-2.3-6.9Zm2.11.58a9,9,0,0,0,1.67,5.56,5.89,5.89,0,0,0,9.26,0,9.08,9.08,0,0,0,1.67-5.56v-.58a9,9,0,0,0-1.68-5.52,5.86,5.86,0,0,0-9.25,0,9,9,0,0,0-1.67,5.52Z"/><path d="M692.69,247.47H691l-.24-2.69a5.49,5.49,0,0,0-2-1.29A7.85,7.85,0,0,0,686,243a5.18,5.18,0,0,0-3.45,1,3,3,0,0,0-1.15,2.33,2.77,2.77,0,0,0,1,2.18,9.64,9.64,0,0,0,4,1.51,12.84,12.84,0,0,1,5.08,2.07,4.27,4.27,0,0,1,1.68,3.56,4.61,4.61,0,0,1-1.92,3.84,8.18,8.18,0,0,1-5.09,1.46,11.91,11.91,0,0,1-3.84-.58,9.1,9.1,0,0,1-3-1.67V254.9h1.71l.3,2.71a4.88,4.88,0,0,0,2.13,1.22,9.63,9.63,0,0,0,2.7.38,5.81,5.81,0,0,0,3.6-1,3,3,0,0,0,1.32-2.43,3.09,3.09,0,0,0-1.1-2.34,9,9,0,0,0-4-1.63,13.46,13.46,0,0,1-5-2,4,4,0,0,1-1.64-3.42,4.58,4.58,0,0,1,1.84-3.68,7.5,7.5,0,0,1,4.87-1.51,10.92,10.92,0,0,1,3.83.65,7.62,7.62,0,0,1,2.82,1.73Z"/><path d="M714,261a7.63,7.63,0,0,1-5.94-2.62,9.65,9.65,0,0,1-2.35-6.69v-1a10,10,0,0,1,2.34-6.77,7.29,7.29,0,0,1,5.67-2.69,7,7,0,0,1,5.5,2.22,8.45,8.45,0,0,1,2,5.91v1.79H707.84v.51a8.42,8.42,0,0,0,1.71,5.37,5.44,5.44,0,0,0,4.49,2.17,9,9,0,0,0,3.34-.55,6.57,6.57,0,0,0,2.38-1.56l.89,1.44a7.55,7.55,0,0,1-2.7,1.79A10.63,10.63,0,0,1,714,261ZM713.76,243a5,5,0,0,0-3.91,1.78,7.61,7.61,0,0,0-1.85,4.47l0,.09h11.15v-.52a6.08,6.08,0,0,0-1.46-4.15A5,5,0,0,0,713.76,243Z"/><path d="M724.61,259.07l2.12-.19,6-7.95L727,243.35l-2.15-.19V241.6h6.45v1.56l-2,.11,4.54,6.1,4.55-6.12-2-.09V241.6h6.45v1.56l-2.13.19-5.73,7.58,6,7.95,2.14.19v1.55h-6.43v-1.55l2-.09-4.83-6.47L729.09,259l1.95.09v1.55h-6.43Z"/><path d="M745.42,243.16V241.6H750l.27,3a6.71,6.71,0,0,1,2.47-2.44,6.88,6.88,0,0,1,3.52-.87,6.21,6.21,0,0,1,5.36,2.74,12.36,12.36,0,0,1,1.94,7.28v.37a11,11,0,0,1-1.94,6.81,6.3,6.3,0,0,1-5.32,2.54,7.63,7.63,0,0,1-3.51-.76,6.4,6.4,0,0,1-2.45-2.17v8.08l2.86.23v1.57h-7.82v-1.57l2.87-.23V243.39Zm16.07,8.1a10.9,10.9,0,0,0-1.44-5.9,4.69,4.69,0,0,0-4.22-2.29,5.6,5.6,0,0,0-3.46,1,6.23,6.23,0,0,0-2,2.63v9.14a5.76,5.76,0,0,0,2.08,2.46,6,6,0,0,0,3.4.9,4.75,4.75,0,0,0,4.19-2.08,9.45,9.45,0,0,0,1.44-5.5Z"/><path d="M766.43,234.76v-1.57h5v25.65l2.87.23v1.55h-7.82v-1.55l2.86-.23V235Z"/><path d="M777.22,250.82a10.26,10.26,0,0,1,2.3-6.89,8.28,8.28,0,0,1,12.22,0,10.26,10.26,0,0,1,2.3,6.89v.58a10.21,10.21,0,0,1-2.29,6.9,8.32,8.32,0,0,1-12.23,0,10.21,10.21,0,0,1-2.3-6.9Zm2.11.58A9.08,9.08,0,0,0,781,257a5.89,5.89,0,0,0,9.26,0,9,9,0,0,0,1.67-5.56v-.58a9,9,0,0,0-1.68-5.52,5.86,5.86,0,0,0-9.25,0,9.11,9.11,0,0,0-1.67,5.52Z"/><path d="M802,241.6l.27,3.16V245a6.66,6.66,0,0,1,2.2-2.75,5.6,5.6,0,0,1,3.32-1,4,4,0,0,1,.78.07,4.69,4.69,0,0,1,.62.13l-.28,2-1.56-.11a4.76,4.76,0,0,0-3.27,1.12,6.15,6.15,0,0,0-1.81,3.06v11.36l2.86.23v1.55h-7.82v-1.55l2.86-.23V243.39l-2.86-.23V241.6H802Z"/><path d="M825.07,260.62c-.14-.65-.24-1.21-.3-1.67a11.32,11.32,0,0,1-.09-1.43,8.37,8.37,0,0,1-2.81,2.48,7.91,7.91,0,0,1-4,1,6.06,6.06,0,0,1-4.32-1.44,5.1,5.1,0,0,1-1.53-3.9,4.79,4.79,0,0,1,2.27-4.18,10.77,10.77,0,0,1,6.15-1.55h4.2V247.4a4.06,4.06,0,0,0-1.31-3.2,5.29,5.29,0,0,0-3.66-1.16,9.19,9.19,0,0,0-2.9.43,6.21,6.21,0,0,0-2.18,1.17l-.18,2.55h-1.74l0-3.66a10.92,10.92,0,0,1,3.15-1.65,12,12,0,0,1,3.91-.64,7.7,7.7,0,0,1,5.07,1.6,5.67,5.67,0,0,1,1.91,4.59v9.35c0,.39,0,.76,0,1.12a8.88,8.88,0,0,0,.11,1.05l1.9.12v1.55Zm-6.93-1.5a7.66,7.66,0,0,0,4-1.05,6.26,6.26,0,0,0,2.51-2.73v-3.81h-4.24a7.94,7.94,0,0,0-4.58,1.18,3.54,3.54,0,0,0-1.71,3,3.17,3.17,0,0,0,1.06,2.47A4.26,4.26,0,0,0,818.14,259.12Zm3.57-24.78h2.58l.06.1L820,239h-1.88Z"/><path d="M841.2,250.6h-8.4v-1.78h8.4Z"/><path d="M845.32,234.76v-1.57h4.95v25.65l2.87.23v1.55h-7.82v-1.55l2.86-.23V235Z"/><path d="M856.11,250.82a10.26,10.26,0,0,1,2.3-6.89,8.28,8.28,0,0,1,12.22,0,10.26,10.26,0,0,1,2.3,6.89v.58a10.21,10.21,0,0,1-2.29,6.9,8.32,8.32,0,0,1-12.23,0,10.21,10.21,0,0,1-2.3-6.9Zm2.11.58a9.08,9.08,0,0,0,1.67,5.56,5.47,5.47,0,0,0,4.66,2.25,5.41,5.41,0,0,0,4.6-2.25,9,9,0,0,0,1.67-5.56v-.58a9,9,0,0,0-1.68-5.52,5.86,5.86,0,0,0-9.25,0,9.11,9.11,0,0,0-1.67,5.52Z"/><path d="M879.42,259.77a8,8,0,0,1-.66,3.17,7.61,7.61,0,0,1-1.8,2.61l-1.25-.91a9,9,0,0,0,1.22-2.3,7.8,7.8,0,0,0,.4-2.53v-2.5h2.09Z"/><path d="M906,257.49a6.55,6.55,0,0,1-2.45,2.58,7.11,7.11,0,0,1-3.67.91,5.8,5.8,0,0,1-4.7-2q-1.7-2-1.7-6.33v-9.23l-2.35-.23V241.6h4.45v11.05c0,2.32.39,4,1.18,5a4,4,0,0,0,3.37,1.52,6.23,6.23,0,0,0,3.8-1.06,5.54,5.54,0,0,0,2-2.92V243.39l-2.71-.23V241.6H908v17.24l2.55.23v1.55h-4.4Z"/><path d="M927.46,247.47h-1.72l-.25-2.69a5.44,5.44,0,0,0-2-1.29,7.93,7.93,0,0,0-2.77-.45,5.19,5.19,0,0,0-3.46,1,3,3,0,0,0-1.15,2.33,2.77,2.77,0,0,0,1,2.18,9.77,9.77,0,0,0,4,1.51,12.84,12.84,0,0,1,5.08,2.07,4.28,4.28,0,0,1,1.69,3.56,4.62,4.62,0,0,1-1.93,3.84,8.16,8.16,0,0,1-5.09,1.46,12,12,0,0,1-3.84-.58,9.31,9.31,0,0,1-3-1.67V254.9h1.71l.3,2.71a4.88,4.88,0,0,0,2.13,1.22,9.73,9.73,0,0,0,2.7.38,5.82,5.82,0,0,0,3.61-1,3,3,0,0,0,1.31-2.43,3.08,3.08,0,0,0-1.09-2.34,9.07,9.07,0,0,0-4-1.63,13.33,13.33,0,0,1-5-2,4,4,0,0,1-1.65-3.42,4.59,4.59,0,0,1,1.85-3.68,7.48,7.48,0,0,1,4.87-1.51,10.86,10.86,0,0,1,3.82.65,7.54,7.54,0,0,1,2.82,1.73Z"/><path d="M944.81,260.62c-.14-.65-.24-1.21-.3-1.67a11.32,11.32,0,0,1-.09-1.43,8.37,8.37,0,0,1-2.81,2.48,7.91,7.91,0,0,1-4,1,6.06,6.06,0,0,1-4.32-1.44,5.1,5.1,0,0,1-1.53-3.9,4.82,4.82,0,0,1,2.27-4.18,10.77,10.77,0,0,1,6.15-1.55h4.2V247.4a4,4,0,0,0-1.31-3.2,5.29,5.29,0,0,0-3.66-1.16,9.09,9.09,0,0,0-2.89.43,6.18,6.18,0,0,0-2.19,1.17l-.18,2.55h-1.74l0-3.66a10.92,10.92,0,0,1,3.15-1.65,12,12,0,0,1,3.92-.64,7.69,7.69,0,0,1,5.06,1.6,5.64,5.64,0,0,1,1.91,4.59v9.35c0,.39,0,.76,0,1.12s.06.71.11,1.05l1.9.12v1.55Zm-6.93-1.5a7.64,7.64,0,0,0,4-1.05,6.2,6.2,0,0,0,2.51-2.73v-3.81h-4.23a7.91,7.91,0,0,0-4.58,1.18,3.52,3.52,0,0,0-1.72,3,3.14,3.14,0,0,0,1.07,2.47A4.24,4.24,0,0,0,937.88,259.12Z"/><path d="M951.15,259.07l2.87-.23V243.39l-2.87-.23V241.6h4.73l.2,3.32a6.56,6.56,0,0,1,6.15-3.68,5.86,5.86,0,0,1,4.71,1.89q1.62,1.89,1.62,5.9v9.81l2.86.23v1.55h-7.84v-1.55l2.87-.23v-9.79c0-2.18-.41-3.72-1.22-4.62a4.44,4.44,0,0,0-3.48-1.36,5.44,5.44,0,0,0-3.61,1.17,6.5,6.5,0,0,0-2,3.1v11.5l2.86.23v1.55h-7.84Z"/><path d="M987.77,257.87a6.58,6.58,0,0,1-2.44,2.31,7.4,7.4,0,0,1-3.52.8,6.32,6.32,0,0,1-5.33-2.54,11,11,0,0,1-1.93-6.81v-.37a12.35,12.35,0,0,1,1.93-7.28,6.2,6.2,0,0,1,5.37-2.74,6.77,6.77,0,0,1,3.44.84,7,7,0,0,1,2.43,2.38V235l-2.87-.23v-1.57h5v25.65l2.86.23v1.55H988Zm-11.09-6.24a9.66,9.66,0,0,0,1.38,5.49,4.68,4.68,0,0,0,4.16,2,6,6,0,0,0,3.38-.92,6.15,6.15,0,0,0,2.12-2.51v-9a6.6,6.6,0,0,0-2-2.64,5.5,5.5,0,0,0-3.44-1,4.57,4.57,0,0,0-4.17,2.28,11.1,11.1,0,0,0-1.4,5.91Z"/><path d="M995.93,250.82a10.21,10.21,0,0,1,2.3-6.89,8.28,8.28,0,0,1,12.22,0,10.26,10.26,0,0,1,2.3,6.89v.58a10.21,10.21,0,0,1-2.3,6.9,7.58,7.58,0,0,1-6.09,2.68,7.66,7.66,0,0,1-6.13-2.68,10.16,10.16,0,0,1-2.3-6.9Zm2.11.58a9,9,0,0,0,1.67,5.56,5.89,5.89,0,0,0,9.26,0,9.08,9.08,0,0,0,1.67-5.56v-.58a9,9,0,0,0-1.68-5.52,5.86,5.86,0,0,0-9.25,0,9,9,0,0,0-1.67,5.52Z"/><path d="M579.75,294a10.21,10.21,0,0,1,2.3-6.89,8.28,8.28,0,0,1,12.22,0,10.26,10.26,0,0,1,2.3,6.89v.58a10.21,10.21,0,0,1-2.3,6.9,7.58,7.58,0,0,1-6.09,2.68,7.66,7.66,0,0,1-6.13-2.68,10.16,10.16,0,0,1-2.3-6.9Zm2.11.58a9,9,0,0,0,1.67,5.56,5.89,5.89,0,0,0,9.26,0,9.08,9.08,0,0,0,1.67-5.56V294a9,9,0,0,0-1.68-5.52,5.86,5.86,0,0,0-9.25,0,9,9,0,0,0-1.67,5.52Z"/><path d="M613.8,290.67h-1.73l-.24-2.69a5.49,5.49,0,0,0-2-1.29,7.85,7.85,0,0,0-2.77-.45,5.18,5.18,0,0,0-3.45,1,3,3,0,0,0-1.15,2.33,2.76,2.76,0,0,0,1,2.18,9.65,9.65,0,0,0,4,1.51,12.71,12.71,0,0,1,5.08,2.07,4.25,4.25,0,0,1,1.69,3.56,4.61,4.61,0,0,1-1.92,3.84,8.18,8.18,0,0,1-5.09,1.46,11.91,11.91,0,0,1-3.84-.58,9.1,9.1,0,0,1-3-1.67V298.1H602l.29,2.71a5,5,0,0,0,2.14,1.22,9.63,9.63,0,0,0,2.7.38,5.81,5.81,0,0,0,3.6-1,3,3,0,0,0,1.32-2.43,3.09,3.09,0,0,0-1.1-2.34,9,9,0,0,0-4-1.63,13.46,13.46,0,0,1-5-2,4,4,0,0,1-1.64-3.42,4.58,4.58,0,0,1,1.84-3.68,7.5,7.5,0,0,1,4.87-1.51,10.92,10.92,0,0,1,3.83.65,7.62,7.62,0,0,1,2.82,1.73Z"/><path d="M626.21,286.36V284.8h4.62l.26,2.95a6.69,6.69,0,0,1,6-3.31,6.22,6.22,0,0,1,5.36,2.74,12.35,12.35,0,0,1,1.93,7.28v.37a11,11,0,0,1-1.93,6.81,6.32,6.32,0,0,1-5.33,2.54,7.69,7.69,0,0,1-3.51-.76,6.47,6.47,0,0,1-2.45-2.17v8.08l2.87.23v1.57h-7.82v-1.57l2.86-.23V286.59Zm16.06,8.1a10.9,10.9,0,0,0-1.44-5.9,4.67,4.67,0,0,0-4.22-2.29,5.54,5.54,0,0,0-3.45,1,6.25,6.25,0,0,0-2,2.63v9.14a5.73,5.73,0,0,0,2.09,2.46,6,6,0,0,0,3.4.9,4.76,4.76,0,0,0,4.19-2.08,9.52,9.52,0,0,0,1.43-5.5Z"/><path d="M647.67,302.27l2.86-.23V286.59l-2.86-.23V284.8h5V302l2.86.23v1.55h-7.82Zm5-22.92h-2.1v-3h2.1Z"/><path d="M658.6,278v-1.57h5V302l2.86.23v1.55H658.6v-1.55l2.87-.23V278.19Z"/><path d="M682.88,303.82c-.14-.65-.24-1.21-.3-1.67a11.32,11.32,0,0,1-.09-1.43,8.37,8.37,0,0,1-2.81,2.48,7.91,7.91,0,0,1-4,1,6.06,6.06,0,0,1-4.32-1.44,5.1,5.1,0,0,1-1.53-3.9,4.82,4.82,0,0,1,2.27-4.18,10.77,10.77,0,0,1,6.15-1.55h4.2V290.6a4.06,4.06,0,0,0-1.31-3.2,5.29,5.29,0,0,0-3.66-1.16,9.19,9.19,0,0,0-2.9.43,6.38,6.38,0,0,0-2.18,1.17l-.18,2.55h-1.74l0-3.66a10.92,10.92,0,0,1,3.15-1.65,12,12,0,0,1,3.91-.64,7.7,7.7,0,0,1,5.07,1.6,5.67,5.67,0,0,1,1.91,4.59V300c0,.39,0,.76,0,1.12a8.88,8.88,0,0,0,.11,1l1.9.12v1.55Zm-6.93-1.5a7.64,7.64,0,0,0,4-1.05,6.2,6.2,0,0,0,2.51-2.73v-3.81h-4.24a7.88,7.88,0,0,0-4.57,1.18,3.54,3.54,0,0,0-1.72,3,3.17,3.17,0,0,0,1.06,2.47A4.26,4.26,0,0,0,676,302.32Z"/><path d="M694.16,284.8l.27,3.16v.23a6.74,6.74,0,0,1,2.2-2.75,5.6,5.6,0,0,1,3.32-1,4,4,0,0,1,.78.07,4.69,4.69,0,0,1,.62.13l-.28,2-1.56-.11a4.73,4.73,0,0,0-3.26,1.12,6.09,6.09,0,0,0-1.82,3.06V302l2.86.23v1.55h-7.82v-1.55l2.86-.23V286.59l-2.86-.23V284.8h4.69Z"/><path d="M712.13,304.18a7.63,7.63,0,0,1-5.94-2.62,9.66,9.66,0,0,1-2.36-6.69v-1a9.91,9.91,0,0,1,2.35-6.77,7.26,7.26,0,0,1,5.67-2.69,7,7,0,0,1,5.5,2.22,8.49,8.49,0,0,1,2,5.91v1.79H705.92v.51a8.37,8.37,0,0,0,1.72,5.37,5.44,5.44,0,0,0,4.49,2.17,9,9,0,0,0,3.34-.55,6.62,6.62,0,0,0,2.37-1.56l.9,1.44a7.68,7.68,0,0,1-2.71,1.79A10.61,10.61,0,0,1,712.13,304.18Zm-.28-17.94a5,5,0,0,0-3.91,1.78,7.62,7.62,0,0,0-1.86,4.48l0,.08h11.14v-.52a6.08,6.08,0,0,0-1.46-4.15A5,5,0,0,0,711.85,286.24Z"/><path d="M736.91,290.67h-1.72l-.25-2.69a5.36,5.36,0,0,0-2-1.29,7.89,7.89,0,0,0-2.77-.45,5.17,5.17,0,0,0-3.45,1,3,3,0,0,0-1.16,2.33,2.77,2.77,0,0,0,1,2.18,9.65,9.65,0,0,0,4,1.51,12.78,12.78,0,0,1,5.08,2.07,4.25,4.25,0,0,1,1.69,3.56,4.6,4.6,0,0,1-1.93,3.84,8.13,8.13,0,0,1-5.08,1.46,12,12,0,0,1-3.85-.58,9.16,9.16,0,0,1-3-1.67V298.1h1.7l.3,2.71a4.91,4.91,0,0,0,2.14,1.22,9.63,9.63,0,0,0,2.7.38,5.81,5.81,0,0,0,3.6-1,3,3,0,0,0,1.32-2.43,3.09,3.09,0,0,0-1.1-2.34,9,9,0,0,0-4-1.63,13.32,13.32,0,0,1-5-2,4,4,0,0,1-1.64-3.42,4.58,4.58,0,0,1,1.84-3.68,7.48,7.48,0,0,1,4.87-1.51,10.86,10.86,0,0,1,3.82.65,7.46,7.46,0,0,1,2.82,1.73Z"/><path d="M763.1,301.07a6.51,6.51,0,0,1-2.44,2.31,7.27,7.27,0,0,1-3.51.8,6.32,6.32,0,0,1-5.34-2.54,11.05,11.05,0,0,1-1.92-6.81v-.37a12.43,12.43,0,0,1,1.92-7.28,6.2,6.2,0,0,1,5.37-2.74,6.53,6.53,0,0,1,5.87,3.22v-9.47l-2.86-.23v-1.57h5V302l2.87.23v1.55h-4.75ZM752,294.83a9.66,9.66,0,0,0,1.38,5.49,4.69,4.69,0,0,0,4.16,2,5.92,5.92,0,0,0,3.38-.92,6,6,0,0,0,2.12-2.51v-9a6.52,6.52,0,0,0-2-2.64,5.48,5.48,0,0,0-3.44-1,4.57,4.57,0,0,0-4.17,2.28,11.19,11.19,0,0,0-1.4,5.91Z"/><path d="M771.26,294a10.26,10.26,0,0,1,2.3-6.89,8.28,8.28,0,0,1,12.22,0,10.26,10.26,0,0,1,2.3,6.89v.58a10.21,10.21,0,0,1-2.29,6.9,8.32,8.32,0,0,1-12.23,0,10.21,10.21,0,0,1-2.3-6.9Zm2.11.58a9.08,9.08,0,0,0,1.67,5.56,5.47,5.47,0,0,0,4.66,2.25,5.41,5.41,0,0,0,4.6-2.25A9,9,0,0,0,786,294.6V294a9,9,0,0,0-1.68-5.52,5.86,5.86,0,0,0-9.25,0,9.11,9.11,0,0,0-1.67,5.52Z"/><path d="M811.57,278.22a9,9,0,0,1,6.37,2.11,7.93,7.93,0,0,1,0,11.13,9.09,9.09,0,0,1-6.37,2.09h-5.43v7.56l2.86.49v2.22h-9.19V301.6l2.86-.49V281l-2.86-.5v-2.23h11.76Zm-5.43,12.62h5.43a5.08,5.08,0,0,0,3.89-8.47,5,5,0,0,0-3.89-1.42h-5.43Z"/><path d="M831.45,304.18a8,8,0,0,1-6.32-2.64,9.93,9.93,0,0,1-2.35-6.87v-.77a9.76,9.76,0,0,1,2.42-6.76,7.44,7.44,0,0,1,5.72-2.7,7.23,7.23,0,0,1,5.81,2.32,9.22,9.22,0,0,1,2,6.19v2.16H826.37l-.06.09a7.56,7.56,0,0,0,1.39,4.51,4.43,4.43,0,0,0,3.75,1.77,8.76,8.76,0,0,0,3.08-.5,7.34,7.34,0,0,0,2.3-1.38l1.35,2.25a8.4,8.4,0,0,1-2.7,1.66A10.79,10.79,0,0,1,831.45,304.18Zm-.53-17a3.75,3.75,0,0,0-3,1.47,7,7,0,0,0-1.51,3.68l0,.09h8.77V292a5.28,5.28,0,0,0-1.09-3.41A3.88,3.88,0,0,0,830.92,287.17Z"/><path d="M841.61,301.6l2.86-.49V287.52l-2.86-.49V284.8h6l.24,2.83a7,7,0,0,1,2.38-2.35,6.37,6.37,0,0,1,3.27-.84,6.18,6.18,0,0,1,4.76,1.81c1.12,1.2,1.69,3.05,1.69,5.56v9.3l2.86.49v2.22h-9.19V301.6l2.86-.49v-9.23a5.15,5.15,0,0,0-1-3.57,4,4,0,0,0-3-1.05,4.9,4.9,0,0,0-2.65.72,5.19,5.19,0,0,0-1.83,2v11.16l2.86.49v2.22h-9.19Z"/><path d="M879.84,290.77h-2.6l-.56-2.28a4.82,4.82,0,0,0-1.59-1,6.19,6.19,0,0,0-2.18-.36,4,4,0,0,0-2.74.81,2.52,2.52,0,0,0-.89,1.95,2.15,2.15,0,0,0,.79,1.77,8.06,8.06,0,0,0,3.21,1.16,14.05,14.05,0,0,1,5.37,2.1,4.25,4.25,0,0,1,1.75,3.56,4.9,4.9,0,0,1-2,4.1,8.57,8.57,0,0,1-5.35,1.56,13.67,13.67,0,0,1-3.88-.5,10.05,10.05,0,0,1-3.08-1.45l0-4.34h2.61l.65,2.55a3.57,3.57,0,0,0,1.62.79,8.74,8.74,0,0,0,2.1.25,4.87,4.87,0,0,0,2.89-.75,2.3,2.3,0,0,0,1.05-2,2.36,2.36,0,0,0-.87-1.88,8.18,8.18,0,0,0-3.3-1.28,14,14,0,0,1-5.22-2.06A4.15,4.15,0,0,1,865.8,290a5,5,0,0,1,2-3.95,7.82,7.82,0,0,1,5.14-1.64,12.34,12.34,0,0,1,3.89.57,7.93,7.93,0,0,1,2.86,1.56Z"/><path d="M896.05,303.82c-.11-.52-.19-1-.25-1.39s-.1-.82-.12-1.23a8.41,8.41,0,0,1-2.51,2.13,7.17,7.17,0,0,1-7.72-.6,5.31,5.31,0,0,1-1.55-4.08,4.74,4.74,0,0,1,2.19-4.18,10.65,10.65,0,0,1,6-1.47h3.57v-2.21a3.45,3.45,0,0,0-1-2.65,4.19,4.19,0,0,0-2.94-1,7.23,7.23,0,0,0-2.29.33,4.31,4.31,0,0,0-1.61.92l-.37,2h-2.67v-3.69a10.06,10.06,0,0,1,3.14-1.66,12.35,12.35,0,0,1,4-.63,8,8,0,0,1,5.24,1.66,5.75,5.75,0,0,1,2,4.73V300c0,.25,0,.49,0,.72s0,.47,0,.71l1.4.19v2.22Zm-5.57-2.54a6.16,6.16,0,0,0,3.14-.82,5.08,5.08,0,0,0,2-2v-3.13H892a5.26,5.26,0,0,0-3.37,1,3,3,0,0,0-1.24,2.39,2.37,2.37,0,0,0,.78,1.91A3.57,3.57,0,0,0,890.48,301.28Z"/><path d="M902.78,301.6l2.87-.49V287.52l-2.87-.49V284.8h6l.22,2.47a6.25,6.25,0,0,1,2.36-2.09,7.24,7.24,0,0,1,3.34-.74,5.93,5.93,0,0,1,3.26.88,5.36,5.36,0,0,1,2,2.64,7.16,7.16,0,0,1,2.37-2.57,6.27,6.27,0,0,1,3.45-.95,5.71,5.71,0,0,1,4.6,2q1.7,2,1.69,6v8.67l2.87.49v2.22h-9.22V301.6l2.87-.49v-8.7a6.27,6.27,0,0,0-1-4,3.49,3.49,0,0,0-2.86-1.17,3.64,3.64,0,0,0-2.91,1.27,5.58,5.58,0,0,0-1.28,3.21v9.37l2.87.49v2.22h-9.19V301.6l2.86-.49v-8.7a6.24,6.24,0,0,0-1-3.91,3.46,3.46,0,0,0-2.88-1.24,4.71,4.71,0,0,0-2.6.65,4.13,4.13,0,0,0-1.56,1.83v11.37l2.86.49v2.22h-9.19Z"/><path d="M946,304.18a8,8,0,0,1-6.32-2.64,9.93,9.93,0,0,1-2.35-6.87v-.77a9.76,9.76,0,0,1,2.42-6.76,7.44,7.44,0,0,1,5.72-2.7,7.24,7.24,0,0,1,5.81,2.32,9.22,9.22,0,0,1,2,6.19v2.16H940.91l-.06.09a7.56,7.56,0,0,0,1.39,4.51,4.43,4.43,0,0,0,3.75,1.77,8.76,8.76,0,0,0,3.08-.5,7.34,7.34,0,0,0,2.3-1.38l1.35,2.25a8.4,8.4,0,0,1-2.7,1.66A10.79,10.79,0,0,1,946,304.18Zm-.53-17a3.75,3.75,0,0,0-3,1.47,6.88,6.88,0,0,0-1.51,3.68l0,.09h8.77V292a5.28,5.28,0,0,0-1.09-3.41A3.88,3.88,0,0,0,945.46,287.17Z"/><path d="M956.15,301.6l2.86-.49V287.52l-2.86-.49V284.8h6l.24,2.83a6.94,6.94,0,0,1,2.38-2.35,6.36,6.36,0,0,1,3.26-.84,6.19,6.19,0,0,1,4.77,1.81c1.12,1.2,1.69,3.05,1.69,5.56v9.3l2.86.49v2.22h-9.19V301.6l2.86-.49v-9.23a5.15,5.15,0,0,0-1-3.57,4,4,0,0,0-3-1.05,4.9,4.9,0,0,0-2.65.72,5.12,5.12,0,0,0-1.83,2v11.16l2.86.49v2.22h-9.19Z"/><path d="M985.87,280.21v4.59h3.61v2.56h-3.61v11.55a2.57,2.57,0,0,0,.56,1.88,2,2,0,0,0,1.46.55,8,8,0,0,0,1-.08c.38-.05.7-.11,1-.17l.47,2.37a4.21,4.21,0,0,1-1.44.52,8.7,8.7,0,0,1-1.9.2,4.47,4.47,0,0,1-3.35-1.27,5.5,5.5,0,0,1-1.25-4V287.36h-3V284.8h3v-4.59Z"/><path d="M992.67,294.13a10.49,10.49,0,0,1,2.29-6.95,8.44,8.44,0,0,1,12.44,0,10.44,10.44,0,0,1,2.29,7v.39a10.41,10.41,0,0,1-2.29,7,8.5,8.5,0,0,1-12.44,0,10.45,10.45,0,0,1-2.29-7Zm3.47.39a9,9,0,0,0,1.27,5,4.58,4.58,0,0,0,7.53,0,8.94,8.94,0,0,0,1.29-5v-.39a8.94,8.94,0,0,0-1.29-5,4.57,4.57,0,0,0-7.54,0,9.1,9.1,0,0,0-1.26,5Z"/><path d="M599.14,329.28h-2.45l-.65-3.62A6.83,6.83,0,0,0,594,324.3a7.47,7.47,0,0,0-2.94-.52,7.16,7.16,0,0,0-6.13,2.89,12,12,0,0,0-2.15,7.34v.4a12.25,12.25,0,0,0,2.1,7.36,6.8,6.8,0,0,0,5.83,2.91,8.59,8.59,0,0,0,3.16-.55,6.07,6.07,0,0,0,2.2-1.33l.65-3.62h2.45v4.55a9.67,9.67,0,0,1-3.33,2.54,11.27,11.27,0,0,1-5.13,1.11,10.34,10.34,0,0,1-8.19-3.69,13.67,13.67,0,0,1-3.2-9.28V334a13.79,13.79,0,0,1,3.15-9.3,10.29,10.29,0,0,1,8.24-3.69,11,11,0,0,1,5.13,1.14,9.79,9.79,0,0,1,3.33,2.54Z"/><path d="M602.84,337.33a10.49,10.49,0,0,1,2.29-6.95,8.44,8.44,0,0,1,12.44,0,10.44,10.44,0,0,1,2.29,7v.39a10.41,10.41,0,0,1-2.29,7,8.5,8.5,0,0,1-12.44,0,10.45,10.45,0,0,1-2.29-6.95Zm3.47.39a9,9,0,0,0,1.27,5,4.58,4.58,0,0,0,7.53,0,8.94,8.94,0,0,0,1.29-5v-.39a8.94,8.94,0,0,0-1.29-5,4.57,4.57,0,0,0-7.54,0,9.1,9.1,0,0,0-1.26,5Z"/><path d="M622.34,344.8l2.86-.49V330.72l-2.86-.49V328h6l.23,2.47a6.33,6.33,0,0,1,2.36-2.09,7.24,7.24,0,0,1,3.34-.74,6,6,0,0,1,3.26.88,5.36,5.36,0,0,1,2,2.64,7.16,7.16,0,0,1,2.37-2.57,6.24,6.24,0,0,1,3.45-.95,5.71,5.71,0,0,1,4.6,2q1.69,2,1.69,6v8.67l2.86.49V347h-9.21V344.8l2.87-.49v-8.7a6.27,6.27,0,0,0-1-4,3.49,3.49,0,0,0-2.86-1.17,3.64,3.64,0,0,0-2.91,1.27,5.52,5.52,0,0,0-1.28,3.21v9.37l2.87.49V347h-9.2V344.8l2.87-.49v-8.7a6.24,6.24,0,0,0-1-3.91,3.47,3.47,0,0,0-2.88-1.24,4.71,4.71,0,0,0-2.6.65,4.13,4.13,0,0,0-1.56,1.83v11.37l2.86.49V347h-9.19Z"/><path d="M656.62,352.1l2.86-.5V330.72l-2.86-.49V328h5.83l.32,2.32a6.37,6.37,0,0,1,2.31-2,6.89,6.89,0,0,1,3.15-.69,6.33,6.33,0,0,1,5.5,2.81,12.74,12.74,0,0,1,2,7.41v.37a10.48,10.48,0,0,1-2,6.63,6.5,6.5,0,0,1-5.43,2.52,7.64,7.64,0,0,1-3.09-.58,6.11,6.11,0,0,1-2.26-1.75v6.55l2.87.5v2.23h-9.19Zm15.59-14.24a10,10,0,0,0-1.27-5.33,4.13,4.13,0,0,0-3.76-2.07,4.59,4.59,0,0,0-2.53.67,5.08,5.08,0,0,0-1.71,1.82v9.27a4.53,4.53,0,0,0,4.28,2.46,4.25,4.25,0,0,0,3.72-1.8,7.82,7.82,0,0,0,1.27-4.65Z"/><path d="M692.44,344.2a6.46,6.46,0,0,1-2.31,2.36,6.34,6.34,0,0,1-3.26.82,6.11,6.11,0,0,1-4.84-2q-1.74-2-1.74-6.19v-8.49l-2.18-.49V328h5.65v11.25c0,2,.3,3.42.89,4.18a3.34,3.34,0,0,0,2.8,1.14,5.79,5.79,0,0,0,3-.74,4.73,4.73,0,0,0,1.82-2.12v-11l-2.55-.49V328h6v16.31l2.18.49V347h-5.29Z"/><path d="M706.75,323.41V328h3.6v2.56h-3.6v11.55a2.58,2.58,0,0,0,.55,1.88,2,2,0,0,0,1.47.55,8.13,8.13,0,0,0,1-.08c.38,0,.7-.11,1-.17l.47,2.37a4.16,4.16,0,0,1-1.44.52,8.76,8.76,0,0,1-1.9.2,4.49,4.49,0,0,1-3.36-1.27,5.54,5.54,0,0,1-1.24-4V330.56h-3V328h3v-4.59Z"/><path d="M726.3,347c-.11-.52-.19-1-.25-1.39s-.1-.82-.12-1.23a8.54,8.54,0,0,1-2.51,2.13,7.18,7.18,0,0,1-7.72-.6,5.27,5.27,0,0,1-1.55-4.08,4.74,4.74,0,0,1,2.19-4.18,10.65,10.65,0,0,1,6-1.46h3.57V334a3.44,3.44,0,0,0-1.06-2.65,4.15,4.15,0,0,0-2.93-1,7.34,7.34,0,0,0-2.3.33,4.35,4.35,0,0,0-1.6.92l-.37,2H715v-3.69a10.06,10.06,0,0,1,3.14-1.66,12.35,12.35,0,0,1,4-.63,8,8,0,0,1,5.24,1.66,5.78,5.78,0,0,1,2,4.73v9.15c0,.25,0,.49,0,.72s0,.47,0,.71l1.41.19V347Zm-5.58-2.54a6.17,6.17,0,0,0,3.15-.82,5.08,5.08,0,0,0,2-2v-3.13h-3.69a5.26,5.26,0,0,0-3.37,1,2.94,2.94,0,0,0-1.24,2.39,2.37,2.37,0,0,0,.78,1.91A3.56,3.56,0,0,0,720.72,344.48Z"/><path d="M742.26,344.68a4.67,4.67,0,0,0,3-1.07A3.23,3.23,0,0,0,746.6,341h3.11l0,.11a5.34,5.34,0,0,1-2.18,4.37,8,8,0,0,1-5.3,1.9,7.68,7.68,0,0,1-6.34-2.7,10.47,10.47,0,0,1-2.19-6.8v-.74a10.4,10.4,0,0,1,2.2-6.78,7.66,7.66,0,0,1,6.33-2.72,10.66,10.66,0,0,1,4.1.76,8.42,8.42,0,0,1,3,2.07l.15,4.22h-2.76l-.75-3a4.5,4.5,0,0,0-1.58-1,6,6,0,0,0-2.18-.37,4.17,4.17,0,0,0-3.9,2,9.24,9.24,0,0,0-1.17,4.81v.74a9.4,9.4,0,0,0,1.16,4.86A4.21,4.21,0,0,0,742.26,344.68Z"/><path d="M753.12,344.8l2.86-.49V330.72l-2.86-.49V328h6.33v16.31l2.86.49V347h-9.19Zm6.33-21.67H756v-3.54h3.47Z"/><path d="M765,337.33a10.48,10.48,0,0,1,2.28-6.95,8.44,8.44,0,0,1,12.44,0,10.44,10.44,0,0,1,2.29,7v.39a10.45,10.45,0,0,1-2.28,7,8.52,8.52,0,0,1-12.45,0,10.44,10.44,0,0,1-2.28-6.95Zm3.46.39a9,9,0,0,0,1.27,5,4.59,4.59,0,0,0,7.54,0,9,9,0,0,0,1.28-5v-.39a9,9,0,0,0-1.28-5,4.22,4.22,0,0,0-3.78-2,4.15,4.15,0,0,0-3.76,2,9,9,0,0,0-1.27,5Z"/><path d="M784.64,344.8l2.86-.49V330.72l-2.86-.49V328h6l.24,2.83a7,7,0,0,1,2.38-2.35,6.36,6.36,0,0,1,3.26-.84,6.22,6.22,0,0,1,4.77,1.81c1.12,1.2,1.69,3.05,1.69,5.56v9.3l2.86.49V347h-9.19V344.8l2.86-.49v-9.23a5.15,5.15,0,0,0-1-3.57,4,4,0,0,0-3-1.05,4.9,4.9,0,0,0-2.65.72,5.12,5.12,0,0,0-1.83,2v11.16l2.86.49V347h-9.19Z"/><path d="M820.73,347c-.11-.52-.19-1-.25-1.39s-.1-.82-.12-1.23a8.54,8.54,0,0,1-2.51,2.13,7.18,7.18,0,0,1-7.72-.6,5.27,5.27,0,0,1-1.55-4.08,4.74,4.74,0,0,1,2.19-4.18,10.65,10.65,0,0,1,6-1.46h3.57V334a3.44,3.44,0,0,0-1.06-2.65,4.15,4.15,0,0,0-2.93-1,7.34,7.34,0,0,0-2.3.33,4.35,4.35,0,0,0-1.6.92l-.37,2H809.4v-3.69a10.23,10.23,0,0,1,3.15-1.66,12.35,12.35,0,0,1,4-.63,8,8,0,0,1,5.24,1.66,5.78,5.78,0,0,1,2,4.73v9.15c0,.25,0,.49,0,.72s0,.47,0,.71l1.41.19V347Zm-5.58-2.54a6.17,6.17,0,0,0,3.15-.82,5.08,5.08,0,0,0,2-2v-3.13h-3.69a5.26,5.26,0,0,0-3.37,1,2.94,2.94,0,0,0-1.24,2.39,2.39,2.39,0,0,0,.77,1.91A3.61,3.61,0,0,0,815.15,344.48Z"/><path d="M827.67,321.83v-2.24H834v24.72l2.86.49V347h-9.19V344.8l2.86-.49v-22Z"/><path d="M842.93,347h-2.5v-2.94h2.5Zm-.21-8.41h-2.1V321.42h2.1Z"/></g></svg>