<?xml version="1.0" encoding="utf-8"?>
<!-- Generator: Adobe Illustrator 16.0.0, SVG Export Plug-In . SVG Version: 6.00 Build 0)  -->
<!DOCTYPE svg PUBLIC "-//W3C//DTD SVG 1.1//EN" "http://www.w3.org/Graphics/SVG/1.1/DTD/svg11.dtd">
<svg version="1.1" id="Camada_1" xmlns="http://www.w3.org/2000/svg" xmlns:xlink="http://www.w3.org/1999/xlink" x="0px" y="0px"
	 width="841.89px" height="595.28px" viewBox="0 0 841.89 595.28" enable-background="new 0 0 841.89 595.28" xml:space="preserve">
<rect fill="#DDAF53" width="841.89" height="595.28"/>
<g>
	<path fill="#F9FBF6" d="M163.292,568.69c0,18.783-15.228,34.013-34.013,34.013c-18.782,0-34.011-15.229-34.011-34.013
		c0-18.785,15.229-34.013,34.011-34.013C148.064,534.678,163.292,549.905,163.292,568.69"/>
	<path fill="#F9FBF7" d="M161.814,568.69c0,17.967-14.566,32.533-32.535,32.533c-17.965,0-32.531-14.566-32.531-32.533
		c0-17.969,14.566-32.533,32.531-32.533C147.248,536.157,161.814,550.722,161.814,568.69"/>
	<path fill="#F9FCF7" d="M160.335,568.69c0,17.149-13.903,31.053-31.054,31.053c-17.152,0-31.055-13.903-31.055-31.053
		c0-17.15,13.903-31.054,31.055-31.054C146.432,537.637,160.335,551.54,160.335,568.69"/>
	<path fill="#F9FCF8" d="M158.857,568.69c0,16.334-13.242,29.575-29.576,29.575c-16.335,0-29.577-13.241-29.577-29.575
		s13.242-29.575,29.577-29.575C145.615,539.115,158.857,552.356,158.857,568.69"/>
	<path fill="#FBFCF8" d="M157.378,568.69c0,15.516-12.579,28.098-28.099,28.098c-15.516,0-28.095-12.582-28.095-28.098
		c0-15.519,12.579-28.098,28.095-28.098C144.799,540.593,157.378,553.172,157.378,568.69"/>
	<path fill="#FBFDFA" d="M155.899,568.69c0,14.701-11.917,26.617-26.618,26.617c-14.701,0-26.62-11.916-26.62-26.617
		s11.918-26.617,26.62-26.617C143.981,542.073,155.899,553.989,155.899,568.69"/>
	<path fill="#FBFDFA" d="M154.419,568.69c0,13.883-11.255,25.139-25.138,25.139c-13.884,0-25.14-11.256-25.14-25.139
		c0-13.885,11.255-25.139,25.14-25.139C143.165,543.552,154.419,554.806,154.419,568.69"/>
	<path fill="#FCFDFA" d="M152.942,568.69c0,13.067-10.594,23.66-23.663,23.66c-13.066,0-23.66-10.593-23.66-23.66
		c0-13.068,10.593-23.661,23.66-23.661C142.348,545.029,152.942,555.622,152.942,568.69"/>
	<path fill="#FCFDFA" d="M151.462,568.69c0,12.249-9.93,22.181-22.181,22.181c-12.251,0-22.183-9.932-22.183-22.181
		c0-12.252,9.931-22.181,22.183-22.181C141.532,546.51,151.462,556.438,151.462,568.69"/>
	<path fill="#FDFEFC" d="M149.985,568.69c0,11.434-9.27,20.702-20.704,20.702c-11.435,0-20.703-9.269-20.703-20.702
		c0-11.435,9.269-20.703,20.703-20.703C140.715,547.987,149.985,557.256,149.985,568.69"/>
	<path fill="#FDFEFC" d="M148.505,568.69c0,10.615-8.607,19.224-19.226,19.224c-10.616,0-19.223-8.608-19.223-19.224
		s8.607-19.225,19.223-19.225C139.897,549.466,148.505,558.075,148.505,568.69"/>
	<path fill="#FDFEFC" d="M147.026,568.69c0,9.801-7.947,17.746-17.747,17.746c-9.799,0-17.744-7.945-17.744-17.746
		s7.945-17.747,17.744-17.747C139.08,550.943,147.026,558.89,147.026,568.69"/>
	<path fill="#FEFEFC" d="M145.547,568.69c0,8.982-7.284,16.267-16.266,16.267c-8.985,0-16.267-7.284-16.267-16.267
		c0-8.983,7.282-16.267,16.267-16.267C138.263,552.424,145.547,559.707,145.547,568.69"/>
	<path fill="#FEFEFE" d="M144.068,568.69c0,8.166-6.621,14.788-14.787,14.788c-8.168,0-14.789-6.622-14.789-14.788
		c0-8.167,6.621-14.788,14.789-14.788C137.448,553.902,144.068,560.523,144.068,568.69"/>
	<path fill="#FEFEFE" d="M142.591,568.69c0,7.349-5.959,13.308-13.312,13.308c-7.349,0-13.308-5.959-13.308-13.308
		c0-7.35,5.958-13.31,13.308-13.31C136.631,555.381,142.591,561.341,142.591,568.69"/>
	<path fill="#FEFFFE" d="M141.111,568.69c0,6.533-5.297,11.829-11.83,11.829c-6.534,0-11.831-5.296-11.831-11.829
		s5.297-11.829,11.831-11.829C135.814,556.861,141.111,562.157,141.111,568.69"/>
	<path fill="#FFFFFE" d="M139.632,568.69c0,5.716-4.636,10.353-10.351,10.353c-5.718,0-10.352-4.637-10.352-10.353
		s4.633-10.352,10.352-10.352C134.996,558.339,139.632,562.975,139.632,568.69"/>
	<path fill="#FFFFFE" d="M138.153,568.69c0,4.899-3.974,8.872-8.874,8.872c-4.899,0-8.872-3.973-8.872-8.872
		c0-4.9,3.973-8.874,8.872-8.874C134.18,559.816,138.153,563.79,138.153,568.69"/>
	<path fill="#FFFFFE" d="M136.675,568.69c0,4.082-3.311,7.393-7.394,7.393c-4.084,0-7.395-3.311-7.395-7.393
		s3.311-7.393,7.395-7.393C133.364,561.298,136.675,564.608,136.675,568.69"/>
	<path fill="#FFFFFF" d="M135.197,568.69c0,3.267-2.649,5.915-5.916,5.915c-3.267,0-5.916-2.648-5.916-5.915
		s2.648-5.916,5.916-5.916C132.548,562.774,135.197,565.424,135.197,568.69"/>
	<path fill="#FFFFFF" d="M133.717,568.69c0,2.449-1.986,4.437-4.436,4.437c-2.451,0-4.437-1.987-4.437-4.437
		s1.986-4.437,4.437-4.437C131.731,564.254,133.717,566.241,133.717,568.69"/>
	<path fill="#FFFFFF" d="M132.238,568.69c0,1.633-1.325,2.957-2.958,2.957s-2.956-1.324-2.956-2.957s1.322-2.958,2.956-2.958
		S132.238,567.058,132.238,568.69"/>
	<path fill="#FFFFFF" d="M130.76,568.69c0,0.816-0.664,1.478-1.479,1.478c-0.818,0-1.479-0.661-1.479-1.478s0.661-1.479,1.479-1.479
		C130.096,567.211,130.76,567.874,130.76,568.69"/>
	<path fill="#FFFFFF" d="M49.033,779.666c0,0,20.024-18.235,20.024-22.489c0-4.25-11.734-6.961-11.734-6.961l-16.697,24.609
		l7.837,6.117L49.033,779.666z"/>
	<path fill="#3A1E1C" d="M67.569,607.918c0,0-38.355-109.985,6.086-165.93c0,0,47.52-33.215,83.034,5.83
		c35.514,39.044,10.62,148.942,10.62,148.942L67.569,607.918z"/>
</g>
<g>
	<defs>
		<path id="SVGID_1_" d="M109.883,575.222l-1.929,8.162c0,0-16.291,10.758-31.008,9.901c-4.37-0.255,55.415,35.702,58.671,35.827
			c3.255,0.125,28.119-41.841,28.119-41.841s-16.689-3.115-22.225-3.327c-5.533-0.211-11.828-15.25-11.828-15.25L109.883,575.222z"
			/>
	</defs>
	<clipPath id="SVGID_2_">
		<use xlink:href="#SVGID_1_"  overflow="visible"/>
	</clipPath>
	<polygon clip-path="url(#SVGID_2_)" fill="#D68169" points="163.736,568.951 72.577,577.605 72.577,568.694 163.736,568.694 	"/>
	<polygon clip-path="url(#SVGID_2_)" fill="#D68169" points="163.736,569.629 72.577,578.283 72.577,577.606 163.736,568.953 	"/>
	<polygon clip-path="url(#SVGID_2_)" fill="#D78169" points="163.736,570.309 72.577,578.964 72.577,578.284 163.736,569.631 	"/>
	<polygon clip-path="url(#SVGID_2_)" fill="#D88369" points="163.736,570.986 72.577,579.641 72.577,578.964 163.736,570.309 	"/>
	<polygon clip-path="url(#SVGID_2_)" fill="#D9846A" points="163.736,571.665 72.577,580.317 72.577,579.641 163.736,570.986 	"/>
	<polygon clip-path="url(#SVGID_2_)" fill="#DA856B" points="163.736,572.343 72.577,580.996 72.577,580.319 163.736,571.665 	"/>
	<polygon clip-path="url(#SVGID_2_)" fill="#DB866C" points="163.736,573.021 72.577,581.677 72.577,580.997 163.736,572.344 	"/>
	<polygon clip-path="url(#SVGID_2_)" fill="#DC866C" points="163.736,573.701 72.577,582.354 72.577,581.677 163.736,573.021 	"/>
	<polygon clip-path="url(#SVGID_2_)" fill="#DD876D" points="163.736,574.379 72.577,583.032 72.577,582.354 163.736,573.702 	"/>
	<polygon clip-path="url(#SVGID_2_)" fill="#DE876D" points="163.736,575.058 72.577,583.711 72.577,583.034 163.736,574.38 	"/>
	<polygon clip-path="url(#SVGID_2_)" fill="#DF896F" points="163.736,575.735 72.577,584.39 72.577,583.711 163.736,575.058 	"/>
	<polygon clip-path="url(#SVGID_2_)" fill="#E08A70" points="163.736,576.414 72.577,585.067 72.577,584.39 163.736,575.735 	"/>
	<polygon clip-path="url(#SVGID_2_)" fill="#E28B71" points="163.736,577.092 72.577,585.746 72.577,585.067 163.736,576.416 	"/>
	<polygon clip-path="url(#SVGID_2_)" fill="#E38C70" points="163.736,577.771 72.577,586.423 72.577,585.747 163.736,577.094 	"/>
	<polygon clip-path="url(#SVGID_2_)" fill="#E38D71" points="163.736,578.448 72.577,587.104 72.577,586.424 163.736,577.771 	"/>
	<polygon clip-path="url(#SVGID_2_)" fill="#E48E72" points="163.736,579.128 72.577,587.781 72.577,587.104 163.736,578.448 	"/>
	<polygon clip-path="url(#SVGID_2_)" fill="#E58F73" points="163.736,579.806 72.577,588.459 72.577,587.781 163.736,579.129 	"/>
	<polygon clip-path="url(#SVGID_2_)" fill="#E68F73" points="163.736,580.484 72.577,589.137 72.577,588.46 163.736,579.807 	"/>
	<polygon clip-path="url(#SVGID_2_)" fill="#E78F74" points="163.736,581.163 72.577,589.816 72.577,589.138 163.736,580.484 	"/>
	<polygon clip-path="url(#SVGID_2_)" fill="#E89074" points="163.736,581.841 72.577,590.495 72.577,589.816 163.736,581.163 	"/>
	<polygon clip-path="url(#SVGID_2_)" fill="#E99175" points="163.736,582.52 72.577,591.173 72.577,590.495 163.736,581.843 	"/>
	<polygon clip-path="url(#SVGID_2_)" fill="#EA9276" points="163.736,583.198 72.577,591.851 72.577,591.174 163.736,582.521 	"/>
	<polygon clip-path="url(#SVGID_2_)" fill="#EA9376" points="163.736,583.876 72.577,592.53 72.577,591.853 163.736,583.198 	"/>
	<polygon clip-path="url(#SVGID_2_)" fill="#EC9477" points="163.736,584.556 72.577,593.208 72.577,592.53 163.736,583.876 	"/>
	<polygon clip-path="url(#SVGID_2_)" fill="#EC9477" points="72.908,629.237 72.577,625.598 72.577,593.208 163.736,584.556 
		163.736,629.237 	"/>
</g>
<g>
	<defs>
		<rect id="SVGID_3_" x="-50.791" y="376.311" width="360.141" height="384.759"/>
	</defs>
	<clipPath id="SVGID_4_">
		<use xlink:href="#SVGID_3_"  overflow="visible"/>
	</clipPath>
	<path clip-path="url(#SVGID_4_)" fill="#EC9477" d="M72.813,492.698c0,0-0.726,92.415,52.961,84.826
		c29.025-4.105,38.857-33.711,33.431-59.159c-4.271-20.024-3.098-39.016-3.098-39.016s-3.337-24.503-31.652-16.937
		c-28.314,7.564-40.601,4.768-40.601,4.768S71.124,469.833,72.813,492.698"/>
	<path clip-path="url(#SVGID_4_)" fill="#3A1E1C" d="M68.29,497.857c0,0,20.514-2.32,29.792-6.4l0.472-12.84
		c0,0,2.086,8.282,3.967,10.351c1.881,2.064,18.714-0.618,26.191-2.992c7.476-2.373,3.926-12.266,3.926-12.266l3.549,9.893
		c0,0,23.368,2.872,23.502-0.781c0.133-3.651-3.158-20.613-9.987-23.978c-6.833-3.366-60.419-3.7-67.943,3.421
		C74.236,469.385,68.664,487.675,68.29,497.857"/>
	<path clip-path="url(#SVGID_4_)" fill="#3E211F" d="M145.479,507.903c1.761-0.175,3.077-1.495,2.938-2.951
		c-0.139-1.454-1.68-2.491-3.44-2.317c-1.762,0.176-3.077,1.496-2.938,2.951C142.179,507.04,143.719,508.079,145.479,507.903"/>
	<path clip-path="url(#SVGID_4_)" fill="#3E211F" d="M114.881,510.556c1.762-0.173,3.078-1.495,2.939-2.949
		c-0.139-1.457-1.679-2.493-3.44-2.317c-1.762,0.174-3.077,1.495-2.938,2.949C111.582,509.692,113.121,510.731,114.881,510.556"/>
	<path clip-path="url(#SVGID_4_)" fill="#B3584E" d="M128.44,540.01c-1.604,0-3.145-0.229-4.399-0.704l0.514-1.415
		c4.007,1.515,11.028,0.022,12.312-2.617c0.813-1.673-1.168-3.42-2.974-4.59c-5.856-3.798-4.483-7.848-4.421-8.018l1.388,0.519
		c-0.038,0.118-0.967,3.118,3.827,6.226c4.199,2.722,4.224,5.055,3.506,6.533C136.921,538.558,132.481,540.01,128.44,540.01"/>
	<path clip-path="url(#SVGID_4_)" fill="#FFFFFF" d="M102.892,585.334c0,0,18.416,11.394,30.207,9.851
		c5.596-0.732,15.502-11.656,15.502-11.656l10.604,108.23l-40.725,1.868L102.892,585.334z"/>
	<path clip-path="url(#SVGID_4_)" fill="#3A1E1C" d="M148.347,499.472c0,0-5.271-3.683-8.367,0.077c0,0-0.578,0.441-0.169,1.04
		c0.407,0.596,1.072-1.795,8.337-0.393C148.147,500.196,148.609,500.291,148.347,499.472"/>
	<path clip-path="url(#SVGID_4_)" fill="#3A1E1C" d="M106.044,504.071c0,0,5.425,3.121,8.304-0.712c0,0,0.551-0.466,0.115-1.006
		c-0.435-0.542-0.973,1.798-8.258,1.011C106.205,503.364,105.741,503.306,106.044,504.071"/>
	<path clip-path="url(#SVGID_4_)" fill="#F4A6A7" d="M148.212,519.016c0.136-1.663,2.52-2.82,5.324-2.582
		c2.806,0.239,4.968,1.781,4.832,3.446c-0.136,1.663-2.519,2.818-5.324,2.58C150.24,522.221,148.077,520.68,148.212,519.016"/>
	<path clip-path="url(#SVGID_4_)" fill="#F4A6A7" d="M94.167,528.309c-0.36-1.628,1.571-3.461,4.315-4.095
		c2.747-0.635,5.265,0.171,5.626,1.799c0.36,1.629-1.571,3.463-4.317,4.096C97.047,530.743,94.529,529.937,94.167,528.309"/>
	<path clip-path="url(#SVGID_4_)" fill="#812322" d="M193.086,693.001c0,0-1.443,10.006-3.216,14.754
		c-1.774,4.747-0.223,20.572-0.223,20.572s14.328,45.345,15.076,52.977c0.749,7.627-6.715,15.24-6.715,15.24l-41.523-29.731
		l-32.276,36.112c0,0-29.019-9.018-38.036-13.609c-20.682-10.528-21.494-17.141-21.494-17.141s8.228-33.089,20.446-51.173
		c0,0,0.64-22.042-7.92-35.155c-8.559-13.112-13.517-23.737-13.849-27.128c0,0-20.713,23.943-34.863,39.363
		c0.601,2.053,0.795,5.161-1.278,8.939c0,0,29.443,41.105,35.277,41.521L39.73,778.168l-64.482-69.899c0,0-2.306-7.889,2.171-11.21
		c4.477-3.323,35.13-41.641,35.13-41.641c7.712-11.374,14.268-20.913,16.042-23.125c0,0,2.994-15.146,8.977-16.896
		c5.985-1.753,14.352-24.867,14.352-24.867s18.589-4.463,29.644-3.021c11.053,1.441,21.329-2.176,21.329-2.176l47.864,94.442
		l-2.154-96.248c0,0,13.021,0.102,15.692-1.17c2.675-1.272,10.11,2.603,11.633,3.874l32.827,52.345c0,0,42.561,55.05,25.957,71.653
		C227.107,717.837,193.086,693.001,193.086,693.001"/>
	<path clip-path="url(#SVGID_4_)" fill="#D68169" d="M49.033,779.666c0,0,9.983,8.933,12.004,6.872l10.167-29.361
		C71.203,757.177,58.465,766.549,49.033,779.666"/>
	<path clip-path="url(#SVGID_4_)" fill="#EC9477" d="M63.224,780.644c0,0,4.829-4.889,12.151,2.337
		c7.323,7.225,7.922,7.724,7.922,7.724s5.685,2.405,6.148-3.857c0,0,7.199,1.074,5.582-7.005c0,0,5.019-3.688,0.58-10.043
		c0,0,4.504-0.882,1.827-9.564c-2.677-8.679-19.66-17.073-19.66-17.073s-8.127-2.913-8.846,6.737c0,0-5.86,0.312-3.816,8.652
		c0,0-3.8,3.509-2.984,7.318c0.817,3.809-0.092,3.057-0.092,3.057S56.608,775.159,63.224,780.644"/>
	<path clip-path="url(#SVGID_4_)" fill="#B3584E" d="M88.886,787.339c-0.096-0.112-9.669-11.355-19.919-16.429l0.646-1.359
		c10.529,5.215,19.996,16.332,20.393,16.804L88.886,787.339z"/>
	<path clip-path="url(#SVGID_4_)" fill="#B3584E" d="M94.52,780.392c-0.139-0.136-13.987-13.398-24.04-18.927l0.702-1.329
		c10.225,5.624,24.212,19.021,24.352,19.156L94.52,780.392z"/>
	<path clip-path="url(#SVGID_4_)" fill="#B3584E" d="M95.041,770.286c-0.123-0.149-12.383-14.857-22.375-18.046l0.44-1.441
		c10.405,3.319,22.554,17.895,23.065,18.514L95.041,770.286z"/>
	<path clip-path="url(#SVGID_4_)" fill="#993738" d="M102.892,585.334c0,0-19.753,9.719-30.445,26.222l36.29,10.571
		c0,0-12.357,12.39-12.095,15.075c0.263,2.686,54.115,42.574,54.115,42.574s27.428-51.316,24.38-53.858
		c-3.046-2.544-19.861-5.681-19.861-5.681s15.931-23.029,18.7-23.312c2.772-0.282-22.88-13.651-25.375-13.397
		c-2.492,0.255,2.061,92.003,2.061,92.003l-0.127,1.984L102.892,585.334z"/>
	<path clip-path="url(#SVGID_4_)" fill="#312235" d="M150.756,679.776c0,0,7.577,68.248,5.727,87.036"/>
	<path clip-path="url(#SVGID_4_)" fill="#993738" d="M157.634,700.369c0-2.457,1.951-4.451,4.361-4.451s4.362,1.994,4.362,4.451
		c0,2.456-1.953,4.45-4.362,4.45S157.634,702.825,157.634,700.369"/>
	<path clip-path="url(#SVGID_4_)" fill="#993738" d="M159.374,732.069c0-2.457,1.954-4.449,4.361-4.449
		c2.41,0,4.363,1.992,4.363,4.449s-1.953,4.449-4.363,4.449C161.327,736.519,159.374,734.526,159.374,732.069"/>
	<path clip-path="url(#SVGID_4_)" fill="#5B1E3C" d="M65.941,644.773l-1.44-0.352c4.024-17.158,0.508-36.032-9.402-50.494
		l1.213-0.863C66.46,607.872,70.06,627.201,65.941,644.773"/>
	<path clip-path="url(#SVGID_4_)" fill="#5B1E3C" d="M192.943,646.553l-1.474-0.135c0.891-10.181-2.747-20.389-5.958-29.393
		c-3.8-10.663-8.109-22.75-16.34-31.481l1.067-1.047c8.448,8.964,12.813,21.208,16.664,32.012
		C190.166,625.663,193.863,636.037,192.943,646.553"/>
	<path clip-path="url(#SVGID_4_)" fill="#5B1E3C" d="M42.827,621.641c-0.67-2.029-1.615-3.947-2.816-5.707l1.214-0.859
		c1.28,1.874,2.289,3.923,3.003,6.086L42.827,621.641z"/>
	<path clip-path="url(#SVGID_4_)" fill="#5B1E3C" d="M34.658,634.924c-1.606-0.375-3.259-0.606-4.914-0.688l0.072-1.506
		c1.74,0.085,3.48,0.328,5.17,0.725L34.658,634.924z"/>
	<path clip-path="url(#SVGID_4_)" fill="#5B1E3C" d="M197.32,674.948l-1.469-0.177c0.377-3.272,0.498-6.601,0.353-9.893l1.477-0.069
		C197.83,668.187,197.708,671.596,197.32,674.948"/>
	<path clip-path="url(#SVGID_4_)" fill="#5B1E3C" d="M87.553,721.59l-0.778-1.285c3.003-1.895,6.217-3.462,9.548-4.659l0.492,1.425
		C93.583,718.231,90.467,719.752,87.553,721.59"/>
	<path clip-path="url(#SVGID_4_)" fill="#5B1E3C" d="M27.862,698.844c-2.116,0-8.233-0.196-10.385-2.392l1.046-1.066
		c1.715,1.753,7.765,2.004,9.954,1.942l0.034,1.51C28.398,698.84,28.173,698.844,27.862,698.844"/>
	<path clip-path="url(#SVGID_4_)" fill="#5B1E3C" d="M20.658,710.23v-1.51c2.708,0,6.11-2.302,6.143-2.324l0.825,1.252
		C27.471,707.755,23.81,710.23,20.658,710.23"/>
	<path clip-path="url(#SVGID_4_)" fill="#B1524F" d="M123.959,553.405l-0.357-0.429c0.409-0.344,10.131-8.38,16.21-5.317
		l-0.251,0.499C133.801,545.259,124.058,553.325,123.959,553.405"/>
	<path clip-path="url(#SVGID_4_)" fill="#EC9477" d="M157.479,588.583c0.928-1.325,0.247-2.675,0.694-4.137
		c1.302-4.248,0.055-18.971,2.435-22.677c0.605-0.944,1.116-2.01,1.01-3.183c-0.142-1.572-1.519-3.129-3.179-3.59
		c-1.657-0.458-4.914,1.133-4.914,1.133c-2.377,1.041-6.316,16.944-8.692,17.988c-3.906,1.714-7.871-2.254-12.373-3.554
		c-3.759-1.082-5.478-5.189-8.205-8.012c-2.639-2.732-9.292-14.361-11.929-17.094c-0.667-0.692-1.375-1.41-2.275-1.752
		c-2.561-0.971-4.638,1.897-3.991,4.368c0.647,2.475,4.997,12.776,6.743,14.852c1.638,1.952,3.814,4.089,4.789,6.342
		c0.195,0.449,0.377,0.94,0.248,1.37c-0.35,1.154-2.281,1.667-3.461,2.105c-3.175,1.176,3.21,9.624,0.14,10.984
		c-1.399,0.619-1.789-0.16-2.911,0.809c-0.999,0.866,0.023,3.774,0.399,5.134c0.376,1.36,0.71,2.756-0.742,2.741
		c-0.462-0.003-1.428,1.388-1.854,1.507c-0.757,0.215-0.329,1.646-0.078,2.413c1.383,4.207,2.049,4.914,5.89,7.674
		c3.844,2.763,8.191,4.729,12.494,6.669c1.703,0.768,3.455,1.548,5.257,1.713c0.289,0.026,0.56,0.001,0.836-0.002
		c-0.006,0.008-0.024,0.032-0.024,0.032l10.142,3.106l16.7-20.979C160.63,594.545,157.696,592.754,157.479,588.583"/>
	<path clip-path="url(#SVGID_4_)" fill="#D68169" d="M144.13,616.172l-10.516-3.222l-0.028,0.002
		c-0.217,0.007-0.433,0.015-0.66-0.007c-1.918-0.174-3.788-1.017-5.437-1.759c-4.269-1.926-8.682-3.916-12.593-6.725
		c-3.924-2.822-4.659-3.592-6.095-7.954c-0.299-0.913-0.559-1.934-0.209-2.589c0.145-0.271,0.375-0.456,0.667-0.538
		c0.077-0.046,0.365-0.343,0.555-0.541c0.513-0.53,0.957-0.987,1.449-0.987c0.001-0.002,0.012-0.002,0.021,0
		c0.128,0,0.335-0.015,0.407-0.108c0.226-0.295-0.078-1.396-0.224-1.925l-0.156-0.541c-0.515-1.758-1.221-4.166-0.069-5.164
		c0.782-0.678,1.338-0.68,1.859-0.674c0.348,0.003,0.68,0.003,1.19-0.225c1.065-0.471,0.284-2.797-0.405-4.849
		c-0.887-2.639-1.803-5.37,0.298-6.147l0.527-0.188c1.003-0.351,2.373-0.829,2.591-1.555c0.074-0.241-0.065-0.616-0.225-0.985
		c-0.722-1.671-2.154-3.291-3.538-4.86c-0.404-0.457-0.799-0.907-1.167-1.344c-1.781-2.118-6.168-12.449-6.855-15.068
		c-0.408-1.558,0.112-3.32,1.294-4.382c0.972-0.873,2.221-1.112,3.436-0.653c1.042,0.396,1.839,1.221,2.48,1.885
		c1.356,1.406,3.624,4.912,6.028,8.627c2.27,3.51,4.618,7.139,5.901,8.468c0.878,0.912,1.657,1.95,2.408,2.955
		c1.621,2.169,3.15,4.218,5.55,4.908c1.592,0.461,3.098,1.232,4.555,1.979c2.745,1.405,5.114,2.619,7.437,1.598
		c0.972-0.425,2.75-5.193,4.046-8.674c2.01-5.392,3.31-8.725,4.646-9.313c0.333-0.16,3.486-1.665,5.29-1.157
		c1.881,0.521,3.422,2.273,3.586,4.077c0.126,1.419-0.52,2.635-1.099,3.535c-1.297,2.021-1.456,7.912-1.596,13.109
		c-0.104,3.896-0.205,7.576-0.773,9.43c-0.159,0.519-0.153,1.037-0.147,1.588c0.013,0.784,0.023,1.665-0.513,2.535
		c0.27,3.677,2.767,5.27,2.875,5.335l0.534,0.333l-0.389,0.492L144.13,616.172z M134.696,612.112l9.034,2.766l16.101-20.229
		c-0.911-0.753-2.735-2.666-2.911-6.037l-0.011-0.193l0.11-0.159c0.443-0.628,0.433-1.286,0.423-2.049
		c-0.006-0.581-0.014-1.241,0.196-1.928c0.524-1.708,0.622-5.313,0.724-9.134c0.15-5.604,0.308-11.398,1.774-13.684
		c0.48-0.749,1.022-1.75,0.925-2.829c-0.123-1.341-1.339-2.702-2.771-3.1c-1.182-0.326-3.666,0.677-4.519,1.094
		c-0.993,0.437-2.771,5.207-4.069,8.69c-2.009,5.39-3.308,8.722-4.643,9.31c-2.814,1.233-5.527-0.156-8.399-1.631
		c-1.408-0.721-2.866-1.467-4.355-1.896c-2.761-0.798-4.478-3.094-6.137-5.314c-0.731-0.978-1.485-1.988-2.315-2.847
		c-1.358-1.409-3.63-4.92-6.036-8.641c-2.269-3.504-4.612-7.129-5.893-8.454c-0.591-0.615-1.265-1.312-2.071-1.616
		c-1.104-0.419-1.91,0.094-2.29,0.438c-0.867,0.776-1.26,2.119-0.961,3.265c0.652,2.489,4.963,12.652,6.628,14.634
		c0.363,0.431,0.752,0.872,1.15,1.321c1.442,1.635,2.933,3.325,3.726,5.156c0.227,0.526,0.454,1.141,0.269,1.754
		c-0.384,1.27-1.996,1.832-3.294,2.288l-0.508,0.182c-1.004,0.372-0.478,2.201,0.375,4.743c0.883,2.626,1.796,5.343-0.202,6.227
		c-0.732,0.326-1.226,0.313-1.649,0.321c-0.415-0.002-0.656-0.002-1.122,0.4c-0.608,0.526,0.107,2.964,0.411,4.004l0.162,0.557
		c0.266,0.967,0.598,2.167,0.032,2.904c-0.284,0.368-0.735,0.513-1.321,0.547c-0.056,0.046-0.421,0.422-0.637,0.644
		c-0.446,0.465-0.736,0.751-1.058,0.841c-0.013,0.03-0.149,0.327,0.301,1.699c1.347,4.093,1.907,4.681,5.686,7.396
		c3.82,2.744,8.181,4.711,12.397,6.612c1.646,0.743,3.349,1.508,5.079,1.666c0.181,0.018,0.35,0.011,0.519,0.004l1.363-0.022
		L134.696,612.112z"/>
	<path clip-path="url(#SVGID_4_)" fill="#812322" d="M220.932,665.885c-18.674-25.396-49.314-57.886-52.834-63.038
		c-5.117-7.483-19.126,20.433-19.126,20.433s24.823,50.299,41.673,67.149c16.85,16.851,38.354,20.586,38.354,20.586"/>
	<path clip-path="url(#SVGID_4_)" fill="#5B1E3C" d="M228.903,711.565c-0.217-0.037-21.872-3.961-38.653-20.74
		c-16.722-16.724-41.532-66.793-41.781-67.295l-0.122-0.251l0.123-0.249c0.444-0.88,10.902-21.58,17.262-22.011
		c1.133-0.081,2.089,0.432,2.828,1.511c1.19,1.744,5.562,6.696,11.614,13.551c11.523,13.056,28.938,32.786,41.207,49.472l-0.9,0.663
		c-12.24-16.646-29.635-36.352-41.146-49.395c-6.078-6.883-10.47-11.859-11.7-13.658c-0.506-0.739-1.096-1.08-1.826-1.025
		c-4.688,0.315-13.165,15.132-16.21,21.146c1.923,3.862,25.458,50.764,41.443,66.75c16.531,16.531,37.84,20.393,38.054,20.429
		L228.903,711.565z"/>
	<path clip-path="url(#SVGID_4_)" fill="#FFFFFF" d="M147.647,623.957c0,0,24.379-15.977,24.986-20.397s-11.767-8.991-11.767-8.991
		l-21.675,23.099l7.653,7.53L147.647,623.957z"/>
	<path clip-path="url(#SVGID_4_)" fill="#E9E8E8" d="M146.942,626.079l-8.532-8.396l22.3-23.769l0.349,0.13
		c1.31,0.483,12.778,4.861,12.129,9.593c-0.617,4.488-22.19,18.791-25.136,20.724L146.942,626.079z M139.974,617.652l6.774,6.665
		l0.592-0.828c9.715-6.365,24.32-16.946,24.74-20.005c0.432-3.154-7.529-6.905-11.062-8.26L139.974,617.652z"/>
	<path clip-path="url(#SVGID_4_)" fill="#FFFFFF" d="M200.945,463.118c-0.875-0.306-1.875-0.025-2.626,0.516
		c-0.753,0.545-1.299,1.321-1.799,2.102c-1.058,1.649-1.979,3.386-2.748,5.187c-0.121,0.28-0.238,0.573-0.215,0.876
		c0.065,0.854,1.097,1.207,1.718,1.797c1.125,1.068,0.863,2.952,1.652,4.287c1.036,1.749,3.462,1.994,5.478,1.739
		c2.472-0.31,4.955-1.109,6.835-2.743c1.881-1.636,3.059-4.21,2.577-6.653c-0.38-1.932-1.736-3.573-3.387-4.643
		c-1.652-1.07-3.585-1.625-5.517-1.996"/>
	<path clip-path="url(#SVGID_4_)" fill="#FFFFFF" d="M215.39,445.325c-0.586,1.074-1.036,2.22-1.333,3.406
		c-0.199,0.794-0.325,1.655-0.014,2.412c0.35,0.857,1.183,1.401,1.97,1.894c1.804,1.127,3.632,2.266,5.658,2.913
		c1.576,0.504,3.241,0.697,4.893,0.689c2.779-0.014,5.742-0.703,7.612-2.754c2.064-2.265,2.324-5.592,2.479-8.65
		c0.04-0.839,0.06-1.758-0.452-2.424c-0.402-0.518-1.045-0.774-1.656-1.006c-1.701-0.647-3.403-1.294-5.105-1.941
		c-1.51-0.575-3.042-1.155-4.651-1.332c-2.491-0.272-5.082,0.483-7.034,2.058"/>
</g>
<g>
	<defs>
		<path id="SVGID_5_" d="M76.351,297.343c13.598,36.161,49.042,59.005,85.338,67.973c10.044,2.475,19.593,3.722,29.932,3.339
			c3.726-0.146,7.462-0.359,11.196-0.62c0.219,0.307,0.433,0.627,0.663,0.927c11.369,15.424,25.889,30.227,42.261,40.343
			c34.737,21.443,82.64,28.764,120.349,10.683c9.457-4.525,17.747-10.399,25.168-17.284c19.307,14.198,41.086,25.371,62.899,33.635
			c42.101,15.952,88.789,22.354,133.245,13.463c32.231-6.448,65.017-21.006,85.269-47.258c31.918,2.703,64.209-3.944,91.185-23.052
			c31.84-22.545,55.69-62.497,53.064-102.419c-2.688-41.055-30.974-76.198-65.436-96.523c-19.88-11.719-43.085-18.094-65.917-20.594
			c-3.31-0.364-6.662-0.705-10.048-0.973c-1.447-3.592-3.06-7.126-4.786-10.576c-8.704-17.41-19.72-34.897-34.082-48.192
			c-14.973-13.854-33.348-22.718-51.447-31.682c-19.747-9.776-41.302-16.113-62.835-20.547c-26.406-5.448-53.102-7.505-79.729-2.466
			c-6.321,1.203-12.609,2.6-18.789,4.411c-5.675,1.677-11.511,2.539-17.143,4.479c-11.564,3.994-22.323,9.86-32.674,16.335
			c-10.304,6.456-19.026,15.052-26.041,24.916c-1.505-0.781-3.045-1.52-4.6-2.209c-25.589-11.503-54.158-17.721-82.217-18.334
			c-12.85-0.271-25.743,0.601-38.125,4.135c-11.53,3.293-22.765,7.689-33.218,13.578c-9.557,5.379-19.038,11.717-27.489,18.709
			c-8.164,6.77-15.458,14.726-20.884,23.874c-9.304,15.661-12.98,32.949-12.325,50.564c-13.042,3.668-25.318,9.94-35.055,19.543
			c-11.732,11.58-19.93,26.696-22.94,42.932C68.042,265.148,70.4,281.537,76.351,297.343L76.351,297.343z"/>
	</defs>
	<clipPath id="SVGID_6_">
		<use xlink:href="#SVGID_5_"  overflow="visible"/>
	</clipPath>
	<rect x="0.424" y="0.176" clip-path="url(#SVGID_6_)" fill="#85CBC8" width="841.89" height="595.28"/>
</g>
<g>
	<g>
		<path fill="#A5C432" d="M583.942,297.686c-7.383,0.457-14.765-5.735-18.854-11.073c-2.521-3.289-3.93-6.837-4.528-10.722
			c-0.169-1.097-1.24-4.167,0.365-4.669c0.912-0.285,2.942,2.201,4.027,2.499c1.345-4.187-1.696-8.777-1.449-13.17
			c0.184-3.279,2.045-10.39,4.752-12.453c0.383,1.199,0.42,2.591,0.919,3.828c2.559-2.322,2.012-8.841,3.252-12.07
			c1.441-3.752,4.653-11.622,8.175-13.973c7.694-5.139,12.741,14.689,15.688,18.563c2.247-1.238,1.319-4.486,1.448-6.705
			c3.125-0.126,6.017,7.925,6.708,10.581c0.769,2.958-0.188,12.037,1.414,13.693c0.413-0.782,1.383-1.429,1.569-2.506
			c8.364,5.461,5.25,19.78,0.739,26.461c-5.289,7.835-13.038,11.79-22.74,11.716H583.942z"/>
		<path fill="#5D4231" d="M585.144,299.744c1.576,4.084-0.548,10.355-1.002,14.579c-0.46,4.29-1.339,8.574-1.127,12.871
			c3.319,0.518,7.105-0.539,10.486-0.597c-2.535-6.565-2.216-13.446-2.835-20.277c-0.135-1.484-0.998-3.569-0.551-5.08
			c0.531-1.805,2.364-2.182,3.656-3.586c1.669-1.81,4.163-5.848,3.753-8.33c-1.639,0.369-2.559,3.094-3.908,3.329
			c-2.584,0.452-0.837-3.123-0.462-4.563c0.634-2.458,3.211-8.576,0.688-10.495c-1.837,1.558-1.927,5.495-2.547,7.782
			c-0.667-0.875-0.665-2.193-1.804-2.992c-1,0.932,2.608,13.625-3.106,11.165c-3.624-1.557-3.595-11.922-8.652-11.093
			c0.018,1.442,1.378,1.58,1.151,3.147c-0.921-0.331-2.072,0.011-3.016-0.159c0.061,1.786,1.439,1.089,2.514,1.976
			c1.031,0.847,1.703,1.875,2.41,3.06c1.142,1.925,2.945,4.626,2.75,6.828c-2.833,0.462-5.311-3.426-8.296-3.496
			C574.161,298.222,582.518,298.828,585.144,299.744L585.144,299.744z"/>
	</g>
	<g>
		<path fill="#A5C432" d="M298.852,302.602c-8.101,0.441-16.198-5.521-20.685-10.661c-2.766-3.167-4.313-6.586-4.968-10.327
			c-0.186-1.056-1.362-4.014,0.4-4.498c1.001-0.273,3.228,2.121,4.418,2.407c1.477-4.032-1.86-8.452-1.59-12.682
			c0.202-3.159,2.244-10.006,5.213-11.995c0.42,1.156,0.461,2.496,1.008,3.687c2.807-2.237,2.206-8.513,3.566-11.625
			c1.581-3.613,5.106-11.192,8.97-13.457c8.442-4.95,13.978,14.146,17.21,17.877c2.466-1.192,1.451-4.321,1.589-6.458
			c3.43-0.12,6.601,7.634,7.36,10.19c0.844,2.849-0.206,11.593,1.55,13.187c0.453-0.753,1.52-1.376,1.723-2.413
			c9.176,5.258,5.76,19.05,0.812,25.484c-5.804,7.544-14.304,11.353-24.948,11.281H298.852z"/>
		<path fill="#5D4231" d="M300.169,304.587c1.729,3.933-0.602,9.971-1.098,14.04c-0.504,4.132-1.469,8.256-1.237,12.396
			c3.643,0.497,7.795-0.519,11.504-0.575c-2.78-6.325-2.43-12.949-3.108-19.529c-0.148-1.429-1.095-3.436-0.605-4.891
			c0.584-1.738,2.594-2.104,4.013-3.455c1.83-1.743,4.567-5.632,4.116-8.022c-1.796,0.357-2.807,2.98-4.288,3.208
			c-2.834,0.433-0.917-3.007-0.507-4.395c0.698-2.367,3.524-8.259,0.756-10.109c-2.014,1.502-2.114,5.292-2.793,7.496
			c-0.732-0.843-0.727-2.114-1.979-2.883c-1.096,0.9,2.863,13.123-3.408,10.754c-3.974-1.5-3.943-11.482-9.493-10.683
			c0.02,1.388,1.512,1.521,1.263,3.029c-1.011-0.318-2.272,0.012-3.309-0.152c0.067,1.719,1.582,1.051,2.76,1.902
			c1.132,0.815,1.869,1.805,2.642,2.946c1.254,1.854,3.23,4.456,3.017,6.578c-3.108,0.444-5.827-3.301-9.1-3.366
			C288.121,303.12,297.291,303.702,300.169,304.587L300.169,304.587z"/>
	</g>
	<g>
		<path fill="#A5C432" d="M426.001,259.76c-7.788,0.423-15.575-5.31-19.888-10.251c-2.66-3.046-4.147-6.333-4.778-9.93
			c-0.178-1.016-1.308-3.858,0.384-4.323c0.963-0.264,3.104,2.037,4.249,2.313c1.42-3.877-1.789-8.127-1.527-12.194
			c0.194-3.037,2.157-9.621,5.012-11.532c0.404,1.111,0.442,2.399,0.969,3.543c2.699-2.15,2.122-8.185,3.429-11.177
			c1.52-3.475,4.912-10.762,8.626-12.939c8.117-4.758,13.44,13.604,16.55,17.191c2.368-1.147,1.393-4.154,1.527-6.21
			c3.298-0.117,6.345,7.339,7.077,9.798c0.812,2.739-0.198,11.147,1.49,12.679c0.434-0.723,1.461-1.323,1.656-2.319
			c8.822,5.058,5.539,18.318,0.78,24.504c-5.581,7.254-13.753,10.916-23.988,10.848H426.001z"/>
		<path fill="#5D4231" d="M427.27,261.667c1.662,3.782-0.58,9.587-1.058,13.499c-0.484,3.973-1.411,7.94-1.188,11.919
			c3.502,0.478,7.496-0.5,11.061-0.553c-2.674-6.082-2.336-12.451-2.99-18.776c-0.143-1.375-1.052-3.306-0.581-4.705
			c0.563-1.671,2.494-2.021,3.858-3.32c1.761-1.677,4.391-5.417,3.957-7.714c-1.727,0.341-2.697,2.865-4.123,3.083
			c-2.725,0.418-0.882-2.891-0.488-4.225c0.671-2.275,3.389-7.941,0.727-9.72c-1.936,1.444-2.03,5.089-2.684,7.207
			c-0.705-0.811-0.699-2.031-1.904-2.773c-1.054,0.867,2.752,12.62-3.277,10.342c-3.82-1.442-3.791-11.04-9.127-10.273
			c0.02,1.336,1.452,1.464,1.214,2.915c-0.972-0.307-2.184,0.01-3.181-0.147c0.064,1.654,1.52,1.01,2.653,1.83
			c1.088,0.784,1.796,1.735,2.54,2.833c1.207,1.781,3.106,4.284,2.902,6.323c-2.988,0.429-5.602-3.172-8.75-3.237
			C415.683,260.257,424.499,260.817,427.27,261.667L427.27,261.667z"/>
	</g>
	<path fill="#FEF0E3" d="M566.013,193.427c0,4.684,3.797,8.482,8.482,8.482c0.954,0,1.872-0.161,2.729-0.452
		c-0.007,0.149-0.009,0.3-0.009,0.452c0,5.401,4.375,9.777,9.773,9.777c3.157,0,5.959-1.496,7.747-3.814
		c2.12,3.899,6.252,6.545,11,6.545c5.051,0,9.399-2.995,11.375-7.305c1.339,0.886,2.944,1.403,4.67,1.403
		c4.684,0,8.482-3.798,8.482-8.482c0-4.027-2.806-7.396-6.566-8.264c0.268-0.828,0.417-1.71,0.417-2.629
		c0-4.684-3.798-8.482-8.482-8.482c-3.774,0-6.972,2.465-8.072,5.872c-1.103-3.407-4.298-5.872-8.073-5.872
		c-0.494,0-0.978,0.044-1.448,0.125c-1.072-5.818-6.169-10.227-12.298-10.227c-6.906,0-12.508,5.601-12.508,12.509
		c0,0.664,0.055,1.314,0.151,1.951C569.224,185.563,566.013,189.119,566.013,193.427z M592.359,193.74
		c-0.015-0.01-0.029-0.019-0.043-0.029c0.004-0.004,0.011-0.008,0.018-0.013C592.342,193.711,592.352,193.726,592.359,193.74z"/>
	<polygon fill="#373739" points="621.584,335.438 446.312,360.841 558.004,390.903 	"/>
	<polygon fill="#414142" points="631.63,326.676 277.063,326.676 328.892,383.104 442.104,359.708 446.673,360.938 621.584,335.438 
			"/>
	<g>
		<rect x="570.375" y="229.922" fill="#0B1A28" width="8.177" height="20.943"/>
		<polygon fill="#FCBE34" points="586.113,327.264 526.534,327.264 526.534,270.942 555.996,229.922 586.113,270.942 		"/>
		<polygon fill="#103141" points="522.533,278.065 511.724,278.065 556.438,220.393 600.979,278.111 590.054,278.162 
			556.207,233.59 		"/>
		<g>
			<g>
				<g>
					<rect x="534.351" y="274.581" fill="#916F16" width="8.537" height="14.754"/>
				</g>
				<g>
					<rect x="546.422" y="274.581" fill="#916F16" width="8.541" height="14.754"/>
				</g>
				<g>
					<rect x="558.498" y="274.581" fill="#916F16" width="8.54" height="14.754"/>
				</g>
				<g>
					<rect x="570.571" y="274.581" fill="#916F16" width="8.541" height="14.754"/>
				</g>
			</g>
		</g>
		<g>
			<g>
				<g>
					<rect x="558.118" y="300.301" fill="#916F16" width="8.541" height="14.755"/>
				</g>
				<g>
					<rect x="570.192" y="300.301" fill="#916F16" width="8.541" height="14.755"/>
				</g>
			</g>
		</g>
		<circle fill="#916F16" cx="555.801" cy="255.091" r="4.782"/>
		<rect x="526.534" y="320.753" fill="#F3DBBD" width="59.579" height="6.511"/>
		<path fill="#103141" d="M551.461,308.568c0-4.566-3.702-8.268-8.27-8.268c-4.563,0-8.266,3.701-8.266,8.268v18.646h16.535V308.568
			z"/>
		<g>
			<g>
				<path fill="#674C3C" d="M530.039,296.024c0,0.988-0.783,1.791-1.754,1.791c-0.967,0-1.751-0.803-1.751-1.791
					c0-0.299,0-1.995,0-1.995l3.505,0.014C530.039,294.044,530.039,295.035,530.039,296.024z"/>
				<path fill="#CE9134" d="M533.543,296.024c0,0.988-0.783,1.791-1.751,1.791s-1.753-0.803-1.753-1.791c0-0.299,0-1.995,0-1.995
					l3.504,0.014C533.543,294.044,533.543,295.035,533.543,296.024z"/>
			</g>
			<g>
				<path fill="#674C3C" d="M537.049,296.024c0,0.988-0.784,1.791-1.753,1.791c-0.968,0-1.753-0.803-1.753-1.791
					c0-0.299,0-1.995,0-1.995l3.506,0.014C537.049,294.044,537.049,295.035,537.049,296.024z"/>
				<path fill="#CE9134" d="M540.554,296.024c0,0.988-0.785,1.791-1.753,1.791c-0.969,0-1.752-0.803-1.752-1.791
					c0-0.299,0-1.995,0-1.995l3.505,0.014C540.554,294.044,540.554,295.035,540.554,296.024z"/>
			</g>
			<g>
				<path fill="#674C3C" d="M544.058,296.024c0,0.988-0.783,1.791-1.752,1.791c-0.97,0-1.752-0.803-1.752-1.791
					c-0.001-0.299,0-1.995,0-1.995l3.504,0.014C544.058,294.044,544.058,295.035,544.058,296.024z"/>
				<path fill="#CE9134" d="M547.563,296.024c0,0.988-0.784,1.791-1.753,1.791c-0.968,0-1.752-0.803-1.752-1.791
					c0-0.299,0-1.995,0-1.995l3.505,0.014C547.563,294.044,547.563,295.035,547.563,296.024z"/>
			</g>
			<g>
				<path fill="#674C3C" d="M551.066,296.024c0,0.988-0.783,1.791-1.753,1.791c-0.968,0-1.751-0.803-1.751-1.791
					c0-0.299,0-1.995,0-1.995l3.504,0.014C551.066,294.044,551.066,295.035,551.066,296.024z"/>
				<path fill="#CE9134" d="M554.571,296.024c0,0.988-0.783,1.791-1.753,1.791c-0.967,0-1.752-0.803-1.752-1.791
					c0-0.299,0-1.995,0-1.995l3.505,0.014C554.571,294.044,554.571,295.035,554.571,296.024z"/>
			</g>
			<g>
				<path fill="#674C3C" d="M558.076,296.024c0,0.988-0.784,1.791-1.753,1.791c-0.968,0-1.752-0.803-1.752-1.791
					c0-0.299,0-1.995,0-1.995l3.505,0.014C558.076,294.044,558.076,295.035,558.076,296.024z"/>
				<path fill="#CE9134" d="M561.581,296.024c0,0.988-0.784,1.791-1.753,1.791s-1.752-0.803-1.752-1.791c0-0.299,0-1.995,0-1.995
					l3.505,0.014C561.581,294.044,561.581,295.035,561.581,296.024z"/>
			</g>
			<g>
				<path fill="#674C3C" d="M565.086,296.024c0,0.988-0.786,1.791-1.752,1.791c-0.97,0-1.753-0.803-1.753-1.791
					c0-0.299,0-1.995,0-1.995l3.505,0.014C565.086,294.044,565.086,295.035,565.086,296.024z"/>
				<path fill="#CE9134" d="M568.59,296.024c0,0.988-0.785,1.791-1.753,1.791s-1.751-0.803-1.751-1.791
					c-0.002-0.299,0-1.995,0-1.995l3.504,0.014C568.59,294.044,568.59,295.035,568.59,296.024z"/>
			</g>
			<g>
				<path fill="#674C3C" d="M572.095,296.024c0,0.988-0.786,1.791-1.753,1.791c-0.968,0-1.752-0.803-1.752-1.791
					c0-0.299,0-1.995,0-1.995l3.505,0.014C572.095,294.044,572.095,295.035,572.095,296.024z"/>
				<path fill="#CE9134" d="M575.598,296.024c0,0.988-0.784,1.791-1.75,1.791c-0.969,0-1.753-0.803-1.753-1.791
					c-0.001-0.299,0-1.995,0-1.995l3.503,0.014C575.598,294.044,575.598,295.035,575.598,296.024z"/>
			</g>
			<g>
				<path fill="#674C3C" d="M579.104,296.024c0,0.988-0.785,1.791-1.754,1.791c-0.966,0-1.752-0.803-1.752-1.791
					c0-0.299,0-1.995,0-1.995l3.506,0.014C579.104,294.044,579.104,295.035,579.104,296.024z"/>
				<path fill="#CE9134" d="M582.607,296.024c0,0.988-0.785,1.791-1.752,1.791c-0.969,0-1.752-0.803-1.752-1.791
					c0-0.299,0-1.995,0-1.995l3.504,0.014C582.607,294.044,582.607,295.035,582.607,296.024z"/>
			</g>
			<g>
				<path fill="#674C3C" d="M586.113,296.024c0,0.988-0.786,1.791-1.754,1.791s-1.752-0.803-1.752-1.791c0-0.299,0-1.995,0-1.995
					l3.506,0.014C586.113,294.044,586.113,295.035,586.113,296.024z"/>
			</g>
		</g>
		<rect x="526.534" y="293.406" fill="#F3DBBD" width="59.579" height="1.085"/>
	</g>
	<g>
		<g>
			<polygon fill="#ED6D33" points="442.102,327.264 371.258,327.264 371.258,267.255 406.293,222.456 442.102,267.255 			"/>
			<rect x="371.258" y="321.201" fill="#DBC7AC" width="70.843" height="6.063"/>
			<g>
				<g>
					<g>
						<rect x="381.643" y="301.998" fill="#8D3C14" width="11.304" height="11.732"/>
					</g>
					<g>
						<rect x="421.361" y="301.998" fill="#8D3C14" width="11.307" height="11.732"/>
					</g>
				</g>
			</g>
		</g>
		<circle fill="#8D3C14" cx="406.918" cy="248.971" r="4.724"/>
		<g>
			<g>
				<rect x="378.183" y="271.381" fill="#8D3C14" width="12.371" height="12.84"/>
				<rect x="408.999" y="271.381" fill="#8D3C14" width="12.37" height="12.84"/>
				<rect x="424.354" y="271.381" fill="#8D3C14" width="12.37" height="12.84"/>
				<rect x="393.514" y="271.381" fill="#8D3C14" width="12.371" height="12.84"/>
			</g>
		</g>
		<polygon fill="#F3DBBD" points="373.013,321.201 371.258,321.201 371.258,267.255 373.013,264.935 		"/>
		<polygon fill="#F3DBBD" points="442.102,321.201 440.346,321.201 440.346,264.935 442.102,267.585 		"/>
		<rect x="372.35" y="290.746" fill="#103141" width="68.21" height="2.299"/>
		<polygon fill="#0B1A28" points="369.108,270.199 358.098,270.199 406.794,211.169 455.308,270.157 444.182,270.209 
			406.557,224.61 		"/>
		<path fill="#103141" d="M414.153,308.732c0-4.564-3.701-8.266-8.268-8.266c-4.565,0-8.266,3.701-8.266,8.266v18.646h16.534
			V308.732z"/>
	</g>
	<g>
		<polygon fill="#F28D25" points="507.429,327.264 426.754,327.264 426.754,250.997 466.651,195.45 507.429,250.997 		"/>
		<g>
			<g>
				<rect x="426.754" y="250.997" fill="#F3DBBD" width="3.595" height="6.707"/>
				<rect x="426.754" y="258.697" fill="#F3DBBD" width="6.113" height="6.706"/>
			</g>
			<g>
				<rect x="426.754" y="266.462" fill="#F3DBBD" width="3.595" height="6.706"/>
				<rect x="426.754" y="274.162" fill="#F3DBBD" width="6.113" height="6.707"/>
			</g>
			<g>
				<rect x="426.754" y="289.628" fill="#F3DBBD" width="6.113" height="6.706"/>
			</g>
			<g>
				<rect x="426.754" y="297.393" fill="#F3DBBD" width="3.595" height="6.705"/>
				<rect x="426.754" y="305.092" fill="#F3DBBD" width="6.113" height="6.707"/>
			</g>
			<g>
				<rect x="426.754" y="312.856" fill="#F3DBBD" width="3.595" height="6.708"/>
			</g>
		</g>
		<g>
			<g>
				<rect x="503.835" y="250.997" fill="#F3DBBD" width="3.594" height="6.707"/>
				<rect x="501.317" y="258.697" fill="#F3DBBD" width="6.111" height="6.706"/>
			</g>
			<g>
				<rect x="503.835" y="266.462" fill="#F3DBBD" width="3.594" height="6.706"/>
				<rect x="501.317" y="274.162" fill="#F3DBBD" width="6.111" height="6.707"/>
			</g>
			<g>
				<rect x="503.835" y="281.927" fill="#F3DBBD" width="3.594" height="6.705"/>
				<rect x="501.317" y="289.628" fill="#F3DBBD" width="6.111" height="6.706"/>
			</g>
			<g>
				<rect x="503.835" y="297.393" fill="#F3DBBD" width="3.594" height="6.705"/>
				<rect x="501.317" y="305.092" fill="#F3DBBD" width="6.111" height="6.707"/>
			</g>
			<g>
				<rect x="503.835" y="312.856" fill="#F3DBBD" width="3.594" height="6.708"/>
			</g>
		</g>
		<path fill="#905314" d="M472.869,225.402c-0.074-2.76-2.35-4.977-5.147-4.977c-2.799,0-5.072,2.217-5.146,4.977h-0.01v8.669
			h10.312v-8.669H472.869z"/>
		<g>
			<g>
				<path fill="#905314" d="M451.664,256.806c-0.076-2.76-2.348-4.978-5.146-4.978c-2.801,0-5.073,2.217-5.148,4.978h-0.007v15.464
					h10.31v-15.464H451.664z"/>
				<path fill="#905314" d="M496.725,256.113c-0.076-2.761-2.349-4.977-5.146-4.977c-2.802,0-5.074,2.216-5.149,4.977h-0.008v15.465
					h10.313v-15.465H496.725z"/>
				<g>
					<path fill="#905314" d="M495.969,297.957c-0.075-2.76-2.349-4.977-5.147-4.977s-5.072,2.216-5.146,4.977h-0.008v15.467h10.309
						v-15.467H495.969z"/>
					<path fill="#905314" d="M480.811,297.957c-0.074-2.76-2.349-4.977-5.147-4.977c-2.8,0-5.072,2.216-5.147,4.977h-0.007v15.467
						h10.308v-15.467H480.811z"/>
					<path fill="#905314" d="M465.651,297.957c-0.075-2.76-2.349-4.977-5.146-4.977c-2.8,0-5.073,2.216-5.147,4.977h-0.008v15.467
						h10.31v-15.467H465.651z"/>
					<path fill="#905314" d="M450.492,297.957c-0.074-2.76-2.346-4.977-5.145-4.977c-2.801,0-5.072,2.216-5.148,4.977h-0.008v15.467
						h10.31v-15.467H450.492z"/>
				</g>
				<path fill="#905314" d="M476.408,258.587c-0.113-4.133-4.647-7.451-8.837-7.451s-8.423,3.318-8.537,7.451h-0.009v23.15h17.393
					v-23.15H476.408z"/>
			</g>
		</g>
		<g>
			<g>
				<g>
					<g>
						<rect x="494.683" y="269.03" fill="#F3DBBD" width="1.619" height="12.553"/>
						<rect x="491.239" y="269.03" fill="#F3DBBD" width="1.031" height="12.553"/>
						<rect x="487.792" y="269.03" fill="#F3DBBD" width="1.034" height="12.553"/>
						<rect x="484.347" y="269.03" fill="#F3DBBD" width="1.032" height="12.553"/>
						<rect x="480.9" y="269.03" fill="#F3DBBD" width="1.035" height="12.553"/>
						<rect x="477.455" y="269.03" fill="#F3DBBD" width="1.033" height="12.553"/>
						<rect x="474.011" y="269.03" fill="#F3DBBD" width="1.033" height="12.553"/>
						<rect x="470.563" y="269.03" fill="#F3DBBD" width="1.034" height="12.553"/>
						<rect x="467.119" y="269.03" fill="#F3DBBD" width="1.033" height="12.553"/>
						<rect x="463.673" y="269.03" fill="#F3DBBD" width="1.034" height="12.553"/>
						<rect x="460.229" y="269.03" fill="#F3DBBD" width="1.034" height="12.553"/>
						<rect x="456.783" y="269.03" fill="#F3DBBD" width="1.032" height="12.553"/>
						<rect x="453.338" y="269.03" fill="#F3DBBD" width="1.031" height="12.553"/>
						<rect x="449.891" y="269.03" fill="#F3DBBD" width="1.033" height="12.553"/>
						<rect x="446.444" y="269.03" fill="#F3DBBD" width="1.034" height="12.553"/>
						<rect x="442.999" y="269.03" fill="#F3DBBD" width="1.032" height="12.553"/>
						<rect x="438.971" y="269.03" fill="#F3DBBD" width="1.617" height="12.553"/>
					</g>
				</g>
				<g>
					<rect x="437.238" y="280.869" fill="#F3DBBD" width="60.794" height="2.021"/>
				</g>
				<g>
					<rect x="437.238" y="268.757" fill="#F3DBBD" width="60.794" height="1.058"/>
				</g>
			</g>
		</g>
		<polygon fill="#103141" points="424.307,254.351 411.771,254.351 467.222,182.598 522.469,254.303 509.796,254.361 
			466.952,197.904 		"/>
		<rect x="426.754" y="281.927" fill="#103141" width="80.675" height="6.705"/>
		<polyline fill="#F3DBBD" points="426.754,327.264 426.754,320.358 507.429,320.358 507.429,327.264 		"/>
	</g>
	<g>
		<path fill="#AFCC3D" d="M525.481,313.09c0-4.574-3.71-8.284-8.286-8.284c-0.017,0-0.033,0-0.051,0
			c0.032-0.271,0.051-0.548,0.051-0.829c0-3.754-3.043-6.798-6.797-6.798c-2.509,0-4.698,1.362-5.878,3.387
			c-0.97-1.403-2.587-2.321-4.421-2.321c-2.465,0-4.541,1.66-5.176,3.922c-1.106-0.552-2.358-0.864-3.68-0.864
			c-4.575,0-8.285,3.709-8.285,8.285c0,2.789,1.378,5.253,3.487,6.755c-2.037,0.764-3.487,2.729-3.487,5.033
			c0,2.969,2.407,5.375,5.375,5.375h31.325c2.97,0,5.377-2.406,5.377-5.375c0-1.271-0.442-2.439-1.18-3.359
			C524.877,316.642,525.481,314.936,525.481,313.09z"/>
		<g>
			<circle fill="#E84525" cx="513.5" cy="314.745" r="1.143"/>
			<circle fill="#E84525" cx="497.32" cy="306.667" r="1.143"/>
			<circle fill="#E84525" cx="488.725" cy="310.1" r="1.143"/>
			<circle fill="#E84525" cx="491.227" cy="319.062" r="1.143"/>
			<circle fill="#E84525" cx="499.003" cy="323.795" r="1.142"/>
			<circle fill="#E84525" cx="501.29" cy="315.538" r="1.145"/>
			<circle fill="#E84525" cx="505.363" cy="307.403" r="1.143"/>
			<path fill="#E84525" d="M511.971,302.594c0,0.631-0.513,1.141-1.143,1.141c-0.632,0-1.143-0.51-1.143-1.141
				c0-0.633,0.511-1.144,1.143-1.144C511.458,301.45,511.971,301.961,511.971,302.594z"/>
			<circle fill="#E84525" cx="519.412" cy="309.69" r="1.143"/>
			<circle fill="#E84525" cx="518.892" cy="322.857" r="1.143"/>
			<circle fill="#E84525" cx="508.708" cy="319.835" r="1.143"/>
		</g>
	</g>
	<g>
		<path fill="#AFCC3D" d="M304.794,317.013c0-3.265-2.646-5.911-5.911-5.911c-0.011,0-0.024,0.002-0.038,0.002
			c0.024-0.195,0.038-0.392,0.038-0.594c0-2.677-2.171-4.848-4.849-4.848c-1.79,0-3.353,0.97-4.192,2.415
			c-0.692-1-1.846-1.654-3.153-1.654c-1.759,0-3.239,1.185-3.692,2.796c-0.791-0.393-1.682-0.615-2.625-0.615
			c-3.264,0-5.911,2.646-5.911,5.91c0,1.989,0.983,3.746,2.489,4.817c-1.453,0.546-2.489,1.948-2.489,3.591
			c0,2.119,1.716,3.836,3.835,3.836h22.347c2.118,0,3.834-1.717,3.834-3.836c0-0.906-0.316-1.737-0.842-2.395
			C304.363,319.545,304.794,318.329,304.794,317.013z"/>
		<g>
			<circle fill="#E84525" cx="296.248" cy="318.193" r="0.815"/>
			<circle fill="#E84525" cx="284.704" cy="312.431" r="0.816"/>
			<circle fill="#E84525" cx="278.573" cy="314.878" r="0.816"/>
			<circle fill="#E84525" cx="280.358" cy="321.272" r="0.815"/>
			<circle fill="#E84525" cx="285.906" cy="324.649" r="0.816"/>
			<circle fill="#E84525" cx="287.537" cy="318.759" r="0.815"/>
			<circle fill="#E84525" cx="290.443" cy="312.956" r="0.816"/>
			<circle fill="#E84525" cx="294.341" cy="309.524" r="0.815"/>
			<circle fill="#E84525" cx="300.464" cy="314.586" r="0.815"/>
			<circle fill="#E84525" cx="300.093" cy="323.979" r="0.815"/>
			<circle fill="#E84525" cx="292.829" cy="321.824" r="0.815"/>
		</g>
	</g>
	<g>
		<path fill="#AFCC3D" d="M396.227,318.15c0-3.138-2.545-5.682-5.684-5.682c-0.012,0-0.023,0.001-0.035,0.001
			c0.021-0.188,0.035-0.377,0.035-0.569c0-2.574-2.086-4.663-4.663-4.663c-1.72,0-3.223,0.935-4.029,2.322
			c-0.667-0.961-1.776-1.59-3.034-1.59c-1.69,0-3.114,1.137-3.549,2.688c-0.761-0.379-1.617-0.592-2.523-0.592
			c-3.139,0-5.684,2.545-5.684,5.683c0,1.912,0.946,3.603,2.394,4.633c-1.398,0.524-2.394,1.873-2.394,3.453
			c0,2.036,1.651,3.687,3.687,3.687h21.487c2.036,0,3.687-1.65,3.687-3.687c0-0.873-0.302-1.673-0.809-2.304
			C395.812,320.586,396.227,319.418,396.227,318.15z"/>
		<g>
			<circle fill="#E84525" cx="388.008" cy="319.286" r="0.784"/>
			<circle fill="#E84525" cx="376.909" cy="313.746" r="0.784"/>
			<circle fill="#E84525" cx="371.015" cy="316.099" r="0.784"/>
			<circle fill="#E84525" cx="372.73" cy="322.246" r="0.784"/>
			<circle fill="#E84525" cx="378.065" cy="325.494" r="0.784"/>
			<circle fill="#E84525" cx="379.633" cy="319.83" r="0.784"/>
			<circle fill="#E84525" cx="382.427" cy="314.25" r="0.784"/>
			<circle fill="#E84525" cx="386.175" cy="310.95" r="0.784"/>
			<circle fill="#E84525" cx="392.063" cy="315.819" r="0.784"/>
			<circle fill="#E84525" cx="391.706" cy="324.85" r="0.784"/>
			<circle fill="#E84525" cx="384.722" cy="322.777" r="0.784"/>
		</g>
	</g>
	<g>
		<g>
			<rect x="333.664" y="191.449" fill="#0B1A28" width="11.916" height="22.456"/>
			<rect x="311.517" y="239.729" fill="#FCBE34" width="67.899" height="87.015"/>
			<rect x="311.517" y="316.058" fill="#F3DBBD" width="67.899" height="10.687"/>
			<g>
				<rect x="318.97" y="252.946" fill="#916F16" width="13.006" height="17.253"/>
				<rect x="339.026" y="252.946" fill="#916F16" width="13.005" height="17.253"/>
				<rect x="359.083" y="252.946" fill="#916F16" width="13.006" height="17.253"/>
			</g>
			<g>
				<rect x="318.417" y="290.979" fill="#916F16" width="13.006" height="17.251"/>
				<rect x="338.473" y="290.979" fill="#916F16" width="13.005" height="17.251"/>
				<rect x="358.529" y="290.979" fill="#916F16" width="13.005" height="17.251"/>
			</g>
			<g>
				<rect x="311.517" y="205.222" fill="#082636" width="67.899" height="36.687"/>
				<g>
					<defs>
						<rect id="SVGID_7_" x="311.517" y="205.222" width="67.899" height="36.687"/>
					</defs>
					<clipPath id="SVGID_8_">
						<use xlink:href="#SVGID_7_"  overflow="visible"/>
					</clipPath>
					<g clip-path="url(#SVGID_8_)">
						<g>
							<path fill="#0B1A28" d="M321.177,207.068c0,1.338-1.065,2.422-2.38,2.422c-1.314,0-2.38-1.084-2.38-2.422
								s-0.606-2.424,2.38-2.424S321.177,205.73,321.177,207.068z"/>
							<path fill="#0B1A28" d="M321.177,213.904c0,1.338-1.065,2.423-2.38,2.423c-1.314,0-2.38-1.085-2.38-2.423
								c0-1.338-0.606-2.423,2.38-2.423S321.177,212.566,321.177,213.904z"/>
							<path fill="#0B1A28" d="M321.177,221.39c0,1.338-1.065,2.423-2.38,2.423c-1.314,0-2.38-1.085-2.38-2.423
								s-0.606-2.422,2.38-2.422S321.177,220.052,321.177,221.39z"/>
							<path fill="#0B1A28" d="M321.177,228.227c0,1.337-1.065,2.423-2.38,2.423c-1.314,0-2.38-1.086-2.38-2.423
								c0-1.339-0.606-2.422,2.38-2.422S321.177,226.887,321.177,228.227z"/>
							<path fill="#0B1A28" d="M321.177,235.712c0,1.337-1.065,2.422-2.38,2.422c-1.314,0-2.38-1.085-2.38-2.422
								c0-1.339-0.606-2.424,2.38-2.424S321.177,234.373,321.177,235.712z"/>
							<path fill="#0B1A28" d="M321.177,242.548c0,1.339-1.065,2.423-2.38,2.423c-1.314,0-2.38-1.083-2.38-2.423
								c0-1.337-0.606-2.423,2.38-2.423S321.177,241.21,321.177,242.548z"/>
						</g>
						<g>
							<path fill="#0B1A28" d="M326.037,210.486c0,1.338-1.065,2.423-2.379,2.423c-1.315,0-2.38-1.085-2.38-2.423
								c0-1.339-0.606-2.424,2.38-2.424C326.643,208.063,326.037,209.147,326.037,210.486z"/>
							<path fill="#0B1A28" d="M326.037,217.323c0,1.339-1.065,2.423-2.379,2.423c-1.315,0-2.38-1.084-2.38-2.423
								c0-1.337-0.606-2.422,2.38-2.422C326.643,214.9,326.037,215.985,326.037,217.323z"/>
							<path fill="#0B1A28" d="M326.037,224.808c0,1.337-1.065,2.423-2.379,2.423c-1.315,0-2.38-1.085-2.38-2.423
								s-0.606-2.423,2.38-2.423C326.643,222.385,326.037,223.471,326.037,224.808z"/>
							<path fill="#0B1A28" d="M326.037,231.645c0,1.337-1.065,2.422-2.379,2.422c-1.315,0-2.38-1.085-2.38-2.422
								c0-1.339-0.606-2.424,2.38-2.424C326.643,229.221,326.037,230.306,326.037,231.645z"/>
							<path fill="#0B1A28" d="M326.037,239.13c0,1.337-1.065,2.422-2.379,2.422c-1.315,0-2.38-1.085-2.38-2.422
								c0-1.338-0.606-2.422,2.38-2.422C326.643,236.708,326.037,237.792,326.037,239.13z"/>
							<path fill="#0B1A28" d="M326.037,245.965c0,1.339-1.065,2.424-2.379,2.424c-1.315,0-2.38-1.085-2.38-2.424
								c0-1.337-0.606-2.422,2.38-2.422C326.643,243.543,326.037,244.628,326.037,245.965z"/>
						</g>
						<g>
							<path fill="#0B1A28" d="M330.897,207.068c0,1.338-1.065,2.422-2.38,2.422c-1.314,0-2.38-1.084-2.38-2.422
								s-0.605-2.424,2.38-2.424C331.504,204.645,330.897,205.73,330.897,207.068z"/>
							<path fill="#0B1A28" d="M330.897,213.904c0,1.338-1.065,2.423-2.38,2.423c-1.314,0-2.38-1.085-2.38-2.423
								c0-1.338-0.605-2.423,2.38-2.423C331.504,211.481,330.897,212.566,330.897,213.904z"/>
							<path fill="#0B1A28" d="M330.897,221.39c0,1.338-1.065,2.423-2.38,2.423c-1.314,0-2.38-1.085-2.38-2.423
								s-0.605-2.422,2.38-2.422C331.504,218.967,330.897,220.052,330.897,221.39z"/>
							<path fill="#0B1A28" d="M330.897,228.227c0,1.337-1.065,2.423-2.38,2.423c-1.314,0-2.38-1.086-2.38-2.423
								c0-1.339-0.605-2.422,2.38-2.422C331.504,225.805,330.897,226.887,330.897,228.227z"/>
							<path fill="#0B1A28" d="M330.897,235.712c0,1.337-1.065,2.422-2.38,2.422c-1.314,0-2.38-1.085-2.38-2.422
								c0-1.339-0.605-2.424,2.38-2.424C331.504,233.288,330.897,234.373,330.897,235.712z"/>
							<path fill="#0B1A28" d="M330.897,242.548c0,1.339-1.065,2.423-2.38,2.423c-1.314,0-2.38-1.083-2.38-2.423
								c0-1.337-0.605-2.423,2.38-2.423C331.504,240.125,330.897,241.21,330.897,242.548z"/>
						</g>
						<g>
							<path fill="#0B1A28" d="M335.758,210.486c0,1.338-1.065,2.423-2.38,2.423c-1.314,0-2.379-1.085-2.379-2.423
								c0-1.339-0.606-2.424,2.379-2.424C336.364,208.063,335.758,209.147,335.758,210.486z"/>
							<path fill="#0B1A28" d="M335.758,217.323c0,1.339-1.065,2.423-2.38,2.423c-1.314,0-2.379-1.084-2.379-2.423
								c0-1.337-0.606-2.422,2.379-2.422C336.364,214.9,335.758,215.985,335.758,217.323z"/>
							<path fill="#0B1A28" d="M335.758,224.808c0,1.337-1.065,2.423-2.38,2.423c-1.314,0-2.379-1.085-2.379-2.423
								s-0.606-2.423,2.379-2.423C336.364,222.385,335.758,223.471,335.758,224.808z"/>
							<path fill="#0B1A28" d="M335.758,231.645c0,1.337-1.065,2.422-2.38,2.422c-1.314,0-2.379-1.085-2.379-2.422
								c0-1.339-0.606-2.424,2.379-2.424C336.364,229.221,335.758,230.306,335.758,231.645z"/>
							<path fill="#0B1A28" d="M335.758,239.13c0,1.337-1.065,2.422-2.38,2.422c-1.314,0-2.379-1.085-2.379-2.422
								c0-1.338-0.606-2.422,2.379-2.422C336.364,236.708,335.758,237.792,335.758,239.13z"/>
							<path fill="#0B1A28" d="M335.758,245.965c0,1.339-1.065,2.424-2.38,2.424c-1.314,0-2.379-1.085-2.379-2.424
								c0-1.337-0.606-2.422,2.379-2.422C336.364,243.543,335.758,244.628,335.758,245.965z"/>
						</g>
						<g>
							<path fill="#0B1A28" d="M340.618,207.068c0,1.338-1.065,2.422-2.38,2.422c-1.314,0-2.38-1.084-2.38-2.422
								s-0.605-2.424,2.38-2.424S340.618,205.73,340.618,207.068z"/>
							<path fill="#0B1A28" d="M340.618,213.904c0,1.338-1.065,2.423-2.38,2.423c-1.314,0-2.38-1.085-2.38-2.423
								c0-1.338-0.605-2.423,2.38-2.423S340.618,212.566,340.618,213.904z"/>
							<path fill="#0B1A28" d="M340.618,221.39c0,1.338-1.065,2.423-2.38,2.423c-1.314,0-2.38-1.085-2.38-2.423
								s-0.605-2.422,2.38-2.422S340.618,220.052,340.618,221.39z"/>
							<path fill="#0B1A28" d="M340.618,228.227c0,1.337-1.065,2.423-2.38,2.423c-1.314,0-2.38-1.086-2.38-2.423
								c0-1.339-0.605-2.422,2.38-2.422S340.618,226.887,340.618,228.227z"/>
							<path fill="#0B1A28" d="M340.618,235.712c0,1.337-1.065,2.422-2.38,2.422c-1.314,0-2.38-1.085-2.38-2.422
								c0-1.339-0.605-2.424,2.38-2.424S340.618,234.373,340.618,235.712z"/>
							<path fill="#0B1A28" d="M340.618,242.548c0,1.339-1.065,2.423-2.38,2.423c-1.314,0-2.38-1.083-2.38-2.423
								c0-1.337-0.605-2.423,2.38-2.423S340.618,241.21,340.618,242.548z"/>
						</g>
						<g>
							<path fill="#0B1A28" d="M345.478,210.486c0,1.338-1.064,2.423-2.379,2.423c-1.314,0-2.379-1.085-2.379-2.423
								c0-1.339-0.607-2.424,2.379-2.424C346.085,208.063,345.478,209.147,345.478,210.486z"/>
							<path fill="#0B1A28" d="M345.478,217.323c0,1.339-1.064,2.423-2.379,2.423c-1.314,0-2.379-1.084-2.379-2.423
								c0-1.337-0.607-2.422,2.379-2.422C346.085,214.9,345.478,215.985,345.478,217.323z"/>
							<path fill="#0B1A28" d="M345.478,224.808c0,1.337-1.064,2.423-2.379,2.423c-1.314,0-2.379-1.085-2.379-2.423
								s-0.607-2.423,2.379-2.423C346.085,222.385,345.478,223.471,345.478,224.808z"/>
							<path fill="#0B1A28" d="M345.478,231.645c0,1.337-1.064,2.422-2.379,2.422c-1.314,0-2.379-1.085-2.379-2.422
								c0-1.339-0.607-2.424,2.379-2.424C346.085,229.221,345.478,230.306,345.478,231.645z"/>
							<path fill="#0B1A28" d="M345.478,239.13c0,1.337-1.064,2.422-2.379,2.422c-1.314,0-2.379-1.085-2.379-2.422
								c0-1.338-0.607-2.422,2.379-2.422C346.085,236.708,345.478,237.792,345.478,239.13z"/>
							<path fill="#0B1A28" d="M345.478,245.965c0,1.339-1.064,2.424-2.379,2.424c-1.314,0-2.379-1.085-2.379-2.424
								c0-1.337-0.607-2.422,2.379-2.422C346.085,243.543,345.478,244.628,345.478,245.965z"/>
						</g>
						<g>
							<path fill="#0B1A28" d="M350.339,207.068c0,1.338-1.067,2.422-2.381,2.422c-1.313,0-2.379-1.084-2.379-2.422
								s-0.606-2.424,2.379-2.424S350.339,205.73,350.339,207.068z"/>
							<path fill="#0B1A28" d="M350.339,213.904c0,1.338-1.067,2.423-2.381,2.423c-1.313,0-2.379-1.085-2.379-2.423
								c0-1.338-0.606-2.423,2.379-2.423S350.339,212.566,350.339,213.904z"/>
							<path fill="#0B1A28" d="M350.339,221.39c0,1.338-1.067,2.423-2.381,2.423c-1.313,0-2.379-1.085-2.379-2.423
								s-0.606-2.422,2.379-2.422S350.339,220.052,350.339,221.39z"/>
							<path fill="#0B1A28" d="M350.339,228.227c0,1.337-1.067,2.423-2.381,2.423c-1.313,0-2.379-1.086-2.379-2.423
								c0-1.339-0.606-2.422,2.379-2.422S350.339,226.887,350.339,228.227z"/>
							<path fill="#0B1A28" d="M350.339,235.712c0,1.337-1.067,2.422-2.381,2.422c-1.313,0-2.379-1.085-2.379-2.422
								c0-1.339-0.606-2.424,2.379-2.424S350.339,234.373,350.339,235.712z"/>
							<path fill="#0B1A28" d="M350.339,242.548c0,1.339-1.067,2.423-2.381,2.423c-1.313,0-2.379-1.083-2.379-2.423
								c0-1.337-0.606-2.423,2.379-2.423S350.339,241.21,350.339,242.548z"/>
						</g>
						<g>
							<path fill="#0B1A28" d="M355.199,210.486c0,1.338-1.066,2.423-2.38,2.423c-1.314,0-2.379-1.085-2.379-2.423
								c0-1.339-0.606-2.424,2.379-2.424C355.806,208.063,355.199,209.147,355.199,210.486z"/>
							<path fill="#0B1A28" d="M355.199,217.323c0,1.339-1.066,2.423-2.38,2.423c-1.314,0-2.379-1.084-2.379-2.423
								c0-1.337-0.606-2.422,2.379-2.422C355.806,214.9,355.199,215.985,355.199,217.323z"/>
							<path fill="#0B1A28" d="M355.199,224.808c0,1.337-1.066,2.423-2.38,2.423c-1.314,0-2.379-1.085-2.379-2.423
								s-0.606-2.423,2.379-2.423C355.806,222.385,355.199,223.471,355.199,224.808z"/>
							<path fill="#0B1A28" d="M355.199,231.645c0,1.337-1.066,2.422-2.38,2.422c-1.314,0-2.379-1.085-2.379-2.422
								c0-1.339-0.606-2.424,2.379-2.424C355.806,229.221,355.199,230.306,355.199,231.645z"/>
							<path fill="#0B1A28" d="M355.199,239.13c0,1.337-1.066,2.422-2.38,2.422c-1.314,0-2.379-1.085-2.379-2.422
								c0-1.338-0.606-2.422,2.379-2.422C355.806,236.708,355.199,237.792,355.199,239.13z"/>
							<path fill="#0B1A28" d="M355.199,245.965c0,1.339-1.066,2.424-2.38,2.424c-1.314,0-2.379-1.085-2.379-2.424
								c0-1.337-0.606-2.422,2.379-2.422C355.806,243.543,355.199,244.628,355.199,245.965z"/>
						</g>
						<g>
							<path fill="#0B1A28" d="M360.061,207.068c0,1.338-1.066,2.422-2.381,2.422c-1.313,0-2.38-1.084-2.38-2.422
								s-0.606-2.424,2.38-2.424C360.665,204.645,360.061,205.73,360.061,207.068z"/>
							<path fill="#0B1A28" d="M360.061,213.904c0,1.338-1.066,2.423-2.381,2.423c-1.313,0-2.38-1.085-2.38-2.423
								c0-1.338-0.606-2.423,2.38-2.423C360.665,211.481,360.061,212.566,360.061,213.904z"/>
							<path fill="#0B1A28" d="M360.061,221.39c0,1.338-1.066,2.423-2.381,2.423c-1.313,0-2.38-1.085-2.38-2.423
								s-0.606-2.422,2.38-2.422C360.665,218.967,360.061,220.052,360.061,221.39z"/>
							<path fill="#0B1A28" d="M360.061,228.227c0,1.337-1.066,2.423-2.381,2.423c-1.313,0-2.38-1.086-2.38-2.423
								c0-1.339-0.606-2.422,2.38-2.422C360.665,225.805,360.061,226.887,360.061,228.227z"/>
							<path fill="#0B1A28" d="M360.061,235.712c0,1.337-1.066,2.422-2.381,2.422c-1.313,0-2.38-1.085-2.38-2.422
								c0-1.339-0.606-2.424,2.38-2.424C360.665,233.288,360.061,234.373,360.061,235.712z"/>
							<path fill="#0B1A28" d="M360.061,242.548c0,1.339-1.066,2.423-2.381,2.423c-1.313,0-2.38-1.083-2.38-2.423
								c0-1.337-0.606-2.423,2.38-2.423C360.665,240.125,360.061,241.21,360.061,242.548z"/>
						</g>
						<g>
							<path fill="#0B1A28" d="M364.919,210.486c0,1.338-1.065,2.423-2.379,2.423c-1.314,0-2.379-1.085-2.379-2.423
								c0-1.339-0.605-2.424,2.379-2.424S364.919,209.147,364.919,210.486z"/>
							<path fill="#0B1A28" d="M364.919,217.323c0,1.339-1.065,2.423-2.379,2.423c-1.314,0-2.379-1.084-2.379-2.423
								c0-1.337-0.605-2.422,2.379-2.422S364.919,215.985,364.919,217.323z"/>
							<path fill="#0B1A28" d="M364.919,224.808c0,1.337-1.065,2.423-2.379,2.423c-1.314,0-2.379-1.085-2.379-2.423
								s-0.605-2.423,2.379-2.423S364.919,223.471,364.919,224.808z"/>
							<path fill="#0B1A28" d="M364.919,231.645c0,1.337-1.065,2.422-2.379,2.422c-1.314,0-2.379-1.085-2.379-2.422
								c0-1.339-0.605-2.424,2.379-2.424S364.919,230.306,364.919,231.645z"/>
							<path fill="#0B1A28" d="M364.919,239.13c0,1.337-1.065,2.422-2.379,2.422c-1.314,0-2.379-1.085-2.379-2.422
								c0-1.338-0.605-2.422,2.379-2.422S364.919,237.792,364.919,239.13z"/>
							<path fill="#0B1A28" d="M364.919,245.965c0,1.339-1.065,2.424-2.379,2.424c-1.314,0-2.379-1.085-2.379-2.424
								c0-1.337-0.605-2.422,2.379-2.422S364.919,244.628,364.919,245.965z"/>
						</g>
						<g>
							<path fill="#0B1A28" d="M369.78,207.068c0,1.338-1.065,2.422-2.378,2.422c-1.316,0-2.381-1.084-2.381-2.422
								s-0.605-2.424,2.381-2.424C370.385,204.645,369.78,205.73,369.78,207.068z"/>
							<path fill="#0B1A28" d="M369.78,213.904c0,1.338-1.065,2.423-2.378,2.423c-1.316,0-2.381-1.085-2.381-2.423
								c0-1.338-0.605-2.423,2.381-2.423C370.385,211.481,369.78,212.566,369.78,213.904z"/>
							<path fill="#0B1A28" d="M369.78,221.39c0,1.338-1.065,2.423-2.378,2.423c-1.316,0-2.381-1.085-2.381-2.423
								s-0.605-2.422,2.381-2.422C370.385,218.967,369.78,220.052,369.78,221.39z"/>
							<path fill="#0B1A28" d="M369.78,228.227c0,1.337-1.065,2.423-2.378,2.423c-1.316,0-2.381-1.086-2.381-2.423
								c0-1.339-0.605-2.422,2.381-2.422C370.385,225.805,369.78,226.887,369.78,228.227z"/>
							<path fill="#0B1A28" d="M369.78,235.712c0,1.337-1.065,2.422-2.378,2.422c-1.316,0-2.381-1.085-2.381-2.422
								c0-1.339-0.605-2.424,2.381-2.424C370.385,233.288,369.78,234.373,369.78,235.712z"/>
							<path fill="#0B1A28" d="M369.78,242.548c0,1.339-1.065,2.423-2.378,2.423c-1.316,0-2.381-1.083-2.381-2.423
								c0-1.337-0.605-2.423,2.381-2.423C370.385,240.125,369.78,241.21,369.78,242.548z"/>
						</g>
						<g>
							<path fill="#0B1A28" d="M374.641,210.486c0,1.338-1.065,2.423-2.379,2.423s-2.379-1.085-2.379-2.423
								c0-1.339-0.606-2.424,2.379-2.424C375.246,208.063,374.641,209.147,374.641,210.486z"/>
							<path fill="#0B1A28" d="M374.641,217.323c0,1.339-1.065,2.423-2.379,2.423s-2.379-1.084-2.379-2.423
								c0-1.337-0.606-2.422,2.379-2.422C375.246,214.9,374.641,215.985,374.641,217.323z"/>
							<path fill="#0B1A28" d="M374.641,224.808c0,1.337-1.065,2.423-2.379,2.423s-2.379-1.085-2.379-2.423
								s-0.606-2.423,2.379-2.423C375.246,222.385,374.641,223.471,374.641,224.808z"/>
							<path fill="#0B1A28" d="M374.641,231.645c0,1.337-1.065,2.422-2.379,2.422s-2.379-1.085-2.379-2.422
								c0-1.339-0.606-2.424,2.379-2.424C375.246,229.221,374.641,230.306,374.641,231.645z"/>
							<path fill="#0B1A28" d="M374.641,239.13c0,1.337-1.065,2.422-2.379,2.422s-2.379-1.085-2.379-2.422
								c0-1.338-0.606-2.422,2.379-2.422C375.246,236.708,374.641,237.792,374.641,239.13z"/>
							<path fill="#0B1A28" d="M374.641,245.965c0,1.339-1.065,2.424-2.379,2.424s-2.379-1.085-2.379-2.424
								c0-1.337-0.606-2.422,2.379-2.422C375.246,243.543,374.641,244.628,374.641,245.965z"/>
						</g>
					</g>
				</g>
			</g>
			<rect x="311.517" y="202.06" fill="#103141" width="5.469" height="39.85"/>
			<rect x="373.946" y="202.06" fill="#103141" width="5.469" height="39.85"/>
			<rect x="309.316" y="241.909" fill="#103141" width="71.792" height="3.953"/>
		</g>
		<g>
			<g>
				<g>
					<path fill="#674C3C" d="M314.838,284.408c0,0.989-0.913,1.791-2.042,1.791c-1.127,0-2.041-0.802-2.041-1.791
						c0-0.299,0-1.995,0-1.995l4.082,0.014C314.838,282.428,314.838,283.418,314.838,284.408z"/>
					<path fill="#CE9134" d="M318.923,284.408c0,0.989-0.915,1.791-2.042,1.791c-1.129,0-2.043-0.802-2.043-1.791
						c0-0.299,0-1.995,0-1.995l4.085,0.014C318.923,282.428,318.923,283.418,318.923,284.408z"/>
				</g>
				<g>
					<path fill="#674C3C" d="M323.006,284.408c0,0.989-0.914,1.791-2.041,1.791c-1.127,0-2.042-0.802-2.042-1.791
						c-0.001-0.299,0-1.995,0-1.995l4.083,0.014C323.006,282.428,323.006,283.418,323.006,284.408z"/>
					<path fill="#CE9134" d="M327.091,284.408c0,0.989-0.915,1.791-2.042,1.791c-1.128,0-2.043-0.802-2.043-1.791
						c0-0.299,0-1.995,0-1.995l4.085,0.014C327.091,282.428,327.091,283.418,327.091,284.408z"/>
				</g>
				<g>
					<path fill="#674C3C" d="M331.173,284.408c0,0.989-0.914,1.791-2.041,1.791s-2.042-0.802-2.042-1.791c0-0.299,0-1.995,0-1.995
						l4.083,0.014C331.173,282.428,331.173,283.418,331.173,284.408z"/>
					<path fill="#CE9134" d="M335.257,284.408c0,0.989-0.915,1.791-2.042,1.791c-1.127,0-2.042-0.802-2.042-1.791
						c0-0.299,0-1.995,0-1.995l4.084,0.014C335.257,282.428,335.257,283.418,335.257,284.408z"/>
				</g>
				<g>
					<path fill="#674C3C" d="M339.34,284.408c0,0.989-0.914,1.791-2.041,1.791c-1.128,0-2.042-0.802-2.042-1.791
						c0-0.299,0-1.995,0-1.995l4.083,0.014C339.34,282.428,339.34,283.418,339.34,284.408z"/>
					<path fill="#CE9134" d="M343.424,284.408c0,0.989-0.915,1.791-2.042,1.791c-1.128,0-2.042-0.802-2.042-1.791
						c0-0.299,0-1.995,0-1.995l4.084,0.014C343.424,282.428,343.424,283.418,343.424,284.408z"/>
				</g>
				<g>
					<path fill="#674C3C" d="M347.508,284.408c0,0.989-0.914,1.791-2.042,1.791c-1.127,0-2.042-0.802-2.042-1.791
						c0-0.299,0-1.995,0-1.995l4.083,0.014C347.508,282.428,347.508,283.418,347.508,284.408z"/>
					<path fill="#CE9134" d="M351.591,284.408c0,0.989-0.914,1.791-2.042,1.791c-1.127,0-2.041-0.802-2.041-1.791
						c0-0.299,0-1.995,0-1.995l4.083,0.014C351.591,282.428,351.591,283.418,351.591,284.408z"/>
				</g>
				<g>
					<path fill="#674C3C" d="M355.675,284.408c0,0.989-0.914,1.791-2.042,1.791c-1.128,0-2.042-0.802-2.042-1.791
						c0-0.299,0-1.995,0-1.995l4.084,0.014C355.675,282.428,355.675,283.418,355.675,284.408z"/>
					<path fill="#CE9134" d="M359.758,284.408c0,0.989-0.915,1.791-2.042,1.791c-1.127,0-2.042-0.802-2.042-1.791
						c0-0.299,0-1.995,0-1.995l4.083,0.014C359.758,282.428,359.758,283.418,359.758,284.408z"/>
				</g>
				<g>
					<path fill="#674C3C" d="M363.842,284.408c0,0.989-0.915,1.791-2.042,1.791s-2.042-0.802-2.042-1.791c0-0.299,0-1.995,0-1.995
						l4.084,0.014C363.842,282.428,363.842,283.418,363.842,284.408z"/>
					<path fill="#CE9134" d="M367.925,284.408c0,0.989-0.913,1.791-2.042,1.791c-1.127,0-2.041-0.802-2.041-1.791
						c0-0.299,0-1.995,0-1.995l4.083,0.014C367.925,282.428,367.925,283.418,367.925,284.408z"/>
				</g>
				<g>
					<path fill="#674C3C" d="M372.009,284.408c0,0.989-0.914,1.791-2.042,1.791c-1.128,0-2.042-0.802-2.042-1.791
						c0-0.299,0-1.995,0-1.995l4.084,0.014C372.009,282.428,372.009,283.418,372.009,284.408z"/>
					<path fill="#CE9134" d="M376.091,284.408c0,0.989-0.913,1.791-2.04,1.791c-1.129,0-2.043-0.802-2.043-1.791
						c0-0.299,0-1.995,0-1.995l4.083,0.014C376.091,282.428,376.091,283.418,376.091,284.408z"/>
				</g>
				<g>
					<path fill="#674C3C" d="M380.177,284.408c0,0.989-0.915,1.791-2.042,1.791s-2.043-0.802-2.043-1.791c0-0.299,0-1.995,0-1.995
						l4.085,0.014C380.177,282.428,380.177,283.418,380.177,284.408z"/>
				</g>
			</g>
			<g>
				<rect x="310.756" y="280.275" fill="#F3DBBD" width="69.42" height="2.138"/>
			</g>
		</g>
	</g>
	<circle fill="#FCBE34" cx="493.398" cy="100.16" r="28.934"/>
	<path fill="#FEF0E3" d="M415.895,135.044c0.128-0.811,0.195-1.641,0.195-2.486c0-8.799-7.134-15.932-15.933-15.932
		c-7.805,0-14.295,5.614-15.663,13.023c-0.601-0.103-1.216-0.16-1.845-0.16c-4.807,0-8.878,3.14-10.28,7.479
		c-1.403-4.339-5.475-7.479-10.28-7.479c-5.968,0-10.805,4.837-10.805,10.804c0,1.168,0.188,2.293,0.531,3.347
		c-4.791,1.106-8.365,5.397-8.365,10.525c0,5.966,4.836,10.803,10.803,10.803c2.198,0,4.243-0.658,5.95-1.786
		c2.515,5.49,8.053,9.305,14.488,9.305c6.047,0,11.311-3.371,14.008-8.337c2.277,2.954,5.848,4.858,9.866,4.858
		c6.877,0,12.453-5.575,12.453-12.453c0-0.193-0.006-0.385-0.015-0.575c1.092,0.371,2.262,0.575,3.478,0.575
		c5.968,0,10.804-4.837,10.804-10.804C425.285,140.266,421.194,135.736,415.895,135.044z M391.76,146.098
		c0.008,0.005,0.016,0.01,0.024,0.016c-0.02,0.012-0.039,0.025-0.059,0.038C391.739,146.133,391.749,146.116,391.76,146.098z"/>
	<path fill="#FEF0E3" d="M549.143,117.877c0.15-0.956,0.229-1.933,0.229-2.931c0-10.373-8.408-18.786-18.782-18.786
		c-9.205,0-16.857,6.621-18.47,15.357c-0.707-0.122-1.434-0.188-2.174-0.188c-5.668,0-10.468,3.703-12.122,8.819
		c-1.654-5.116-6.453-8.819-12.12-8.819c-7.036,0-12.738,5.704-12.738,12.739c0,1.378,0.221,2.703,0.627,3.947
		c-5.65,1.304-9.864,6.362-9.864,12.408c0,7.035,5.702,12.737,12.738,12.737c2.592,0,5.002-0.775,7.013-2.105
		c2.968,6.473,9.497,10.97,17.083,10.97c7.131,0,13.335-3.975,16.517-9.83c2.685,3.482,6.896,5.728,11.631,5.728
		c8.111,0,14.684-6.572,14.684-14.682c0-0.228-0.006-0.455-0.016-0.678c1.288,0.438,2.664,0.678,4.1,0.678
		c7.036,0,12.738-5.703,12.738-12.738C560.215,124.033,555.391,118.693,549.143,117.877z M520.687,130.91
		c0.01,0.007,0.019,0.013,0.029,0.019c-0.022,0.015-0.045,0.029-0.068,0.044C520.66,130.952,520.675,130.931,520.687,130.91z"/>
	<g>
		<rect x="316.127" y="313.137" fill="#414142" width="1.507" height="13.639"/>
		<rect x="315.703" y="313.012" fill="#373739" width="2.354" height="1.896"/>
	</g>
	<g>
		<rect x="352.448" y="313.198" fill="#414142" width="1.507" height="13.638"/>
		<rect x="352.024" y="313.073" fill="#373739" width="2.355" height="1.896"/>
	</g>
	<g>
		<rect x="388.769" y="313.262" fill="#414142" width="1.508" height="13.639"/>
		<rect x="388.345" y="313.137" fill="#373739" width="2.355" height="1.896"/>
	</g>
	<g>
		<rect x="425.089" y="313.324" fill="#414142" width="1.508" height="13.638"/>
		<rect x="424.666" y="313.199" fill="#373739" width="2.354" height="1.896"/>
	</g>
	<g>
		<rect x="461.41" y="313.386" fill="#414142" width="1.508" height="13.64"/>
		<rect x="460.987" y="313.263" fill="#373739" width="2.354" height="1.894"/>
	</g>
	<g>
		<rect x="497.732" y="313.449" fill="#414142" width="1.507" height="13.639"/>
		<rect x="497.308" y="313.324" fill="#373739" width="2.354" height="1.896"/>
	</g>
	<g>
		<rect x="534.053" y="313.512" fill="#414142" width="1.508" height="13.639"/>
		<rect x="533.629" y="313.387" fill="#373739" width="2.355" height="1.896"/>
	</g>
	<g>
		<rect x="570.374" y="313.574" fill="#414142" width="1.509" height="13.638"/>
		<rect x="569.952" y="313.449" fill="#373739" width="2.353" height="1.896"/>
	</g>
	<g>
		<rect x="606.693" y="313.637" fill="#414142" width="1.51" height="13.638"/>
		<rect x="606.272" y="313.512" fill="#373739" width="2.354" height="1.896"/>
	</g>
	<polygon fill="#437786" points="620.518,336.371 285.967,336.371 277.063,326.676 631.63,326.676 	"/>
	<g>
		<path fill="#373739" d="M413.004,266.859c-0.305-2.885-2.744-5.132-5.71-5.132c-3.172,0-5.742,2.571-5.742,5.742
			c2.68,0,6.752,0,9.443,0v59.207h2.043v-59.816H413.004z"/>
		<path fill="#373739" d="M611.15,266.859c-0.305-2.885-2.744-5.132-5.711-5.132c-3.17,0-5.741,2.571-5.741,5.742
			c2.68,0,6.752,0,9.441,0v59.207h2.044v-59.816H611.15z"/>
		<path fill="#373739" d="M511.341,266.935c-0.304-2.885-2.744-5.133-5.709-5.133c-3.172,0-5.743,2.571-5.743,5.742
			c2.682,0,6.753,0,9.444,0v59.207h2.041v-59.816H511.341z"/>
		<path fill="#373739" d="M314.711,266.958c-0.305-2.884-2.744-5.132-5.709-5.132c-3.172,0-5.743,2.571-5.743,5.744
			c2.681,0,6.752,0,9.444,0v59.207h2.042v-59.818H314.711z"/>
	</g>
	<g>
		<g>
			<path fill="none" d="M329.958,318.051c-1.102,2.054-2.143,3.602-2.231,3.734l-0.802-0.543c0.021-0.031,1.083-1.612,2.198-3.692
				c-0.549-0.25-1.157-0.394-1.798-0.394c-2.403,0-4.357,1.955-4.357,4.356s1.954,4.357,4.357,4.357
				c2.402,0,4.356-1.956,4.356-4.357C331.681,320.101,331.003,318.85,329.958,318.051z"/>
			<path fill="#373739" d="M330.957,315.734c0.106-0.228,1.106-2.839,1.976-4.948c0.214-0.368,0.369-0.421,0.62-0.412l0,0.317
				v-1.086c-1.051,0.014-1.412,1.009-1.412,1.009c-0.685,1.523-1.171,3.084-1.946,4.785c-2.101-0.801-4.041-0.451-4.381-0.432
				c-0.955,0.138-1.329,0.93-0.502,0.885c3.175-0.444,4.464,0.428,4.464,0.428s-0.136,0.275-0.203,0.409
				c-0.684-0.317-1.442-0.502-2.245-0.502c-2.937,0-5.324,2.39-5.324,5.325c0,2.935,2.389,5.323,5.324,5.323
				s5.324-2.389,5.324-5.323c0-1.784-0.887-3.362-2.237-4.329c0.083-0.165,0.166-0.331,0.249-0.498
				c0.408,0.156,0.988,0.693,0.988,0.693s1.866,1.584,1.605,4.134c-0.115,0.621,0.577,0.89,0.749,0.018
				c0.097-0.743-0.024-2.128-0.465-2.828c0,0,1.483,1.075,2.293,2.491c-0.008,0.345,0.076,0.634,0.221,0.858v-1.8
				C335.607,319.62,334.171,317.838,330.957,315.734z M331.681,321.513c0,2.401-1.954,4.357-4.356,4.357
				c-2.403,0-4.357-1.956-4.357-4.357s1.954-4.356,4.357-4.356c0.641,0,1.249,0.144,1.798,0.394
				c-1.115,2.08-2.178,3.661-2.198,3.692l0.802,0.543c0.088-0.133,1.129-1.681,2.231-3.734
				C331.003,318.85,331.681,320.101,331.681,321.513z"/>
			<path fill="#F28D25" d="M335.727,317.935c-0.262,0.086-0.146,0.485,0,0.483c0.08,0,0.218,0,0.328,0v-0.482
				C335.892,317.936,335.763,317.935,335.727,317.935z"/>
			<path fill="#373739" d="M349.525,321.513c-0.003-2.936-2.391-5.324-5.325-5.324c-0.197,0-0.39,0.014-0.58,0.032h-1.473
				c0.185-0.111,0.41-0.218,0.688-0.299c1.017-0.298,3.481-0.466,5.869,1.801c0.624,0.611,1.297-0.139,0.439-0.96
				c-2.17-1.928-4.888-2.29-6.627-1.757c-1.012,0.307-1.557,0.894-1.796,1.215h-0.22l1.988-3.438c0,0,1.374,0,1.711,0
				c0.764-0.392,0.306-0.944,0-0.967c-0.167-0.006-2.955,0-3.191,0c-0.815,0.177-0.399,0.967-0.007,0.969
				c0.138-0.017,0.371,0,0.371,0l-4.223,7.306c-0.027,0-0.052-0.008-0.078-0.008c-0.02,0-0.038,0.004-0.056,0.008l-0.307-1.672
				c0,0,0.33,0,0.363,0c0.251-0.206,0.083-0.47,0-0.483c-0.029,0.001-0.625,0.001-1.017,0.001v0.482c0.092,0,0.164,0,0.164,0
				l0.326,1.783c-0.194,0.118-0.267,0.195-0.325,0.299c0,0-0.051-0.089-0.165-0.248v1.8c0.225,0.348,0.598,0.537,1.019,0.537
				c0.449,0,0.84-0.237,1.061-0.593h0.77c0.245,2.71,2.526,4.84,5.3,4.84C347.139,326.836,349.525,324.447,349.525,321.513z
				 M338.9,321.03h-0.62c-0.045-0.18-0.13-0.345-0.244-0.483l2.026-3.357h1.042C339.882,318.068,339.044,319.449,338.9,321.03z
				 M343.686,317.189h0.029v3.841h-3.842C340.094,319.024,341.684,317.427,343.686,317.189z M344.2,325.87
				c-2.239,0-4.087-1.698-4.327-3.873h4.811v-4.812c2.175,0.243,3.871,2.089,3.871,4.327
				C348.555,323.914,346.601,325.87,344.2,325.87z"/>
		</g>
		<g>
			<g>
				<path fill="none" d="M343.715,317.189h-0.029c-2.002,0.237-3.591,1.835-3.813,3.841h3.842V317.189z"/>
				<path fill="none" d="M341.104,317.189h-1.042l-2.026,3.357c0.114,0.139,0.199,0.304,0.244,0.483h0.62
					C339.044,319.449,339.882,318.068,341.104,317.189z"/>
				<path fill="none" d="M329.958,318.051c-1.102,2.054-2.143,3.602-2.231,3.734l-0.802-0.543c0.021-0.031,1.083-1.612,2.198-3.692
					c-0.549-0.25-1.157-0.394-1.798-0.394c-2.403,0-4.357,1.955-4.357,4.356s1.954,4.357,4.357,4.357
					c2.402,0,4.356-1.956,4.356-4.357C331.681,320.101,331.003,318.85,329.958,318.051z"/>
				<path fill="none" d="M344.684,317.186v4.812h-4.811c0.24,2.175,2.088,3.873,4.327,3.873c2.401,0,4.355-1.956,4.355-4.357
					C348.555,319.274,346.859,317.429,344.684,317.186z"/>
				<path fill="#81502B" d="M335.66,310.695c0,0,0-0.003,0.003-0.004h-2.11C334.01,310.712,334.667,310.696,335.66,310.695z"/>
				<path fill="#EF774C" d="M333.575,309.348c0.683-0.005,1.165,0.006,2.112-0.001h-2.134v0.259c0.007,0,0.013-0.001,0.021-0.001
					L333.575,309.348z"/>
				<path fill="#F28D25" d="M335.663,310.691c0.056-0.049,0.784-0.717,0.024-1.345c-0.948,0.007-1.429-0.004-2.112,0.001
					l-0.001,0.257c-0.008,0-0.014,0.001-0.021,0.001v1.086H335.663z"/>
			</g>
			<circle fill="#103141" cx="327.318" cy="321.508" r="1.647"/>
			<circle fill="#FFFFFF" cx="327.318" cy="321.508" r="0.624"/>
			<circle fill="#103141" cx="344.463" cy="321.508" r="1.647"/>
			<circle fill="#FFFFFF" cx="344.463" cy="321.508" r="0.623"/>
			<path fill="#F28D25" d="M344.464,319.861c0.909,0,1.646,0.737,1.646,1.646c0,0.911-0.737,1.647-1.646,1.647
				c-0.081,0-0.159-0.007-0.237-0.02l-7.109-0.565c-0.667,0-1.208-0.541-1.208-1.208c0-0.668,0.541-1.21,1.208-1.21L344.464,319.861
				 M344.464,319.422h-0.009h-0.008l-7.337,0.292c-0.905,0.006-1.638,0.743-1.638,1.648c0,0.902,0.729,1.637,1.629,1.646l7.08,0.564
				c0.104,0.015,0.194,0.021,0.284,0.021c1.149,0,2.086-0.936,2.086-2.087C346.55,320.357,345.613,319.422,344.464,319.422
				L344.464,319.422z"/>
		</g>
	</g>
</g>
<path fill="none" stroke="#FEF0E3" stroke-width="19" stroke-miterlimit="10" d="M76.351,297.343
	c13.598,36.161,49.042,59.005,85.338,67.973c10.044,2.475,19.593,3.722,29.932,3.339c3.726-0.146,7.462-0.359,11.196-0.62
	c0.219,0.307,0.433,0.627,0.663,0.927c11.369,15.424,25.889,30.227,42.261,40.343c34.737,21.443,82.64,28.764,120.349,10.683
	c9.457-4.525,17.747-10.399,25.168-17.284c19.307,14.198,41.086,25.371,62.899,33.635c42.101,15.952,88.789,22.354,133.245,13.463
	c32.231-6.448,65.017-21.006,85.269-47.258c31.918,2.703,64.209-3.944,91.185-23.052c31.84-22.545,55.69-62.497,53.064-102.419
	c-2.688-41.055-30.974-76.198-65.436-96.523c-19.88-11.719-43.085-18.094-65.917-20.594c-3.31-0.364-6.662-0.705-10.048-0.973
	c-1.447-3.592-3.06-7.126-4.786-10.576c-8.704-17.41-19.72-34.897-34.082-48.192c-14.973-13.854-33.348-22.718-51.447-31.682
	c-19.747-9.776-41.302-16.113-62.835-20.547c-26.406-5.448-53.102-7.505-79.729-2.466c-6.321,1.203-12.609,2.6-18.789,4.411
	c-5.675,1.677-11.511,2.539-17.143,4.479c-11.564,3.994-22.323,9.86-32.674,16.335c-10.304,6.456-19.026,15.052-26.041,24.916
	c-1.505-0.781-3.045-1.52-4.6-2.209c-25.589-11.503-54.158-17.721-82.217-18.334c-12.85-0.271-25.743,0.601-38.125,4.135
	c-11.53,3.293-22.765,7.689-33.218,13.578c-9.557,5.379-19.038,11.717-27.489,18.709c-8.164,6.77-15.458,14.726-20.884,23.874
	c-9.304,15.661-12.98,32.949-12.325,50.564c-13.042,3.668-25.318,9.94-35.055,19.543c-11.732,11.58-19.93,26.696-22.94,42.932
	C68.042,265.148,70.4,281.537,76.351,297.343L76.351,297.343z"/>
<g>
	<path fill="#00B8E5" d="M1151.845,212.128c-2.063-15.618-18.306-27.781-38.042-27.781c-8.959,0-17.201,2.507-23.72,6.706
		c-2.988-1.285-6.28-2-9.74-2c-7.48,0-14.181,3.335-18.702,8.6c-2.361-1.045-4.974-1.623-7.724-1.623
		c-8.6,0-15.875,5.671-18.289,13.48c-16.007,1.141-28.547,12.607-28.456,26.498c0.083,12.681,10.667,23.202,24.702,25.646
		c1.231,3.18,3.439,5.282,5.532,7.746c14.511,17.087,40.33,20.079,39.934,20.07c0,0-11.526-8.747-21.099-21.408
		c5.402,5.114,12.443,7.477,21.467,7.477c11.139,0,20.834-4.951,25.837-12.248c3.917,2.824,8.878,4.511,14.28,4.511
		c10.164,0,18.784-5.982,21.78-14.261c0.999,0.094,2.014,0.144,3.045,0.144c14.553,0,26.348-9.604,26.348-21.449
		C1168.998,223.022,1161.861,215.166,1151.845,212.128L1151.845,212.128z"/>
	<path fill="#47C1ED" d="M1150.776,210.703c-2.063-15.618-18.307-27.781-38.042-27.781c-8.96,0-17.198,2.507-23.721,6.707
		c-2.987-1.287-6.278-1.999-9.739-1.999c-7.481,0-14.183,3.333-18.701,8.596c-2.363-1.043-4.976-1.622-7.725-1.622
		c-8.6,0-15.877,5.672-18.289,13.48c-16.008,1.142-28.549,12.608-28.457,26.499c0.083,12.681,10.668,23.203,24.702,25.646
		c1.233,3.18,2.791,6.181,4.768,8.738c13.615,17.615,41.845,20.457,41.845,20.457s-16.285-10.428-23.277-23.675
		c5.401,5.115,13.476,8.365,22.499,8.365c11.141,0,20.835-4.951,25.838-12.248c3.917,2.824,8.878,4.511,14.278,4.511
		c10.168,0,18.786-5.982,21.783-14.261c0.998,0.093,2.012,0.144,3.044,0.144c14.551,0,26.347-9.603,26.347-21.449
		C1167.929,221.596,1160.793,213.742,1150.776,210.703L1150.776,210.703z"/>
	<path fill="#E7F5FD" d="M1013.069,248.899c0,0-9.499-14.172-1.9-25.571c7.6-11.401,18.604-13.617,25.491-13.378
		c0,0-0.078-5.384,6.097-10.135c6.175-4.75,15.676-3.324,18.762-0.475c0,0,4.037-8.076,14.013-9.736c0,0-10.925,4.511-13.062,12.112
		c0,0-5.7-4.751-14.726-2.85c-9.025,1.899-9.817,12.825-9.817,12.825s-9.896,0.236-17.732,4.987
		C1012.359,221.428,1004.996,233.459,1013.069,248.899L1013.069,248.899z"/>
	<path fill="#00B8E5" d="M1057.985,42.322c0,0,35.356,58.461,72.131,2.358c0,0-7.841,43.123,28.615,23.01
		c0,0-17.76,12.688-11.643,20.836c6.114,8.145,28.759,9.898,28.759,9.898s-27.486-1.509-28.745,6.978
		c-1.256,8.484,18.844,22.253,18.844,22.253s-25.301-7.228-29.699-0.942c-4.402,6.284-0.945,27.815-0.945,27.815
		s-9.273-24.199-35.356-20.743c-26.086,3.458-43.849,31.116-43.849,31.116s9.43-23.417,3.772-33.475
		c-5.658-10.057-43.847,2.358-43.847,2.358s39.134-14.46,38.188-24.515c-0.942-10.059-25.457-9.43-25.457-9.43
		s26.278-2.904,25.487-8.412c-0.789-5.512-11.03-12.81-11.03-12.81s9.221,4.249,18.098,3.021
		C1079.669,79.096,1057.985,42.322,1057.985,42.322L1057.985,42.322z"/>
	<path fill="#47C1ED" d="M1057.14,41.438c0,0,35.36,58.461,72.133,2.358c0,0-7.839,43.123,28.617,23.009
		c0,0-17.76,12.692-11.644,20.837c6.114,8.145,28.76,9.901,28.76,9.901s-27.487-1.509-28.745,6.975
		c-1.256,8.487,18.844,22.254,18.844,22.254s-25.304-7.229-29.703-0.941c-4.398,6.285-0.943,27.813-0.943,27.813
		s-9.272-24.198-35.356-20.743c-26.086,3.458-43.846,31.117-43.846,31.117s9.428-23.418,3.771-33.473
		c-5.657-10.059-43.847,2.355-43.847,2.355s39.13-14.459,38.189-24.515c-0.943-10.059-25.457-9.43-25.457-9.43
		s26.273-2.902,25.484-8.413c-0.787-5.51-11.027-12.809-11.027-12.809s9.22,4.25,18.096,3.021
		C1078.828,78.212,1057.14,41.438,1057.14,41.438L1057.14,41.438z"/>
	<g>
		<defs>
			<rect id="SVGID_9_" x="862" y="36.89" width="512.337" height="260.799"/>
		</defs>
		<clipPath id="SVGID_10_">
			<use xlink:href="#SVGID_9_"  overflow="visible"/>
		</clipPath>
		<path clip-path="url(#SVGID_10_)" fill="#E7F5FD" d="M1065.891,56.095c0.025,0.051,0.053,0.101,0.076,0.15
			C1065.939,56.192,1065.916,56.142,1065.891,56.095L1065.891,56.095z M1100.171,69.063c-18.058,5.176-34.552-13.484-34.552-13.484
			s7.585,17.094,1.925,23.717c-5.656,6.621-18.901,1.806-18.901,1.806s9.632,7.945,6.621,11.677
			c-3.009,3.734-11.798,5.178-11.798,5.178s12.281-0.641,13.485-6.14c1.187-5.422-4.817-8.549-4.817-8.549
			s13.727,2.891,17.939-4.453c1.396-2.435,1.379-5.806,0.729-9.226l-0.006-0.166l-2.289-9.391
			c8.068,6.262,13.728,11.197,26.849,10.956c13.122-0.241,20.707-10.113,20.707-10.113
			C1110.406,67.016,1100.171,69.063,1100.171,69.063L1100.171,69.063z"/>
		<path clip-path="url(#SVGID_10_)" fill="#00B8E5" d="M1183.769,102.234c3.468,9.224,12.507,15.051,21.768,17.337
			c2.558,0.633,4.996,0.954,7.631,0.851c0.949-0.033,1.904-0.085,2.854-0.156c0.057,0.08,0.112,0.16,0.171,0.238
			c2.897,3.936,6.603,7.709,10.776,10.288c8.861,5.468,21.078,7.334,30.694,2.728c2.412-1.154,4.53-2.656,6.42-4.412
			c4.924,3.623,10.476,6.473,16.042,8.58c10.735,4.07,22.644,5.701,33.98,3.432c8.227-1.645,16.581-5.357,21.746-12.053
			c8.142,0.691,16.376-1.002,23.258-5.877c8.12-5.752,14.202-15.939,13.533-26.123c-0.685-10.467-7.903-19.433-16.688-24.617
			c-5.066-2.988-10.988-4.611-16.813-5.251c-0.84-0.095-1.696-0.181-2.561-0.248c-0.368-0.917-0.778-1.817-1.221-2.698
			c-2.221-4.441-5.027-8.9-8.695-12.292c-3.816-3.528-8.5-5.794-13.119-8.079c-5.035-2.494-10.533-4.109-16.022-5.239
			c-6.734-1.392-13.546-1.913-20.338-0.628c-1.609,0.305-3.215,0.662-4.79,1.127c-1.446,0.423-2.937,0.643-4.373,1.139
			c-2.948,1.02-5.691,2.516-8.331,4.168c-2.629,1.645-4.853,3.838-6.642,6.352c-0.388-0.197-0.778-0.383-1.172-0.563
			c-6.524-2.932-13.814-4.518-20.972-4.673c-3.273-0.07-6.565,0.152-9.725,1.054c-2.935,0.838-5.803,1.96-8.469,3.462
			c-2.438,1.371-4.857,2.988-7.007,4.772c-2.085,1.728-3.943,3.757-5.331,6.089c-2.373,3.994-3.312,8.404-3.144,12.895
			c-3.327,0.936-6.453,2.535-8.94,4.989c-2.993,2.95-5.082,6.804-5.851,10.944C1181.653,94.025,1182.251,98.205,1183.769,102.234
			L1183.769,102.234z"/>
	</g>
	<path fill="#00B8E5" d="M1251.293,143.368c0,3.497,3.85,6.329,8.596,6.329c4.751,0,8.597-2.832,8.597-6.329
		c0-3.494-3.846-6.328-8.597-6.328C1255.143,137.04,1251.293,139.874,1251.293,143.368L1251.293,143.368z"/>
	<path fill="#00B8E5" d="M1238.621,152.738c0,1.862,2.049,3.37,4.576,3.37c2.53,0,4.576-1.508,4.576-3.37
		c0-1.861-2.046-3.369-4.576-3.369C1240.67,149.369,1238.621,150.877,1238.621,152.738L1238.621,152.738z"/>
	<g>
		<defs>
			<rect id="SVGID_11_" x="862" y="36.89" width="512.337" height="260.799"/>
		</defs>
		<clipPath id="SVGID_12_">
			<use xlink:href="#SVGID_11_"  overflow="visible"/>
		</clipPath>
		<path clip-path="url(#SVGID_12_)" fill="#00B8E5" d="M1227.335,158.08c0,1.226,1.35,2.221,3.016,2.221
			c1.663,0,3.016-0.995,3.016-2.221c0-1.223-1.353-2.219-3.016-2.219C1228.685,155.861,1227.335,156.857,1227.335,158.08
			L1227.335,158.08z"/>
		<path clip-path="url(#SVGID_12_)" fill="#47C1ED" d="M1185.413,101.908c3.468,9.223,12.508,15.05,21.765,17.336
			c2.562,0.631,4.997,0.949,7.634,0.852c0.95-0.037,1.903-0.091,2.855-0.158c0.056,0.078,0.11,0.16,0.169,0.237
			c2.899,3.933,6.603,7.709,10.778,10.288c8.859,5.469,21.076,7.336,30.693,2.725c2.412-1.153,4.526-2.652,6.419-4.408
			c4.924,3.622,10.479,6.471,16.042,8.578c10.737,4.069,22.645,5.701,33.982,3.434c8.221-1.645,16.582-5.358,21.747-12.053
			c8.141,0.69,16.376-1.006,23.256-5.879c8.12-5.75,14.203-15.938,13.533-26.12c-0.686-10.472-7.899-19.435-16.688-24.618
			c-5.07-2.988-10.988-4.614-16.812-5.252c-0.844-0.093-1.699-0.18-2.563-0.248c-0.369-0.916-0.78-1.817-1.221-2.697
			c-2.22-4.44-5.029-8.9-8.692-12.291c-3.818-3.533-8.505-5.794-13.121-8.08c-5.036-2.493-10.533-4.109-16.025-5.24
			c-6.734-1.39-13.543-1.914-20.334-0.629c-1.612,0.307-3.216,0.663-4.792,1.125c-1.447,0.428-2.936,0.647-4.372,1.143
			c-2.949,1.019-5.693,2.515-8.333,4.166c-2.628,1.646-4.853,3.839-6.642,6.354c-0.384-0.199-0.776-0.388-1.173-0.563
			c-6.526-2.934-13.813-4.52-20.969-4.676c-3.277-0.069-6.565,0.153-9.724,1.055c-2.94,0.84-5.806,1.961-8.472,3.463
			c-2.438,1.372-4.855,2.988-7.011,4.771c-2.082,1.727-3.942,3.756-5.326,6.089c-2.373,3.994-3.311,8.403-3.144,12.896
			c-3.326,0.936-6.457,2.536-8.94,4.985c-2.992,2.952-5.083,6.808-5.851,10.948C1183.294,93.697,1183.896,97.877,1185.413,101.908
			L1185.413,101.908z"/>
	</g>
	<path fill="#47C1ED" d="M1252.937,143.038c0,3.498,3.85,6.331,8.598,6.331c4.747,0,8.597-2.833,8.597-6.331
		c0-3.492-3.85-6.326-8.597-6.326C1256.786,136.712,1252.937,139.546,1252.937,143.038L1252.937,143.038z"/>
	<path fill="#47C1ED" d="M1240.264,152.411c0,1.86,2.051,3.368,4.577,3.368c2.527,0,4.578-1.508,4.578-3.368
		c0-1.863-2.051-3.371-4.578-3.371C1242.314,149.04,1240.264,150.548,1240.264,152.411L1240.264,152.411z"/>
	<g>
		<defs>
			<rect id="SVGID_13_" x="862" y="36.89" width="512.337" height="260.799"/>
		</defs>
		<clipPath id="SVGID_14_">
			<use xlink:href="#SVGID_13_"  overflow="visible"/>
		</clipPath>
		<path clip-path="url(#SVGID_14_)" fill="#47C1ED" d="M1228.979,157.753c0,1.226,1.353,2.219,3.019,2.219
			c1.662,0,3.012-0.993,3.012-2.219c0-1.228-1.35-2.222-3.012-2.222C1230.331,155.531,1228.979,156.525,1228.979,157.753
			L1228.979,157.753z"/>
		<path clip-path="url(#SVGID_14_)" fill="#E7F5FD" d="M1366.134,114.684c0,0,12.164-14.465,2.3-29.919
			c-9.863-15.453-26.63-16.766-31.892-16.109c0,0-5.917-22.028-34.52-27.614c-28.603-5.591-41.427,5.259-45.369,8.874
			c0,0,25.455-13.73,49.785-5.844c24.329,7.891,28.935,26.742,28.935,26.742s6.137-2.736,18.63,2.852
			C1366.499,79.253,1377.676,97.119,1366.134,114.684L1366.134,114.684z"/>
		<path clip-path="url(#SVGID_14_)" fill="#00B8E5" d="M1367.435,189.858c-5.009-4.446-12.536-5.328-18.977-5.442
			c-11.326-0.202-22.34,3.709-33.699,2.793c-14.227-1.152-88.078-6.02-102.47-5.148c-7.312,0.441-14.78,0.845-20.912,5.365
			c-12.918,9.522-6.136,25.119-1.913,37.278c1.632,4.699,3.187,9.868,3.749,14.822c1.263,11.109-7.365,29.735,8.492,34.097
			c2.042,0.561,4.072,0.752,6.092,0.688l-6.397,20.957l29.059-26.745c6.501-1.825,11.633-2.639,18.395-2.2
			c9.071,0.588,78.229,4.613,87.063,6.57c7.624,1.689,17.861,3.315,23.324-3.797c3.111-4.049,4.438-9.85,3.419-14.834
			c-0.578-2.822-1.317-5.595-1.541-7.977c-0.989-10.587,2.85-20.739,6.541-30.457
			C1370.772,207.637,1375.369,196.903,1367.435,189.858L1367.435,189.858z"/>
		<path clip-path="url(#SVGID_14_)" fill="#47C1ED" d="M1366.629,188.159c-5.005-4.448-12.536-5.329-18.978-5.442
			c-11.324-0.204-22.336,3.709-33.697,2.791c-14.228-1.149-88.078-6.017-102.471-5.148c-7.312,0.444-14.779,0.847-20.911,5.365
			c-12.919,9.52-6.137,25.121-1.913,37.278c1.634,4.701,3.186,9.867,3.748,14.824c1.263,11.109-7.365,29.736,8.491,34.095
			c2.042,0.563,4.073,0.754,6.093,0.688l-5.641,22.56l26.691-28.197c6.5-1.824,13.244-2.787,20.005-2.352
			c9.071,0.589,78.229,4.617,87.063,6.571c7.62,1.688,17.864,3.318,23.324-3.795c3.111-4.051,4.44-9.849,3.419-14.834
			c-0.579-2.824-1.317-5.597-1.539-7.977c-0.991-10.59,2.849-20.738,6.539-30.456
			C1369.967,205.939,1374.565,195.204,1366.629,188.159L1366.629,188.159z"/>
		<path clip-path="url(#SVGID_14_)" fill="#E7F5FD" d="M1199.711,183.207c0,0-15.298,4.565-15.298,18.789
			c0,14.223,11.54,24.692,10.199,39.454c-1.343,14.761-3.222,19.859,0.269,23.884c0,0-1.342-8.052,1.072-18.25
			c2.415-10.199,0.892-13.357-3.76-24.808C1189.108,214.682,1176.092,196.627,1199.711,183.207L1199.711,183.207z"/>
		<path clip-path="url(#SVGID_14_)" fill="#00B8E5" d="M999.454,191.922c-5.482-4.865-13.725-5.832-20.773-5.958
			c-12.399-0.22-24.453,4.064-36.889,3.058c-15.574-1.258-30.736-6.59-46.491-5.636c-8.002,0.487-16.18,0.925-22.893,5.874
			c-14.138,10.423-6.715,27.498-2.093,40.809c1.786,5.143,3.487,10.8,4.105,16.223c1.381,12.161-8.064,32.55,9.293,37.327
			c8.626,2.372,17.109-1.268,25.17-4.009c8.491-2.887,17.434-3.941,26.441-3.985c23.188-0.116,36.799,12.181,21.147,9.346
			c-14.715-2.665-26.24,7.451-30.121,12.718c0,0,10.536-8.038,25.229-6.93c14.693,1.109,37.707,12.755,33.548-8.319
			c-0.068-0.346-0.13-0.687-0.191-1.022c2.125-0.825,4.188-1.967,6.174-3.498c4.868-3.755,4.298-9.723,3.114-15.498
			c-0.634-3.089-1.442-6.123-1.686-8.73c-1.082-11.592,3.118-22.701,7.16-33.339C1003.109,211.387,1008.139,199.633,999.454,191.922
			L999.454,191.922z"/>
		<path clip-path="url(#SVGID_14_)" fill="#47C1ED" d="M997.261,190.455c-5.48-4.866-13.724-5.833-20.772-5.959
			c-12.399-0.219-24.454,4.065-36.89,3.058c-15.573-1.257-30.736-6.589-46.491-5.633c-8.002,0.483-16.179,0.925-22.89,5.872
			c-14.141,10.423-6.718,27.498-2.096,40.809c1.787,5.145,3.49,10.8,4.105,16.224c1.381,12.16-8.064,32.549,9.294,37.326
			c8.625,2.371,17.109-1.269,25.169-4.009c8.491-2.888,17.434-3.939,26.442-3.985c23.188-0.116,36.797,12.18,21.146,9.345
			c-14.714-2.664-26.237,7.452-30.121,12.721c0,0,10.536-8.041,25.229-6.933c14.694,1.112,37.706,12.755,33.548-8.316
			c-0.066-0.349-0.131-0.689-0.189-1.024c2.125-0.826,4.186-1.965,6.172-3.498c4.866-3.754,4.297-9.723,3.113-15.499
			c-0.632-3.088-1.442-6.123-1.686-8.729c-1.082-11.592,3.118-22.701,7.161-33.339
			C1000.916,209.92,1005.947,198.168,997.261,190.455L997.261,190.455z"/>
		<path clip-path="url(#SVGID_14_)" fill="#E7F5FD" d="M875.228,248.582c-0.335,3.684-0.702,6.818-1.021,9.514
			c1.315-4.812,2.408-9.744,2.146-14.738c-0.22-4.266-1.224-8.405-2.439-12.483c-0.414-1.024-0.859-2.114-1.333-3.282
			c-3.375-8.308-17.626-28.075,8.229-42.766c0,0-16.745,4.997-16.745,20.568C864.063,220.964,876.695,232.421,875.228,248.582
			L875.228,248.582z"/>
		<path clip-path="url(#SVGID_14_)" fill="#00B8E5" d="M863.396,61.458c-0.346-3.295-0.264-6.338,0.76-9.51
			c0.943-2.932,2.141-5.418,4.553-7.396c2.361-1.936,4.988-3.287,7.984-3.902c3.162-0.65,6.699-0.855,9.883-0.266
			c1.359,0.252,2.68,0.727,3.869,1.43c0.053,0.031,0.105,0.066,0.156,0.1c0.691-0.703,1.508-1.262,2.391-1.592
			c1.217-0.451,2.836-0.08,4.127,0.355c2.266-1.563,4.801-2.529,7.697-2.854c3.998-0.445,7.93,0.525,11.443,2.555
			c0.631,0.365,1.232,0.775,1.809,1.221c0.453-0.221,0.914-0.434,1.383-0.631c2.438-1.023,5.133-1.459,7.746-1.754
			c3.117-0.354,6.287-0.555,9.424-0.4c6.012,0.295,11.887-0.148,17.68,1.848c2.701,0.932,5.205,2.049,7.49,3.514
			c0.096-0.094,0.191-0.186,0.288-0.277c2.498-2.344,5.49-3.467,8.877-3.633c3.337-0.166,6.92,0.076,9.88,1.764
			c0.604,0.346,1.373,0.836,2.125,1.428c0.059-0.047,0.114-0.092,0.159-0.133c1.019-0.908,2.088-1.836,3.324-2.436
			c8.233-3.996,16.588,2.742,19.715,10.146c1.205,2.852,1.315,5.793,1.073,8.84c-0.258,3.236-1.523,5.932-3.387,8.537
			c-0.271,0.383-0.562,0.762-0.86,1.139c1.31,2.855,2.161,6.057,2.18,9.154c0.019,3.277-0.69,6.762-1.978,9.869
			c0.357,0.629,0.688,1.289,0.986,1.975c1.854,4.246,3.438,8.648,3.653,13.607c0.196,4.549-0.095,9.199-1.39,13.447
			c-0.83,2.729-2.055,5.27-3.627,7.354c0.664,1.205,1.107,2.555,1.093,3.805c-0.024,1.824-0.679,3.529-1.722,4.979
			c0.772,0.838,1.444,1.756,1.963,2.748c1.511,2.89,2.769,5.89,2.351,9.209c-0.435,3.443-1.89,6.422-3.866,9.232
			c-0.878,1.252-1.998,2.268-3.295,3.074c-1.373,0.856-2.863,1.782-4.376,2.358c-0.553,0.209-1.137,0.379-1.737,0.511
			c-2.332,0.957-4.763,0.95-7.08,0.073c-0.174-0.032-0.346-0.065-0.514-0.1c-2.39-0.51-4.785-1.621-6.835-3.055
			c-2.237,0.657-4.567,0.819-6.752,0.563c-1.485-0.172-2.969-0.567-4.407-1.17c-0.797,0.568-1.613,1.109-2.465,1.574
			c-3.307,1.805-7.041,2.09-10.709,2.106c-3.799,0.013-7.477-0.827-10.873-2.514c-0.572-0.283-1.164-0.582-1.762-0.898
			c-2.26,0.714-4.541,1.328-6.838,1.802c-2.713,0.561-5.465,0.533-8.209,0.549c-5.385,0.031-10.703,0.244-16.074-0.601
			c-0.455-0.073-0.91-0.143-1.367-0.211c-1.643,0.546-3.311,0.918-4.998,1.113l9.555,14.238c0,0-29.48-15.875-30.195-15.732
			c-4.834,0.965-10.264,0.758-14.365-2.283c-4.371-3.243-6.719-9.987-5.34-15.256c0.389-1.491,1.109-3.545,2.111-4.736
			c0.289-0.342,0.617-0.73,0.975-1.125c-0.385-0.908-0.652-1.867-0.791-2.869c-0.289-2.1,0.137-4.408,1.205-6.295
			c-0.797-1.521-1.5-3.084-1.947-4.75c-0.486-1.816-1.178-3.416-1.271-5.328c-0.186-3.682,0.668-7.455,2.123-10.814
			c0.645-1.488,1.299-2.83,2.33-4.064c-1.607-2.92-2.445-6.154-2.826-9.455c-0.404-3.506-0.344-7.189,1.041-10.49
			c0.631-1.506,1.639-2.797,2.807-3.943c-1.57-1.863-2.908-3.896-3.982-6.098C864.298,68.097,863.743,64.753,863.396,61.458
			L863.396,61.458z"/>
		<path clip-path="url(#SVGID_14_)" fill="#47C1ED" d="M864.501,60.632c-0.348-3.297-0.264-6.34,0.758-9.51
			c0.945-2.934,2.141-5.42,4.553-7.398c2.361-1.934,4.988-3.287,7.982-3.902c3.164-0.65,6.701-0.855,9.885-0.266
			c1.361,0.252,2.68,0.727,3.869,1.43c0.053,0.031,0.105,0.066,0.156,0.1c0.691-0.703,1.508-1.262,2.393-1.59
			c1.215-0.453,2.836-0.08,4.127,0.354c2.264-1.563,4.801-2.529,7.695-2.852c4-0.447,7.93,0.523,11.443,2.555
			c0.631,0.363,1.232,0.773,1.809,1.219c0.455-0.221,0.914-0.434,1.383-0.631c2.438-1.023,5.135-1.459,7.746-1.754
			c3.117-0.354,6.287-0.553,9.422-0.4c6.014,0.295,11.891-0.148,17.682,1.848c2.701,0.932,5.205,2.049,7.49,3.514
			c0.097-0.094,0.191-0.186,0.287-0.277c2.498-2.344,5.49-3.467,8.877-3.633c3.338-0.164,6.92,0.076,9.881,1.764
			c0.604,0.346,1.373,0.836,2.125,1.43c0.06-0.049,0.113-0.094,0.158-0.135c1.021-0.908,2.09-1.836,3.324-2.436
			c8.237-3.996,16.588,2.744,19.715,10.146c1.205,2.852,1.317,5.793,1.076,8.842c-0.257,3.234-1.525,5.93-3.386,8.535
			c-0.274,0.385-0.565,0.762-0.864,1.139c1.311,2.855,2.164,6.057,2.18,9.154c0.021,3.279-0.688,6.762-1.976,9.871
			c0.354,0.629,0.685,1.287,0.986,1.975c1.854,4.244,3.438,8.646,3.651,13.605c0.197,4.551-0.094,9.199-1.387,13.447
			c-0.832,2.729-2.056,5.27-3.628,7.354c0.664,1.205,1.106,2.555,1.091,3.805c-0.023,1.826-0.677,3.531-1.722,4.979
			c0.772,0.838,1.444,1.756,1.965,2.75c1.509,2.888,2.767,5.888,2.349,9.208c-0.433,3.442-1.889,6.42-3.865,9.231
			c-0.879,1.252-1.995,2.268-3.295,3.076c-1.373,0.854-2.862,1.779-4.377,2.356c-0.553,0.209-1.135,0.378-1.735,0.511
			c-2.332,0.957-4.765,0.95-7.082,0.073c-0.172-0.032-0.343-0.065-0.513-0.1c-2.391-0.51-4.784-1.619-6.836-3.053
			c-2.235,0.655-4.565,0.817-6.752,0.563c-1.483-0.174-2.969-0.569-4.405-1.172c-0.796,0.568-1.613,1.111-2.466,1.574
			c-3.305,1.805-7.039,2.092-10.709,2.106c-3.799,0.013-7.475-0.827-10.873-2.514c-0.57-0.283-1.164-0.582-1.76-0.899
			c-2.262,0.715-4.543,1.329-6.84,1.803c-2.713,0.561-5.465,0.533-8.209,0.549c-5.385,0.033-10.703,0.244-16.074-0.602
			c-0.453-0.072-0.91-0.142-1.367-0.211c-1.641,0.547-3.311,0.918-4.998,1.114l8.584,15.095l-27.074-17.23
			c-0.715,0.277-1.436,0.5-2.15,0.641c-4.834,0.964-10.264,0.757-14.365-2.284c-1.982-1.47-3.303-3.466-4.287-5.697
			c-1.896-4.293-2.131-10.502,1.059-14.292c0.289-0.344,0.617-0.732,0.975-1.127c-0.385-0.908-0.652-1.867-0.791-2.869
			c-0.289-2.1,0.137-4.408,1.205-6.295c-0.797-1.521-1.5-3.084-1.947-4.75c-0.486-1.816-1.178-3.416-1.271-5.328
			c-0.184-3.682,0.668-7.455,2.123-10.814c0.645-1.488,1.299-2.83,2.33-4.064c-1.607-2.92-2.445-6.154-2.826-9.455
			c-0.404-3.506-0.344-7.189,1.041-10.49c0.631-1.506,1.639-2.797,2.807-3.943c-1.57-1.863-2.908-3.896-3.982-6.098
			C865.403,67.269,864.847,63.925,864.501,60.632L864.501,60.632z"/>
	</g>
	<path fill="#E7F5FD" d="M985.117,43.667c0,0,5.519-5.336,13.429-1.289c7.911,4.049,11.405,19.133,3.495,24.65
		c0,0,5.519,11.957,0,21.154c0,0,10.117,11.59,1.103,33.297c0,0,6.808-22.443-2.573-33.295c0,0,5.887-11.037-0.185-21.34
		c0,0,7.174-4.781,4.047-14.348S993.947,39.435,985.117,43.667L985.117,43.667z"/>
	<path fill="#E7F5FD" d="M978.494,41.458c0,0-8.461-2.943-15.45,3.313c0,0-9.566-6.807-25.203-6.07c0,0,16.555,0.92,25.938,7.91
		C963.779,46.611,966.353,40.171,978.494,41.458L978.494,41.458z"/>
</g>
</svg>
