<svg xmlns="http://www.w3.org/2000/svg" xmlns:xlink="http://www.w3.org/1999/xlink" viewBox="0 0 757.42 453.65"><defs><style>.cls-1,.cls-62{fill:none;}.cls-2{clip-path:url(#clip-path);}.cls-3{fill:#5ffffb;}.cls-4{fill:#91fff9;}.cls-5{fill:#87f7f1;}.cls-6{fill:#a1f8f2;}.cls-7{fill:#e5edf9;}.cls-8{fill:#d5c5ea;}.cls-9{fill:#8593af;}.cls-10{fill:#c1abd8;}.cls-11{fill:#737d8e;}.cls-12{fill:#8b97af;}.cls-13{fill:#95a2c1;}.cls-14{fill:#a4b1d8;}.cls-15{fill:#97a3c1;}.cls-16{fill:#aab9d6;}.cls-17{fill:#916a1c;}.cls-18{fill:#807699;}.cls-19{fill:#682e25;}.cls-20{fill:#c64017;}.cls-21{fill:#d65234;}.cls-22{fill:#ef603f;}.cls-23{fill:#6d2818;}.cls-24{fill:#402f44;}.cls-25{fill:#ef7a2b;}.cls-26{fill:#f2d24c;}.cls-27{fill:#4f350f;}.cls-28{fill:#bf5b10;}.cls-29{fill:#933621;}.cls-30{fill:#633e2a;}.cls-31{fill:#d1a139;}.cls-32{fill:#fff;}.cls-33{fill:#b7ac8f;}.cls-34{fill:#3a2523;}.cls-35{fill:#625777;}.cls-36{fill:#352a47;}.cls-37{fill:#faf5c1;}.cls-38{fill:#6d4e53;}.cls-39{fill:#f4d419;}.cls-40{fill:#654543;}.cls-41{fill:#cead16;}.cls-42{fill:#6b0c17;}.cls-43{fill:#eec51e;}.cls-44{fill:#f3e0a9;}.cls-45{fill:#99111c;}.cls-46{fill:#f9572b;}.cls-47{fill:#dd431f;}.cls-48{fill:#ce7a35;}.cls-49{fill:#3f1712;}.cls-50{fill:#fc7f3a;}.cls-51{fill:#c44833;}.cls-52{fill:#351e2f;}.cls-53{fill:#b77629;}.cls-54{fill:#7f511f;}.cls-55{fill:#aa6109;}.cls-56{fill:#351c2e;}.cls-57{clip-path:url(#clip-path-10);}.cls-58{fill:#734818;}.cls-59{fill:#8c5311;}.cls-60{fill:#864e0c;}.cls-61{fill:#6b3a15;}.cls-62{stroke:#fada99;stroke-miterlimit:10;stroke-width:3px;opacity:0.8;}</style><clipPath id="clip-path"><rect class="cls-1" x="34.7" y="59.32" width="679.13" height="382.06"/></clipPath><clipPath id="clip-path-10"><path class="cls-1" d="M244.31,353.72a9.67,9.67,0,0,1-1.06-.05,32.17,32.17,0,0,1-5-1.12,45.08,45.08,0,0,0-10-1.53l-1,0a26.73,26.73,0,0,0-4.12.31,13,13,0,0,0-4.47,1.47,11.76,11.76,0,0,1,4.37-1.65,25.46,25.46,0,0,1,4.85-.42h.43a43.12,43.12,0,0,1,10.3,1.45,35.9,35.9,0,0,0,4.8,1.07,8.86,8.86,0,0,0,1,.05,13.2,13.2,0,0,0,1.47-.09c.84-.09,1.68-.23,2.52-.37,3.33-.6,6.62-1.31,9.85-2.09h.09l3.58.05,3.58.07-3.58.07-3.53.05c-3.19.84-6.41,1.63-9.78,2.24-.85.15-1.7.29-2.58.4a14.24,14.24,0,0,1-1.71.11"/></clipPath></defs><title>micromundo3</title><g id="Camada_2" data-name="Camada 2"><g id="Camada_1-2" data-name="Camada 1"><g class="cls-2"><polyline class="cls-3" points="714.78 59.32 714.78 441.38 34.85 441.38 34.85 59.32 714.78 59.32"/><path class="cls-4" d="M34.85,395.43V69.71c19-.53,51.43-1.21,92.06-1.21C308.42,68.5,654.78,82,713.85,182.88v61c-26.5,43.89-111,75.46-214.61,98.14q-9.15-1.86-18.32-3.63V321.85c95.17-24.63,164.22-59.21,162.43-107.67C639.13,99.8,286.19,85.4,108.75,85.4c-30.86,0-56.41.44-73.9.86V378.42h0v17h0"/></g><path class="cls-5" d="M34.85,378.42V86.26c17.48-.42,43-.86,73.9-.86,177.44,0,530.38,14.4,534.61,128.78,1.79,48.46-67.26,83-162.43,107.67V287.33c44.16-18.6,72-41.77,70.89-70.58C548.16,117.46,241.88,105,87.82,105c-20.8,0-38.84.23-53,.5V358.72h0v19.71h0"/><path class="cls-6" d="M34.85,358.72V105.46c14.13-.27,32.17-.5,53-.5,154.06,0,460.34,12.51,464,111.79,1.06,28.81-26.74,52-70.89,70.58V179.94H389.18v8.36H351.5v13.82h-2.84v5.32h4.14v46.7h-8.48v-93h5.09v-6.52h-9.22v-17H290.54v17h-2.84v6.52h4.14v50.76H257.54v32.33h-8.2V233.13H199.7v8.65c-1-.18-2-.33-3-.42l-.25-9-.16,9c-.66-.05-1.31-.08-2-.08-3.93,0-7.5,1-8.23,4.16a8.82,8.82,0,0,0-2,1.42l-.61-.06c-3.7-.32-7.31-1.46-10.32-1.46s-5.53,1.2-6.8,5.7v-51.1h5.09v-5.54h-9.22V179.94H112.63v14.41h-2.84v5.54h4.14v59.89c-3.51,3.94-6,11.23-6.32,19.72A20.74,20.74,0,0,0,97,293.27a12.88,12.88,0,0,0-8.19,10,20.34,20.34,0,0,0-8.11-1.64c-5.55,0-10.45,2.1-13.37,5.3a22,22,0,0,0-3.74-.32,18.43,18.43,0,0,0-9.81,2.55L52,242.84l-1.21,69-4,.43c-4,.46-8,1-11.94,1.55v.2h0v44.66h0m222.68-49.57-.36,0c.14-.56.26-1.14.36-1.72v1.74m0-12.77a19.74,19.74,0,0,0-4.06-9.05v-38.9h4.06v48m-62-9.59a21.6,21.6,0,0,0-2.91-4.28c.22-.8.44-1.59.63-2.34h0l1.17-2.43a13,13,0,0,0,1.27-.32l-.16,9.37m2.41-1.59-.22-7.94,3.31.83v6a7.55,7.55,0,0,0-3.09,1.12m-6.16-3.6a22.11,22.11,0,0,0-4.44-3.51l-.1-1.05a8.14,8.14,0,0,1,.88.25,11.75,11.75,0,0,0,3.67.68c0,1.47,0,2.77,0,3.63m.5-.27a13.8,13.8,0,0,1-.17-3.35c.33,0,.65,0,1,0-.26,1.19-.53,2.36-.8,3.4m1.23-2.43c.07-.27.15-.63.23-1l.39-.06a5.39,5.39,0,0,1-.62,1.1"/><polyline class="cls-7" points="340.19 154.57 340.19 137.61 290.54 137.61 290.54 154.57 287.71 154.57 287.71 161.09 291.85 161.09 291.85 411.83 344.32 411.83 344.32 161.09 349.41 161.09 349.41 154.57 340.19 154.57"/><polyline class="cls-7" points="401.14 202.12 401.14 188.29 351.5 188.29 351.5 202.12 348.66 202.12 348.66 207.43 352.81 207.43 352.81 411.83 405.28 411.83 405.28 207.43 410.36 207.43 410.36 202.12 401.14 202.12"/><polygon class="cls-8" points="539.03 106.18 539.03 86.04 489.38 86.04 489.38 106.18 486.55 106.18 486.55 113.93 490.69 113.93 490.69 411.83 543.16 411.83 543.16 113.93 548.25 113.93 548.25 106.18 539.03 106.18 539.03 106.18"/><polygon class="cls-8" points="628.14 110.54 628.14 90.39 578.5 90.39 578.5 110.54 575.66 110.54 575.66 118.28 579.8 118.28 579.8 416.19 632.27 416.19 632.27 118.28 637.36 118.28 637.36 110.54 628.14 110.54 628.14 110.54"/><polygon class="cls-8" points="598.52 163.51 598.52 150.95 548.88 150.95 548.88 163.51 546.04 163.51 546.04 168.34 550.18 168.34 550.18 354 602.65 354 602.65 168.34 607.74 168.34 607.74 163.51 598.52 163.51 598.52 163.51"/><polyline class="cls-9" points="162.27 194.34 162.27 179.94 112.63 179.94 112.63 194.34 109.79 194.34 109.79 199.88 113.93 199.88 113.93 412.9 166.4 412.9 166.4 199.88 171.49 199.88 171.49 194.34 162.27 194.34"/><polyline class="cls-9" points="249.34 244.18 249.34 233.13 199.69 233.13 199.69 244.18 196.86 244.18 196.86 248.43 201 248.43 201 411.83 253.47 411.83 253.47 248.43 258.56 248.43 258.56 244.18 249.34 244.18"/><polyline class="cls-10" points="257.54 412.9 113.93 412.9 113.93 309.98 257.54 309.98 257.54 412.9"/><polyline class="cls-11" points="257.54 314.52 113.93 314.52 113.93 309.98 257.54 309.98 257.54 314.52"/><polyline class="cls-10" points="337.32 412.9 257.54 412.9 257.54 211.85 337.32 211.85 337.32 412.9"/><polyline class="cls-12" points="389.18 412.9 337.32 412.9 337.32 254.13 389.18 254.13 389.18 412.9"/><polygon class="cls-11" points="389.18 262.54 337.32 262.54 337.32 254.13 389.18 254.13 389.18 262.54 389.18 262.54"/><polyline class="cls-10" points="480.93 412.9 389.18 412.9 389.18 179.94 480.93 179.94 480.93 412.9"/><polygon class="cls-13" points="514.43 412.9 480.93 412.9 480.93 319.56 514.43 319.56 514.43 412.9 514.43 412.9"/><polygon class="cls-10" points="587.11 412.9 553.61 412.9 553.61 319.56 587.11 319.56 587.11 412.9 587.11 412.9"/><polygon class="cls-10" points="630.35 412.9 576.89 412.9 576.89 199.88 630.35 199.88 630.35 412.9 630.35 412.9"/><polygon class="cls-10" points="557.74 417.69 506.23 417.69 506.23 238.18 557.74 238.18 557.74 417.69 557.74 417.69"/><path class="cls-13" d="M553.17,223.82H510.8a4.57,4.57,0,0,0-4.57,4.57v9.79h51.51v-9.79a4.57,4.57,0,0,0-4.57-4.57Z"/><path class="cls-10" d="M553.17,223.82H510.79v-7.67a5.89,5.89,0,0,1,5.89-5.89h30.6a5.89,5.89,0,0,1,5.89,5.89v7.67Z"/><polygon class="cls-14" points="547.63 187.69 516.34 187.69 516.34 210.26 547.63 210.26 547.63 187.69 547.63 187.69"/><polygon class="cls-15" points="556.78 187.69 507.19 187.69 507.19 184.72 556.78 184.72 556.78 187.69 556.78 187.69"/><polygon class="cls-14" points="531.99 119.52 532.52 161.54 531.45 161.54 531.99 119.52 531.99 119.52"/><polygon class="cls-15" points="559.87 241.99 503.88 241.99 503.88 238.18 559.87 238.18 559.87 241.99 559.87 241.99"/><path class="cls-10" d="M548.25,184.73H515.72L526.3,163.3a7,7,0,0,1,12.61.27l9.33,21.16Z"/><polygon class="cls-15" points="338.93 214.73 254.29 214.73 254.29 210.26 338.93 210.26 338.93 214.73 338.93 214.73"/><polygon class="cls-15" points="483.01 183.44 386.73 183.44 386.73 178.96 483.01 178.96 483.01 183.44 483.01 183.44"/><path class="cls-10" d="M610.85,150c0,.07,0,.13,0,.2v1.3h4.3V412.9h63V151.52h4.3v-1.3c0-.07,0-.13,0-.2Z"/><polygon class="cls-13" points="147.02 218.1 142.06 218.1 142.06 200.9 147.02 200.9 147.02 218.1 147.02 218.1"/><polygon class="cls-13" points="156.95 218.1 151.46 218.1 151.46 200.9 156.95 200.9 156.95 218.1 156.95 218.1"/><polygon class="cls-13" points="147.02 240.09 142.06 240.09 142.06 222.89 147.02 222.89 147.02 240.09 147.02 240.09"/><polygon class="cls-13" points="147.02 239.91 142.06 239.91 142.06 222.71 147.02 222.71 147.02 239.91 147.02 239.91"/><polygon class="cls-13" points="156.95 240.09 151.46 240.09 151.46 222.89 156.95 222.89 156.95 240.09 156.95 240.09"/><polygon class="cls-13" points="128.58 240.09 123.62 240.09 123.62 222.89 128.58 222.89 128.58 240.09 128.58 240.09"/><polygon class="cls-13" points="138.51 240.09 133.02 240.09 133.02 222.89 138.51 222.89 138.51 240.09 138.51 240.09"/><polygon class="cls-13" points="147.02 264.29 142.06 264.29 142.06 247.09 147.02 247.09 147.02 264.29 147.02 264.29"/><polygon class="cls-13" points="156.95 264.47 151.46 264.47 151.46 247.27 156.95 247.27 156.95 264.47 156.95 264.47"/><polygon class="cls-13" points="128.58 264.47 123.62 264.47 123.62 247.27 128.58 247.27 128.58 264.47 128.58 264.47"/><polygon class="cls-13" points="138.51 264.47 133.02 264.47 133.02 247.27 138.51 247.27 138.51 264.47 138.51 264.47"/><polygon class="cls-13" points="226.47 269.34 221.51 269.34 221.51 252.14 226.47 252.14 226.47 269.34 226.47 269.34"/><polygon class="cls-13" points="236.4 269.52 230.91 269.52 230.91 252.32 236.4 252.32 236.4 269.52 236.4 269.52"/><polygon class="cls-13" points="208.03 269.52 203.07 269.52 203.07 252.32 208.03 252.32 208.03 269.52 208.03 269.52"/><polygon class="cls-13" points="217.96 269.52 212.47 269.52 212.47 252.32 217.96 252.32 217.96 269.52 217.96 269.52"/><polygon class="cls-13" points="224.7 294.44 219.74 294.44 219.74 277.24 224.7 277.24 224.7 294.44 224.7 294.44"/><polygon class="cls-13" points="234.63 294.62 229.13 294.62 229.13 277.42 234.63 277.42 234.63 294.62 234.63 294.62"/><polygon class="cls-13" points="206.26 294.62 201.3 294.62 201.3 277.42 206.26 277.42 206.26 294.62 206.26 294.62"/><polygon class="cls-13" points="216.19 294.62 210.69 294.62 210.69 277.42 216.19 277.42 216.19 294.62 216.19 294.62"/><polygon class="cls-13" points="283.92 236.53 278.95 236.53 278.95 219.32 283.92 219.32 283.92 236.53 283.92 236.53"/><polygon class="cls-13" points="293.85 236.7 288.35 236.7 288.35 219.5 293.85 219.5 293.85 236.7 293.85 236.7"/><polygon class="cls-13" points="265.48 236.7 260.52 236.7 260.52 219.5 265.48 219.5 265.48 236.7 265.48 236.7"/><polygon class="cls-13" points="275.41 236.7 269.91 236.7 269.91 219.5 275.41 219.5 275.41 236.7 275.41 236.7"/><polygon class="cls-13" points="320.83 236.53 315.87 236.53 315.87 219.32 320.83 219.32 320.83 236.53 320.83 236.53"/><polygon class="cls-13" points="330.76 236.7 325.26 236.7 325.26 219.5 330.76 219.5 330.76 236.7 330.76 236.7"/><polygon class="cls-13" points="302.39 236.7 297.43 236.7 297.43 219.5 302.39 219.5 302.39 236.7 302.39 236.7"/><polygon class="cls-13" points="312.32 236.7 306.82 236.7 306.82 219.5 312.32 219.5 312.32 236.7 312.32 236.7"/><polygon class="cls-13" points="283.92 258.13 278.95 258.13 278.95 240.93 283.92 240.93 283.92 258.13 283.92 258.13"/><polygon class="cls-13" points="293.85 258.31 288.35 258.31 288.35 241.11 293.85 241.11 293.85 258.31 293.85 258.31"/><polygon class="cls-13" points="265.48 258.31 260.52 258.31 260.52 241.11 265.48 241.11 265.48 258.31 265.48 258.31"/><polygon class="cls-13" points="275.41 258.31 269.91 258.31 269.91 241.11 275.41 241.11 275.41 258.31 275.41 258.31"/><polygon class="cls-13" points="320.83 258.13 315.87 258.13 315.87 240.93 320.83 240.93 320.83 258.13 320.83 258.13"/><polygon class="cls-13" points="330.76 258.31 325.26 258.31 325.26 241.11 330.76 241.11 330.76 258.31 330.76 258.31"/><polygon class="cls-13" points="302.39 258.31 297.43 258.31 297.43 241.11 302.39 241.11 302.39 258.31 302.39 258.31"/><polygon class="cls-13" points="312.32 258.31 306.82 258.31 306.82 241.11 312.32 241.11 312.32 258.31 312.32 258.31"/><polygon class="cls-13" points="283.92 279.74 278.95 279.74 278.95 262.54 283.92 262.54 283.92 279.74 283.92 279.74"/><polygon class="cls-13" points="293.85 279.91 288.35 279.91 288.35 262.71 293.85 262.71 293.85 279.91 293.85 279.91"/><polygon class="cls-13" points="265.48 279.91 260.52 279.91 260.52 262.71 265.48 262.71 265.48 279.91 265.48 279.91"/><polygon class="cls-13" points="275.41 279.91 269.91 279.91 269.91 262.71 275.41 262.71 275.41 279.91 275.41 279.91"/><polygon class="cls-13" points="320.83 279.74 315.87 279.74 315.87 262.54 320.83 262.54 320.83 279.74 320.83 279.74"/><polygon class="cls-13" points="330.76 279.91 325.26 279.91 325.26 262.71 330.76 262.71 330.76 279.91 330.76 279.91"/><polygon class="cls-13" points="302.39 279.91 297.43 279.91 297.43 262.71 302.39 262.71 302.39 279.91 302.39 279.91"/><polygon class="cls-13" points="312.32 279.91 306.82 279.91 306.82 262.71 312.32 262.71 312.32 279.91 312.32 279.91"/><polygon class="cls-13" points="283.92 301.34 278.95 301.34 278.95 284.14 283.92 284.14 283.92 301.34 283.92 301.34"/><polygon class="cls-13" points="293.85 301.52 288.35 301.52 288.35 284.32 293.85 284.32 293.85 301.52 293.85 301.52"/><polygon class="cls-13" points="265.48 301.52 260.52 301.52 260.52 284.32 265.48 284.32 265.48 301.52 265.48 301.52"/><polygon class="cls-13" points="275.41 301.52 269.91 301.52 269.91 284.32 275.41 284.32 275.41 301.52 275.41 301.52"/><polygon class="cls-13" points="320.83 301.34 315.87 301.34 315.87 284.14 320.83 284.14 320.83 301.34 320.83 301.34"/><polygon class="cls-13" points="330.76 301.52 325.26 301.52 325.26 284.32 330.76 284.32 330.76 301.52 330.76 301.52"/><polygon class="cls-13" points="302.39 301.52 297.43 301.52 297.43 284.32 302.39 284.32 302.39 301.52 302.39 301.52"/><polygon class="cls-13" points="312.32 301.52 306.82 301.52 306.82 284.32 312.32 284.32 312.32 301.52 312.32 301.52"/><polygon class="cls-13" points="283.92 322.94 278.95 322.94 278.95 305.75 283.92 305.75 283.92 322.94 283.92 322.94"/><polygon class="cls-13" points="293.85 323.12 288.35 323.12 288.35 305.92 293.85 305.92 293.85 323.12 293.85 323.12"/><polygon class="cls-13" points="265.48 323.12 260.52 323.12 260.52 305.92 265.48 305.92 265.48 323.12 265.48 323.12"/><polygon class="cls-13" points="275.41 323.12 269.91 323.12 269.91 305.92 275.41 305.92 275.41 323.12 275.41 323.12"/><polygon class="cls-13" points="320.83 322.94 315.87 322.94 315.87 305.75 320.83 305.75 320.83 322.94 320.83 322.94"/><polygon class="cls-13" points="330.76 323.12 325.26 323.12 325.26 305.92 330.76 305.92 330.76 323.12 330.76 323.12"/><polygon class="cls-13" points="302.39 323.12 297.43 323.12 297.43 305.92 302.39 305.92 302.39 323.12 302.39 323.12"/><polygon class="cls-13" points="312.32 323.12 306.82 323.12 306.82 305.92 312.32 305.92 312.32 323.12 312.32 323.12"/><polyline class="cls-13" points="283.92 344.55 278.95 344.55 278.95 327.35 283.92 327.35 283.92 344.55"/><polyline class="cls-13" points="293.85 344.73 288.35 344.73 288.35 327.53 293.85 327.53 293.85 344.73"/><polyline class="cls-13" points="265.48 344.73 260.52 344.73 260.52 327.53 265.48 327.53 265.48 344.73"/><polyline class="cls-13" points="275.41 344.73 269.91 344.73 269.91 327.53 275.41 327.53 275.41 344.73"/><polyline class="cls-13" points="320.83 344.55 315.87 344.55 315.87 327.35 320.83 327.35 320.83 344.55"/><polyline class="cls-13" points="330.76 344.73 325.26 344.73 325.26 327.53 330.76 327.53 330.76 344.73"/><polyline class="cls-13" points="302.39 344.73 297.43 344.73 297.43 327.53 302.39 327.53 302.39 344.73"/><polyline class="cls-13" points="312.32 344.73 306.83 344.73 306.83 327.53 312.32 327.53 312.32 344.73"/><polyline class="cls-13" points="283.92 366.16 278.95 366.16 278.95 348.96 283.92 348.96 283.92 366.16"/><polyline class="cls-13" points="293.85 366.33 288.35 366.33 288.35 349.13 293.85 349.13 293.85 366.33"/><polyline class="cls-13" points="265.48 366.33 260.52 366.33 260.52 349.13 265.48 349.13 265.48 366.33"/><polyline class="cls-13" points="275.41 366.33 269.91 366.33 269.91 349.13 275.41 349.13 275.41 366.33"/><polyline class="cls-13" points="320.83 366.16 315.87 366.16 315.87 348.96 320.83 348.96 320.83 366.16"/><polyline class="cls-13" points="330.76 366.33 325.26 366.33 325.26 349.13 330.76 349.13 330.76 366.33"/><polyline class="cls-13" points="302.39 366.33 297.43 366.33 297.43 349.13 302.39 349.13 302.39 366.33"/><polyline class="cls-13" points="312.32 366.33 306.83 366.33 306.83 349.13 312.32 349.13 312.32 366.33"/><polyline class="cls-13" points="283.92 387.76 278.95 387.76 278.95 370.56 283.92 370.56 283.92 387.76"/><polyline class="cls-13" points="293.85 387.94 288.35 387.94 288.35 370.74 293.85 370.74 293.85 387.94"/><polyline class="cls-13" points="265.48 387.94 260.52 387.94 260.52 370.74 265.48 370.74 265.48 387.94"/><polyline class="cls-13" points="275.41 387.94 269.91 387.94 269.91 370.74 275.41 370.74 275.41 387.94"/><polyline class="cls-13" points="320.83 387.76 315.87 387.76 315.87 370.56 320.83 370.56 320.83 387.76"/><polyline class="cls-13" points="330.76 387.94 325.26 387.94 325.26 370.74 330.76 370.74 330.76 387.94"/><polyline class="cls-13" points="302.39 387.94 297.43 387.94 297.43 370.74 302.39 370.74 302.39 387.94"/><polyline class="cls-13" points="312.32 387.94 306.83 387.94 306.83 370.74 312.32 370.74 312.32 387.94"/><polyline class="cls-13" points="283.92 409.37 278.95 409.37 278.95 392.17 283.92 392.17 283.92 409.37"/><polyline class="cls-13" points="293.85 409.54 288.35 409.54 288.35 392.34 293.85 392.34 293.85 409.54"/><polyline class="cls-13" points="265.48 409.54 260.52 409.54 260.52 392.34 265.48 392.34 265.48 409.54"/><polyline class="cls-13" points="275.41 409.54 269.91 409.54 269.91 392.34 275.41 392.34 275.41 409.54"/><polyline class="cls-13" points="320.83 409.37 315.87 409.37 315.87 392.17 320.83 392.17 320.83 409.37"/><polyline class="cls-13" points="330.76 409.54 325.26 409.54 325.26 392.34 330.76 392.34 330.76 409.54"/><polyline class="cls-13" points="302.39 409.54 297.43 409.54 297.43 392.34 302.39 392.34 302.39 409.54"/><polyline class="cls-13" points="312.32 409.54 306.83 409.54 306.83 392.34 312.32 392.34 312.32 409.54"/><polygon class="cls-13" points="423.33 208.34 418.37 208.34 418.37 189.21 423.33 189.21 423.33 208.34 423.33 208.34"/><polygon class="cls-13" points="433.26 208.54 427.76 208.54 427.76 189.41 433.26 189.41 433.26 208.54 433.26 208.54"/><polygon class="cls-13" points="404.89 208.54 399.93 208.54 399.93 189.41 404.89 189.41 404.89 208.54 404.89 208.54"/><polygon class="cls-13" points="414.82 208.54 409.32 208.54 409.32 189.41 414.82 189.41 414.82 208.54 414.82 208.54"/><polygon class="cls-13" points="460.25 208.34 455.28 208.34 455.28 189.21 460.25 189.21 460.25 208.34 460.25 208.34"/><polygon class="cls-13" points="470.17 208.54 464.68 208.54 464.68 189.41 470.17 189.41 470.17 208.54 470.17 208.54"/><polygon class="cls-13" points="441.81 208.54 436.84 208.54 436.84 189.41 441.81 189.41 441.81 208.54 441.81 208.54"/><polygon class="cls-13" points="451.73 208.54 446.24 208.54 446.24 189.41 451.73 189.41 451.73 208.54 451.73 208.54"/><polygon class="cls-13" points="423.33 232.37 418.37 232.37 418.37 213.24 423.33 213.24 423.33 232.37 423.33 232.37"/><polygon class="cls-13" points="433.26 232.56 427.76 232.56 427.76 213.44 433.26 213.44 433.26 232.56 433.26 232.56"/><polygon class="cls-13" points="404.89 232.56 399.93 232.56 399.93 213.44 404.89 213.44 404.89 232.56 404.89 232.56"/><polygon class="cls-13" points="414.82 232.56 409.32 232.56 409.32 213.44 414.82 213.44 414.82 232.56 414.82 232.56"/><polygon class="cls-13" points="460.25 232.37 455.28 232.37 455.28 213.24 460.25 213.24 460.25 232.37 460.25 232.37"/><polygon class="cls-13" points="470.17 232.56 464.68 232.56 464.68 213.44 470.17 213.44 470.17 232.56 470.17 232.56"/><polygon class="cls-13" points="441.81 232.56 436.84 232.56 436.84 213.44 441.81 213.44 441.81 232.56 441.81 232.56"/><polygon class="cls-13" points="451.73 232.56 446.24 232.56 446.24 213.44 451.73 213.44 451.73 232.56 451.73 232.56"/><polygon class="cls-13" points="423.33 256.4 418.37 256.4 418.37 237.27 423.33 237.27 423.33 256.4 423.33 256.4"/><polygon class="cls-13" points="433.26 256.59 427.76 256.59 427.76 237.46 433.26 237.46 433.26 256.59 433.26 256.59"/><polygon class="cls-13" points="404.89 256.59 399.93 256.59 399.93 237.46 404.89 237.46 404.89 256.59 404.89 256.59"/><polygon class="cls-13" points="414.82 256.59 409.32 256.59 409.32 237.46 414.82 237.46 414.82 256.59 414.82 256.59"/><polygon class="cls-13" points="460.25 256.4 455.28 256.4 455.28 237.27 460.25 237.27 460.25 256.4 460.25 256.4"/><polygon class="cls-13" points="470.17 256.59 464.68 256.59 464.68 237.46 470.17 237.46 470.17 256.59 470.17 256.59"/><polygon class="cls-13" points="441.81 256.59 436.84 256.59 436.84 237.46 441.81 237.46 441.81 256.59 441.81 256.59"/><polygon class="cls-13" points="451.73 256.59 446.24 256.59 446.24 237.46 451.73 237.46 451.73 256.59 451.73 256.59"/><polygon class="cls-13" points="423.33 280.43 418.37 280.43 418.37 261.3 423.33 261.3 423.33 280.43 423.33 280.43"/><polygon class="cls-13" points="433.26 280.62 427.76 280.62 427.76 261.49 433.26 261.49 433.26 280.62 433.26 280.62"/><polygon class="cls-13" points="404.89 280.62 399.93 280.62 399.93 261.49 404.89 261.49 404.89 280.62 404.89 280.62"/><polygon class="cls-13" points="414.82 280.62 409.32 280.62 409.32 261.49 414.82 261.49 414.82 280.62 414.82 280.62"/><polygon class="cls-13" points="460.25 280.43 455.28 280.43 455.28 261.3 460.25 261.3 460.25 280.43 460.25 280.43"/><polygon class="cls-13" points="470.17 280.62 464.68 280.62 464.68 261.49 470.17 261.49 470.17 280.62 470.17 280.62"/><polygon class="cls-13" points="441.81 280.62 436.84 280.62 436.84 261.49 441.81 261.49 441.81 280.62 441.81 280.62"/><polygon class="cls-13" points="451.73 280.62 446.24 280.62 446.24 261.49 451.73 261.49 451.73 280.62 451.73 280.62"/><polygon class="cls-13" points="423.33 304.45 418.37 304.45 418.37 285.32 423.33 285.32 423.33 304.45 423.33 304.45"/><polygon class="cls-13" points="433.26 304.65 427.76 304.65 427.76 285.52 433.26 285.52 433.26 304.65 433.26 304.65"/><polygon class="cls-13" points="404.89 304.65 399.93 304.65 399.93 285.52 404.89 285.52 404.89 304.65 404.89 304.65"/><polygon class="cls-13" points="414.82 304.65 409.32 304.65 409.32 285.52 414.82 285.52 414.82 304.65 414.82 304.65"/><polygon class="cls-13" points="460.25 304.45 455.28 304.45 455.28 285.32 460.25 285.32 460.25 304.45 460.25 304.45"/><polygon class="cls-13" points="470.17 304.65 464.68 304.65 464.68 285.52 470.17 285.52 470.17 304.65 470.17 304.65"/><polygon class="cls-13" points="441.81 304.65 436.84 304.65 436.84 285.52 441.81 285.52 441.81 304.65 441.81 304.65"/><polygon class="cls-13" points="451.73 304.65 446.24 304.65 446.24 285.52 451.73 285.52 451.73 304.65 451.73 304.65"/><polygon class="cls-13" points="423.33 328.48 418.37 328.48 418.37 309.35 423.33 309.35 423.33 328.48 423.33 328.48"/><polygon class="cls-13" points="433.26 328.68 427.76 328.68 427.76 309.55 433.26 309.55 433.26 328.68 433.26 328.68"/><polygon class="cls-13" points="404.89 328.68 399.93 328.68 399.93 309.55 404.89 309.55 404.89 328.68 404.89 328.68"/><polygon class="cls-13" points="414.82 328.68 409.32 328.68 409.32 309.55 414.82 309.55 414.82 328.68 414.82 328.68"/><polygon class="cls-13" points="460.25 328.48 455.28 328.48 455.28 309.35 460.25 309.35 460.25 328.48 460.25 328.48"/><polygon class="cls-13" points="470.17 328.68 464.68 328.68 464.68 309.55 470.17 309.55 470.17 328.68 470.17 328.68"/><polygon class="cls-13" points="441.81 328.68 436.84 328.68 436.84 309.55 441.81 309.55 441.81 328.68 441.81 328.68"/><polygon class="cls-13" points="451.73 328.68 446.24 328.68 446.24 309.55 451.73 309.55 451.73 328.68 451.73 328.68"/><polygon class="cls-13" points="423.33 352.51 418.37 352.51 418.37 333.38 423.33 333.38 423.33 352.51 423.33 352.51"/><polygon class="cls-13" points="433.26 352.71 427.76 352.71 427.76 333.58 433.26 333.58 433.26 352.71 433.26 352.71"/><polygon class="cls-13" points="404.89 352.71 399.93 352.71 399.93 333.58 404.89 333.58 404.89 352.71 404.89 352.71"/><polygon class="cls-13" points="414.82 352.71 409.32 352.71 409.32 333.58 414.82 333.58 414.82 352.71 414.82 352.71"/><polygon class="cls-13" points="460.25 352.51 455.28 352.51 455.28 333.38 460.25 333.38 460.25 352.51 460.25 352.51"/><polygon class="cls-13" points="470.17 352.71 464.68 352.71 464.68 333.58 470.17 333.58 470.17 352.71 470.17 352.71"/><polygon class="cls-13" points="441.81 352.71 436.84 352.71 436.84 333.58 441.81 333.58 441.81 352.71 441.81 352.71"/><polygon class="cls-13" points="451.73 352.71 446.24 352.71 446.24 333.58 451.73 333.58 451.73 352.71 451.73 352.71"/><polygon class="cls-13" points="423.33 376.54 418.37 376.54 418.37 357.41 423.33 357.41 423.33 376.54 423.33 376.54"/><polygon class="cls-13" points="433.26 376.74 427.76 376.74 427.76 357.61 433.26 357.61 433.26 376.74 433.26 376.74"/><polyline class="cls-13" points="404.89 376.74 399.93 376.74 399.93 357.61 404.89 357.61 404.89 376.74"/><polygon class="cls-13" points="414.82 376.74 409.32 376.74 409.32 357.61 414.82 357.61 414.82 376.74 414.82 376.74"/><polygon class="cls-13" points="460.25 376.54 455.28 376.54 455.28 357.41 460.25 357.41 460.25 376.54 460.25 376.54"/><polygon class="cls-13" points="470.17 376.74 464.68 376.74 464.68 357.61 470.17 357.61 470.17 376.74 470.17 376.74"/><polygon class="cls-13" points="441.81 376.74 436.84 376.74 436.84 357.61 441.81 357.61 441.81 376.74 441.81 376.74"/><polygon class="cls-13" points="451.73 376.74 446.24 376.74 446.24 357.61 451.73 357.61 451.73 376.74 451.73 376.74"/><polyline class="cls-13" points="423.33 400.57 418.37 400.57 418.37 381.44 423.33 381.44 423.33 400.57"/><polyline class="cls-13" points="433.26 400.77 427.76 400.77 427.76 381.64 433.26 381.64 433.26 400.77"/><polyline class="cls-13" points="404.89 400.77 399.93 400.77 399.93 381.64 404.89 381.64 404.89 400.77"/><polyline class="cls-13" points="414.82 400.77 409.32 400.77 409.32 381.64 414.82 381.64 414.82 400.77"/><polygon class="cls-13" points="460.25 400.57 455.28 400.57 455.28 381.44 460.25 381.44 460.25 400.57 460.25 400.57"/><polygon class="cls-13" points="470.17 400.77 464.68 400.77 464.68 381.64 470.17 381.64 470.17 400.77 470.17 400.77"/><polyline class="cls-13" points="441.81 400.77 436.84 400.77 436.84 381.64 441.81 381.64 441.81 400.77"/><polygon class="cls-13" points="451.73 400.77 446.24 400.77 446.24 381.64 451.73 381.64 451.73 400.77 451.73 400.77"/><polygon class="cls-13" points="514.43 417.69 510.36 417.69 510.36 241.99 514.43 241.99 514.43 417.69 514.43 417.69"/><polygon class="cls-13" points="521.3 417.69 517.23 417.69 517.23 241.99 521.3 241.99 521.3 417.69 521.3 417.69"/><polygon class="cls-13" points="528.17 417.69 524.1 417.69 524.1 241.99 528.17 241.99 528.17 417.69 528.17 417.69"/><polygon class="cls-13" points="535.04 417.69 530.97 417.69 530.97 241.99 535.04 241.99 535.04 417.69 535.04 417.69"/><polygon class="cls-13" points="541.9 417.69 537.84 417.69 537.84 241.99 541.9 241.99 541.9 417.69 541.9 417.69"/><polygon class="cls-13" points="548.77 417.69 544.7 417.69 544.7 241.99 548.77 241.99 548.77 417.69 548.77 417.69"/><polygon class="cls-13" points="555.64 417.69 551.57 417.69 551.57 241.99 555.64 241.99 555.64 417.69 555.64 417.69"/><polygon class="cls-13" points="519.71 210.26 516.7 210.26 516.7 187.69 519.71 187.69 519.71 210.26 519.71 210.26"/><polygon class="cls-13" points="524.29 210.26 521.27 210.26 521.27 187.69 524.29 187.69 524.29 210.26 524.29 210.26"/><polygon class="cls-13" points="528.87 210.26 525.86 210.26 525.86 187.69 528.87 187.69 528.87 210.26 528.87 210.26"/><polygon class="cls-13" points="533.45 210.26 530.44 210.26 530.44 187.69 533.45 187.69 533.45 210.26 533.45 210.26"/><polygon class="cls-13" points="538.03 210.26 535.02 210.26 535.02 187.69 538.03 187.69 538.03 210.26 538.03 210.26"/><polygon class="cls-13" points="542.61 210.26 539.6 210.26 539.6 187.69 542.61 187.69 542.61 210.26 542.61 210.26"/><polygon class="cls-13" points="547.19 210.26 544.18 210.26 544.18 187.69 547.19 187.69 547.19 210.26 547.19 210.26"/><polygon class="cls-14" points="683.8 151.97 609.07 151.97 609.07 150.37 683.8 150.37 683.8 151.97 683.8 151.97"/><polygon class="cls-13" points="619.71 412.9 615.45 412.9 615.45 151.17 619.71 151.17 619.71 412.9 619.71 412.9"/><polygon class="cls-13" points="629.19 412.9 624.93 412.9 624.93 151.17 629.19 151.17 629.19 412.9 629.19 412.9"/><polygon class="cls-13" points="638.68 412.9 634.42 412.9 634.42 151.17 638.68 151.17 638.68 412.9 638.68 412.9"/><polygon class="cls-13" points="648.16 412.9 643.91 412.9 643.91 151.17 648.16 151.17 648.16 412.9 648.16 412.9"/><polygon class="cls-13" points="657.65 412.9 653.39 412.9 653.39 151.17 657.65 151.17 657.65 412.9 657.65 412.9"/><polygon class="cls-13" points="667.14 412.9 662.88 412.9 662.88 151.17 667.14 151.17 667.14 412.9 667.14 412.9"/><polygon class="cls-13" points="676.62 412.9 672.37 412.9 672.37 151.17 676.62 151.17 676.62 412.9 676.62 412.9"/><polygon class="cls-14" points="682.65 150.37 610.84 150.37 610.84 146.12 682.65 146.12 682.65 150.37 682.65 150.37"/><polygon class="cls-14" points="676.62 146.12 616.16 146.12 616.16 119.52 676.62 119.52 676.62 146.12 676.62 146.12"/><polygon class="cls-13" points="627.06 132.82 619.71 132.82 619.71 122.36 627.06 122.36 627.06 132.82 627.06 132.82"/><polygon class="cls-13" points="636.55 132.82 629.19 132.82 629.19 122.36 636.55 122.36 636.55 132.82 636.55 132.82"/><polygon class="cls-13" points="646.04 132.82 638.68 132.82 638.68 122.36 646.04 122.36 646.04 132.82 646.04 132.82"/><polygon class="cls-13" points="655.52 132.82 648.16 132.82 648.16 122.36 655.52 122.36 655.52 132.82 655.52 132.82"/><polygon class="cls-13" points="665.01 132.82 657.65 132.82 657.65 122.36 665.01 122.36 665.01 132.82 665.01 132.82"/><polygon class="cls-13" points="674.49 132.82 667.14 132.82 667.14 122.36 674.49 122.36 674.49 132.82 674.49 132.82"/><polygon class="cls-13" points="627.06 144.7 619.71 144.7 619.71 134.24 627.06 134.24 627.06 144.7 627.06 144.7"/><polygon class="cls-13" points="636.55 144.7 629.19 144.7 629.19 134.24 636.55 134.24 636.55 144.7 636.55 144.7"/><polygon class="cls-13" points="646.04 144.7 638.68 144.7 638.68 134.24 646.04 134.24 646.04 144.7 646.04 144.7"/><polygon class="cls-13" points="655.52 144.7 648.16 144.7 648.16 134.24 655.52 134.24 655.52 144.7 655.52 144.7"/><polygon class="cls-13" points="665.01 144.7 657.65 144.7 657.65 134.24 665.01 134.24 665.01 144.7 665.01 144.7"/><g class="cls-2"><polygon class="cls-13" points="674.49 144.7 667.14 144.7 667.14 134.24 674.49 134.24 674.49 144.7 674.49 144.7"/><polygon class="cls-13" points="757.42 412.9 683.8 412.9 683.8 167.68 757.42 167.68 757.42 412.9 757.42 412.9"/></g><polygon class="cls-16" points="710.58 190.77 705.61 190.77 705.61 171.64 710.58 171.64 710.58 190.77 710.58 190.77"/><polygon class="cls-16" points="692.14 190.96 687.17 190.96 687.17 171.83 692.14 171.83 692.14 190.96 692.14 190.96"/><polygon class="cls-16" points="702.07 190.96 696.57 190.96 696.57 171.83 702.07 171.83 702.07 190.96 702.07 190.96"/><polygon class="cls-16" points="710.58 214.79 705.61 214.79 705.61 195.66 710.58 195.66 710.58 214.79 710.58 214.79"/><polygon class="cls-16" points="692.14 214.99 687.17 214.99 687.17 195.86 692.14 195.86 692.14 214.99 692.14 214.99"/><polygon class="cls-16" points="702.07 214.99 696.57 214.99 696.57 195.86 702.07 195.86 702.07 214.99 702.07 214.99"/><polygon class="cls-16" points="710.58 238.82 705.61 238.82 705.61 219.69 710.58 219.69 710.58 238.82 710.58 238.82"/><polygon class="cls-16" points="692.14 239.02 687.17 239.02 687.17 219.89 692.14 219.89 692.14 239.02 692.14 239.02"/><polygon class="cls-16" points="702.07 239.02 696.57 239.02 696.57 219.89 702.07 219.89 702.07 239.02 702.07 239.02"/><polygon class="cls-16" points="710.58 262.85 705.61 262.85 705.61 243.72 710.58 243.72 710.58 262.85 710.58 262.85"/><polygon class="cls-16" points="692.14 263.05 687.17 263.05 687.17 243.92 692.14 243.92 692.14 263.05 692.14 263.05"/><polygon class="cls-16" points="702.07 263.05 696.57 263.05 696.57 243.92 702.07 243.92 702.07 263.05 702.07 263.05"/><polygon class="cls-16" points="710.58 286.88 705.61 286.88 705.61 267.75 710.58 267.75 710.58 286.88 710.58 286.88"/><polygon class="cls-16" points="692.14 287.08 687.17 287.08 687.17 267.95 692.14 267.95 692.14 287.08 692.14 287.08"/><polygon class="cls-16" points="702.07 287.08 696.57 287.08 696.57 267.95 702.07 267.95 702.07 287.08 702.07 287.08"/><polygon class="cls-16" points="710.58 310.91 705.61 310.91 705.61 291.78 710.58 291.78 710.58 310.91 710.58 310.91"/><polygon class="cls-16" points="692.14 311.11 687.17 311.11 687.17 291.98 692.14 291.98 692.14 311.11 692.14 311.11"/><polygon class="cls-16" points="702.07 311.11 696.57 311.11 696.57 291.98 702.07 291.98 702.07 311.11 702.07 311.11"/><polygon class="cls-16" points="710.58 334.94 705.61 334.94 705.61 315.81 710.58 315.81 710.58 334.94 710.58 334.94"/><polygon class="cls-16" points="692.14 335.13 687.17 335.13 687.17 316.01 692.14 316.01 692.14 335.13 692.14 335.13"/><polygon class="cls-16" points="702.07 335.13 696.57 335.13 696.57 316.01 702.07 316.01 702.07 335.13 702.07 335.13"/><polygon class="cls-16" points="710.58 358.97 705.61 358.97 705.61 339.84 710.58 339.84 710.58 358.97 710.58 358.97"/><polygon class="cls-16" points="692.14 359.16 687.17 359.16 687.17 340.04 692.14 340.04 692.14 359.16 692.14 359.16"/><polygon class="cls-16" points="702.07 359.16 696.57 359.16 696.57 340.04 702.07 340.04 702.07 359.16 702.07 359.16"/><polygon class="cls-16" points="710.58 383 705.61 383 705.61 363.87 710.58 363.87 710.58 383 710.58 383"/><polygon class="cls-16" points="692.14 383.19 687.17 383.19 687.17 364.06 692.14 364.06 692.14 383.19 692.14 383.19"/><polygon class="cls-16" points="702.07 383.19 696.57 383.19 696.57 364.06 702.07 364.06 702.07 383.19 702.07 383.19"/><g class="cls-2"><path class="cls-14" d="M193.47,278.9c.07-.27.15-.63.23-1l.39-.06a5.39,5.39,0,0,1-.62,1.1m-1.4-.92c.33,0,.65,0,1,0-.26,1.19-.53,2.36-.8,3.4a13.8,13.8,0,0,1-.17-3.35M189,291.1a37.57,37.57,0,0,0-.67-4c-.24-1-.67-5.17-1.12-10a8.14,8.14,0,0,1,.88.25,11.75,11.75,0,0,0,3.67.68,40.24,40.24,0,0,0,0,4.54A60.29,60.29,0,0,1,189,291.1m36.15-22.38a5.42,5.42,0,0,0-4.69-4.16c2.1-1.76,3.62-4,3.23-6.09a4.23,4.23,0,0,0-2.72-3.54v-.14c0-2.85-3.81-5.25-9-5.94-3.56-2-7.13-2.11-8.85-1,.79-1.93,1.24-5-2-5.75-5.51-1.32-13.87-1.67-15,3.31a8.82,8.82,0,0,0-2,1.42l-.61-.06c-7.6-.66-14.82-4.78-17.23,4.63-.09.34-3.78,2.72-5.08,5.72a6.07,6.07,0,0,0-3,4.18,17.51,17.51,0,0,0-7.61,3c-2.73.73-4.49,1.87-4.49,3.15a2.39,2.39,0,0,0,1.32,1.84c0,.16,0,.31,0,.47,0,4.86,6.6,8.79,14.73,8.79a24.12,24.12,0,0,0,4-.33,4.42,4.42,0,0,0,6.26,1.22c3.22-.28,7.29-2.16,11.17-2.56a28.86,28.86,0,0,1,2.59,10.62c.31,8.21.43,30.75.43,30.75h2.92l-.47-24c1.13-3.47,2.94-9.47,4.16-14.08h0l1.17-2.43a13.07,13.07,0,0,0,2.38-.71c3.48.84,8.64,2.15,11.17,3.1,4,1.51,19.15-3.5,17.22-11.41"/><path class="cls-17" d="M714.78,349.47v91.91H113.21c51.38-23.73,128.87-56.66,199.11-75,101.93-26.68,338.81-19.39,402.46-16.86"/></g><path class="cls-18" d="M268.88,143.25h-.39a18.79,18.79,0,0,0-1.28-4.42,14.1,14.1,0,0,0-2.78-4.23,9.34,9.34,0,0,0-3.73-2.37,8.09,8.09,0,0,0-8,2,13.06,13.06,0,0,0-3,4.16c-.36.78-.9,2.4-.9,2.4h-1a28.43,28.43,0,0,0-2.07-4.59,10.73,10.73,0,0,0-3.45-3.31,7.76,7.76,0,0,0-8.1.16,11.37,11.37,0,0,0-3.38,3.31,16.75,16.75,0,0,0-2.2,4.89c-.15.55-.28,1.12-.38,1.69h-.54l-6.67,5.55.73-.22c0,4.78,2.76,8.68,6.13,8.69s6.17-4,6.21-8.85l1.29.43-6.72-5.6h-.21c.12-.53.25-1,.41-1.55a15.67,15.67,0,0,1,2.27-4.6,10.49,10.49,0,0,1,3.29-3A7.13,7.13,0,0,1,242,134a11.58,11.58,0,0,1,3.17,3.06,17,17,0,0,1,2.69,6.19l-1.1,129H245l.31,11.45h-1.82l1,24.27,6.32,0L252,283.72h-1.81l.37-11.44h-1.61l-.11-129.06a18.13,18.13,0,0,1,4.33-8,7.54,7.54,0,0,1,7.42-2.2,8.64,8.64,0,0,1,3.61,2.1A13.07,13.07,0,0,1,267,139a18,18,0,0,1,1.37,4.22h-.45l-6.67,5.55,1.06-.32c0,4.79,2.72,8.78,6.14,8.79s6.15-3.9,6.19-8.75l1,.33-6.72-5.6Z"/><path class="cls-19" d="M255.48,313.85A28,28,0,0,0,258,301.73c0-9.77-4.89-17.7-10.92-17.7a8.35,8.35,0,0,0-6.15,3.08,22,22,0,0,0-16.24-11.88c-1.89-4.69-4.64-7.67-7.71-7.67-3.85,0-7.2,4.66-9,11.57a22,22,0,0,0-5,5,6.87,6.87,0,0,0-1.21-.12,8.35,8.35,0,0,0-6.15,3.08,22.23,22.23,0,0,0-41.52,5.17l-.57.26c-2-4.3-5.22-7.11-8.9-7.11a8.51,8.51,0,0,0-6.15,2.93,21,21,0,0,0-6.18-7.16c-.12-13.6-5.61-24.57-12.38-24.57-6.49,0-11.8,10.06-12.34,22.87A20.74,20.74,0,0,0,97,293.27a12.88,12.88,0,0,0-8.19,10,20.34,20.34,0,0,0-8.11-1.64c-5.55,0-10.45,2.1-13.37,5.3a22,22,0,0,0-3.74-.32c-7,0-12.74,3.19-13.23,7.24H255.48"/><path class="cls-20" d="M377.65,257.3a200.25,200.25,0,0,1-2.06,29.47c-2.72,18.09-7.88,30.29-13.79,30.29-8.75,0-15.85-26.75-15.85-59.76,0-30.06,5.88-54.93,13.54-59.14a4.72,4.72,0,0,1,2.3-.63c8.75,0,15.85,26.76,15.85,59.76Z"/><path class="cls-21" d="M377.65,257.3a200.25,200.25,0,0,1-2.06,29.47c-1.74-3.47-2.94-7.6-1.27-14.53,4.52-18.76-5.05-26.45-10.68-36.07s.3-10.59,1.85-24.42c.54-4.88-2.21-9.57-6-13.58a4.72,4.72,0,0,1,2.3-.63c8.75,0,15.85,26.76,15.85,59.76Z"/><path class="cls-22" d="M450.72,275.43c0,32.12-6,58.17-13.43,58.17-5,0-9.31-11.71-11.63-29.12a222.61,222.61,0,0,1-1.8-29.05c0-32.13,6-58.17,13.43-58.17a3.25,3.25,0,0,1,1.2.23c6.86,2.62,12.23,27.56,12.23,57.93Z"/><polygon class="cls-23" points="363.65 344.69 359.96 344.69 361.4 262.77 363.65 344.69 363.65 344.69"/><path class="cls-20" d="M418.26,263.67a200.18,200.18,0,0,1-2.06,29.47c-2.72,18.09-7.88,30.29-13.79,30.29-8.75,0-15.85-26.75-15.85-59.76,0-30.06,5.88-54.93,13.54-59.14a4.72,4.72,0,0,1,2.3-.63c8.75,0,15.85,26.76,15.85,59.77Z"/><path class="cls-21" d="M418.26,263.67a200.18,200.18,0,0,1-2.06,29.47c-1.74-3.47-2.94-7.6-1.27-14.53,4.52-18.76-5.05-26.45-10.68-36.07s.3-10.59,1.85-24.42c.54-4.88-2.21-9.57-6-13.58a4.72,4.72,0,0,1,2.3-.63c8.75,0,15.85,26.76,15.85,59.77Z"/><polygon class="cls-23" points="406.1 350.56 402.41 350.56 403.85 268.65 406.1 350.56 406.1 350.56"/><path class="cls-20" d="M212.7,227.37a200.26,200.26,0,0,1-2.06,29.47c-2.72,18.09-7.88,30.29-13.79,30.29-8.76,0-15.85-26.75-15.85-59.76,0-30.06,5.88-54.93,13.54-59.14a4.72,4.72,0,0,1,2.3-.63c8.75,0,15.85,26.76,15.85,59.76Z"/><path class="cls-21" d="M212.7,227.37a200.26,200.26,0,0,1-2.06,29.47c-1.74-3.47-2.94-7.6-1.27-14.53,4.52-18.76-5.05-26.45-10.68-36.07s.3-10.59,1.85-24.42c.54-4.88-2.21-9.57-6-13.58a4.72,4.72,0,0,1,2.3-.63c8.75,0,15.85,26.76,15.85,59.76Z"/><polyline class="cls-24" points="198.7 314.26 195.01 314.26 196.45 232.35 198.7 314.26"/><path class="cls-20" d="M64.56,238.49a175.19,175.19,0,0,1-1.8,25.78c-2.38,15.82-6.89,26.49-12.06,26.49-7.66,0-13.86-23.4-13.86-52.27,0-26.29,5.15-48.05,11.85-51.73a4.13,4.13,0,0,1,2-.55c7.65,0,13.86,23.41,13.86,52.28Z"/><path class="cls-21" d="M64.56,238.49a175.19,175.19,0,0,1-1.8,25.78c-1.52-3-2.57-6.65-1.11-12.71,4-16.41-4.42-23.14-9.34-31.55s.27-9.26,1.61-21.36c.47-4.27-1.93-8.37-5.24-11.88a4.13,4.13,0,0,1,2-.55c7.65,0,13.86,23.41,13.86,52.28Z"/><polyline class="cls-23" points="53.93 314.49 50.7 314.49 51.96 242.84 53.93 314.49"/><polygon class="cls-23" points="439.14 345.78 435.45 345.78 436.89 263.87 439.14 345.78 439.14 345.78"/><path class="cls-25" d="M428.54,260.18c-4.65,18.58-2.71,17.25,0,29.49,1.78,8.06-.9,10.85-2.88,14.81a222.61,222.61,0,0,1-1.8-29.05c0-32.13,6-58.17,13.43-58.17a3.25,3.25,0,0,1,1.2.23c-3.4,6.82-6.74,15.77-4.85,21.91,3.46,11.17-.45,2.19-5.1,20.78Z"/><path class="cls-26" d="M411,333.73a14.18,14.18,0,1,1-14.18-14.25A14.21,14.21,0,0,1,411,333.73Z"/><path class="cls-26" d="M430,318.56c0,9.57-6.67,17.33-14.89,17.33s-14.89-7.76-14.89-17.33,6.67-17.33,14.89-17.33S430,309,430,318.56Z"/><path class="cls-26" d="M441.54,335.08a12.3,12.3,0,1,1-12.3-12.37,12.33,12.33,0,0,1,12.3,12.37Z"/><path class="cls-27" d="M429.24,336.42c-1.31,1.06-2.68,2.05-4,3.07l-4.07,3-7.35,5.43.29-32.36-1.61,30-15.32-11.38,15.24,12.89-.26,4.75h1.7l0-2.36,7.73-6.5,3.87-3.28c1.22-1,2.46-2.08,3.66-3.17l.18-.16Z"/><path class="cls-28" d="M392.56,339.83a7.31,7.31,0,0,1,1.09-1.68,1.47,1.47,0,0,1,1.18-.08,1.49,1.49,0,0,1-.37,1.12,7.24,7.24,0,0,1-1.9.64Z"/><path class="cls-28" d="M394.86,341.19a7.34,7.34,0,0,1,.19-2c.23-.49,1-.62,1-.62a1.49,1.49,0,0,1,.19,1.17,7.27,7.27,0,0,1-1.39,1.45Z"/><path class="cls-28" d="M394.75,335.79a6.48,6.48,0,0,0,.47,1.61c.25.36.85.28.85.28a1.4,1.4,0,0,0,0-1,5.11,5.11,0,0,0-1.27-.88Z"/><path class="cls-28" d="M396.73,335.08a7.09,7.09,0,0,0-.27,1.7c.07.45.62.7.62.7a1.41,1.41,0,0,0,.38-.94,6,6,0,0,0-.73-1.46Z"/><path class="cls-28" d="M397.51,341.58a7.33,7.33,0,0,1-.73-1.87c0-.54.62-1,.62-1s.67.42.69,1a7.32,7.32,0,0,1-.59,1.92Z"/><path class="cls-28" d="M390.72,336.34a10.45,10.45,0,0,1,2.43.16.79.79,0,1,1-.44,1.25,10.48,10.48,0,0,1-2-1.41Z"/><path class="cls-28" d="M394.07,337.54a17.49,17.49,0,0,0,1.77.45,10.37,10.37,0,0,0,1.8.22,5.64,5.64,0,0,0,1.77-.24,16.33,16.33,0,0,0,1.71-.62,9,9,0,0,1-1.66.78,5.23,5.23,0,0,1-1.83.28,8.7,8.7,0,0,1-1.82-.27,9.77,9.77,0,0,1-1.73-.61Z"/><path class="cls-28" d="M403.55,329.11a7.29,7.29,0,0,0-1.6,1.21,1.49,1.49,0,0,0,0,1.19s.79,0,1.09-.45a7.33,7.33,0,0,0,.5-1.95Z"/><path class="cls-28" d="M405.06,331.32a7.21,7.21,0,0,0-2,.33c-.47.26-.55,1.05-.55,1.05a1.47,1.47,0,0,0,1.17.11,7.3,7.3,0,0,0,1.35-1.49Z"/><path class="cls-28" d="M399.68,331.58a6.38,6.38,0,0,1,1.62.36c.37.22.34.84.34.84a1.38,1.38,0,0,1-1,0,5.15,5.15,0,0,1-1-1.21Z"/><path class="cls-28" d="M399.11,333.61a7,7,0,0,1,1.67-.38c.45,0,.74.57.74.57a1.4,1.4,0,0,1-.91.44,6,6,0,0,1-1.5-.63Z"/><path class="cls-28" d="M405.62,334a7.26,7.26,0,0,0-1.91-.6c-.54,0-1,.69-1,.69s.46.65,1,.63a7.25,7.25,0,0,0,1.87-.72Z"/><path class="cls-28" d="M400,327.5a10.59,10.59,0,0,0,.33,2.42.79.79,0,1,0,1.21-.53,10.5,10.5,0,0,0-1.54-1.9Z"/><path class="cls-28" d="M401.37,330.78a17.79,17.79,0,0,1,.57,1.74,10.51,10.51,0,0,1,.34,1.79,5.69,5.69,0,0,1-.11,1.8,16.27,16.27,0,0,1-.5,1.76,9.08,9.08,0,0,0,.66-1.72,5.31,5.31,0,0,0,.16-1.85,8.89,8.89,0,0,0-.39-1.81,9.9,9.9,0,0,0-.72-1.7Z"/><path class="cls-28" d="M395.12,324.43a7.32,7.32,0,0,0-1.18,1.62,1.49,1.49,0,0,0,.35,1.13s.76-.23.91-.75a7.35,7.35,0,0,0-.08-2Z"/><path class="cls-28" d="M397.21,326.11a7.23,7.23,0,0,0-1.8.89,1.49,1.49,0,0,0-.22,1.16,1.48,1.48,0,0,0,1.16-.24,7.31,7.31,0,0,0,.86-1.82Z"/><path class="cls-28" d="M392.14,327.92a6.39,6.39,0,0,1,1.66-.13c.42.11.56.7.56.7a1.38,1.38,0,0,1-1,.31,5.12,5.12,0,0,1-1.27-.88Z"/><path class="cls-28" d="M392.17,330a7,7,0,0,1,1.49-.85,1.11,1.11,0,0,1,.87.33s-.3.59-.74.69a6,6,0,0,1-1.62-.17Z"/><path class="cls-28" d="M398.5,328.46a7.23,7.23,0,0,0-2,0c-.51.17-.72.94-.72.94a1.47,1.47,0,0,0,1.14.31,7.28,7.28,0,0,0,1.58-1.23Z"/><path class="cls-28" d="M391.23,323.93a10.55,10.55,0,0,0,1,2.22,1.85,1.85,0,0,0,1.29.5,1.87,1.87,0,0,0-.28-1.36,10.5,10.5,0,0,0-2-1.37Z"/><path class="cls-28" d="M393.52,326.66a17.46,17.46,0,0,1,1,1.5,10.53,10.53,0,0,1,.84,1.61,5.72,5.72,0,0,1,.41,1.75,16.38,16.38,0,0,1,0,1.83,9.1,9.1,0,0,0,.14-1.84,5.31,5.31,0,0,0-.38-1.82,8.83,8.83,0,0,0-.9-1.62,9.81,9.81,0,0,0-1.18-1.41Z"/><path class="cls-28" d="M435.1,339.63a7.29,7.29,0,0,0-1.43-1.41,1.47,1.47,0,0,0-1.17.18s.12.79.61,1a7.25,7.25,0,0,0,2,.21Z"/><path class="cls-28" d="M433.15,341.47a7.34,7.34,0,0,0-.62-1.91c-.33-.43-1.12-.39-1.12-.39a1.49,1.49,0,0,0,.07,1.18,7.25,7.25,0,0,0,1.67,1.12Z"/><path class="cls-28" d="M432.09,336.17a6.46,6.46,0,0,1-.11,1.67c-.17.4-.77.46-.77.46a1.4,1.4,0,0,1-.17-1,5.12,5.12,0,0,1,1-1.14Z"/><path class="cls-28" d="M430,335.9a7.08,7.08,0,0,1,.63,1.6,1.11,1.11,0,0,1-.45.82,1.4,1.4,0,0,1-.57-.83,6,6,0,0,1,.39-1.59Z"/><path class="cls-28" d="M430.64,342.42a7.35,7.35,0,0,0,.31-2c-.1-.53-.82-.85-.82-.85s-.57.55-.47,1.09a7.31,7.31,0,0,0,1,1.75Z"/><path class="cls-28" d="M436.15,335.83a10.43,10.43,0,0,0-2.33.69,1.87,1.87,0,0,0-.68,1.21,1.85,1.85,0,0,0,1.38-.09,10.52,10.52,0,0,0,1.64-1.81Z"/><path class="cls-28" d="M433.14,337.73a17.63,17.63,0,0,1-1.63.82,10.39,10.39,0,0,1-1.71.6,5.63,5.63,0,0,1-1.78.16,16.13,16.13,0,0,1-1.81-.23,9,9,0,0,0,1.79.4,5.23,5.23,0,0,0,1.85-.12,8.76,8.76,0,0,0,1.72-.66,9.84,9.84,0,0,0,1.56-1Z"/><path class="cls-28" d="M426,332.52a7.33,7.33,0,0,1,.74,1.87c0,.54-.61,1-.61,1s-.68-.41-.7-1a7.32,7.32,0,0,1,.57-1.93Z"/><path class="cls-28" d="M423.59,333.63a7.29,7.29,0,0,1,1.52,1.31,1.49,1.49,0,0,1-.07,1.18s-.79,0-1.06-.52a7.34,7.34,0,0,1-.39-2Z"/><path class="cls-28" d="M428.06,336.64a6.4,6.4,0,0,0-1.57-.54c-.43,0-.72.54-.72.54s.41.54.85.54a5.09,5.09,0,0,0,1.45-.54Z"/><path class="cls-28" d="M427.5,338.68a7,7,0,0,0-1.23-1.2,1.1,1.1,0,0,0-.93.1,1.4,1.4,0,0,0,.55.85,6,6,0,0,0,1.61.24Z"/><path class="cls-28" d="M421.76,335.59a7.25,7.25,0,0,1,1.94.48c.45.3.46,1.09.46,1.09a1.47,1.47,0,0,1-1.18,0,7.29,7.29,0,0,1-1.23-1.59Z"/><path class="cls-28" d="M429.92,333a10.54,10.54,0,0,1-1.53,1.9,1.85,1.85,0,0,1-1.37.17,1.87,1.87,0,0,1,.61-1.25,10.46,10.46,0,0,1,2.29-.82Z"/><path class="cls-28" d="M427,335.08a17.67,17.67,0,0,0-1.38,1.2,10.42,10.42,0,0,0-1.21,1.35,5.67,5.67,0,0,0-.83,1.6,16.14,16.14,0,0,0-.48,1.77,9.11,9.11,0,0,1,.32-1.82,5.3,5.3,0,0,1,.82-1.67,8.82,8.82,0,0,1,1.27-1.35,9.8,9.8,0,0,1,1.49-1.08Z"/><path class="cls-28" d="M425.94,320.06a5.79,5.79,0,0,0-1.75-1c-.56-.05-1.21.69-1.21.69s.25.83.81.88a8,8,0,0,0,2.15-.6Z"/><path class="cls-28" d="M424.17,322.93a6.86,6.86,0,0,0-1-1.88c-.42-.35-1.25,0-1.25,0s-.15.95.27,1.3a6,6,0,0,0,2,.55Z"/><path class="cls-28" d="M422.17,317.44a7.72,7.72,0,0,1,.16,1.91,1.5,1.5,0,0,1-.74.84,1.41,1.41,0,0,1-.35-1,8.1,8.1,0,0,1,.93-1.71Z"/><path class="cls-28" d="M419.92,318a6.32,6.32,0,0,1,.93,1.53,1.67,1.67,0,0,1-.34,1.1s-.63-.2-.74-.7a8.16,8.16,0,0,1,.16-1.94Z"/><path class="cls-28" d="M421.68,325a9.35,9.35,0,0,0,0-2.35c-.19-.56-1-.6-1-.6a2.16,2.16,0,0,0-.32,1.41,6.11,6.11,0,0,0,1.34,1.54Z"/><path class="cls-28" d="M426.42,315.37a14.55,14.55,0,0,0-2.36,1.74,2.75,2.75,0,0,0-.52,1.63,2.21,2.21,0,0,0,1.45-.67,16.58,16.58,0,0,0,1.44-2.71Z"/><path class="cls-28" d="M423.54,318.75q-.77.84-1.59,1.6a14.81,14.81,0,0,1-1.71,1.39,7,7,0,0,1-1.87.92,17.1,17.1,0,0,1-2,.49,9,9,0,0,0,2-.3,6.46,6.46,0,0,0,1.94-.91,12.7,12.7,0,0,0,1.72-1.46,15.12,15.12,0,0,0,1.5-1.73Z"/><path class="cls-28" d="M420.65,308a5.78,5.78,0,0,0-2,.07c-.51.24-.68,1.22-.68,1.22s.64.58,1.15.34a8,8,0,0,0,1.53-1.63Z"/><path class="cls-28" d="M420.6,311.37a6.83,6.83,0,0,0-1.8-1.11c-.54-.08-1.05.68-1.05.68s.36.89.89,1a6,6,0,0,0,2-.54Z"/><path class="cls-28" d="M416.07,307.71a7.74,7.74,0,0,1,1.12,1.55,1.51,1.51,0,0,1-.21,1.1,1.39,1.39,0,0,1-.83-.71,8.12,8.12,0,0,1-.08-1.94Z"/><path class="cls-28" d="M414.44,309.36a6.27,6.27,0,0,1,1.58.83,1.67,1.67,0,0,1,.27,1.12,1.15,1.15,0,0,1-1-.21,8.13,8.13,0,0,1-.86-1.74Z"/><path class="cls-28" d="M419.54,314.47a9.33,9.33,0,0,0-1.21-2c-.45-.38-1.18,0-1.18,0s0,1,.45,1.38a6.07,6.07,0,0,0,1.94.63Z"/><path class="cls-28" d="M418.65,303.73a14.62,14.62,0,0,0-1.13,2.72,2.75,2.75,0,0,0,.39,1.67,2.22,2.22,0,0,0,.9-1.32,16.63,16.63,0,0,0-.16-3.06Z"/><path class="cls-28" d="M417.92,308.12q-.23,1.12-.54,2.2a15,15,0,0,1-.75,2.07,7.07,7.07,0,0,1-1.13,1.75,17.68,17.68,0,0,1-1.42,1.44,9.14,9.14,0,0,0,1.53-1.28,6.48,6.48,0,0,0,1.2-1.78,12.74,12.74,0,0,0,.72-2.14,15.25,15.25,0,0,0,.39-2.26Z"/><path class="cls-28" d="M406.27,316.9a5.77,5.77,0,0,1,2,.07c.51.24.68,1.22.68,1.22s-.64.58-1.15.34a8,8,0,0,1-1.53-1.62Z"/><path class="cls-28" d="M406.31,320.27a6.82,6.82,0,0,1,1.8-1.11c.54-.08,1.05.68,1.05.68s-.36.89-.89,1a6,6,0,0,1-2-.54Z"/><path class="cls-28" d="M410.84,316.61a7.71,7.71,0,0,0-1.12,1.55,1.51,1.51,0,0,0,.21,1.1,1.4,1.4,0,0,0,.83-.71,8.12,8.12,0,0,0,.08-1.95Z"/><path class="cls-28" d="M412.47,318.27a6.28,6.28,0,0,0-1.58.83,1.68,1.68,0,0,0-.27,1.12,1.15,1.15,0,0,0,1-.21,8.11,8.11,0,0,0,.86-1.74Z"/><path class="cls-28" d="M407.37,323.37a9.33,9.33,0,0,1,1.21-2c.45-.38,1.18,0,1.18,0s0,1-.45,1.38a6.06,6.06,0,0,1-1.94.63Z"/><path class="cls-28" d="M408.26,312.63a14.67,14.67,0,0,1,1.13,2.72A2.76,2.76,0,0,1,409,317a2.22,2.22,0,0,1-.9-1.33,16.58,16.58,0,0,1,.16-3.06Z"/><path class="cls-28" d="M409,317c.15.75.33,1.48.54,2.2a15,15,0,0,0,.75,2.07,7.06,7.06,0,0,0,1.13,1.75,17.51,17.51,0,0,0,1.42,1.44,9.18,9.18,0,0,1-1.53-1.28,6.51,6.51,0,0,1-1.2-1.78,12.83,12.83,0,0,1-.72-2.14A15.13,15.13,0,0,1,409,317Z"/><g class="cls-2"><path class="cls-29" d="M700.86,347.36c2.68-5.1,4.23-12.82,4.23-20,0-16.16-8.08-29.25-18.05-29.25-3.77,0-7.27,1.88-10.17,5.08A36.44,36.44,0,0,0,650,283.51c-3.12-7.76-7.66-12.67-12.74-12.67-6.37,0-11.9,7.71-14.84,19.12a36.32,36.32,0,0,0-8.31,8.3,11.33,11.33,0,0,0-2-.19c-3.78,0-7.28,1.88-10.18,5.08a36.74,36.74,0,0,0-68.62,8.54c-.32.13-.64.28-.95.43-3.27-7.1-8.63-11.76-14.71-11.76-3.77,0-7.27,1.79-10.17,4.84a34.68,34.68,0,0,0-10.22-11.83c-.19-22.49-9.27-40.61-20.47-40.61-10.72,0-19.51,16.63-20.4,37.8a34.28,34.28,0,0,0-17.54,22.77,21.28,21.28,0,0,0-13.53,16.55,33.62,33.62,0,0,0-13.4-2.72c-9.18,0-17.27,3.47-22.1,8.76a36.45,36.45,0,0,0-6.18-.53c-11.59,0-21.05,5.28-21.87,12Z"/><path class="cls-30" d="M730.76,350.17c0-9.3-13.39-16.9-30.3-17.48a27.21,27.21,0,0,0,1.06-7.55c0-13.49-9.75-24.44-21.78-24.44-8.07,0-15.11,4.93-18.87,12.24a25.22,25.22,0,0,0-12.68-3.33c-9.53,0-17.68,5-21,12.16a37.16,37.16,0,0,0-3.92,2,37.16,37.16,0,0,0-3.92-2c-3.28-7.12-11.42-12.16-21-12.16a25.22,25.22,0,0,0-12.68,3.33C582,305.62,575,300.7,566.9,300.7c-12,0-21.78,10.94-21.78,24.44a27.21,27.21,0,0,0,1.06,7.55c-9.57.33-18,2.91-23.53,6.77a1.33,1.33,0,0,1-2.06-.78c-1.8-7.27-8.44-13.48-17.69-17.16-3.59-7.12-12.5-12.16-22.94-12.16a29.66,29.66,0,0,0-13.88,3.33,23.73,23.73,0,0,0-20.66-12.24c-13.17,0-23.85,10.94-23.85,24.44a25,25,0,0,0,1.16,7.55c-18.51.58-33.16,8.19-33.16,17.48,0,.88,0,2.46.12,3.84L493.3,354l22.7,0h0l94.64.21h3.45l0,0,9.21,0,9.21,0,0,0H636l94.64-.21c.13-1.38.11-3,.11-3.84Z"/><path class="cls-31" d="M713.85,362.3v79.08H318.45C366.7,420.3,427.14,396.49,483,381.87c23.6-6.18,54.42-10.54,88.66-13.55q7.16-.63,14.49-1.19h0q7.33-.55,14.82-1c23.6-1.52,48.2-2.52,72.74-3.12q6.9-.18,13.79-.3,13.27-.26,26.37-.38"/></g><path class="cls-32" d="M652.54,107c0,8.09-4.63,14.63-10.28,14.61S632.05,115,632.08,107l10.44-4.44,10,4.51Z"/><g class="cls-2"><path class="cls-33" d="M650.81,106.24l-8.29-3.73L632.08,107c0,5.92,2.41,11,5.94,13.35a7.2,7.2,0,0,0,2.13.33c5.51,0,10.05-6.28,10.66-14.39Z"/><path class="cls-32" d="M719.7,107.58c0,8.09-4.63,14.63-10.28,14.61s-10.21-6.59-10.18-14.68l10.44-4.44,10,4.51Z"/><path class="cls-33" d="M718,106.8l-8.29-3.73-10.44,4.44c0,5.92,2.41,11,5.94,13.35a7.24,7.24,0,0,0,2.13.33c5.5,0,10.05-6.28,10.65-14.39Z"/><path class="cls-34" d="M710.15,98.95h-.65a31.18,31.18,0,0,0-2.12-7.33c-2.12-4.88-5.73-9.33-10.79-11-4.78-1.55-9.54-.05-13.25,3.26a21.72,21.72,0,0,0-4.94,6.9c-.6,1.29-1.5,4-1.5,4h-1.59a47.39,47.39,0,0,0-3.43-7.61,17.68,17.68,0,0,0-5.72-5.49,12.86,12.86,0,0,0-13.43.27C648,84.9,645,90.22,643.47,95.58c-.26.92-.46,1.85-.63,2.81h-.89l-11.07,9.21s7.77-2.44,11.4-2.87a8.89,8.89,0,0,1,.93-.06c3,0,11.48,3,11.48,3l-11.15-9.28h-.35c.19-.88.41-1.74.68-2.58,1.55-5,4.63-10.07,9.21-12.64a11.83,11.83,0,0,1,12.56.36,19.21,19.21,0,0,1,5.26,5.08,26.86,26.86,0,0,1,3.7,7.46c.29.91.54,1.85.76,2.8L673.22,348.7h3.89L676.9,98.89a23.66,23.66,0,0,1,2.65-6.94,23.48,23.48,0,0,1,4.54-6.38c3.69-3.64,8.18-4.78,12.3-3.64,4.8,1.32,8.48,5.48,10.63,10a29.69,29.69,0,0,1,2.28,7h-.74l-11.06,9.21s9.35-2.94,12.32-2.93,11.48,3,11.48,3l-11.15-9.28Z"/></g><polygon class="cls-35" points="678.46 352.55 671.61 352.53 670.55 312.93 679.76 312.96 678.46 352.55 678.46 352.55"/><polygon class="cls-36" points="682.13 331.95 680.22 372.21 669.73 372.17 668.04 331.9 682.13 331.95 682.13 331.95"/><path class="cls-35" d="M679.84,372.21l-10.12,0L668,331.91l10.74,0c-1.47,13.17-3.27,31.53-2.32,34.89a9.33,9.33,0,0,0,3.38,5.37Z"/><path class="cls-26" d="M252.82,300.66a8.51,8.51,0,1,1-8.51-8.55,8.53,8.53,0,0,1,8.51,8.55Z"/><path class="cls-26" d="M264.24,291.56c0,5.74-4,10.4-8.94,10.4s-8.94-4.66-8.94-10.4,4-10.4,8.94-10.4,8.94,4.66,8.94,10.4Z"/><path class="cls-26" d="M271.18,301.47a7.39,7.39,0,1,1-7.39-7.42,7.41,7.41,0,0,1,7.39,7.42Z"/><path class="cls-27" d="M263.79,302.28c-.79.64-1.61,1.23-2.42,1.84l-2.44,1.81-4.41,3.26.17-19.43-1,18-9.2-6.83,9.15,7.74-.15,2.85h1l0-1.42,4.64-3.9,2.33-2c.73-.63,1.48-1.25,2.2-1.9l.11-.09Z"/><path class="cls-28" d="M241.77,304.33a4.4,4.4,0,0,1,.66-1,.88.88,0,0,1,.71,0s0,.48-.22.68a4.35,4.35,0,0,1-1.14.38Z"/><path class="cls-28" d="M243.16,305.15a4.39,4.39,0,0,1,.11-1.2c.13-.3.6-.37.6-.37a.89.89,0,0,1,.11.7,4.37,4.37,0,0,1-.83.87Z"/><path class="cls-28" d="M243.09,301.9a3.9,3.9,0,0,0,.28,1c.15.21.51.17.51.17a.84.84,0,0,0,0-.6,3.07,3.07,0,0,0-.76-.53Z"/><path class="cls-28" d="M244.27,301.47a4.24,4.24,0,0,0-.16,1c0,.27.37.42.37.42a.84.84,0,0,0,.23-.56,3.62,3.62,0,0,0-.44-.88Z"/><path class="cls-28" d="M244.75,305.38a4.39,4.39,0,0,1-.44-1.12c0-.33.37-.61.37-.61s.4.25.42.58a4.41,4.41,0,0,1-.35,1.15Z"/><path class="cls-28" d="M240.67,302.23a6.24,6.24,0,0,1,1.46.1.47.47,0,1,1-.26.75,6.3,6.3,0,0,1-1.19-.85Z"/><path class="cls-28" d="M242.68,303a10.33,10.33,0,0,0,1.06.27,6.23,6.23,0,0,0,1.08.13,3.39,3.39,0,0,0,1.07-.14,9.72,9.72,0,0,0,1-.37,5.44,5.44,0,0,1-1,.47,3.17,3.17,0,0,1-1.1.17,5.24,5.24,0,0,1-1.1-.16,5.87,5.87,0,0,1-1-.36Z"/><path class="cls-28" d="M248.37,297.89a4.36,4.36,0,0,0-1,.73.9.9,0,0,0,0,.71s.47,0,.66-.27a4.4,4.4,0,0,0,.3-1.17Z"/><path class="cls-28" d="M249.28,299.22a4.34,4.34,0,0,0-1.19.2c-.29.16-.33.63-.33.63a.88.88,0,0,0,.71.07,4.37,4.37,0,0,0,.81-.89Z"/><path class="cls-28" d="M246,299.38a3.83,3.83,0,0,1,1,.21c.22.14.2.5.2.5a.83.83,0,0,1-.6,0,3.08,3.08,0,0,1-.58-.73Z"/><path class="cls-28" d="M245.71,300.59a4.19,4.19,0,0,1,1-.23c.27,0,.44.34.44.34a.84.84,0,0,1-.54.27,3.6,3.6,0,0,1-.9-.38Z"/><path class="cls-28" d="M249.61,300.8a4.35,4.35,0,0,0-1.15-.36c-.32,0-.57.42-.57.42s.28.39.6.38a4.35,4.35,0,0,0,1.12-.43Z"/><path class="cls-28" d="M246.22,296.92a6.34,6.34,0,0,0,.2,1.45.47.47,0,1,0,.73-.32,6.33,6.33,0,0,0-.92-1.14Z"/><path class="cls-28" d="M247.07,298.89a10.5,10.5,0,0,1,.34,1,6.3,6.3,0,0,1,.2,1.07,3.42,3.42,0,0,1-.07,1.08,9.82,9.82,0,0,1-.3,1.06,5.45,5.45,0,0,0,.4-1,3.2,3.2,0,0,0,.09-1.11,5.34,5.34,0,0,0-.24-1.09,5.92,5.92,0,0,0-.43-1Z"/><path class="cls-28" d="M243.31,295.08a4.37,4.37,0,0,0-.71,1,.89.89,0,0,0,.21.68s.45-.14.55-.45a4.41,4.41,0,0,0,0-1.21Z"/><path class="cls-28" d="M244.56,296.09a4.36,4.36,0,0,0-1.08.53.9.9,0,0,0-.13.7.89.89,0,0,0,.69-.14,4.4,4.4,0,0,0,.52-1.09Z"/><path class="cls-28" d="M241.52,297.18a3.83,3.83,0,0,1,1-.08c.25.06.34.42.34.42a.83.83,0,0,1-.57.19,3.07,3.07,0,0,1-.76-.53Z"/><path class="cls-28" d="M241.54,298.44a4.23,4.23,0,0,1,.89-.51.66.66,0,0,1,.52.2s-.18.35-.44.41a3.58,3.58,0,0,1-1-.1Z"/><path class="cls-28" d="M245.34,297.5a4.35,4.35,0,0,0-1.2,0c-.31.1-.43.56-.43.56a.89.89,0,0,0,.68.19,4.35,4.35,0,0,0,.95-.74Z"/><path class="cls-28" d="M241,294.78a6.34,6.34,0,0,0,.61,1.34,1.11,1.11,0,0,0,.77.3,1.12,1.12,0,0,0-.17-.81,6.3,6.3,0,0,0-1.21-.82Z"/><path class="cls-28" d="M242.35,296.42a10.81,10.81,0,0,1,.63.9,6.3,6.3,0,0,1,.5,1,3.41,3.41,0,0,1,.24,1.05,9.69,9.69,0,0,1,0,1.1,5.44,5.44,0,0,0,.08-1.11,3.18,3.18,0,0,0-.23-1.09,5.3,5.3,0,0,0-.54-1,6,6,0,0,0-.71-.85Z"/><path class="cls-28" d="M267.31,304.21a4.38,4.38,0,0,0-.86-.84.88.88,0,0,0-.7.11s.07.47.36.61a4.33,4.33,0,0,0,1.19.13Z"/><path class="cls-28" d="M266.14,305.31a4.39,4.39,0,0,0-.37-1.15c-.2-.26-.67-.23-.67-.23a.9.9,0,0,0,0,.71,4.34,4.34,0,0,0,1,.67Z"/><path class="cls-28" d="M265.51,302.13a3.88,3.88,0,0,1-.07,1c-.1.24-.46.28-.46.28a.84.84,0,0,1-.1-.6,3.08,3.08,0,0,1,.63-.68Z"/><path class="cls-28" d="M264.26,302a4.24,4.24,0,0,1,.38,1,.67.67,0,0,1-.27.49.84.84,0,0,1-.34-.5,3.62,3.62,0,0,1,.24-1Z"/><path class="cls-28" d="M264.64,305.88a4.4,4.4,0,0,0,.18-1.19c-.06-.32-.5-.51-.5-.51s-.34.33-.28.65a4.4,4.4,0,0,0,.59,1Z"/><path class="cls-28" d="M267.94,301.93a6.28,6.28,0,0,0-1.4.41.47.47,0,1,0,.42.67,6.31,6.31,0,0,0,1-1.09Z"/><path class="cls-28" d="M266.13,303.06a10.54,10.54,0,0,1-1,.5,6.16,6.16,0,0,1-1,.36,3.36,3.36,0,0,1-1.07.09,9.68,9.68,0,0,1-1.08-.14,5.36,5.36,0,0,0,1.08.24,3.14,3.14,0,0,0,1.11-.07,5.19,5.19,0,0,0,1-.4,5.86,5.86,0,0,0,.94-.58Z"/><path class="cls-28" d="M261.86,299.94a4.41,4.41,0,0,1,.45,1.12c0,.33-.37.61-.37.61s-.41-.25-.42-.57a4.4,4.4,0,0,1,.34-1.16Z"/><path class="cls-28" d="M260.4,300.61a4.39,4.39,0,0,1,.91.78.9.9,0,0,1,0,.71s-.47,0-.64-.31a4.41,4.41,0,0,1-.23-1.19Z"/><path class="cls-28" d="M263.08,302.42a3.84,3.84,0,0,0-.95-.32c-.26,0-.43.32-.43.32s.25.32.51.32a3.06,3.06,0,0,0,.87-.32Z"/><path class="cls-28" d="M262.75,303.64a4.22,4.22,0,0,0-.74-.72.66.66,0,0,0-.56.06.84.84,0,0,0,.33.51,3.58,3.58,0,0,0,1,.15Z"/><path class="cls-28" d="M259.3,301.78a4.34,4.34,0,0,1,1.17.29c.27.18.28.65.28.65a.88.88,0,0,1-.71,0,4.38,4.38,0,0,1-.74-1Z"/><path class="cls-28" d="M264.2,300.23a6.33,6.33,0,0,1-.92,1.14,1.11,1.11,0,0,1-.82.1,1.12,1.12,0,0,1,.36-.75,6.28,6.28,0,0,1,1.37-.49Z"/><path class="cls-28" d="M262.46,301.47a10.49,10.49,0,0,0-.83.72,6.28,6.28,0,0,0-.73.81,3.41,3.41,0,0,0-.5,1,9.91,9.91,0,0,0-.29,1.06,5.48,5.48,0,0,1,.19-1.09,3.19,3.19,0,0,1,.49-1,5.3,5.3,0,0,1,.76-.81,5.91,5.91,0,0,1,.89-.65Z"/><path class="cls-28" d="M261.82,292.46a3.48,3.48,0,0,0-1.05-.59c-.33,0-.72.41-.72.41s.15.5.49.53a4.81,4.81,0,0,0,1.29-.36Z"/><path class="cls-28" d="M260.75,294.18a4.13,4.13,0,0,0-.58-1.13c-.25-.21-.75,0-.75,0s-.09.57.16.78a3.61,3.61,0,0,0,1.17.33Z"/><path class="cls-28" d="M259.55,290.89a4.65,4.65,0,0,1,.1,1.15.9.9,0,0,1-.45.5.84.84,0,0,1-.21-.62,4.86,4.86,0,0,1,.56-1Z"/><path class="cls-28" d="M258.2,291.23a3.8,3.8,0,0,1,.56.92,1,1,0,0,1-.21.66s-.38-.12-.45-.42a4.89,4.89,0,0,1,.09-1.17Z"/><path class="cls-28" d="M259.25,295.45a5.62,5.62,0,0,0,0-1.41c-.12-.33-.61-.36-.61-.36a1.3,1.3,0,0,0-.19.85,3.67,3.67,0,0,0,.8.93Z"/><path class="cls-28" d="M262.1,289.65a8.71,8.71,0,0,0-1.42,1,1.66,1.66,0,0,0-.31,1,1.33,1.33,0,0,0,.87-.4,10,10,0,0,0,.86-1.62Z"/><path class="cls-28" d="M260.37,291.67c-.31.34-.63.66-1,1a8.94,8.94,0,0,1-1,.83,4.23,4.23,0,0,1-1.12.55,10.47,10.47,0,0,1-1.17.3,5.45,5.45,0,0,0,1.18-.18,3.87,3.87,0,0,0,1.16-.54,7.68,7.68,0,0,0,1-.88,9.1,9.1,0,0,0,.9-1Z"/><path class="cls-28" d="M258.64,285.22a3.46,3.46,0,0,0-1.2,0c-.3.15-.41.73-.41.73s.39.35.69.2a4.85,4.85,0,0,0,.92-1Z"/><path class="cls-28" d="M258.61,287.24a4.1,4.1,0,0,0-1.08-.67c-.32,0-.63.41-.63.41s.21.53.54.58a3.62,3.62,0,0,0,1.17-.32Z"/><path class="cls-28" d="M255.89,285a4.61,4.61,0,0,1,.67.93.9.9,0,0,1-.12.66.84.84,0,0,1-.5-.43,4.87,4.87,0,0,1-.05-1.17Z"/><path class="cls-28" d="M254.91,286a3.76,3.76,0,0,1,1,.5,1,1,0,0,1,.16.67.69.69,0,0,1-.6-.13,4.87,4.87,0,0,1-.52-1Z"/><path class="cls-28" d="M258,289.1a5.62,5.62,0,0,0-.73-1.21c-.27-.23-.71,0-.71,0s0,.6.27.83a3.64,3.64,0,0,0,1.16.38Z"/><path class="cls-28" d="M257.44,282.66a8.84,8.84,0,0,0-.68,1.63,1.65,1.65,0,0,0,.24,1,1.33,1.33,0,0,0,.54-.8,10,10,0,0,0-.1-1.84Z"/><path class="cls-28" d="M257,285.29c-.09.45-.2.89-.32,1.32a9,9,0,0,1-.45,1.25,4.23,4.23,0,0,1-.68,1.05,10.54,10.54,0,0,1-.85.86,5.49,5.49,0,0,0,.92-.77,3.9,3.9,0,0,0,.72-1.07,7.71,7.71,0,0,0,.43-1.29,9.13,9.13,0,0,0,.24-1.36Z"/><path class="cls-28" d="M250,290.56a3.46,3.46,0,0,1,1.2,0c.3.15.41.73.41.73s-.39.35-.69.2a4.85,4.85,0,0,1-.92-1Z"/><path class="cls-28" d="M250,292.59a4.1,4.1,0,0,1,1.08-.67c.32,0,.63.41.63.41s-.21.54-.54.58a3.62,3.62,0,0,1-1.17-.32Z"/><path class="cls-28" d="M252.75,290.39a4.63,4.63,0,0,0-.67.93.91.91,0,0,0,.12.66.84.84,0,0,0,.5-.43,4.87,4.87,0,0,0,0-1.17Z"/><path class="cls-28" d="M253.73,291.38a3.76,3.76,0,0,0-1,.5,1,1,0,0,0-.16.67.69.69,0,0,0,.6-.13,4.87,4.87,0,0,0,.52-1Z"/><path class="cls-28" d="M250.66,294.45a5.62,5.62,0,0,1,.73-1.21c.27-.23.71,0,.71,0s0,.6-.27.82a3.64,3.64,0,0,1-1.16.38Z"/><path class="cls-28" d="M251.2,288a8.77,8.77,0,0,1,.68,1.63,1.65,1.65,0,0,1-.24,1,1.33,1.33,0,0,1-.54-.8,10,10,0,0,1,.1-1.84Z"/><g class="cls-2"><path class="cls-28" d="M251.64,290.63c.09.45.2.89.32,1.32a9,9,0,0,0,.45,1.24,4.25,4.25,0,0,0,.68,1.05,10.53,10.53,0,0,0,.85.86,5.46,5.46,0,0,1-.92-.77,3.9,3.9,0,0,1-.72-1.07,7.66,7.66,0,0,1-.43-1.29,9.13,9.13,0,0,1-.24-1.36Z"/><path class="cls-37" d="M713.85,408.16l-2.27,4.69-13.81,28.53H34.85V314.06c18-2.35,57-6,120.27-4.68,11.23.23,22.42.41,33.61.62,48.89.88,97.37,2.07,146.18,8.72,83.66,11.39,168.67,26.39,251.23,48.42h0q37.89,10.12,75,22.31,22.51,7.43,44.62,15.73c2.63,1,5.34,2,8.1,3"/><path class="cls-38" d="M709.22,400.93l-22.64-8.2q-12.21-4.31-24.51-8.32-30.33-9.92-61.1-18.3l-6.45-1.76c-31-8.34-62.28-15.59-93.68-22.06s-63-12-94.66-17l-23.77-3.59-23.79-3.37-23.82-3.15c-4-.47-8-1-12-1.42s-8-.86-12-1.22c-16-1.52-32-2.51-48-3.2l-6-.25-6-.21-6-.2-6-.16c-8-.21-16-.34-24-.45-16-.21-32-.29-48-.42l-12-.1-12,0c-4,0-8,0-12,.09s-8,.07-12,.19c-16,.35-32,1-48,2.23-4,.31-8,.62-12,1s-8,.8-11.95,1.24-8,1-11.94,1.55v.4h.08l6-.64,6-.55c4-.31,8-.65,12-.88s8-.47,12-.66c16-.77,31.95-1.05,47.92-1s31.94.49,47.94,1c11.2.32,22.4.62,33.59,1q7.19.22,14.37.46c8,.28,16,.57,24,.94l6,.27,6,.3,6,.31,6,.36c15.93,1,31.83,2.25,47.67,4,4,.41,7.91.93,11.86,1.39s7.89,1.06,11.83,1.59l23.71,3.49,23.68,3.68,23.64,3.89c31.49,5.35,62.88,11.23,94.08,18q36.53,7.81,72.67,17.23,10.17,2.65,20.3,5.44,34.59,9.52,68.61,20.86,11.33,3.79,22.59,7.79l22.45,8.23,6,2.21,2.27.84V402.64l-4.64-1.7"/></g><path class="cls-39" d="M477.24,441.38H34.85V314.06c18-2.35,57-6,120.27-4.68,11.23.23,22.42.41,33.61.62l11.52,2.48c82.53,18,163.69,39.51,202.15,61,31.71,17.68,56.24,42.63,74.83,68"/><path class="cls-40" d="M188.19,310l-6.33-.11,6.33.11"/><path class="cls-41" d="M409.24,394.47a208.31,208.31,0,0,0-26.48-18.58c-11.37-6.7-25.69-13.38-42.37-19.94h18.85l.12-1c17.25,6.12,31.93,12.33,43,18.52a210.12,210.12,0,0,1,29.33,19.82c-6.22.44-13.8.85-22.49,1.22m-88.78-52.05H302.37l-6.31-2h17.43l7,2m-58-15.55H249.68c-19.19-5.18-39.41-10.21-60.28-15-2.47-.57-13.72-1.57-16.19-2.13l8.65.15,6.33.11h.54l11.52,2.48c21,4.58,42,9.4,62.19,14.39"/><g class="cls-2"><path class="cls-42" d="M679.65,395a9,9,0,0,1-4.4,3.7,7.71,7.71,0,0,1,5-9.43,9,9,0,0,1-.62,5.72Z"/><path class="cls-37" d="M34.7,399.34s407.32-.44,416-8.77,12.94-20.75,12.94-20.75l105.69,45.94v33.49H34.7V399.34"/></g><path class="cls-43" d="M34.85,399.34V388.67c8.18,1,21.57,2.6,39.08,4.66,13.92,1.64,30.43,3.57,49,5.7-49.61.27-85.45.32-88.07.32"/><path class="cls-44" d="M559,441.38H34.85v-42c2.63,0,38.46,0,88.07-.32,112,12.85,298.26,33.1,436.12,42.36"/><g class="cls-2"><polygon class="cls-38" points="202.66 399.32 432.23 397.59 432.23 392.76 133.02 396.04 133.02 399.32 202.66 399.32 202.66 399.32"/><path class="cls-45" d="M175.63,181.4c0,29.05-2.75,55.81-7.37,77.08v0q-.59,2.74-1.23,5.36c-.39,1.62-.8,3.19-1.21,4.73l0,0c-6.36,23.59-15.27,38.26-25.14,38.26-13,0-24.27-25.27-30.31-62.82a399.23,399.23,0,0,1-4.68-62.69C105.66,119,118.37,67.16,135,57.5a11.11,11.11,0,0,1,5.63-1.62,10.14,10.14,0,0,1,3.12.51c17.86,5.66,31.86,59.46,31.86,125Z"/></g><path class="cls-46" d="M151.46,127.59l.07.11c-.26,1-.07-.11-.07-.11Z"/><g class="cls-2"><path class="cls-46" d="M167.3,261.92c-.07.66-.17,1.31-.28,2a30.25,30.25,0,0,1-1.21,4.73l0,0c-1.15,3.3-.46.41,1.51-6.73Z"/><path class="cls-47" d="M175.63,181.4c0,29.05-2.75,55.81-7.37,77.08v0c-.34,1.22-.66,2.36-.95,3.4C169.72,241.77,157,215,157,215s7-3.63,10.75-31.55c3.63-26.92-14.84-53.84-16.17-55.74.36-1.4,1.6-6.91,5.42-25.3C160.73,84.21,147.4,68.07,135,57.5a11.11,11.11,0,0,1,5.63-1.62,10.14,10.14,0,0,1,3.12.51c17.86,5.66,31.86,59.46,31.86,125Z"/><path class="cls-48" d="M117.85,148.49c-12.13,40.1-7.05,37.23,0,63.63,4.64,17.4-2.36,23.41-7.51,32a399,399,0,0,1-4.68-62.69c0-69.32,15.67-125.51,35-125.51a10.05,10.05,0,0,1,3.12.5c-8.86,14.71-17.57,34-12.63,47.27,9,24.1-1.16,4.72-13.29,44.83Z"/><polygon class="cls-49" points="167.7 228.57 145.61 286.98 144.35 238.43 162.77 166.47 144.18 231.8 142.02 148.12 141.38 186.69 131.62 146.75 141.17 192.54 141.28 192.51 139.72 286.89 113.58 228.57 139.58 295.11 138.24 376.24 147.92 376.24 145.85 296.39 167.7 228.57 167.7 228.57"/><path class="cls-45" d="M95.37,162c0,89.45-15.77,162-35.22,162-13,0-24.44-32.62-30.52-81.09A657.52,657.52,0,0,1,24.91,162C24.91,72.52,40.7,0,60.15,0a8.13,8.13,0,0,1,3.14.65C81.28,8,95.37,77.4,95.37,162Z"/><path class="cls-48" d="M37.19,119.53c-12.21,51.76-7.1,48.05,0,82.12,4.68,22.46-2.37,30.22-7.56,41.25A657.52,657.52,0,0,1,24.91,162C24.91,72.52,40.7,0,60.15,0a8.13,8.13,0,0,1,3.14.65c-8.92,19-17.7,43.92-12.71,61,9.07,31.11-1.17,6.09-13.38,57.86Z"/><polygon class="cls-49" points="84.77 210.26 62.68 268.67 61.42 220.11 79.84 148.15 61.25 213.48 59.08 129.81 58.45 168.37 48.69 128.43 58.23 174.22 58.35 174.2 56.78 268.57 30.64 210.26 56.65 276.79 55.3 357.92 64.99 357.92 62.92 278.07 84.77 210.26 84.77 210.26"/><path class="cls-50" d="M203.78,392.3c0-14.88-14.85-27.57-35.74-32.56,5-12.2,3.13-22.21-6-25.19-7-2.27-16.83,0-26.87,5.48,5.51-20.7.89-37.38-12.35-39.71-7.77-1.36-17.08,2.47-25.95,9.8-8.79-13.64-22.31-22.38-37.48-22.38-26.49,0-48,26.63-48,59.48,0,1.27,0,2.53.1,3.77C4.27,358,0,366.58,0,375.91c0,8.67,3.69,16.72,10,23.41H202.65a22.57,22.57,0,0,0,1.12-7Z"/><path class="cls-51" d="M153.59,374.29c5-12.2,3.13-22.21-6-25.19-7-2.27-16.83,0-26.87,5.48,5.51-20.69.89-37.38-12.35-39.71-7.77-1.36-17.08,2.47-25.95,9.8C73.61,311,60.09,302.28,44.92,302.28a40.58,40.58,0,0,0-22.42,6.89,68.37,68.37,0,0,0-11.1,38c0,1.27,0,2.53.1,3.77C4.27,358,0,366.58,0,375.91c0,8.67,3.69,16.72,10,23.41H188c-4-11.53-17.17-20.91-34.44-25Z"/></g><polyline class="cls-52" points="206.51 370.22 201.7 370.22 201.7 322.94 206.51 322.94 206.51 370.22"/><polyline class="cls-52" points="338 370.22 333.99 370.22 333.99 324.79 338 324.79 338 370.22"/><polygon class="cls-53" points="354.74 372.94 190.46 372.94 190.46 369.82 354.74 369.82 354.74 372.94 354.74 372.94"/><polygon class="cls-54" points="354.74 380 190.46 380 190.46 372.94 354.74 372.94 354.74 380 354.74 380"/><polyline class="cls-55" points="360.53 344.6 360.77 342.42 183.01 342.42 183.51 347 190.46 347 183.56 347.51 184.32 354.64 184.87 355.95 359.25 355.95 360.49 344.9 357.22 344.9 360.53 344.6"/><polygon class="cls-56" points="209.35 402.45 204.63 402.45 204.63 380 209.35 380 209.35 402.45 209.35 402.45"/><polygon class="cls-56" points="338.02 402.45 332.41 402.45 332.41 380 338.02 380 338.02 402.45 338.02 402.45"/><g class="cls-57"><rect class="cls-58" x="218.63" y="350.7" width="46.85" height="3.01"/></g><path class="cls-59" d="M291.3,350.61c-2.75-.25-5.52-.38-8.3-.46-1.25,0-2.5-.06-3.75-.06-1.52,0-3,0-4.55.14-.69,0-1.33.12-2,.19s-1.41.11-2.11.13l-1.34,0c-1,0-1.92,0-2.88-.08-1.4-.07-2.79-.18-4.17-.31s-2.74-.24-4.14-.42c-2.75-.38-5.32-1-8-1.37a23.86,23.86,0,0,0-3.27-.25l-.75,0a25.09,25.09,0,0,0-3.92.6c-1.29.28-2.57.6-3.93.83A28.3,28.3,0,0,1,234,350h-.42a31.55,31.55,0,0,1-7.75-.91,33.1,33.1,0,0,0,6.88.71l1.28,0a27.9,27.9,0,0,0,4-.42c1.3-.24,2.55-.58,3.85-.88a23.6,23.6,0,0,1,4.09-.67l.91,0a25.25,25.25,0,0,1,3.35.25c2.75.36,5.34,1,8,1.33,1.31.17,2.72.29,4.08.43s2.74.25,4.11.32c1,.06,2,.09,3,.09h1.07c1.37,0,2.69-.2,4.12-.28,1.12-.06,2.24-.08,3.36-.08,1.68,0,3.36.05,5,.13,2.78.15,5.56.32,8.27.68"/><polyline class="cls-55" points="361.27 329.35 362.26 329.26 362.53 326.87 181.35 326.87 181.84 331.45 185.08 331.45 181.86 331.68 182.8 340.4 361 340.4 362.25 329.35 361.27 329.35"/><path class="cls-58" d="M225.14,338.19a10.8,10.8,0,0,1-1.12-.05,35.55,35.55,0,0,1-5.27-1.12,50.16,50.16,0,0,0-10.57-1.53l-1.09,0a29.88,29.88,0,0,0-4.36.31,14.29,14.29,0,0,0-4.73,1.47,12.86,12.86,0,0,1,4.62-1.65,28.38,28.38,0,0,1,5.12-.42h.45a48,48,0,0,1,10.89,1.45,39.74,39.74,0,0,0,5.07,1.07,9.86,9.86,0,0,0,1.06.05,14.59,14.59,0,0,0,1.56-.09c.89-.09,1.78-.23,2.66-.37,3.52-.6,7-1.31,10.41-2.09h.09l3.78.05,3.78.07-3.78.07-3.73.05c-3.45.86-6.61,1.61-10.33,2.24-.9.15-1.8.29-2.73.4a15.86,15.86,0,0,1-1.8.11"/><path class="cls-59" d="M274.47,335.18c-2.9-.25-5.84-.38-8.77-.46-1.32,0-2.64-.06-4-.06-1.61,0-3.22,0-4.81.14-.73,0-1.4.12-2.16.19s-1.49.11-2.23.14l-1.42,0c-1,0-2,0-3-.08-1.48-.07-2.94-.18-4.4-.31s-2.89-.24-4.37-.42c-2.91-.38-5.33-1-8.44-1.37a26.63,26.63,0,0,0-3.46-.25l-.79,0a28,28,0,0,0-4.15.6c-1.36.28-2.72.6-4.15.83a31.55,31.55,0,0,1-4.41.37h-.45a35.14,35.14,0,0,1-8.19-.91,36.82,36.82,0,0,0,7.26.71l1.35,0a30.93,30.93,0,0,0,4.27-.42c1.38-.24,2.7-.58,4.06-.88a26.25,26.25,0,0,1,4.32-.67l1,0a28.25,28.25,0,0,1,3.53.25c2.91.36,5.64,1,8.46,1.33,1.39.17,2.87.29,4.31.43s2.89.25,4.34.33c1.07.06,2.15.09,3.22.09h1.13c1.45,0,2.85-.2,4.35-.28,1.19-.06,2.37-.08,3.55-.08,1.78,0,3.55.05,5.31.13,2.93.15,5.87.32,8.74.68"/><path class="cls-60" d="M353.15,336.5c-2.9-.25-5.84-.38-8.77-.46-1.32,0-2.64-.06-4-.06-1.61,0-3.22,0-4.81.14-.73,0-1.4.12-2.16.19s-1.49.11-2.23.14l-1.41,0c-1,0-2,0-3.05-.08-1.48-.07-2.94-.18-4.4-.31s-2.89-.24-4.37-.42c-2.91-.38-5.62-1-8.44-1.37a26.64,26.64,0,0,0-3.46-.25l-.79,0a27.89,27.89,0,0,0-4.15.6c-1.36.28-2.72.6-4.15.83a31.48,31.48,0,0,1-4.41.37h-.44A35.16,35.16,0,0,1,284,335a36.92,36.92,0,0,0,7.27.71l1.35,0a30.93,30.93,0,0,0,4.27-.42c1.38-.24,2.7-.58,4.07-.88a26.24,26.24,0,0,1,4.32-.67l1,0a28.28,28.28,0,0,1,3.54.25c2.91.36,5.64,1,8.46,1.33,1.39.17,2.87.29,4.31.43s2.89.25,4.34.33c1.07.06,2.15.09,3.22.09h1.13c1.45,0,2.85-.2,4.35-.28,1.19-.06,2.37-.08,3.55-.08,1.78,0,3.55.05,5.31.13,2.93.15,5.87.33,8.74.68"/><path class="cls-58" d="M224.46,336a2.16,2.16,0,0,1-1.07-.23,2.88,2.88,0,0,0-1.15-.28,8.78,8.78,0,0,0,1.93-.42,10,10,0,0,1,3-.77,4.74,4.74,0,0,1,1.33.21c1.69.49,3.67.16,5.93.4,0,0-3.68.37-5,.37h-.57a13.85,13.85,0,0,0-2.81.52,7.5,7.5,0,0,1-1.63.23m-2.7-.49a2.52,2.52,0,0,1-.42,0h.42l.47,0-.48,0"/><polygon class="cls-61" points="202.1 372.94 201.7 377.17 201.3 372.94 202.1 372.94 202.1 372.94"/><polygon class="cls-61" points="210.9 372.94 210.5 378.6 210.1 372.94 210.9 372.94 210.9 372.94"/><polygon class="cls-61" points="216.91 372.94 216.51 375.77 216.11 372.94 216.91 372.94 216.91 372.94"/><polygon class="cls-61" points="223.5 372.94 222.33 377.17 222.79 372.94 223.5 372.94 223.5 372.94"/><polygon class="cls-61" points="232.95 372.94 232.55 377.91 232.15 372.94 232.95 372.94 232.95 372.94"/><polygon class="cls-61" points="247.98 372.94 247.58 376.47 247.18 372.94 247.98 372.94 247.98 372.94"/><polygon class="cls-61" points="258 372.94 257.6 378.6 257.2 372.94 258 372.94 258 372.94"/><polygon class="cls-61" points="279.06 372.94 279.65 375.77 278.38 372.94 279.06 372.94 279.06 372.94"/><polygon class="cls-61" points="294.14 372.94 292.08 377.91 293.47 372.94 294.14 372.94 294.14 372.94"/><polygon class="cls-61" points="300.7 372.94 300.3 377.06 299.9 372.94 300.7 372.94 300.7 372.94"/><path class="cls-42" d="M83.27,315.32c-2.51,4.72-8,6.71-8,6.71s-1.4-5.65,1.11-10.37,8-6.71,8-6.71,1.4,5.65-1.11,10.37Z"/><path class="cls-42" d="M75.49,308.26c.86,3.94-1.61,7.83-1.61,7.83s-3.87-2.5-4.73-6.44,1.61-7.83,1.61-7.83,3.87,2.5,4.73,6.44Z"/><g class="cls-2"><path class="cls-42" d="M69.37,313.45c4.45,2.95,5.92,8.58,5.92,8.58s-5.76.85-10.21-2.1-5.92-8.58-5.92-8.58,5.76-.85,10.21,2.09Z"/><path class="cls-42" d="M40.07,343.48c.16,5.34-3.6,9.79-3.6,9.79s-4-4.21-4.18-9.55,3.6-9.78,3.6-9.78,4,4.21,4.18,9.55Z"/><path class="cls-42" d="M27.08,348.75c5.33.35,9.4,4.51,9.4,4.51s-4.58,3.6-9.91,3.25-9.4-4.51-9.4-4.51,4.58-3.6,9.91-3.25Z"/><path class="cls-42" d="M49.72,352.93c.16,5.34-3.6,9.79-3.6,9.79s-4-4.21-4.18-9.55,3.6-9.79,3.6-9.79,4,4.21,4.18,9.55Z"/><path class="cls-42" d="M36.73,358.2c5.33.35,9.4,4.51,9.4,4.51s-4.58,3.6-9.91,3.25-9.4-4.51-9.4-4.51,4.58-3.6,9.91-3.25Z"/></g><path class="cls-42" d="M99.83,382.58c-5.33.34-9.9-3.26-9.9-3.26s4.07-4.16,9.4-4.5,9.9,3.26,9.9,3.26-4.07,4.16-9.4,4.5Z"/><path class="cls-42" d="M94.12,369.78c-.17,5.34-4.19,9.55-4.19,9.55s-3.75-4.45-3.59-9.79S90.53,360,90.53,360s3.75,4.45,3.59,9.79Z"/><path class="cls-42" d="M104.23,374.75a11.47,11.47,0,0,1-6.95-2.29,11.47,11.47,0,0,1,6.6-3.16,11.46,11.46,0,0,1,6.95,2.29,11.47,11.47,0,0,1-6.6,3.16Z"/><path class="cls-42" d="M109.85,369.27a11.47,11.47,0,0,1-6.95-2.29,11.47,11.47,0,0,1,6.6-3.16,11.46,11.46,0,0,1,6.95,2.29,11.47,11.47,0,0,1-6.6,3.16Z"/><path class="cls-42" d="M113.67,360.22a11.47,11.47,0,0,1-6.89,2.46,9.8,9.8,0,0,1,10.15-9,11.47,11.47,0,0,1-3.26,6.54Z"/><path class="cls-42" d="M100.54,365.33a11.47,11.47,0,0,1-2.94,6.7A9.8,9.8,0,0,1,98,358.46a11.47,11.47,0,0,1,2.52,6.87Z"/><path class="cls-42" d="M105.63,360.07a11.47,11.47,0,0,1-2.94,6.7,9.8,9.8,0,0,1,.42-13.56,11.47,11.47,0,0,1,2.51,6.87Z"/><path class="cls-42" d="M84.15,331.27c-3.22,4.26-8.93,5.38-8.93,5.38s-.5-5.8,2.72-10.06,8.93-5.38,8.93-5.38.5,5.8-2.72,10.06Z"/><path class="cls-42" d="M70.72,327.25c3.94,3.61,4.5,9.4,4.5,9.4s-5.82-.06-9.76-3.67-4.5-9.4-4.5-9.4,5.82.06,9.76,3.67Z"/><path class="cls-27" d="M81.22,388.6l73-2.53-70.58.15,5.83-5.76,7-7c2.22-2.24,4.46-4.43,6.63-6.74l.32-.34c-2.38,2.26-4.86,4.37-7.31,6.54l-7.37,6.44L75.42,390.94l.22-29,60.12-54.14L75.67,358.45,75.95,322,73,386,45.27,361.76l27.61,27.45-.47,10.11H75.5l0-5,5.77-5.7Z"/><path class="cls-42" d="M119.58,334.39c-5.33.34-9.9-3.26-9.9-3.26s4.07-4.16,9.4-4.5,9.9,3.26,9.9,3.26-4.07,4.16-9.4,4.5Z"/><path class="cls-42" d="M113.56,321c-.17,5.34-4.19,9.55-4.19,9.55s-3.75-4.45-3.59-9.79,4.19-9.55,4.19-9.55,3.75,4.45,3.59,9.79Z"/><path class="cls-42" d="M123.8,326.3a11.47,11.47,0,0,1-6.95-2.29,11.47,11.47,0,0,1,6.6-3.16,11.47,11.47,0,0,1,6.95,2.29,11.47,11.47,0,0,1-6.6,3.16Z"/><path class="cls-42" d="M130.38,321.2a11.47,11.47,0,0,1-6.95-2.29,11.47,11.47,0,0,1,6.6-3.16A11.47,11.47,0,0,1,137,318a11.47,11.47,0,0,1-6.6,3.16Z"/><path class="cls-42" d="M133.16,313.37a11.47,11.47,0,0,1-6.88,2.46,9.8,9.8,0,0,1,10.15-9,11.46,11.46,0,0,1-3.26,6.54Z"/><path class="cls-42" d="M120.52,316.95a11.47,11.47,0,0,1-3.36,6.5,9.8,9.8,0,0,1,1.28-13.51,11.46,11.46,0,0,1,2.07,7Z"/><g class="cls-2"><path class="cls-42" d="M126.16,312a11.47,11.47,0,0,1-2.94,6.7,9.8,9.8,0,0,1,.42-13.56,11.47,11.47,0,0,1,2.52,6.87Z"/><path class="cls-50" d="M731.15,358.17v91.44H523a54,54,0,0,1,13.1-1.57,56,56,0,0,1,9.56.83,38,38,0,0,1,9.95-7.76,45.48,45.48,0,0,1-.46-6.28c0-29.62,28.93-53.62,64.62-53.62a76.66,76.66,0,0,1,19.8,2.57,56.31,56.31,0,0,1,9-6.14c.05-1.33.13-2.64.22-3.95.21-2.87.51-5.68.89-8.41s.87-5.54,1.44-8.18c3.43-16,9.93-28.68,18-34.79a18,18,0,0,1,11-4,17.73,17.73,0,0,1,10.32,3.53c10.08,7.12,17.85,24.4,20.41,45.87a46.91,46.91,0,0,1,20.35-9.53Z"/><path class="cls-48" d="M731.15,449.62V383.35c-15-11.83-24.26-4.63-24.26-4.63-.86-13-4.63-21-15-31.33s-18.72-4-28,12.67-8.61,25.36-8.61,25.36c-24.51,1.75-18.8,20.13-23.18,19s-36.18-1.73-53.06,15.55-22,29.68-22,29.68Z"/></g><path class="cls-51" d="M667.42,339.79c-3.24,6.39-10.3,9.1-10.3,9.1s-1.8-7.66,1.44-14,10.29-9.1,10.29-9.1,1.81,7.66-1.43,14Z"/><path class="cls-51" d="M657.38,330.22c1.11,5.34-2.07,10.61-2.07,10.61s-5-3.39-6.1-8.73,2.07-10.61,2.07-10.61,5,3.39,6.1,8.73Z"/><path class="cls-51" d="M649.49,337.26c5.75,4,7.64,11.63,7.64,11.63S649.7,350,644,346.05s-7.64-11.63-7.64-11.63,7.43-1.16,13.18,2.84Z"/><path class="cls-51" d="M611.68,378c.21,7.24-4.64,13.26-4.64,13.26s-5.19-5.71-5.39-12.95S606.29,365,606.29,365s5.18,5.71,5.39,12.95Z"/><path class="cls-51" d="M598.44,374.88c3.49,4.06,3.21,10.29,3.21,10.29s-5.94-.34-9.43-4.4S589,370.48,589,370.48s5.93.34,9.42,4.4Z"/><path class="cls-51" d="M594.91,385.11c6.88.47,12.13,6.12,12.13,6.12s-5.9,4.88-12.79,4.4-12.12-6.12-12.12-6.12,5.9-4.88,12.78-4.4Z"/><path class="cls-51" d="M624.14,390.77c.21,7.24-4.64,13.26-4.64,13.26s-5.18-5.71-5.39-12.95,4.64-13.26,4.64-13.26,5.19,5.71,5.39,12.95Z"/><path class="cls-51" d="M607.37,397.92c6.88.47,12.12,6.12,12.12,6.12s-5.9,4.88-12.78,4.4-12.13-6.12-12.13-6.12,5.9-4.88,12.79-4.4Z"/><path class="cls-51" d="M688.8,431c-6.88.47-12.78-4.42-12.78-4.42s5.26-5.64,12.13-6.1,12.78,4.42,12.78,4.42-5.26,5.64-12.13,6.1Z"/><path class="cls-51" d="M681.42,413.6c-.21,7.24-5.4,12.94-5.4,12.94s-4.84-6-4.63-13.27,5.41-12.94,5.41-12.94,4.84,6,4.62,13.27Z"/><path class="cls-51" d="M694.47,420.34c-4.82.33-9-3.1-9-3.1s3.69-4,8.51-4.28,9,3.1,9,3.1-3.69,4-8.51,4.28Z"/><path class="cls-51" d="M701.73,412.92c-4.83.33-9-3.1-9-3.1s3.69-4,8.51-4.28,9,3.1,9,3.1-3.69,4-8.51,4.28Z"/><path class="cls-51" d="M706.65,400.65C703,404,697.77,404,697.77,404s.59-5.5,4.21-8.87,8.89-3.34,8.89-3.34-.6,5.5-4.21,8.87Z"/><path class="cls-51" d="M689.71,407.58c-.15,5.08-3.79,9.08-3.79,9.08s-3.4-4.23-3.25-9.31,3.79-9.08,3.79-9.08,3.4,4.23,3.24,9.31Z"/><path class="cls-51" d="M696.28,400.45c-.15,5.08-3.79,9.08-3.79,9.08s-3.39-4.23-3.24-9.31,3.79-9.08,3.79-9.08,3.39,4.23,3.24,9.31Z"/><path class="cls-51" d="M668.56,361.41c-4.15,5.78-11.52,7.29-11.52,7.29s-.64-7.86,3.51-13.64,11.52-7.29,11.52-7.29.64,7.86-3.51,13.64Z"/><g class="cls-2"><path class="cls-51" d="M651.22,356c5.08,4.89,5.81,12.74,5.81,12.74s-7.51-.08-12.6-5S638.63,351,638.63,351s7.51.08,12.59,5Z"/><path class="cls-27" d="M693.43,409c-3.07,3.06-6.27,5.93-9.43,8.87l-9.52,8.73L657.3,442.29l.68-93.4-3.77,86.69-35.82-32.84L654,439.94l-.6,13.71h4l-.06-6.81,18.07-18.75,9.05-9.46c2.86-3,5.76-6,8.55-9.14l.41-.46Z"/></g><rect class="cls-62" x="34.7" y="59.32" width="679.13" height="382.06"/></g></g></svg>