<svg xmlns="http://www.w3.org/2000/svg" xmlns:xlink="http://www.w3.org/1999/xlink" viewBox="0 0 1124.64 651.26"><defs><style>.cls-1{fill:none;}.cls-2{fill:#dd7a7a;}.cls-3{fill:#c6b366;}.cls-4{clip-path:url(#clip-path);}.cls-5{fill:#fff3c2;}.cls-6{fill:#fff3c3;}.cls-7{fill:#fff3c4;}.cls-8{fill:#fff4c5;}.cls-9{fill:#fff4c6;}.cls-10{fill:#fff4c7;}.cls-11{fill:#fff4c8;}.cls-12{fill:#fff4c9;}.cls-13{fill:#fff5ca;}.cls-14{fill:#fff5cb;}.cls-15{fill:#fff5cc;}.cls-16{fill:#fff5cd;}.cls-17{fill:#fff5ce;}.cls-18{fill:#fff6cf;}.cls-19{fill:#fff6d0;}.cls-20{fill:#fff6d1;}.cls-21{fill:#fff6d2;}.cls-22{fill:#fff6d3;}.cls-23{fill:#fff7d4;}.cls-24{fill:#fff7d5;}.cls-25{fill:#fff7d6;}.cls-26{fill:#fff7d7;}.cls-27{fill:#fff7d8;}.cls-28{fill:#fff8d9;}.cls-29{fill:#fff8da;}.cls-30{fill:#fff8db;}.cls-31{fill:#fff8dc;}.cls-32{fill:#fff8dd;}.cls-33{fill:#fff9de;}.cls-34{fill:#fff9df;}.cls-35{fill:#fff9e0;}.cls-36{fill:#fff9e2;}.cls-37{fill:#fff9e3;}.cls-38{fill:#fffae4;}.cls-39{fill:#fffae5;}.cls-40{fill:#fffae6;}.cls-41{fill:#fffae7;}.cls-42{fill:#fffae8;}.cls-43{fill:#fffbe9;}.cls-44{fill:#fffbea;}.cls-45{fill:#fffbeb;}.cls-46{fill:#fffbec;}.cls-47{fill:#fffbed;}.cls-48{fill:#fffcee;}.cls-49{fill:#fffcef;}.cls-50{fill:#fffcf0;}.cls-51{fill:#fffcf1;}.cls-52{fill:#fffcf2;}.cls-53{fill:#fffdf3;}.cls-54{fill:#fffdf4;}.cls-55{fill:#fffdf5;}.cls-56{fill:#fffdf6;}.cls-57{fill:#fffdf7;}.cls-58{fill:#fffef8;}.cls-59{fill:#fffef9;}.cls-60{fill:#fffefa;}.cls-61{fill:#fffefb;}.cls-62{fill:#fffefc;}.cls-63{fill:#fffffd;}.cls-64{fill:#fffffe;}.cls-65{fill:#fff;}.cls-66{fill:#ffeda1;}.cls-67{clip-path:url(#clip-path-2);}.cls-68{fill:#fffdfd;}.cls-69{fill:#3a1e1c;}.cls-70{clip-path:url(#clip-path-3);}.cls-71{fill:#d88268;}.cls-72{fill:#d98369;}.cls-73{fill:#da8469;}.cls-74{fill:#db856a;}.cls-75{fill:#dc866b;}.cls-76{fill:#dd876b;}.cls-77{fill:#de886c;}.cls-78{fill:#df896d;}.cls-79{fill:#e08a6d;}.cls-80{fill:#e18b6e;}.cls-81{fill:#e28c6f;}.cls-82{fill:#e48d70;}.cls-83{fill:#e58d70;}.cls-84{fill:#e68e71;}.cls-85{fill:#e78f72;}.cls-86{fill:#e89072;}.cls-87{fill:#e99173;}.cls-88{fill:#ea9274;}.cls-89{fill:#eb9374;}.cls-90{fill:#ec9475;}.cls-91{fill:#ed9576;}.cls-92{fill:#ee9676;}.cls-93{fill:#ef9777;}.cls-94{fill:#3d201f;}.cls-95{fill:#b5574d;}.cls-96{fill:#b3514e;}.cls-97{fill:#312235;}.cls-98{fill:#fc999c;}.cls-99{fill:#f9aaaa;}.cls-100{fill:#822222;}.cls-101{fill:#9b3737;}.cls-102{fill:#5b1f3c;}</style><clipPath id="clip-path"><path class="cls-1" d="M428.87,402.79a192.51,192.51,0,0,0-5.05-43.86c-32.69-73-109.23-124.15-198.45-124.15C106.43,234.78,10,325.78,10,438a193.16,193.16,0,0,0,5,43.87C47.74,554.84,124.28,606,213.5,606,332.44,606,428.87,515,428.87,402.79Z"/></clipPath><clipPath id="clip-path-2"><path class="cls-1" d="M541.11,351.64c-10.3-18-97.34-31.5-97.34-31.5S301.45,131.38,232.44,137.81s-80.25,56.58-80.25,56.58l-32.63,66.55C54.29,295.86,10.25,362,10.25,437.86c0,112.25,96.43,203.24,215.37,203.24,117.57,0,213.12-88.9,215.32-199.35C473.29,419.44,549.06,365.51,541.11,351.64Z"/></clipPath><clipPath id="clip-path-3"><path class="cls-1" d="M227.93,321.46l-2.36,9.79s-19.92,12.89-37.91,11.87c-5.34-.31,67.76,42.79,71.74,42.94s34.38-50.15,34.38-50.15-20.41-3.74-27.17-4-14.47-18.28-14.47-18.28Z"/></clipPath></defs><title>Intro-fala1</title><g id="Camada_5" data-name="Camada 5"><path class="cls-2" d="M225.37,234.78c119,0,215.37,91,215.37,203.24S344.32,641.26,225.37,641.26,10,550.27,10,438s96.42-203.24,215.37-203.24m0-10a235.1,235.1,0,0,0-87.54,16.69A225.72,225.72,0,0,0,66.22,287,212.37,212.37,0,0,0,17.8,354.82a203.34,203.34,0,0,0,0,166.4A212.3,212.3,0,0,0,66.22,589a225.89,225.89,0,0,0,71.61,45.57,238.05,238.05,0,0,0,175.08,0A225.94,225.94,0,0,0,384.53,589a212.12,212.12,0,0,0,48.41-67.79,203.34,203.34,0,0,0,0-166.4A212.19,212.19,0,0,0,384.53,287a225.76,225.76,0,0,0-71.62-45.57,235.1,235.1,0,0,0-87.54-16.69Z"/><ellipse class="cls-3" cx="225.37" cy="438.02" rx="215.37" ry="203.24"/><g class="cls-4"><rect class="cls-5" x="10" y="234.78" width="418.87" height="371.24"/><path class="cls-5" d="M206.79,475.71a120.37,120.37,0,1,1,167,33A120.37,120.37,0,0,1,206.79,475.71Z"/><path class="cls-6" d="M208.43,474.61a118.4,118.4,0,1,1,164.26,32.46A118.39,118.39,0,0,1,208.43,474.61Z"/><path class="cls-7" d="M210.07,473.51a116.43,116.43,0,1,1,161.52,31.92A116.42,116.42,0,0,1,210.07,473.51Z"/><path class="cls-8" d="M211.71,472.41A114.45,114.45,0,1,1,370.5,503.79,114.44,114.44,0,0,1,211.71,472.41Z"/><circle class="cls-9" cx="306.79" cy="408.71" r="112.48"/><circle class="cls-10" cx="306.79" cy="408.71" r="110.5"/><circle class="cls-11" cx="306.79" cy="408.71" r="108.53"/><circle class="cls-12" cx="306.79" cy="408.71" r="106.56"/><circle class="cls-13" cx="306.79" cy="408.71" r="104.58"/><circle class="cls-14" cx="306.79" cy="408.71" r="102.61"/><circle class="cls-15" cx="306.79" cy="408.71" r="100.64"/><circle class="cls-16" cx="306.79" cy="408.71" r="98.66"/><circle class="cls-17" cx="306.79" cy="408.71" r="96.69"/><circle class="cls-18" cx="306.79" cy="408.71" r="94.72"/><circle class="cls-19" cx="306.79" cy="408.71" r="92.74"/><circle class="cls-20" cx="306.79" cy="408.71" r="90.77"/><circle class="cls-21" cx="306.79" cy="408.71" r="88.8"/><circle class="cls-22" cx="306.79" cy="408.71" r="86.82"/><circle class="cls-23" cx="306.79" cy="408.71" r="84.85"/><circle class="cls-24" cx="306.79" cy="408.71" r="82.88"/><circle class="cls-25" cx="306.79" cy="408.71" r="80.9"/><circle class="cls-26" cx="306.79" cy="408.71" r="78.93"/><circle class="cls-27" cx="306.79" cy="408.71" r="76.96"/><circle class="cls-28" cx="306.79" cy="408.71" r="74.98"/><circle class="cls-29" cx="306.79" cy="408.71" r="73.01"/><circle class="cls-30" cx="306.79" cy="408.71" r="71.04"/><circle class="cls-31" cx="306.79" cy="408.71" r="69.06"/><circle class="cls-32" cx="306.79" cy="408.71" r="67.09"/><circle class="cls-33" cx="306.79" cy="408.71" r="65.12"/><circle class="cls-34" cx="306.79" cy="408.71" r="63.15"/><circle class="cls-35" cx="306.79" cy="408.71" r="61.17"/><circle class="cls-36" cx="306.79" cy="408.71" r="59.2"/><circle class="cls-37" cx="306.79" cy="408.71" r="57.23"/><circle class="cls-38" cx="306.79" cy="408.71" r="55.25"/><circle class="cls-39" cx="306.79" cy="408.71" r="53.28"/><circle class="cls-40" cx="306.79" cy="408.71" r="51.31"/><circle class="cls-41" cx="306.79" cy="408.71" r="49.33"/><circle class="cls-42" cx="306.79" cy="408.71" r="47.36"/><circle class="cls-43" cx="306.79" cy="408.71" r="45.39"/><circle class="cls-44" cx="306.79" cy="408.71" r="43.41"/><circle class="cls-45" cx="306.79" cy="408.71" r="41.44"/><circle class="cls-46" cx="306.79" cy="408.71" r="39.47"/><circle class="cls-47" cx="306.79" cy="408.71" r="37.49"/><circle class="cls-48" cx="306.79" cy="408.71" r="35.52"/><circle class="cls-49" cx="306.79" cy="408.71" r="33.55"/><circle class="cls-50" cx="306.79" cy="408.71" r="31.57"/><circle class="cls-51" cx="306.79" cy="408.71" r="29.6"/><circle class="cls-52" cx="306.79" cy="408.71" r="27.63"/><circle class="cls-53" cx="306.79" cy="408.71" r="25.65"/><circle class="cls-54" cx="306.79" cy="408.71" r="23.68"/><circle class="cls-55" cx="306.79" cy="408.71" r="21.71"/><circle class="cls-56" cx="306.79" cy="408.71" r="19.73"/><circle class="cls-57" cx="306.79" cy="408.71" r="17.76"/><circle class="cls-58" cx="306.79" cy="408.71" r="15.79"/><circle class="cls-59" cx="306.79" cy="408.71" r="13.81"/><circle class="cls-60" cx="306.79" cy="408.71" r="11.84"/><circle class="cls-61" cx="306.79" cy="408.71" r="9.87"/><circle class="cls-62" cx="306.79" cy="408.71" r="7.89"/><circle class="cls-63" cx="306.79" cy="408.71" r="5.92"/><circle class="cls-64" cx="306.79" cy="408.71" r="3.95"/><circle class="cls-65" cx="306.79" cy="408.71" r="1.97"/></g><path class="cls-3" d="M787.8,44.22c-174.89,0-318.64,118.13-335.23,269.27L353,353.14s-6.51,2.41-5.85,11.74a12.7,12.7,0,0,0,7.43,10.89L458.82,407C492,541,626.68,641.26,787.8,641.26c186,0,336.84-133.65,336.84-298.52S973.83,44.22,787.8,44.22Z"/><path class="cls-66" d="M787.75,0C612.85,0,469.11,118.13,452.52,269.27L353,308.92s-6.51,2.41-5.86,11.74a12.7,12.7,0,0,0,7.44,10.88l104.21,31.28C492,496.78,626.63,597,787.75,597c186,0,336.84-133.65,336.84-298.52S973.78,0,787.75,0Z"/><g class="cls-67"><path class="cls-68" d="M329.94,510.18s.78-10,4.41-10.57l24.22,31.55-9.37,5.44Z"/><path class="cls-65" d="M153.53,566.53s24.48-21.86,24.48-27-14.35-8.34-14.35-8.34l-20.41,29.5,9.58,7.33Z"/><path class="cls-69" d="M176.44,360.74s-46.9-131.84,7.44-198.9c0,0,58.11-39.81,101.53,7s13,178.54,13,178.54Z"/><g class="cls-70"><polygon class="cls-71" points="293.71 313.64 293.74 313.95 182.31 324.32 182.31 313.64 293.71 313.64"/><polygon class="cls-71" points="293.74 313.95 293.78 314.33 293.78 314.76 182.31 325.13 182.31 324.32 293.74 313.95"/><polygon class="cls-72" points="293.78 315.57 182.31 325.95 182.31 325.13 293.78 314.76 293.78 315.57"/><polygon class="cls-73" points="293.78 316.39 182.31 326.76 182.31 325.95 293.78 315.57 293.78 316.39"/><polygon class="cls-74" points="293.78 317.2 182.31 327.57 182.31 326.76 293.78 316.39 293.78 317.2"/><polygon class="cls-75" points="293.78 318.01 182.31 328.39 182.31 327.57 293.78 317.2 293.78 318.01"/><polygon class="cls-76" points="293.78 318.83 182.31 329.2 182.31 328.39 293.78 318.01 293.78 318.83"/><polygon class="cls-77" points="293.78 319.64 182.31 330.01 182.31 329.2 293.78 318.83 293.78 319.64"/><polygon class="cls-78" points="293.78 320.45 182.31 330.83 182.31 330.01 293.78 319.64 293.78 320.45"/><polygon class="cls-79" points="293.78 321.27 182.31 331.64 182.31 330.83 293.78 320.45 293.78 321.27"/><polygon class="cls-80" points="293.78 322.08 182.31 332.45 182.31 331.64 293.78 321.27 293.78 322.08"/><polygon class="cls-81" points="293.78 322.89 182.31 333.27 182.31 332.45 293.78 322.08 293.78 322.89"/><polygon class="cls-82" points="293.78 323.71 182.31 334.08 182.31 333.27 293.78 322.89 293.78 323.71"/><polygon class="cls-83" points="293.78 324.52 182.31 334.89 182.31 334.08 293.78 323.71 293.78 324.52"/><polygon class="cls-84" points="293.78 325.33 182.31 335.71 182.31 334.89 293.78 324.52 293.78 325.33"/><polygon class="cls-85" points="293.78 326.14 182.31 336.52 182.31 335.71 293.78 325.33 293.78 326.14"/><polygon class="cls-86" points="293.78 326.96 182.31 337.33 182.31 336.52 293.78 326.14 293.78 326.96"/><polygon class="cls-87" points="293.78 327.77 182.31 338.14 182.31 337.33 293.78 326.96 293.78 327.77"/><polygon class="cls-88" points="293.78 328.58 182.31 338.96 182.31 338.14 293.78 327.77 293.78 328.58"/><polygon class="cls-89" points="293.78 329.4 182.31 339.77 182.31 338.96 293.78 328.58 293.78 329.4"/><polygon class="cls-90" points="293.78 330.21 182.31 340.58 182.31 339.77 293.78 329.4 293.78 330.21"/><polygon class="cls-91" points="293.78 331.02 182.31 341.4 182.31 340.58 293.78 330.21 293.78 331.02"/><polygon class="cls-92" points="293.78 331.84 182.31 342.21 182.31 341.4 293.78 331.02 293.78 331.84"/><polygon class="cls-93" points="293.78 332.65 182.31 343.02 182.31 342.21 293.78 331.84 293.78 332.65"/><polygon class="cls-93" points="184.35 386.21 182.31 364.39 182.31 343.02 293.78 332.65 293.78 386.21 184.35 386.21"/></g><path class="cls-93" d="M182.6,222.54s-.88,110.78,64.76,101.68c35.49-4.92,47.51-40.41,40.88-70.91a191.62,191.62,0,0,1-3.79-46.77s-4.08-29.37-38.7-20.3S196.11,192,196.11,192,180.54,195.13,182.6,222.54Z"/><path class="cls-69" d="M177.07,228.73s25.09-2.78,36.43-7.67l.58-15.4s2.55,9.93,4.85,12.41,22.88-.74,32-3.59,4.81-14.7,4.81-14.7l4.34,11.86s28.57,3.44,28.73-.93S285,186,276.62,182s-73.88-4.43-83.08,4.1S177.53,216.52,177.07,228.73Z"/><ellipse class="cls-94" cx="262.95" cy="244.39" rx="3.92" ry="3.17" transform="translate(-22.42 26.6) rotate(-5.56)"/><ellipse class="cls-94" cx="223.88" cy="248.1" rx="3.92" ry="3.17" transform="translate(-22.97 22.84) rotate(-5.56)"/><path class="cls-95" d="M250.55,278.83a15.34,15.34,0,0,1-5.17-.8l.35-.94c5.16,1.92,13.88,0,15.56-3.33,1.13-2.28-1.44-4.53-3.78-6-6.89-4.38-5.32-8.93-5.25-9.13l.94.35c0,.16-1.33,4,4.84,7.94,4.88,3.1,4.95,5.69,4.14,7.31C260.72,277.15,255.37,278.83,250.55,278.83Z"/><path class="cls-96" d="M262,289.89c-18.37,4.75-31.32.71-30.6,2,0,0-.78,13.73,15.42,13.63C263.55,305.45,262,289.89,262,289.89Z"/><path class="cls-65" d="M219.38,333.59s22.52,13.65,36.94,11.8c6.84-.87,18.95-14,18.95-14l13,129.74-49.8,2.24Z"/><path class="cls-97" d="M172.66,557.55S155.05,630.13,157,650s4.68,52.17,34,146c0,0,78.26,32.38,150.2-.81,0,0,6.29-1.86,10.91-43.81s12.42-142.59-8.72-187.47S172.66,557.55,172.66,557.55Z"/><path class="cls-69" d="M270.81,230.55s-4.74-6.21-9.75-3.11a.89.89,0,0,0-.58,1.12c.25.84,1.91-1.63,9.83,2.73C270.31,231.29,270.81,231.58,270.81,230.55Z"/><path class="cls-69" d="M213.93,234s4.75-6.2,9.75-3.1a.89.89,0,0,1,.58,1.12c-.25.83-1.91-1.64-9.83,2.73C214.43,234.73,213.93,235,213.93,234Z"/><path class="cls-65" d="M259.62,290.44s-.65,3.21-2,4.12-15.59,1.66-24.11,1c-2.87-.24-2.32-2.92-2.18-3.89C231.35,291.63,246.09,293.49,259.62,290.44Z"/><path class="cls-98" d="M251.34,305.09s-1.86-9.5-19.13-7C232.21,298.13,235.94,307.82,251.34,305.09Z"/><ellipse class="cls-99" cx="281.01" cy="254.61" rx="3.62" ry="6.23" transform="translate(3.96 513.52) rotate(-85.24)"/><ellipse class="cls-99" cx="214.79" cy="263.85" rx="6.23" ry="3.62" transform="translate(-52.96 53.94) rotate(-12.76)"/><path class="cls-100" d="M334.61,435.84,357,461.35s-6.12,9.16-12,18.65c-6.27,10.12-15.54,20.35-13.57,20.57,4,.44,26.78,31.77,26.78,31.77l28-38s21.11-33.38,20.75-37-18.37-28.47-24.44-34.21c-3.74-3.54-9.95-8.73-15.17-16.12-29.22-41.32-56.53-70.82-58.39-72.35s-11-6.17-14.23-4.64-19.19,1.4-19.19,1.4l2.64,115.37L219.63,333.58s-12.56,4.34-26.08,2.61-36.24,3.62-36.24,3.62-10.24,27.71-17.55,29.81-11,20.26-11,20.26c-2.17,2.65-10.18,14.08-19.61,27.71h0s-37.48,45.94-43,49.92S63.56,481,63.56,481l78.84,83.79,27.83-35.52c-7.13-.49-43.13-49.77-43.13-49.77,2.53-4.53,2.3-8.25,1.56-10.71,17.3-18.49,42.63-47.19,42.63-47.19.41,4.07,6.47,16.8,16.93,32.52s9.69,42.14,9.69,42.14c-14.94,21.68-25,61.34-25,61.34s1,7.93,26.28,20.55c11,5.5,46.51,16.31,46.51,16.31l39.46-43.29,50.78,35.64s9.12-9.12,8.21-18.27S325.71,505,325.71,505s-1.89-19,.27-24.66S334.61,435.84,334.61,435.84Z"/><path class="cls-71" d="M153.53,566.53s12.2,10.71,14.67,8.24l12.43-35.2S165.06,550.81,153.53,566.53Z"/><path class="cls-93" d="M170.88,567.7s5.9-5.86,14.86,2.8,9.68,9.26,9.68,9.26,7,2.88,7.52-4.62c0,0,8.8,1.29,6.83-8.4,0,0,6.13-4.42.7-12,0,0,5.51-1.05,2.24-11.46s-24-20.47-24-20.47-9.94-3.49-10.82,8.08c0,0-7.16.37-4.66,10.37,0,0-4.65,4.21-3.65,8.77s-.11,3.67-.11,3.67S162.79,561.13,170.88,567.7Z"/><path class="cls-95" d="M202.56,575.46c-.11-.13-11.87-13.67-24.48-19.79l.44-.9c12.79,6.21,24.68,19.9,24.8,20Z"/><path class="cls-95" d="M209.42,567.1c-.17-.16-17.14-16.09-29.48-22.74l.48-.88c12.45,6.71,29.52,22.74,29.69,22.9Z"/><path class="cls-95" d="M210.09,555c-.15-.17-15.21-17.9-27.55-21.75l.3-1c12.61,4,27.39,21.33,28,22.07Z"/><path class="cls-93" d="M347.86,556.51l-16.17,4.75s-6.95,2.88-7.52-4.62c0,0-8.8,1.29-6.82-8.4,0,0-6.14-4.42-.71-12,0,0-5.51-1.05-2.24-11.46s15.67-13.15,15.67-13.15,9.94-3.49,10.82,8.07c0,0,7.16.38,4.66,10.37,0,0,4.65,4.21,3.65,8.78s.11,3.66.11,3.66S356,549.94,347.86,556.51Z"/><path class="cls-95" d="M324.44,557.06l-.54-.84A275.78,275.78,0,0,1,349.09,542l.44.9A276.26,276.26,0,0,0,324.44,557.06Z"/><path class="cls-95" d="M317.64,548.64l-.59-.8c.16-.12,15.84-11.55,28.27-18.25l.47.88C333.42,537.14,317.8,548.53,317.64,548.64Z"/><path class="cls-95" d="M317.07,536.46l-.86-.51c.09-.16,9.39-15.38,24.63-16.79l.09,1C326.2,521.52,317.16,536.31,317.07,536.46Z"/><path class="cls-101" d="M219.38,333.59S195.23,345.24,182.15,365l44.38,12.67s-15.11,14.85-14.79,18.07,66.17,51,66.17,51,33.54-61.51,29.81-64.56-24.29-6.81-24.29-6.81,19.48-27.6,22.87-27.94-28-16.36-31-16.06,2.52,110.28,2.52,110.28l-.15,2.38Z"/><path class="cls-97" d="M277.91,446.79s9.26,81.81,7,104.33"/><circle class="cls-101" cx="291.65" cy="471.48" r="5.33"/><circle class="cls-101" cx="293.78" cy="509.48" r="5.33"/><path class="cls-102" d="M173.81,404.74l-1-.23a76.63,76.63,0,0,0-11.55-60.86l.82-.57A77.66,77.66,0,0,1,173.81,404.74Z"/><path class="cls-102" d="M329.09,406.93l-1-.09c1.1-12.29-3.36-24.57-7.3-35.4-4.66-12.82-10-27.35-20.07-37.88l.72-.7c10.27,10.69,15.59,25.32,20.29,38.23C325.7,382,330.21,394.42,329.09,406.93Z"/><path class="cls-102" d="M146.32,377a27.46,27.46,0,0,0-3.49-7l.82-.57a28.62,28.62,0,0,1,3.62,7.2Z"/><path class="cls-102" d="M136,392.63a35.43,35.43,0,0,0-6.08-.83l0-1a35.48,35.48,0,0,1,6.25.86Z"/><path class="cls-102" d="M334.44,441l-1-.12a73,73,0,0,0,.43-11.92l1-.05A75.14,75.14,0,0,1,334.44,441Z"/><path class="cls-102" d="M355.5,460.4l-.14-1a76.2,76.2,0,0,1,12.07-.73l0,1A73,73,0,0,0,355.5,460.4Z"/><path class="cls-102" d="M365,468.05a59.33,59.33,0,0,0-8.69-6.35l.51-.86a61.54,61.54,0,0,1,8.84,6.45Z"/><path class="cls-102" d="M200.41,496.57l-.52-.85a60,60,0,0,1,11.6-5.55l.33.94A59.49,59.49,0,0,0,200.41,496.57Z"/><path class="cls-102" d="M127.77,469.24c-2.32,0-10-.2-12.54-2.74l.7-.71c2.66,2.65,12.37,2.44,12.47,2.45l0,1Z"/><path class="cls-102" d="M118.83,482.89v-1c3.43,0,7.7-2.82,7.74-2.85l.56.83C126.94,480,122.56,482.89,118.83,482.89Z"/></g><path d="M573.69,213a14,14,0,0,1-3.08,9.38,10,10,0,0,1-8,3.61,9.81,9.81,0,0,1-7.88-3.62,14.13,14.13,0,0,1-3-9.37v-.33a14.13,14.13,0,0,1,3-9.38,9.75,9.75,0,0,1,7.87-3.63,10,10,0,0,1,8,3.63,14,14,0,0,1,3.09,9.38Zm-2.11-.37a12.6,12.6,0,0,0-2.43-8,7.92,7.92,0,0,0-6.56-3.08,7.67,7.67,0,0,0-6.42,3.08,12.82,12.82,0,0,0-2.37,8V213a12.92,12.92,0,0,0,2.38,8.09,7.68,7.68,0,0,0,6.43,3.07,7.88,7.88,0,0,0,6.57-3.07,12.75,12.75,0,0,0,2.4-8.09Z"/><path d="M576.92,199.76V198.2h5v25.65l2.86.22v1.55h-7.82v-1.55l2.86-.22V200Z"/><path d="M601.19,225.62a16,16,0,0,1-.29-1.67,11.16,11.16,0,0,1-.09-1.42A8.48,8.48,0,0,1,598,225a8,8,0,0,1-4,1,6.06,6.06,0,0,1-4.32-1.44,5.1,5.1,0,0,1-1.53-3.9,4.82,4.82,0,0,1,2.26-4.19,10.82,10.82,0,0,1,6.16-1.54h4.2V212.4a4.07,4.07,0,0,0-1.31-3.2,5.37,5.37,0,0,0-3.67-1.16,9.42,9.42,0,0,0-2.89.43,6.71,6.71,0,0,0-2.19,1.17l-.17,2.55h-1.74l0-3.66a11,11,0,0,1,3.15-1.65,12,12,0,0,1,3.91-.63,7.6,7.6,0,0,1,5.06,1.6,5.65,5.65,0,0,1,1.92,4.59v9.35c0,.39,0,.76,0,1.12a7.19,7.19,0,0,0,.11,1l1.9.12v1.55Zm-6.92-1.49a7.54,7.54,0,0,0,4-1.06,6.26,6.26,0,0,0,2.52-2.72v-3.82h-4.24a7.94,7.94,0,0,0-4.58,1.19,3.54,3.54,0,0,0-1.71,3,3.14,3.14,0,0,0,1.06,2.47A4.31,4.31,0,0,0,594.27,224.13Zm3.57-24.79h2.58l.05.11L596.1,204h-1.88Z"/><path d="M611.23,225.62h-2.49v-2.93h2.49Zm-.21-8.4h-2.09V200H611Z"/><path d="M639.73,213.23h-10.5v10.62h12.1l.15-3.84h1.87v5.61H624.27v-1.55l2.87-.22v-22l-2.87-.23V200h19v5.62H641.4l-.16-3.83h-12v9.62h10.5Z"/><path d="M661,222.49a6.38,6.38,0,0,1-2.45,2.59,7.1,7.1,0,0,1-3.66.91,5.79,5.79,0,0,1-4.71-2q-1.7-2-1.69-6.33v-9.23l-2.36-.22V206.6h4.45v11.06c0,2.32.39,4,1.19,5a4,4,0,0,0,3.36,1.51,6.26,6.26,0,0,0,3.81-1,5.61,5.61,0,0,0,2-2.92v-11.8l-2.7-.22V206.6h4.81v17.25l2.55.22v1.55h-4.39Z"/><path d="M677,208.17V206.6h4.73l.19,3.15a6.65,6.65,0,0,1,2.45-2.59,7,7,0,0,1,3.64-.91,6,6,0,0,1,3.63,1.06,5.88,5.88,0,0,1,2.1,3.25,7.37,7.37,0,0,1,2.45-3.16,6.4,6.4,0,0,1,3.87-1.15,5.75,5.75,0,0,1,4.71,2c1.1,1.35,1.66,3.43,1.66,6.26v9.3l2.86.24v1.55h-7.85v-1.55l2.86-.24v-9.34c0-2.34-.41-4-1.24-5a4.28,4.28,0,0,0-3.45-1.45,4.7,4.7,0,0,0-3.79,1.56,7.51,7.51,0,0,0-1.64,4v.27a2.73,2.73,0,0,1,0,.31v9.64l2.87.22v1.55h-7.84v-1.55l2.86-.22v-9.36c0-2.29-.42-3.94-1.25-4.93a4.29,4.29,0,0,0-3.46-1.48,5.3,5.3,0,0,0-3.56,1.13,6,6,0,0,0-1.83,3v11.59l2.86.22v1.55H677v-1.55l2.87-.22V208.39Z"/><path d="M720.09,226a7.64,7.64,0,0,1-5.94-2.63,9.64,9.64,0,0,1-2.35-6.69v-1a9.94,9.94,0,0,1,2.34-6.77,7.29,7.29,0,0,1,5.67-2.69,7.05,7.05,0,0,1,5.5,2.21,8.47,8.47,0,0,1,2,5.91v1.79H713.89v.51A8.38,8.38,0,0,0,715.6,222a5.44,5.44,0,0,0,4.49,2.17,9.2,9.2,0,0,0,3.34-.54,6.7,6.7,0,0,0,2.38-1.56l.89,1.44a7.53,7.53,0,0,1-2.7,1.78A10.46,10.46,0,0,1,720.09,226Zm-.28-18a5,5,0,0,0-3.91,1.79,7.61,7.61,0,0,0-1.85,4.47l0,.09h11.15v-.53a6.11,6.11,0,0,0-1.46-4.15A5,5,0,0,0,719.81,208Z"/><path d="M748,224.21a6,6,0,0,0,3.7-1.19,3.94,3.94,0,0,0,1.6-3.32h1.86l0,.1a5.21,5.21,0,0,1-2.1,4.41A7.8,7.8,0,0,1,748,226a7.25,7.25,0,0,1-6-2.66,10.64,10.64,0,0,1-2.13-6.85v-.74a10.61,10.61,0,0,1,2.13-6.82,7.21,7.21,0,0,1,6-2.67,9.67,9.67,0,0,1,4,.83,7.86,7.86,0,0,1,3,2.25l.09,4.14h-1.79l-.34-3.37a6,6,0,0,0-2.1-1.5,7,7,0,0,0-2.85-.56,5.08,5.08,0,0,0-4.53,2.19,9.69,9.69,0,0,0-1.47,5.51v.74A9.79,9.79,0,0,0,743.4,222,5.07,5.07,0,0,0,748,224.21Z"/><path d="M758.45,199.76V198.2h5v11.65a6.94,6.94,0,0,1,2.53-2.65,7,7,0,0,1,3.69-.95,5.76,5.76,0,0,1,4.61,1.86c1.07,1.25,1.61,3.17,1.61,5.79v9.95l2.87.22v1.55h-7.84v-1.55l2.86-.22v-10c0-2.06-.41-3.54-1.22-4.44a4.34,4.34,0,0,0-3.37-1.34,5.72,5.72,0,0,0-3.61,1.13,6.51,6.51,0,0,0-2.13,3v11.62l2.86.22v1.55h-7.82v-1.55l2.86-.22V200Z"/><path d="M795,225.62c-.14-.64-.24-1.2-.3-1.67a11.16,11.16,0,0,1-.09-1.42,8.48,8.48,0,0,1-2.81,2.48,8,8,0,0,1-3.95,1,6.07,6.07,0,0,1-4.33-1.44,5.1,5.1,0,0,1-1.53-3.9,4.83,4.83,0,0,1,2.27-4.19,10.77,10.77,0,0,1,6.15-1.54h4.2V212.4a4,4,0,0,0-1.31-3.2,5.34,5.34,0,0,0-3.66-1.16,9.38,9.38,0,0,0-2.89.43,6.71,6.71,0,0,0-2.19,1.17l-.18,2.55h-1.74l0-3.66a11.1,11.1,0,0,1,3.16-1.65,11.92,11.92,0,0,1,3.91-.63,7.62,7.62,0,0,1,5.06,1.6,5.65,5.65,0,0,1,1.92,4.59v9.35c0,.39,0,.76,0,1.12a8.94,8.94,0,0,0,.12,1l1.9.12v1.55Zm-6.92-1.49a7.54,7.54,0,0,0,4-1.06,6.18,6.18,0,0,0,2.51-2.72v-3.82h-4.23a7.91,7.91,0,0,0-4.58,1.19,3.55,3.55,0,0,0-1.72,3,3.14,3.14,0,0,0,1.07,2.47A4.3,4.3,0,0,0,788.09,224.13Z"/><path d="M801.29,208.17V206.6H806l.2,3.15a6.63,6.63,0,0,1,2.44-2.59,7,7,0,0,1,3.64-.91,6,6,0,0,1,3.64,1.06,5.87,5.87,0,0,1,2.09,3.25,7.37,7.37,0,0,1,2.45-3.16,6.43,6.43,0,0,1,3.88-1.15,5.73,5.73,0,0,1,4.7,2c1.11,1.35,1.66,3.43,1.66,6.26v9.3l2.87.24v1.55h-7.86v-1.55l2.87-.24v-9.34c0-2.34-.42-4-1.24-5a4.3,4.3,0,0,0-3.46-1.45,4.71,4.71,0,0,0-3.79,1.56,7.59,7.59,0,0,0-1.64,4,2.35,2.35,0,0,0,0,.27c0,.08,0,.18,0,.31v9.64l2.86.22v1.55H813.5v-1.55l2.87-.22v-9.36c0-2.29-.42-3.94-1.26-4.93a4.28,4.28,0,0,0-3.45-1.48,5.28,5.28,0,0,0-3.56,1.13,6,6,0,0,0-1.84,3v11.59l2.87.22v1.55h-7.84v-1.55l2.86-.22V208.39Z"/><path d="M836,215.83a10.2,10.2,0,0,1,2.31-6.89,8.27,8.27,0,0,1,12.21,0,10.2,10.2,0,0,1,2.31,6.89v.58a10.25,10.25,0,0,1-2.3,6.9,8.3,8.3,0,0,1-12.22,0,10.2,10.2,0,0,1-2.31-6.9Zm2.11.58a9.07,9.07,0,0,0,1.67,5.55,5.9,5.9,0,0,0,9.27,0,9.07,9.07,0,0,0,1.67-5.55v-.58a9,9,0,0,0-1.68-5.52,5.86,5.86,0,0,0-9.26,0,9.07,9.07,0,0,0-1.67,5.52Z"/><path d="M889.56,205.12h-.08l-8.28,20.51h-2.31l-8.28-20.5-.08,0,.35,10.36v7.41l2.86.5v2.21h-9.19v-2.21l2.87-.5V202.75l-2.87-.49V200h7.29L880,220.82h.11L888.25,200h7.31v2.23l-2.87.49v20.16l2.87.5v2.21h-9.2v-2.21l2.87-.5V215.5Z"/><path d="M910.76,225.62c-.1-.51-.18-1-.24-1.39s-.1-.82-.13-1.23a8.26,8.26,0,0,1-2.5,2.14,7.19,7.19,0,0,1-7.73-.6,5.34,5.34,0,0,1-1.54-4.09,4.74,4.74,0,0,1,2.18-4.17,10.66,10.66,0,0,1,6-1.47h3.57V212.6a3.44,3.44,0,0,0-1.06-2.65,4.15,4.15,0,0,0-2.93-1,7.28,7.28,0,0,0-2.3.34,4.38,4.38,0,0,0-1.61.91l-.37,2h-2.67v-3.7a10.45,10.45,0,0,1,3.15-1.66,12.62,12.62,0,0,1,4-.62,8,8,0,0,1,5.24,1.65,5.8,5.8,0,0,1,2,4.73v9.16c0,.24,0,.49,0,.72s0,.47,0,.7l1.41.2v2.21Zm-5.57-2.53a6.18,6.18,0,0,0,3.15-.83,5.13,5.13,0,0,0,2-2v-3.13h-3.7a5.29,5.29,0,0,0-3.36,1,3,3,0,0,0-1.24,2.39,2.38,2.38,0,0,0,.77,1.91A3.55,3.55,0,0,0,905.19,223.09Z"/><path d="M918.18,208.83V206.6h6l.33,2.76a6.67,6.67,0,0,1,2-2.28,4.65,4.65,0,0,1,2.71-.83,6.15,6.15,0,0,1,.84.06,5.45,5.45,0,0,1,.66.13l-.46,3.22-2-.11a4,4,0,0,0-2.3.65,4.07,4.07,0,0,0-1.44,1.8v10.91l2.86.5v2.21h-9.19v-2.21l2.87-.5V209.33Z"/><path d="M933.07,223.41l2.86-.5V209.33l-2.86-.5V206.6h6.33v16.31l2.86.5v2.21h-9.19Zm6.33-21.68h-3.47V198.2h3.47Z"/><path d="M957.31,225.62c-.11-.51-.19-1-.25-1.39s-.1-.82-.12-1.23a8.38,8.38,0,0,1-2.5,2.14,6.43,6.43,0,0,1-3.21.85,6.36,6.36,0,0,1-4.52-1.45,5.34,5.34,0,0,1-1.55-4.09,4.73,4.73,0,0,1,2.19-4.17,10.65,10.65,0,0,1,6-1.47h3.57V212.6a3.44,3.44,0,0,0-1-2.65,4.16,4.16,0,0,0-2.94-1,7.26,7.26,0,0,0-2.29.34,4.38,4.38,0,0,0-1.61.91l-.37,2H946v-3.7a10.45,10.45,0,0,1,3.15-1.66,12.56,12.56,0,0,1,4-.62,8,8,0,0,1,5.24,1.65,5.77,5.77,0,0,1,2,4.73v9.88c0,.23,0,.47.05.7l1.4.2v2.21Zm-5.57-2.53a6.14,6.14,0,0,0,3.14-.83,5.13,5.13,0,0,0,2-2v-3.13h-3.69a5.27,5.27,0,0,0-3.36,1,3,3,0,0,0-1.24,2.39,2.35,2.35,0,0,0,.77,1.91A3.53,3.53,0,0,0,951.74,223.09Z"/><path d="M964.22,223.41l2.86-.5V209.33l-2.86-.5V206.6h6l.24,2.83a7,7,0,0,1,2.38-2.35,6.46,6.46,0,0,1,3.27-.83,6.21,6.21,0,0,1,4.76,1.8c1.12,1.2,1.69,3.06,1.69,5.56v9.3l2.86.5v2.21h-9.19v-2.21l2.86-.5v-9.22a5.15,5.15,0,0,0-1-3.57,4,4,0,0,0-3-1.06,4.9,4.9,0,0,0-2.65.72,5.27,5.27,0,0,0-1.83,2v11.16l2.86.5v2.21h-9.19Z"/><path d="M1000.31,225.62c-.11-.51-.19-1-.25-1.39s-.1-.82-.12-1.23a8.42,8.42,0,0,1-2.51,2.14,7.18,7.18,0,0,1-7.72-.6,5.34,5.34,0,0,1-1.55-4.09,4.73,4.73,0,0,1,2.19-4.17,10.65,10.65,0,0,1,6-1.47h3.57V212.6a3.41,3.41,0,0,0-1.06-2.65,4.15,4.15,0,0,0-2.93-1,7.21,7.21,0,0,0-2.29.34,4.3,4.3,0,0,0-1.61.91l-.37,2H989v-3.7a10.27,10.27,0,0,1,3.14-1.66,12.62,12.62,0,0,1,4-.62,8,8,0,0,1,5.24,1.65,5.8,5.8,0,0,1,2,4.73v9.16c0,.24,0,.49,0,.72s0,.47,0,.7l1.41.2v2.21Zm-5.58-2.53a6.18,6.18,0,0,0,3.15-.83,5.13,5.13,0,0,0,2-2v-3.13h-3.69a5.32,5.32,0,0,0-3.37,1,3,3,0,0,0-1.24,2.39,2.35,2.35,0,0,0,.78,1.91A3.5,3.5,0,0,0,994.73,223.09Z"/><path d="M1025.2,226a7.64,7.64,0,0,1-5.94-2.63,9.6,9.6,0,0,1-2.36-6.69v-1a9.9,9.9,0,0,1,2.35-6.77,7.26,7.26,0,0,1,5.67-2.69,7.07,7.07,0,0,1,5.5,2.21,8.51,8.51,0,0,1,2,5.91v1.79H1019v.51a8.33,8.33,0,0,0,1.72,5.37,5.42,5.42,0,0,0,4.49,2.17,9.24,9.24,0,0,0,3.34-.54,6.75,6.75,0,0,0,2.37-1.56l.9,1.44a7.66,7.66,0,0,1-2.71,1.78A10.4,10.4,0,0,1,1025.2,226Zm-.28-18a5.05,5.05,0,0,0-3.92,1.79,7.67,7.67,0,0,0-1.85,4.47l0,.09h11.15v-.53a6.11,6.11,0,0,0-1.46-4.15A5,5,0,0,0,1024.92,208Z"/><path d="M557.06,251.37l-2.38.17,4.75,12.52.61,2.23h.11l.67-2.23,4.67-12.52-2.37-.17V249.8h6.4v1.57l-1.86.15-6.72,17.3h-1.69l-6.73-17.3-1.86-.15V249.8h6.4Z"/><path d="M571.58,259a10.19,10.19,0,0,1,2.3-6.89,8.28,8.28,0,0,1,12.22,0,10.24,10.24,0,0,1,2.3,6.89v.58a10.25,10.25,0,0,1-2.3,6.9,8.3,8.3,0,0,1-12.22,0,10.2,10.2,0,0,1-2.3-6.9Zm2.11.58a9,9,0,0,0,1.67,5.55,5.89,5.89,0,0,0,9.26,0,9.07,9.07,0,0,0,1.67-5.55V259a9,9,0,0,0-1.68-5.52,5.85,5.85,0,0,0-9.25,0,9,9,0,0,0-1.67,5.52Z"/><path d="M605.8,265.69a6.45,6.45,0,0,1-2.45,2.59,7.11,7.11,0,0,1-3.67.91,5.78,5.78,0,0,1-4.7-2q-1.69-2-1.7-6.33v-9.23l-2.35-.22V249.8h4.45v11.06q0,3.48,1.18,5a4,4,0,0,0,3.37,1.51,6.23,6.23,0,0,0,3.8-1.05,5.62,5.62,0,0,0,2-2.92v-11.8l-2.71-.22V249.8h4.82v17.25l2.55.22v1.55H606Z"/><path d="M635.37,268.82c-.14-.64-.24-1.2-.3-1.67a11.16,11.16,0,0,1-.09-1.42,8.48,8.48,0,0,1-2.81,2.48,8,8,0,0,1-4,1,6.06,6.06,0,0,1-4.32-1.44,5.1,5.1,0,0,1-1.53-3.9,4.81,4.81,0,0,1,2.27-4.19,10.77,10.77,0,0,1,6.15-1.54H635V255.6a4.07,4.07,0,0,0-1.31-3.2,5.34,5.34,0,0,0-3.66-1.16,9.49,9.49,0,0,0-2.9.43,6.55,6.55,0,0,0-2.18,1.17l-.18,2.55H623l0-3.65a10.93,10.93,0,0,1,3.15-1.66,12,12,0,0,1,3.91-.63,7.64,7.64,0,0,1,5.07,1.6,5.67,5.67,0,0,1,1.91,4.59V265c0,.39,0,.76,0,1.12a8.94,8.94,0,0,0,.11,1l1.9.12v1.55Zm-6.93-1.49a7.58,7.58,0,0,0,4-1.06,6.24,6.24,0,0,0,2.51-2.72v-3.82h-4.24a7.94,7.94,0,0,0-4.58,1.19,3.54,3.54,0,0,0-1.71,3,3.17,3.17,0,0,0,1.06,2.47A4.31,4.31,0,0,0,628.44,267.33Z"/><path d="M650.22,267.41a6,6,0,0,0,3.69-1.19,3.9,3.9,0,0,0,1.6-3.32h1.86l0,.1a5.21,5.21,0,0,1-2.1,4.41,7.82,7.82,0,0,1-5.09,1.78,7.23,7.23,0,0,1-6-2.66,10.64,10.64,0,0,1-2.13-6.85v-.74a10.61,10.61,0,0,1,2.13-6.82,7.19,7.19,0,0,1,6-2.67,9.68,9.68,0,0,1,4,.83,7.86,7.86,0,0,1,3,2.25l.09,4.14h-1.8l-.33-3.37a6,6,0,0,0-2.1-1.5,7,7,0,0,0-2.86-.56,5,5,0,0,0-4.52,2.19,9.69,9.69,0,0,0-1.47,5.51v.74a9.76,9.76,0,0,0,1.46,5.56A5.09,5.09,0,0,0,650.22,267.41Z"/><path d="M661.33,259a10.24,10.24,0,0,1,2.3-6.89,8.28,8.28,0,0,1,12.22,0,10.24,10.24,0,0,1,2.3,6.89v.58a10.24,10.24,0,0,1-2.29,6.9,8.32,8.32,0,0,1-12.23,0,10.25,10.25,0,0,1-2.3-6.9Zm2.11.58a9.07,9.07,0,0,0,1.67,5.55,5.89,5.89,0,0,0,9.26,0,9,9,0,0,0,1.67-5.55V259a9,9,0,0,0-1.68-5.52,5.85,5.85,0,0,0-9.25,0,9.07,9.07,0,0,0-1.67,5.52Z"/><path d="M681.12,251.37V249.8h4.73L686,253a6.65,6.65,0,0,1,2.45-2.59,7,7,0,0,1,3.64-.91,6,6,0,0,1,3.64,1.06,5.87,5.87,0,0,1,2.09,3.25,7.37,7.37,0,0,1,2.45-3.16,6.41,6.41,0,0,1,3.88-1.15,5.74,5.74,0,0,1,4.7,2c1.1,1.35,1.66,3.44,1.66,6.26V267l2.86.24v1.55h-7.85v-1.55l2.86-.24v-9.34q0-3.51-1.24-5a4.28,4.28,0,0,0-3.45-1.45,4.7,4.7,0,0,0-3.79,1.56,7.59,7.59,0,0,0-1.64,4,2.35,2.35,0,0,0,0,.27v9.95l2.87.22v1.55h-7.84v-1.55l2.86-.22v-9.36c0-2.29-.41-3.94-1.25-4.93a4.29,4.29,0,0,0-3.46-1.48,5.3,5.3,0,0,0-3.56,1.13,6,6,0,0,0-1.83,3.05v11.59l2.86.22v1.55h-7.84v-1.55l2.87-.22V251.59Z"/><path d="M715.45,251.37V249.8h4.63l.26,2.95a6.65,6.65,0,0,1,6-3.3,6.19,6.19,0,0,1,5.36,2.73,12.39,12.39,0,0,1,1.94,7.29v.37a11,11,0,0,1-1.94,6.81,6.31,6.31,0,0,1-5.32,2.54,7.63,7.63,0,0,1-3.51-.76,6.43,6.43,0,0,1-2.45-2.18v8.09l2.86.23v1.56h-7.82v-1.56l2.87-.23V251.59Zm16.07,8.1a11,11,0,0,0-1.44-5.91,4.69,4.69,0,0,0-4.22-2.28,5.53,5.53,0,0,0-3.46,1,6.17,6.17,0,0,0-2,2.63v9.14a5.76,5.76,0,0,0,2.08,2.46,6,6,0,0,0,3.4.89,4.79,4.79,0,0,0,4.2-2.07,9.55,9.55,0,0,0,1.43-5.5Z"/><path d="M750.19,268.82c-.14-.64-.24-1.2-.3-1.67a11.16,11.16,0,0,1-.09-1.42,8.48,8.48,0,0,1-2.81,2.48,8,8,0,0,1-4,1,6.06,6.06,0,0,1-4.32-1.44,5.1,5.1,0,0,1-1.53-3.9,4.81,4.81,0,0,1,2.27-4.19,10.77,10.77,0,0,1,6.15-1.54h4.2V255.6a4.07,4.07,0,0,0-1.31-3.2,5.34,5.34,0,0,0-3.66-1.16,9.49,9.49,0,0,0-2.9.43,6.55,6.55,0,0,0-2.18,1.17l-.18,2.55h-1.74l0-3.65a10.93,10.93,0,0,1,3.15-1.66,12,12,0,0,1,3.91-.63,7.64,7.64,0,0,1,5.07,1.6,5.67,5.67,0,0,1,1.91,4.59V265c0,.39,0,.76,0,1.12a8.94,8.94,0,0,0,.11,1l1.9.12v1.55Zm-6.93-1.49a7.58,7.58,0,0,0,4-1.06,6.24,6.24,0,0,0,2.51-2.72v-3.82h-4.24a7.94,7.94,0,0,0-4.58,1.19,3.54,3.54,0,0,0-1.71,3,3.17,3.17,0,0,0,1.06,2.47A4.31,4.31,0,0,0,743.26,267.33Z"/><path d="M756.53,267.27l2.87-.22V251.59l-2.87-.22V249.8h4.73l.19,3.32a6.57,6.57,0,0,1,6.16-3.67,5.86,5.86,0,0,1,4.71,1.89c1.08,1.26,1.61,3.23,1.61,5.9v9.81l2.87.22v1.55H769v-1.55l2.87-.22v-9.8q0-3.27-1.23-4.62a4.43,4.43,0,0,0-3.47-1.35,5.44,5.44,0,0,0-3.61,1.17,6.5,6.5,0,0,0-2,3.1v11.5l2.86.22v1.55h-7.84Z"/><path d="M779.49,243V241.4h5v11.65A6.94,6.94,0,0,1,787,250.4a7,7,0,0,1,3.69-1,5.76,5.76,0,0,1,4.61,1.86c1.08,1.25,1.61,3.17,1.61,5.79v9.95l2.87.22v1.55h-7.84v-1.55l2.86-.22v-10c0-2.06-.4-3.54-1.22-4.44a4.34,4.34,0,0,0-3.37-1.34,5.72,5.72,0,0,0-3.61,1.13,6.59,6.59,0,0,0-2.13,3v11.62l2.86.22v1.55h-7.82v-1.55l2.86-.22V243.19Z"/><path d="M816.05,268.82c-.14-.64-.24-1.2-.3-1.67a11.16,11.16,0,0,1-.08-1.42,8.62,8.62,0,0,1-2.82,2.48,8,8,0,0,1-4,1,6.07,6.07,0,0,1-4.33-1.44,5.1,5.1,0,0,1-1.53-3.9,4.83,4.83,0,0,1,2.27-4.19,10.77,10.77,0,0,1,6.15-1.54h4.21V255.6a4.07,4.07,0,0,0-1.31-3.2,5.38,5.38,0,0,0-3.67-1.16,9.42,9.42,0,0,0-2.89.43,6.71,6.71,0,0,0-2.19,1.17l-.18,2.55h-1.74l0-3.65a10.87,10.87,0,0,1,3.16-1.66,12,12,0,0,1,3.91-.63,7.62,7.62,0,0,1,5.06,1.6,5.65,5.65,0,0,1,1.92,4.59V265c0,.39,0,.76,0,1.12a8.94,8.94,0,0,0,.12,1l1.9.12v1.55Zm-6.92-1.49a7.54,7.54,0,0,0,4-1.06,6.26,6.26,0,0,0,2.52-2.72v-3.82h-4.24a7.91,7.91,0,0,0-4.58,1.19,3.54,3.54,0,0,0-1.71,3,3.14,3.14,0,0,0,1.06,2.47A4.3,4.3,0,0,0,809.13,267.33Zm3.56-24.79h2.59l.05.11L811,247.22h-1.88Z"/><path d="M832.19,258.8h-8.4V257h8.4Z"/><path d="M836.3,243V241.4h5v25.65l2.86.22v1.55H836.3v-1.55l2.87-.22V243.19Z"/><path d="M875.89,259.8a12.63,12.63,0,0,1-2.06,6.6,6.21,6.21,0,0,1-5.5,2.79,3.18,3.18,0,0,1-2.3-.9,4.39,4.39,0,0,1-1.22-2.47,6.74,6.74,0,0,1-2.29,2.53,5.93,5.93,0,0,1-3.17.84,3.81,3.81,0,0,1-3.5-2.1,9.3,9.3,0,0,1-.86-5.58,13.42,13.42,0,0,1,2.48-7.16,6.15,6.15,0,0,1,5-2.7,6.39,6.39,0,0,1,2.65.47,12,12,0,0,1,2.22,1.43l0,0h0l-.88,10.09a4.55,4.55,0,0,0,.53,3.16,2.09,2.09,0,0,0,1.67.85,4.49,4.49,0,0,0,3.94-2.19,11.16,11.16,0,0,0,1.63-5.69q.33-6.84-2.62-10.62t-9.31-3.79a12,12,0,0,0-9.38,4.14q-3.69,4.14-4,10.89t2.87,10.77q3.21,4.1,9.13,4.1a13,13,0,0,0,3.13-.39,10.07,10.07,0,0,0,2.67-1l.55,1.32a9.39,9.39,0,0,1-2.94,1.14,15.43,15.43,0,0,1-3.48.42q-6.67,0-10.33-4.38t-3.33-12q.32-7.46,4.44-12a13.8,13.8,0,0,1,10.72-4.55q6.87,0,10.32,4.25T875.89,259.8Zm-19,1.71a8.47,8.47,0,0,0,.46,4.34,2.5,2.5,0,0,0,2.42,1.62,5.11,5.11,0,0,0,2.75-.76,6.11,6.11,0,0,0,2.16-2.76v-.15a.32.32,0,0,1,0-.13l.82-9.54a4.78,4.78,0,0,0-1.25-.65,5,5,0,0,0-1.53-.23,4.66,4.66,0,0,0-3.9,2.09A12.44,12.44,0,0,0,856.92,261.51Z"/><path d="M887.61,267.27l2.87-.22V251.59l-2.87-.22V249.8h4.73l.19,3.32a6.57,6.57,0,0,1,6.16-3.67,5.86,5.86,0,0,1,4.71,1.89c1.08,1.26,1.61,3.23,1.61,5.9v9.81l2.87.22v1.55H900v-1.55l2.87-.22v-9.8q0-3.27-1.23-4.62a4.43,4.43,0,0,0-3.47-1.35,5.44,5.44,0,0,0-3.61,1.17,6.5,6.5,0,0,0-2,3.1v11.5l2.86.22v1.55h-7.84Z"/><path d="M924.32,268.82c-.14-.64-.24-1.2-.3-1.67a11.16,11.16,0,0,1-.09-1.42,8.48,8.48,0,0,1-2.81,2.48,8,8,0,0,1-4,1,6.06,6.06,0,0,1-4.32-1.44,5.1,5.1,0,0,1-1.53-3.9,4.81,4.81,0,0,1,2.27-4.19,10.77,10.77,0,0,1,6.15-1.54h4.2V255.6a4.07,4.07,0,0,0-1.31-3.2,5.37,5.37,0,0,0-3.67-1.16,9.47,9.47,0,0,0-2.89.43,6.71,6.71,0,0,0-2.19,1.17l-.17,2.55H912l0-3.65a10.81,10.81,0,0,1,3.15-1.66,12,12,0,0,1,3.91-.63,7.6,7.6,0,0,1,5.06,1.6,5.65,5.65,0,0,1,1.92,4.59V265c0,.39,0,.76,0,1.12a7.19,7.19,0,0,0,.11,1l1.9.12v1.55Zm-6.93-1.49a7.58,7.58,0,0,0,4-1.06,6.24,6.24,0,0,0,2.51-2.72v-3.82h-4.24a7.94,7.94,0,0,0-4.58,1.19,3.54,3.54,0,0,0-1.71,3,3.14,3.14,0,0,0,1.06,2.47A4.31,4.31,0,0,0,917.39,267.33Z"/><path d="M559.92,312.39a7.64,7.64,0,0,1-5.94-2.63,9.64,9.64,0,0,1-2.36-6.69v-1a9.94,9.94,0,0,1,2.35-6.77,7.29,7.29,0,0,1,5.67-2.69,7.05,7.05,0,0,1,5.5,2.21,8.47,8.47,0,0,1,2,5.91v1.79H553.72v.51a8.38,8.38,0,0,0,1.71,5.37,5.44,5.44,0,0,0,4.49,2.17,9.2,9.2,0,0,0,3.34-.54,6.45,6.45,0,0,0,2.37-1.56l.9,1.44a7.57,7.57,0,0,1-2.71,1.78A10.4,10.4,0,0,1,559.92,312.39Zm-.28-17.95a5,5,0,0,0-3.91,1.79,7.68,7.68,0,0,0-1.86,4.47l0,.09h11.14v-.53a6.11,6.11,0,0,0-1.45-4.15A5,5,0,0,0,559.64,294.44Z"/><path d="M570.49,310.47l2.12-.19,6-7.94-5.73-7.58-2.14-.19V293h6.45v1.57l-2,.1,4.54,6.1,4.55-6.12-2-.08V293h6.45v1.57l-2.13.19L581,302.34l6,7.94,2.14.19V312h-6.43v-1.55l2-.08-4.84-6.47L575,310.39l1.95.08V312h-6.43Z"/><path d="M591.3,294.57V293h4.62l.27,2.95a6.92,6.92,0,0,1,2.46-2.44,7,7,0,0,1,3.53-.86,6.21,6.21,0,0,1,5.36,2.73,12.39,12.39,0,0,1,1.93,7.29V303a11,11,0,0,1-1.93,6.81,6.33,6.33,0,0,1-5.33,2.54,7.61,7.61,0,0,1-3.5-.76,6.43,6.43,0,0,1-2.45-2.18v8.09l2.86.23v1.56H591.3v-1.56l2.86-.23V294.79Zm16.06,8.1a11,11,0,0,0-1.44-5.91,4.68,4.68,0,0,0-4.22-2.28,5.58,5.58,0,0,0-3.45,1,6.17,6.17,0,0,0-2,2.63v9.14a5.76,5.76,0,0,0,2.08,2.46,6,6,0,0,0,3.4.89,4.76,4.76,0,0,0,4.19-2.07,9.47,9.47,0,0,0,1.43-5.5Z"/><path d="M612.3,286.16V284.6h5v25.65l2.87.22V312H612.3v-1.55l2.87-.22V286.39Z"/><path d="M623.1,302.23a10.19,10.19,0,0,1,2.3-6.89,8.28,8.28,0,0,1,12.22,0,10.24,10.24,0,0,1,2.3,6.89v.58a10.29,10.29,0,0,1-2.29,6.9,8.32,8.32,0,0,1-12.23,0,10.2,10.2,0,0,1-2.3-6.9Zm2.11.58a9,9,0,0,0,1.67,5.55,5.89,5.89,0,0,0,9.26,0,9.07,9.07,0,0,0,1.67-5.55v-.58a9,9,0,0,0-1.68-5.52,5.85,5.85,0,0,0-9.25,0,9,9,0,0,0-1.67,5.52Z"/><path d="M647.9,293l.26,3.17v.22a6.83,6.83,0,0,1,2.21-2.75,5.58,5.58,0,0,1,3.31-1,5.16,5.16,0,0,1,.79.06c.25,0,.46.09.62.13l-.28,2-1.57-.1a4.79,4.79,0,0,0-3.26,1.11,6.24,6.24,0,0,0-1.82,3.07v11.36l2.87.22V312h-7.82v-1.55l2.86-.22V294.79l-2.86-.22V293h4.69Z"/><path d="M670.94,312a16,16,0,0,1-.29-1.67,11.16,11.16,0,0,1-.09-1.42,8.48,8.48,0,0,1-2.81,2.48,8,8,0,0,1-4,1,6.06,6.06,0,0,1-4.32-1.44,5.1,5.1,0,0,1-1.53-3.9,4.82,4.82,0,0,1,2.26-4.19,10.82,10.82,0,0,1,6.16-1.54h4.2V298.8a4.07,4.07,0,0,0-1.31-3.2,5.37,5.37,0,0,0-3.67-1.16,9.42,9.42,0,0,0-2.89.43A6.71,6.71,0,0,0,660.5,296l-.17,2.55h-1.74l0-3.65a10.81,10.81,0,0,1,3.15-1.66,12,12,0,0,1,3.91-.63,7.6,7.6,0,0,1,5.06,1.6,5.65,5.65,0,0,1,1.92,4.59v9.35c0,.39,0,.76,0,1.12a7.19,7.19,0,0,0,.11,1l1.9.12V312ZM664,310.53a7.54,7.54,0,0,0,4-1.06,6.26,6.26,0,0,0,2.52-2.72v-3.82h-4.24a7.94,7.94,0,0,0-4.58,1.19,3.54,3.54,0,0,0-1.71,3,3.14,3.14,0,0,0,1.06,2.47A4.31,4.31,0,0,0,664,310.53Z"/><path d="M685.8,310.61a6,6,0,0,0,3.69-1.19,3.9,3.9,0,0,0,1.6-3.32H693l0,.1a5.21,5.21,0,0,1-2.1,4.41,7.82,7.82,0,0,1-5.09,1.78,7.26,7.26,0,0,1-6-2.66,10.69,10.69,0,0,1-2.12-6.85v-.74a10.66,10.66,0,0,1,2.12-6.82,7.21,7.21,0,0,1,6-2.67,9.68,9.68,0,0,1,4,.83,7.94,7.94,0,0,1,3,2.25l.08,4.14h-1.79l-.33-3.37a6,6,0,0,0-2.1-1.5,7,7,0,0,0-2.86-.56,5.08,5.08,0,0,0-4.53,2.19,9.76,9.76,0,0,0-1.46,5.51v.74a9.76,9.76,0,0,0,1.46,5.56A5.09,5.09,0,0,0,685.8,310.61Zm.54,1.57-.19,1.12a4.2,4.2,0,0,1,2.24.86,2.6,2.6,0,0,1,.85,2.15,3,3,0,0,1-1.38,2.56,7,7,0,0,1-4,1l-.12-1.38a5.86,5.86,0,0,0,2.64-.53,1.69,1.69,0,0,0,1.09-1.57,1.45,1.45,0,0,0-.72-1.4,6.92,6.92,0,0,0-2.55-.54l.49-2.23Z"/><path d="M710,312c-.14-.64-.24-1.2-.3-1.67a11.16,11.16,0,0,1-.09-1.42,8.48,8.48,0,0,1-2.81,2.48,8,8,0,0,1-4,1,6.06,6.06,0,0,1-4.32-1.44,5.1,5.1,0,0,1-1.53-3.9,4.83,4.83,0,0,1,2.27-4.19,10.77,10.77,0,0,1,6.15-1.54h4.2V298.8a4,4,0,0,0-1.31-3.2,5.34,5.34,0,0,0-3.66-1.16,9.38,9.38,0,0,0-2.89.43A6.51,6.51,0,0,0,699.6,296l-.18,2.55h-1.74l0-3.65a10.93,10.93,0,0,1,3.15-1.66,12,12,0,0,1,3.92-.63,7.63,7.63,0,0,1,5.06,1.6,5.67,5.67,0,0,1,1.91,4.59v9.35c0,.39,0,.76,0,1.12s.06.7.11,1l1.9.12V312Zm.75-26.35a3.61,3.61,0,0,1-1,2.57,3.2,3.2,0,0,1-2.41,1,4.52,4.52,0,0,1-2.65-1,4.31,4.31,0,0,0-2.31-1,1.82,1.82,0,0,0-1.39.62,2.24,2.24,0,0,0-.56,1.56l-1.39-.31a3.64,3.64,0,0,1,.94-2.54,3.1,3.1,0,0,1,2.4-1,4.83,4.83,0,0,1,2.6,1,4.66,4.66,0,0,0,2.36,1,1.83,1.83,0,0,0,1.39-.63,2.31,2.31,0,0,0,.58-1.6Zm-7.68,24.86a7.55,7.55,0,0,0,4-1.06,6.18,6.18,0,0,0,2.51-2.72v-3.82h-4.23a7.91,7.91,0,0,0-4.58,1.19,3.52,3.52,0,0,0-1.72,3,3.14,3.14,0,0,0,1.07,2.47A4.29,4.29,0,0,0,703.11,310.53Z"/><path d="M716.77,302.23a10.24,10.24,0,0,1,2.3-6.89,8.28,8.28,0,0,1,12.22,0,10.19,10.19,0,0,1,2.3,6.89v.58a10.24,10.24,0,0,1-2.29,6.9,8.32,8.32,0,0,1-12.23,0,10.25,10.25,0,0,1-2.3-6.9Zm2.11.58a9.07,9.07,0,0,0,1.67,5.55,5.47,5.47,0,0,0,4.66,2.25,5.4,5.4,0,0,0,4.6-2.25,9,9,0,0,0,1.67-5.55v-.58a9,9,0,0,0-1.68-5.52,5.85,5.85,0,0,0-9.25,0,9.07,9.07,0,0,0-1.67,5.52Z"/><path d="M759,309.28a6.48,6.48,0,0,1-2.44,2.3,7.29,7.29,0,0,1-3.52.81,6.3,6.3,0,0,1-5.33-2.55,11,11,0,0,1-1.93-6.8v-.37a12.46,12.46,0,0,1,1.93-7.29,6.19,6.19,0,0,1,5.37-2.73,6.56,6.56,0,0,1,5.87,3.22v-9.48l-2.86-.23V284.6h5v25.65l2.87.22V312h-4.75ZM747.9,303a9.62,9.62,0,0,0,1.38,5.48,4.69,4.69,0,0,0,4.16,2,5.92,5.92,0,0,0,3.38-.91,6,6,0,0,0,2.12-2.52v-9a6.55,6.55,0,0,0-2-2.63,5.48,5.48,0,0,0-3.44-1,4.59,4.59,0,0,0-4.17,2.27,11.2,11.2,0,0,0-1.4,5.92Z"/><path d="M767.15,302.23a10.24,10.24,0,0,1,2.3-6.89,8.28,8.28,0,0,1,12.22,0,10.24,10.24,0,0,1,2.3,6.89v.58a10.24,10.24,0,0,1-2.29,6.9,8.32,8.32,0,0,1-12.23,0,10.25,10.25,0,0,1-2.3-6.9Zm2.11.58a9.07,9.07,0,0,0,1.67,5.55,5.89,5.89,0,0,0,9.26,0,9,9,0,0,0,1.67-5.55v-.58a9,9,0,0,0-1.68-5.52,5.85,5.85,0,0,0-9.25,0,9.07,9.07,0,0,0-1.67,5.52Z"/><path d="M801.2,298.87h-1.72l-.25-2.69a5.26,5.26,0,0,0-2-1.28,7.83,7.83,0,0,0-2.76-.46,5.14,5.14,0,0,0-3.46,1,3,3,0,0,0-1.15,2.33,2.79,2.79,0,0,0,1,2.18,9.92,9.92,0,0,0,4,1.51,13,13,0,0,1,5.08,2.06,4.29,4.29,0,0,1,1.69,3.56,4.62,4.62,0,0,1-1.93,3.84,8.16,8.16,0,0,1-5.09,1.47,12,12,0,0,1-3.84-.59,9.11,9.11,0,0,1-3-1.66v-3.83h1.71l.3,2.71a4.88,4.88,0,0,0,2.13,1.22,9.62,9.62,0,0,0,2.7.37,5.84,5.84,0,0,0,3.61-1,3,3,0,0,0,1.31-2.42,3.06,3.06,0,0,0-1.1-2.34,9,9,0,0,0-4-1.64,13.29,13.29,0,0,1-5-2,4,4,0,0,1-1.64-3.41,4.61,4.61,0,0,1,1.85-3.69,7.48,7.48,0,0,1,4.87-1.5,10.86,10.86,0,0,1,3.82.64,7.89,7.89,0,0,1,2.82,1.73Z"/><path d="M813.61,294.57V293h4.62l.27,2.95a6.87,6.87,0,0,1,2.47-2.44,7,7,0,0,1,3.52-.86,6.21,6.21,0,0,1,5.36,2.73,12.39,12.39,0,0,1,1.93,7.29V303a11,11,0,0,1-1.93,6.81,6.33,6.33,0,0,1-5.33,2.54,7.61,7.61,0,0,1-3.5-.76,6.43,6.43,0,0,1-2.45-2.18v8.09l2.86.23v1.56h-7.82v-1.56l2.86-.23V294.79Zm16.07,8.1a11,11,0,0,0-1.45-5.91,4.68,4.68,0,0,0-4.22-2.28,5.58,5.58,0,0,0-3.45,1,6.17,6.17,0,0,0-2,2.63v9.14a5.76,5.76,0,0,0,2.08,2.46,6,6,0,0,0,3.4.89,4.76,4.76,0,0,0,4.19-2.07,9.47,9.47,0,0,0,1.44-5.5Z"/><path d="M835.07,310.47l2.87-.22V294.79l-2.87-.22V293h5v17.25l2.86.22V312h-7.82Zm5-22.92h-2.09V284.6H840Z"/><path d="M846,286.16V284.6h5v25.65l2.87.22V312H846v-1.55l2.86-.22V286.39Z"/><path d="M870.28,312c-.14-.64-.24-1.2-.3-1.67a11.16,11.16,0,0,1-.09-1.42,8.48,8.48,0,0,1-2.81,2.48,8,8,0,0,1-4,1A6.07,6.07,0,0,1,858.8,311a5.1,5.1,0,0,1-1.53-3.9,4.83,4.83,0,0,1,2.27-4.19,10.77,10.77,0,0,1,6.15-1.54h4.2V298.8a4,4,0,0,0-1.31-3.2,5.34,5.34,0,0,0-3.66-1.16,9.38,9.38,0,0,0-2.89.43,6.61,6.61,0,0,0-2.19,1.17l-.18,2.55h-1.74l0-3.65a10.87,10.87,0,0,1,3.16-1.66,11.92,11.92,0,0,1,3.91-.63,7.63,7.63,0,0,1,5.06,1.6,5.65,5.65,0,0,1,1.92,4.59v9.35c0,.39,0,.76,0,1.12a8.94,8.94,0,0,0,.12,1l1.89.12V312Zm-6.93-1.49a7.55,7.55,0,0,0,4-1.06,6.18,6.18,0,0,0,2.51-2.72v-3.82h-4.23a7.91,7.91,0,0,0-4.58,1.19,3.55,3.55,0,0,0-1.72,3,3.14,3.14,0,0,0,1.07,2.47A4.29,4.29,0,0,0,863.35,310.53Z"/><path d="M881.57,293l.26,3.17v.22a6.75,6.75,0,0,1,2.21-2.75,5.56,5.56,0,0,1,3.31-1,4.93,4.93,0,0,1,.78.06c.25,0,.46.09.63.13l-.29,2-1.56-.1a4.79,4.79,0,0,0-3.26,1.11,6.17,6.17,0,0,0-1.82,3.07v11.36l2.86.22V312h-7.82v-1.55l2.87-.22V294.79l-2.87-.22V293h4.7Z"/><path d="M899.53,312.39a7.64,7.64,0,0,1-5.94-2.63,9.64,9.64,0,0,1-2.36-6.69v-1a9.94,9.94,0,0,1,2.35-6.77,7.26,7.26,0,0,1,5.67-2.69,7.05,7.05,0,0,1,5.5,2.21,8.47,8.47,0,0,1,2,5.91v1.79H893.33v.51a8.38,8.38,0,0,0,1.71,5.37,5.44,5.44,0,0,0,4.49,2.17,9.24,9.24,0,0,0,3.34-.54,6.45,6.45,0,0,0,2.37-1.56l.9,1.44a7.57,7.57,0,0,1-2.71,1.78A10.4,10.4,0,0,1,899.53,312.39Zm-.28-17.95a5,5,0,0,0-3.91,1.79,7.68,7.68,0,0,0-1.86,4.47l0,.09h11.14v-.53a6.06,6.06,0,0,0-1.46-4.15A5,5,0,0,0,899.25,294.44Z"/><path d="M924.32,298.87h-1.73l-.24-2.69a5.34,5.34,0,0,0-2-1.28,7.84,7.84,0,0,0-2.77-.46,5.13,5.13,0,0,0-3.45,1,3,3,0,0,0-1.15,2.33,2.79,2.79,0,0,0,1,2.18,9.79,9.79,0,0,0,4,1.51,12.87,12.87,0,0,1,5.08,2.06,4.26,4.26,0,0,1,1.69,3.56,4.61,4.61,0,0,1-1.92,3.84,8.18,8.18,0,0,1-5.09,1.47,11.9,11.9,0,0,1-3.84-.59,8.91,8.91,0,0,1-3-1.66v-3.83h1.71l.29,2.71a5,5,0,0,0,2.14,1.22,9.62,9.62,0,0,0,2.7.37,5.81,5.81,0,0,0,3.6-1,2.94,2.94,0,0,0,1.32-2.42,3.09,3.09,0,0,0-1.1-2.34,9,9,0,0,0-4-1.64,13.29,13.29,0,0,1-5-2,4,4,0,0,1-1.64-3.41,4.6,4.6,0,0,1,1.84-3.69,7.49,7.49,0,0,1,4.87-1.5,10.92,10.92,0,0,1,3.83.64,7.89,7.89,0,0,1,2.82,1.73Z"/><path d="M950.51,309.28a6.58,6.58,0,0,1-2.45,2.3,7.22,7.22,0,0,1-3.51.81,6.32,6.32,0,0,1-5.34-2.55,11,11,0,0,1-1.92-6.8v-.37a12.46,12.46,0,0,1,1.92-7.29,6.22,6.22,0,0,1,5.37-2.73,6.53,6.53,0,0,1,5.87,3.22v-9.48l-2.86-.23V284.6h5v25.65l2.87.22V312h-4.75ZM939.42,303a9.62,9.62,0,0,0,1.38,5.48,4.67,4.67,0,0,0,4.15,2,6,6,0,0,0,3.39-.91,6.09,6.09,0,0,0,2.11-2.52v-9a6.47,6.47,0,0,0-2-2.63,5.46,5.46,0,0,0-3.43-1,4.6,4.6,0,0,0-4.18,2.27,11.21,11.21,0,0,0-1.39,5.92Z"/><path d="M958.66,302.23a10.2,10.2,0,0,1,2.31-6.89,8.27,8.27,0,0,1,12.21,0,10.2,10.2,0,0,1,2.31,6.89v.58a10.25,10.25,0,0,1-2.3,6.9,8.3,8.3,0,0,1-12.22,0,10.2,10.2,0,0,1-2.31-6.9Zm2.11.58a9.07,9.07,0,0,0,1.67,5.55,5.9,5.9,0,0,0,9.27,0,9.07,9.07,0,0,0,1.67-5.55v-.58a9,9,0,0,0-1.68-5.52,5.86,5.86,0,0,0-9.26,0,9.07,9.07,0,0,0-1.67,5.52Z"/><path d="M562.84,329.63a9,9,0,0,1,6.37,2.11,7.92,7.92,0,0,1,0,11.12,9,9,0,0,1-6.37,2.09h-5.43v7.56l2.86.5v2.21h-9.19V353l2.86-.5V332.35l-2.86-.49v-2.23h11.76Zm-5.43,12.62h5.43a5.05,5.05,0,0,0,3.89-1.4,5,5,0,0,0,1.29-3.52,5.07,5.07,0,0,0-1.29-3.55,5,5,0,0,0-3.89-1.43h-5.43Z"/><path d="M582.72,355.59a8,8,0,0,1-6.32-2.65,10,10,0,0,1-2.35-6.86v-.77a9.76,9.76,0,0,1,2.42-6.76,7.44,7.44,0,0,1,5.72-2.7,7.2,7.2,0,0,1,5.81,2.32,9.22,9.22,0,0,1,2,6.19v2.16H577.64l0,.09a7.49,7.49,0,0,0,1.39,4.51,4.42,4.42,0,0,0,3.74,1.76,8.63,8.63,0,0,0,3.09-.5A7,7,0,0,0,588.1,351l1.35,2.25a8.23,8.23,0,0,1-2.7,1.66A10.75,10.75,0,0,1,582.72,355.59Zm-.53-17a3.75,3.75,0,0,0-3,1.47,7,7,0,0,0-1.51,3.68l0,.09h8.77v-.45a5.34,5.34,0,0,0-1.09-3.41A3.89,3.89,0,0,0,582.19,338.57Z"/><path d="M592.88,353l2.87-.5V338.93l-2.87-.5V336.2h6l.25,2.83a6.86,6.86,0,0,1,2.38-2.35,6.4,6.4,0,0,1,3.26-.83,6.2,6.2,0,0,1,4.76,1.8c1.13,1.2,1.69,3.06,1.69,5.56v9.3l2.86.5v2.21h-9.19V353l2.87-.5v-9.23a5.08,5.08,0,0,0-1-3.56,4,4,0,0,0-3-1.06,4.84,4.84,0,0,0-2.64.72,5.29,5.29,0,0,0-1.84,2v11.16l2.86.5v2.21h-9.19Z"/><path d="M631.11,342.18h-2.6l-.56-2.29a4.63,4.63,0,0,0-1.59-1,6.13,6.13,0,0,0-2.17-.36,4,4,0,0,0-2.75.81,2.56,2.56,0,0,0-.89,1.95,2.17,2.17,0,0,0,.79,1.78,8.28,8.28,0,0,0,3.22,1.16,13.84,13.84,0,0,1,5.36,2.1,4.23,4.23,0,0,1,1.76,3.56,4.94,4.94,0,0,1-2,4.1,8.62,8.62,0,0,1-5.36,1.56,14,14,0,0,1-3.88-.5,10.66,10.66,0,0,1-3.08-1.45V349.3h2.6l.65,2.55a3.73,3.73,0,0,0,1.62.79,9.27,9.27,0,0,0,2.1.24,5,5,0,0,0,2.9-.74,2.33,2.33,0,0,0,1-2,2.38,2.38,0,0,0-.87-1.89,8.18,8.18,0,0,0-3.29-1.28,13.7,13.7,0,0,1-5.22-2.06,4.11,4.11,0,0,1-1.76-3.51,5,5,0,0,1,2-4,7.78,7.78,0,0,1,5.14-1.63,12.62,12.62,0,0,1,3.88.56,8.14,8.14,0,0,1,2.87,1.57Z"/><path d="M647.32,355.22c-.11-.52-.19-1-.25-1.39s-.1-.82-.12-1.23a8.38,8.38,0,0,1-2.5,2.14,6.43,6.43,0,0,1-3.21.85,6.36,6.36,0,0,1-4.52-1.45,5.34,5.34,0,0,1-1.55-4.09,4.73,4.73,0,0,1,2.19-4.17,10.65,10.65,0,0,1,6-1.47h3.57V342.2a3.44,3.44,0,0,0-1-2.65,4.16,4.16,0,0,0-2.94-1,7.26,7.26,0,0,0-2.29.34,4.38,4.38,0,0,0-1.61.91l-.37,2H636v-3.7a10.45,10.45,0,0,1,3.15-1.66,12.56,12.56,0,0,1,4-.62,8,8,0,0,1,5.24,1.65,5.77,5.77,0,0,1,2,4.73v9.88c0,.23,0,.47.05.7l1.41.2v2.21Zm-5.57-2.53a6.14,6.14,0,0,0,3.14-.83,5.13,5.13,0,0,0,2-2v-3.13h-3.69a5.27,5.27,0,0,0-3.36,1,3,3,0,0,0-1.24,2.39,2.36,2.36,0,0,0,.77,1.91A3.53,3.53,0,0,0,641.75,352.69Z"/><path d="M654.05,353l2.87-.5V338.93l-2.87-.5V336.2h6l.23,2.48a6.22,6.22,0,0,1,2.35-2.09,7.27,7.27,0,0,1,3.34-.74,5.82,5.82,0,0,1,3.26.88,5.29,5.29,0,0,1,2,2.63,7.13,7.13,0,0,1,2.37-2.56,6.29,6.29,0,0,1,3.45-.95,5.73,5.73,0,0,1,4.61,2c1.12,1.33,1.68,3.34,1.68,6v8.66l2.87.5v2.21H677V353l2.86-.5v-8.7a6.36,6.36,0,0,0-1-4,3.51,3.51,0,0,0-2.87-1.17,3.65,3.65,0,0,0-2.91,1.28,5.51,5.51,0,0,0-1.27,3.2v9.37l2.86.5v2.21h-9.19V353l2.86-.5v-8.7a6.26,6.26,0,0,0-1-3.91,3.45,3.45,0,0,0-2.87-1.24,4.81,4.81,0,0,0-2.61.65,4.31,4.31,0,0,0-1.56,1.83v11.37l2.87.5v2.21h-9.2Z"/><path d="M697.26,355.59a8,8,0,0,1-6.32-2.65,10,10,0,0,1-2.35-6.86v-.77a9.76,9.76,0,0,1,2.42-6.76,7.44,7.44,0,0,1,5.72-2.7,7.2,7.2,0,0,1,5.81,2.32,9.22,9.22,0,0,1,2,6.19v2.16H692.18l0,.09a7.43,7.43,0,0,0,1.39,4.51,4.42,4.42,0,0,0,3.74,1.76,8.54,8.54,0,0,0,3.08-.5,7,7,0,0,0,2.3-1.38l1.35,2.25a8.23,8.23,0,0,1-2.7,1.66A10.79,10.79,0,0,1,697.26,355.59Zm-.53-17a3.75,3.75,0,0,0-3,1.47,7,7,0,0,0-1.51,3.68l0,.09h8.78v-.45A5.34,5.34,0,0,0,700,340,3.89,3.89,0,0,0,696.73,338.57Z"/><path d="M707.42,353l2.86-.5V338.93l-2.86-.5V336.2h6l.24,2.83a7,7,0,0,1,2.39-2.35,6.4,6.4,0,0,1,3.26-.83,6.2,6.2,0,0,1,4.76,1.8c1.13,1.2,1.69,3.06,1.69,5.56v9.3l2.86.5v2.21h-9.19V353l2.87-.5v-9.23a5.13,5.13,0,0,0-1-3.56,4,4,0,0,0-3-1.06,4.9,4.9,0,0,0-2.65.72,5.27,5.27,0,0,0-1.83,2v11.16l2.86.5v2.21h-9.19Z"/><path d="M737.14,331.61v4.59h3.61v2.57h-3.61v11.55a2.59,2.59,0,0,0,.56,1.88,2,2,0,0,0,1.47.54,6.5,6.5,0,0,0,1-.08c.38-.05.7-.11,1-.16l.48,2.37a4.59,4.59,0,0,1-1.45.52,9.34,9.34,0,0,1-1.89.2,4.52,4.52,0,0,1-3.36-1.27,5.56,5.56,0,0,1-1.25-4V338.77h-3V336.2h3v-4.59Z"/><path d="M744,345.53a10.5,10.5,0,0,1,2.28-6.95,8.46,8.46,0,0,1,12.44,0,10.44,10.44,0,0,1,2.29,7v.39a10.42,10.42,0,0,1-2.28,7,8.49,8.49,0,0,1-12.45,0,10.43,10.43,0,0,1-2.28-6.95Zm3.46.39a9,9,0,0,0,1.27,5,4.59,4.59,0,0,0,7.54,0,9,9,0,0,0,1.28-5v-.39a9,9,0,0,0-1.28-5,4.24,4.24,0,0,0-3.78-2,4.17,4.17,0,0,0-3.76,2,9,9,0,0,0-1.27,5Z"/><path d="M792.6,337.48h-2.44l-.65-3.62a6.56,6.56,0,0,0-2.08-1.35,7.41,7.41,0,0,0-2.93-.53,7.21,7.21,0,0,0-6.14,2.89,12,12,0,0,0-2.14,7.34v.41a12.24,12.24,0,0,0,2.1,7.35,6.78,6.78,0,0,0,5.83,2.91,8.84,8.84,0,0,0,3.16-.54,6.16,6.16,0,0,0,2.2-1.34l.65-3.62h2.44v4.55a9.5,9.5,0,0,1-3.32,2.54,11.2,11.2,0,0,1-5.13,1.12A10.34,10.34,0,0,1,776,351.9a13.64,13.64,0,0,1-3.2-9.28v-.37a13.87,13.87,0,0,1,3.14-9.31,10.35,10.35,0,0,1,8.25-3.68,11.2,11.2,0,0,1,5.13,1.13,9.87,9.87,0,0,1,3.32,2.54Z"/><path d="M796.31,345.53a10.45,10.45,0,0,1,2.29-6.95,8.45,8.45,0,0,1,12.43,0,10.45,10.45,0,0,1,2.3,7v.39a10.37,10.37,0,0,1-2.29,7,8.48,8.48,0,0,1-12.44,0,10.38,10.38,0,0,1-2.29-6.95Zm3.46.39a9,9,0,0,0,1.28,5,4.58,4.58,0,0,0,7.53,0,8.91,8.91,0,0,0,1.28-5v-.39a8.93,8.93,0,0,0-1.28-5,4.57,4.57,0,0,0-7.54,0,9.1,9.1,0,0,0-1.27,5Z"/><path d="M815.81,353l2.86-.5V338.93l-2.86-.5V336.2h6l.23,2.48a6.25,6.25,0,0,1,2.36-2.09,7.24,7.24,0,0,1,3.34-.74,5.87,5.87,0,0,1,3.26.88,5.22,5.22,0,0,1,2,2.63,7.07,7.07,0,0,1,2.38-2.56,6.23,6.23,0,0,1,3.44-.95,5.72,5.72,0,0,1,4.61,2c1.12,1.33,1.69,3.34,1.69,6v8.66l2.86.5v2.21h-9.21V353l2.87-.5v-8.7a6.36,6.36,0,0,0-1-4,3.51,3.51,0,0,0-2.87-1.17,3.68,3.68,0,0,0-2.91,1.28,5.57,5.57,0,0,0-1.27,3.2v9.37l2.87.5v2.21h-9.2V353l2.87-.5v-8.7a6.19,6.19,0,0,0-1-3.91,3.45,3.45,0,0,0-2.87-1.24,4.8,4.8,0,0,0-2.6.65,4.33,4.33,0,0,0-1.57,1.83v11.37l2.87.5v2.21h-9.19Z"/><path d="M850.08,360.3l2.87-.49V338.93l-2.87-.5V336.2h5.84l.32,2.32a6.37,6.37,0,0,1,2.31-2,7,7,0,0,1,3.15-.68,6.33,6.33,0,0,1,5.5,2.8,12.74,12.74,0,0,1,2,7.41v.37a10.51,10.51,0,0,1-2,6.64,6.53,6.53,0,0,1-5.43,2.52,7.57,7.57,0,0,1-3.09-.59,5.91,5.91,0,0,1-2.26-1.75v6.56l2.87.49v2.23h-9.2Zm15.6-14.24a10.1,10.1,0,0,0-1.27-5.32,4.12,4.12,0,0,0-3.76-2.08,4.57,4.57,0,0,0-2.53.67,4.94,4.94,0,0,0-1.71,1.83v9.26a4.53,4.53,0,0,0,4.27,2.46,4.28,4.28,0,0,0,3.73-1.79,8,8,0,0,0,1.27-4.66Z"/><path d="M885.91,352.41a6.19,6.19,0,0,1-5.57,3.18,6.08,6.08,0,0,1-4.84-2q-1.74-2-1.74-6.18v-8.49l-2.18-.5V336.2h5.64v11.25c0,2,.3,3.42.9,4.18a3.32,3.32,0,0,0,2.8,1.15A5.7,5.7,0,0,0,884,352a4.65,4.65,0,0,0,1.81-2.12v-11l-2.54-.5V336.2h6v16.31l2.18.5v2.21h-5.29Z"/><path d="M900.22,331.61v4.59h3.6v2.57h-3.6v11.55a2.59,2.59,0,0,0,.55,1.88,2,2,0,0,0,1.47.54,6.62,6.62,0,0,0,1-.08c.38-.05.7-.11,1-.16l.48,2.37a4.62,4.62,0,0,1-1.44.52,9.51,9.51,0,0,1-1.9.2,4.52,4.52,0,0,1-3.36-1.27,5.56,5.56,0,0,1-1.25-4V338.77h-3V336.2h3v-4.59Z"/><path d="M919.76,355.22c-.1-.52-.18-1-.24-1.39s-.1-.82-.13-1.23a8.26,8.26,0,0,1-2.5,2.14,7.19,7.19,0,0,1-7.73-.6,5.34,5.34,0,0,1-1.54-4.09,4.74,4.74,0,0,1,2.18-4.17,10.66,10.66,0,0,1,6-1.47h3.57V342.2a3.44,3.44,0,0,0-1.06-2.65,4.15,4.15,0,0,0-2.93-1,7.28,7.28,0,0,0-2.3.34,4.38,4.38,0,0,0-1.61.91l-.37,2h-2.67v-3.7a10.45,10.45,0,0,1,3.15-1.66,12.62,12.62,0,0,1,4-.62,8,8,0,0,1,5.24,1.65,5.8,5.8,0,0,1,2,4.73v9.16c0,.24,0,.48,0,.72s0,.47,0,.7l1.41.2v2.21Zm-5.57-2.53a6.18,6.18,0,0,0,3.15-.83,5.13,5.13,0,0,0,2-2v-3.13h-3.7a5.29,5.29,0,0,0-3.36,1,3,3,0,0,0-1.24,2.39,2.39,2.39,0,0,0,.77,1.91A3.55,3.55,0,0,0,914.19,352.69Z"/><path d="M935.72,352.88a4.69,4.69,0,0,0,3-1.06,3.26,3.26,0,0,0,1.31-2.61h3.11l0,.1a5.33,5.33,0,0,1-2.19,4.37,8,8,0,0,1-5.3,1.91,7.65,7.65,0,0,1-6.33-2.71,10.45,10.45,0,0,1-2.19-6.8v-.74a10.37,10.37,0,0,1,2.2-6.77,7.63,7.63,0,0,1,6.32-2.72,10.49,10.49,0,0,1,4.11.76,8.17,8.17,0,0,1,3,2.07l.16,4.22h-2.76l-.75-3a4.61,4.61,0,0,0-1.59-1,6.19,6.19,0,0,0-2.18-.37,4.19,4.19,0,0,0-3.89,2,9.24,9.24,0,0,0-1.17,4.81v.74a9.35,9.35,0,0,0,1.16,4.86A4.17,4.17,0,0,0,935.72,352.88Z"/><path d="M946.59,353l2.86-.5V338.93l-2.86-.5V336.2h6.33v16.31l2.86.5v2.21h-9.19Zm6.33-21.68h-3.47V327.8h3.47Z"/><path d="M958.43,345.53a10.5,10.5,0,0,1,2.29-6.95,8.46,8.46,0,0,1,12.44,0,10.44,10.44,0,0,1,2.29,7v.39a10.42,10.42,0,0,1-2.28,7,8.49,8.49,0,0,1-12.45,0,10.43,10.43,0,0,1-2.29-6.95Zm3.47.39a9,9,0,0,0,1.27,5,4.58,4.58,0,0,0,7.53,0,8.91,8.91,0,0,0,1.29-5v-.39a8.94,8.94,0,0,0-1.29-5,4.57,4.57,0,0,0-7.54,0,9.1,9.1,0,0,0-1.26,5Z"/><path d="M978.1,353l2.87-.5V338.93l-2.87-.5V336.2h6l.25,2.83a6.94,6.94,0,0,1,2.38-2.35,6.42,6.42,0,0,1,3.26-.83,6.23,6.23,0,0,1,4.77,1.8c1.12,1.2,1.68,3.06,1.68,5.56v9.3l2.87.5v2.21h-9.19V353l2.86-.5v-9.23a5.14,5.14,0,0,0-1-3.56,4,4,0,0,0-3-1.06,4.9,4.9,0,0,0-2.65.72,5.29,5.29,0,0,0-1.84,2v11.16l2.87.5v2.21h-9.2Z"/><path d="M1014.19,355.22c-.1-.52-.18-1-.24-1.39s-.1-.82-.13-1.23a8.26,8.26,0,0,1-2.5,2.14,7.19,7.19,0,0,1-7.73-.6,5.34,5.34,0,0,1-1.54-4.09,4.74,4.74,0,0,1,2.18-4.17,10.66,10.66,0,0,1,6-1.47h3.57V342.2a3.44,3.44,0,0,0-1.06-2.65,4.15,4.15,0,0,0-2.93-1,7.28,7.28,0,0,0-2.3.34,4.38,4.38,0,0,0-1.61.91l-.37,2h-2.67v-3.7a10.45,10.45,0,0,1,3.15-1.66,12.62,12.62,0,0,1,4-.62,8,8,0,0,1,5.23,1.65,5.77,5.77,0,0,1,2,4.73v9.16c0,.24,0,.48,0,.72s0,.47,0,.7l1.41.2v2.21Zm-5.57-2.53a6.18,6.18,0,0,0,3.15-.83,5.13,5.13,0,0,0,2-2v-3.13h-3.7a5.29,5.29,0,0,0-3.36,1,3,3,0,0,0-1.24,2.39,2.39,2.39,0,0,0,.77,1.91A3.55,3.55,0,0,0,1008.62,352.69Z"/><path d="M1021.14,330V327.8h6.32v24.71l2.87.5v2.21h-9.19V353l2.86-.5v-22Z"/><path d="M1036.15,354.38a8,8,0,0,1-.66,3.16,7.65,7.65,0,0,1-1.8,2.62l-1.25-.91a9.24,9.24,0,0,0,1.22-2.31,7.76,7.76,0,0,0,.4-2.53v-2.49h2.09Z"/><path d="M551,381V379.4h4.63l.26,3a6.66,6.66,0,0,1,6-3.3,6.21,6.21,0,0,1,5.36,2.73,12.39,12.39,0,0,1,1.93,7.29v.37a11,11,0,0,1-1.93,6.81,6.34,6.34,0,0,1-5.33,2.54,7.79,7.79,0,0,1-3.51-.76,6.43,6.43,0,0,1-2.45-2.18v8.09l2.87.23v1.56H551v-1.56l2.87-.23V381.19Zm16.07,8.1a11,11,0,0,0-1.44-5.91,4.69,4.69,0,0,0-4.22-2.28,5.48,5.48,0,0,0-3.45,1,6.19,6.19,0,0,0-2,2.63v9.14a5.83,5.83,0,0,0,2.08,2.46,6.07,6.07,0,0,0,3.41.89,4.78,4.78,0,0,0,4.19-2.07,9.55,9.55,0,0,0,1.43-5.5Z"/><path d="M585.71,398.42c-.14-.64-.24-1.2-.3-1.67a11.16,11.16,0,0,1-.09-1.42,8.48,8.48,0,0,1-2.81,2.48,8,8,0,0,1-4,1,6.06,6.06,0,0,1-4.32-1.44,5.1,5.1,0,0,1-1.53-3.9,4.83,4.83,0,0,1,2.27-4.19,10.77,10.77,0,0,1,6.15-1.54h4.2V385.2A4,4,0,0,0,584,382a5.34,5.34,0,0,0-3.66-1.16,9.38,9.38,0,0,0-2.89.43,6.51,6.51,0,0,0-2.19,1.17l-.18,2.55h-1.74l0-3.66a11.17,11.17,0,0,1,3.15-1.65,12,12,0,0,1,3.92-.63,7.63,7.63,0,0,1,5.06,1.6,5.66,5.66,0,0,1,1.91,4.59v9.35q0,.59,0,1.11c0,.36.06.71.11,1.05l1.9.12v1.55Zm-6.93-1.49a7.64,7.64,0,0,0,4-1.06,6.18,6.18,0,0,0,2.51-2.72v-3.82h-4.23a7.91,7.91,0,0,0-4.58,1.19,3.52,3.52,0,0,0-1.72,3,3.14,3.14,0,0,0,1.07,2.47A4.27,4.27,0,0,0,578.78,396.93Z"/><path d="M597,379.4l.27,3.17v.22a6.74,6.74,0,0,1,2.2-2.75,5.62,5.62,0,0,1,3.32-1,4.93,4.93,0,0,1,.78.06c.25,0,.46.09.62.13l-.28,2-1.56-.1a4.77,4.77,0,0,0-3.26,1.11,6.17,6.17,0,0,0-1.82,3.07v11.36l2.86.22v1.55H592.3v-1.55l2.87-.22V381.19L592.3,381V379.4H597Z"/><path d="M620,398.42c-.14-.64-.24-1.2-.3-1.67a11.16,11.16,0,0,1-.09-1.42,8.48,8.48,0,0,1-2.81,2.48,8,8,0,0,1-4,1,6.06,6.06,0,0,1-4.32-1.44,5.1,5.1,0,0,1-1.53-3.9,4.83,4.83,0,0,1,2.27-4.19,10.77,10.77,0,0,1,6.15-1.54h4.2V385.2a4,4,0,0,0-1.31-3.2,5.34,5.34,0,0,0-3.66-1.16,9.38,9.38,0,0,0-2.89.43,6.51,6.51,0,0,0-2.19,1.17l-.18,2.55h-1.74l0-3.66a11.17,11.17,0,0,1,3.15-1.65,12,12,0,0,1,3.92-.63,7.63,7.63,0,0,1,5.06,1.6,5.63,5.63,0,0,1,1.91,4.59v9.35q0,.59,0,1.11c0,.36.06.71.11,1.05l1.9.12v1.55Zm-6.93-1.49a7.64,7.64,0,0,0,4-1.06,6.18,6.18,0,0,0,2.51-2.72v-3.82h-4.23a7.91,7.91,0,0,0-4.58,1.19,3.52,3.52,0,0,0-1.72,3,3.14,3.14,0,0,0,1.07,2.47A4.29,4.29,0,0,0,613.11,396.93Z"/><path d="M635.52,388.63a10.2,10.2,0,0,1,2.31-6.89,8.27,8.27,0,0,1,12.21,0,10.2,10.2,0,0,1,2.31,6.89v.58a10.25,10.25,0,0,1-2.3,6.9,8.3,8.3,0,0,1-12.22,0,10.2,10.2,0,0,1-2.31-6.9Zm2.11.58a9.07,9.07,0,0,0,1.67,5.55,5.9,5.9,0,0,0,9.27,0,9.07,9.07,0,0,0,1.67-5.55v-.58a9,9,0,0,0-1.68-5.52,5.86,5.86,0,0,0-9.26,0,9.07,9.07,0,0,0-1.67,5.52Z"/><path d="M669.36,374.53v4.87h4.19v1.72h-4.19v12.4a4,4,0,0,0,.68,2.64,2.26,2.26,0,0,0,1.8.78c.34,0,.67,0,1,0s.7-.08,1.12-.15l.32,1.57a6,6,0,0,1-1.29.35,9.51,9.51,0,0,1-1.51.12,3.94,3.94,0,0,1-3.12-1.27,6,6,0,0,1-1.11-4v-12.4H664V379.4h3.27v-4.87Z"/><path d="M682,379.4l.26,3.17v.22a6.68,6.68,0,0,1,2.21-2.75,5.56,5.56,0,0,1,3.31-1,4.93,4.93,0,0,1,.78.06c.25,0,.46.09.63.13l-.29,2-1.56-.1a4.79,4.79,0,0,0-3.26,1.11,6.17,6.17,0,0,0-1.82,3.07v11.36l2.87.22v1.55h-7.83v-1.55l2.87-.22V381.19l-2.87-.22V379.4H682Z"/><path d="M705,398.42c-.14-.64-.24-1.2-.3-1.67a11.16,11.16,0,0,1-.09-1.42,8.48,8.48,0,0,1-2.81,2.48,8,8,0,0,1-3.95,1,6.07,6.07,0,0,1-4.33-1.44,5.1,5.1,0,0,1-1.53-3.9,4.83,4.83,0,0,1,2.27-4.19,10.77,10.77,0,0,1,6.15-1.54h4.2V385.2a4,4,0,0,0-1.31-3.2,5.34,5.34,0,0,0-3.66-1.16,9.42,9.42,0,0,0-2.89.43,6.71,6.71,0,0,0-2.19,1.17l-.18,2.55h-1.74l0-3.66a11.1,11.1,0,0,1,3.16-1.65,12,12,0,0,1,3.91-.63,7.62,7.62,0,0,1,5.06,1.6,5.63,5.63,0,0,1,1.92,4.59v9.35c0,.39,0,.76,0,1.11a8.87,8.87,0,0,0,.12,1.05l1.9.12v1.55Zm-6.92-1.49a7.63,7.63,0,0,0,4-1.06,6.18,6.18,0,0,0,2.51-2.72v-3.82h-4.23a7.91,7.91,0,0,0-4.58,1.19,3.54,3.54,0,0,0-1.71,3,3.14,3.14,0,0,0,1.06,2.47A4.3,4.3,0,0,0,698.09,396.93Z"/><path d="M728.09,389.44a11,11,0,0,1-1.93,6.81,6.34,6.34,0,0,1-5.33,2.54,7.31,7.31,0,0,1-3.6-.84,6.45,6.45,0,0,1-2.45-2.39l-.22,2.86h-1.8V372.79l-2.86-.23V371h5v11.39a6.94,6.94,0,0,1,2.43-2.47,6.81,6.81,0,0,1,3.52-.87,6.21,6.21,0,0,1,5.36,2.73,12.39,12.39,0,0,1,1.93,7.29Zm-2.13-.37a11.11,11.11,0,0,0-1.4-5.92,4.59,4.59,0,0,0-4.15-2.27,5.46,5.46,0,0,0-3.56,1.09,6.52,6.52,0,0,0-2,2.79v8.6a5.7,5.7,0,0,0,5.59,3.6,4.69,4.69,0,0,0,4.14-2,9.62,9.62,0,0,0,1.38-5.48Z"/><path d="M744.79,398.42c-.14-.64-.24-1.2-.3-1.67a11.16,11.16,0,0,1-.09-1.42,8.48,8.48,0,0,1-2.81,2.48,8,8,0,0,1-4,1,6.07,6.07,0,0,1-4.33-1.44,5.1,5.1,0,0,1-1.53-3.9,4.83,4.83,0,0,1,2.27-4.19,10.77,10.77,0,0,1,6.15-1.54h4.2V385.2a4,4,0,0,0-1.31-3.2,5.34,5.34,0,0,0-3.66-1.16,9.38,9.38,0,0,0-2.89.43,6.51,6.51,0,0,0-2.19,1.17l-.18,2.55h-1.74l0-3.66a11.1,11.1,0,0,1,3.16-1.65,11.92,11.92,0,0,1,3.91-.63,7.63,7.63,0,0,1,5.06,1.6,5.63,5.63,0,0,1,1.92,4.59v9.35c0,.39,0,.76,0,1.11a8.87,8.87,0,0,0,.12,1.05l1.89.12v1.55Zm-6.93-1.49a7.64,7.64,0,0,0,4-1.06,6.18,6.18,0,0,0,2.51-2.72v-3.82h-4.23a7.91,7.91,0,0,0-4.58,1.19,3.55,3.55,0,0,0-1.72,3,3.14,3.14,0,0,0,1.07,2.47A4.29,4.29,0,0,0,737.86,396.93Z"/><path d="M751.1,372.56V371h5v25.65l2.86.22v1.55H751.1v-1.55l2.87-.22V372.79Z"/><path d="M761.63,372.56V371h5v11.65a6.94,6.94,0,0,1,2.53-2.65,7,7,0,0,1,3.69-.95,5.76,5.76,0,0,1,4.61,1.86c1.08,1.25,1.61,3.17,1.61,5.79v9.95l2.87.22v1.55h-7.84v-1.55l2.86-.22v-10c0-2.06-.4-3.54-1.22-4.44a4.33,4.33,0,0,0-3.36-1.34,5.73,5.73,0,0,0-3.62,1.13,6.59,6.59,0,0,0-2.13,3v11.62l2.86.22v1.55h-7.82v-1.55l2.87-.22V372.79Z"/><path d="M784.89,388.63a10.19,10.19,0,0,1,2.3-6.89,8.28,8.28,0,0,1,12.22,0,10.24,10.24,0,0,1,2.3,6.89v.58a10.25,10.25,0,0,1-2.3,6.9,8.3,8.3,0,0,1-12.22,0,10.2,10.2,0,0,1-2.3-6.9Zm2.11.58a9,9,0,0,0,1.67,5.55,5.89,5.89,0,0,0,9.26,0,9.07,9.07,0,0,0,1.67-5.55v-.58a9,9,0,0,0-1.68-5.52,5.85,5.85,0,0,0-9.25,0,9,9,0,0,0-1.67,5.52Z"/><path d="M822,397a6,6,0,0,0,3.69-1.19,3.91,3.91,0,0,0,1.6-3.32h1.87l0,.1a5.21,5.21,0,0,1-2.1,4.41,7.82,7.82,0,0,1-5.09,1.78,7.23,7.23,0,0,1-6-2.66,10.64,10.64,0,0,1-2.13-6.85v-.74a10.61,10.61,0,0,1,2.13-6.82,7.19,7.19,0,0,1,6-2.67,9.53,9.53,0,0,1,4,.83,7.86,7.86,0,0,1,3,2.25l.09,4.14h-1.8L827,382.9a6,6,0,0,0-2.1-1.5,7,7,0,0,0-2.86-.56,5.06,5.06,0,0,0-4.52,2.19,9.69,9.69,0,0,0-1.47,5.51v.74a9.79,9.79,0,0,0,1.46,5.55A5.07,5.07,0,0,0,822,397Z"/><path d="M833.12,388.63a10.24,10.24,0,0,1,2.3-6.89,8.28,8.28,0,0,1,12.22,0,10.19,10.19,0,0,1,2.3,6.89v.58a10.24,10.24,0,0,1-2.29,6.9,8.32,8.32,0,0,1-12.23,0,10.25,10.25,0,0,1-2.3-6.9Zm2.11.58a9.07,9.07,0,0,0,1.67,5.55,5.47,5.47,0,0,0,4.66,2.25,5.41,5.41,0,0,0,4.6-2.25,9,9,0,0,0,1.67-5.55v-.58a9,9,0,0,0-1.68-5.52,5.85,5.85,0,0,0-9.25,0,9.07,9.07,0,0,0-1.67,5.52Z"/><path d="M852.91,381V379.4h4.73l.2,3.15a6.56,6.56,0,0,1,2.44-2.59,7,7,0,0,1,3.64-.91,6,6,0,0,1,3.64,1.06,5.87,5.87,0,0,1,2.09,3.25,7.37,7.37,0,0,1,2.45-3.16,6.41,6.41,0,0,1,3.88-1.15,5.74,5.74,0,0,1,4.7,2c1.11,1.35,1.66,3.43,1.66,6.26v9.3l2.86.24v1.55h-7.85v-1.55l2.86-.24v-9.34c0-2.34-.41-4-1.24-5a4.27,4.27,0,0,0-3.45-1.45,4.71,4.71,0,0,0-3.79,1.56,7.59,7.59,0,0,0-1.64,4,2.35,2.35,0,0,0,0,.27v9.95l2.87.22v1.55h-7.84v-1.55l2.87-.22v-9.36c0-2.29-.42-3.94-1.26-4.93a4.29,4.29,0,0,0-3.46-1.48,5.3,5.3,0,0,0-3.56,1.13,6,6,0,0,0-1.83,3.05v11.59l2.86.22v1.55h-7.84v-1.55l2.87-.22V381.19Z"/><path d="M910.36,385.27h-1.72l-.25-2.69a5.26,5.26,0,0,0-2-1.28,7.61,7.61,0,0,0-2.76-.46,5.14,5.14,0,0,0-3.46,1,3,3,0,0,0-1.15,2.32,2.76,2.76,0,0,0,1,2.18,9.75,9.75,0,0,0,4,1.52,13,13,0,0,1,5.08,2.06,4.28,4.28,0,0,1,1.69,3.56,4.62,4.62,0,0,1-1.93,3.84,8.16,8.16,0,0,1-5.09,1.47,12,12,0,0,1-3.84-.59,9.29,9.29,0,0,1-3-1.66v-3.83h1.71l.3,2.7a4.89,4.89,0,0,0,2.13,1.23,9.62,9.62,0,0,0,2.7.37,5.82,5.82,0,0,0,3.61-1,3,3,0,0,0,1.31-2.42,3.06,3.06,0,0,0-1.1-2.34,9,9,0,0,0-4-1.64,13.29,13.29,0,0,1-5-2,4,4,0,0,1-1.64-3.41,4.59,4.59,0,0,1,1.85-3.69,7.48,7.48,0,0,1,4.87-1.5,10.86,10.86,0,0,1,3.82.64,7.89,7.89,0,0,1,2.82,1.73Z"/><path d="M923,398.79a7.64,7.64,0,0,1-5.94-2.63,9.64,9.64,0,0,1-2.35-6.69v-1a9.94,9.94,0,0,1,2.34-6.77,7.29,7.29,0,0,1,5.67-2.69,7.05,7.05,0,0,1,5.5,2.21,8.47,8.47,0,0,1,2,5.91V389H916.76v.51a8.38,8.38,0,0,0,1.71,5.37A5.44,5.44,0,0,0,923,397a9.2,9.2,0,0,0,3.34-.54,6.7,6.7,0,0,0,2.38-1.56l.89,1.44a7.57,7.57,0,0,1-2.71,1.78A10.4,10.4,0,0,1,923,398.79Zm-.28-18a5,5,0,0,0-3.91,1.79,7.61,7.61,0,0,0-1.85,4.47l0,.09h11.14v-.53a6.11,6.11,0,0,0-1.45-4.15A5,5,0,0,0,922.68,380.84Z"/><path d="M947.92,395.29a6.38,6.38,0,0,1-2.45,2.59,7.1,7.1,0,0,1-3.66.91,5.79,5.79,0,0,1-4.71-2q-1.7-2-1.69-6.33v-9.23l-2.36-.22V379.4h4.45v11.06c0,2.32.39,4,1.19,5a4,4,0,0,0,3.36,1.51,6.26,6.26,0,0,0,3.81-1,5.61,5.61,0,0,0,2-2.92v-11.8l-2.7-.22V379.4H950v17.25l2.55.22v1.55h-4.39Z"/><path d="M969.4,385.27h-1.72l-.25-2.69a5.22,5.22,0,0,0-2-1.28,7.66,7.66,0,0,0-2.77-.46,5.11,5.11,0,0,0-3.45,1,3,3,0,0,0-1.15,2.32,2.76,2.76,0,0,0,1,2.18,9.62,9.62,0,0,0,4,1.52,12.93,12.93,0,0,1,5.08,2.06,4.25,4.25,0,0,1,1.69,3.56,4.61,4.61,0,0,1-1.92,3.84,8.18,8.18,0,0,1-5.09,1.47,11.9,11.9,0,0,1-3.84-.59,9.08,9.08,0,0,1-3-1.66v-3.83h1.7l.3,2.7a5,5,0,0,0,2.14,1.23,9.62,9.62,0,0,0,2.7.37,5.81,5.81,0,0,0,3.6-1,3,3,0,0,0,1.32-2.42,3.09,3.09,0,0,0-1.1-2.34,9,9,0,0,0-4-1.64,13.22,13.22,0,0,1-5-2,4,4,0,0,1-1.64-3.41,4.58,4.58,0,0,1,1.84-3.69,7.49,7.49,0,0,1,4.87-1.5,10.82,10.82,0,0,1,3.82.64,7.84,7.84,0,0,1,2.83,1.73Z"/><path d="M564.67,441.62c-.14-.64-.24-1.2-.3-1.67a11.16,11.16,0,0,1-.09-1.42,8.48,8.48,0,0,1-2.81,2.48,8,8,0,0,1-4,1,6.06,6.06,0,0,1-4.32-1.44,5.1,5.1,0,0,1-1.53-3.9,4.83,4.83,0,0,1,2.27-4.19,10.77,10.77,0,0,1,6.15-1.54h4.2V428.4a4.07,4.07,0,0,0-1.31-3.2,5.34,5.34,0,0,0-3.66-1.16,9.49,9.49,0,0,0-2.9.43,6.55,6.55,0,0,0-2.18,1.17l-.18,2.55h-1.74l0-3.66a11.17,11.17,0,0,1,3.15-1.65,12,12,0,0,1,3.91-.63,7.64,7.64,0,0,1,5.07,1.6,5.67,5.67,0,0,1,1.91,4.59v9.35c0,.39,0,.76,0,1.12a8.94,8.94,0,0,0,.11,1l1.9.12v1.55Zm-6.93-1.49a7.55,7.55,0,0,0,4-1.06,6.18,6.18,0,0,0,2.51-2.72v-3.82H560a7.88,7.88,0,0,0-4.57,1.19,3.52,3.52,0,0,0-1.72,3,3.17,3.17,0,0,0,1.06,2.47A4.31,4.31,0,0,0,557.74,440.13Z"/><path d="M571,415.76V414.2h5v25.65l2.86.22v1.55H571v-1.55l2.86-.22V416Z"/><path d="M596.1,438.49a6.51,6.51,0,0,1-2.45,2.59A7.11,7.11,0,0,1,590,442a5.78,5.78,0,0,1-4.7-2q-1.69-2-1.7-6.33v-9.23l-2.35-.22V422.6h4.44v11.06q0,3.48,1.19,5a4,4,0,0,0,3.37,1.51,6.23,6.23,0,0,0,3.8-1.05,5.62,5.62,0,0,0,2-2.92v-11.8l-2.71-.22V422.6h4.82v17.25l2.55.22v1.55h-4.4Z"/><path d="M603.39,440.07l2.87-.22V424.39l-2.87-.22V422.6h4.73l.19,3.32a6.57,6.57,0,0,1,6.16-3.67,5.86,5.86,0,0,1,4.71,1.89c1.08,1.26,1.61,3.22,1.61,5.9v9.81l2.87.22v1.55h-7.84v-1.55l2.87-.22v-9.8q0-3.27-1.23-4.62a4.43,4.43,0,0,0-3.47-1.35,5.44,5.44,0,0,0-3.61,1.17,6.5,6.5,0,0,0-2,3.1v11.5l2.86.22v1.55h-7.84Z"/><path d="M626.79,431.83a10.24,10.24,0,0,1,2.3-6.89,8.28,8.28,0,0,1,12.22,0,10.24,10.24,0,0,1,2.3,6.89v.58a10.24,10.24,0,0,1-2.29,6.9,8.32,8.32,0,0,1-12.23,0,10.25,10.25,0,0,1-2.3-6.9Zm2.11.58a9,9,0,0,0,1.67,5.55,5.89,5.89,0,0,0,9.26,0,9.07,9.07,0,0,0,1.67-5.55v-.58a9,9,0,0,0-1.68-5.52,5.85,5.85,0,0,0-9.25,0,9,9,0,0,0-1.67,5.52Z"/><path d="M660.84,428.47h-1.73l-.24-2.69a5.26,5.26,0,0,0-2-1.28,7.83,7.83,0,0,0-2.76-.46,5.14,5.14,0,0,0-3.46,1,3,3,0,0,0-1.15,2.32,2.76,2.76,0,0,0,1,2.18,9.68,9.68,0,0,0,4,1.52,13,13,0,0,1,5.08,2.06,4.27,4.27,0,0,1,1.68,3.56,4.61,4.61,0,0,1-1.92,3.84,8.16,8.16,0,0,1-5.09,1.47,11.9,11.9,0,0,1-3.84-.59,9.29,9.29,0,0,1-3-1.66v-3.83h1.71l.3,2.7a4.89,4.89,0,0,0,2.13,1.23,9.62,9.62,0,0,0,2.7.37,5.79,5.79,0,0,0,3.6-1,3,3,0,0,0,1.32-2.42,3.06,3.06,0,0,0-1.1-2.34,9,9,0,0,0-4-1.64,13.29,13.29,0,0,1-5-2,4,4,0,0,1-1.64-3.41,4.59,4.59,0,0,1,1.85-3.69,7.48,7.48,0,0,1,4.87-1.5,10.9,10.9,0,0,1,3.82.64,7.89,7.89,0,0,1,2.82,1.73Z"/><path d="M668.36,441.62h-2.5v-2.93h2.5Zm-.21-8.4h-2.09V416h2.09Z"/></g></svg>