<svg xmlns="http://www.w3.org/2000/svg" xmlns:xlink="http://www.w3.org/1999/xlink" viewBox="0 0 1124.64 651.26"><defs><style>.cls-1{fill:none;}.cls-2{fill:#dd7a7a;}.cls-3{fill:#c6b366;}.cls-4{clip-path:url(#clip-path);}.cls-5{fill:#e5d388;}.cls-6{fill:#e5d389;}.cls-7{fill:#e5d48a;}.cls-8{fill:#e6d48b;}.cls-9{fill:#e6d48c;}.cls-10{fill:#e6d58d;}.cls-11{fill:#e6d58e;}.cls-12{fill:#e7d68f;}.cls-13{fill:#e7d690;}.cls-14{fill:#e7d691;}.cls-15{fill:#e7d792;}.cls-16{fill:#e7d793;}.cls-17{fill:#e8d794;}.cls-18{fill:#e8d895;}.cls-19{fill:#e8d896;}.cls-20{fill:#e8d997;}.cls-21{fill:#e9d998;}.cls-22{fill:#e9d999;}.cls-23{fill:#e9da9a;}.cls-24{fill:#e9da9b;}.cls-25{fill:#e9da9c;}.cls-26{fill:#eadb9d;}.cls-27{fill:#eadb9e;}.cls-28{fill:#eadc9f;}.cls-29{fill:#eadca0;}.cls-30{fill:#ebdca1;}.cls-31{fill:#ebdda2;}.cls-32{fill:#ebdda3;}.cls-33{fill:#ebdda4;}.cls-34{fill:#ebdea5;}.cls-35{fill:#ecdea6;}.cls-36{fill:#ecdfa7;}.cls-37{fill:#ecdfa8;}.cls-38{fill:#ecdfa9;}.cls-39{fill:#ece0aa;}.cls-40{fill:#ede0ab;}.cls-41{fill:#ede0ac;}.cls-42{fill:#ede1ad;}.cls-43{fill:#ede1ae;}.cls-44{fill:#eee2af;}.cls-45{fill:#eee2b0;}.cls-46{fill:#eee2b1;}.cls-47{fill:#eee3b2;}.cls-48{fill:#eee3b3;}.cls-49{fill:#efe3b4;}.cls-50{fill:#efe4b5;}.cls-51{fill:#efe4b6;}.cls-52{fill:#efe5b7;}.cls-53{fill:#f0e5b8;}.cls-54{fill:#f0e5b9;}.cls-55{fill:#f0e6ba;}.cls-56{fill:#f0e6bb;}.cls-57{fill:#f0e6bc;}.cls-58{fill:#f1e7bd;}.cls-59{fill:#f1e7be;}.cls-60{fill:#f1e8bf;}.cls-61{fill:#f1e8c0;}.cls-62{fill:#f2e8c1;}.cls-63{fill:#f2e9c2;}.cls-64{fill:#f2e9c4;}.cls-65{fill:#f2e9c5;}.cls-66{fill:#f2eac6;}.cls-67{fill:#f3eac7;}.cls-68{fill:#f3eac8;}.cls-69{fill:#f3ebc9;}.cls-70{fill:#f3ebca;}.cls-71{fill:#f4eccb;}.cls-72{fill:#f4eccc;}.cls-73{fill:#f4eccd;}.cls-74{fill:#f4edce;}.cls-75{fill:#f4edcf;}.cls-76{fill:#f5edd0;}.cls-77{fill:#f5eed1;}.cls-78{fill:#f5eed2;}.cls-79{fill:#f5efd3;}.cls-80{fill:#f6efd4;}.cls-81{fill:#f6efd5;}.cls-82{fill:#f6f0d6;}.cls-83{fill:#f6f0d7;}.cls-84{fill:#f6f0d8;}.cls-85{fill:#f7f1d9;}.cls-86{fill:#f7f1da;}.cls-87{fill:#f7f2db;}.cls-88{fill:#f7f2dc;}.cls-89{fill:#f8f2dd;}.cls-90{fill:#f8f3de;}.cls-91{fill:#f8f3df;}.cls-92{fill:#f8f3e0;}.cls-93{fill:#f8f4e1;}.cls-94{fill:#f9f4e2;}.cls-95{fill:#f9f5e3;}.cls-96{fill:#f9f5e4;}.cls-97{fill:#f9f5e5;}.cls-98{fill:#f9f6e6;}.cls-99{fill:#faf6e7;}.cls-100{fill:#faf6e8;}.cls-101{fill:#faf7e9;}.cls-102{fill:#faf7ea;}.cls-103{fill:#fbf8eb;}.cls-104{fill:#fbf8ec;}.cls-105{fill:#fbf8ed;}.cls-106{fill:#fbf9ee;}.cls-107{fill:#fbf9ef;}.cls-108{fill:#fcf9f0;}.cls-109{fill:#fcfaf1;}.cls-110{fill:#fcfaf2;}.cls-111{fill:#fcfbf3;}.cls-112{fill:#fdfbf4;}.cls-113{fill:#fdfbf5;}.cls-114{fill:#fdfcf6;}.cls-115{fill:#fdfcf7;}.cls-116{fill:#fdfcf8;}.cls-117{fill:#fefdf9;}.cls-118{fill:#fefdfa;}.cls-119{fill:#fefefb;}.cls-120{fill:#fefefc;}.cls-121{fill:#fffefd;}.cls-122{fill:#fffffe;}.cls-123{fill:#fff;}.cls-124{fill:#ffeda1;}.cls-125{clip-path:url(#clip-path-2);}.cls-126{fill:#ef9777;}.cls-127{fill:#3a1e1c;}.cls-128{clip-path:url(#clip-path-3);}.cls-129{fill:#d88268;}.cls-130{fill:#d98369;}.cls-131{fill:#da8469;}.cls-132{fill:#db856a;}.cls-133{fill:#dc866b;}.cls-134{fill:#dd876b;}.cls-135{fill:#de886c;}.cls-136{fill:#df896d;}.cls-137{fill:#e08a6d;}.cls-138{fill:#e18b6e;}.cls-139{fill:#e28c6f;}.cls-140{fill:#e48d70;}.cls-141{fill:#e58d70;}.cls-142{fill:#e68e71;}.cls-143{fill:#e78f72;}.cls-144{fill:#e89072;}.cls-145{fill:#e99173;}.cls-146{fill:#ea9274;}.cls-147{fill:#eb9374;}.cls-148{fill:#ec9475;}.cls-149{fill:#ed9576;}.cls-150{fill:#ee9676;}.cls-151{fill:#3d201f;}.cls-152{fill:#b5574d;}.cls-153{fill:#b3514e;}.cls-154{fill:#312235;}.cls-155{fill:#fc999c;}.cls-156{fill:#f9aaaa;}.cls-157{fill:#822222;}.cls-158{fill:#9b3737;}.cls-159{fill:#5b1f3c;}.cls-160{fill:#fffdfd;}.cls-161{clip-path:url(#clip-path-4);}</style><clipPath id="clip-path"><path class="cls-1" d="M428.87,402.79a192.51,192.51,0,0,0-5.05-43.86c-32.69-73-109.23-124.15-198.45-124.15C106.43,234.78,10,325.78,10,438a193.16,193.16,0,0,0,5,43.87C47.74,554.84,124.28,606,213.5,606,332.44,606,428.87,515,428.87,402.79Z"/></clipPath><clipPath id="clip-path-2"><path class="cls-1" d="M540.86,351.81c-10.3-18-97.34-31.5-97.34-31.5S301.2,131.55,232.19,138s-80.25,56.59-80.25,56.59l-32.63,66.55C54,296,10,362.17,10,438c0,112.25,96.43,203.24,215.37,203.24,117.57,0,213.12-88.9,215.32-199.34C473,419.61,548.81,365.68,540.86,351.81Z"/></clipPath><clipPath id="clip-path-3"><path class="cls-1" d="M227.68,319.63l-2.36,9.78s-19.92,12.9-37.91,11.87c-5.34-.3,67.76,42.8,71.74,43s34.38-50.16,34.38-50.16-20.41-3.73-27.17-4-14.47-18.28-14.47-18.28Z"/></clipPath><clipPath id="clip-path-4"><path class="cls-1" d="M540.86-728.3c-10.3-18-97.34-31.5-97.34-31.5S301.2-948.56,232.19-942.13s-80.25,56.58-80.25,56.58L119.31-819C54-784.08,10-717.94,10-642.08c0,112.24,96.43,203.24,215.37,203.24,117.57,0,213.12-88.9,215.32-199.35C473-660.5,548.81-714.43,540.86-728.3Z"/></clipPath></defs><title>intro-fala1</title><g id="Camada_5" data-name="Camada 5"><path class="cls-2" d="M225.37,234.78c119,0,215.37,91,215.37,203.24S344.32,641.26,225.37,641.26,10,550.27,10,438s96.42-203.24,215.37-203.24m0-10a235.1,235.1,0,0,0-87.54,16.69A225.72,225.72,0,0,0,66.22,287,212.37,212.37,0,0,0,17.8,354.82a203.34,203.34,0,0,0,0,166.4A212.3,212.3,0,0,0,66.22,589a225.89,225.89,0,0,0,71.61,45.57,238.05,238.05,0,0,0,175.08,0A225.94,225.94,0,0,0,384.53,589a212.12,212.12,0,0,0,48.41-67.79,203.34,203.34,0,0,0,0-166.4A212.19,212.19,0,0,0,384.53,287a225.76,225.76,0,0,0-71.62-45.57,235.1,235.1,0,0,0-87.54-16.69Z"/><ellipse class="cls-3" cx="225.37" cy="438.02" rx="215.37" ry="203.24"/><g class="cls-4"><rect class="cls-5" x="10" y="234.78" width="418.87" height="371.24"/><path class="cls-5" d="M206.79,475.71a120.37,120.37,0,1,1,167,33A120.37,120.37,0,0,1,206.79,475.71Z"/><path class="cls-6" d="M207.63,475.15a119.36,119.36,0,1,1,165.6,32.72A119.37,119.37,0,0,1,207.63,475.15Z"/><path class="cls-7" d="M208.47,474.58A118.34,118.34,0,1,1,372.66,507,118.35,118.35,0,0,1,208.47,474.58Z"/><path class="cls-8" d="M209.31,474A117.34,117.34,0,1,1,372.1,506.19,117.33,117.33,0,0,1,209.31,474Z"/><path class="cls-9" d="M210.15,473.46a116.33,116.33,0,1,1,161.39,31.89A116.33,116.33,0,0,1,210.15,473.46Z"/><path class="cls-10" d="M211,472.89a115.31,115.31,0,1,1,160,31.62A115.31,115.31,0,0,1,211,472.89Z"/><path class="cls-11" d="M211.83,472.33a114.3,114.3,0,1,1,158.58,31.34A114.3,114.3,0,0,1,211.83,472.33Z"/><circle class="cls-12" cx="306.79" cy="408.71" r="113.29"/><circle class="cls-13" cx="306.79" cy="408.71" r="112.28"/><circle class="cls-14" cx="306.79" cy="408.71" r="111.27"/><circle class="cls-15" cx="306.79" cy="408.71" r="110.26"/><circle class="cls-16" cx="306.79" cy="408.71" r="109.24"/><circle class="cls-17" cx="306.79" cy="408.71" r="108.23"/><circle class="cls-18" cx="306.79" cy="408.71" r="107.22"/><circle class="cls-19" cx="306.79" cy="408.71" r="106.21"/><circle class="cls-20" cx="306.79" cy="408.71" r="105.2"/><circle class="cls-21" cx="306.79" cy="408.71" r="104.19"/><circle class="cls-22" cx="306.79" cy="408.71" r="103.17"/><circle class="cls-23" cx="306.79" cy="408.71" r="102.16"/><circle class="cls-24" cx="306.79" cy="408.71" r="101.15"/><circle class="cls-25" cx="306.79" cy="408.71" r="100.14"/><circle class="cls-26" cx="306.79" cy="408.71" r="99.13"/><circle class="cls-27" cx="306.79" cy="408.71" r="98.12"/><circle class="cls-28" cx="306.79" cy="408.71" r="97.11"/><circle class="cls-29" cx="306.79" cy="408.71" r="96.09"/><circle class="cls-30" cx="306.79" cy="408.71" r="95.08"/><circle class="cls-31" cx="306.79" cy="408.71" r="94.07"/><circle class="cls-32" cx="306.79" cy="408.71" r="93.06"/><circle class="cls-33" cx="306.79" cy="408.71" r="92.05"/><circle class="cls-34" cx="306.79" cy="408.71" r="91.04"/><circle class="cls-35" cx="306.79" cy="408.71" r="90.02"/><circle class="cls-36" cx="306.79" cy="408.71" r="89.01"/><circle class="cls-37" cx="306.79" cy="408.71" r="88"/><circle class="cls-38" cx="306.79" cy="408.71" r="86.99"/><circle class="cls-39" cx="306.79" cy="408.71" r="85.98"/><circle class="cls-40" cx="306.79" cy="408.71" r="84.97"/><circle class="cls-41" cx="306.79" cy="408.71" r="83.96"/><circle class="cls-42" cx="306.79" cy="408.71" r="82.94"/><circle class="cls-43" cx="306.79" cy="408.71" r="81.93"/><circle class="cls-44" cx="306.79" cy="408.71" r="80.92"/><circle class="cls-45" cx="306.79" cy="408.71" r="79.91"/><circle class="cls-46" cx="306.79" cy="408.71" r="78.9"/><circle class="cls-47" cx="306.79" cy="408.71" r="77.89"/><circle class="cls-48" cx="306.79" cy="408.71" r="76.88"/><circle class="cls-49" cx="306.79" cy="408.71" r="75.86"/><circle class="cls-50" cx="306.79" cy="408.71" r="74.85"/><circle class="cls-51" cx="306.79" cy="408.71" r="73.84"/><circle class="cls-52" cx="306.79" cy="408.71" r="72.83"/><circle class="cls-53" cx="306.79" cy="408.71" r="71.82"/><circle class="cls-54" cx="306.79" cy="408.71" r="70.81"/><circle class="cls-55" cx="306.79" cy="408.71" r="69.79"/><circle class="cls-56" cx="306.79" cy="408.71" r="68.78"/><circle class="cls-57" cx="306.79" cy="408.71" r="67.77"/><circle class="cls-58" cx="306.79" cy="408.71" r="66.76"/><circle class="cls-59" cx="306.79" cy="408.71" r="65.75"/><circle class="cls-60" cx="306.79" cy="408.71" r="64.74"/><circle class="cls-61" cx="306.79" cy="408.71" r="63.73"/><circle class="cls-62" cx="306.79" cy="408.71" r="62.71"/><circle class="cls-63" cx="306.79" cy="408.71" r="61.7"/><circle class="cls-64" cx="306.79" cy="408.71" r="60.69"/><circle class="cls-65" cx="306.79" cy="408.71" r="59.68"/><circle class="cls-66" cx="306.79" cy="408.71" r="58.67"/><circle class="cls-67" cx="306.79" cy="408.71" r="57.66"/><circle class="cls-68" cx="306.79" cy="408.71" r="56.64"/><circle class="cls-69" cx="306.79" cy="408.71" r="55.63"/><circle class="cls-70" cx="306.79" cy="408.71" r="54.62"/><circle class="cls-71" cx="306.79" cy="408.71" r="53.61"/><circle class="cls-72" cx="306.79" cy="408.71" r="52.6"/><circle class="cls-73" cx="306.79" cy="408.71" r="51.59"/><circle class="cls-74" cx="306.79" cy="408.71" r="50.58"/><circle class="cls-75" cx="306.79" cy="408.71" r="49.56"/><circle class="cls-76" cx="306.79" cy="408.71" r="48.55"/><circle class="cls-77" cx="306.79" cy="408.71" r="47.54"/><circle class="cls-78" cx="306.79" cy="408.71" r="46.53"/><circle class="cls-79" cx="306.79" cy="408.71" r="45.52"/><circle class="cls-80" cx="306.79" cy="408.71" r="44.51"/><circle class="cls-81" cx="306.79" cy="408.71" r="43.5"/><circle class="cls-82" cx="306.79" cy="408.71" r="42.48"/><circle class="cls-83" cx="306.79" cy="408.71" r="41.47"/><circle class="cls-84" cx="306.79" cy="408.71" r="40.46"/><circle class="cls-85" cx="306.79" cy="408.71" r="39.45"/><circle class="cls-86" cx="306.79" cy="408.71" r="38.44"/><circle class="cls-87" cx="306.79" cy="408.71" r="37.43"/><circle class="cls-88" cx="306.79" cy="408.71" r="36.41"/><circle class="cls-89" cx="306.79" cy="408.71" r="35.4"/><circle class="cls-90" cx="306.79" cy="408.71" r="34.39"/><circle class="cls-91" cx="306.79" cy="408.71" r="33.38"/><circle class="cls-92" cx="306.79" cy="408.71" r="32.37"/><circle class="cls-93" cx="306.79" cy="408.71" r="31.36"/><circle class="cls-94" cx="306.79" cy="408.71" r="30.35"/><circle class="cls-95" cx="306.79" cy="408.71" r="29.33"/><circle class="cls-96" cx="306.79" cy="408.71" r="28.32"/><circle class="cls-97" cx="306.79" cy="408.71" r="27.31"/><circle class="cls-98" cx="306.79" cy="408.71" r="26.3"/><circle class="cls-99" cx="306.79" cy="408.71" r="25.29"/><circle class="cls-100" cx="306.79" cy="408.71" r="24.28"/><circle class="cls-101" cx="306.79" cy="408.71" r="23.26"/><circle class="cls-102" cx="306.79" cy="408.71" r="22.25"/><circle class="cls-103" cx="306.79" cy="408.71" r="21.24"/><circle class="cls-104" cx="306.79" cy="408.71" r="20.23"/><circle class="cls-105" cx="306.79" cy="408.71" r="19.22"/><circle class="cls-106" cx="306.79" cy="408.71" r="18.21"/><circle class="cls-107" cx="306.79" cy="408.71" r="17.2"/><circle class="cls-108" cx="306.79" cy="408.71" r="16.18"/><circle class="cls-109" cx="306.79" cy="408.71" r="15.17"/><circle class="cls-110" cx="306.79" cy="408.71" r="14.16"/><circle class="cls-111" cx="306.79" cy="408.71" r="13.15"/><circle class="cls-112" cx="306.79" cy="408.71" r="12.14"/><circle class="cls-113" cx="306.79" cy="408.71" r="11.13"/><circle class="cls-114" cx="306.79" cy="408.71" r="10.12"/><circle class="cls-115" cx="306.79" cy="408.71" r="9.1"/><circle class="cls-116" cx="306.79" cy="408.71" r="8.09"/><circle class="cls-117" cx="306.79" cy="408.71" r="7.08"/><circle class="cls-118" cx="306.79" cy="408.71" r="6.07"/><circle class="cls-119" cx="306.79" cy="408.71" r="5.06"/><circle class="cls-120" cx="306.79" cy="408.71" r="4.05"/><circle class="cls-121" cx="306.79" cy="408.71" r="3.03"/><circle class="cls-122" cx="306.79" cy="408.71" r="2.02"/><circle class="cls-123" cx="306.79" cy="408.71" r="1.01"/></g><path class="cls-3" d="M787.8,44.22c-174.89,0-318.64,118.13-335.23,269.27L353,353.14s-6.51,2.41-5.85,11.74a12.7,12.7,0,0,0,7.43,10.89L458.82,407C492,541,626.68,641.26,787.8,641.26c186,0,336.84-133.65,336.84-298.52S973.83,44.22,787.8,44.22Z"/><path class="cls-124" d="M787.75,0C612.85,0,469.11,118.13,452.52,269.27L353,308.92s-6.51,2.41-5.86,11.74a12.7,12.7,0,0,0,7.44,10.88l104.21,31.28C492,496.78,626.63,597,787.75,597c186,0,336.84-133.65,336.84-298.52S973.78,0,787.75,0Z"/><g class="cls-125"><path class="cls-126" d="M534.21,352.94a18,18,0,0,0-2.21-1.87,19.39,19.39,0,0,0-1.77-1.13A22.73,22.73,0,0,0,526,348.1a17.85,17.85,0,0,0-2.86-.67s-45.4,6.11-38.5,3-1.62-3.79-1.62-3.79-21.76,4.67-30,9.17c-5.48,3-12.26,25.5-12.26,25.5L453,395.57s13.81-9.68,18.89-14.76c3.66-3.66,20.55-3.28,33.25-5.34,4.95-.8,12.12-3.69,14.92-4.36,3.25-.78,3.54-3.18,6.58-5.16a30.6,30.6,0,0,0,4.82-3.82c1.7-1.67,1.32-1.57,1.87-3.17.27-.79,1.73-2.75,1.7-3.67A3.43,3.43,0,0,0,534.21,352.94Zm-19.63,13.12s-16.06,2.81-17-.63c-2.53,1,21.79-1.33,28.2-3.88Z"/><path class="cls-123" d="M153.28,564.7s24.48-21.86,24.48-27-14.35-8.35-14.35-8.35L143,558.89l9.58,7.33Z"/><path class="cls-127" d="M175.94,358.82S129,227,183.38,159.92c0,0,58.11-39.81,101.53,7s13,178.54,13,178.54Z"/><g class="cls-128"><polygon class="cls-129" points="293.46 311.8 293.49 312.12 182.06 322.49 182.06 311.8 293.46 311.8"/><polygon class="cls-129" points="293.49 312.12 293.53 312.49 293.53 312.93 182.06 323.3 182.06 322.49 293.49 312.12"/><polygon class="cls-130" points="293.53 313.74 182.06 324.11 182.06 323.3 293.53 312.93 293.53 313.74"/><polygon class="cls-131" points="293.53 314.55 182.06 324.93 182.06 324.11 293.53 313.74 293.53 314.55"/><polygon class="cls-132" points="293.53 315.37 182.06 325.74 182.06 324.93 293.53 314.55 293.53 315.37"/><polygon class="cls-133" points="293.53 316.18 182.06 326.55 182.06 325.74 293.53 315.37 293.53 316.18"/><polygon class="cls-134" points="293.53 316.99 182.06 327.37 182.06 326.55 293.53 316.18 293.53 316.99"/><polygon class="cls-135" points="293.53 317.81 182.06 328.18 182.06 327.37 293.53 316.99 293.53 317.81"/><polygon class="cls-136" points="293.53 318.62 182.06 328.99 182.06 328.18 293.53 317.81 293.53 318.62"/><polygon class="cls-137" points="293.53 319.43 182.06 329.81 182.06 328.99 293.53 318.62 293.53 319.43"/><polygon class="cls-138" points="293.53 320.24 182.06 330.62 182.06 329.81 293.53 319.43 293.53 320.24"/><polygon class="cls-139" points="293.53 321.06 182.06 331.43 182.06 330.62 293.53 320.24 293.53 321.06"/><polygon class="cls-140" points="293.53 321.87 182.06 332.24 182.06 331.43 293.53 321.06 293.53 321.87"/><polygon class="cls-141" points="293.53 322.68 182.06 333.06 182.06 332.24 293.53 321.87 293.53 322.68"/><polygon class="cls-142" points="293.53 323.5 182.06 333.87 182.06 333.06 293.53 322.68 293.53 323.5"/><polygon class="cls-143" points="293.53 324.31 182.06 334.68 182.06 333.87 293.53 323.5 293.53 324.31"/><polygon class="cls-144" points="293.53 325.12 182.06 335.5 182.06 334.68 293.53 324.31 293.53 325.12"/><polygon class="cls-145" points="293.53 325.94 182.06 336.31 182.06 335.5 293.53 325.12 293.53 325.94"/><polygon class="cls-146" points="293.53 326.75 182.06 337.12 182.06 336.31 293.53 325.94 293.53 326.75"/><polygon class="cls-147" points="293.53 327.56 182.06 337.94 182.06 337.12 293.53 326.75 293.53 327.56"/><polygon class="cls-148" points="293.53 328.38 182.06 338.75 182.06 337.94 293.53 327.56 293.53 328.38"/><polygon class="cls-149" points="293.53 329.19 182.06 339.56 182.06 338.75 293.53 328.38 293.53 329.19"/><polygon class="cls-150" points="293.53 330 182.06 340.38 182.06 339.56 293.53 329.19 293.53 330"/><polygon class="cls-126" points="293.53 330.82 182.06 341.19 182.06 340.38 293.53 330 293.53 330.82"/><polygon class="cls-126" points="184.1 384.38 182.06 362.56 182.06 341.19 293.53 330.82 293.53 384.38 184.1 384.38"/></g><path class="cls-126" d="M182.35,220.71s-.88,110.78,64.76,101.68C282.6,317.47,294.62,282,288,251.47a191.55,191.55,0,0,1-3.79-46.76s-4.08-29.37-38.7-20.31-49.64,5.72-49.64,5.72S180.29,193.3,182.35,220.71Z"/><path class="cls-127" d="M176.82,226.89s25.09-2.78,36.43-7.67l.58-15.39s2.55,9.93,4.85,12.4,22.88-.73,32-3.58,4.81-14.7,4.81-14.7l4.33,11.85s28.58,3.45,28.74-.93-3.86-24.71-12.21-28.74-73.88-4.44-83.08,4.1S177.28,214.69,176.82,226.89Z"/><ellipse class="cls-151" cx="265.7" cy="242.56" rx="3.92" ry="3.17" transform="translate(-22.23 26.86) rotate(-5.56)"/><ellipse class="cls-151" cx="226.63" cy="246.26" rx="3.92" ry="3.17" transform="translate(-22.78 23.1) rotate(-5.56)"/><path class="cls-152" d="M250.3,277a15.34,15.34,0,0,1-5.17-.8l.35-.94c5.16,1.91,13.88,0,15.56-3.34,1.13-2.27-1.44-4.53-3.78-6-6.89-4.38-5.32-8.94-5.25-9.13l.94.34c0,.16-1.33,4,4.84,7.95,4.88,3.1,4.95,5.68,4.14,7.3C260.47,275.31,255.12,277,250.3,277Z"/><path class="cls-153" d="M264.7,287.05c-18.37,4.76-37.46.2-36.73,1.53,0,0,1.77,14.25,18,14.15C262.72,302.62,264.7,287.05,264.7,287.05Z"/><path class="cls-123" d="M219.13,331.75s22.52,13.66,36.94,11.81c6.84-.88,18.95-14,18.95-14l13,129.73-49.8,2.24Z"/><path class="cls-154" d="M172.41,555.72s-17.61,72.57-15.63,92.45,4.68,52.17,34,145.94c0,0,78.25,32.39,150.2-.8,0,0,6.29-1.86,10.91-43.82S364.32,606.9,343.18,562,172.41,555.72,172.41,555.72Z"/><path class="cls-127" d="M274.56,219.71s-4.74-6.2-9.75-3.1a.89.89,0,0,0-.58,1.12c.25.83,1.91-1.64,9.83,2.73C274.06,220.46,274.56,220.75,274.56,219.71Z"/><path class="cls-127" d="M214.68,224.15s4.75-6.21,9.75-3.11a.89.89,0,0,1,.58,1.12c-.25.84-1.91-1.63-9.83,2.73C215.18,224.89,214.68,225.18,214.68,224.15Z"/><path class="cls-123" d="M262.37,287.6s-.65,3.21-2,4.13-15.62,2-24.11.95c-5.38-.66-6.4-3.32-6.26-4.3C230,288.38,248.84,290.65,262.37,287.6Z"/><path class="cls-155" d="M249.13,302.5s-1.22-9.7-18.49-7.16C230.64,295.34,234.77,304.19,249.13,302.5Z"/><ellipse class="cls-156" cx="280.76" cy="252.77" rx="3.62" ry="6.23" transform="translate(5.56 511.58) rotate(-85.24)"/><ellipse class="cls-156" cx="214.54" cy="262.02" rx="6.23" ry="3.62" transform="translate(-52.56 53.84) rotate(-12.76)"/><path class="cls-157" d="M333.31,438.84l41.91,37.38s10.59,6.85,14.41,7.27c4,.44,11.28-4.8,11.28-4.8l67.67-73.64s-37.64-24.88-38-28.5-33.25,46.55-33.25,46.55-2.17-2.74-7.67-1.67c-3,.59-1.59,5.6-7.66-.14-3.74-3.54-9.95-8.73-15.17-16.11-29.22-41.33-56.53-70.83-58.39-72.35s-11-6.17-14.23-4.65S275,329.59,275,329.59L277.66,445,219.13,331.75s-12.56,4.33-26.08,2.61S156.81,338,156.81,338s-10.24,27.71-17.55,29.81-11,20.25-11,20.25c-2.17,2.65-10.18,14.08-19.61,27.72h0s-37.48,45.93-43,49.91-2.65,13.44-2.65,13.44L141.9,562.9l27.83-35.51c-7.13-.5-43.13-49.77-43.13-49.77,2.53-4.53,2.3-8.26,1.56-10.72,17.3-18.49,42.63-47.18,42.63-47.18.41,4.06,6.47,16.8,16.93,32.51s9.69,42.14,9.69,42.14c-14.94,21.68-25,61.35-25,61.35s1,7.92,26.28,20.54c11,5.51,46.51,16.31,46.51,16.31l39.46-43.28,50.78,35.64s9.12-9.13,8.21-18.27-18.44-63.5-18.44-63.5-1.89-19,.27-24.66S333.31,438.84,333.31,438.84Z"/><path class="cls-129" d="M153.28,564.7s12.2,10.7,14.67,8.23l12.43-35.19S164.81,549,153.28,564.7Z"/><path class="cls-126" d="M170.63,565.87s5.9-5.86,14.86,2.8,9.68,9.26,9.68,9.26,7,2.88,7.52-4.63c0,0,8.8,1.29,6.83-8.39,0,0,6.13-4.42.7-12,0,0,5.51-1.06,2.24-11.47s-24-20.46-24-20.46-9.94-3.49-10.82,8.07c0,0-7.16.38-4.66,10.38,0,0-4.65,4.2-3.65,8.77s-.11,3.66-.11,3.66S162.54,559.29,170.63,565.87Z"/><path class="cls-152" d="M202.31,573.63c-.11-.14-11.87-13.67-24.48-19.79l.44-.9c12.79,6.21,24.68,19.9,24.8,20Z"/><path class="cls-152" d="M209.17,565.27c-.17-.16-17.14-16.1-29.48-22.75l.48-.88c12.45,6.72,29.52,22.74,29.69,22.9Z"/><path class="cls-152" d="M209.84,553.19c-.15-.18-15.21-17.9-27.55-21.76l.3-.95c12.61,3.94,27.39,21.33,28,22.07Z"/><path class="cls-158" d="M219.13,331.75S195,343.4,181.9,363.18l44.38,12.67s-15.11,14.86-14.79,18.07,66.17,51,66.17,51,33.54-61.51,29.81-64.56-24.29-6.81-24.29-6.81,19.48-27.61,22.87-27.95-28-16.36-31-16.05,2.52,110.28,2.52,110.28l-.15,2.38Z"/><path class="cls-154" d="M277.66,445s9.26,81.81,7,104.33"/><circle class="cls-158" cx="291.4" cy="469.64" r="5.33"/><circle class="cls-158" cx="293.53" cy="507.64" r="5.33"/><path class="cls-159" d="M173.56,402.9l-1-.23A76.61,76.61,0,0,0,161,341.82l.82-.57A77.63,77.63,0,0,1,173.56,402.9Z"/><path class="cls-159" d="M328.84,405.1l-1-.09c1.1-12.3-3.36-24.58-7.3-35.41-4.66-12.82-10-27.35-20.07-37.88l.72-.69c10.27,10.68,15.59,25.32,20.29,38.23C325.45,380.19,330,392.58,328.84,405.1Z"/><path class="cls-159" d="M146.07,375.14a27.73,27.73,0,0,0-3.49-6.94l.82-.57a28.39,28.39,0,0,1,3.62,7.19Z"/><path class="cls-159" d="M135.79,390.8a34.75,34.75,0,0,0-6.08-.84l0-1a36.56,36.56,0,0,1,6.25.85Z"/><path class="cls-159" d="M334.19,439.12l-1-.12a73,73,0,0,0,.43-11.92l1,0A75,75,0,0,1,334.19,439.12Z"/><path class="cls-159" d="M400.14,437.11a74.53,74.53,0,0,0-2.84-11.59l.95-.32A74,74,0,0,1,401.12,437Z"/><path class="cls-159" d="M384.8,437.09l-1-.15a60.44,60.44,0,0,0,.75-10.74l1,0A60.42,60.42,0,0,1,384.8,437.09Z"/><path class="cls-159" d="M200.16,494.73l-.52-.85a60,60,0,0,1,11.6-5.54l.33.94A59.45,59.45,0,0,0,200.16,494.73Z"/><path class="cls-159" d="M127.52,467.41c-2.32,0-10-.2-12.54-2.75l.7-.71c2.66,2.66,12.37,2.46,12.47,2.45l0,1Z"/><path class="cls-159" d="M118.58,481.06v-1c3.43,0,7.7-2.83,7.74-2.86l.56.83C126.69,478.16,122.31,481.06,118.58,481.06Z"/><path class="cls-160" d="M429.66,380.81s2.67-5,6.17-7l37.67,21.76L464.16,407Z"/><path class="cls-152" d="M468.18,355l-.7-.71c1.94-1.94,15-3.57,16.44-3.75l.12,1C478.37,352.26,469.47,353.75,468.18,355Z"/><path class="cls-152" d="M493.85,354.74c-1.39,0-1.52-.19-1.63-.35a.58.58,0,0,1,.09-.77l.71.71a.45.45,0,0,0,.09-.36.39.39,0,0,0-.21-.27c1.85.69,34.51-3.93,36.74-4.53v0c.13,0,.56-.05.67.37l-.28.58c-.42.2-11.19,1.79-18.63,2.79C500.47,354.34,495.86,354.74,493.85,354.74Z"/><path class="cls-152" d="M496.51,358.81a13.91,13.91,0,0,1-4-.37l.37-.93c3.79,1.53,39.32-2.56,40.89-4.7a.14.14,0,0,0,0,.1l1,.07a1.12,1.12,0,0,1-.59.8C530.85,355.82,506.61,358.81,496.51,358.81Z"/><path class="cls-152" d="M506.71,368c-3.94,0-8-.56-9.1-1.27a.85.85,0,0,1-.47-1l1,.29a.28.28,0,0,0,0-.22c.27.31,2.34.86,5.94,1.08,4.89.3,9.1-.22,10.23-1.25l.15-.1,17-6.81a8.06,8.06,0,0,1,2,0,.64.64,0,0,1,.41.42c.14.44-.19,1.19-1,2.24l-.81-.59a7.23,7.23,0,0,0,.71-1.15c-.32,0-.81,0-1.25,0l-16.65,6.71C513.51,367.62,510.14,368,506.71,368Z"/><path class="cls-152" d="M470.37,365.43l-.41-.91c.2-.09,4.9-2.33,4.62-8.69l1,0A10,10,0,0,1,470.37,365.43Z"/><path class="cls-152" d="M457.8,373l-.94-.33c.14-.4,3.67-9.85,21.35-8.16.08,0,3.78.61,5.41-1l.08-.08.11,0c.25-.09,6.15-2.07,9.66.61l-.61.79c-2.85-2.18-7.85-.73-8.62-.49-2,1.9-6,1.25-6.16,1.22C461.2,363.86,457.83,372.88,457.8,373Z"/><path class="cls-152" d="M497.86,368.5l-.92-.39c.32-.77.61-2,.29-2.32-.07-.07-6.06-7.15-5.25-8.56a17.69,17.69,0,0,0,.19-4.89l1-.06c0,.74.23,4.49-.31,5.44,0,.88,4.21,6.49,5.08,7.36S498,368.09,497.86,368.5Z"/></g><path class="cls-127" d="M595.75,222.51a10.94,10.94,0,0,1-2.37,7.3,7.66,7.66,0,0,1-6.15,2.81,7.51,7.51,0,0,1-6.07-2.82,11,11,0,0,1-2.33-7.29v-.26a11.08,11.08,0,0,1,2.32-7.29,7.5,7.5,0,0,1,6.06-2.82,7.7,7.7,0,0,1,6.17,2.82,11,11,0,0,1,2.37,7.29Zm-1.62-.28a9.84,9.84,0,0,0-1.87-6.26,6.06,6.06,0,0,0-5-2.4,5.87,5.87,0,0,0-4.94,2.4,10.07,10.07,0,0,0-1.82,6.26v.28a10.07,10.07,0,0,0,1.83,6.29,5.89,5.89,0,0,0,5,2.4,6,6,0,0,0,5-2.39,10,10,0,0,0,1.85-6.3Z"/><path class="cls-127" d="M598.24,212.22V211h3.82V231l2.2.18v1.2h-6v-1.2l2.21-.18V212.4Z"/><path class="cls-127" d="M616.93,232.33a12.48,12.48,0,0,1-.23-1.3,8.07,8.07,0,0,1-.07-1.11,6.36,6.36,0,0,1-2.17,1.93,6.05,6.05,0,0,1-3,.77,4.69,4.69,0,0,1-3.33-1.12,4,4,0,0,1-1.18-3,3.76,3.76,0,0,1,1.75-3.25A8.23,8.23,0,0,1,613.4,224h3.23v-1.95a3.17,3.17,0,0,0-1-2.49,4.08,4.08,0,0,0-2.82-.9,7.19,7.19,0,0,0-2.23.33,5.17,5.17,0,0,0-1.68.91l-.14,2h-1.33V219a8,8,0,0,1,2.43-1.28,9,9,0,0,1,3-.5,5.82,5.82,0,0,1,3.89,1.25,4.39,4.39,0,0,1,1.48,3.57v7.27c0,.3,0,.59,0,.87a5.28,5.28,0,0,0,.09.81l1.46.1v1.2Zm-5.33-1.16a5.84,5.84,0,0,0,3.09-.82,4.81,4.81,0,0,0,1.94-2.12v-3h-3.26a6,6,0,0,0-3.53.93,2.75,2.75,0,0,0-1.32,2.33,2.48,2.48,0,0,0,.82,1.92A3.32,3.32,0,0,0,611.6,231.17Zm2.74-19.28h2l0,.08L613,215.53h-1.44Z"/><path class="cls-127" d="M624.65,232.33h-1.92v-2.28h1.92Zm-.16-6.53h-1.61V212.42h1.61Z"/><path class="cls-127" d="M646.58,222.69h-8.07V231h9.31l.12-3h1.43v4.36H634.69v-1.2l2.21-.18V213.82l-2.21-.18v-1.22H649.3v4.38h-1.43l-.12-3h-9.24v7.48h8.07Z"/><path class="cls-127" d="M663,229.9a5.09,5.09,0,0,1-1.89,2,5.47,5.47,0,0,1-2.82.71,4.43,4.43,0,0,1-3.62-1.59,7.68,7.68,0,0,1-1.3-4.92v-7.18l-1.82-.18v-1.21H655v8.6a6.4,6.4,0,0,0,.91,3.88,3.1,3.1,0,0,0,2.59,1.18,4.8,4.8,0,0,0,2.93-.82,4.37,4.37,0,0,0,1.53-2.27v-9.18l-2.08-.18v-1.21h3.71V231l2,.18v1.2h-3.38Z"/><path class="cls-127" d="M675.27,218.75v-1.21h3.64l.15,2.44a5,5,0,0,1,1.88-2,5.23,5.23,0,0,1,2.8-.72,4.23,4.23,0,0,1,4.41,3.35,5.71,5.71,0,0,1,1.89-2.45,4.88,4.88,0,0,1,3-.9,4.4,4.4,0,0,1,3.62,1.58,7.63,7.63,0,0,1,1.28,4.86v7.24l2.2.19v1.2h-6v-1.2l2.21-.19v-7.26a6.11,6.11,0,0,0-.95-3.87,3.31,3.31,0,0,0-2.66-1.12,3.59,3.59,0,0,0-2.92,1.21,5.87,5.87,0,0,0-1.26,3.11v.2a1.78,1.78,0,0,1,0,.25V231l2.21.18v1.2h-6v-1.2l2.21-.18v-7.27a6,6,0,0,0-1-3.84,3.28,3.28,0,0,0-2.66-1.15,4,4,0,0,0-2.74.88,4.72,4.72,0,0,0-1.41,2.37v9l2.2.18v1.2h-6v-1.2l2.2-.18v-12Z"/><path class="cls-127" d="M708.44,232.62a5.83,5.83,0,0,1-4.57-2.05,7.52,7.52,0,0,1-1.81-5.2v-.75a7.77,7.77,0,0,1,1.8-5.26,5.57,5.57,0,0,1,4.37-2.1,5.39,5.39,0,0,1,4.23,1.73,6.62,6.62,0,0,1,1.54,4.59V225H703.67v.39a6.59,6.59,0,0,0,1.32,4.18,4.19,4.19,0,0,0,3.45,1.69,6.81,6.81,0,0,0,2.57-.43,5,5,0,0,0,1.83-1.21l.69,1.12a5.83,5.83,0,0,1-2.08,1.38A7.8,7.8,0,0,1,708.44,232.62Zm-.21-14a3.84,3.84,0,0,0-3,1.39,5.9,5.9,0,0,0-1.43,3.48l0,.06h8.57v-.41a4.73,4.73,0,0,0-1.12-3.22A3.8,3.8,0,0,0,708.23,218.66Z"/><path class="cls-127" d="M729.89,231.24a4.59,4.59,0,0,0,2.84-.93,3.06,3.06,0,0,0,1.23-2.59h1.44l0,.09a4.07,4.07,0,0,1-1.61,3.43,6,6,0,0,1-3.92,1.38,5.56,5.56,0,0,1-4.62-2.07,8.34,8.34,0,0,1-1.63-5.33v-.57a8.34,8.34,0,0,1,1.63-5.31,5.56,5.56,0,0,1,4.61-2.08,7.31,7.31,0,0,1,3.09.65,6.12,6.12,0,0,1,2.29,1.75l.07,3.22H734l-.26-2.62a4.63,4.63,0,0,0-1.62-1.17,5.25,5.25,0,0,0-2.19-.43,3.9,3.9,0,0,0-3.49,1.7,7.63,7.63,0,0,0-1.13,4.29v.57a7.74,7.74,0,0,0,1.12,4.32A3.92,3.92,0,0,0,729.89,231.24Z"/><path class="cls-127" d="M738,212.22V211h3.81v9.07a5.22,5.22,0,0,1,4.79-2.81,4.43,4.43,0,0,1,3.55,1.45,6.81,6.81,0,0,1,1.24,4.5V231l2.21.18v1.2h-6v-1.2l2.21-.18v-7.77a5.16,5.16,0,0,0-.94-3.45,3.3,3.3,0,0,0-2.59-1,4.32,4.32,0,0,0-2.78.88,5.11,5.11,0,0,0-1.65,2.34v9l2.21.18v1.2h-6v-1.2l2.2-.18V212.4Z"/><path class="cls-127" d="M766.11,232.33a12.48,12.48,0,0,1-.23-1.3,8.07,8.07,0,0,1-.07-1.11,6.42,6.42,0,0,1-2.16,1.93,6.12,6.12,0,0,1-3,.77,4.69,4.69,0,0,1-3.33-1.12,4,4,0,0,1-1.17-3,3.75,3.75,0,0,1,1.74-3.25,8.25,8.25,0,0,1,4.74-1.21h3.23v-1.95a3.17,3.17,0,0,0-1-2.49,4.08,4.08,0,0,0-2.82-.9,7.09,7.09,0,0,0-2.22.33,5.13,5.13,0,0,0-1.69.91l-.13,2H756.6V219a8.24,8.24,0,0,1,2.43-1.28,9,9,0,0,1,3-.5,5.87,5.87,0,0,1,3.9,1.25,4.42,4.42,0,0,1,1.47,3.57v7.27c0,.3,0,.59,0,.87a5.28,5.28,0,0,0,.09.81l1.46.1v1.2Zm-5.33-1.16a5.9,5.9,0,0,0,3.1-.82,4.85,4.85,0,0,0,1.93-2.12v-3h-3.26a6,6,0,0,0-3.53.93,2.76,2.76,0,0,0-1.31,2.33,2.47,2.47,0,0,0,.81,1.92A3.32,3.32,0,0,0,760.78,231.17Z"/><path class="cls-127" d="M770.94,218.75v-1.21h3.64l.15,2.44a5.11,5.11,0,0,1,1.88-2,5.25,5.25,0,0,1,2.8-.72,4.23,4.23,0,0,1,4.41,3.35,5.71,5.71,0,0,1,1.89-2.45,4.88,4.88,0,0,1,3-.9,4.4,4.4,0,0,1,3.62,1.58,7.63,7.63,0,0,1,1.28,4.86v7.24l2.2.19v1.2h-6v-1.2l2.2-.19v-7.26a6.11,6.11,0,0,0-1-3.87,3.3,3.3,0,0,0-2.66-1.12,3.61,3.61,0,0,0-2.92,1.21,5.87,5.87,0,0,0-1.26,3.11v.2a1.78,1.78,0,0,1,0,.25V231l2.21.18v1.2h-6v-1.2l2.21-.18v-7.27a6,6,0,0,0-1-3.84,3.27,3.27,0,0,0-2.66-1.15,4,4,0,0,0-2.74.88,4.72,4.72,0,0,0-1.41,2.37v9l2.2.18v1.2h-6v-1.2l2.2-.18v-12Z"/><path class="cls-127" d="M797.66,224.72a8,8,0,0,1,1.77-5.36,6.32,6.32,0,0,1,9.41,0,8,8,0,0,1,1.77,5.36v.45a8,8,0,0,1-1.77,5.36,6.34,6.34,0,0,1-9.41,0,8,8,0,0,1-1.77-5.36Zm1.62.45a7.09,7.09,0,0,0,1.29,4.32,4.51,4.51,0,0,0,7.13,0,7.09,7.09,0,0,0,1.28-4.32v-.45a7.1,7.1,0,0,0-1.29-4.3,4.48,4.48,0,0,0-7.12,0,7.1,7.1,0,0,0-1.29,4.3Z"/><path class="cls-127" d="M839.21,214.83l-.08,0-7.32,17.53h-1.12l-7.31-17.44h-.08l.15,8.64V231l2.2.18v1.2h-6v-1.2l2.21-.18V213.82l-2.21-.18v-1.22H824L831.2,230h.08l7.27-17.53h4.34v1.22l-2.2.18V231l2.2.18v1.2h-6v-1.2l2.21-.18v-7.41Z"/><path class="cls-127" d="M855.27,232.33c-.11-.5-.18-.93-.23-1.3a10,10,0,0,1-.07-1.11,6.42,6.42,0,0,1-2.16,1.93,6.09,6.09,0,0,1-3,.77,4.65,4.65,0,0,1-3.32-1.12,4,4,0,0,1-1.18-3,3.75,3.75,0,0,1,1.74-3.25,8.28,8.28,0,0,1,4.74-1.21H855v-1.95a3.17,3.17,0,0,0-1-2.49,4.12,4.12,0,0,0-2.82-.9,7.1,7.1,0,0,0-2.23.33,5.33,5.33,0,0,0-1.69.91l-.13,2h-1.34V219a8.24,8.24,0,0,1,2.43-1.28,9.05,9.05,0,0,1,3-.5,5.83,5.83,0,0,1,3.9,1.25,4.42,4.42,0,0,1,1.47,3.57v7.27c0,.3,0,.59,0,.87s0,.55.09.81l1.46.1v1.2Zm-5.33-1.16a5.88,5.88,0,0,0,3.1-.82,4.79,4.79,0,0,0,1.93-2.12v-3h-3.26a6,6,0,0,0-3.52.93,2.75,2.75,0,0,0-1.32,2.33,2.45,2.45,0,0,0,.82,1.92A3.27,3.27,0,0,0,849.94,231.17Z"/><path class="cls-127" d="M864,217.54l.2,2.46v.18a5.23,5.23,0,0,1,1.7-2.14,4.24,4.24,0,0,1,2.55-.78,3.83,3.83,0,0,1,.6.05c.2,0,.35.07.48.1l-.22,1.54-1.2-.09a3.65,3.65,0,0,0-2.51.87,4.86,4.86,0,0,0-1.4,2.39V231l2.21.18v1.2h-6v-1.2l2.2-.18v-12l-2.2-.18v-1.21H864Z"/><path class="cls-127" d="M871.48,231.13l2.21-.18v-12l-2.21-.18v-1.21h3.82V231l2.2.18v1.2h-6Zm3.82-17.83h-1.61V211h1.61Z"/><path class="cls-127" d="M890.33,232.33a12.48,12.48,0,0,1-.23-1.3,8.07,8.07,0,0,1-.07-1.11,6.36,6.36,0,0,1-2.17,1.93,6.05,6.05,0,0,1-3,.77,4.69,4.69,0,0,1-3.33-1.12,4,4,0,0,1-1.18-3,3.76,3.76,0,0,1,1.75-3.25A8.23,8.23,0,0,1,886.8,224H890v-1.95a3.17,3.17,0,0,0-1-2.49,4.08,4.08,0,0,0-2.82-.9A7.09,7.09,0,0,0,884,219a5.13,5.13,0,0,0-1.69.91l-.14,2h-1.33V219a8.12,8.12,0,0,1,2.43-1.28,9,9,0,0,1,3-.5,5.82,5.82,0,0,1,3.89,1.25,4.39,4.39,0,0,1,1.48,3.57v7.27c0,.3,0,.59,0,.87a5.28,5.28,0,0,0,.09.81l1.46.1v1.2ZM885,231.17a5.84,5.84,0,0,0,3.09-.82,4.81,4.81,0,0,0,1.94-2.12v-3h-3.26a6,6,0,0,0-3.53.93,2.73,2.73,0,0,0-1.31,2.33,2.47,2.47,0,0,0,.81,1.92A3.32,3.32,0,0,0,885,231.17Z"/><path class="cls-127" d="M895.21,231.13l2.21-.18v-12l-2.21-.18v-1.21h3.64l.15,2.58a5.05,5.05,0,0,1,4.74-2.86,4.48,4.48,0,0,1,3.62,1.47,7,7,0,0,1,1.25,4.59V231l2.2.18v1.2h-6v-1.2L907,231v-7.62a5.37,5.37,0,0,0-.94-3.59,3.39,3.39,0,0,0-2.67-1.05,4.14,4.14,0,0,0-2.78.91A5,5,0,0,0,899,222V231l2.21.18v1.2h-6Z"/><path class="cls-127" d="M923.46,232.33c-.11-.5-.18-.93-.23-1.3a10,10,0,0,1-.07-1.11,6.42,6.42,0,0,1-2.16,1.93,6.09,6.09,0,0,1-3,.77,4.65,4.65,0,0,1-3.32-1.12,4,4,0,0,1-1.18-3,3.75,3.75,0,0,1,1.74-3.25,8.28,8.28,0,0,1,4.74-1.21h3.23v-1.95a3.17,3.17,0,0,0-1-2.49,4.12,4.12,0,0,0-2.82-.9,7.1,7.1,0,0,0-2.23.33,5.17,5.17,0,0,0-1.68.91l-.14,2H914V219a8.24,8.24,0,0,1,2.43-1.28,9.05,9.05,0,0,1,3-.5,5.83,5.83,0,0,1,3.9,1.25,4.42,4.42,0,0,1,1.47,3.57v7.27c0,.3,0,.59,0,.87s.05.55.09.81l1.46.1v1.2Zm-5.33-1.16a5.88,5.88,0,0,0,3.1-.82,4.79,4.79,0,0,0,1.93-2.12v-3H919.9a6,6,0,0,0-3.52.93,2.75,2.75,0,0,0-1.32,2.33,2.45,2.45,0,0,0,.82,1.92A3.27,3.27,0,0,0,918.13,231.17Z"/><path class="cls-127" d="M941.84,232.62a5.85,5.85,0,0,1-4.58-2.05,7.52,7.52,0,0,1-1.81-5.2v-.75a7.73,7.73,0,0,1,1.81-5.26,5.54,5.54,0,0,1,4.36-2.1,5.38,5.38,0,0,1,4.23,1.73,6.62,6.62,0,0,1,1.55,4.59V225H937.06v.39a6.59,6.59,0,0,0,1.32,4.18,4.2,4.2,0,0,0,3.46,1.69,6.85,6.85,0,0,0,2.57-.43,5.09,5.09,0,0,0,1.82-1.21l.69,1.12a5.83,5.83,0,0,1-2.08,1.38A7.78,7.78,0,0,1,941.84,232.62Zm-.22-14a3.85,3.85,0,0,0-3,1.39,6,6,0,0,0-1.43,3.48l0,.06h8.58v-.41a4.74,4.74,0,0,0-1.13-3.22A3.8,3.8,0,0,0,941.62,218.66Z"/><path class="cls-127" d="M961.28,218.75l-1.83.14,3.66,9.74.47,1.73h.08l.51-1.73,3.6-9.74-1.82-.14v-1.21h4.92v1.21l-1.43.13-5.17,13.45H963l-5.18-13.45-1.44-.13v-1.21h4.93Z"/><path class="cls-127" d="M972.46,224.72a8,8,0,0,1,1.77-5.36,6.31,6.31,0,0,1,9.4,0,8,8,0,0,1,1.77,5.36v.45a8,8,0,0,1-1.76,5.36,6.34,6.34,0,0,1-9.41,0,8,8,0,0,1-1.77-5.36Zm1.62.45a7.16,7.16,0,0,0,1.28,4.32,4.23,4.23,0,0,0,3.59,1.75,4.15,4.15,0,0,0,3.54-1.75,7.09,7.09,0,0,0,1.29-4.32v-.45a7.1,7.1,0,0,0-1.29-4.3,4.49,4.49,0,0,0-7.13,0,7.16,7.16,0,0,0-1.28,4.3Z"/><path class="cls-127" d="M998.8,229.9a5.09,5.09,0,0,1-1.89,2,5.47,5.47,0,0,1-2.82.71,4.43,4.43,0,0,1-3.62-1.59,7.68,7.68,0,0,1-1.3-4.92v-7.18l-1.82-.18v-1.21h3.43v8.6a6.4,6.4,0,0,0,.91,3.88,3.1,3.1,0,0,0,2.59,1.18,4.8,4.8,0,0,0,2.93-.82,4.31,4.31,0,0,0,1.53-2.27v-9.18l-2.08-.18v-1.21h3.71V231l2,.18v1.2H999Z"/><path class="cls-127" d="M588.81,265.93c-.11-.5-.18-.93-.23-1.3a10,10,0,0,1-.07-1.11,6.42,6.42,0,0,1-2.16,1.93,6.09,6.09,0,0,1-3.05.77A4.65,4.65,0,0,1,580,265.1a4,4,0,0,1-1.18-3,3.75,3.75,0,0,1,1.74-3.25,8.28,8.28,0,0,1,4.74-1.21h3.23v-2a3.17,3.17,0,0,0-1-2.49,4.12,4.12,0,0,0-2.82-.9,7.1,7.1,0,0,0-2.23.33,5.33,5.33,0,0,0-1.69.91l-.13,2H579.3v-2.84a8.24,8.24,0,0,1,2.43-1.28,9.05,9.05,0,0,1,3-.5,5.83,5.83,0,0,1,3.9,1.25,4.42,4.42,0,0,1,1.47,3.57V263c0,.3,0,.59,0,.87s.05.55.09.81l1.46.1v1.2Zm-5.33-1.16a5.88,5.88,0,0,0,3.1-.82,4.84,4.84,0,0,0,1.93-2.12v-3h-3.26a6.06,6.06,0,0,0-3.52.92,2.77,2.77,0,0,0-1.32,2.34,2.45,2.45,0,0,0,.82,1.92A3.27,3.27,0,0,0,583.48,264.77Z"/><path class="cls-127" d="M600.24,264.84a4.6,4.6,0,0,0,2.85-.93,3.06,3.06,0,0,0,1.23-2.59h1.43l0,.08a4.11,4.11,0,0,1-1.62,3.44,6,6,0,0,1-3.92,1.38,5.54,5.54,0,0,1-4.61-2.07,8.35,8.35,0,0,1-1.64-5.33v-.57a8.35,8.35,0,0,1,1.64-5.31,5.54,5.54,0,0,1,4.6-2.08,7.35,7.35,0,0,1,3.1.65,6.12,6.12,0,0,1,2.29,1.75l.06,3.22H604.3l-.25-2.62a4.82,4.82,0,0,0-1.62-1.17,5.33,5.33,0,0,0-2.2-.43,3.89,3.89,0,0,0-3.48,1.7,7.55,7.55,0,0,0-1.13,4.29v.57a7.66,7.66,0,0,0,1.12,4.32A3.91,3.91,0,0,0,600.24,264.84Z"/><path class="cls-127" d="M608.8,258.31a8,8,0,0,1,1.77-5.35,6.31,6.31,0,0,1,9.4,0,8,8,0,0,1,1.77,5.35v.46a8,8,0,0,1-1.76,5.36,6.34,6.34,0,0,1-9.41,0,8,8,0,0,1-1.77-5.36Zm1.62.46a7.16,7.16,0,0,0,1.28,4.32,4.23,4.23,0,0,0,3.59,1.75,4.15,4.15,0,0,0,3.54-1.75,7.09,7.09,0,0,0,1.29-4.32v-.46a7.09,7.09,0,0,0-1.29-4.29,4.49,4.49,0,0,0-7.13,0,7.15,7.15,0,0,0-1.28,4.29Z"/><path class="cls-127" d="M624,252.35v-1.21h3.64l.15,2.44a5.21,5.21,0,0,1,1.88-2,5.34,5.34,0,0,1,2.8-.71,4.6,4.6,0,0,1,2.8.83,4.53,4.53,0,0,1,1.61,2.52,5.71,5.71,0,0,1,1.89-2.45,4.88,4.88,0,0,1,3-.9,4.4,4.4,0,0,1,3.62,1.58,7.63,7.63,0,0,1,1.28,4.86v7.24l2.21.19v1.2h-6v-1.2l2.2-.19v-7.26a6.11,6.11,0,0,0-.95-3.87,3.3,3.3,0,0,0-2.66-1.12,3.61,3.61,0,0,0-2.92,1.21,5.87,5.87,0,0,0-1.26,3.11,1.27,1.27,0,0,0,0,.2v7.74l2.21.18v1.2h-6v-1.2l2.21-.18v-7.27a6,6,0,0,0-1-3.84,3.27,3.27,0,0,0-2.66-1.15,4,4,0,0,0-2.74.88,4.72,4.72,0,0,0-1.41,2.37v9l2.2.18v1.2h-6v-1.2l2.21-.18v-12Z"/><path class="cls-127" d="M650.45,252.35v-1.21H654l.21,2.29a5.11,5.11,0,0,1,4.61-2.57A4.77,4.77,0,0,1,663,253a9.74,9.74,0,0,1,1.48,5.67v.28a8.61,8.61,0,0,1-1.48,5.3,4.86,4.86,0,0,1-4.1,2,5.78,5.78,0,0,1-2.7-.6,5,5,0,0,1-1.89-1.69v6.29l2.21.18v1.22h-6V270.4l2.21-.18V252.53Zm12.37,6.31a8.58,8.58,0,0,0-1.11-4.6,3.6,3.6,0,0,0-3.25-1.77,4.24,4.24,0,0,0-2.65.78,4.79,4.79,0,0,0-1.54,2.05v7.11a4.48,4.48,0,0,0,1.6,1.91,4.67,4.67,0,0,0,2.62.7,3.66,3.66,0,0,0,3.23-1.62,7.48,7.48,0,0,0,1.1-4.28Z"/><path class="cls-127" d="M677.19,265.93a12.48,12.48,0,0,1-.23-1.3,8.07,8.07,0,0,1-.07-1.11,6.42,6.42,0,0,1-2.16,1.93,6.12,6.12,0,0,1-3.05.77,4.69,4.69,0,0,1-3.33-1.12,4,4,0,0,1-1.17-3,3.75,3.75,0,0,1,1.74-3.25,8.25,8.25,0,0,1,4.74-1.21h3.23v-2a3.14,3.14,0,0,0-1-2.49,4.08,4.08,0,0,0-2.82-.9,7.09,7.09,0,0,0-2.22.33,5.13,5.13,0,0,0-1.69.91l-.13,2h-1.34v-2.84a8.24,8.24,0,0,1,2.43-1.28,9.05,9.05,0,0,1,3-.5,5.87,5.87,0,0,1,3.9,1.25,4.42,4.42,0,0,1,1.47,3.57V263c0,.3,0,.59,0,.87a6.92,6.92,0,0,0,.09.81l1.46.1v1.2Zm-5.33-1.16A5.9,5.9,0,0,0,675,264a4.9,4.9,0,0,0,1.93-2.12v-3h-3.26a6.06,6.06,0,0,0-3.52.92,2.77,2.77,0,0,0-1.32,2.34,2.45,2.45,0,0,0,.82,1.92A3.27,3.27,0,0,0,671.86,264.77Z"/><path class="cls-127" d="M682.07,264.73l2.21-.18v-12l-2.21-.18v-1.21h3.64l.15,2.58a5.34,5.34,0,0,1,1.9-2.11,5.26,5.26,0,0,1,2.84-.75,4.47,4.47,0,0,1,3.62,1.47,7,7,0,0,1,1.25,4.59v7.63l2.2.18v1.2h-6v-1.2l2.21-.18v-7.62a5.36,5.36,0,0,0-1-3.59,3.38,3.38,0,0,0-2.67-1.05,4.2,4.2,0,0,0-2.78.9,5.08,5.08,0,0,0-1.55,2.42v8.94l2.21.18v1.2h-6Z"/><path class="cls-127" d="M699.74,245.82V244.6h3.82v9.07a5.22,5.22,0,0,1,4.79-2.81,4.44,4.44,0,0,1,3.55,1.45,6.81,6.81,0,0,1,1.24,4.5v7.74l2.2.18v1.2h-6v-1.2l2.21-.18v-7.77a5.1,5.1,0,0,0-.95-3.45,3.28,3.28,0,0,0-2.59-1,4.34,4.34,0,0,0-2.78.88,5.16,5.16,0,0,0-1.64,2.34v9l2.2.18v1.2h-6v-1.2l2.21-.18V246Z"/><path class="cls-127" d="M727.89,265.93a12.48,12.48,0,0,1-.23-1.3,8.07,8.07,0,0,1-.07-1.11,6.45,6.45,0,0,1-2.17,1.93,6.05,6.05,0,0,1-3,.77,4.67,4.67,0,0,1-3.33-1.12,4,4,0,0,1-1.18-3,3.76,3.76,0,0,1,1.75-3.25,8.22,8.22,0,0,1,4.73-1.21h3.24v-2a3.17,3.17,0,0,0-1-2.49,4.08,4.08,0,0,0-2.82-.9,7.19,7.19,0,0,0-2.23.33,5.17,5.17,0,0,0-1.68.91l-.14,2h-1.34l0-2.84a8,8,0,0,1,2.43-1.28,9,9,0,0,1,3-.5,5.82,5.82,0,0,1,3.89,1.25,4.39,4.39,0,0,1,1.48,3.57V263c0,.3,0,.59,0,.87a5.28,5.28,0,0,0,.09.81l1.46.1v1.2Zm-5.33-1.16a5.84,5.84,0,0,0,3.09-.82,4.87,4.87,0,0,0,1.94-2.12v-3h-3.26a6.1,6.1,0,0,0-3.53.92,2.77,2.77,0,0,0-1.32,2.34,2.48,2.48,0,0,0,.82,1.92A3.32,3.32,0,0,0,722.56,264.77Zm2.74-19.28h2l0,.08L724,249.13h-1.45Z"/><path class="cls-127" d="M740.31,258.14h-6.47v-1.38h6.47Z"/><path class="cls-127" d="M743.47,245.82V244.6h3.82v20l2.2.18v1.2h-6v-1.2l2.21-.18V246Z"/><path class="cls-127" d="M751.78,258.31a8,8,0,0,1,1.77-5.35,6.32,6.32,0,0,1,9.41,0,8,8,0,0,1,1.77,5.35v.46a8,8,0,0,1-1.77,5.36,6.34,6.34,0,0,1-9.41,0,8,8,0,0,1-1.77-5.36Zm1.62.46a7.09,7.09,0,0,0,1.29,4.32,4.51,4.51,0,0,0,7.13,0,7.09,7.09,0,0,0,1.28-4.32v-.46a7.09,7.09,0,0,0-1.29-4.29,4.48,4.48,0,0,0-7.12,0,7.09,7.09,0,0,0-1.29,4.29Z"/><path class="cls-127" d="M778,255.7h-1.33l-.19-2.09a4.11,4.11,0,0,0-1.53-1,6.1,6.1,0,0,0-2.13-.35,4,4,0,0,0-2.66.77,2.35,2.35,0,0,0-.89,1.81,2.19,2.19,0,0,0,.76,1.7,7.42,7.42,0,0,0,3.06,1.17,9.91,9.91,0,0,1,3.91,1.61,3.35,3.35,0,0,1,1.3,2.77,3.61,3.61,0,0,1-1.49,3,6.22,6.22,0,0,1-3.91,1.14,9.19,9.19,0,0,1-3-.46,7.2,7.2,0,0,1-2.31-1.29v-3h1.32l.23,2.1a3.67,3.67,0,0,0,1.64,1,7.17,7.17,0,0,0,2.08.3,4.45,4.45,0,0,0,2.77-.78,2.32,2.32,0,0,0,1-1.89,2.43,2.43,0,0,0-.85-1.82,6.82,6.82,0,0,0-3.05-1.27,10.31,10.31,0,0,1-3.88-1.52,3.15,3.15,0,0,1-1.26-2.66,3.58,3.58,0,0,1,1.42-2.87,5.7,5.7,0,0,1,3.75-1.17,8.4,8.4,0,0,1,2.94.5,6,6,0,0,1,2.17,1.35Z"/><path class="cls-127" d="M787.68,264.73l2.2-.18v-12l-2.2-.18v-1.21h3.63l.15,2.58a5.34,5.34,0,0,1,1.9-2.11,5.26,5.26,0,0,1,2.84-.75,4.49,4.49,0,0,1,3.63,1.47,7.07,7.07,0,0,1,1.24,4.59v7.63l2.21.18v1.2h-6v-1.2l2.21-.18v-7.62a5.42,5.42,0,0,0-.94-3.59,3.41,3.41,0,0,0-2.68-1.05,4.2,4.2,0,0,0-2.78.9,5.16,5.16,0,0,0-1.55,2.42v8.94l2.21.18v1.2h-6Z"/><path class="cls-127" d="M815.93,265.93a12.48,12.48,0,0,1-.23-1.3,8.07,8.07,0,0,1-.07-1.11,6.45,6.45,0,0,1-2.17,1.93,6.05,6.05,0,0,1-3,.77,4.67,4.67,0,0,1-3.33-1.12,4,4,0,0,1-1.18-3,3.76,3.76,0,0,1,1.75-3.25,8.22,8.22,0,0,1,4.73-1.21h3.24v-2a3.17,3.17,0,0,0-1-2.49,4.08,4.08,0,0,0-2.82-.9,7.19,7.19,0,0,0-2.23.33,5.17,5.17,0,0,0-1.68.91l-.14,2h-1.34l0-2.84a8,8,0,0,1,2.43-1.28,9,9,0,0,1,3-.5,5.82,5.82,0,0,1,3.89,1.25,4.39,4.39,0,0,1,1.48,3.57V263c0,.3,0,.59,0,.87a5.28,5.28,0,0,0,.09.81l1.46.1v1.2Zm-5.33-1.16a5.84,5.84,0,0,0,3.09-.82,4.87,4.87,0,0,0,1.94-2.12v-3h-3.26a6.1,6.1,0,0,0-3.53.92,2.77,2.77,0,0,0-1.32,2.34,2.48,2.48,0,0,0,.82,1.92A3.32,3.32,0,0,0,810.6,264.77Z"/><path class="cls-127" d="M834.3,266.22a5.83,5.83,0,0,1-4.57-2.05,7.53,7.53,0,0,1-1.82-5.2v-.75a7.76,7.76,0,0,1,1.81-5.26,5.56,5.56,0,0,1,4.36-2.1,5.4,5.4,0,0,1,4.24,1.73,6.6,6.6,0,0,1,1.54,4.59v1.39H829.52v.4a6.59,6.59,0,0,0,1.32,4.18,4.2,4.2,0,0,0,3.46,1.69,7,7,0,0,0,2.57-.43,5.22,5.22,0,0,0,1.83-1.21l.69,1.12a5.87,5.87,0,0,1-2.09,1.38A7.78,7.78,0,0,1,834.3,266.22Zm-.22-14a3.85,3.85,0,0,0-3,1.39,6,6,0,0,0-1.42,3.48l0,.06h8.58v-.41a4.73,4.73,0,0,0-1.12-3.22A3.82,3.82,0,0,0,834.08,252.26Z"/><path class="cls-127" d="M842.43,264.73l1.64-.15,4.63-6.18-4.42-5.9-1.65-.15v-1.21h5v1.21l-1.52.09,3.5,4.74,3.5-4.76-1.5-.07v-1.21h5v1.21l-1.63.15-4.41,5.9,4.61,6.18,1.65.15v1.2h-5v-1.2l1.5-.07-3.72-5-3.71,5,1.5.07v1.2h-5Z"/><path class="cls-127" d="M858.45,252.35v-1.21H862l.2,2.29a5.11,5.11,0,0,1,4.62-2.57A4.74,4.74,0,0,1,871,253a9.74,9.74,0,0,1,1.49,5.67v.28a8.61,8.61,0,0,1-1.49,5.3,4.84,4.84,0,0,1-4.1,2,5.81,5.81,0,0,1-2.7-.6,4.85,4.85,0,0,1-1.88-1.69v6.29l2.2.18v1.22h-6V270.4l2.21-.18V252.53Zm12.37,6.31a8.58,8.58,0,0,0-1.11-4.6,3.6,3.6,0,0,0-3.25-1.77,4.27,4.27,0,0,0-2.66.78,4.85,4.85,0,0,0-1.53,2.05v7.11a4.48,4.48,0,0,0,1.6,1.91,4.67,4.67,0,0,0,2.62.7,3.67,3.67,0,0,0,3.23-1.62,7.48,7.48,0,0,0,1.1-4.28Z"/><path class="cls-127" d="M874.62,245.82V244.6h3.81v20l2.21.18v1.2h-6v-1.2l2.2-.18V246Z"/><path class="cls-127" d="M882.93,258.31A8,8,0,0,1,884.7,253a6.31,6.31,0,0,1,9.4,0,8,8,0,0,1,1.77,5.35v.46a8,8,0,0,1-1.76,5.36,6.34,6.34,0,0,1-9.41,0,8,8,0,0,1-1.77-5.36Zm1.62.46a7.09,7.09,0,0,0,1.29,4.32,4.51,4.51,0,0,0,7.13,0,7.16,7.16,0,0,0,1.28-4.32v-.46A7.09,7.09,0,0,0,893,254a4.48,4.48,0,0,0-7.12,0,7.09,7.09,0,0,0-1.29,4.29Z"/><path class="cls-127" d="M902,251.14l.2,2.46v.18a5.17,5.17,0,0,1,1.7-2.14,4.24,4.24,0,0,1,2.55-.78,3.83,3.83,0,0,1,.6,0c.2,0,.35.07.48.1l-.22,1.54-1.2-.09a3.63,3.63,0,0,0-2.51.87,4.86,4.86,0,0,0-1.4,2.39v8.83l2.21.18v1.2h-6v-1.2l2.21-.18v-12l-2.21-.18v-1.21H902Z"/><path class="cls-127" d="M919.75,265.93c-.1-.5-.18-.93-.23-1.3a10,10,0,0,1-.06-1.11,6.45,6.45,0,0,1-2.17,1.93,6.05,6.05,0,0,1-3,.77,4.65,4.65,0,0,1-3.33-1.12,4,4,0,0,1-1.18-3,3.74,3.74,0,0,1,1.75-3.25,8.22,8.22,0,0,1,4.73-1.21h3.24v-2a3.17,3.17,0,0,0-1-2.49,4.08,4.08,0,0,0-2.82-.9,7.15,7.15,0,0,0-2.23.33,5.17,5.17,0,0,0-1.68.91l-.14,2h-1.34l0-2.84a8,8,0,0,1,2.43-1.28,9,9,0,0,1,3-.5,5.82,5.82,0,0,1,3.89,1.25,4.39,4.39,0,0,1,1.48,3.57V263c0,.3,0,.59,0,.87a5.28,5.28,0,0,0,.09.81l1.46.1v1.2Zm-5.33-1.16a5.85,5.85,0,0,0,3.1-.82,4.87,4.87,0,0,0,1.94-2.12v-3H916.2a6.1,6.1,0,0,0-3.53.92,2.77,2.77,0,0,0-1.32,2.34,2.48,2.48,0,0,0,.82,1.92A3.31,3.31,0,0,0,914.42,264.77Z"/><path class="cls-127" d="M931.19,264.84a4.59,4.59,0,0,0,2.84-.93,3.06,3.06,0,0,0,1.23-2.59h1.43l0,.08a4.06,4.06,0,0,1-1.62,3.44,6,6,0,0,1-3.91,1.38,5.56,5.56,0,0,1-4.62-2.07,8.34,8.34,0,0,1-1.63-5.33v-.57a8.34,8.34,0,0,1,1.63-5.31,5.56,5.56,0,0,1,4.6-2.08,7.35,7.35,0,0,1,3.1.65,6.12,6.12,0,0,1,2.29,1.75l.07,3.22h-1.38l-.26-2.62a4.63,4.63,0,0,0-1.62-1.17,5.3,5.3,0,0,0-2.2-.43,3.89,3.89,0,0,0-3.48,1.7,7.63,7.63,0,0,0-1.13,4.29v.57a7.74,7.74,0,0,0,1.12,4.32A3.92,3.92,0,0,0,931.19,264.84Zm.42,1.21-.15.88a3.18,3.18,0,0,1,1.72.66,2,2,0,0,1,.66,1.68,2.32,2.32,0,0,1-1.07,2,5.36,5.36,0,0,1-3.06.74l-.09-1.07a4.45,4.45,0,0,0,2-.41,1.33,1.33,0,0,0,.84-1.23,1.12,1.12,0,0,0-.56-1.08,5.07,5.07,0,0,0-2-.42l.38-1.74Z"/><path class="cls-127" d="M949.85,265.93a12.48,12.48,0,0,1-.23-1.3,8.07,8.07,0,0,1-.07-1.11,6.45,6.45,0,0,1-2.17,1.93,6.05,6.05,0,0,1-3,.77A4.67,4.67,0,0,1,941,265.1a4,4,0,0,1-1.18-3,3.76,3.76,0,0,1,1.75-3.25,8.22,8.22,0,0,1,4.73-1.21h3.24v-2a3.17,3.17,0,0,0-1-2.49,4.08,4.08,0,0,0-2.82-.9,7.19,7.19,0,0,0-2.23.33,5.17,5.17,0,0,0-1.68.91l-.14,2h-1.34l0-2.84a8,8,0,0,1,2.43-1.28,9,9,0,0,1,3-.5,5.82,5.82,0,0,1,3.89,1.25,4.39,4.39,0,0,1,1.48,3.57V263c0,.3,0,.59,0,.87a5.28,5.28,0,0,0,.09.81l1.46.1v1.2Zm.58-20.49a2.78,2.78,0,0,1-.75,2,2.42,2.42,0,0,1-1.85.8,3.49,3.49,0,0,1-2-.76,3.28,3.28,0,0,0-1.78-.75,1.39,1.39,0,0,0-1.07.48,1.78,1.78,0,0,0-.43,1.22l-1.07-.25a2.88,2.88,0,0,1,.73-2,2.39,2.39,0,0,1,1.84-.8,3.72,3.72,0,0,1,2,.76,3.56,3.56,0,0,0,1.82.75,1.43,1.43,0,0,0,1.07-.49,1.79,1.79,0,0,0,.45-1.25Zm-5.91,19.33a5.84,5.84,0,0,0,3.09-.82,4.87,4.87,0,0,0,1.94-2.12v-3h-3.26a6.1,6.1,0,0,0-3.53.92,2.77,2.77,0,0,0-1.32,2.34,2.48,2.48,0,0,0,.82,1.92A3.32,3.32,0,0,0,944.52,264.77Z"/><path class="cls-127" d="M955,258.31A8,8,0,0,1,956.8,253a6.31,6.31,0,0,1,9.4,0,8,8,0,0,1,1.78,5.35v.46a8,8,0,0,1-1.77,5.36,6.34,6.34,0,0,1-9.41,0,8,8,0,0,1-1.77-5.36Zm1.62.46a7.09,7.09,0,0,0,1.29,4.32,4.51,4.51,0,0,0,7.13,0,7.16,7.16,0,0,0,1.28-4.32v-.46a7.09,7.09,0,0,0-1.29-4.29,4.48,4.48,0,0,0-7.12,0,7.09,7.09,0,0,0-1.29,4.29Z"/><path class="cls-127" d="M987.53,263.8a5.19,5.19,0,0,1-1.88,1.79,5.56,5.56,0,0,1-2.71.63,4.83,4.83,0,0,1-4.11-2,8.67,8.67,0,0,1-1.48-5.29v-.28a9.81,9.81,0,0,1,1.48-5.67,4.76,4.76,0,0,1,4.14-2.13,5.23,5.23,0,0,1,2.65.65,5.37,5.37,0,0,1,1.87,1.86V246l-2.21-.18V244.6h3.83v20l2.21.18v1.2h-3.66ZM979,258.94a7.56,7.56,0,0,0,1.06,4.27,3.6,3.6,0,0,0,3.2,1.59,4.51,4.51,0,0,0,2.61-.72,4.68,4.68,0,0,0,1.63-1.95v-7a5.1,5.1,0,0,0-1.57-2,4.17,4.17,0,0,0-2.64-.79,3.5,3.5,0,0,0-3.21,1.77,8.73,8.73,0,0,0-1.08,4.6Z"/><path class="cls-127" d="M993.81,258.31a8,8,0,0,1,1.77-5.35,6.31,6.31,0,0,1,9.4,0,8,8,0,0,1,1.77,5.35v.46a8,8,0,0,1-1.76,5.36,6.34,6.34,0,0,1-9.41,0,8,8,0,0,1-1.77-5.36Zm1.62.46a7.16,7.16,0,0,0,1.28,4.32,4.23,4.23,0,0,0,3.59,1.75,4.15,4.15,0,0,0,3.54-1.75,7.09,7.09,0,0,0,1.29-4.32v-.46a7.09,7.09,0,0,0-1.29-4.29,4.49,4.49,0,0,0-7.13,0,7.15,7.15,0,0,0-1.28,4.29Z"/><path class="cls-127" d="M1020,255.7h-1.32l-.19-2.09a4.15,4.15,0,0,0-1.54-1,6.1,6.1,0,0,0-2.13-.35,4,4,0,0,0-2.66.77,2.34,2.34,0,0,0-.88,1.81,2.16,2.16,0,0,0,.76,1.7,7.42,7.42,0,0,0,3.05,1.17,9.84,9.84,0,0,1,3.91,1.61,3.32,3.32,0,0,1,1.3,2.77,3.6,3.6,0,0,1-1.48,3,6.25,6.25,0,0,1-3.92,1.14,9.13,9.13,0,0,1-2.95-.46,7.2,7.2,0,0,1-2.31-1.29v-3H1011l.23,2.1a3.65,3.65,0,0,0,1.65,1,7.1,7.1,0,0,0,2.07.3,4.48,4.48,0,0,0,2.78-.78,2.33,2.33,0,0,0,1-1.89,2.39,2.39,0,0,0-.85-1.82,6.82,6.82,0,0,0-3.05-1.27,10.18,10.18,0,0,1-3.87-1.52,3.13,3.13,0,0,1-1.27-2.66,3.61,3.61,0,0,1,1.42-2.87,5.72,5.72,0,0,1,3.75-1.17,8.36,8.36,0,0,1,2.94.5,6,6,0,0,1,2.18,1.35Z"/><path class="cls-127" d="M578.27,286v-1.21h3.56L582,287a5.11,5.11,0,0,1,4.62-2.57,4.74,4.74,0,0,1,4.12,2.13,9.66,9.66,0,0,1,1.49,5.67v.28a8.55,8.55,0,0,1-1.49,5.3,4.84,4.84,0,0,1-4.1,2,5.84,5.84,0,0,1-2.7-.6,4.85,4.85,0,0,1-1.88-1.69v6.29l2.2.18v1.22h-6V304l2.21-.18V286.13Zm12.37,6.31a8.58,8.58,0,0,0-1.11-4.6,3.6,3.6,0,0,0-3.25-1.77,4.27,4.27,0,0,0-2.66.78,4.85,4.85,0,0,0-1.53,2.05v7.11a4.48,4.48,0,0,0,1.6,1.91,4.67,4.67,0,0,0,2.62.7,3.67,3.67,0,0,0,3.23-1.62,7.48,7.48,0,0,0,1.1-4.28Z"/><path class="cls-127" d="M594.79,298.33l2.21-.18v-12l-2.21-.18v-1.21h3.82v13.41l2.2.18v1.2h-6Zm3.82-17.83H597v-2.3h1.61Z"/><path class="cls-127" d="M603.21,279.42V278.2H607v19.95l2.21.18v1.2h-6v-1.2l2.2-.18V279.6Z"/><path class="cls-127" d="M621.89,299.53c-.11-.5-.18-.93-.23-1.3a10,10,0,0,1-.07-1.11,6.42,6.42,0,0,1-2.16,1.93,6.09,6.09,0,0,1-3,.77,4.65,4.65,0,0,1-3.32-1.12,4,4,0,0,1-1.18-3,3.75,3.75,0,0,1,1.74-3.25,8.28,8.28,0,0,1,4.74-1.21h3.23v-1.95a3.17,3.17,0,0,0-1-2.49,4.12,4.12,0,0,0-2.82-.9,7.1,7.1,0,0,0-2.23.33,5.33,5.33,0,0,0-1.69.91l-.13,2h-1.34v-2.85a8.24,8.24,0,0,1,2.43-1.28,9.05,9.05,0,0,1,3-.5,5.83,5.83,0,0,1,3.9,1.25,4.42,4.42,0,0,1,1.47,3.57v7.27c0,.3,0,.59,0,.87s0,.55.09.81l1.46.1v1.2Zm-5.33-1.16a5.79,5.79,0,0,0,3.1-.82,4.79,4.79,0,0,0,1.93-2.12v-3h-3.26a6,6,0,0,0-3.52.93,2.75,2.75,0,0,0-1.32,2.33,2.45,2.45,0,0,0,.82,1.92A3.27,3.27,0,0,0,616.56,298.37Z"/><path class="cls-127" d="M630.58,284.74l.2,2.46v.18a5.23,5.23,0,0,1,1.7-2.14,4.24,4.24,0,0,1,2.55-.78,3.83,3.83,0,0,1,.6.05c.2,0,.35.07.48.1l-.21,1.54-1.21-.09a3.65,3.65,0,0,0-2.51.87,4.86,4.86,0,0,0-1.4,2.39v8.83l2.21.18v1.2h-6v-1.2l2.2-.18v-12L627,286v-1.21h3.61Z"/><path class="cls-127" d="M644.41,299.82a5.83,5.83,0,0,1-4.58-2.05,7.52,7.52,0,0,1-1.81-5.2v-.75a7.73,7.73,0,0,1,1.81-5.26,5.54,5.54,0,0,1,4.36-2.1,5.38,5.38,0,0,1,4.23,1.73,6.62,6.62,0,0,1,1.55,4.59v1.4H639.63v.39a6.59,6.59,0,0,0,1.32,4.18,4.2,4.2,0,0,0,3.46,1.69A6.85,6.85,0,0,0,647,298a5.09,5.09,0,0,0,1.82-1.21l.69,1.12a6,6,0,0,1-2.08,1.39A8,8,0,0,1,644.41,299.82Zm-.22-14a3.84,3.84,0,0,0-3,1.39,6,6,0,0,0-1.43,3.48l0,.06h8.58v-.41a4.74,4.74,0,0,0-1.13-3.22A3.8,3.8,0,0,0,644.19,285.86Z"/><path class="cls-127" d="M663.48,289.3h-1.32l-.19-2.09a4.15,4.15,0,0,0-1.54-1,6.1,6.1,0,0,0-2.13-.35,4,4,0,0,0-2.66.77,2.34,2.34,0,0,0-.88,1.81,2.16,2.16,0,0,0,.76,1.7,7.42,7.42,0,0,0,3.05,1.17,10,10,0,0,1,3.91,1.61,3.32,3.32,0,0,1,1.3,2.77,3.59,3.59,0,0,1-1.48,3,6.25,6.25,0,0,1-3.92,1.14,8.87,8.87,0,0,1-3-.46,7.2,7.2,0,0,1-2.31-1.29v-3h1.31l.23,2.1a3.65,3.65,0,0,0,1.65.95,7.1,7.1,0,0,0,2.07.3,4.48,4.48,0,0,0,2.78-.78,2.33,2.33,0,0,0,1-1.89,2.39,2.39,0,0,0-.85-1.82,6.82,6.82,0,0,0-3.05-1.27,10.18,10.18,0,0,1-3.87-1.52,3.13,3.13,0,0,1-1.27-2.66,3.61,3.61,0,0,1,1.42-2.87,5.72,5.72,0,0,1,3.75-1.17,8.4,8.4,0,0,1,2.94.5,6,6,0,0,1,2.18,1.35Z"/><path class="cls-127" d="M683.64,297.4a5,5,0,0,1-1.88,1.79,5.52,5.52,0,0,1-2.7.63,4.85,4.85,0,0,1-4.11-2,8.65,8.65,0,0,1-1.48-5.3v-.28a9.74,9.74,0,0,1,1.48-5.67,4.75,4.75,0,0,1,4.13-2.13,5.2,5.2,0,0,1,2.65.65A5.28,5.28,0,0,1,683.6,287V279.6l-2.2-.18V278.2h3.83v19.95l2.2.18v1.2h-3.65Zm-8.54-4.86a7.56,7.56,0,0,0,1.07,4.27,3.59,3.59,0,0,0,3.2,1.59,4.57,4.57,0,0,0,2.6-.71,4.77,4.77,0,0,0,1.63-2v-7a5.08,5.08,0,0,0-1.56-2.05,4.18,4.18,0,0,0-2.65-.79,3.52,3.52,0,0,0-3.21,1.77,8.73,8.73,0,0,0-1.08,4.6Z"/><path class="cls-127" d="M689.92,291.92a8,8,0,0,1,1.77-5.36,6.32,6.32,0,0,1,9.41,0,8,8,0,0,1,1.77,5.36v.45a8,8,0,0,1-1.77,5.36,5.83,5.83,0,0,1-4.69,2.09,5.89,5.89,0,0,1-4.72-2.09,8,8,0,0,1-1.77-5.36Zm1.62.45a7.09,7.09,0,0,0,1.29,4.32,4.51,4.51,0,0,0,7.13,0,7.09,7.09,0,0,0,1.28-4.32v-.45a7.1,7.1,0,0,0-1.29-4.3,4.48,4.48,0,0,0-7.12,0,7.1,7.1,0,0,0-1.29,4.3Z"/><path class="cls-127" d="M720.2,279.62a6.75,6.75,0,0,1,4.8,1.6,6.1,6.1,0,0,1,0,8.45,6.75,6.75,0,0,1-4.8,1.59h-4.49v6.89l2.2.18v1.2h-6v-1.2l2.21-.18V281l-2.21-.18v-1.22h8.31Zm-4.49,10.24h4.49a4.89,4.89,0,0,0,3.66-1.25,4.3,4.3,0,0,0,1.23-3.15,4.43,4.43,0,0,0-1.22-3.18A4.89,4.89,0,0,0,720.2,281h-4.49Z"/><path class="cls-127" d="M735.79,299.82a5.81,5.81,0,0,1-4.57-2.05,7.53,7.53,0,0,1-1.82-5.2v-.75a7.73,7.73,0,0,1,1.81-5.26,5.56,5.56,0,0,1,4.36-2.1,5.4,5.4,0,0,1,4.24,1.73,6.67,6.67,0,0,1,1.54,4.59v1.4H731v.39a6.59,6.59,0,0,0,1.32,4.18,4.2,4.2,0,0,0,3.46,1.69,6.81,6.81,0,0,0,2.57-.43,5.22,5.22,0,0,0,1.83-1.21l.69,1.12a6.12,6.12,0,0,1-2.09,1.39A8,8,0,0,1,735.79,299.82Zm-.22-14a3.85,3.85,0,0,0-3,1.39,6,6,0,0,0-1.43,3.48l0,.06h8.58v-.41a4.78,4.78,0,0,0-1.12-3.22A3.82,3.82,0,0,0,735.57,285.86Z"/><path class="cls-127" d="M744,298.33l2.2-.18v-12L744,286v-1.21h3.64l.14,2.58a5.29,5.29,0,0,1,1.91-2.11,5.2,5.2,0,0,1,2.83-.75,4.49,4.49,0,0,1,3.63,1.47,7,7,0,0,1,1.24,4.59v7.63l2.21.18v1.2h-6v-1.2l2.21-.18v-7.62a5.42,5.42,0,0,0-.94-3.59,3.41,3.41,0,0,0-2.68-1.05,4.16,4.16,0,0,0-2.78.91,5,5,0,0,0-1.54,2.41v8.94l2.2.18v1.2h-6Z"/><path class="cls-127" d="M772.71,289.3h-1.32l-.19-2.09a4.15,4.15,0,0,0-1.54-1,6.1,6.1,0,0,0-2.13-.35,4,4,0,0,0-2.66.77,2.35,2.35,0,0,0-.89,1.81,2.17,2.17,0,0,0,.77,1.7,7.42,7.42,0,0,0,3,1.17,10.06,10.06,0,0,1,3.91,1.61,3.32,3.32,0,0,1,1.3,2.77,3.59,3.59,0,0,1-1.48,3,6.27,6.27,0,0,1-3.92,1.14,9,9,0,0,1-3-.46,7.26,7.26,0,0,1-2.3-1.29v-3h1.31l.23,2.1a3.67,3.67,0,0,0,1.64.95,7.22,7.22,0,0,0,2.08.3,4.43,4.43,0,0,0,2.77-.78,2.32,2.32,0,0,0,1-1.89,2.39,2.39,0,0,0-.85-1.82,6.82,6.82,0,0,0-3-1.27,10.18,10.18,0,0,1-3.87-1.52,3.13,3.13,0,0,1-1.27-2.66,3.58,3.58,0,0,1,1.42-2.87,5.72,5.72,0,0,1,3.75-1.17,8.4,8.4,0,0,1,2.94.5,6,6,0,0,1,2.17,1.35Z"/><path class="cls-127" d="M786.06,299.53c-.1-.5-.18-.93-.22-1.3a8.07,8.07,0,0,1-.07-1.11,6.45,6.45,0,0,1-2.17,1.93,6.05,6.05,0,0,1-3,.77,4.67,4.67,0,0,1-3.33-1.12,4,4,0,0,1-1.18-3,3.76,3.76,0,0,1,1.75-3.25,8.22,8.22,0,0,1,4.73-1.21h3.24v-1.95a3.17,3.17,0,0,0-1-2.49,4.08,4.08,0,0,0-2.82-.9,7.19,7.19,0,0,0-2.23.33,5.17,5.17,0,0,0-1.68.91l-.14,2h-1.34l0-2.85A8,8,0,0,1,779,285a9,9,0,0,1,3-.5,5.82,5.82,0,0,1,3.89,1.25,4.39,4.39,0,0,1,1.48,3.57v7.27c0,.3,0,.59,0,.87a5.28,5.28,0,0,0,.09.81l1.46.1v1.2Zm-5.33-1.16a5.76,5.76,0,0,0,3.1-.82,4.81,4.81,0,0,0,1.94-2.12v-3h-3.26a6,6,0,0,0-3.53.93,2.75,2.75,0,0,0-1.32,2.33,2.48,2.48,0,0,0,.82,1.92A3.31,3.31,0,0,0,780.73,298.37Z"/><path class="cls-127" d="M790.9,286v-1.21h3.64l.14,2.45a5.14,5.14,0,0,1,1.88-2,5.29,5.29,0,0,1,2.81-.72,4.23,4.23,0,0,1,4.41,3.35,5.76,5.76,0,0,1,1.88-2.45,4.91,4.91,0,0,1,3-.9,4.41,4.41,0,0,1,3.62,1.58,7.64,7.64,0,0,1,1.27,4.86v7.24l2.21.19v1.2h-6v-1.2l2.21-.19v-7.26a6,6,0,0,0-1-3.87,3.28,3.28,0,0,0-2.65-1.12,3.59,3.59,0,0,0-2.92,1.21,6,6,0,0,0-1.27,3.11c0,.07,0,.14,0,.2a1.85,1.85,0,0,1,0,.25v7.49l2.2.18v1.2h-6v-1.2l2.2-.18v-7.27a6,6,0,0,0-1-3.84,3.28,3.28,0,0,0-2.66-1.15,4,4,0,0,0-2.74.88,4.72,4.72,0,0,0-1.41,2.37v9l2.2.18v1.2h-6v-1.2l2.2-.18v-12Z"/><path class="cls-127" d="M824.07,299.82a5.83,5.83,0,0,1-4.57-2.05,7.53,7.53,0,0,1-1.82-5.2v-.75a7.78,7.78,0,0,1,1.81-5.26,5.56,5.56,0,0,1,4.36-2.1,5.4,5.4,0,0,1,4.24,1.73,6.62,6.62,0,0,1,1.54,4.59v1.4H819.29v.39a6.59,6.59,0,0,0,1.32,4.18,4.21,4.21,0,0,0,3.46,1.69,6.81,6.81,0,0,0,2.57-.43,5.22,5.22,0,0,0,1.83-1.21l.69,1.12a6,6,0,0,1-2.09,1.39A8,8,0,0,1,824.07,299.82Zm-.22-14a3.85,3.85,0,0,0-3,1.39,6,6,0,0,0-1.42,3.48l0,.06H828v-.41a4.73,4.73,0,0,0-1.12-3.22A3.82,3.82,0,0,0,823.85,285.86Z"/><path class="cls-127" d="M832.23,298.33l2.2-.18v-12l-2.2-.18v-1.21h3.64l.15,2.58a5.05,5.05,0,0,1,4.73-2.86,4.49,4.49,0,0,1,3.63,1.47,7,7,0,0,1,1.24,4.59v7.63l2.21.18v1.2h-6v-1.2l2.21-.18v-7.62a5.37,5.37,0,0,0-.94-3.59,3.41,3.41,0,0,0-2.67-1.05,4.12,4.12,0,0,0-2.78.91,5,5,0,0,0-1.55,2.41v8.94l2.2.18v1.2h-6Z"/><path class="cls-127" d="M854.09,281v3.79h3.22v1.34h-3.22v9.64a3.2,3.2,0,0,0,.52,2,1.73,1.73,0,0,0,1.39.61c.26,0,.52,0,.77,0s.53-.06.85-.12l.25,1.22a3.92,3.92,0,0,1-1,.27,6.57,6.57,0,0,1-1.16.1,3,3,0,0,1-2.41-1,4.66,4.66,0,0,1-.85-3.11v-9.64h-2.52v-1.34h2.52V281Z"/><path class="cls-127" d="M860,291.92a8,8,0,0,1,1.77-5.36,6.31,6.31,0,0,1,9.4,0,8,8,0,0,1,1.78,5.36v.45a8,8,0,0,1-1.77,5.36,6.34,6.34,0,0,1-9.41,0,8,8,0,0,1-1.77-5.36Zm1.62.45a7.09,7.09,0,0,0,1.29,4.32,4.51,4.51,0,0,0,7.13,0,7.16,7.16,0,0,0,1.28-4.32v-.45a7.1,7.1,0,0,0-1.29-4.3,4.48,4.48,0,0,0-7.12,0,7.1,7.1,0,0,0-1.29,4.3Z"/><path class="cls-127" d="M594,319.46h-1.25l-.23-3a5.84,5.84,0,0,0-2-1.53,6.84,6.84,0,0,0-2.91-.58,6.38,6.38,0,0,0-5.25,2.43A9.76,9.76,0,0,0,580.4,323v.28a9.87,9.87,0,0,0,1.92,6.29,6.18,6.18,0,0,0,5.07,2.44,7.53,7.53,0,0,0,3-.59,5.62,5.62,0,0,0,2.14-1.52l.23-3H594v3.5a7,7,0,0,1-2.68,2.15,9,9,0,0,1-4,.86,7.77,7.77,0,0,1-6.2-2.84,10.86,10.86,0,0,1-2.4-7.27v-.26a10.9,10.9,0,0,1,2.4-7.28,7.82,7.82,0,0,1,6.28-2.83,8.59,8.59,0,0,1,3.92.87A6.92,6.92,0,0,1,594,316Z"/><path class="cls-127" d="M597,325.52a8,8,0,0,1,1.77-5.36,6.31,6.31,0,0,1,9.4,0,8,8,0,0,1,1.77,5.36V326a8,8,0,0,1-1.76,5.36,6.34,6.34,0,0,1-9.41,0A8,8,0,0,1,597,326Zm1.62.45a7.09,7.09,0,0,0,1.29,4.32,4.51,4.51,0,0,0,7.13,0,7.16,7.16,0,0,0,1.28-4.32v-.45a7.1,7.1,0,0,0-1.29-4.3,4.48,4.48,0,0,0-7.12,0,7.1,7.1,0,0,0-1.29,4.3Z"/><path class="cls-127" d="M612.19,319.55v-1.21h3.64l.15,2.44a5.28,5.28,0,0,1,1.88-2,5.37,5.37,0,0,1,2.8-.71,4.6,4.6,0,0,1,2.8.83,4.53,4.53,0,0,1,1.61,2.52A5.71,5.71,0,0,1,627,319a4.9,4.9,0,0,1,3-.9,4.4,4.4,0,0,1,3.62,1.58,7.63,7.63,0,0,1,1.28,4.86v7.24l2.21.19v1.2h-6v-1.2l2.2-.19v-7.26a6,6,0,0,0-1-3.87,3.3,3.3,0,0,0-2.66-1.12,3.58,3.58,0,0,0-2.91,1.21,5.8,5.8,0,0,0-1.27,3.11,1.27,1.27,0,0,0,0,.2v7.74l2.21.18v1.2h-6v-1.2l2.2-.18v-7.27a6,6,0,0,0-1-3.84,3.27,3.27,0,0,0-2.66-1.15,4,4,0,0,0-2.74.88,4.72,4.72,0,0,0-1.41,2.37v9l2.21.18v1.2h-6v-1.2l2.21-.18v-12Z"/><path class="cls-127" d="M638.62,319.55v-1.21h3.55l.21,2.29a5.11,5.11,0,0,1,4.61-2.57,4.77,4.77,0,0,1,4.13,2.13,9.74,9.74,0,0,1,1.48,5.67v.28a8.61,8.61,0,0,1-1.48,5.3,4.86,4.86,0,0,1-4.1,2,5.78,5.78,0,0,1-2.7-.6,5,5,0,0,1-1.89-1.69v6.29l2.21.18v1.22h-6V337.6l2.2-.18V319.73ZM651,325.86a8.58,8.58,0,0,0-1.11-4.6,3.59,3.59,0,0,0-3.24-1.77,4.25,4.25,0,0,0-2.66.78,4.87,4.87,0,0,0-1.54,2.05v7.11a4.48,4.48,0,0,0,1.6,1.91,4.69,4.69,0,0,0,2.62.7,3.66,3.66,0,0,0,3.23-1.62,7.48,7.48,0,0,0,1.1-4.28Z"/><path class="cls-127" d="M666,330.7a5.09,5.09,0,0,1-1.89,2,5.47,5.47,0,0,1-2.82.71,4.43,4.43,0,0,1-3.62-1.59,7.68,7.68,0,0,1-1.3-4.92v-7.18l-1.82-.18v-1.21H658v8.6a6.4,6.4,0,0,0,.91,3.88,3.1,3.1,0,0,0,2.59,1.18,4.8,4.8,0,0,0,2.93-.82,4.39,4.39,0,0,0,1.54-2.27v-9.18l-2.09-.18v-1.21h3.71v13.41l2,.18v1.2h-3.38Z"/><path class="cls-127" d="M675.63,314.55v3.79h3.22v1.34h-3.22v9.64a3.2,3.2,0,0,0,.52,2.05,1.73,1.73,0,0,0,1.39.61c.26,0,.52,0,.77,0s.53-.06.85-.12l.25,1.22a3.92,3.92,0,0,1-1,.27,6.49,6.49,0,0,1-1.16.1,3,3,0,0,1-2.41-1,4.66,4.66,0,0,1-.85-3.11v-9.64h-2.52v-1.34H674v-3.79Z"/><path class="cls-127" d="M691.94,333.13a12.48,12.48,0,0,1-.23-1.3,8.07,8.07,0,0,1-.07-1.11,6.36,6.36,0,0,1-2.17,1.93,6.05,6.05,0,0,1-3,.77,4.69,4.69,0,0,1-3.33-1.12,4,4,0,0,1-1.18-3,3.76,3.76,0,0,1,1.75-3.25,8.22,8.22,0,0,1,4.73-1.21h3.24v-1.95a3.17,3.17,0,0,0-1-2.49,4.08,4.08,0,0,0-2.82-.9,7.19,7.19,0,0,0-2.23.33,5.17,5.17,0,0,0-1.68.91l-.14,2h-1.33v-2.85a8,8,0,0,1,2.43-1.28,9,9,0,0,1,3-.5,5.82,5.82,0,0,1,3.89,1.25,4.39,4.39,0,0,1,1.48,3.57v7.27c0,.3,0,.59,0,.87a5.28,5.28,0,0,0,.09.81l1.46.1v1.2ZM686.61,332a5.84,5.84,0,0,0,3.09-.82,4.87,4.87,0,0,0,1.94-2.12v-3h-3.26a6.1,6.1,0,0,0-3.53.92,2.77,2.77,0,0,0-1.32,2.34,2.48,2.48,0,0,0,.82,1.92A3.32,3.32,0,0,0,686.61,332Z"/><path class="cls-127" d="M703.37,332a4.59,4.59,0,0,0,2.84-.93,3.06,3.06,0,0,0,1.23-2.59h1.44l0,.08a4.08,4.08,0,0,1-1.61,3.44,6,6,0,0,1-3.92,1.38,5.54,5.54,0,0,1-4.61-2.07,8.29,8.29,0,0,1-1.64-5.33v-.57a8.29,8.29,0,0,1,1.64-5.31,5.53,5.53,0,0,1,4.6-2.08,7.31,7.31,0,0,1,3.09.65,6.12,6.12,0,0,1,2.29,1.75l.07,3.22h-1.38l-.26-2.62a4.63,4.63,0,0,0-1.62-1.17,5.25,5.25,0,0,0-2.19-.43,3.9,3.9,0,0,0-3.49,1.7,7.63,7.63,0,0,0-1.13,4.29V326a7.74,7.74,0,0,0,1.12,4.32A3.92,3.92,0,0,0,703.37,332Z"/><path class="cls-127" d="M711.81,331.93l2.21-.18v-12l-2.21-.18v-1.21h3.82v13.41l2.2.18v1.2h-6Zm3.82-17.83H714v-2.3h1.61Z"/><path class="cls-127" d="M720.55,325.52a8,8,0,0,1,1.77-5.36,6.32,6.32,0,0,1,9.41,0,8,8,0,0,1,1.77,5.36V326a8,8,0,0,1-1.77,5.36,5.83,5.83,0,0,1-4.68,2.09,5.91,5.91,0,0,1-4.73-2.09,8,8,0,0,1-1.77-5.36Zm1.63.45a7.09,7.09,0,0,0,1.28,4.32,4.51,4.51,0,0,0,7.13,0,7.09,7.09,0,0,0,1.29-4.32v-.45a7,7,0,0,0-1.3-4.3,4.48,4.48,0,0,0-7.12,0,7.09,7.09,0,0,0-1.28,4.3Z"/><path class="cls-127" d="M735.84,331.93l2.21-.18v-12l-2.21-.18v-1.21h3.64l.15,2.58a5.05,5.05,0,0,1,4.74-2.86,4.48,4.48,0,0,1,3.62,1.47,7,7,0,0,1,1.25,4.59v7.63l2.2.18v1.2h-6v-1.2l2.2-.18v-7.62a5.37,5.37,0,0,0-.94-3.59,3.39,3.39,0,0,0-2.67-1.05,4.18,4.18,0,0,0-2.78.9,5.13,5.13,0,0,0-1.55,2.42v8.94l2.21.18v1.2h-6Z"/><path class="cls-127" d="M764.09,333.13c-.11-.5-.18-.93-.23-1.3a10,10,0,0,1-.07-1.11,6.42,6.42,0,0,1-2.16,1.93,6.09,6.09,0,0,1-3,.77,4.65,4.65,0,0,1-3.32-1.12,4,4,0,0,1-1.18-3,3.75,3.75,0,0,1,1.74-3.25,8.28,8.28,0,0,1,4.74-1.21h3.23v-1.95a3.17,3.17,0,0,0-1-2.49,4.12,4.12,0,0,0-2.82-.9,7.1,7.1,0,0,0-2.23.33,5.17,5.17,0,0,0-1.68.91l-.14,2h-1.34v-2.85a8.24,8.24,0,0,1,2.43-1.28,9.05,9.05,0,0,1,3-.5,5.83,5.83,0,0,1,3.9,1.25,4.42,4.42,0,0,1,1.47,3.57v7.27c0,.3,0,.59,0,.87s.05.55.09.81l1.46.1v1.2ZM758.76,332a5.88,5.88,0,0,0,3.1-.82,4.84,4.84,0,0,0,1.93-2.12v-3h-3.26A6.06,6.06,0,0,0,757,327a2.77,2.77,0,0,0-1.32,2.34,2.45,2.45,0,0,0,.82,1.92A3.27,3.27,0,0,0,758.76,332Z"/><path class="cls-127" d="M769,313V311.8h3.81v19.95l2.21.18v1.2h-6v-1.2l2.2-.18V313.2Z"/><path class="cls-127" d="M779.88,332.47a6.32,6.32,0,0,1-.51,2.47,5.85,5.85,0,0,1-1.38,2l-1-.71a7.54,7.54,0,0,0,.94-1.79,6.12,6.12,0,0,0,.3-2v-1.94h1.61Z"/><path class="cls-127" d="M789.14,319.55v-1.21h3.55l.21,2.29a5.11,5.11,0,0,1,4.61-2.57,4.76,4.76,0,0,1,4.13,2.13,9.74,9.74,0,0,1,1.49,5.67v.28a8.61,8.61,0,0,1-1.49,5.3,4.84,4.84,0,0,1-4.1,2,5.78,5.78,0,0,1-2.7-.6,5,5,0,0,1-1.89-1.69v6.29l2.21.18v1.22h-6V337.6l2.2-.18V319.73Zm12.36,6.31a8.58,8.58,0,0,0-1.11-4.6,3.59,3.59,0,0,0-3.24-1.77,4.25,4.25,0,0,0-2.66.78,4.87,4.87,0,0,0-1.54,2.05v7.11a4.48,4.48,0,0,0,1.6,1.91,4.69,4.69,0,0,0,2.62.7,3.66,3.66,0,0,0,3.23-1.62,7.48,7.48,0,0,0,1.1-4.28Z"/><path class="cls-127" d="M815.87,333.13c-.11-.5-.18-.93-.23-1.3a10,10,0,0,1-.07-1.11,6.42,6.42,0,0,1-2.16,1.93,6.09,6.09,0,0,1-3,.77A4.65,4.65,0,0,1,807,332.3a4,4,0,0,1-1.18-3A3.75,3.75,0,0,1,807.6,326a8.28,8.28,0,0,1,4.74-1.21h3.23v-1.95a3.14,3.14,0,0,0-1-2.49,4.08,4.08,0,0,0-2.82-.9,7.09,7.09,0,0,0-2.22.33,5.23,5.23,0,0,0-1.69.91l-.13,2h-1.34v-2.85a8.24,8.24,0,0,1,2.43-1.28,9.05,9.05,0,0,1,3-.5,5.83,5.83,0,0,1,3.9,1.25,4.42,4.42,0,0,1,1.47,3.57v7.27c0,.3,0,.59,0,.87s0,.55.09.81l1.46.1v1.2ZM810.54,332a5.88,5.88,0,0,0,3.1-.82,4.84,4.84,0,0,0,1.93-2.12v-3h-3.26a6.06,6.06,0,0,0-3.52.92,2.77,2.77,0,0,0-1.32,2.34,2.45,2.45,0,0,0,.82,1.92A3.27,3.27,0,0,0,810.54,332Z"/><path class="cls-127" d="M824.56,318.34l.2,2.46V321a5.17,5.17,0,0,1,1.7-2.14,4.24,4.24,0,0,1,2.55-.78,3.83,3.83,0,0,1,.6.05c.2,0,.35.07.48.1l-.22,1.54-1.2-.09a3.63,3.63,0,0,0-2.51.87,4.86,4.86,0,0,0-1.4,2.39v8.83l2.21.18v1.2h-6v-1.2l2.21-.18v-12l-2.21-.18v-1.21h3.62Z"/><path class="cls-127" d="M842.29,333.13c-.1-.5-.18-.93-.23-1.3a10,10,0,0,1-.06-1.11,6.45,6.45,0,0,1-2.17,1.93,6.05,6.05,0,0,1-3,.77,4.65,4.65,0,0,1-3.33-1.12,4,4,0,0,1-1.18-3A3.74,3.74,0,0,1,834,326a8.22,8.22,0,0,1,4.73-1.21H842v-1.95a3.17,3.17,0,0,0-1-2.49,4.08,4.08,0,0,0-2.82-.9,7.15,7.15,0,0,0-2.23.33,5.17,5.17,0,0,0-1.68.91l-.14,2h-1.34l0-2.85a8,8,0,0,1,2.43-1.28,9,9,0,0,1,3-.5,5.82,5.82,0,0,1,3.89,1.25,4.39,4.39,0,0,1,1.48,3.57v7.27c0,.3,0,.59,0,.87a5.28,5.28,0,0,0,.09.81l1.46.1v1.2ZM837,332a5.85,5.85,0,0,0,3.1-.82A4.87,4.87,0,0,0,842,329v-3h-3.26a6.1,6.1,0,0,0-3.53.92,2.77,2.77,0,0,0-1.32,2.34,2.48,2.48,0,0,0,.82,1.92A3.31,3.31,0,0,0,837,332Z"/><path class="cls-127" d="M854.22,325.52a8,8,0,0,1,1.77-5.36,6.31,6.31,0,0,1,9.4,0,8,8,0,0,1,1.77,5.36V326a8,8,0,0,1-1.76,5.36,6.34,6.34,0,0,1-9.41,0,8,8,0,0,1-1.77-5.36Zm1.62.45a7.16,7.16,0,0,0,1.28,4.32,4.23,4.23,0,0,0,3.59,1.75,4.15,4.15,0,0,0,3.54-1.75,7.09,7.09,0,0,0,1.29-4.32v-.45a7.1,7.1,0,0,0-1.29-4.3,4.49,4.49,0,0,0-7.13,0,7.16,7.16,0,0,0-1.28,4.3Z"/><path class="cls-127" d="M880.26,314.55v3.79h3.22v1.34h-3.22v9.64a3.2,3.2,0,0,0,.52,2.05,1.73,1.73,0,0,0,1.39.61c.26,0,.52,0,.76,0a8.36,8.36,0,0,0,.86-.12l.25,1.22a3.92,3.92,0,0,1-1,.27,6.57,6.57,0,0,1-1.16.1,3,3,0,0,1-2.41-1,4.66,4.66,0,0,1-.86-3.11v-9.64h-2.51v-1.34h2.51v-3.79Z"/><path class="cls-127" d="M890,318.34l.2,2.46V321a5.25,5.25,0,0,1,1.7-2.14,4.24,4.24,0,0,1,2.55-.78,4.07,4.07,0,0,1,.61.05l.48.1-.22,1.54-1.21-.09a3.67,3.67,0,0,0-2.51.87,4.86,4.86,0,0,0-1.4,2.39v8.83l2.21.18v1.2h-6v-1.2l2.2-.18v-12l-2.2-.18v-1.21H890Z"/><path class="cls-127" d="M907.7,333.13a12.48,12.48,0,0,1-.23-1.3,8.07,8.07,0,0,1-.07-1.11,6.42,6.42,0,0,1-2.16,1.93,6.12,6.12,0,0,1-3,.77,4.69,4.69,0,0,1-3.33-1.12,4,4,0,0,1-1.17-3,3.75,3.75,0,0,1,1.74-3.25,8.25,8.25,0,0,1,4.74-1.21h3.23v-1.95a3.17,3.17,0,0,0-1-2.49,4.08,4.08,0,0,0-2.82-.9,7.09,7.09,0,0,0-2.22.33,5.13,5.13,0,0,0-1.69.91l-.13,2h-1.34v-2.85a8.24,8.24,0,0,1,2.43-1.28,9.05,9.05,0,0,1,3-.5,5.87,5.87,0,0,1,3.9,1.25,4.42,4.42,0,0,1,1.47,3.57v7.27c0,.3,0,.59,0,.87a6.92,6.92,0,0,0,.09.81l1.46.1v1.2ZM902.37,332a5.9,5.9,0,0,0,3.1-.82A4.9,4.9,0,0,0,907.4,329v-3h-3.26a6.06,6.06,0,0,0-3.52.92,2.77,2.77,0,0,0-1.32,2.34,2.45,2.45,0,0,0,.82,1.92A3.27,3.27,0,0,0,902.37,332Z"/><path class="cls-127" d="M925.46,326.14a8.61,8.61,0,0,1-1.48,5.3,4.86,4.86,0,0,1-4.1,2,5.66,5.66,0,0,1-2.78-.65,5,5,0,0,1-1.88-1.87l-.17,2.23h-1.38V313.2l-2.21-.18V311.8h3.82v8.86a5.28,5.28,0,0,1,1.86-1.92,5.22,5.22,0,0,1,2.71-.68,4.77,4.77,0,0,1,4.13,2.13,9.74,9.74,0,0,1,1.48,5.67Zm-1.63-.28a8.63,8.63,0,0,0-1.09-4.6,3.5,3.5,0,0,0-3.19-1.77,4.21,4.21,0,0,0-2.74.84,5,5,0,0,0-1.53,2.18v6.68a4.7,4.7,0,0,0,1.61,2.05,4.61,4.61,0,0,0,2.69.76,3.57,3.57,0,0,0,3.18-1.59,7.56,7.56,0,0,0,1.07-4.27Z"/><path class="cls-127" d="M938.32,333.13a12.48,12.48,0,0,1-.23-1.3,8.07,8.07,0,0,1-.07-1.11,6.36,6.36,0,0,1-2.17,1.93,6.05,6.05,0,0,1-3,.77,4.69,4.69,0,0,1-3.33-1.12,4,4,0,0,1-1.17-3,3.75,3.75,0,0,1,1.74-3.25,8.23,8.23,0,0,1,4.74-1.21H938v-1.95a3.17,3.17,0,0,0-1-2.49,4.08,4.08,0,0,0-2.82-.9,7.09,7.09,0,0,0-2.22.33,5.13,5.13,0,0,0-1.69.91l-.13,2h-1.34v-2.85a8.24,8.24,0,0,1,2.43-1.28,9,9,0,0,1,3-.5,5.82,5.82,0,0,1,3.89,1.25,4.39,4.39,0,0,1,1.48,3.57v7.27c0,.3,0,.59,0,.87a5.28,5.28,0,0,0,.09.81l1.46.1v1.2ZM933,332a5.84,5.84,0,0,0,3.09-.82A4.87,4.87,0,0,0,938,329v-3h-3.26a6.1,6.1,0,0,0-3.53.92,2.76,2.76,0,0,0-1.31,2.34,2.47,2.47,0,0,0,.81,1.92A3.32,3.32,0,0,0,933,332Z"/><path class="cls-127" d="M943.17,313V311.8H947v19.95l2.21.18v1.2h-6v-1.2l2.21-.18V313.2Z"/><path class="cls-127" d="M951.28,313V311.8h3.81v9.07a5.22,5.22,0,0,1,4.79-2.81,4.45,4.45,0,0,1,3.56,1.45,6.87,6.87,0,0,1,1.23,4.5v7.74l2.21.18v1.2h-6v-1.2l2.21-.18V324a5.1,5.1,0,0,0-.94-3.45,3.3,3.3,0,0,0-2.59-1,4.32,4.32,0,0,0-2.78.88,5.18,5.18,0,0,0-1.65,2.34v9l2.21.18v1.2h-6v-1.2l2.2-.18V313.2Z"/><path class="cls-127" d="M969.18,325.52a8,8,0,0,1,1.77-5.36,6.31,6.31,0,0,1,9.4,0,8,8,0,0,1,1.78,5.36V326a8,8,0,0,1-1.77,5.36,6.34,6.34,0,0,1-9.41,0,8,8,0,0,1-1.77-5.36Zm1.62.45a7.09,7.09,0,0,0,1.29,4.32,4.51,4.51,0,0,0,7.13,0A7.16,7.16,0,0,0,980.5,326v-.45a7.1,7.1,0,0,0-1.29-4.3,4.48,4.48,0,0,0-7.12,0,7.1,7.1,0,0,0-1.29,4.3Z"/><path class="cls-127" d="M585,365.64a4.59,4.59,0,0,0,2.84-.93,3.06,3.06,0,0,0,1.23-2.59h1.43l0,.09a4.08,4.08,0,0,1-1.62,3.43A6,6,0,0,1,585,367a5.55,5.55,0,0,1-4.62-2.07,8.35,8.35,0,0,1-1.64-5.33v-.57a8.35,8.35,0,0,1,1.64-5.31,5.54,5.54,0,0,1,4.6-2.08,7.35,7.35,0,0,1,3.1.65,6.12,6.12,0,0,1,2.29,1.75l.06,3.22H589l-.25-2.62a4.72,4.72,0,0,0-1.62-1.17,5.3,5.3,0,0,0-2.2-.43,3.89,3.89,0,0,0-3.48,1.7,7.55,7.55,0,0,0-1.13,4.29v.57a7.66,7.66,0,0,0,1.12,4.32A3.92,3.92,0,0,0,585,365.64Z"/><path class="cls-127" d="M593.51,359.12a8,8,0,0,1,1.77-5.36,6.31,6.31,0,0,1,9.4,0,8,8,0,0,1,1.77,5.36v.45a8,8,0,0,1-1.76,5.36,6.34,6.34,0,0,1-9.41,0,8,8,0,0,1-1.77-5.36Zm1.62.45a7.09,7.09,0,0,0,1.29,4.32,4.51,4.51,0,0,0,7.13,0,7.16,7.16,0,0,0,1.28-4.32v-.45a7.1,7.1,0,0,0-1.29-4.3,4.48,4.48,0,0,0-7.12,0,7.1,7.1,0,0,0-1.29,4.3Z"/><path class="cls-127" d="M608.74,353.15v-1.21h3.64l.15,2.45a5.14,5.14,0,0,1,1.88-2,5.25,5.25,0,0,1,2.8-.72,4.6,4.6,0,0,1,2.8.83,4.53,4.53,0,0,1,1.61,2.52,5.77,5.77,0,0,1,1.89-2.45,4.9,4.9,0,0,1,3-.9,4.4,4.4,0,0,1,3.62,1.58,7.63,7.63,0,0,1,1.28,4.86v7.24l2.21.19v1.2h-6.05v-1.2l2.2-.19v-7.26a6,6,0,0,0-1-3.87,3.3,3.3,0,0,0-2.66-1.12,3.58,3.58,0,0,0-2.91,1.21,5.8,5.8,0,0,0-1.27,3.11,1.27,1.27,0,0,0,0,.2v7.74l2.21.18v1.2h-6v-1.2l2.2-.18v-7.27a6,6,0,0,0-1-3.84,3.27,3.27,0,0,0-2.66-1.15A4,4,0,0,0,614,354a4.72,4.72,0,0,0-1.41,2.37v9l2.21.18v1.2h-6v-1.2l2.21-.18v-12Z"/><path class="cls-127" d="M653,356.5h-1.33l-.19-2.09a4.11,4.11,0,0,0-1.53-1,6.12,6.12,0,0,0-2.14-.35,4,4,0,0,0-2.65.77,2.35,2.35,0,0,0-.89,1.81,2.16,2.16,0,0,0,.76,1.7,7.42,7.42,0,0,0,3.06,1.17,10.06,10.06,0,0,1,3.91,1.61,3.35,3.35,0,0,1,1.3,2.77,3.6,3.6,0,0,1-1.49,3,6.22,6.22,0,0,1-3.91,1.14,8.93,8.93,0,0,1-3-.46,7.2,7.2,0,0,1-2.31-1.29v-3h1.32l.23,2.1a3.67,3.67,0,0,0,1.64.95,7.17,7.17,0,0,0,2.08.3,4.45,4.45,0,0,0,2.77-.78,2.32,2.32,0,0,0,1-1.89,2.43,2.43,0,0,0-.85-1.82,6.82,6.82,0,0,0-3-1.27,10.31,10.31,0,0,1-3.88-1.52,3.15,3.15,0,0,1-1.26-2.66,3.58,3.58,0,0,1,1.42-2.87,5.69,5.69,0,0,1,3.74-1.17,8.41,8.41,0,0,1,3,.5,6,6,0,0,1,2.17,1.35Z"/><path class="cls-127" d="M662.66,367a5.81,5.81,0,0,1-4.57-2,7.53,7.53,0,0,1-1.82-5.2V359a7.73,7.73,0,0,1,1.81-5.26,5.56,5.56,0,0,1,4.36-2.1,5.4,5.4,0,0,1,4.24,1.73,6.67,6.67,0,0,1,1.54,4.59v1.4H657.88v.39A6.59,6.59,0,0,0,659.2,364a4.2,4.2,0,0,0,3.46,1.69,6.81,6.81,0,0,0,2.57-.43,5.22,5.22,0,0,0,1.83-1.21l.69,1.12a6.12,6.12,0,0,1-2.09,1.39A8,8,0,0,1,662.66,367Zm-.22-14a3.85,3.85,0,0,0-3,1.39,6,6,0,0,0-1.43,3.48l0,.06h8.58v-.41a4.78,4.78,0,0,0-1.12-3.22A3.82,3.82,0,0,0,662.44,353.06Z"/><path class="cls-127" d="M681.87,364.3a5.09,5.09,0,0,1-1.89,2,5.44,5.44,0,0,1-2.82.71,4.43,4.43,0,0,1-3.62-1.59,7.68,7.68,0,0,1-1.3-4.92v-7.18l-1.82-.18v-1.21h3.43v8.6a6.4,6.4,0,0,0,.91,3.88,3.1,3.1,0,0,0,2.59,1.18,4.78,4.78,0,0,0,2.93-.82,4.39,4.39,0,0,0,1.54-2.27v-9.18l-2.09-.18v-1.21h3.71v13.41l2,.18v1.2H682Z"/><path class="cls-127" d="M698.4,356.5h-1.32l-.19-2.09a4.15,4.15,0,0,0-1.54-1,6.06,6.06,0,0,0-2.13-.35,4,4,0,0,0-2.66.77,2.34,2.34,0,0,0-.88,1.81,2.16,2.16,0,0,0,.76,1.7,7.42,7.42,0,0,0,3,1.17,10,10,0,0,1,3.91,1.61,3.32,3.32,0,0,1,1.3,2.77,3.59,3.59,0,0,1-1.48,3A6.25,6.25,0,0,1,693.3,367a8.91,8.91,0,0,1-2.95-.46,7.2,7.2,0,0,1-2.31-1.29v-3h1.31l.23,2.1a3.71,3.71,0,0,0,1.65.95,7.1,7.1,0,0,0,2.07.3,4.46,4.46,0,0,0,2.78-.78,2.33,2.33,0,0,0,1-1.89,2.42,2.42,0,0,0-.84-1.82,6.88,6.88,0,0,0-3-1.27,10.17,10.17,0,0,1-3.88-1.52,3.16,3.16,0,0,1-1.27-2.66,3.59,3.59,0,0,1,1.43-2.87,5.68,5.68,0,0,1,3.74-1.17,8.41,8.41,0,0,1,2.95.5,6,6,0,0,1,2.17,1.35Z"/><path class="cls-127" d="M718.5,366.73a12.48,12.48,0,0,1-.23-1.3,8.07,8.07,0,0,1-.07-1.11,6.36,6.36,0,0,1-2.17,1.93,6.05,6.05,0,0,1-3,.77,4.69,4.69,0,0,1-3.33-1.12,4,4,0,0,1-1.18-3,3.76,3.76,0,0,1,1.75-3.25A8.23,8.23,0,0,1,715,358.4h3.23v-1.95a3.17,3.17,0,0,0-1-2.49,4.08,4.08,0,0,0-2.82-.9,7.09,7.09,0,0,0-2.22.33,5.13,5.13,0,0,0-1.69.91l-.14,2H709v-2.85a8.12,8.12,0,0,1,2.43-1.28,9,9,0,0,1,3-.5,5.82,5.82,0,0,1,3.89,1.25,4.39,4.39,0,0,1,1.48,3.57v7.27c0,.3,0,.59,0,.87a5.28,5.28,0,0,0,.09.81l1.46.1v1.2Zm-5.33-1.16a5.75,5.75,0,0,0,3.09-.82,4.81,4.81,0,0,0,1.94-2.12v-3h-3.26a6,6,0,0,0-3.53.93,2.73,2.73,0,0,0-1.31,2.33,2.47,2.47,0,0,0,.81,1.92A3.32,3.32,0,0,0,713.17,365.57Z"/><path class="cls-127" d="M723.35,346.62V345.4h3.82v20l2.21.18v1.2h-6v-1.2l2.21-.18V346.8Z"/><path class="cls-127" d="M742.69,364.3a5.09,5.09,0,0,1-1.89,2A5.47,5.47,0,0,1,738,367a4.43,4.43,0,0,1-3.62-1.59,7.68,7.68,0,0,1-1.3-4.92v-7.18l-1.82-.18v-1.21h3.43v8.6a6.4,6.4,0,0,0,.91,3.88,3.1,3.1,0,0,0,2.59,1.18,4.8,4.8,0,0,0,2.93-.82,4.37,4.37,0,0,0,1.53-2.27v-9.18l-2.08-.18v-1.21h3.71v13.41l2,.18v1.2h-3.38Z"/><path class="cls-127" d="M748.3,365.53l2.21-.18v-12l-2.21-.18v-1.21h3.64l.15,2.58a5.05,5.05,0,0,1,4.74-2.86,4.48,4.48,0,0,1,3.62,1.47,7,7,0,0,1,1.25,4.59v7.63l2.2.18v1.2h-6v-1.2l2.2-.18v-7.62a5.37,5.37,0,0,0-.94-3.59,3.38,3.38,0,0,0-2.67-1.05,4.16,4.16,0,0,0-2.78.91,5,5,0,0,0-1.55,2.41v8.94l2.21.18v1.2h-6Z"/><path class="cls-127" d="M766.31,359.12a8,8,0,0,1,1.77-5.36,6.32,6.32,0,0,1,9.41,0,8,8,0,0,1,1.77,5.36v.45a8,8,0,0,1-1.77,5.36,5.83,5.83,0,0,1-4.68,2.09,5.91,5.91,0,0,1-4.73-2.09,8,8,0,0,1-1.77-5.36Zm1.62.45a7.09,7.09,0,0,0,1.29,4.32,4.51,4.51,0,0,0,7.13,0,7.09,7.09,0,0,0,1.29-4.32v-.45a7.1,7.1,0,0,0-1.3-4.3,4.48,4.48,0,0,0-7.12,0,7.1,7.1,0,0,0-1.29,4.3Z"/><path class="cls-127" d="M792.52,356.5h-1.33l-.19-2.09a4,4,0,0,0-1.53-1,6.1,6.1,0,0,0-2.13-.35,4,4,0,0,0-2.66.77,2.35,2.35,0,0,0-.89,1.81,2.17,2.17,0,0,0,.77,1.7,7.36,7.36,0,0,0,3.05,1.17,10.06,10.06,0,0,1,3.91,1.61,3.35,3.35,0,0,1,1.3,2.77,3.62,3.62,0,0,1-1.48,3,6.27,6.27,0,0,1-3.92,1.14,9,9,0,0,1-3-.46,7.2,7.2,0,0,1-2.31-1.29v-3h1.32l.23,2.1a3.67,3.67,0,0,0,1.64.95,7.17,7.17,0,0,0,2.08.3,4.43,4.43,0,0,0,2.77-.78,2.32,2.32,0,0,0,1-1.89,2.43,2.43,0,0,0-.85-1.82,6.82,6.82,0,0,0-3.05-1.27,10.31,10.31,0,0,1-3.88-1.52,3.15,3.15,0,0,1-1.26-2.66,3.58,3.58,0,0,1,1.42-2.87,5.72,5.72,0,0,1,3.75-1.17,8.4,8.4,0,0,1,2.94.5,6,6,0,0,1,2.17,1.35Z"/><path class="cls-127" d="M798.31,366.73h-1.92v-2.28h1.92Zm-.16-6.53h-1.61V346.82h1.61Z"/><g class="cls-161"><path class="cls-154" d="M189.7-50.32s-6.77,14.39-4.3,22.7,17.23,13.73,17.23,13.73S239.7,8.55,271.5,4.56s21.38-11,21.38-11L237.09-52.4Z"/></g></g></svg>