<svg xmlns="http://www.w3.org/2000/svg" xmlns:xlink="http://www.w3.org/1999/xlink" viewBox="0 0 1124.64 651.26"><defs><style>.cls-1{fill:none;}.cls-2{fill:#dd7a7a;}.cls-3{fill:#c6b366;}.cls-4{clip-path:url(#clip-path);}.cls-5{fill:#fff3c2;}.cls-6{fill:#fff3c3;}.cls-7{fill:#fff3c4;}.cls-8{fill:#fff4c5;}.cls-9{fill:#fff4c6;}.cls-10{fill:#fff4c7;}.cls-11{fill:#fff4c8;}.cls-12{fill:#fff4c9;}.cls-13{fill:#fff5ca;}.cls-14{fill:#fff5cb;}.cls-15{fill:#fff5cc;}.cls-16{fill:#fff5cd;}.cls-17{fill:#fff5ce;}.cls-18{fill:#fff6cf;}.cls-19{fill:#fff6d0;}.cls-20{fill:#fff6d1;}.cls-21{fill:#fff6d2;}.cls-22{fill:#fff6d3;}.cls-23{fill:#fff7d4;}.cls-24{fill:#fff7d5;}.cls-25{fill:#fff7d6;}.cls-26{fill:#fff7d7;}.cls-27{fill:#fff7d8;}.cls-28{fill:#fff8d9;}.cls-29{fill:#fff8da;}.cls-30{fill:#fff8db;}.cls-31{fill:#fff8dc;}.cls-32{fill:#fff8dd;}.cls-33{fill:#fff9de;}.cls-34{fill:#fff9df;}.cls-35{fill:#fff9e0;}.cls-36{fill:#fff9e2;}.cls-37{fill:#fff9e3;}.cls-38{fill:#fffae4;}.cls-39{fill:#fffae5;}.cls-40{fill:#fffae6;}.cls-41{fill:#fffae7;}.cls-42{fill:#fffae8;}.cls-43{fill:#fffbe9;}.cls-44{fill:#fffbea;}.cls-45{fill:#fffbeb;}.cls-46{fill:#fffbec;}.cls-47{fill:#fffbed;}.cls-48{fill:#fffcee;}.cls-49{fill:#fffcef;}.cls-50{fill:#fffcf0;}.cls-51{fill:#fffcf1;}.cls-52{fill:#fffcf2;}.cls-53{fill:#fffdf3;}.cls-54{fill:#fffdf4;}.cls-55{fill:#fffdf5;}.cls-56{fill:#fffdf6;}.cls-57{fill:#fffdf7;}.cls-58{fill:#fffef8;}.cls-59{fill:#fffef9;}.cls-60{fill:#fffefa;}.cls-61{fill:#fffefb;}.cls-62{fill:#fffefc;}.cls-63{fill:#fffffd;}.cls-64{fill:#fffffe;}.cls-65{fill:#fff;}.cls-66{fill:#ffeda1;}.cls-67{clip-path:url(#clip-path-2);}.cls-68{fill:#ef9777;}.cls-69{fill:#3a1e1c;}.cls-70{clip-path:url(#clip-path-3);}.cls-71{fill:#d88268;}.cls-72{fill:#d98369;}.cls-73{fill:#da8469;}.cls-74{fill:#db856a;}.cls-75{fill:#dc866b;}.cls-76{fill:#dd876b;}.cls-77{fill:#de886c;}.cls-78{fill:#df896d;}.cls-79{fill:#e08a6d;}.cls-80{fill:#e18b6e;}.cls-81{fill:#e28c6f;}.cls-82{fill:#e48d70;}.cls-83{fill:#e58d70;}.cls-84{fill:#e68e71;}.cls-85{fill:#e78f72;}.cls-86{fill:#e89072;}.cls-87{fill:#e99173;}.cls-88{fill:#ea9274;}.cls-89{fill:#eb9374;}.cls-90{fill:#ec9475;}.cls-91{fill:#ed9576;}.cls-92{fill:#ee9676;}.cls-93{fill:#3d201f;}.cls-94{fill:#b5574d;}.cls-95{fill:#b3514e;}.cls-96{fill:#312235;}.cls-97{fill:#fc999c;}.cls-98{fill:#f9aaaa;}.cls-99{fill:#822222;}.cls-100{fill:#9b3737;}.cls-101{fill:#5b1f3c;}.cls-102{fill:#fffdfd;}.cls-103{clip-path:url(#clip-path-4);}.cls-104{fill:#ce7061;}</style><clipPath id="clip-path"><path class="cls-1" d="M428.87,402.79a192.51,192.51,0,0,0-5.05-43.86c-32.69-73-109.23-124.15-198.45-124.15C106.43,234.78,10,325.78,10,438a193.16,193.16,0,0,0,5,43.87C47.74,554.84,124.28,606,213.5,606,332.44,606,428.87,515,428.87,402.79Z"/></clipPath><clipPath id="clip-path-2"><path class="cls-1" d="M540.86,351.81c-10.3-18-97.34-31.5-97.34-31.5S301.2,131.55,232.19,138s-80.25,56.59-80.25,56.59l-32.63,66.55C54,296,10,362.17,10,438c0,112.25,96.43,203.24,215.37,203.24,117.57,0,213.12-88.9,215.32-199.34C473,419.61,548.81,365.68,540.86,351.81Z"/></clipPath><clipPath id="clip-path-3"><path class="cls-1" d="M227.68,319.63l-2.36,9.78s-19.92,12.9-37.91,11.87c-5.34-.3,67.76,42.8,71.74,43s34.38-50.16,34.38-50.16-20.41-3.73-27.17-4-14.47-18.28-14.47-18.28Z"/></clipPath><clipPath id="clip-path-4"><path class="cls-1" d="M541.11-404.43c-10.3-18-97.34-31.5-97.34-31.5S301.45-624.7,232.44-618.27s-80.25,56.59-80.25,56.59l-32.63,66.55C54.29-460.21,10.25-394.07,10.25-318.22,10.25-206,106.68-115,225.62-115c117.57,0,213.12-88.9,215.32-199.35C473.29-336.63,549.06-390.56,541.11-404.43Z"/></clipPath></defs><title>Intro-fala2</title><g id="Camada_5" data-name="Camada 5"><path class="cls-2" d="M225.37,234.78c119,0,215.37,91,215.37,203.24S344.32,641.26,225.37,641.26,10,550.27,10,438s96.42-203.24,215.37-203.24m0-10a235.1,235.1,0,0,0-87.54,16.69A225.72,225.72,0,0,0,66.22,287,212.37,212.37,0,0,0,17.8,354.82a203.34,203.34,0,0,0,0,166.4A212.3,212.3,0,0,0,66.22,589a225.89,225.89,0,0,0,71.61,45.57,238.05,238.05,0,0,0,175.08,0A225.94,225.94,0,0,0,384.53,589a212.12,212.12,0,0,0,48.41-67.79,203.34,203.34,0,0,0,0-166.4A212.19,212.19,0,0,0,384.53,287a225.76,225.76,0,0,0-71.62-45.57,235.1,235.1,0,0,0-87.54-16.69Z"/><ellipse class="cls-3" cx="225.37" cy="438.02" rx="215.37" ry="203.24"/><g class="cls-4"><rect class="cls-5" x="10" y="234.78" width="418.87" height="371.24"/><path class="cls-5" d="M206.79,475.71a120.37,120.37,0,1,1,167,33A120.37,120.37,0,0,1,206.79,475.71Z"/><path class="cls-6" d="M208.43,474.61a118.4,118.4,0,1,1,164.26,32.46A118.39,118.39,0,0,1,208.43,474.61Z"/><path class="cls-7" d="M210.07,473.51a116.43,116.43,0,1,1,161.52,31.92A116.42,116.42,0,0,1,210.07,473.51Z"/><path class="cls-8" d="M211.71,472.41A114.45,114.45,0,1,1,370.5,503.79,114.44,114.44,0,0,1,211.71,472.41Z"/><circle class="cls-9" cx="306.79" cy="408.71" r="112.48"/><circle class="cls-10" cx="306.79" cy="408.71" r="110.5"/><circle class="cls-11" cx="306.79" cy="408.71" r="108.53"/><circle class="cls-12" cx="306.79" cy="408.71" r="106.56"/><circle class="cls-13" cx="306.79" cy="408.71" r="104.58"/><circle class="cls-14" cx="306.79" cy="408.71" r="102.61"/><circle class="cls-15" cx="306.79" cy="408.71" r="100.64"/><circle class="cls-16" cx="306.79" cy="408.71" r="98.66"/><circle class="cls-17" cx="306.79" cy="408.71" r="96.69"/><circle class="cls-18" cx="306.79" cy="408.71" r="94.72"/><circle class="cls-19" cx="306.79" cy="408.71" r="92.74"/><circle class="cls-20" cx="306.79" cy="408.71" r="90.77"/><circle class="cls-21" cx="306.79" cy="408.71" r="88.8"/><circle class="cls-22" cx="306.79" cy="408.71" r="86.82"/><circle class="cls-23" cx="306.79" cy="408.71" r="84.85"/><circle class="cls-24" cx="306.79" cy="408.71" r="82.88"/><circle class="cls-25" cx="306.79" cy="408.71" r="80.9"/><circle class="cls-26" cx="306.79" cy="408.71" r="78.93"/><circle class="cls-27" cx="306.79" cy="408.71" r="76.96"/><circle class="cls-28" cx="306.79" cy="408.71" r="74.98"/><circle class="cls-29" cx="306.79" cy="408.71" r="73.01"/><circle class="cls-30" cx="306.79" cy="408.71" r="71.04"/><circle class="cls-31" cx="306.79" cy="408.71" r="69.06"/><circle class="cls-32" cx="306.79" cy="408.71" r="67.09"/><circle class="cls-33" cx="306.79" cy="408.71" r="65.12"/><circle class="cls-34" cx="306.79" cy="408.71" r="63.15"/><circle class="cls-35" cx="306.79" cy="408.71" r="61.17"/><circle class="cls-36" cx="306.79" cy="408.71" r="59.2"/><circle class="cls-37" cx="306.79" cy="408.71" r="57.23"/><circle class="cls-38" cx="306.79" cy="408.71" r="55.25"/><circle class="cls-39" cx="306.79" cy="408.71" r="53.28"/><circle class="cls-40" cx="306.79" cy="408.71" r="51.31"/><circle class="cls-41" cx="306.79" cy="408.71" r="49.33"/><circle class="cls-42" cx="306.79" cy="408.71" r="47.36"/><circle class="cls-43" cx="306.79" cy="408.71" r="45.39"/><circle class="cls-44" cx="306.79" cy="408.71" r="43.41"/><circle class="cls-45" cx="306.79" cy="408.71" r="41.44"/><circle class="cls-46" cx="306.79" cy="408.71" r="39.47"/><circle class="cls-47" cx="306.79" cy="408.71" r="37.49"/><circle class="cls-48" cx="306.79" cy="408.71" r="35.52"/><circle class="cls-49" cx="306.79" cy="408.71" r="33.55"/><circle class="cls-50" cx="306.79" cy="408.71" r="31.57"/><circle class="cls-51" cx="306.79" cy="408.71" r="29.6"/><circle class="cls-52" cx="306.79" cy="408.71" r="27.63"/><circle class="cls-53" cx="306.79" cy="408.71" r="25.65"/><circle class="cls-54" cx="306.79" cy="408.71" r="23.68"/><circle class="cls-55" cx="306.79" cy="408.71" r="21.71"/><circle class="cls-56" cx="306.79" cy="408.71" r="19.73"/><circle class="cls-57" cx="306.79" cy="408.71" r="17.76"/><circle class="cls-58" cx="306.79" cy="408.71" r="15.79"/><circle class="cls-59" cx="306.79" cy="408.71" r="13.81"/><circle class="cls-60" cx="306.79" cy="408.71" r="11.84"/><circle class="cls-61" cx="306.79" cy="408.71" r="9.87"/><circle class="cls-62" cx="306.79" cy="408.71" r="7.89"/><circle class="cls-63" cx="306.79" cy="408.71" r="5.92"/><circle class="cls-64" cx="306.79" cy="408.71" r="3.95"/><circle class="cls-65" cx="306.79" cy="408.71" r="1.97"/></g><path class="cls-3" d="M787.8,44.22c-174.89,0-318.64,118.13-335.23,269.27L353,353.14s-6.51,2.41-5.85,11.74a12.7,12.7,0,0,0,7.43,10.89L458.82,407C492,541,626.68,641.26,787.8,641.26c186,0,336.84-133.65,336.84-298.52S973.83,44.22,787.8,44.22Z"/><path class="cls-66" d="M787.75,0C612.85,0,469.11,118.13,452.52,269.27L353,308.92s-6.51,2.41-5.86,11.74a12.7,12.7,0,0,0,7.44,10.88l104.21,31.28C492,496.78,626.63,597,787.75,597c186,0,336.84-133.65,336.84-298.52S973.78,0,787.75,0Z"/><g class="cls-67"><path class="cls-68" d="M534.21,352.94a18,18,0,0,0-2.21-1.87,19.39,19.39,0,0,0-1.77-1.13A22.73,22.73,0,0,0,526,348.1a17.85,17.85,0,0,0-2.86-.67s-45.4,6.11-38.5,3-1.62-3.79-1.62-3.79-21.76,4.67-30,9.17c-5.48,3-12.26,25.5-12.26,25.5L453,395.57s13.81-9.68,18.89-14.76c3.66-3.66,20.55-3.28,33.25-5.34,4.95-.8,12.12-3.69,14.92-4.36,3.25-.78,3.54-3.18,6.58-5.16a30.6,30.6,0,0,0,4.82-3.82c1.7-1.67,1.32-1.57,1.87-3.17.27-.79,1.73-2.75,1.7-3.67A3.43,3.43,0,0,0,534.21,352.94Zm-19.63,13.12s-16.06,2.81-17-.63c-2.53,1,21.79-1.33,28.2-3.88Z"/><path class="cls-65" d="M153.28,564.7s24.48-21.86,24.48-27-14.35-8.35-14.35-8.35L143,558.89l9.58,7.33Z"/><path class="cls-69" d="M175.94,358.82S129,227,183.38,159.92c0,0,58.11-39.81,101.53,7s13,178.54,13,178.54Z"/><g class="cls-70"><polygon class="cls-71" points="293.46 311.8 293.49 312.12 182.06 322.49 182.06 311.8 293.46 311.8"/><polygon class="cls-71" points="293.49 312.12 293.53 312.49 293.53 312.93 182.06 323.3 182.06 322.49 293.49 312.12"/><polygon class="cls-72" points="293.53 313.74 182.06 324.11 182.06 323.3 293.53 312.93 293.53 313.74"/><polygon class="cls-73" points="293.53 314.55 182.06 324.93 182.06 324.11 293.53 313.74 293.53 314.55"/><polygon class="cls-74" points="293.53 315.37 182.06 325.74 182.06 324.93 293.53 314.55 293.53 315.37"/><polygon class="cls-75" points="293.53 316.18 182.06 326.55 182.06 325.74 293.53 315.37 293.53 316.18"/><polygon class="cls-76" points="293.53 316.99 182.06 327.37 182.06 326.55 293.53 316.18 293.53 316.99"/><polygon class="cls-77" points="293.53 317.81 182.06 328.18 182.06 327.37 293.53 316.99 293.53 317.81"/><polygon class="cls-78" points="293.53 318.62 182.06 328.99 182.06 328.18 293.53 317.81 293.53 318.62"/><polygon class="cls-79" points="293.53 319.43 182.06 329.81 182.06 328.99 293.53 318.62 293.53 319.43"/><polygon class="cls-80" points="293.53 320.24 182.06 330.62 182.06 329.81 293.53 319.43 293.53 320.24"/><polygon class="cls-81" points="293.53 321.06 182.06 331.43 182.06 330.62 293.53 320.24 293.53 321.06"/><polygon class="cls-82" points="293.53 321.87 182.06 332.24 182.06 331.43 293.53 321.06 293.53 321.87"/><polygon class="cls-83" points="293.53 322.68 182.06 333.06 182.06 332.24 293.53 321.87 293.53 322.68"/><polygon class="cls-84" points="293.53 323.5 182.06 333.87 182.06 333.06 293.53 322.68 293.53 323.5"/><polygon class="cls-85" points="293.53 324.31 182.06 334.68 182.06 333.87 293.53 323.5 293.53 324.31"/><polygon class="cls-86" points="293.53 325.12 182.06 335.5 182.06 334.68 293.53 324.31 293.53 325.12"/><polygon class="cls-87" points="293.53 325.94 182.06 336.31 182.06 335.5 293.53 325.12 293.53 325.94"/><polygon class="cls-88" points="293.53 326.75 182.06 337.12 182.06 336.31 293.53 325.94 293.53 326.75"/><polygon class="cls-89" points="293.53 327.56 182.06 337.94 182.06 337.12 293.53 326.75 293.53 327.56"/><polygon class="cls-90" points="293.53 328.38 182.06 338.75 182.06 337.94 293.53 327.56 293.53 328.38"/><polygon class="cls-91" points="293.53 329.19 182.06 339.56 182.06 338.75 293.53 328.38 293.53 329.19"/><polygon class="cls-92" points="293.53 330 182.06 340.38 182.06 339.56 293.53 329.19 293.53 330"/><polygon class="cls-68" points="293.53 330.82 182.06 341.19 182.06 340.38 293.53 330 293.53 330.82"/><polygon class="cls-68" points="184.1 384.38 182.06 362.56 182.06 341.19 293.53 330.82 293.53 384.38 184.1 384.38"/></g><path class="cls-68" d="M182.35,220.71s-.88,110.78,64.76,101.68C282.6,317.47,294.62,282,288,251.47a191.55,191.55,0,0,1-3.79-46.76s-4.08-29.37-38.7-20.31-49.64,5.72-49.64,5.72S180.29,193.3,182.35,220.71Z"/><path class="cls-69" d="M176.82,226.89s25.09-2.78,36.43-7.67l.58-15.39s2.55,9.93,4.85,12.4,22.88-.73,32-3.58,4.81-14.7,4.81-14.7l4.33,11.85s28.58,3.45,28.74-.93-3.86-24.71-12.21-28.74-73.88-4.44-83.08,4.1S177.28,214.69,176.82,226.89Z"/><ellipse class="cls-93" cx="265.7" cy="242.56" rx="3.92" ry="3.17" transform="translate(-22.23 26.86) rotate(-5.56)"/><ellipse class="cls-93" cx="226.63" cy="246.26" rx="3.92" ry="3.17" transform="translate(-22.78 23.1) rotate(-5.56)"/><path class="cls-94" d="M250.3,277a15.34,15.34,0,0,1-5.17-.8l.35-.94c5.16,1.91,13.88,0,15.56-3.34,1.13-2.27-1.44-4.53-3.78-6-6.89-4.38-5.32-8.94-5.25-9.13l.94.34c0,.16-1.33,4,4.84,7.95,4.88,3.1,4.95,5.68,4.14,7.31C260.47,275.31,255.12,277,250.3,277Z"/><path class="cls-95" d="M264.7,287.05c-18.37,4.76-37.46.2-36.73,1.53,0,0,1.77,14.25,18,14.15C262.72,302.62,264.7,287.05,264.7,287.05Z"/><path class="cls-65" d="M219.13,331.75s22.52,13.66,36.94,11.81c6.84-.88,18.95-14,18.95-14l13,129.73-49.8,2.24Z"/><path class="cls-96" d="M172.41,555.72s-17.61,72.57-15.63,92.45,4.68,52.17,34,145.94c0,0,78.25,32.39,150.2-.8,0,0,6.29-1.86,10.91-43.82S364.32,606.9,343.18,562,172.41,555.72,172.41,555.72Z"/><path class="cls-69" d="M274.56,219.71s-4.74-6.2-9.75-3.1a.89.89,0,0,0-.58,1.12c.25.83,1.91-1.64,9.83,2.73C274.06,220.46,274.56,220.75,274.56,219.71Z"/><path class="cls-69" d="M214.68,224.15s4.75-6.21,9.75-3.11a.89.89,0,0,1,.58,1.12c-.25.84-1.91-1.63-9.83,2.73C215.18,224.89,214.68,225.18,214.68,224.15Z"/><path class="cls-65" d="M262.37,287.6s-.65,3.21-2,4.13-15.62,2-24.11.95c-5.38-.66-6.4-3.32-6.26-4.3C230,288.38,248.84,290.65,262.37,287.6Z"/><path class="cls-97" d="M249.13,302.5s-1.22-9.7-18.49-7.16C230.64,295.34,234.77,304.19,249.13,302.5Z"/><ellipse class="cls-98" cx="280.76" cy="252.77" rx="3.62" ry="6.23" transform="translate(5.56 511.58) rotate(-85.24)"/><ellipse class="cls-98" cx="214.54" cy="262.02" rx="6.23" ry="3.62" transform="translate(-52.56 53.84) rotate(-12.76)"/><path class="cls-99" d="M333.31,438.84l41.91,37.38s10.59,6.85,14.41,7.27c4,.44,11.28-4.8,11.28-4.8l67.67-73.64s-37.64-24.88-38-28.5-33.25,46.55-33.25,46.55-2.17-2.74-7.67-1.67c-3,.59-1.59,5.6-7.66-.14-3.74-3.54-9.95-8.73-15.17-16.11-29.22-41.33-56.53-70.83-58.39-72.35s-11-6.17-14.23-4.65S275,329.59,275,329.59L277.66,445,219.13,331.75s-12.56,4.33-26.08,2.61S156.81,338,156.81,338s-10.24,27.71-17.55,29.81-11,20.25-11,20.25c-2.17,2.65-10.18,14.08-19.61,27.72h0s-37.48,45.93-43,49.91-2.65,13.44-2.65,13.44L141.9,562.9l27.83-35.51c-7.13-.5-43.13-49.77-43.13-49.77,2.53-4.53,2.3-8.26,1.56-10.72,17.3-18.49,42.63-47.18,42.63-47.18.41,4.06,6.47,16.8,16.93,32.51s9.69,42.14,9.69,42.14c-14.94,21.68-25,61.35-25,61.35s1,7.92,26.28,20.54c11,5.51,46.51,16.31,46.51,16.31l39.46-43.28,50.78,35.64s9.12-9.13,8.21-18.27-18.44-63.5-18.44-63.5-1.89-19,.27-24.66S333.31,438.84,333.31,438.84Z"/><path class="cls-71" d="M153.28,564.7s12.2,10.7,14.67,8.23l12.43-35.19S164.81,549,153.28,564.7Z"/><path class="cls-68" d="M170.63,565.87s5.9-5.86,14.86,2.8,9.68,9.26,9.68,9.26,7,2.88,7.52-4.63c0,0,8.8,1.29,6.83-8.39,0,0,6.13-4.42.7-12,0,0,5.51-1.06,2.24-11.47s-24-20.46-24-20.46-9.94-3.49-10.82,8.07c0,0-7.16.38-4.66,10.38,0,0-4.65,4.2-3.65,8.77s-.11,3.66-.11,3.66S162.54,559.29,170.63,565.87Z"/><path class="cls-94" d="M202.31,573.63c-.11-.14-11.87-13.67-24.48-19.79l.44-.9c12.79,6.21,24.68,19.9,24.8,20Z"/><path class="cls-94" d="M209.17,565.27c-.17-.16-17.14-16.1-29.48-22.75l.48-.88c12.45,6.72,29.52,22.74,29.69,22.9Z"/><path class="cls-94" d="M209.84,553.19c-.15-.18-15.21-17.9-27.55-21.76l.3-.95c12.61,3.94,27.39,21.33,28,22.07Z"/><path class="cls-100" d="M219.13,331.75S195,343.4,181.9,363.18l44.38,12.67s-15.11,14.86-14.79,18.07,66.17,51,66.17,51,33.54-61.51,29.81-64.56-24.29-6.81-24.29-6.81,19.48-27.61,22.87-27.95-28-16.36-31-16.05,2.52,110.28,2.52,110.28l-.15,2.38Z"/><path class="cls-96" d="M277.66,445s9.26,81.81,7,104.33"/><circle class="cls-100" cx="291.4" cy="469.64" r="5.33"/><circle class="cls-100" cx="293.53" cy="507.64" r="5.33"/><path class="cls-101" d="M173.56,402.91l-1-.24A76.61,76.61,0,0,0,161,341.82l.82-.57A77.65,77.65,0,0,1,173.56,402.91Z"/><path class="cls-101" d="M328.84,405.1l-1-.09c1.1-12.3-3.36-24.58-7.3-35.41-4.66-12.82-10-27.35-20.07-37.88l.72-.69c10.27,10.68,15.59,25.32,20.29,38.23C325.45,380.19,330,392.58,328.84,405.1Z"/><path class="cls-101" d="M146.07,375.14a27.73,27.73,0,0,0-3.49-6.94l.82-.57a28.39,28.39,0,0,1,3.62,7.19Z"/><path class="cls-101" d="M135.79,390.8a34.62,34.62,0,0,0-6.08-.84l0-1a36.56,36.56,0,0,1,6.25.85Z"/><path class="cls-101" d="M334.19,439.12l-1-.12a73,73,0,0,0,.43-11.92l1,0A75,75,0,0,1,334.19,439.12Z"/><path class="cls-101" d="M400.14,437.11a74.37,74.37,0,0,0-2.84-11.6l.95-.31A74,74,0,0,1,401.12,437Z"/><path class="cls-101" d="M384.8,437.09l-1-.15a60.44,60.44,0,0,0,.75-10.74l1,0A60.42,60.42,0,0,1,384.8,437.09Z"/><path class="cls-101" d="M200.16,494.73l-.52-.85a59.68,59.68,0,0,1,11.6-5.54l.33.94A59.45,59.45,0,0,0,200.16,494.73Z"/><path class="cls-101" d="M127.52,467.41c-2.33,0-10-.2-12.54-2.75l.7-.71c2.65,2.65,12.37,2.45,12.47,2.45l0,1Z"/><path class="cls-101" d="M118.58,481.06v-1c3.43,0,7.7-2.83,7.74-2.86l.56.83C126.69,478.16,122.31,481.06,118.58,481.06Z"/><path class="cls-102" d="M429.66,380.81s2.67-5,6.17-7l37.67,21.76L464.16,407Z"/><path class="cls-94" d="M468.18,355l-.7-.71c1.94-1.94,15-3.57,16.44-3.75l.12,1C478.37,352.26,469.47,353.75,468.18,355Z"/><path class="cls-94" d="M493.85,354.74c-1.39,0-1.52-.19-1.63-.35a.58.58,0,0,1,.09-.77l.71.71a.45.45,0,0,0,.09-.36.39.39,0,0,0-.21-.27c1.86.69,34.52-3.93,36.74-4.53v0c.13,0,.56-.05.67.37l-.28.58c-.42.2-11.2,1.79-18.63,2.79C500.48,354.34,495.86,354.74,493.85,354.74Z"/><path class="cls-94" d="M496.51,358.81a13.91,13.91,0,0,1-4-.37l.37-.93c3.79,1.53,39.32-2.56,40.89-4.7a.17.17,0,0,0,0,.1l1,.07a1.12,1.12,0,0,1-.59.8C530.85,355.82,506.61,358.81,496.51,358.81Z"/><path class="cls-94" d="M506.71,368c-3.94,0-8-.56-9.1-1.28a.83.83,0,0,1-.47-1l1,.29a.28.28,0,0,0,0-.22c.27.31,2.34.86,5.94,1.08,4.89.3,9.1-.22,10.23-1.25l.15-.1,17-6.81a8.06,8.06,0,0,1,2,0,.64.64,0,0,1,.41.42c.14.44-.19,1.19-1,2.24l-.81-.59a7.23,7.23,0,0,0,.71-1.15c-.32,0-.81,0-1.25,0l-16.65,6.71C513.51,367.62,510.14,368,506.71,368Z"/><path class="cls-94" d="M470.37,365.43l-.41-.91c.2-.09,4.9-2.33,4.62-8.69l1,0A10,10,0,0,1,470.37,365.43Z"/><path class="cls-94" d="M457.8,373l-.94-.33c.14-.4,3.67-9.86,21.35-8.16.08,0,3.78.61,5.41-1l.08-.08.11,0c.25-.08,6.15-2.06,9.66.62l-.61.79c-2.85-2.18-7.85-.73-8.62-.49-2,1.9-6,1.25-6.16,1.22C461.2,363.85,457.83,372.88,457.8,373Z"/><path class="cls-94" d="M497.86,368.5l-.92-.39c.32-.77.61-2,.29-2.32-.07-.07-6.06-7.14-5.25-8.56a17.69,17.69,0,0,0,.19-4.89l1-.06c0,.74.23,4.49-.31,5.44,0,.89,4.21,6.49,5.08,7.36S498,368.09,497.86,368.5Z"/></g><g class="cls-103"><path class="cls-96" d="M190,275.55s-6.77,14.38-4.3,22.7S202.88,312,202.88,312s37.07,22.44,68.87,18.45,21.38-11,21.38-11l-55.79-45.94Z"/><path class="cls-96" d="M298,272s-5.18,10.44-3,17.43,15.57,10.15,15.57,10.15l10.35.39,104,5.36s7.43-21.13-51.76-33.44S298,272,298,272Z"/><path class="cls-104" d="M202.2,14.2l2.37,26.31s-29.12,70.66-9.27,203l-6,40.43s24.06,11.27,41.43,15.9a72.35,72.35,0,0,0,32,1.2s-39.64-43.48-45.34-49.63L267.07,11S238.58-46.54,202.2,14.2Z"/><path class="cls-104" d="M284.55,12.39S258.79,82.93,300,217.08c0,0,5.91,55.23-2.05,54.93s81.06,6.76,86.9,7-44.4-20.8-48.8-31.06-6.29-201.14-.33-218.46a234.54,234.54,0,0,0,8.72-34.22S289.46,1.67,284.55,12.39Z"/><path class="cls-96" d="M172.66-198.52S155.05-125.95,157-106.07s4.68,52.17,34,145.94c0,0,78.26,32.39,150.2-.8,0,0,6.29-1.86,10.91-43.82s12.42-142.59-8.72-187.46S172.66-198.52,172.66-198.52Z"/></g><path d="M561.87,195.21a8.83,8.83,0,0,1,6.23,2,7.79,7.79,0,0,1,0,10.87,8.82,8.82,0,0,1-6.23,2H556V219l2.86.23v1.55h-7.82v-1.55l2.86-.23V197l-2.86-.23v-1.57h10.79ZM556,208.38h5.83a6.43,6.43,0,0,0,4.76-1.61,5.52,5.52,0,0,0,1.59-4.05,5.66,5.66,0,0,0-1.58-4.09,6.41,6.41,0,0,0-4.77-1.62H556Z"/><path d="M586.9,220.81a16.44,16.44,0,0,1-.29-1.67,11.32,11.32,0,0,1-.09-1.43,8.3,8.3,0,0,1-2.82,2.48,7.91,7.91,0,0,1-4,1,6,6,0,0,1-4.32-1.44,5.14,5.14,0,0,1-1.53-3.91,4.82,4.82,0,0,1,2.26-4.18,10.82,10.82,0,0,1,6.16-1.55h4.2v-2.51a4.06,4.06,0,0,0-1.31-3.2,5.38,5.38,0,0,0-3.67-1.16,9.13,9.13,0,0,0-2.89.43,6.71,6.71,0,0,0-2.19,1.17l-.17,2.55h-1.74v-3.66a10.85,10.85,0,0,1,3.16-1.65,12,12,0,0,1,3.91-.63,7.6,7.6,0,0,1,5.06,1.6,5.61,5.61,0,0,1,1.92,4.58V217q0,.57,0,1.11a7.18,7.18,0,0,0,.11,1l1.9.12v1.55Zm-6.92-1.5a7.63,7.63,0,0,0,4-1.05,6.23,6.23,0,0,0,2.52-2.73v-3.81h-4.24a7.91,7.91,0,0,0-4.58,1.19,3.53,3.53,0,0,0-1.71,3,3.12,3.12,0,0,0,1.06,2.47A4.26,4.26,0,0,0,580,219.31Z"/><path d="M598.19,201.79l.26,3.16v.23a6.76,6.76,0,0,1,2.21-2.75,5.56,5.56,0,0,1,3.31-1,5.63,5.63,0,0,1,1.41.19l-.28,2-1.57-.11a4.8,4.8,0,0,0-3.26,1.12,6.2,6.2,0,0,0-1.82,3.07V219l2.87.23v1.55H593.5v-1.55l2.86-.23V203.58l-2.86-.23v-1.56h4.69Z"/><path d="M621.23,220.81a16.44,16.44,0,0,1-.29-1.67,11.32,11.32,0,0,1-.09-1.43,8.3,8.3,0,0,1-2.82,2.48,7.91,7.91,0,0,1-3.95,1,6,6,0,0,1-4.32-1.44,5.14,5.14,0,0,1-1.53-3.91,4.82,4.82,0,0,1,2.26-4.18,10.82,10.82,0,0,1,6.16-1.55h4.2v-2.51a4.06,4.06,0,0,0-1.31-3.2,5.38,5.38,0,0,0-3.67-1.16,9.13,9.13,0,0,0-2.89.43,6.71,6.71,0,0,0-2.19,1.17l-.17,2.55h-1.74v-3.66a10.85,10.85,0,0,1,3.16-1.65,12,12,0,0,1,3.91-.63A7.6,7.6,0,0,1,621,203a5.61,5.61,0,0,1,1.92,4.58V217q0,.57,0,1.11a7.18,7.18,0,0,0,.11,1l1.9.12v1.55Zm-6.92-1.5a7.63,7.63,0,0,0,4-1.05,6.23,6.23,0,0,0,2.52-2.73v-3.81h-4.24a7.91,7.91,0,0,0-4.58,1.19,3.53,3.53,0,0,0-1.71,3,3.12,3.12,0,0,0,1.06,2.47A4.26,4.26,0,0,0,614.31,219.31Z"/><path d="M641.55,196.92v4.87h4.19v1.72h-4.19V215.9a4.06,4.06,0,0,0,.68,2.65,2.26,2.26,0,0,0,1.8.78c.34,0,.67,0,1,0s.69-.08,1.11-.15l.32,1.56a5.47,5.47,0,0,1-1.28.35,8.67,8.67,0,0,1-1.52.13,3.94,3.94,0,0,1-3.12-1.27,6,6,0,0,1-1.11-4V203.51h-3.27v-1.72h3.27v-4.87Z"/><path d="M662.74,220.81c-.14-.65-.24-1.2-.3-1.67a11.32,11.32,0,0,1-.09-1.43,8.27,8.27,0,0,1-2.81,2.48,7.94,7.94,0,0,1-4,1,6.06,6.06,0,0,1-4.32-1.44,5.14,5.14,0,0,1-1.53-3.91,4.8,4.8,0,0,1,2.27-4.18,10.77,10.77,0,0,1,6.15-1.55h4.2v-2.51a4.06,4.06,0,0,0-1.31-3.2,5.37,5.37,0,0,0-3.67-1.16,9.17,9.17,0,0,0-2.89.43,6.71,6.71,0,0,0-2.19,1.17l-.17,2.55h-1.74l0-3.66a10.79,10.79,0,0,1,3.15-1.65,12,12,0,0,1,3.91-.63,7.6,7.6,0,0,1,5.06,1.6,5.61,5.61,0,0,1,1.92,4.58V217q0,.57,0,1.11a7.18,7.18,0,0,0,.11,1l1.9.12v1.55Zm-6.93-1.5a7.66,7.66,0,0,0,4-1.05,6.21,6.21,0,0,0,2.51-2.73v-3.81h-4.24a7.94,7.94,0,0,0-4.58,1.19,3.53,3.53,0,0,0-1.71,3,3.12,3.12,0,0,0,1.06,2.47A4.26,4.26,0,0,0,655.81,219.31Z"/><path d="M669.05,195v-1.56h5V219l2.87.23v1.55h-7.82v-1.55l2.86-.23V195.18Z"/><path d="M683.25,220a8,8,0,0,1-.66,3.17,7.75,7.75,0,0,1-1.8,2.62l-1.25-.92a9,9,0,0,0,1.22-2.3,7.5,7.5,0,0,0,.4-2.53v-2.5h2.09Z"/><path d="M701.36,203.35l-2.38.18L703.73,216l.61,2.24h.11l.67-2.24,4.67-12.51-2.37-.18v-1.56h6.4v1.56l-1.87.16-6.71,17.3h-1.69l-6.73-17.3-1.86-.16v-1.56h6.4Z"/><path d="M729,220.81a14.31,14.31,0,0,1-.3-1.67,11.32,11.32,0,0,1-.09-1.43,8.27,8.27,0,0,1-2.81,2.48,7.94,7.94,0,0,1-4,1,6.06,6.06,0,0,1-4.32-1.44,5.14,5.14,0,0,1-1.53-3.91,4.82,4.82,0,0,1,2.26-4.18,10.82,10.82,0,0,1,6.16-1.55h4.2v-2.51a4.06,4.06,0,0,0-1.31-3.2,5.37,5.37,0,0,0-3.67-1.16,9.17,9.17,0,0,0-2.89.43,6.71,6.71,0,0,0-2.19,1.17l-.17,2.55h-1.74l0-3.66a10.79,10.79,0,0,1,3.15-1.65,12,12,0,0,1,3.91-.63,7.6,7.6,0,0,1,5.06,1.6,5.61,5.61,0,0,1,1.92,4.58V217q0,.57,0,1.11a7.18,7.18,0,0,0,.11,1l1.9.12v1.55Zm-6.93-1.5a7.63,7.63,0,0,0,4-1.05,6.23,6.23,0,0,0,2.52-2.73v-3.81h-4.24a7.94,7.94,0,0,0-4.58,1.19,3.53,3.53,0,0,0-1.71,3,3.12,3.12,0,0,0,1.06,2.47A4.26,4.26,0,0,0,722.08,219.31Z"/><path d="M735.28,203.35v-1.56H740l.19,3.14a6.7,6.7,0,0,1,2.45-2.58,6.94,6.94,0,0,1,3.63-.91,6,6,0,0,1,3.64,1.06,5.83,5.83,0,0,1,2.09,3.24,7.5,7.5,0,0,1,2.46-3.15,6.4,6.4,0,0,1,3.87-1.15,5.75,5.75,0,0,1,4.71,2c1.1,1.35,1.66,3.43,1.66,6.26V219l2.86.25v1.55h-7.86v-1.55l2.87-.25v-9.33c0-2.34-.41-4-1.24-5a4.3,4.3,0,0,0-3.45-1.46,4.7,4.7,0,0,0-3.79,1.57,7.53,7.53,0,0,0-1.65,4c0,.09,0,.18,0,.26a3,3,0,0,1,0,.32V219l2.87.23v1.55H747.5v-1.55l2.86-.23v-9.35q0-3.45-1.25-4.93a4.3,4.3,0,0,0-3.46-1.49,5.25,5.25,0,0,0-3.56,1.14,6,6,0,0,0-1.83,3V219l2.86.23v1.55h-7.84v-1.55l2.87-.23V203.58Z"/><path d="M770,211a10.19,10.19,0,0,1,2.3-6.89,8.28,8.28,0,0,1,12.22,0,10.24,10.24,0,0,1,2.3,6.89v.58a10.29,10.29,0,0,1-2.29,6.9,8.32,8.32,0,0,1-12.23,0,10.2,10.2,0,0,1-2.3-6.9Zm2.11.58a9,9,0,0,0,1.67,5.55,5.89,5.89,0,0,0,9.26,0,9.07,9.07,0,0,0,1.67-5.55V211A9,9,0,0,0,783,205.5a5.85,5.85,0,0,0-9.25,0,9,9,0,0,0-1.67,5.52Z"/><path d="M804.05,207.66h-1.73l-.24-2.69a5.26,5.26,0,0,0-2-1.28,7.62,7.62,0,0,0-2.77-.46,5.18,5.18,0,0,0-3.45,1,3,3,0,0,0-1.15,2.33,2.76,2.76,0,0,0,1,2.18,9.5,9.5,0,0,0,4,1.51,13.14,13.14,0,0,1,5.08,2.07,4.27,4.27,0,0,1,1.68,3.56,4.61,4.61,0,0,1-1.92,3.84,8.18,8.18,0,0,1-5.09,1.47,11.9,11.9,0,0,1-3.84-.59,9.19,9.19,0,0,1-3-1.66V215.1h1.71l.3,2.7a4.88,4.88,0,0,0,2.13,1.22,9.27,9.27,0,0,0,2.7.38,5.81,5.81,0,0,0,3.6-1,3,3,0,0,0,1.32-2.43,3.06,3.06,0,0,0-1.1-2.33,8.84,8.84,0,0,0-4-1.64,13.29,13.29,0,0,1-5-2,4,4,0,0,1-1.64-3.42,4.58,4.58,0,0,1,1.84-3.68,7.51,7.51,0,0,1,4.87-1.5,10.92,10.92,0,0,1,3.83.64,7.75,7.75,0,0,1,2.82,1.73Z"/><path d="M825.4,221.18a7.64,7.64,0,0,1-5.94-2.63,9.64,9.64,0,0,1-2.35-6.69v-1a9.93,9.93,0,0,1,2.34-6.76,7.26,7.26,0,0,1,5.67-2.69,7.05,7.05,0,0,1,5.5,2.21,8.47,8.47,0,0,1,2,5.91v1.79H819.2v.51a8.42,8.42,0,0,0,1.71,5.37,5.44,5.44,0,0,0,4.49,2.17,9.2,9.2,0,0,0,3.34-.54,6.73,6.73,0,0,0,2.38-1.57l.89,1.44a7.55,7.55,0,0,1-2.7,1.79A10.42,10.42,0,0,1,825.4,221.18Zm-.28-18a5,5,0,0,0-3.91,1.78,7.61,7.61,0,0,0-1.85,4.48l0,.09h11.15v-.53a6.1,6.1,0,0,0-1.46-4.15A5,5,0,0,0,825.12,203.23Z"/><path d="M836,219.26l2.12-.19,6-7.95-5.73-7.57-2.15-.2v-1.56h6.45v1.56l-2,.11,4.54,6.1,4.55-6.12-1.95-.09v-1.56h6.45v1.56l-2.12.2-5.74,7.57,6,7.95,2.14.19v1.55h-6.43v-1.55l2-.09-4.83-6.47-4.82,6.47,1.95.09v1.55H836Z"/><path d="M856.78,203.35v-1.56h4.62l.27,3a6.65,6.65,0,0,1,6-3.3,6.2,6.2,0,0,1,5.36,2.73,12.37,12.37,0,0,1,1.94,7.29v.37a11,11,0,0,1-1.94,6.81,6.32,6.32,0,0,1-5.32,2.54,7.63,7.63,0,0,1-3.51-.77,6.4,6.4,0,0,1-2.45-2.17v8.09l2.86.23v1.56h-7.82v-1.56l2.87-.23V203.58Zm16.07,8.11a10.91,10.91,0,0,0-1.44-5.91,4.71,4.71,0,0,0-4.22-2.29,5.54,5.54,0,0,0-3.46,1,6.2,6.2,0,0,0-2,2.62V216a5.73,5.73,0,0,0,2.08,2.47,6.12,6.12,0,0,0,3.4.89,4.76,4.76,0,0,0,4.19-2.07,9.49,9.49,0,0,0,1.44-5.5Z"/><path d="M877.79,195v-1.56h5V219l2.87.23v1.55h-7.82v-1.55l2.86-.23V195.18Z"/><path d="M888.58,211a10.24,10.24,0,0,1,2.3-6.89,8.28,8.28,0,0,1,12.22,0,10.24,10.24,0,0,1,2.3,6.89v.58a10.24,10.24,0,0,1-2.29,6.9,8.32,8.32,0,0,1-12.23,0,10.25,10.25,0,0,1-2.3-6.9Zm2.11.58a9.07,9.07,0,0,0,1.67,5.55,5.89,5.89,0,0,0,9.26,0,9,9,0,0,0,1.67-5.55V211a9,9,0,0,0-1.68-5.52,5.85,5.85,0,0,0-9.25,0,9.07,9.07,0,0,0-1.67,5.52Z"/><path d="M913.38,201.79l.27,3.16v.23a6.66,6.66,0,0,1,2.2-2.75,5.59,5.59,0,0,1,3.32-1,5,5,0,0,1,.78.06,4.69,4.69,0,0,1,.62.13l-.28,2-1.56-.11a4.76,4.76,0,0,0-3.26,1.12,6.12,6.12,0,0,0-1.82,3.07V219l2.86.23v1.55h-7.82v-1.55l2.86-.23V203.58l-2.86-.23v-1.56h4.69Z"/><path d="M936.43,220.81c-.14-.65-.24-1.2-.3-1.67a11.32,11.32,0,0,1-.09-1.43,8.27,8.27,0,0,1-2.81,2.48,7.92,7.92,0,0,1-4,1,6.06,6.06,0,0,1-4.32-1.44,5.14,5.14,0,0,1-1.53-3.91,4.83,4.83,0,0,1,2.27-4.18,10.77,10.77,0,0,1,6.15-1.55H936v-2.51a4.06,4.06,0,0,0-1.31-3.2,5.34,5.34,0,0,0-3.66-1.16,9.19,9.19,0,0,0-2.9.43,6.55,6.55,0,0,0-2.18,1.17l-.18,2.55h-1.74l0-3.66a10.92,10.92,0,0,1,3.15-1.65,12,12,0,0,1,3.91-.63,7.64,7.64,0,0,1,5.07,1.6,5.64,5.64,0,0,1,1.91,4.58V217q0,.57,0,1.11a8.88,8.88,0,0,0,.11,1l1.9.12v1.55Zm-6.93-1.5a7.66,7.66,0,0,0,4-1.05,6.21,6.21,0,0,0,2.51-2.73v-3.81H931.8a7.94,7.94,0,0,0-4.58,1.19,3.53,3.53,0,0,0-1.71,3,3.15,3.15,0,0,0,1.06,2.47A4.26,4.26,0,0,0,929.5,219.31Z"/><path d="M947.71,201.79,948,205v.23a6.66,6.66,0,0,1,2.2-2.75,5.59,5.59,0,0,1,3.32-1,5,5,0,0,1,.78.06,4.69,4.69,0,0,1,.62.13l-.28,2-1.56-.11a4.76,4.76,0,0,0-3.26,1.12,6.12,6.12,0,0,0-1.82,3.07V219l2.86.23v1.55H943v-1.55l2.86-.23V203.58l-2.86-.23v-1.56h4.69Z"/><path d="M971.21,196.92v4.87h4.19v1.72h-4.19V215.9a4.06,4.06,0,0,0,.68,2.65,2.26,2.26,0,0,0,1.8.78c.34,0,.67,0,1,0s.69-.08,1.11-.15l.32,1.56a5.47,5.47,0,0,1-1.28.35,8.67,8.67,0,0,1-1.52.13,3.94,3.94,0,0,1-3.12-1.27,6,6,0,0,1-1.11-4V203.51h-3.27v-1.72h3.27v-4.87Z"/><path d="M983.82,201.79l.26,3.16v.23a6.76,6.76,0,0,1,2.21-2.75,5.56,5.56,0,0,1,3.31-1,5.63,5.63,0,0,1,1.41.19l-.28,2-1.57-.11a4.8,4.8,0,0,0-3.26,1.12,6.12,6.12,0,0,0-1.82,3.07V219l2.87.23v1.55h-7.83v-1.55L982,219V203.58l-2.87-.23v-1.56h4.7Z"/><path d="M1001.78,221.18a7.64,7.64,0,0,1-5.94-2.63,9.64,9.64,0,0,1-2.35-6.69v-1a9.93,9.93,0,0,1,2.34-6.76,7.26,7.26,0,0,1,5.67-2.69,7.05,7.05,0,0,1,5.5,2.21,8.47,8.47,0,0,1,2,5.91v1.79H995.58v.51a8.42,8.42,0,0,0,1.71,5.37,5.44,5.44,0,0,0,4.49,2.17,9.2,9.2,0,0,0,3.34-.54,6.73,6.73,0,0,0,2.38-1.57l.89,1.44a7.59,7.59,0,0,1-2.71,1.79A10.4,10.4,0,0,1,1001.78,221.18Zm-.28-18a5,5,0,0,0-3.91,1.78,7.61,7.61,0,0,0-1.85,4.48l0,.09h11.15v-.53a6.1,6.1,0,0,0-1.46-4.15A5,5,0,0,0,1001.5,203.23Zm5-5.1v.32h-2l-2.94-2.95-2.92,2.95h-1.91v-.37l4-3.89h1.72Z"/><path d="M1026.57,207.66h-1.73l-.24-2.69a5.26,5.26,0,0,0-2-1.28,7.61,7.61,0,0,0-2.76-.46,5.19,5.19,0,0,0-3.46,1,3,3,0,0,0-1.15,2.33,2.76,2.76,0,0,0,1,2.18,9.62,9.62,0,0,0,4,1.51,13.14,13.14,0,0,1,5.08,2.07,4.27,4.27,0,0,1,1.68,3.56,4.61,4.61,0,0,1-1.92,3.84,8.16,8.16,0,0,1-5.09,1.47,11.9,11.9,0,0,1-3.84-.59,9.29,9.29,0,0,1-3-1.66V215.1h1.71l.3,2.7a4.88,4.88,0,0,0,2.13,1.22,9.27,9.27,0,0,0,2.7.38,5.79,5.79,0,0,0,3.6-1,3,3,0,0,0,1.32-2.43,3,3,0,0,0-1.1-2.33,8.84,8.84,0,0,0-4-1.64,13.29,13.29,0,0,1-5-2,4,4,0,0,1-1.64-3.42,4.59,4.59,0,0,1,1.85-3.68,7.48,7.48,0,0,1,4.87-1.5,10.9,10.9,0,0,1,3.82.64,7.75,7.75,0,0,1,2.82,1.73Z"/><path d="M576.09,243.51l-.08,0L567.73,264h-2.31l-8.28-20.5-.08,0,.35,10.35v7.42l2.86.49V264h-9.19v-2.22l2.86-.49V241.14l-2.86-.49v-2.24h7.29l8.16,20.8h.11l8.13-20.8h7.32v2.24l-2.87.49V261.3l2.87.49V264h-9.2v-2.22l2.87-.49v-7.42Z"/><path d="M584.88,261.79l2.87-.49V247.71l-2.87-.49V245h6.33V261.3l2.87.49V264h-9.2Zm6.33-21.67h-3.46v-3.53h3.46Z"/><path d="M605.26,261.67a4.68,4.68,0,0,0,3-1.06A3.26,3.26,0,0,0,609.6,258h3.11l0,.1a5.34,5.34,0,0,1-2.18,4.37,8,8,0,0,1-5.3,1.91,7.69,7.69,0,0,1-6.34-2.71,10.45,10.45,0,0,1-2.19-6.8v-.74a10.4,10.4,0,0,1,2.2-6.78,7.65,7.65,0,0,1,6.33-2.71,10.66,10.66,0,0,1,4.1.75,8.31,8.31,0,0,1,3,2.08l.16,4.22h-2.76l-.75-3a4.65,4.65,0,0,0-1.58-1,6,6,0,0,0-2.18-.37,4.17,4.17,0,0,0-3.9,2,9.24,9.24,0,0,0-1.17,4.81v.74a9.4,9.4,0,0,0,1.16,4.86A4.21,4.21,0,0,0,605.26,261.67Z"/><path d="M616.12,247.22V245h6l.33,2.76a6.71,6.71,0,0,1,2-2.29,4.62,4.62,0,0,1,2.71-.82,6.15,6.15,0,0,1,.84.06,4.5,4.5,0,0,1,.66.13l-.46,3.22-2-.11a4,4,0,0,0-2.3.64,4.16,4.16,0,0,0-1.44,1.81V261.3l2.86.49V264h-9.19v-2.22l2.86-.49V247.71Z"/><path d="M630.67,254.32a10.49,10.49,0,0,1,2.29-6.95,7.66,7.66,0,0,1,6.2-2.73,7.75,7.75,0,0,1,6.24,2.72,10.5,10.5,0,0,1,2.29,7v.39a10.37,10.37,0,0,1-2.29,7,8.48,8.48,0,0,1-12.44,0,10.45,10.45,0,0,1-2.29-7Zm3.47.39a9,9,0,0,0,1.27,5,4.58,4.58,0,0,0,7.53,0,8.94,8.94,0,0,0,1.29-5v-.39a8.94,8.94,0,0,0-1.29-5,4.57,4.57,0,0,0-7.54,0,9.1,9.1,0,0,0-1.26,5Z"/><path d="M650.17,261.79l2.86-.49V247.71l-2.86-.49V245h6l.23,2.48a6.16,6.16,0,0,1,2.36-2.09,7.12,7.12,0,0,1,3.34-.74,5.87,5.87,0,0,1,3.26.88,5.29,5.29,0,0,1,2,2.63,7,7,0,0,1,2.37-2.56,6.15,6.15,0,0,1,3.44-1,5.71,5.71,0,0,1,4.61,2q1.69,2,1.69,6v8.66l2.86.49V264h-9.21v-2.22l2.87-.49v-8.7a6.27,6.27,0,0,0-1-4,3.49,3.49,0,0,0-2.86-1.17,3.64,3.64,0,0,0-2.91,1.27,5.52,5.52,0,0,0-1.28,3.21v9.37l2.87.49V264h-9.2v-2.22l2.87-.49v-8.7a6.24,6.24,0,0,0-1-3.91,3.47,3.47,0,0,0-2.88-1.24,4.8,4.8,0,0,0-2.6.65,4.13,4.13,0,0,0-1.56,1.83V261.3l2.86.49V264h-9.19Z"/><path d="M698.47,261.2a6.43,6.43,0,0,1-2.31,2.35,6.35,6.35,0,0,1-3.26.83,6.07,6.07,0,0,1-4.83-2c-1.16-1.32-1.74-3.39-1.74-6.19v-8.49l-2.18-.49V245h5.64v11.25c0,2,.3,3.42.9,4.18a3.31,3.31,0,0,0,2.79,1.14,5.67,5.67,0,0,0,3-.74,4.73,4.73,0,0,0,1.82-2.12v-11l-2.55-.49V245h6V261.3l2.18.49V264H698.7Z"/><path d="M706.22,261.79l2.87-.49V247.71l-2.87-.49V245h6l.25,2.83a6.94,6.94,0,0,1,2.38-2.35,6.42,6.42,0,0,1,3.26-.83,6.23,6.23,0,0,1,4.77,1.8q1.68,1.8,1.68,5.56v9.3l2.87.49V264h-9.2v-2.22l2.87-.49v-9.23a5.18,5.18,0,0,0-1-3.57,4,4,0,0,0-3-1.05,4.89,4.89,0,0,0-2.64.72,5.29,5.29,0,0,0-1.84,2V261.3l2.87.49V264h-9.2Z"/><path d="M742.54,261.74a6.13,6.13,0,0,1-2.28,2,7,7,0,0,1-3.12.67,6.49,6.49,0,0,1-5.44-2.53,10.54,10.54,0,0,1-2-6.63v-.37a12.73,12.73,0,0,1,2-7.4,6.3,6.3,0,0,1,5.48-2.81,6.87,6.87,0,0,1,3,.62,6.16,6.16,0,0,1,2.2,1.8v-7.75l-2.86-.49v-2.23h6.33V261.3l2.86.49V264h-5.87Zm-9.33-6.52a8.1,8.1,0,0,0,1.17,4.6,4.1,4.1,0,0,0,3.64,1.74,4.57,4.57,0,0,0,2.6-.7,5.27,5.27,0,0,0,1.74-2v-8.83a5.23,5.23,0,0,0-1.74-1.9,4.54,4.54,0,0,0-2.56-.7,4,4,0,0,0-3.67,2.06,10.61,10.61,0,0,0-1.18,5.34Z"/><path d="M751.35,254.32a10.48,10.48,0,0,1,2.28-6.95,8.46,8.46,0,0,1,12.44,0,10.44,10.44,0,0,1,2.29,7v.39a10.42,10.42,0,0,1-2.28,7,8.49,8.49,0,0,1-12.45,0,10.44,10.44,0,0,1-2.28-7Zm3.46.39a9,9,0,0,0,1.27,5,4.59,4.59,0,0,0,7.54,0,9,9,0,0,0,1.28-5v-.39a9,9,0,0,0-1.28-5,4.22,4.22,0,0,0-3.78-2,4.15,4.15,0,0,0-3.76,2,9,9,0,0,0-1.27,5Z"/><path d="M786.08,251h-2.6l-.56-2.29a4.63,4.63,0,0,0-1.59-1,6.17,6.17,0,0,0-2.17-.36,4,4,0,0,0-2.75.81,2.56,2.56,0,0,0-.89,2,2.18,2.18,0,0,0,.79,1.78,8.29,8.29,0,0,0,3.21,1.16,13.74,13.74,0,0,1,5.37,2.1,4.22,4.22,0,0,1,1.75,3.56,4.92,4.92,0,0,1-2,4.09,8.56,8.56,0,0,1-5.36,1.57,14,14,0,0,1-3.88-.5,10.54,10.54,0,0,1-3.08-1.45l0-4.35h2.61l.65,2.55a3.52,3.52,0,0,0,1.62.79,8.74,8.74,0,0,0,2.1.25,4.92,4.92,0,0,0,2.9-.75,2.3,2.3,0,0,0,1-2,2.36,2.36,0,0,0-.87-1.88,8.18,8.18,0,0,0-3.3-1.28,13.84,13.84,0,0,1-5.22-2.06,4.13,4.13,0,0,1-1.75-3.51,5,5,0,0,1,2-4,7.83,7.83,0,0,1,5.15-1.63,12.32,12.32,0,0,1,3.88.56,8.22,8.22,0,0,1,2.87,1.56Z"/><path d="M799.26,253.67a26.1,26.1,0,0,1,2.44-11.44q2.43-5.07,5.44-6.77h.11l.45,1.28q-2.55,1.81-4.44,6.44a27.17,27.17,0,0,0-1.9,10.44V254a27.17,27.17,0,0,0,1.9,10.44q1.89,4.62,4.44,6.51l-.45,1.23h-.11c-2-1.18-3.85-3.41-5.46-6.72a25.91,25.91,0,0,1-2.42-11.49Z"/><path d="M809.85,246.71V245H813v-2.78a6.3,6.3,0,0,1,1.44-4.43,5.24,5.24,0,0,1,4-1.56,7.75,7.75,0,0,1,1.16.09,10.78,10.78,0,0,1,1.21.24l-.26,1.74c-.28-.07-.57-.12-.86-.17a7.78,7.78,0,0,0-1-.06,3.27,3.27,0,0,0-2.64,1.09,4.59,4.59,0,0,0-.93,3.06V245h4.54v1.72H815.1v15.52l2.87.23V264h-7.84v-1.55l2.86-.23V246.71Z"/><path d="M836,264c-.14-.65-.24-1.2-.3-1.67a11.32,11.32,0,0,1-.09-1.43,8.27,8.27,0,0,1-2.81,2.48,7.91,7.91,0,0,1-4,1,6.07,6.07,0,0,1-4.33-1.44A5.14,5.14,0,0,1,823,259a4.83,4.83,0,0,1,2.27-4.18,10.77,10.77,0,0,1,6.15-1.55h4.2v-2.51a4,4,0,0,0-1.31-3.2,5.34,5.34,0,0,0-3.66-1.16,9.09,9.09,0,0,0-2.89.43,6.61,6.61,0,0,0-2.19,1.17l-.18,2.55h-1.74l0-3.66a10.85,10.85,0,0,1,3.16-1.65,11.92,11.92,0,0,1,3.91-.63,7.63,7.63,0,0,1,5.06,1.6,5.61,5.61,0,0,1,1.92,4.58v9.36c0,.38,0,.75,0,1.11a8.87,8.87,0,0,0,.12,1l1.89.12V264Zm-6.93-1.5a7.64,7.64,0,0,0,4-1.05,6.15,6.15,0,0,0,2.51-2.73v-3.81H831.4a7.91,7.91,0,0,0-4.58,1.19,3.54,3.54,0,0,0-1.72,3,3.13,3.13,0,0,0,1.07,2.47A4.24,4.24,0,0,0,829.09,262.51Z"/><path d="M842.3,246.55V245H847l.2,3.15a6.63,6.63,0,0,1,2.44-2.59,7,7,0,0,1,3.64-.91,6,6,0,0,1,3.64,1.06,5.88,5.88,0,0,1,2.09,3.24,7.4,7.4,0,0,1,2.45-3.15,6.43,6.43,0,0,1,3.88-1.15,5.73,5.73,0,0,1,4.7,2c1.11,1.35,1.66,3.43,1.66,6.26v9.3l2.87.24V264h-7.86v-1.55l2.86-.24v-9.34c0-2.34-.41-4-1.23-5a4.3,4.3,0,0,0-3.46-1.45,4.71,4.71,0,0,0-3.79,1.56,7.52,7.52,0,0,0-1.64,4,2.17,2.17,0,0,0,0,.26c0,.09,0,.19,0,.32v9.63l2.86.23V264h-7.84v-1.55l2.87-.23v-9.35q0-3.45-1.26-4.93a4.28,4.28,0,0,0-3.45-1.48,5.23,5.23,0,0,0-3.56,1.13,5.94,5.94,0,0,0-1.84,3.05v11.58l2.87.23V264H842.3v-1.55l2.86-.23V246.78Z"/><path d="M877.07,246.55V245H882v17.24l2.87.23V264h-7.82v-1.55l2.86-.23V246.78Zm5.83-8.61h2.59l0,.11-4.38,4.57h-1.88Z"/><path d="M888,238.15v-1.56h5v25.64l2.87.23V264H888v-1.55l2.87-.23V238.38Z"/><path d="M899,262.46l2.86-.23V246.78l-2.86-.23V245h5v17.24l2.86.23V264H899Zm5-22.92h-2.1v-2.95h2.1Z"/><path d="M923.45,264a16.44,16.44,0,0,1-.29-1.67,11.32,11.32,0,0,1-.09-1.43,8.36,8.36,0,0,1-2.81,2.48,8,8,0,0,1-4,1,6.06,6.06,0,0,1-4.32-1.44,5.14,5.14,0,0,1-1.53-3.91,4.82,4.82,0,0,1,2.26-4.18,10.82,10.82,0,0,1,6.16-1.55h4.2v-2.51a4.06,4.06,0,0,0-1.31-3.2,5.37,5.37,0,0,0-3.67-1.16,9.13,9.13,0,0,0-2.89.43A6.71,6.71,0,0,0,913,248l-.17,2.55H911.1v-3.66a11,11,0,0,1,3.16-1.65,12,12,0,0,1,3.91-.63,7.6,7.6,0,0,1,5.06,1.6,5.61,5.61,0,0,1,1.92,4.58v9.36q0,.57,0,1.11a7.18,7.18,0,0,0,.11,1l1.9.12V264Zm-6.92-1.5a7.63,7.63,0,0,0,4-1.05,6.23,6.23,0,0,0,2.52-2.73v-3.81h-4.24a7.91,7.91,0,0,0-4.58,1.19,3.53,3.53,0,0,0-1.71,3,3.12,3.12,0,0,0,1.06,2.47A4.26,4.26,0,0,0,916.53,262.51Z"/><path d="M933.25,263.16a8,8,0,0,1-.66,3.17,7.63,7.63,0,0,1-1.81,2.62l-1.24-.92a9.34,9.34,0,0,0,1.22-2.3,7.76,7.76,0,0,0,.39-2.53v-2.5h2.1Z"/><path d="M945.53,246.71V245h3.15v-2.78a6.3,6.3,0,0,1,1.44-4.43,5.21,5.21,0,0,1,4-1.56,7.85,7.85,0,0,1,1.16.09,11.24,11.24,0,0,1,1.21.24l-.26,1.74c-.29-.07-.57-.12-.87-.17a7.62,7.62,0,0,0-1-.06,3.31,3.31,0,0,0-2.65,1.09,4.64,4.64,0,0,0-.92,3.06V245h4.53v1.72h-4.53v15.52l2.86.23V264h-7.84v-1.55l2.87-.23V246.71Z"/><path d="M966.54,264.38a7.64,7.64,0,0,1-5.94-2.63,9.64,9.64,0,0,1-2.36-6.69v-1a9.89,9.89,0,0,1,2.35-6.76,7.23,7.23,0,0,1,5.67-2.69,7.07,7.07,0,0,1,5.5,2.21,8.51,8.51,0,0,1,2,5.91v1.79H960.33v.51a8.37,8.37,0,0,0,1.72,5.37,5.44,5.44,0,0,0,4.49,2.17,9.24,9.24,0,0,0,3.34-.54,6.78,6.78,0,0,0,2.37-1.57l.9,1.44a7.68,7.68,0,0,1-2.71,1.79A10.4,10.4,0,0,1,966.54,264.38Zm-.28-17.95a5,5,0,0,0-3.91,1.78,7.68,7.68,0,0,0-1.86,4.48l0,.09h11.14v-.53a6.1,6.1,0,0,0-1.46-4.15A5,5,0,0,0,966.26,246.43Z"/><path d="M977.38,262.46l2.87-.23V246.78l-2.87-.23V245h5v17.24l2.87.23V264h-7.83Zm5-22.92h-2.09v-2.95h2.09Z"/><path d="M993.29,245l.27,3.16v.23a6.66,6.66,0,0,1,2.2-2.75,5.59,5.59,0,0,1,3.32-1,5,5,0,0,1,.78.06,4.69,4.69,0,0,1,.62.13l-.28,2-1.56-.11a4.76,4.76,0,0,0-3.26,1.12,6.12,6.12,0,0,0-1.82,3.07v11.35l2.86.23V264H988.6v-1.55l2.86-.23V246.78l-2.86-.23V245h4.69Z"/><path d="M1016.34,264c-.14-.65-.24-1.2-.3-1.67a11.32,11.32,0,0,1-.09-1.43,8.27,8.27,0,0,1-2.81,2.48,7.92,7.92,0,0,1-4,1,6.06,6.06,0,0,1-4.32-1.44,5.14,5.14,0,0,1-1.53-3.91,4.83,4.83,0,0,1,2.27-4.18,10.77,10.77,0,0,1,6.15-1.55h4.2v-2.51a4.06,4.06,0,0,0-1.31-3.2,5.34,5.34,0,0,0-3.66-1.16,9.19,9.19,0,0,0-2.9.43,6.55,6.55,0,0,0-2.18,1.17l-.18,2.55H1004l0-3.66a10.92,10.92,0,0,1,3.15-1.65,12,12,0,0,1,3.91-.63,7.64,7.64,0,0,1,5.07,1.6,5.64,5.64,0,0,1,1.91,4.58v9.36q0,.57,0,1.11a8.88,8.88,0,0,0,.11,1l1.9.12V264Zm-6.93-1.5a7.66,7.66,0,0,0,4-1.05,6.21,6.21,0,0,0,2.51-2.73v-3.81h-4.24a7.88,7.88,0,0,0-4.57,1.19,3.52,3.52,0,0,0-1.72,3,3.15,3.15,0,0,0,1.06,2.47A4.26,4.26,0,0,0,1009.41,262.51Z"/><path d="M551.11,281.35v-1.56h5v25.64l2.87.23v1.55h-7.83v-1.55l2.87-.23V281.58Z"/><path d="M562.12,305.66l2.86-.23V290l-2.86-.23v-1.56h5v17.24l2.86.23v1.55h-7.82Zm5-22.92H565v-2.95h2.1Z"/><path d="M579,289.75l-2.37.18,4.75,12.51.61,2.24h.11l.67-2.24,4.67-12.51-2.37-.18v-1.56h6.4v1.56l-1.87.16-6.71,17.3h-1.69l-6.73-17.3-1.86-.16v-1.56H579Z"/><path d="M598.33,288.19l.26,3.16v.23a6.76,6.76,0,0,1,2.21-2.75,5.58,5.58,0,0,1,3.31-1,5.16,5.16,0,0,1,.79.06,4.69,4.69,0,0,1,.62.13l-.28,2-1.57-.11a4.8,4.8,0,0,0-3.26,1.12,6.2,6.2,0,0,0-1.82,3.07v11.35l2.87.23v1.55h-7.82v-1.55l2.86-.23V290l-2.86-.23v-1.56h4.69Z"/><path d="M616.29,307.58a7.64,7.64,0,0,1-5.94-2.63,9.64,9.64,0,0,1-2.35-6.69v-1a9.93,9.93,0,0,1,2.34-6.76,7.26,7.26,0,0,1,5.67-2.69,7.08,7.08,0,0,1,5.51,2.21,8.51,8.51,0,0,1,2,5.91v1.79H610.09v.51a8.42,8.42,0,0,0,1.71,5.37,5.45,5.45,0,0,0,4.49,2.17,9.17,9.17,0,0,0,3.34-.54,6.73,6.73,0,0,0,2.38-1.57l.89,1.44a7.55,7.55,0,0,1-2.7,1.79A10.42,10.42,0,0,1,616.29,307.58ZM616,289.63a5,5,0,0,0-3.91,1.78,7.64,7.64,0,0,0-1.85,4.48l0,.09h11.15v-.53A6.1,6.1,0,0,0,620,291.3,5,5,0,0,0,616,289.63Z"/><path d="M644.42,307.58a7.64,7.64,0,0,1-5.94-2.63,9.64,9.64,0,0,1-2.36-6.69v-1a9.89,9.89,0,0,1,2.35-6.76,7.23,7.23,0,0,1,5.67-2.69,7.07,7.07,0,0,1,5.5,2.21,8.46,8.46,0,0,1,2,5.91v1.79H638.21v.51a8.43,8.43,0,0,0,1.72,5.37,5.44,5.44,0,0,0,4.49,2.17,9.24,9.24,0,0,0,3.34-.54,6.6,6.6,0,0,0,2.37-1.57l.9,1.44a7.68,7.68,0,0,1-2.71,1.79A10.4,10.4,0,0,1,644.42,307.58Zm-.28-17.95a5,5,0,0,0-3.91,1.78,7.71,7.71,0,0,0-1.86,4.48l0,.09h11.14v-.53a6,6,0,0,0-1.46-4.15A5,5,0,0,0,644.14,289.63Z"/><path d="M680.51,298.23a11,11,0,0,1-1.94,6.81,6.32,6.32,0,0,1-5.32,2.54,7.33,7.33,0,0,1-3.61-.84,6.38,6.38,0,0,1-2.44-2.4l-.23,2.87h-1.79V281.58l-2.87-.23v-1.56h5v11.39a6.51,6.51,0,0,1,5.94-3.34,6.2,6.2,0,0,1,5.36,2.73,12.37,12.37,0,0,1,1.94,7.29Zm-2.13-.37a11.11,11.11,0,0,0-1.41-5.92,4.55,4.55,0,0,0-4.14-2.27,5.44,5.44,0,0,0-3.56,1.09,6.38,6.38,0,0,0-2,2.79v8.6a5.71,5.71,0,0,0,5.59,3.6,4.66,4.66,0,0,0,4.13-2,9.57,9.57,0,0,0,1.39-5.48Z"/><path d="M697.21,307.21c-.14-.65-.24-1.2-.3-1.67a11.2,11.2,0,0,1-.09-1.43,8.27,8.27,0,0,1-2.81,2.48,7.92,7.92,0,0,1-4,1,6.06,6.06,0,0,1-4.32-1.44,5.12,5.12,0,0,1-1.53-3.91,4.8,4.8,0,0,1,2.27-4.18,10.77,10.77,0,0,1,6.15-1.55h4.2V294a4.06,4.06,0,0,0-1.31-3.2,5.34,5.34,0,0,0-3.66-1.16,9.19,9.19,0,0,0-2.9.43,6.55,6.55,0,0,0-2.18,1.17l-.18,2.55h-1.74l0-3.66a10.92,10.92,0,0,1,3.15-1.65,12,12,0,0,1,3.91-.63,7.64,7.64,0,0,1,5.07,1.6,5.64,5.64,0,0,1,1.91,4.58v9.36c0,.38,0,.76,0,1.11a8.88,8.88,0,0,0,.11,1.05l1.9.12v1.55Zm-6.93-1.5a7.66,7.66,0,0,0,4-1,6.21,6.21,0,0,0,2.51-2.73v-3.81h-4.24a7.94,7.94,0,0,0-4.58,1.19,3.53,3.53,0,0,0-1.71,3,3.15,3.15,0,0,0,1.06,2.47A4.26,4.26,0,0,0,690.28,305.71Z"/><path d="M703.8,305.66l2.86-.23V290l-2.86-.23v-1.56h5v17.24l2.86.23v1.55H703.8Zm5-22.92h-2.1v-2.95h2.1Z"/><path d="M719.71,288.19l.26,3.16v.23a6.68,6.68,0,0,1,2.21-2.75,5.56,5.56,0,0,1,3.31-1,4.93,4.93,0,0,1,.78.06,5.28,5.28,0,0,1,.63.13l-.29,2-1.56-.11a4.8,4.8,0,0,0-3.26,1.12,6.12,6.12,0,0,0-1.82,3.07v11.35l2.87.23v1.55H715v-1.55l2.87-.23V290l-2.87-.23v-1.56h4.7Z"/><path d="M734.17,288.19l.27,3.16v.23a6.74,6.74,0,0,1,2.2-2.75,5.59,5.59,0,0,1,3.32-1,4.93,4.93,0,0,1,.78.06,4.69,4.69,0,0,1,.62.13l-.28,2-1.56-.11a4.78,4.78,0,0,0-3.26,1.12,6.12,6.12,0,0,0-1.82,3.07v11.35l2.86.23v1.55h-7.82v-1.55l2.86-.23V290l-2.86-.23v-1.56h4.69Z"/><path d="M743.74,297.42a10.19,10.19,0,0,1,2.3-6.89,8.28,8.28,0,0,1,12.22,0,10.24,10.24,0,0,1,2.3,6.89V298a10.25,10.25,0,0,1-2.3,6.9,8.3,8.3,0,0,1-12.22,0,10.2,10.2,0,0,1-2.3-6.9Zm2.1.58a9.07,9.07,0,0,0,1.67,5.55,5.48,5.48,0,0,0,4.66,2.25,5.42,5.42,0,0,0,4.61-2.25,9.07,9.07,0,0,0,1.67-5.55v-.58a9,9,0,0,0-1.68-5.52,5.86,5.86,0,0,0-9.26,0,9.07,9.07,0,0,0-1.67,5.52Z"/><path d="M770.91,297.14a25.77,25.77,0,0,1-2.43,11.49q-2.44,5-5.46,6.72l-.11,0-.44-1.21q2.53-1.8,4.44-6.45a27.55,27.55,0,0,0,1.91-10.5v-.35a27.17,27.17,0,0,0-1.94-10.47q-1.95-4.68-4.41-6.48l.44-1.21.11,0q3,1.73,5.44,6.79a26,26,0,0,1,2.45,11.44Z"/><path d="M778.1,306.36a8,8,0,0,1-.66,3.17,7.75,7.75,0,0,1-1.8,2.62l-1.25-.92a9,9,0,0,0,1.22-2.3,7.5,7.5,0,0,0,.4-2.53v-2.5h2.09Z"/><path d="M798.81,305.8a6.05,6.05,0,0,0,3.69-1.19,3.92,3.92,0,0,0,1.6-3.33H806l0,.11a5.21,5.21,0,0,1-2.1,4.41,7.82,7.82,0,0,1-5.09,1.78,7.24,7.24,0,0,1-6-2.67,10.64,10.64,0,0,1-2.12-6.84v-.74a10.64,10.64,0,0,1,2.12-6.82,7.21,7.21,0,0,1,6-2.67,9.68,9.68,0,0,1,4,.82,8,8,0,0,1,3,2.25l.08,4.15h-1.79l-.33-3.37a6.08,6.08,0,0,0-2.1-1.51,7,7,0,0,0-2.86-.55,5.08,5.08,0,0,0-4.53,2.19,9.74,9.74,0,0,0-1.46,5.51v.74a9.71,9.71,0,0,0,1.46,5.55A5.07,5.07,0,0,0,798.81,305.8Z"/><path d="M809.92,297.42a10.19,10.19,0,0,1,2.3-6.89,8.28,8.28,0,0,1,12.22,0,10.24,10.24,0,0,1,2.3,6.89V298a10.29,10.29,0,0,1-2.29,6.9,8.32,8.32,0,0,1-12.23,0,10.2,10.2,0,0,1-2.3-6.9ZM812,298a9,9,0,0,0,1.67,5.55,5.89,5.89,0,0,0,9.26,0,9.07,9.07,0,0,0,1.67-5.55v-.58A9,9,0,0,0,823,291.9a5.85,5.85,0,0,0-9.25,0,9,9,0,0,0-1.67,5.52Z"/><path d="M829.71,289.75v-1.56h4.73l.19,3.15a6.65,6.65,0,0,1,2.45-2.59,6.91,6.91,0,0,1,3.63-.91,6,6,0,0,1,3.64,1.06,5.83,5.83,0,0,1,2.09,3.24A7.5,7.5,0,0,1,848.9,289a6.4,6.4,0,0,1,3.87-1.15,5.72,5.72,0,0,1,4.7,2c1.11,1.35,1.67,3.43,1.67,6.26v9.3l2.86.24v1.55h-7.86v-1.55l2.87-.24v-9.34c0-2.34-.41-4-1.24-5a4.29,4.29,0,0,0-3.45-1.45,4.7,4.7,0,0,0-3.79,1.56,7.45,7.45,0,0,0-1.65,4c0,.09,0,.18,0,.26a3,3,0,0,1,0,.32v9.63l2.87.23v1.55h-7.84v-1.55l2.86-.23v-9.35q0-3.45-1.25-4.93a4.29,4.29,0,0,0-3.46-1.48,5.23,5.23,0,0,0-3.56,1.13,6.12,6.12,0,0,0-1.84,3.05v11.58l2.87.23v1.55h-7.84v-1.55l2.87-.23V290Z"/><path d="M887.16,294.06h-1.73l-.24-2.69a5.34,5.34,0,0,0-2-1.28,7.62,7.62,0,0,0-2.77-.46,5.18,5.18,0,0,0-3.45,1,3,3,0,0,0-1.15,2.33,2.76,2.76,0,0,0,1,2.18,9.5,9.5,0,0,0,4,1.51,13,13,0,0,1,5.08,2.07,4.25,4.25,0,0,1,1.69,3.56,4.61,4.61,0,0,1-1.92,3.84,8.18,8.18,0,0,1-5.09,1.47,11.9,11.9,0,0,1-3.84-.59,9.08,9.08,0,0,1-3-1.66V301.5h1.71l.29,2.7a5,5,0,0,0,2.14,1.22,9.27,9.27,0,0,0,2.7.38,5.81,5.81,0,0,0,3.6-1,3,3,0,0,0,1.32-2.43,3.06,3.06,0,0,0-1.1-2.33,8.84,8.84,0,0,0-4-1.64,13.29,13.29,0,0,1-5-2,4,4,0,0,1-1.64-3.42,4.58,4.58,0,0,1,1.84-3.68,7.49,7.49,0,0,1,4.87-1.5,10.92,10.92,0,0,1,3.83.64,7.75,7.75,0,0,1,2.82,1.73Z"/><path d="M899.76,307.58a7.64,7.64,0,0,1-5.94-2.63,9.64,9.64,0,0,1-2.36-6.69v-1a9.89,9.89,0,0,1,2.35-6.76,7.23,7.23,0,0,1,5.67-2.69,7.07,7.07,0,0,1,5.5,2.21,8.46,8.46,0,0,1,2,5.91v1.79H893.55v.51a8.43,8.43,0,0,0,1.72,5.37,5.44,5.44,0,0,0,4.49,2.17,9.24,9.24,0,0,0,3.34-.54,6.69,6.69,0,0,0,2.37-1.57l.9,1.44a7.68,7.68,0,0,1-2.71,1.79A10.4,10.4,0,0,1,899.76,307.58Zm-.28-17.95a5,5,0,0,0-3.91,1.78,7.71,7.71,0,0,0-1.86,4.48l0,.09h11.14v-.53a6,6,0,0,0-1.46-4.15A5,5,0,0,0,899.48,289.63Z"/><path d="M924.72,304.08a6.55,6.55,0,0,1-2.45,2.58,7.12,7.12,0,0,1-3.67.92,5.78,5.78,0,0,1-4.7-2q-1.7-2-1.7-6.33V290l-2.35-.23v-1.56h4.45v11.06q0,3.48,1.18,5a4,4,0,0,0,3.37,1.51,6.16,6.16,0,0,0,3.8-1.06,5.56,5.56,0,0,0,2-2.91V290l-2.71-.23v-1.56h4.82v17.24l2.55.23v1.55h-4.4Z"/><path d="M946.2,294.06h-1.72l-.25-2.69a5.3,5.3,0,0,0-2-1.28,7.7,7.7,0,0,0-2.77-.46,5.19,5.19,0,0,0-3.46,1,3,3,0,0,0-1.15,2.33,2.74,2.74,0,0,0,1,2.18,9.5,9.5,0,0,0,4,1.51,13.14,13.14,0,0,1,5.08,2.07,4.28,4.28,0,0,1,1.69,3.56,4.6,4.6,0,0,1-1.93,3.84,8.16,8.16,0,0,1-5.09,1.47,12,12,0,0,1-3.84-.59,9.14,9.14,0,0,1-3-1.66V301.5h1.7l.3,2.7a4.86,4.86,0,0,0,2.14,1.22,9.26,9.26,0,0,0,2.69.38,5.82,5.82,0,0,0,3.61-1,3,3,0,0,0,1.32-2.43,3.06,3.06,0,0,0-1.1-2.33,8.94,8.94,0,0,0-4-1.64,13.17,13.17,0,0,1-5-2,4,4,0,0,1-1.65-3.42,4.59,4.59,0,0,1,1.85-3.68,7.48,7.48,0,0,1,4.87-1.5,10.86,10.86,0,0,1,3.82.64,7.58,7.58,0,0,1,2.82,1.73Z"/><path d="M566.53,338H556v10.62h12.09l.16-3.83h1.86v5.61H551.08v-1.55l2.86-.23v-22l-2.86-.23v-1.57h19v5.63H568.2l-.16-3.83H556v9.61h10.49Z"/><path d="M579.2,333l-2.37.18,4.75,12.51.61,2.24h.11l.67-2.24,4.67-12.51-2.37-.18v-1.56h6.4V333l-1.87.16-6.71,17.3H581.4l-6.73-17.3-1.86-.16v-1.56h6.39Z"/><path d="M602.14,350.78a7.64,7.64,0,0,1-5.94-2.63,9.64,9.64,0,0,1-2.35-6.69v-1a9.91,9.91,0,0,1,2.34-6.76,7.26,7.26,0,0,1,5.67-2.69,7,7,0,0,1,5.5,2.21,8.47,8.47,0,0,1,2,5.91V341H595.94v.51a8.42,8.42,0,0,0,1.71,5.37,5.45,5.45,0,0,0,4.49,2.17,9.2,9.2,0,0,0,3.34-.54,6.73,6.73,0,0,0,2.38-1.57l.89,1.44a7.55,7.55,0,0,1-2.7,1.79A10.42,10.42,0,0,1,602.14,350.78Zm-.28-17.95a5,5,0,0,0-3.91,1.78,7.61,7.61,0,0,0-1.85,4.48l0,.09h11.15v-.53a6.1,6.1,0,0,0-1.46-4.15A5,5,0,0,0,601.86,332.83Z"/><path d="M612.74,348.86l2.87-.23V333.18l-2.87-.23v-1.56h4.73l.2,3.32a6.72,6.72,0,0,1,2.47-2.72,6.93,6.93,0,0,1,3.68-.95,5.86,5.86,0,0,1,4.71,1.89q1.62,1.89,1.62,5.89v9.81l2.86.23v1.55h-7.84v-1.55l2.87-.23v-9.79q0-3.27-1.23-4.62a4.44,4.44,0,0,0-3.47-1.36,5.44,5.44,0,0,0-3.61,1.17,6.53,6.53,0,0,0-2,3.11v11.49l2.86.23v1.55h-7.84Z"/><path d="M641.15,326.52v4.87h4.18v1.72h-4.18V345.5a4.06,4.06,0,0,0,.68,2.65,2.26,2.26,0,0,0,1.8.78c.34,0,.67,0,1,0s.7-.08,1.12-.15l.31,1.56a5.47,5.47,0,0,1-1.28.35,8.56,8.56,0,0,1-1.51.13,4,4,0,0,1-3.12-1.27,6,6,0,0,1-1.12-4V333.11h-3.27v-1.72H639v-4.87Z"/><path d="M648.85,340.62a10.24,10.24,0,0,1,2.3-6.89,8.28,8.28,0,0,1,12.22,0,10.24,10.24,0,0,1,2.3,6.89v.58a10.24,10.24,0,0,1-2.29,6.9,8.32,8.32,0,0,1-12.23,0,10.25,10.25,0,0,1-2.3-6.9Zm2.11.58a9.07,9.07,0,0,0,1.67,5.55,5.89,5.89,0,0,0,9.26,0,9,9,0,0,0,1.67-5.55v-.58a9,9,0,0,0-1.68-5.52,5.85,5.85,0,0,0-9.25,0,9.07,9.07,0,0,0-1.67,5.52Z"/><path d="M682.9,337.26h-1.72l-.25-2.69a5.26,5.26,0,0,0-2-1.28,7.61,7.61,0,0,0-2.76-.46,5.19,5.19,0,0,0-3.46,1,3,3,0,0,0-1.15,2.33,2.76,2.76,0,0,0,1,2.18,9.62,9.62,0,0,0,4,1.51,13.14,13.14,0,0,1,5.08,2.07,4.27,4.27,0,0,1,1.68,3.56,4.61,4.61,0,0,1-1.92,3.84,8.16,8.16,0,0,1-5.09,1.47,11.9,11.9,0,0,1-3.84-.59,9.29,9.29,0,0,1-3-1.66v-3.84h1.71l.3,2.71a4.88,4.88,0,0,0,2.13,1.22,9.27,9.27,0,0,0,2.7.38,5.79,5.79,0,0,0,3.6-1,3,3,0,0,0,1.32-2.43,3,3,0,0,0-1.1-2.33,8.84,8.84,0,0,0-4-1.64,13.29,13.29,0,0,1-5-2,4,4,0,0,1-1.64-3.42,4.59,4.59,0,0,1,1.85-3.68,7.48,7.48,0,0,1,4.87-1.5,10.9,10.9,0,0,1,3.82.64,7.75,7.75,0,0,1,2.82,1.73Z"/><path d="M690.18,349.56a8,8,0,0,1-.66,3.17,7.63,7.63,0,0,1-1.81,2.62l-1.24-.92a9.34,9.34,0,0,0,1.22-2.3,7.81,7.81,0,0,0,.39-2.53v-2.5h2.1Z"/><path d="M720.37,332.41h-1.72l-.3-3.62a6.32,6.32,0,0,0-2.58-1.88,10,10,0,0,0-3.83-.67,7.81,7.81,0,0,0-4.93,1.37,4.15,4.15,0,0,0-1.77,3.41,4,4,0,0,0,1.59,3.22,14.79,14.79,0,0,0,5.51,2.28,16,16,0,0,1,6.29,2.85,5.86,5.86,0,0,1,2.15,4.73,5.71,5.71,0,0,1-2.5,4.87,10.63,10.63,0,0,1-6.38,1.81,13.33,13.33,0,0,1-5.09-1,9.68,9.68,0,0,1-3.84-2.76v-4.48h1.72l.3,3.74a7.46,7.46,0,0,0,3,2,11.2,11.2,0,0,0,3.94.68,8.26,8.26,0,0,0,4.9-1.33,4.15,4.15,0,0,0,1.87-3.54,4.28,4.28,0,0,0-1.57-3.42,14.41,14.41,0,0,0-5.44-2.34,17.22,17.22,0,0,1-6.37-2.75,5.46,5.46,0,0,1-2.16-4.55,5.71,5.71,0,0,1,2.46-4.78,10.31,10.31,0,0,1,6.35-1.85,12.29,12.29,0,0,1,5,1,8.66,8.66,0,0,1,3.45,2.62Z"/><path d="M724.07,348.86l2.86-.23V333.18l-2.86-.23v-1.56H729v17.24l2.87.23v1.55h-7.82ZM729,325.94h-2.09V323H729Z"/><path d="M740.26,326.52v4.87h4.18v1.72h-4.18V345.5a4.06,4.06,0,0,0,.67,2.65,2.26,2.26,0,0,0,1.8.78c.34,0,.67,0,1,0s.69-.08,1.11-.15l.32,1.56a5.47,5.47,0,0,1-1.28.35,8.67,8.67,0,0,1-1.52.13,4,4,0,0,1-3.12-1.27,6,6,0,0,1-1.11-4V333.11h-3.27v-1.72h3.27v-4.87Z"/><path d="M762.28,347.28a6.48,6.48,0,0,1-2.45,2.58,7.12,7.12,0,0,1-3.67.92,5.78,5.78,0,0,1-4.7-2q-1.69-2-1.7-6.33v-9.23l-2.35-.23v-1.56h4.45v11.05q0,3.48,1.18,5a4.06,4.06,0,0,0,3.37,1.51,6.22,6.22,0,0,0,3.81-1.06,5.6,5.6,0,0,0,2-2.91v-11.8L759.5,333v-1.56h4.82v17.24l2.55.23v1.55h-4.4Z"/><path d="M783.09,350.41c-.14-.65-.24-1.2-.3-1.67a13.55,13.55,0,0,1-.08-1.43,8.3,8.3,0,0,1-2.82,2.48,7.91,7.91,0,0,1-3.95,1,6.09,6.09,0,0,1-4.33-1.44,5.13,5.13,0,0,1-1.52-3.91,4.82,4.82,0,0,1,2.26-4.18,10.8,10.8,0,0,1,6.16-1.55h4.2v-2.51a4.06,4.06,0,0,0-1.31-3.2,5.38,5.38,0,0,0-3.67-1.16,9.13,9.13,0,0,0-2.89.43,6.71,6.71,0,0,0-2.19,1.17l-.17,2.55h-1.74v-3.66a10.85,10.85,0,0,1,3.16-1.65,12,12,0,0,1,3.91-.63,7.62,7.62,0,0,1,5.06,1.6,5.61,5.61,0,0,1,1.92,4.58v9.36c0,.38,0,.75,0,1.11a8.87,8.87,0,0,0,.12,1.05l1.9.12v1.55Zm-6.92-1.5a7.63,7.63,0,0,0,4-1.05,6.23,6.23,0,0,0,2.52-2.73v-3.81h-4.24a7.91,7.91,0,0,0-4.58,1.19,3.53,3.53,0,0,0-1.71,3,3.12,3.12,0,0,0,1.06,2.47A4.26,4.26,0,0,0,776.17,348.91Z"/><path d="M798,349a6.05,6.05,0,0,0,3.69-1.19,4,4,0,0,0,1.6-3.33h1.86l0,.11A5.26,5.26,0,0,1,803,349a7.88,7.88,0,0,1-5.09,1.78,7.24,7.24,0,0,1-6-2.67,10.59,10.59,0,0,1-2.12-6.84v-.74a10.59,10.59,0,0,1,2.12-6.82,7.21,7.21,0,0,1,6-2.67,9.63,9.63,0,0,1,4,.82,8,8,0,0,1,3,2.25l.08,4.15h-1.79l-.33-3.37a6.08,6.08,0,0,0-2.1-1.51,7,7,0,0,0-2.86-.55A5.08,5.08,0,0,0,793.4,335a9.66,9.66,0,0,0-1.47,5.51v.74a9.79,9.79,0,0,0,1.46,5.55A5.11,5.11,0,0,0,798,349Zm.54,1.57-.19,1.12a4.31,4.31,0,0,1,2.24.85,2.62,2.62,0,0,1,.85,2.16,2.94,2.94,0,0,1-1.39,2.55,6.93,6.93,0,0,1-4,1l-.12-1.37a6,6,0,0,0,2.64-.53,1.71,1.71,0,0,0,1.08-1.58,1.46,1.46,0,0,0-.72-1.4,6.92,6.92,0,0,0-2.55-.53l.5-2.23Z"/><path d="M809.06,340.62a10.19,10.19,0,0,1,2.3-6.89,8.28,8.28,0,0,1,12.22,0,10.24,10.24,0,0,1,2.3,6.89v.58a10.25,10.25,0,0,1-2.3,6.9,8.3,8.3,0,0,1-12.22,0,10.2,10.2,0,0,1-2.3-6.9Zm2.11.58a9,9,0,0,0,1.67,5.55,5.89,5.89,0,0,0,9.26,0,9.07,9.07,0,0,0,1.67-5.55v-.58a9,9,0,0,0-1.68-5.52,5.85,5.85,0,0,0-9.25,0,9,9,0,0,0-1.67,5.52Zm12.37-17.12a3.55,3.55,0,0,1-1,2.56,3.16,3.16,0,0,1-2.4,1,4.54,4.54,0,0,1-2.66-1,4.26,4.26,0,0,0-2.3-1,1.8,1.8,0,0,0-1.39.61,2.21,2.21,0,0,0-.56,1.57l-1.39-.32a3.61,3.61,0,0,1,.94-2.54,3.14,3.14,0,0,1,2.4-1,4.89,4.89,0,0,1,2.59,1,4.75,4.75,0,0,0,2.37,1,1.79,1.79,0,0,0,1.38-.64,2.25,2.25,0,0,0,.58-1.6Z"/><path d="M837.69,350.78a7.64,7.64,0,0,1-5.94-2.63,9.64,9.64,0,0,1-2.36-6.69v-1a9.92,9.92,0,0,1,2.35-6.76,7.23,7.23,0,0,1,5.67-2.69,7,7,0,0,1,5.5,2.21,8.47,8.47,0,0,1,2,5.91V341H831.49v.51a8.42,8.42,0,0,0,1.71,5.37,5.44,5.44,0,0,0,4.49,2.17,9.24,9.24,0,0,0,3.34-.54,6.6,6.6,0,0,0,2.37-1.57l.9,1.44a7.59,7.59,0,0,1-2.71,1.79A10.4,10.4,0,0,1,837.69,350.78Zm-.28-17.95a5,5,0,0,0-3.91,1.78,7.68,7.68,0,0,0-1.86,4.48l0,.09h11.14v-.53a6,6,0,0,0-1.46-4.15A5,5,0,0,0,837.41,332.83Z"/><path d="M862.48,337.26h-1.73l-.24-2.69a5.34,5.34,0,0,0-2-1.28,7.62,7.62,0,0,0-2.77-.46,5.18,5.18,0,0,0-3.45,1,3,3,0,0,0-1.15,2.33,2.76,2.76,0,0,0,1,2.18,9.5,9.5,0,0,0,4,1.51,13.13,13.13,0,0,1,5.09,2.07,4.27,4.27,0,0,1,1.68,3.56,4.61,4.61,0,0,1-1.92,3.84,8.18,8.18,0,0,1-5.09,1.47,11.9,11.9,0,0,1-3.84-.59,9.08,9.08,0,0,1-3-1.66v-3.84h1.71l.29,2.71a5,5,0,0,0,2.14,1.22,9.27,9.27,0,0,0,2.7.38,5.81,5.81,0,0,0,3.6-1,3,3,0,0,0,1.32-2.43,3.06,3.06,0,0,0-1.1-2.33,8.84,8.84,0,0,0-4-1.64,13.29,13.29,0,0,1-5-2,4,4,0,0,1-1.64-3.42,4.58,4.58,0,0,1,1.84-3.68,7.49,7.49,0,0,1,4.87-1.5,10.92,10.92,0,0,1,3.83.64,7.75,7.75,0,0,1,2.82,1.73Z"/><path d="M876.1,340.39h-8.4v-1.78h8.4Z"/><path d="M880.07,333v-1.56h4.62l.27,2.95a6.65,6.65,0,0,1,6-3.3,6.2,6.2,0,0,1,5.36,2.73,12.37,12.37,0,0,1,1.94,7.29v.37a11,11,0,0,1-1.94,6.81,6.32,6.32,0,0,1-5.32,2.54,7.63,7.63,0,0,1-3.51-.77,6.4,6.4,0,0,1-2.45-2.17v8.09l2.86.23v1.56h-7.82v-1.56l2.87-.23V333.18Zm16.07,8.11a10.91,10.91,0,0,0-1.44-5.91,4.69,4.69,0,0,0-4.22-2.29,5.54,5.54,0,0,0-3.46,1,6.2,6.2,0,0,0-2,2.62v9.14a5.65,5.65,0,0,0,2.08,2.46,6,6,0,0,0,3.4.9,4.79,4.79,0,0,0,4.2-2.07,9.57,9.57,0,0,0,1.43-5.5Z"/><path d="M906.23,331.39l.26,3.16v.23A6.76,6.76,0,0,1,908.7,332a5.56,5.56,0,0,1,3.31-1,5.63,5.63,0,0,1,1.41.19l-.28,2-1.57-.11a4.8,4.8,0,0,0-3.26,1.12,6.12,6.12,0,0,0-1.82,3.07v11.35l2.87.23v1.55h-7.83v-1.55l2.87-.23V333.18l-2.87-.23v-1.56h4.7Z"/><path d="M915.79,340.62a10.24,10.24,0,0,1,2.3-6.89,8.28,8.28,0,0,1,12.22,0,10.24,10.24,0,0,1,2.3,6.89v.58a10.24,10.24,0,0,1-2.29,6.9,8.32,8.32,0,0,1-12.23,0,10.25,10.25,0,0,1-2.3-6.9Zm2.11.58a9.07,9.07,0,0,0,1.67,5.55,5.47,5.47,0,0,0,4.66,2.25,5.41,5.41,0,0,0,4.6-2.25,9,9,0,0,0,1.67-5.55v-.58a9,9,0,0,0-1.68-5.52,5.85,5.85,0,0,0-9.25,0,9.07,9.07,0,0,0-1.67,5.52Z"/><path d="M952.39,341.43a11,11,0,0,1-1.94,6.81,6.31,6.31,0,0,1-5.32,2.54,7.33,7.33,0,0,1-3.61-.84,6.38,6.38,0,0,1-2.44-2.4l-.23,2.87h-1.79V324.78l-2.87-.23V323h5v11.39a6.51,6.51,0,0,1,5.94-3.34,6.19,6.19,0,0,1,5.36,2.73,12.37,12.37,0,0,1,1.94,7.29Zm-2.13-.37a11.11,11.11,0,0,0-1.41-5.92,4.56,4.56,0,0,0-4.14-2.28,5.5,5.5,0,0,0-3.56,1.09,6.56,6.56,0,0,0-2,2.8v8.6a5.71,5.71,0,0,0,5.59,3.6,4.66,4.66,0,0,0,4.13-2,9.57,9.57,0,0,0,1.39-5.48Z"/><path d="M955.36,324.55V323h5v25.64l2.86.23v1.55h-7.82v-1.55l2.86-.23V324.78Z"/><path d="M974.89,350.78a7.64,7.64,0,0,1-5.94-2.63,9.64,9.64,0,0,1-2.36-6.69v-1a9.87,9.87,0,0,1,2.35-6.76,7.23,7.23,0,0,1,5.67-2.69,7,7,0,0,1,5.5,2.21,8.51,8.51,0,0,1,2,5.91V341H968.68v.51a8.37,8.37,0,0,0,1.72,5.37,5.44,5.44,0,0,0,4.49,2.17,9.24,9.24,0,0,0,3.34-.54,6.78,6.78,0,0,0,2.37-1.57l.9,1.44a7.68,7.68,0,0,1-2.71,1.79A10.4,10.4,0,0,1,974.89,350.78Zm-.28-17.95a5,5,0,0,0-3.91,1.78,7.68,7.68,0,0,0-1.86,4.48l0,.09H980v-.53a6.1,6.1,0,0,0-1.46-4.15A5,5,0,0,0,974.61,332.83Z"/><path d="M985.42,333v-1.56h4.73l.19,3.14a6.67,6.67,0,0,1,2.44-2.58,7,7,0,0,1,3.64-.91,6,6,0,0,1,3.64,1.06,5.88,5.88,0,0,1,2.09,3.24,7.48,7.48,0,0,1,2.45-3.15,6.43,6.43,0,0,1,3.88-1.15,5.73,5.73,0,0,1,4.7,2c1.11,1.35,1.66,3.43,1.66,6.26v9.29l2.87.25v1.55h-7.86v-1.55l2.87-.25v-9.33c0-2.34-.42-4-1.24-5a4.33,4.33,0,0,0-3.46-1.45,4.72,4.72,0,0,0-3.79,1.57,7.52,7.52,0,0,0-1.64,4,2.17,2.17,0,0,0,0,.26,2.92,2.92,0,0,1,0,.32v9.63l2.86.23v1.55h-7.84v-1.55l2.87-.23v-9.35q0-3.45-1.26-4.93a4.29,4.29,0,0,0-3.45-1.49,5.23,5.23,0,0,0-3.56,1.14,6,6,0,0,0-1.84,3.05v11.58l2.87.23v1.55h-7.84v-1.55l2.86-.23V333.18Z"/><path d="M1033.44,350.41c-.14-.65-.24-1.2-.3-1.67a11.32,11.32,0,0,1-.09-1.43,8.27,8.27,0,0,1-2.81,2.48,7.91,7.91,0,0,1-4,1,6.07,6.07,0,0,1-4.33-1.44,5.14,5.14,0,0,1-1.53-3.91,4.83,4.83,0,0,1,2.27-4.18,10.77,10.77,0,0,1,6.15-1.55h4.2v-2.51a4,4,0,0,0-1.31-3.2,5.34,5.34,0,0,0-3.66-1.16,9.09,9.09,0,0,0-2.89.43,6.61,6.61,0,0,0-2.19,1.17l-.18,2.55h-1.74l0-3.66a10.85,10.85,0,0,1,3.16-1.65,11.92,11.92,0,0,1,3.91-.63,7.63,7.63,0,0,1,5.06,1.6,5.61,5.61,0,0,1,1.92,4.58v9.36c0,.38,0,.75,0,1.11a8.87,8.87,0,0,0,.12,1.05l1.89.12v1.55Zm-6.93-1.5a7.64,7.64,0,0,0,4-1.05,6.15,6.15,0,0,0,2.51-2.73v-3.81h-4.23a7.91,7.91,0,0,0-4.58,1.19,3.54,3.54,0,0,0-1.72,3,3.13,3.13,0,0,0,1.07,2.47A4.24,4.24,0,0,0,1026.51,348.91Z"/><path d="M1057.31,350.78a7.64,7.64,0,0,1-5.94-2.63,9.64,9.64,0,0,1-2.36-6.69v-1a9.92,9.92,0,0,1,2.35-6.76A7.26,7.26,0,0,1,1057,331a7,7,0,0,1,5.5,2.21,8.47,8.47,0,0,1,2,5.91V341h-13.43v.51a8.42,8.42,0,0,0,1.71,5.37,5.44,5.44,0,0,0,4.49,2.17,9.2,9.2,0,0,0,3.34-.54,6.6,6.6,0,0,0,2.37-1.57l.9,1.44a7.59,7.59,0,0,1-2.71,1.79A10.4,10.4,0,0,1,1057.31,350.78Zm-.28-17.95a5,5,0,0,0-3.91,1.78,7.68,7.68,0,0,0-1.86,4.48l0,.09h11.14v-.53a6.09,6.09,0,0,0-1.45-4.15A5,5,0,0,0,1057,332.83Z"/><path d="M573.69,381a15.62,15.62,0,0,1-1.37,6.67,10.89,10.89,0,0,1-3.79,4.56l5.3,3.78-1.46,1.33-5.77-4.09a10.42,10.42,0,0,1-1.93.55,10.81,10.81,0,0,1-2.06.19,9.81,9.81,0,0,1-7.88-3.62,14.13,14.13,0,0,1-3-9.37v-.34a14.15,14.15,0,0,1,3-9.38,9.75,9.75,0,0,1,7.87-3.63,10,10,0,0,1,8,3.63,14,14,0,0,1,3.09,9.38Zm-2.11-.37a12.6,12.6,0,0,0-2.43-8.05,7.92,7.92,0,0,0-6.56-3.08,7.67,7.67,0,0,0-6.42,3.08,12.82,12.82,0,0,0-2.37,8.05V381a12.87,12.87,0,0,0,2.38,8.08,7.69,7.69,0,0,0,6.43,3.08,7.88,7.88,0,0,0,6.57-3.07,12.75,12.75,0,0,0,2.4-8.09Z"/><path d="M591.23,390.48a6.55,6.55,0,0,1-2.45,2.58,7.12,7.12,0,0,1-3.67.92,5.78,5.78,0,0,1-4.7-2q-1.7-2-1.7-6.33v-9.23l-2.35-.23v-1.56h4.44v11.05c0,2.33.4,4,1.19,5a4,4,0,0,0,3.37,1.51,6.16,6.16,0,0,0,3.8-1.06,5.56,5.56,0,0,0,2-2.91v-11.8l-2.71-.23v-1.56h4.82v17.24l2.55.23v1.55h-4.4Z"/><path d="M607.29,394a7.64,7.64,0,0,1-5.94-2.63,9.64,9.64,0,0,1-2.35-6.69v-1a9.91,9.91,0,0,1,2.34-6.76,7.26,7.26,0,0,1,5.67-2.69,7,7,0,0,1,5.51,2.21,8.51,8.51,0,0,1,2,5.91v1.79H601.09v.51A8.42,8.42,0,0,0,602.8,390a5.45,5.45,0,0,0,4.49,2.17,9.17,9.17,0,0,0,3.34-.54,6.73,6.73,0,0,0,2.38-1.57l.89,1.44a7.55,7.55,0,0,1-2.7,1.79A10.42,10.42,0,0,1,607.29,394ZM607,376a5,5,0,0,0-3.91,1.78,7.61,7.61,0,0,0-1.85,4.48l0,.09h11.15v-.53A6.1,6.1,0,0,0,611,377.7,5,5,0,0,0,607,376Z"/><path d="M632.08,380.46h-1.72l-.25-2.69a5.3,5.3,0,0,0-2-1.28,7.7,7.7,0,0,0-2.77-.46,5.19,5.19,0,0,0-3.46,1,3,3,0,0,0-1.15,2.33,2.76,2.76,0,0,0,1,2.18,9.62,9.62,0,0,0,4,1.51,13.14,13.14,0,0,1,5.08,2.07,4.28,4.28,0,0,1,1.69,3.56,4.62,4.62,0,0,1-1.93,3.84,8.16,8.16,0,0,1-5.09,1.47,12,12,0,0,1-3.84-.59,9.29,9.29,0,0,1-3-1.66v-3.84h1.71l.3,2.71a4.88,4.88,0,0,0,2.13,1.22,9.37,9.37,0,0,0,2.7.38,5.82,5.82,0,0,0,3.61-1,3,3,0,0,0,1.31-2.43,3,3,0,0,0-1.09-2.33,8.94,8.94,0,0,0-4-1.64,13.17,13.17,0,0,1-5-2,4,4,0,0,1-1.65-3.42,4.59,4.59,0,0,1,1.85-3.68,7.48,7.48,0,0,1,4.87-1.5,10.86,10.86,0,0,1,3.82.64,7.67,7.67,0,0,1,2.82,1.73Z"/><path d="M641.13,369.72v4.87h4.19v1.72h-4.19V388.7a4.06,4.06,0,0,0,.68,2.65,2.26,2.26,0,0,0,1.8.78c.34,0,.67,0,1,0s.7-.08,1.12-.15l.32,1.56a5.43,5.43,0,0,1-1.29.35,8.47,8.47,0,0,1-1.51.13,3.94,3.94,0,0,1-3.12-1.27,6,6,0,0,1-1.11-4V376.31h-3.27v-1.72H639v-4.87Z"/><path d="M648.83,383.82a10.24,10.24,0,0,1,2.3-6.89,8.28,8.28,0,0,1,12.22,0,10.19,10.19,0,0,1,2.3,6.89v.58a10.24,10.24,0,0,1-2.29,6.9,8.32,8.32,0,0,1-12.23,0,10.25,10.25,0,0,1-2.3-6.9Zm2.11.58a9.07,9.07,0,0,0,1.67,5.55,5.47,5.47,0,0,0,4.66,2.25,5.4,5.4,0,0,0,4.6-2.25,9,9,0,0,0,1.67-5.55v-.58a9.07,9.07,0,0,0-1.67-5.52,5.86,5.86,0,0,0-9.26,0,9.07,9.07,0,0,0-1.67,5.52Zm12.38-17.12a3.59,3.59,0,0,1-1,2.56,3.2,3.2,0,0,1-2.41,1,4.52,4.52,0,0,1-2.65-1,4.28,4.28,0,0,0-2.31-1,1.78,1.78,0,0,0-1.38.61,2.21,2.21,0,0,0-.57,1.57l-1.39-.32a3.66,3.66,0,0,1,.94-2.54,3.14,3.14,0,0,1,2.4-1,4.89,4.89,0,0,1,2.6,1,4.69,4.69,0,0,0,2.36,1,1.81,1.81,0,0,0,1.39-.64,2.25,2.25,0,0,0,.58-1.6Z"/><path d="M677.47,394a7.68,7.68,0,0,1-6-2.63,9.64,9.64,0,0,1-2.35-6.69v-1a9.87,9.87,0,0,1,2.35-6.76,7.23,7.23,0,0,1,5.67-2.69,7,7,0,0,1,5.5,2.21,8.51,8.51,0,0,1,2,5.91v1.79H671.26v.51A8.37,8.37,0,0,0,673,390a5.42,5.42,0,0,0,4.49,2.17,9.24,9.24,0,0,0,3.34-.54,6.78,6.78,0,0,0,2.37-1.57l.9,1.44a7.68,7.68,0,0,1-2.71,1.79A10.4,10.4,0,0,1,677.47,394Zm-.28-18a5,5,0,0,0-3.92,1.78,7.67,7.67,0,0,0-1.85,4.48l0,.09H682.6v-.53a6.1,6.1,0,0,0-1.46-4.15A5,5,0,0,0,677.19,376Z"/><path d="M702.25,380.46h-1.72l-.25-2.69a5.22,5.22,0,0,0-2-1.28,7.7,7.7,0,0,0-2.77-.46,5.19,5.19,0,0,0-3.46,1,3,3,0,0,0-1.15,2.33,2.74,2.74,0,0,0,1,2.18,9.5,9.5,0,0,0,4,1.51,13.08,13.08,0,0,1,5.08,2.07,4.25,4.25,0,0,1,1.69,3.56,4.6,4.6,0,0,1-1.93,3.84,8.16,8.16,0,0,1-5.09,1.47,12,12,0,0,1-3.84-.59,9.14,9.14,0,0,1-3-1.66v-3.84h1.7l.3,2.71a4.86,4.86,0,0,0,2.14,1.22,9.26,9.26,0,0,0,2.69.38,5.82,5.82,0,0,0,3.61-1,3,3,0,0,0,1.32-2.43,3.06,3.06,0,0,0-1.1-2.33,8.89,8.89,0,0,0-4-1.64,13.17,13.17,0,0,1-5-2,4,4,0,0,1-1.65-3.42,4.59,4.59,0,0,1,1.85-3.68,7.48,7.48,0,0,1,4.87-1.5,10.86,10.86,0,0,1,3.82.64,7.58,7.58,0,0,1,2.82,1.73Z"/><path d="M714.49,392.06l1.88-.14L725.45,368h2l9,23.91,1.92.14v1.55h-6.31v-1.55l2.23-.17-2.11-5.74h-11.5l-2.12,5.74,2.23.17v1.55h-6.29Zm6.89-7.79h10.1l-5-13.53h-.11Z"/><path d="M744.74,376.15l-2.38.18,4.75,12.51.62,2.24h.1l.67-2.24,4.68-12.51-2.38-.18v-1.56h6.4v1.56l-1.86.16-6.72,17.3h-1.69l-6.73-17.3-1.86-.16v-1.56h6.4Z"/><path d="M772.39,393.61c-.14-.65-.24-1.2-.3-1.67a11.32,11.32,0,0,1-.09-1.43,8.27,8.27,0,0,1-2.81,2.48,7.92,7.92,0,0,1-4,1,6.06,6.06,0,0,1-4.32-1.44,5.14,5.14,0,0,1-1.53-3.91,4.83,4.83,0,0,1,2.27-4.18,10.77,10.77,0,0,1,6.15-1.55H772v-2.51a4.06,4.06,0,0,0-1.31-3.2A5.34,5.34,0,0,0,767,376a9.09,9.09,0,0,0-2.89.43,6.51,6.51,0,0,0-2.19,1.17l-.18,2.55H760l0-3.66a10.92,10.92,0,0,1,3.15-1.65,12,12,0,0,1,3.91-.63,7.64,7.64,0,0,1,5.07,1.6,5.64,5.64,0,0,1,1.91,4.58v9.36q0,.57,0,1.11c0,.36.06.71.11,1.05l1.9.12v1.55Zm-6.93-1.5a7.64,7.64,0,0,0,4-1.05,6.15,6.15,0,0,0,2.51-2.73v-3.81h-4.24a7.88,7.88,0,0,0-4.57,1.19,3.52,3.52,0,0,0-1.72,3,3.13,3.13,0,0,0,1.07,2.47A4.22,4.22,0,0,0,765.46,392.11Z"/><path d="M778.7,367.75v-1.56h5v25.64l2.86.23v1.55H778.7v-1.55l2.86-.23V368Z"/><path d="M789.7,392.06l2.87-.23V376.38l-2.87-.23v-1.56h5v17.24l2.86.23v1.55H789.7Zm5-22.92h-2.09v-2.95h2.09Z"/><path d="M814.19,393.61c-.14-.65-.24-1.2-.3-1.67a11.32,11.32,0,0,1-.09-1.43A8.27,8.27,0,0,1,811,393a7.92,7.92,0,0,1-4,1,6.06,6.06,0,0,1-4.32-1.44,5.14,5.14,0,0,1-1.53-3.91,4.83,4.83,0,0,1,2.27-4.18,10.77,10.77,0,0,1,6.15-1.55h4.2v-2.51a4,4,0,0,0-1.31-3.2,5.34,5.34,0,0,0-3.66-1.16,9.09,9.09,0,0,0-2.89.43,6.51,6.51,0,0,0-2.19,1.17l-.18,2.55h-1.74l0-3.66a10.92,10.92,0,0,1,3.15-1.65,12,12,0,0,1,3.92-.63,7.63,7.63,0,0,1,5.06,1.6,5.61,5.61,0,0,1,1.91,4.58v9.36q0,.57,0,1.11c0,.36.06.71.11,1.05l1.9.12v1.55Zm-6.93-1.5a7.64,7.64,0,0,0,4-1.05,6.15,6.15,0,0,0,2.51-2.73v-3.81h-4.23a7.91,7.91,0,0,0-4.58,1.19,3.52,3.52,0,0,0-1.72,3,3.13,3.13,0,0,0,1.07,2.47A4.24,4.24,0,0,0,807.26,392.11Z"/><path d="M825.76,369.72v4.87h4.18v1.72h-4.18V388.7a4.06,4.06,0,0,0,.67,2.65,2.26,2.26,0,0,0,1.8.78c.34,0,.67,0,1,0s.69-.08,1.11-.15l.32,1.56a5.47,5.47,0,0,1-1.28.35,8.67,8.67,0,0,1-1.52.13,3.94,3.94,0,0,1-3.12-1.27,6,6,0,0,1-1.11-4V376.31h-3.27v-1.72h3.27v-4.87Z"/><path d="M833.67,392.06l2.86-.23V376.38l-2.86-.23v-1.56h5v17.24l2.87.23v1.55h-7.82Zm5-22.92h-2.09v-2.95h2.09Z"/><path d="M850.54,376.15l-2.37.18,4.74,12.51.62,2.24h.1l.67-2.24L859,376.33l-2.38-.18v-1.56H863v1.56l-1.86.16-6.71,17.3h-1.69L846,376.31l-1.87-.16v-1.56h6.4Z"/><path d="M878.19,393.61c-.14-.65-.24-1.2-.3-1.67a11.32,11.32,0,0,1-.09-1.43A8.27,8.27,0,0,1,875,393a7.91,7.91,0,0,1-4,1,6.07,6.07,0,0,1-4.33-1.44,5.14,5.14,0,0,1-1.53-3.91,4.83,4.83,0,0,1,2.27-4.18,10.77,10.77,0,0,1,6.15-1.55h4.2v-2.51a4,4,0,0,0-1.31-3.2,5.34,5.34,0,0,0-3.66-1.16,9.09,9.09,0,0,0-2.89.43,6.61,6.61,0,0,0-2.19,1.17l-.18,2.55h-1.74l0-3.66a10.85,10.85,0,0,1,3.16-1.65,11.92,11.92,0,0,1,3.91-.63,7.63,7.63,0,0,1,5.06,1.6,5.61,5.61,0,0,1,1.92,4.58v9.36c0,.38,0,.75,0,1.11a8.87,8.87,0,0,0,.12,1.05l1.89.12v1.55Zm-6.93-1.5a7.64,7.64,0,0,0,4-1.05,6.15,6.15,0,0,0,2.51-2.73v-3.81h-4.23a7.91,7.91,0,0,0-4.58,1.19,3.54,3.54,0,0,0-1.72,3,3.13,3.13,0,0,0,1.07,2.47A4.24,4.24,0,0,0,871.26,392.11Z"/><path d="M898.72,380.46H897l-.25-2.69a5.22,5.22,0,0,0-2-1.28A7.66,7.66,0,0,0,892,376a5.15,5.15,0,0,0-3.45,1,3,3,0,0,0-1.16,2.33,2.77,2.77,0,0,0,1,2.18,9.5,9.5,0,0,0,4,1.51,13.08,13.08,0,0,1,5.08,2.07,4.25,4.25,0,0,1,1.69,3.56,4.6,4.6,0,0,1-1.93,3.84,8.16,8.16,0,0,1-5.09,1.47,12,12,0,0,1-3.84-.59,9.14,9.14,0,0,1-3-1.66v-3.84H887l.3,2.71a4.91,4.91,0,0,0,2.14,1.22,9.26,9.26,0,0,0,2.69.38,5.82,5.82,0,0,0,3.61-1,3,3,0,0,0,1.32-2.43,3.06,3.06,0,0,0-1.1-2.33,8.89,8.89,0,0,0-4-1.64,13.17,13.17,0,0,1-5-2,4,4,0,0,1-1.65-3.42,4.59,4.59,0,0,1,1.85-3.68,7.48,7.48,0,0,1,4.87-1.5,10.86,10.86,0,0,1,3.82.64,7.58,7.58,0,0,1,2.82,1.73Z"/><path d="M564.67,436.81c-.14-.65-.24-1.2-.3-1.67a11.32,11.32,0,0,1-.09-1.43,8.27,8.27,0,0,1-2.81,2.48,7.92,7.92,0,0,1-4,1,6.06,6.06,0,0,1-4.32-1.44,5.14,5.14,0,0,1-1.53-3.91,4.83,4.83,0,0,1,2.27-4.18,10.77,10.77,0,0,1,6.15-1.55h4.2v-2.51a4.06,4.06,0,0,0-1.31-3.2,5.34,5.34,0,0,0-3.66-1.16,9.19,9.19,0,0,0-2.9.43,6.55,6.55,0,0,0-2.18,1.17l-.18,2.55h-1.74l0-3.66a10.92,10.92,0,0,1,3.15-1.65,12,12,0,0,1,3.91-.63,7.64,7.64,0,0,1,5.07,1.6,5.64,5.64,0,0,1,1.91,4.58V433q0,.57,0,1.11a8.88,8.88,0,0,0,.11,1.05l1.9.12v1.55Zm-6.93-1.5a7.64,7.64,0,0,0,4-1.05,6.15,6.15,0,0,0,2.51-2.73v-3.81H560a7.88,7.88,0,0,0-4.57,1.19,3.52,3.52,0,0,0-1.72,3,3.15,3.15,0,0,0,1.06,2.47A4.26,4.26,0,0,0,557.74,435.31Z"/><path d="M585.2,423.66h-1.72l-.25-2.69a5.26,5.26,0,0,0-2-1.28,7.61,7.61,0,0,0-2.76-.46,5.19,5.19,0,0,0-3.46,1,3,3,0,0,0-1.15,2.33,2.76,2.76,0,0,0,1,2.18,9.62,9.62,0,0,0,4,1.51,13.14,13.14,0,0,1,5.08,2.07,4.28,4.28,0,0,1,1.69,3.56,4.62,4.62,0,0,1-1.93,3.84,8.16,8.16,0,0,1-5.09,1.47,12,12,0,0,1-3.84-.59,9.29,9.29,0,0,1-3-1.66V431.1h1.71l.3,2.7a4.88,4.88,0,0,0,2.13,1.22,9.27,9.27,0,0,0,2.7.38,5.82,5.82,0,0,0,3.61-1,3,3,0,0,0,1.31-2.43,3,3,0,0,0-1.09-2.33,8.94,8.94,0,0,0-4-1.64,13.17,13.17,0,0,1-5-2,4,4,0,0,1-1.65-3.42,4.59,4.59,0,0,1,1.85-3.68,7.48,7.48,0,0,1,4.87-1.5,10.86,10.86,0,0,1,3.82.64,7.75,7.75,0,0,1,2.82,1.73Z"/><path d="M603.22,423.66h-1.73l-.24-2.69a5.26,5.26,0,0,0-2-1.28,7.62,7.62,0,0,0-2.77-.46,5.18,5.18,0,0,0-3.45,1,3,3,0,0,0-1.15,2.33,2.76,2.76,0,0,0,1,2.18,9.56,9.56,0,0,0,4,1.51,13.14,13.14,0,0,1,5.08,2.07,4.27,4.27,0,0,1,1.68,3.56,4.61,4.61,0,0,1-1.92,3.84,8.16,8.16,0,0,1-5.09,1.47,11.9,11.9,0,0,1-3.84-.59,9.19,9.19,0,0,1-3-1.66V431.1h1.71l.3,2.7a4.88,4.88,0,0,0,2.13,1.22,9.27,9.27,0,0,0,2.7.38,5.81,5.81,0,0,0,3.6-1,3,3,0,0,0,1.32-2.43,3,3,0,0,0-1.1-2.33,8.84,8.84,0,0,0-4-1.64,13.29,13.29,0,0,1-5-2,4,4,0,0,1-1.64-3.42,4.58,4.58,0,0,1,1.84-3.68,7.51,7.51,0,0,1,4.87-1.5,10.92,10.92,0,0,1,3.83.64,7.75,7.75,0,0,1,2.82,1.73Z"/><path d="M607.44,427a10.19,10.19,0,0,1,2.3-6.89,8.27,8.27,0,0,1,12.21,0,10.2,10.2,0,0,1,2.31,6.89v.58a10.25,10.25,0,0,1-2.3,6.9,8.3,8.3,0,0,1-12.22,0,10.2,10.2,0,0,1-2.3-6.9Zm2.1.58a9.07,9.07,0,0,0,1.67,5.55,5.9,5.9,0,0,0,9.27,0,9.07,9.07,0,0,0,1.67-5.55V427a9,9,0,0,0-1.68-5.52,5.86,5.86,0,0,0-9.26,0,9.07,9.07,0,0,0-1.67,5.52Z"/><path d="M635.81,435.4a6.05,6.05,0,0,0,3.69-1.19,4,4,0,0,0,1.6-3.33H643l0,.11a5.26,5.26,0,0,1-2.1,4.41,7.82,7.82,0,0,1-5.09,1.78,7.24,7.24,0,0,1-6-2.67,10.59,10.59,0,0,1-2.12-6.84v-.74a10.59,10.59,0,0,1,2.12-6.82,7.21,7.21,0,0,1,6-2.67,9.63,9.63,0,0,1,4,.82,7.86,7.86,0,0,1,3,2.25l.09,4.15h-1.79l-.33-3.37a6.08,6.08,0,0,0-2.1-1.51,7,7,0,0,0-2.86-.55,5.08,5.08,0,0,0-4.53,2.19,9.66,9.66,0,0,0-1.47,5.51v.74a9.79,9.79,0,0,0,1.46,5.55A5.09,5.09,0,0,0,635.81,435.4Z"/><path d="M646.77,435.26l2.87-.23V419.58l-2.87-.23v-1.56h5V435l2.87.23v1.55h-7.83Zm5-22.92h-2.09v-2.95h2.09Z"/><path d="M671.26,436.81c-.14-.65-.24-1.2-.3-1.67a11.32,11.32,0,0,1-.09-1.43,8.27,8.27,0,0,1-2.81,2.48,7.91,7.91,0,0,1-3.95,1,6.07,6.07,0,0,1-4.33-1.44,5.14,5.14,0,0,1-1.53-3.91,4.83,4.83,0,0,1,2.27-4.18,10.77,10.77,0,0,1,6.15-1.55h4.2v-2.51a4,4,0,0,0-1.31-3.2,5.34,5.34,0,0,0-3.66-1.16,9.13,9.13,0,0,0-2.89.43,6.71,6.71,0,0,0-2.19,1.17l-.18,2.55H658.9l0-3.66a10.85,10.85,0,0,1,3.16-1.65,12,12,0,0,1,3.91-.63,7.62,7.62,0,0,1,5.06,1.6,5.61,5.61,0,0,1,1.92,4.58V433c0,.38,0,.75,0,1.11a8.87,8.87,0,0,0,.12,1.05l1.9.12v1.55Zm-6.92-1.5a7.63,7.63,0,0,0,4-1.05,6.15,6.15,0,0,0,2.51-2.73v-3.81h-4.23a7.91,7.91,0,0,0-4.58,1.19,3.53,3.53,0,0,0-1.71,3,3.12,3.12,0,0,0,1.06,2.47A4.25,4.25,0,0,0,664.34,435.31Z"/><path d="M691.21,434.07a6.56,6.56,0,0,1-2.44,2.3,7.29,7.29,0,0,1-3.52.81,6.3,6.3,0,0,1-5.33-2.55,11,11,0,0,1-1.93-6.8v-.37a12.44,12.44,0,0,1,1.93-7.29,6.19,6.19,0,0,1,5.37-2.73,6.53,6.53,0,0,1,5.87,3.21v-9.47l-2.87-.23v-1.56h5V435l2.86.23v1.55h-4.74Zm-11.09-6.24a9.65,9.65,0,0,0,1.38,5.48,4.69,4.69,0,0,0,4.16,2,5.71,5.71,0,0,0,5.5-3.43v-9a6.6,6.6,0,0,0-2-2.64,5.5,5.5,0,0,0-3.44-1,4.57,4.57,0,0,0-4.17,2.28,11.2,11.2,0,0,0-1.4,5.92Z"/><path d="M712.5,436.81c-.14-.65-.24-1.2-.3-1.67a11.32,11.32,0,0,1-.09-1.43,8.27,8.27,0,0,1-2.81,2.48,7.91,7.91,0,0,1-3.95,1,6.07,6.07,0,0,1-4.33-1.44,5.14,5.14,0,0,1-1.53-3.91,4.83,4.83,0,0,1,2.27-4.18,10.77,10.77,0,0,1,6.15-1.55h4.2v-2.51a4,4,0,0,0-1.31-3.2,5.34,5.34,0,0,0-3.66-1.16,9.09,9.09,0,0,0-2.89.43,6.51,6.51,0,0,0-2.19,1.17l-.18,2.55h-1.74l0-3.66a10.92,10.92,0,0,1,3.15-1.65,12,12,0,0,1,3.92-.63,7.63,7.63,0,0,1,5.06,1.6,5.61,5.61,0,0,1,1.91,4.58V433q0,.57,0,1.11c0,.36.06.71.11,1.05l1.9.12v1.55Zm-6.93-1.5a7.64,7.64,0,0,0,4-1.05,6.15,6.15,0,0,0,2.51-2.73v-3.81h-4.23a7.91,7.91,0,0,0-4.58,1.19,3.52,3.52,0,0,0-1.72,3,3.13,3.13,0,0,0,1.07,2.47A4.24,4.24,0,0,0,705.57,435.31Z"/><path d="M733,423.66h-1.72l-.25-2.69a5.3,5.3,0,0,0-2-1.28,7.7,7.7,0,0,0-2.77-.46,5.19,5.19,0,0,0-3.46,1,3,3,0,0,0-1.15,2.33,2.74,2.74,0,0,0,1,2.18,9.5,9.5,0,0,0,4,1.51,13.14,13.14,0,0,1,5.08,2.07,4.28,4.28,0,0,1,1.69,3.56,4.6,4.6,0,0,1-1.93,3.84,8.16,8.16,0,0,1-5.09,1.47,12,12,0,0,1-3.84-.59,9.14,9.14,0,0,1-3-1.66V431.1h1.7l.3,2.7a4.86,4.86,0,0,0,2.14,1.22,9.26,9.26,0,0,0,2.69.38,5.82,5.82,0,0,0,3.61-1,3,3,0,0,0,1.32-2.43,3.06,3.06,0,0,0-1.1-2.33,8.94,8.94,0,0,0-4-1.64,13.17,13.17,0,0,1-5-2,4,4,0,0,1-1.65-3.42,4.59,4.59,0,0,1,1.85-3.68,7.48,7.48,0,0,1,4.87-1.5,10.86,10.86,0,0,1,3.82.64,7.58,7.58,0,0,1,2.82,1.73Z"/><path d="M740.5,436.81h-2.41v-2.88h2.41Z"/></g></svg>