<svg xmlns="http://www.w3.org/2000/svg" xmlns:xlink="http://www.w3.org/1999/xlink" viewBox="0 0 1124.64 651.26"><defs><style>.cls-1{fill:none;}.cls-2{clip-path:url(#clip-path);}.cls-3{fill:#312235;}.cls-4{fill:#ce7061;}.cls-5{fill:#dd7a7a;}.cls-6{fill:#c6b366;}.cls-7{clip-path:url(#clip-path-2);}.cls-8{fill:#fff3c2;}.cls-9{fill:#fff3c3;}.cls-10{fill:#fff3c4;}.cls-11{fill:#fff4c5;}.cls-12{fill:#fff4c6;}.cls-13{fill:#fff4c7;}.cls-14{fill:#fff4c8;}.cls-15{fill:#fff4c9;}.cls-16{fill:#fff5ca;}.cls-17{fill:#fff5cb;}.cls-18{fill:#fff5cc;}.cls-19{fill:#fff5cd;}.cls-20{fill:#fff5ce;}.cls-21{fill:#fff6cf;}.cls-22{fill:#fff6d0;}.cls-23{fill:#fff6d1;}.cls-24{fill:#fff6d2;}.cls-25{fill:#fff6d3;}.cls-26{fill:#fff7d4;}.cls-27{fill:#fff7d5;}.cls-28{fill:#fff7d6;}.cls-29{fill:#fff7d7;}.cls-30{fill:#fff7d8;}.cls-31{fill:#fff8d9;}.cls-32{fill:#fff8da;}.cls-33{fill:#fff8db;}.cls-34{fill:#fff8dc;}.cls-35{fill:#fff8dd;}.cls-36{fill:#fff9de;}.cls-37{fill:#fff9df;}.cls-38{fill:#fff9e0;}.cls-39{fill:#fff9e2;}.cls-40{fill:#fff9e3;}.cls-41{fill:#fffae4;}.cls-42{fill:#fffae5;}.cls-43{fill:#fffae6;}.cls-44{fill:#fffae7;}.cls-45{fill:#fffae8;}.cls-46{fill:#fffbe9;}.cls-47{fill:#fffbea;}.cls-48{fill:#fffbeb;}.cls-49{fill:#fffbec;}.cls-50{fill:#fffbed;}.cls-51{fill:#fffcee;}.cls-52{fill:#fffcef;}.cls-53{fill:#fffcf0;}.cls-54{fill:#fffcf1;}.cls-55{fill:#fffcf2;}.cls-56{fill:#fffdf3;}.cls-57{fill:#fffdf4;}.cls-58{fill:#fffdf5;}.cls-59{fill:#fffdf6;}.cls-60{fill:#fffdf7;}.cls-61{fill:#fffef8;}.cls-62{fill:#fffef9;}.cls-63{fill:#fffefa;}.cls-64{fill:#fffefb;}.cls-65{fill:#fffefc;}.cls-66{fill:#fffffd;}.cls-67{fill:#fffffe;}.cls-68{fill:#fff;}.cls-69{fill:#ffeda1;}.cls-70{clip-path:url(#clip-path-3);}.cls-71{fill:#3a1e1c;}.cls-72{clip-path:url(#clip-path-4);}.cls-73{fill:#d88268;}.cls-74{fill:#d98369;}.cls-75{fill:#da8469;}.cls-76{fill:#db856a;}.cls-77{fill:#dc866b;}.cls-78{fill:#dd876b;}.cls-79{fill:#de886c;}.cls-80{fill:#df896d;}.cls-81{fill:#e08a6d;}.cls-82{fill:#e18b6e;}.cls-83{fill:#e28c6f;}.cls-84{fill:#e48d70;}.cls-85{fill:#e58d70;}.cls-86{fill:#e68e71;}.cls-87{fill:#e78f72;}.cls-88{fill:#e89072;}.cls-89{fill:#e99173;}.cls-90{fill:#ea9274;}.cls-91{fill:#eb9374;}.cls-92{fill:#ec9475;}.cls-93{fill:#ed9576;}.cls-94{fill:#ee9676;}.cls-95{fill:#ef9777;}.cls-96{fill:#3d201f;}.cls-97{fill:#b5574d;}.cls-98{fill:#b3514e;}.cls-99{fill:#fc999c;}.cls-100{fill:#f9aaaa;}.cls-101{fill:#822222;}.cls-102{fill:#9b3737;}.cls-103{fill:#5b1f3c;}.cls-104{fill:#fffdfd;}</style><clipPath id="clip-path"><path class="cls-1" d="M540.86-384.19c-10.3-18-97.34-31.5-97.34-31.5S301.2-604.45,232.19-598s-80.25,56.59-80.25,56.59l-32.63,66.55C54-440,10-373.83,10-298,10-185.73,106.43-94.74,225.37-94.74c117.57,0,213.12-88.9,215.32-199.34C473-316.39,548.81-370.32,540.86-384.19Z"/></clipPath><clipPath id="clip-path-2"><path class="cls-1" d="M428.87,402.79a192.51,192.51,0,0,0-5.05-43.86c-32.69-73-109.23-124.15-198.45-124.15C106.43,234.78,10,325.78,10,438a193.16,193.16,0,0,0,5,43.87C47.74,554.84,124.28,606,213.5,606,332.44,606,428.87,515,428.87,402.79Z"/></clipPath><clipPath id="clip-path-3"><path class="cls-1" d="M541.08,351.81c-8.62-15-92-32.76-90.33-32.5,3.75,5-153.08-187.41-218.34-181.34-69,6.43-80.25,56.59-80.25,56.59l-32.63,66.55C54.27,296,10.22,362.17,10.22,438c0,112.25,96.43,203.24,215.37,203.24,117.57,0,213.12-88.9,215.32-199.34C473.26,419.61,549,365.68,541.08,351.81Z"/></clipPath><clipPath id="clip-path-4"><path class="cls-1" d="M227.9,319.63l-2.36,9.78s-19.92,12.9-37.91,11.87c-5.34-.3,67.76,42.8,71.74,43s34.38-50.16,34.38-50.16-20.41-3.73-27.17-4-14.47-18.28-14.47-18.28Z"/></clipPath></defs><title>Intro-fala3</title><g id="Camada_5" data-name="Camada 5"><g class="cls-2"><path class="cls-3" d="M189.7,293.79s-6.77,14.38-4.3,22.7,17.23,13.73,17.23,13.73,37.07,22.44,68.87,18.45,21.38-11,21.38-11l-55.79-45.94Z"/><path class="cls-3" d="M297.71,290.25s-5.18,10.44-3,17.43,15.57,10.15,15.57,10.15l10.35.39,104,5.36s7.43-21.13-51.76-33.44S297.71,290.25,297.71,290.25Z"/><path class="cls-4" d="M202,32.44l2.37,26.31s-29.12,70.66-9.27,203l-6,40.43S213.13,313.4,230.5,318a72.35,72.35,0,0,0,32,1.2s-39.64-43.48-45.34-49.63L266.82,29.2S238.33-28.3,202,32.44Z"/><path class="cls-4" d="M284.3,30.63s-25.76,70.54,15.46,204.69c0,0,5.91,55.23-2.05,54.93s81.06,6.76,86.9,7-44.4-20.8-48.8-31.06S329.52,65,335.48,47.71a234.2,234.2,0,0,0,8.72-34.22S289.21,19.91,284.3,30.63Z"/><path class="cls-3" d="M172.41-180.28s-17.61,72.57-15.63,92.45,4.68,52.17,34,145.94c0,0,78.25,32.39,150.2-.8,0,0,6.29-1.86,10.91-43.82S364.32-129.1,343.18-174,172.41-180.28,172.41-180.28Z"/></g><path class="cls-5" d="M225.37,234.78c119,0,215.37,91,215.37,203.24S344.32,641.26,225.37,641.26,10,550.27,10,438s96.42-203.24,215.37-203.24m0-10a235.1,235.1,0,0,0-87.54,16.69A225.72,225.72,0,0,0,66.22,287,212.37,212.37,0,0,0,17.8,354.82a203.34,203.34,0,0,0,0,166.4A212.3,212.3,0,0,0,66.22,589a225.89,225.89,0,0,0,71.61,45.57,238.05,238.05,0,0,0,175.08,0A225.94,225.94,0,0,0,384.53,589a212.12,212.12,0,0,0,48.41-67.79,203.34,203.34,0,0,0,0-166.4A212.19,212.19,0,0,0,384.53,287a225.76,225.76,0,0,0-71.62-45.57,235.1,235.1,0,0,0-87.54-16.69Z"/><ellipse class="cls-6" cx="225.37" cy="438.02" rx="215.37" ry="203.24"/><g class="cls-7"><rect class="cls-8" x="10" y="234.78" width="418.87" height="371.24"/><path class="cls-8" d="M429.87,358.41v24.32h5.82a120.91,120.91,0,1,1,0-48.65h-5.82Z"/><circle class="cls-9" cx="316.21" cy="360" r="118.73"/><circle class="cls-10" cx="314.98" cy="361.6" r="116.75"/><circle class="cls-11" cx="313.75" cy="363.19" r="114.77"/><circle class="cls-12" cx="312.53" cy="364.78" r="112.79"/><circle class="cls-13" cx="311.3" cy="366.38" r="110.82"/><circle class="cls-14" cx="310.07" cy="367.97" r="108.84"/><circle class="cls-15" cx="308.85" cy="369.57" r="106.86"/><circle class="cls-16" cx="307.62" cy="371.16" r="104.88"/><circle class="cls-17" cx="306.39" cy="372.76" r="102.9"/><circle class="cls-18" cx="305.17" cy="374.35" r="100.92"/><circle class="cls-19" cx="303.94" cy="375.95" r="98.94"/><circle class="cls-20" cx="302.71" cy="377.54" r="96.96"/><circle class="cls-21" cx="301.48" cy="379.13" r="94.98"/><circle class="cls-22" cx="300.26" cy="380.73" r="93.01"/><circle class="cls-23" cx="299.03" cy="382.32" r="91.03"/><circle class="cls-24" cx="297.8" cy="383.92" r="89.05"/><circle class="cls-25" cx="296.58" cy="385.51" r="87.07"/><circle class="cls-26" cx="295.35" cy="387.11" r="85.09"/><circle class="cls-27" cx="294.12" cy="388.7" r="83.11"/><circle class="cls-28" cx="292.9" cy="390.3" r="81.13"/><circle class="cls-29" cx="291.67" cy="391.89" r="79.15"/><circle class="cls-30" cx="290.44" cy="393.48" r="77.18"/><circle class="cls-31" cx="289.22" cy="395.08" r="75.2"/><circle class="cls-32" cx="287.99" cy="396.67" r="73.22"/><circle class="cls-33" cx="286.76" cy="398.27" r="71.24"/><circle class="cls-34" cx="285.54" cy="399.86" r="69.26"/><circle class="cls-35" cx="284.31" cy="401.46" r="67.28"/><circle class="cls-36" cx="283.08" cy="403.05" r="65.3"/><circle class="cls-37" cx="281.85" cy="404.64" r="63.32"/><circle class="cls-38" cx="280.63" cy="406.24" r="61.34"/><circle class="cls-39" cx="279.4" cy="407.83" r="59.37"/><circle class="cls-40" cx="278.17" cy="409.43" r="57.39"/><circle class="cls-41" cx="276.95" cy="411.02" r="55.41"/><circle class="cls-42" cx="275.72" cy="412.62" r="53.43"/><circle class="cls-43" cx="274.49" cy="414.21" r="51.45"/><circle class="cls-44" cx="273.27" cy="415.81" r="49.47"/><circle class="cls-45" cx="272.04" cy="417.4" r="47.49"/><circle class="cls-46" cx="270.81" cy="418.99" r="45.51"/><circle class="cls-47" cx="269.59" cy="420.59" r="43.53"/><circle class="cls-48" cx="268.36" cy="422.18" r="41.56"/><circle class="cls-49" cx="267.13" cy="423.78" r="39.58"/><circle class="cls-50" cx="265.9" cy="425.37" r="37.6"/><circle class="cls-51" cx="264.68" cy="426.97" r="35.62"/><circle class="cls-52" cx="263.45" cy="428.56" r="33.64"/><circle class="cls-53" cx="262.22" cy="430.16" r="31.66"/><circle class="cls-54" cx="261" cy="431.75" r="29.68"/><circle class="cls-55" cx="259.77" cy="433.34" r="27.7"/><circle class="cls-56" cx="258.54" cy="434.94" r="25.73"/><circle class="cls-57" cx="257.32" cy="436.53" r="23.75"/><circle class="cls-58" cx="256.09" cy="438.13" r="21.77"/><circle class="cls-59" cx="254.86" cy="439.72" r="19.79"/><circle class="cls-60" cx="253.64" cy="441.32" r="17.81"/><circle class="cls-61" cx="252.41" cy="442.91" r="15.83"/><circle class="cls-62" cx="251.18" cy="444.51" r="13.85"/><circle class="cls-63" cx="249.96" cy="446.1" r="11.87"/><circle class="cls-64" cx="248.73" cy="447.69" r="9.89"/><circle class="cls-65" cx="247.5" cy="449.29" r="7.92"/><circle class="cls-66" cx="246.27" cy="450.88" r="5.94"/><circle class="cls-67" cx="245.05" cy="452.48" r="3.96"/><circle class="cls-68" cx="243.82" cy="454.07" r="1.98"/></g><path class="cls-6" d="M787.8,44.22c-174.89,0-318.64,118.13-335.23,269.27L353,353.14s-6.51,2.41-5.85,11.74a12.7,12.7,0,0,0,7.43,10.89L458.82,407C492,541,626.68,641.26,787.8,641.26c186,0,336.84-133.65,336.84-298.52S973.83,44.22,787.8,44.22Z"/><path class="cls-69" d="M787.75,0C612.85,0,469.11,118.13,452.52,269.27L353,308.92s-6.51,2.41-5.86,11.74a12.7,12.7,0,0,0,7.44,10.88l104.21,31.28C492,496.78,626.63,597,787.75,597c186,0,336.84-133.65,336.84-298.52S973.78,0,787.75,0Z"/><g class="cls-70"><path class="cls-68" d="M153.5,564.7s24.48-21.86,24.48-27-14.34-8.35-14.34-8.35l-20.42,29.5,9.58,7.33Z"/><path class="cls-71" d="M176.16,358.82S129.27,227,183.61,159.92c0,0,58.1-39.81,101.53,7s13,178.54,13,178.54Z"/><g class="cls-72"><polygon class="cls-73" points="293.69 311.8 293.71 312.12 182.29 322.49 182.29 311.8 293.69 311.8"/><polygon class="cls-73" points="293.71 312.12 293.75 312.49 293.75 312.93 182.29 323.3 182.29 322.49 293.71 312.12"/><polygon class="cls-74" points="293.75 313.74 182.29 324.11 182.29 323.3 293.75 312.93 293.75 313.74"/><polygon class="cls-75" points="293.75 314.55 182.29 324.93 182.29 324.11 293.75 313.74 293.75 314.55"/><polygon class="cls-76" points="293.75 315.37 182.29 325.74 182.29 324.93 293.75 314.55 293.75 315.37"/><polygon class="cls-77" points="293.75 316.18 182.29 326.55 182.29 325.74 293.75 315.37 293.75 316.18"/><polygon class="cls-78" points="293.75 316.99 182.29 327.37 182.29 326.55 293.75 316.18 293.75 316.99"/><polygon class="cls-79" points="293.75 317.81 182.29 328.18 182.29 327.37 293.75 316.99 293.75 317.81"/><polygon class="cls-80" points="293.75 318.62 182.29 328.99 182.29 328.18 293.75 317.81 293.75 318.62"/><polygon class="cls-81" points="293.75 319.43 182.29 329.81 182.29 328.99 293.75 318.62 293.75 319.43"/><polygon class="cls-82" points="293.75 320.24 182.29 330.62 182.29 329.81 293.75 319.43 293.75 320.24"/><polygon class="cls-83" points="293.75 321.06 182.29 331.43 182.29 330.62 293.75 320.24 293.75 321.06"/><polygon class="cls-84" points="293.75 321.87 182.29 332.24 182.29 331.43 293.75 321.06 293.75 321.87"/><polygon class="cls-85" points="293.75 322.68 182.29 333.06 182.29 332.24 293.75 321.87 293.75 322.68"/><polygon class="cls-86" points="293.75 323.5 182.29 333.87 182.29 333.06 293.75 322.68 293.75 323.5"/><polygon class="cls-87" points="293.75 324.31 182.29 334.68 182.29 333.87 293.75 323.5 293.75 324.31"/><polygon class="cls-88" points="293.75 325.12 182.29 335.5 182.29 334.68 293.75 324.31 293.75 325.12"/><polygon class="cls-89" points="293.75 325.94 182.29 336.31 182.29 335.5 293.75 325.12 293.75 325.94"/><polygon class="cls-90" points="293.75 326.75 182.29 337.12 182.29 336.31 293.75 325.94 293.75 326.75"/><polygon class="cls-91" points="293.75 327.56 182.29 337.94 182.29 337.12 293.75 326.75 293.75 327.56"/><polygon class="cls-92" points="293.75 328.38 182.29 338.75 182.29 337.94 293.75 327.56 293.75 328.38"/><polygon class="cls-93" points="293.75 329.19 182.29 339.56 182.29 338.75 293.75 328.38 293.75 329.19"/><polygon class="cls-94" points="293.75 330 182.29 340.38 182.29 339.56 293.75 329.19 293.75 330"/><polygon class="cls-95" points="293.75 330.82 182.29 341.19 182.29 340.38 293.75 330 293.75 330.82"/><polygon class="cls-95" points="184.32 384.38 182.29 362.56 182.29 341.19 293.75 330.82 293.75 384.38 184.32 384.38"/></g><path class="cls-95" d="M182.57,220.71s-.88,110.78,64.76,101.68c35.49-4.92,47.51-40.41,40.88-70.92a191.55,191.55,0,0,1-3.79-46.76s-4.08-29.37-38.7-20.31-49.64,5.72-49.64,5.72S180.51,193.3,182.57,220.71Z"/><path class="cls-71" d="M177,226.89s25.09-2.78,36.43-7.67l.58-15.39s2.55,9.93,4.85,12.4,22.88-.73,32-3.58,4.81-14.7,4.81-14.7l4.34,11.85s28.57,3.45,28.73-.93-3.86-24.71-12.21-28.74-73.88-4.44-83.08,4.1S177.5,214.69,177,226.89Z"/><ellipse class="cls-96" cx="265.92" cy="242.56" rx="3.92" ry="3.17" transform="translate(-22.23 26.88) rotate(-5.56)"/><ellipse class="cls-96" cx="226.86" cy="246.26" rx="3.92" ry="3.17" transform="translate(-22.77 23.12) rotate(-5.56)"/><path class="cls-97" d="M250.52,277a15.34,15.34,0,0,1-5.17-.8l.35-.94c5.16,1.91,13.88,0,15.56-3.34,1.13-2.27-1.43-4.53-3.78-6-6.89-4.38-5.32-8.94-5.25-9.13l.94.34c0,.16-1.33,4,4.84,7.95,4.89,3.1,4.95,5.68,4.15,7.31C260.69,275.31,255.34,277,250.52,277Z"/><path class="cls-98" d="M264.92,287.05c-18.37,3.57-37.46.15-36.73,1.15,0,0,1.77,10.68,18,10.61C262.94,298.73,264.92,287.05,264.92,287.05Z"/><path class="cls-68" d="M219.35,331.75s22.52,13.66,36.94,11.81c6.84-.88,19-14,19-14l13,129.73-49.8,2.24Z"/><path class="cls-3" d="M172.63,555.72S155,628.29,157,648.17s4.67,52.17,34,145.94c0,0,78.26,32.39,150.2-.8,0,0,6.29-1.86,10.91-43.82S364.54,606.9,343.4,562,172.63,555.72,172.63,555.72Z"/><path class="cls-71" d="M271,224s-6.44-4.41-10.23.1a.9.9,0,0,0-.21,1.24c.5.72,1.31-2.15,10.2-.47C270.78,224.88,271.34,225,271,224Z"/><path class="cls-71" d="M218.7,227.22s5.76-5.29,10.14-1.36a.89.89,0,0,1,.39,1.2c-.4.78-1.61-1.94-10.16,1C219.07,228,218.52,228.24,218.7,227.22Z"/><path class="cls-68" d="M262.59,287.47s-.64,2.4-2,3.09-15.62,1.5-24.11.72c-5.38-.5-6.4-2.5-6.25-3.23C230.25,288.05,249.06,289.75,262.59,287.47Z"/><path class="cls-99" d="M249.35,298.64s-1.22-7.27-18.49-5.37C230.86,293.27,235,299.91,249.35,298.64Z"/><ellipse class="cls-100" cx="280.98" cy="252.77" rx="3.62" ry="6.23" transform="translate(5.76 511.8) rotate(-85.24)"/><ellipse class="cls-100" cx="214.76" cy="262.02" rx="6.23" ry="3.62" transform="translate(-52.56 53.89) rotate(-12.76)"/><path class="cls-101" d="M333.53,438.84l41.91,37.38s10.59,6.85,14.42,7.27S408.13,474,408.13,474l39.67-86.66s-43.31-16.06-43.67-19.67-13.35,48.69-13.35,48.69-1-1.57-6.5-.5c-3,.58-1.8,5.6-7.86-.14-3.75-3.54-4.15-3.13-9.37-10.51-29.22-41.33-56.53-70.83-58.39-72.35s-11-6.17-14.23-4.65-19.18,1.41-19.18,1.41L277.88,445,219.35,331.75s-12.56,4.33-26.08,2.61S157,338,157,338s-10.23,27.71-17.55,29.81-11,20.25-11,20.25c-2.17,2.65-10.18,14.08-19.61,27.72h0s-37.48,45.93-43,49.91-2.65,13.44-2.65,13.44l78.84,83.79L170,527.39c-7.13-.5-43.13-49.77-43.13-49.77,2.54-4.53,2.3-8.26,1.56-10.72,17.3-18.49,42.63-47.18,42.63-47.18.41,4.06,6.47,16.8,16.94,32.51s9.68,42.14,9.68,42.14c-14.94,21.68-25,61.35-25,61.35s1,7.92,26.28,20.54c11,5.51,46.51,16.31,46.51,16.31l39.46-43.28,50.78,35.64s9.12-9.13,8.21-18.27-18.44-63.5-18.44-63.5-1.89-19,.28-24.66S333.53,438.84,333.53,438.84Z"/><path class="cls-73" d="M153.5,564.7s12.2,10.7,14.68,8.23l12.43-35.19S165,549,153.5,564.7Z"/><path class="cls-95" d="M170.85,565.87s5.9-5.86,14.86,2.8,9.68,9.26,9.68,9.26,7,2.88,7.52-4.63c0,0,8.8,1.29,6.83-8.39,0,0,6.13-4.42.71-12,0,0,5.5-1.06,2.23-11.47s-24-20.46-24-20.46-9.94-3.49-10.82,8.07c0,0-7.16.38-4.66,10.38,0,0-4.65,4.2-3.65,8.77s-.11,3.66-.11,3.66S162.76,559.29,170.85,565.87Z"/><path class="cls-97" d="M202.53,573.63c-.11-.14-11.87-13.67-24.48-19.79l.44-.9c12.8,6.21,24.68,19.9,24.8,20Z"/><path class="cls-97" d="M209.39,565.27c-.17-.16-17.14-16.1-29.48-22.75l.48-.88c12.45,6.72,29.52,22.74,29.69,22.9Z"/><path class="cls-97" d="M210.06,553.19c-.15-.18-15.21-17.9-27.54-21.76l.29-.95c12.61,3.94,27.39,21.33,28,22.07Z"/><path class="cls-102" d="M219.35,331.75s-24.15,11.65-37.22,31.43l44.37,12.67s-15.11,14.86-14.79,18.07,66.17,51,66.17,51,33.54-61.51,29.81-64.56-24.28-6.81-24.28-6.81,19.47-27.61,22.86-27.95-28-16.36-31-16.05,2.51,110.28,2.51,110.28l-.15,2.38Z"/><path class="cls-3" d="M277.88,445s9.26,81.81,7,104.33"/><circle class="cls-102" cx="291.62" cy="469.64" r="5.33"/><circle class="cls-102" cx="293.75" cy="507.64" r="5.33"/><path class="cls-103" d="M173.78,402.91l-1-.24a76.65,76.65,0,0,0-11.56-60.85l.82-.57A77.65,77.65,0,0,1,173.78,402.91Z"/><path class="cls-103" d="M329.06,405.1l-1-.09c1.1-12.3-3.36-24.58-7.3-35.41-4.66-12.82-9.95-27.35-20.07-37.88l.72-.69c10.27,10.68,15.59,25.32,20.29,38.23C325.67,380.19,330.18,392.58,329.06,405.1Z"/><path class="cls-103" d="M146.29,375.14a27.4,27.4,0,0,0-3.49-6.94l.82-.57a28.39,28.39,0,0,1,3.62,7.19Z"/><path class="cls-103" d="M136,390.8a34.62,34.62,0,0,0-6.08-.84l0-1a36.56,36.56,0,0,1,6.25.85Z"/><path class="cls-103" d="M334.41,439.12l-1-.12a74.15,74.15,0,0,0,.44-11.92l1,0A73.89,73.89,0,0,1,334.41,439.12Z"/><path class="cls-103" d="M396.36,433.11a73.8,73.8,0,0,0-2.84-11.6l1-.31A74,74,0,0,1,397.34,433Z"/><path class="cls-103" d="M383,434.09l-1-.15a59.23,59.23,0,0,0,.76-10.74l1,0A60.39,60.39,0,0,1,383,434.09Z"/><path class="cls-103" d="M200.39,494.73l-.53-.85a60,60,0,0,1,11.6-5.54l.33.94A59.09,59.09,0,0,0,200.39,494.73Z"/><path class="cls-103" d="M127.74,467.41c-2.32,0-10-.2-12.54-2.75l.71-.71c2.65,2.65,12.36,2.45,12.46,2.45l0,1Z"/><path class="cls-103" d="M118.8,481.06v-1c3.44,0,7.7-2.83,7.74-2.86l.56.83C126.91,478.16,122.54,481.06,118.8,481.06Z"/><path class="cls-104" d="M404.87,372.47a11.23,11.23,0,0,1,3.26-6.3L449,378l-4.26,11.35Z"/><path class="cls-95" d="M413.1,368.67s2.55-5.88,1.16-10.37-5.57-14.17-4.84-19.36a101.16,101.16,0,0,0,1.33-15.6c0-16-1.25-38.25-1.16-38.92.14-1,6.38-.85,6.68,2.46.12,1.26-.27,7.05.61,12.71,1.43,9.25,3.23,20.4,3.23,20.4s12.36-3.55,16.86-.31c0,0,8.21-2.12,9,1.69,0,0,6.59-.47,6.72,2.47a76.37,76.37,0,0,1,.05,9c-.07.53-3.31,5.76-3.68,8.66-.74,5.81,1,11.35-.56,14.66-2.34,5-7.64,8.17-7.83,9.53s-2.62,12.93-3.33,13.46S412.45,373.28,413.1,368.67Z"/><path class="cls-97" d="M431,344.62l-.38,0c-1.67-.14-3.4-1.31-3.24-4.18a17.18,17.18,0,0,1,1.35-4.27c.65-1.63,1.64-4.1,1.24-4.64a13.19,13.19,0,0,1-1.58-4.26c-1.17.7-3.23,1.63-4.27.23l.8-.6c.62.84,2.5-.14,3.5-.85l.71.1.06.09,0,.13a14.13,14.13,0,0,0,1.55,4.56c.74,1-.12,3.13-1.11,5.62a16.75,16.75,0,0,0-1.28,4c-.15,2.63,1.58,3.06,2.32,3.13a3.85,3.85,0,0,0,4.13-3.17,18.17,18.17,0,0,1,.85-2.57,32.9,32.9,0,0,0,1.46-4.53c.18-1.31-.43-10.27-.68-13.62l1-.07c0,.49.9,12.15.67,13.83a33.13,33.13,0,0,1-1.51,4.74c-.36,1-.77,2.09-.8,2.33A4.81,4.81,0,0,1,431,344.62Z"/><path class="cls-97" d="M440.13,344.18l-.3,0a6.62,6.62,0,0,1-4.95-3.46l.91-.42a5.59,5.59,0,0,0,4.18,2.89,1.2,1.2,0,0,0,.88-.26c1.28-1,2.28-4.2,2.95-9.54l.05-.43,1.65-11.64,1,.14-1.7,12.05c-.26,2.1-1.06,8.47-3.33,10.21A2.17,2.17,0,0,1,440.13,344.18Z"/><path class="cls-97" d="M447.39,342.16a4.36,4.36,0,0,1-1.46-.27,4.46,4.46,0,0,1-2.89-2.82l1-.23a3.56,3.56,0,0,0,2.26,2.11,2.43,2.43,0,0,0,2.26-.13c1.28-1,3.14-6.17,3.75-8.1l1,.31c-.24.74-2.34,7.26-4.11,8.59A2.86,2.86,0,0,1,447.39,342.16Z"/><path class="cls-95" d="M421.38,355.71c1.12.16,5.94-3.58,6.86-5.66s1.8-4.73,1.8-4.73,3.7-1.81,5.2-1.54c3.17.58,5.87-2.24,5.84-4,0-2-2.6-4.12-7.44-3,0,0-4.18,1.57-5.11,1.44s-3.64-.13-4.77.72a8.14,8.14,0,0,1-4.51,1.13c-.93-.13-3.36-.13-4.39.64"/><path class="cls-97" d="M421.43,356.21h-.12l.14-1c.79.06,5.42-3.32,6.34-5.37s1.77-4.66,1.78-4.69l.06-.2.19-.09c.39-.19,3.9-1.88,5.51-1.58a4.65,4.65,0,0,0,3.84-1.13,3.58,3.58,0,0,0,1.41-2.38,2.44,2.44,0,0,0-1-1.85c-1.26-1-3.38-1.26-5.8-.72-.65.25-4.29,1.59-5.29,1.45s-3.49-.07-4.4.62a8.56,8.56,0,0,1-4.88,1.22c-1-.14-3.19-.08-4,.55l-.6-.8c1.18-.89,3.76-.88,4.76-.74a7.75,7.75,0,0,0,4.14-1c1.31-1,4.23-.94,5.14-.81a21.68,21.68,0,0,0,4.86-1.42c3.8-.85,5.83.2,6.71.89a3.48,3.48,0,0,1,1.41,2.62,4.48,4.48,0,0,1-1.76,3.17,5.68,5.68,0,0,1-4.67,1.34c-.93-.16-3.3.74-4.7,1.41-.23.66-1,2.83-1.75,4.58C427.76,352.35,423,356.21,421.43,356.21Z"/></g><path d="M550.8,218.26l1.88-.14,9.09-23.9h2l9,23.9,1.92.14v1.55h-6.31v-1.55l2.23-.17-2.11-5.73H557l-2.13,5.73,2.23.17v1.55H550.8Zm6.89-7.79H567.8l-5-13.53h-.1Z"/><path d="M577.25,218.26l2.87-.23V202.58l-2.87-.23v-1.56H582l.2,3.32a6.72,6.72,0,0,1,2.47-2.72,6.93,6.93,0,0,1,3.68-.95,5.86,5.86,0,0,1,4.71,1.89q1.62,1.89,1.62,5.89V218l2.86.23v1.55h-7.84v-1.55l2.87-.23v-9.79q0-3.27-1.23-4.62a4.43,4.43,0,0,0-3.47-1.35,5.43,5.43,0,0,0-3.61,1.16,6.53,6.53,0,0,0-2,3.11V218l2.86.23v1.55h-7.84Z"/><path d="M605.66,195.92v4.87h4.18v1.72h-4.18V214.9a4.06,4.06,0,0,0,.68,2.65,2.26,2.26,0,0,0,1.8.78c.34,0,.67,0,1,0s.7-.08,1.12-.15l.31,1.56a5,5,0,0,1-1.28.35,8.56,8.56,0,0,1-1.51.13,3.91,3.91,0,0,1-3.12-1.27,5.93,5.93,0,0,1-1.12-4V202.51h-3.27v-1.72h3.27v-4.87Z"/><path d="M622.1,220.18a7.65,7.65,0,0,1-6-2.63,9.64,9.64,0,0,1-2.35-6.69v-1a9.89,9.89,0,0,1,2.35-6.76,7.23,7.23,0,0,1,5.66-2.69,7.08,7.08,0,0,1,5.51,2.21,8.51,8.51,0,0,1,2,5.91v1.79H615.89v.51a8.42,8.42,0,0,0,1.71,5.37,5.46,5.46,0,0,0,4.5,2.17,9.24,9.24,0,0,0,3.34-.54,6.78,6.78,0,0,0,2.37-1.57l.89,1.44a7.55,7.55,0,0,1-2.7,1.79A10.4,10.4,0,0,1,622.1,220.18Zm-.29-18A5,5,0,0,0,617.9,204a7.64,7.64,0,0,0-1.85,4.48l0,.09h11.15v-.53a6.1,6.1,0,0,0-1.46-4.15A5,5,0,0,0,621.81,202.23Z"/><path d="M646.88,206.66h-1.72l-.25-2.69a5.3,5.3,0,0,0-2-1.28,7.7,7.7,0,0,0-2.77-.46,5.19,5.19,0,0,0-3.46,1,3,3,0,0,0-1.15,2.33,2.74,2.74,0,0,0,1,2.18,9.5,9.5,0,0,0,4,1.51,13.14,13.14,0,0,1,5.08,2.07,4.28,4.28,0,0,1,1.69,3.56,4.6,4.6,0,0,1-1.93,3.84,8.16,8.16,0,0,1-5.09,1.47,12,12,0,0,1-3.84-.59,9.14,9.14,0,0,1-3-1.66V214.1h1.7l.3,2.7a4.76,4.76,0,0,0,2.14,1.22,9.26,9.26,0,0,0,2.69.38,5.82,5.82,0,0,0,3.61-1,3,3,0,0,0,1.32-2.43,3.06,3.06,0,0,0-1.1-2.33,8.94,8.94,0,0,0-4-1.64,13.17,13.17,0,0,1-5-2,4,4,0,0,1-1.65-3.42,4.59,4.59,0,0,1,1.85-3.68,7.48,7.48,0,0,1,4.87-1.5,10.86,10.86,0,0,1,3.82.64,7.58,7.58,0,0,1,2.82,1.73Z"/><path d="M673.07,217.07a6.63,6.63,0,0,1-2.44,2.3,7.29,7.29,0,0,1-3.52.81,6.3,6.3,0,0,1-5.33-2.55,11,11,0,0,1-1.93-6.8v-.37a12.37,12.37,0,0,1,1.93-7.29,6.19,6.19,0,0,1,5.37-2.73,6.53,6.53,0,0,1,5.87,3.21v-9.47l-2.87-.23v-1.56h5V218l2.86.23v1.55h-4.74ZM662,210.83a9.65,9.65,0,0,0,1.38,5.48,4.69,4.69,0,0,0,4.16,2,5.94,5.94,0,0,0,3.38-.91,6,6,0,0,0,2.12-2.52v-9a6.57,6.57,0,0,0-2-2.63,5.5,5.5,0,0,0-3.44-1,4.57,4.57,0,0,0-4.17,2.27,11.2,11.2,0,0,0-1.4,5.92Z"/><path d="M689.61,220.18a7.64,7.64,0,0,1-5.94-2.63,9.64,9.64,0,0,1-2.35-6.69v-1a9.93,9.93,0,0,1,2.34-6.76,7.26,7.26,0,0,1,5.67-2.69,7.05,7.05,0,0,1,5.5,2.21,8.47,8.47,0,0,1,2,5.91v1.79H683.41v.51a8.42,8.42,0,0,0,1.71,5.37,5.44,5.44,0,0,0,4.49,2.17,9.2,9.2,0,0,0,3.34-.54,6.73,6.73,0,0,0,2.38-1.57l.89,1.44a7.55,7.55,0,0,1-2.7,1.79A10.46,10.46,0,0,1,689.61,220.18Zm-.28-18a5,5,0,0,0-3.91,1.78,7.64,7.64,0,0,0-1.85,4.48l0,.09h11.15v-.53a6.1,6.1,0,0,0-1.46-4.15A5,5,0,0,0,689.33,202.23Z"/><path d="M708.79,202.35v-1.56h4.62l.27,3a6.79,6.79,0,0,1,2.47-2.44,6.88,6.88,0,0,1,3.52-.86,6.2,6.2,0,0,1,5.36,2.73,12.37,12.37,0,0,1,1.94,7.29v.37a11,11,0,0,1-1.94,6.81,6.32,6.32,0,0,1-5.32,2.54,7.63,7.63,0,0,1-3.51-.77,6.4,6.4,0,0,1-2.45-2.17v8.09l2.86.23v1.56h-7.82v-1.56l2.87-.23V202.58Zm16.07,8.11a10.91,10.91,0,0,0-1.44-5.91,4.7,4.7,0,0,0-4.22-2.28,5.53,5.53,0,0,0-3.46,1,6.2,6.2,0,0,0-2,2.62v9.15a5.76,5.76,0,0,0,2.08,2.46,6.12,6.12,0,0,0,3.4.89,4.76,4.76,0,0,0,4.19-2.07,9.47,9.47,0,0,0,1.44-5.5Z"/><path d="M735,200.79l.26,3.16v.23a6.68,6.68,0,0,1,2.21-2.75,5.56,5.56,0,0,1,3.31-1,4.93,4.93,0,0,1,.78.06,5.28,5.28,0,0,1,.63.13l-.29,2-1.56-.11a4.8,4.8,0,0,0-3.26,1.12,6.12,6.12,0,0,0-1.82,3.07V218l2.87.23v1.55h-7.83v-1.55l2.87-.23V202.58l-2.87-.23v-1.56H735Z"/><path d="M744.51,210a10.24,10.24,0,0,1,2.3-6.89,8.28,8.28,0,0,1,12.22,0,10.24,10.24,0,0,1,2.3,6.89v.58a10.24,10.24,0,0,1-2.29,6.9,8.32,8.32,0,0,1-12.23,0,10.25,10.25,0,0,1-2.3-6.9Zm2.11.58a9.07,9.07,0,0,0,1.67,5.55,5.89,5.89,0,0,0,9.26,0,9,9,0,0,0,1.67-5.55V210a9,9,0,0,0-1.68-5.52,5.85,5.85,0,0,0-9.25,0,9.07,9.07,0,0,0-1.67,5.52Z"/><path d="M778.56,206.66h-1.72l-.25-2.69a5.26,5.26,0,0,0-2-1.28,7.61,7.61,0,0,0-2.76-.46,5.19,5.19,0,0,0-3.46,1,3,3,0,0,0-1.15,2.33,2.76,2.76,0,0,0,1,2.18,9.62,9.62,0,0,0,4,1.51,13.14,13.14,0,0,1,5.08,2.07,4.27,4.27,0,0,1,1.68,3.56,4.61,4.61,0,0,1-1.92,3.84,8.16,8.16,0,0,1-5.09,1.47,11.9,11.9,0,0,1-3.84-.59,9.29,9.29,0,0,1-3-1.66V214.1h1.71l.3,2.7a4.78,4.78,0,0,0,2.13,1.22,9.27,9.27,0,0,0,2.7.38,5.79,5.79,0,0,0,3.6-1,3,3,0,0,0,1.32-2.43,3,3,0,0,0-1.1-2.33,8.84,8.84,0,0,0-4-1.64,13.29,13.29,0,0,1-5-2,4,4,0,0,1-1.64-3.42,4.59,4.59,0,0,1,1.85-3.68,7.48,7.48,0,0,1,4.87-1.5,10.9,10.9,0,0,1,3.82.64,7.75,7.75,0,0,1,2.82,1.73Z"/><path d="M796.58,206.66h-1.73l-.24-2.69a5.34,5.34,0,0,0-2-1.28,7.62,7.62,0,0,0-2.77-.46,5.18,5.18,0,0,0-3.45,1,3,3,0,0,0-1.15,2.33,2.76,2.76,0,0,0,1,2.18,9.5,9.5,0,0,0,4,1.51,13,13,0,0,1,5.08,2.07,4.25,4.25,0,0,1,1.69,3.56,4.61,4.61,0,0,1-1.92,3.84,8.18,8.18,0,0,1-5.09,1.47,11.9,11.9,0,0,1-3.84-.59,9.08,9.08,0,0,1-3-1.66V214.1h1.71l.29,2.7a4.87,4.87,0,0,0,2.14,1.22,9.27,9.27,0,0,0,2.7.38,5.81,5.81,0,0,0,3.6-1,3,3,0,0,0,1.32-2.43,3.06,3.06,0,0,0-1.1-2.33,8.84,8.84,0,0,0-4-1.64,13.29,13.29,0,0,1-5-2,4,4,0,0,1-1.64-3.42,4.58,4.58,0,0,1,1.84-3.68,7.49,7.49,0,0,1,4.87-1.5,10.92,10.92,0,0,1,3.83.64,7.75,7.75,0,0,1,2.82,1.73Z"/><path d="M809.18,220.18a7.64,7.64,0,0,1-5.94-2.63,9.64,9.64,0,0,1-2.36-6.69v-1a9.89,9.89,0,0,1,2.35-6.76,7.23,7.23,0,0,1,5.67-2.69,7.07,7.07,0,0,1,5.5,2.21,8.46,8.46,0,0,1,2,5.91v1.79H803v.51a8.43,8.43,0,0,0,1.72,5.37,5.44,5.44,0,0,0,4.49,2.17,9.24,9.24,0,0,0,3.34-.54,6.69,6.69,0,0,0,2.37-1.57l.9,1.44a7.68,7.68,0,0,1-2.71,1.79A10.4,10.4,0,0,1,809.18,220.18Zm-.28-18A5,5,0,0,0,805,204a7.71,7.71,0,0,0-1.86,4.48l0,.09h11.14v-.53a6,6,0,0,0-1.46-4.15A5,5,0,0,0,808.9,202.23Z"/><path d="M820.25,210.46a12.3,12.3,0,0,1,2-7.29,6.23,6.23,0,0,1,5.38-2.73,6.73,6.73,0,0,1,3.51.88,7.11,7.11,0,0,1,2.45,2.51l.25-3h1.77v18.77a8.16,8.16,0,0,1-2,5.8,7.21,7.21,0,0,1-5.54,2.13,14.22,14.22,0,0,1-2.93-.33,11.63,11.63,0,0,1-2.71-.92l.56-1.77a12.18,12.18,0,0,0,2.4.84,11.39,11.39,0,0,0,2.65.3,5,5,0,0,0,4.07-1.6,6.6,6.6,0,0,0,1.37-4.45v-2.41a6.46,6.46,0,0,1-2.44,2.24,7.18,7.18,0,0,1-3.46.79,6.34,6.34,0,0,1-5.36-2.55,11,11,0,0,1-1.94-6.8Zm2.11.37a9.55,9.55,0,0,0,1.4,5.47,4.7,4.7,0,0,0,4.17,2,5.89,5.89,0,0,0,3.42-.93,6,6,0,0,0,2.1-2.57V206a6.62,6.62,0,0,0-2-2.72,5.38,5.38,0,0,0-3.46-1,4.62,4.62,0,0,0-4.19,2.28,11,11,0,0,0-1.42,5.91Z"/><path d="M854.32,216.68a6.55,6.55,0,0,1-2.45,2.58,7.12,7.12,0,0,1-3.67.92,5.78,5.78,0,0,1-4.7-2q-1.69-2-1.7-6.33v-9.23l-2.35-.23v-1.56h4.45v11.06q0,3.48,1.18,5a4,4,0,0,0,3.37,1.51,6.23,6.23,0,0,0,3.8-1,5.62,5.62,0,0,0,2-2.92v-11.8l-2.71-.23v-1.56h4.82V218l2.55.23v1.55h-4.4Z"/><path d="M861.86,218.26l2.87-.23V202.58l-2.87-.23v-1.56h5V218l2.86.23v1.55h-7.82Zm5-22.92h-2.09v-3h2.09Z"/><path d="M877.77,200.79,878,204v.23a6.76,6.76,0,0,1,2.21-2.75,5.56,5.56,0,0,1,3.31-1,5.63,5.63,0,0,1,1.41.19l-.28,2-1.57-.11a4.8,4.8,0,0,0-3.26,1.12,6.2,6.2,0,0,0-1.82,3.07V218l2.87.23v1.55h-7.82v-1.55l2.86-.23V202.58l-2.86-.23v-1.56h4.69Z"/><path d="M887.23,202.35v-1.56H892l.2,3.15a6.63,6.63,0,0,1,2.44-2.59,7,7,0,0,1,3.64-.91,6,6,0,0,1,3.64,1.06,5.88,5.88,0,0,1,2.09,3.24,7.4,7.4,0,0,1,2.45-3.15,6.41,6.41,0,0,1,3.88-1.15,5.73,5.73,0,0,1,4.7,2c1.11,1.35,1.66,3.43,1.66,6.26V218l2.87.24v1.55h-7.86v-1.55l2.86-.24v-9.34c0-2.34-.41-4-1.23-5a4.3,4.3,0,0,0-3.46-1.45,4.71,4.71,0,0,0-3.79,1.56,7.52,7.52,0,0,0-1.64,4,2.17,2.17,0,0,0,0,.26c0,.09,0,.19,0,.32V218l2.86.23v1.55h-7.84v-1.55l2.87-.23v-9.35c0-2.29-.42-3.94-1.26-4.93a4.28,4.28,0,0,0-3.45-1.48A5.23,5.23,0,0,0,894,203.4a5.94,5.94,0,0,0-1.84,3V218l2.87.23v1.55h-7.84v-1.55l2.86-.23V202.58Z"/><path d="M921.94,210a10.2,10.2,0,0,1,2.31-6.89,8.27,8.27,0,0,1,12.21,0,10.19,10.19,0,0,1,2.3,6.89v.58a10.24,10.24,0,0,1-2.29,6.9,8.3,8.3,0,0,1-12.22,0,10.2,10.2,0,0,1-2.31-6.9Zm2.11.58a9.07,9.07,0,0,0,1.67,5.55,5.9,5.9,0,0,0,9.27,0,9.07,9.07,0,0,0,1.67-5.55V210A9,9,0,0,0,935,204.5a5.86,5.86,0,0,0-9.26,0,9.07,9.07,0,0,0-1.67,5.52Z"/><path d="M956,206.66h-1.72L954,204a5.22,5.22,0,0,0-2-1.28,7.7,7.7,0,0,0-2.77-.46,5.19,5.19,0,0,0-3.46,1,3,3,0,0,0-1.15,2.33,2.74,2.74,0,0,0,1,2.18,9.5,9.5,0,0,0,4,1.51,13.08,13.08,0,0,1,5.08,2.07,4.25,4.25,0,0,1,1.69,3.56,4.6,4.6,0,0,1-1.93,3.84,8.16,8.16,0,0,1-5.09,1.47,12,12,0,0,1-3.84-.59,9.14,9.14,0,0,1-3-1.66V214.1h1.7l.3,2.7a4.76,4.76,0,0,0,2.14,1.22,9.26,9.26,0,0,0,2.69.38,5.82,5.82,0,0,0,3.61-1,3,3,0,0,0,1.32-2.43,3.06,3.06,0,0,0-1.1-2.33,8.89,8.89,0,0,0-4-1.64,13.17,13.17,0,0,1-5-2,4,4,0,0,1-1.65-3.42,4.59,4.59,0,0,1,1.85-3.68,7.48,7.48,0,0,1,4.87-1.5,10.86,10.86,0,0,1,3.82.64,7.58,7.58,0,0,1,2.82,1.73Z"/><path d="M963.27,219a8,8,0,0,1-.66,3.16,7.75,7.75,0,0,1-1.8,2.62l-1.25-.92a9,9,0,0,0,1.22-2.3,7.5,7.5,0,0,0,.4-2.53v-2.5h2.09Z"/><path d="M984.24,220.18a7.64,7.64,0,0,1-5.94-2.63,9.64,9.64,0,0,1-2.36-6.69v-1a9.89,9.89,0,0,1,2.35-6.76,7.23,7.23,0,0,1,5.67-2.69,7.07,7.07,0,0,1,5.5,2.21,8.46,8.46,0,0,1,2,5.91v1.79H978v.51a8.43,8.43,0,0,0,1.72,5.37,5.44,5.44,0,0,0,4.49,2.17,9.24,9.24,0,0,0,3.34-.54,6.6,6.6,0,0,0,2.37-1.57l.9,1.44a7.68,7.68,0,0,1-2.71,1.79A10.4,10.4,0,0,1,984.24,220.18Zm-.28-18a5,5,0,0,0-3.91,1.78,7.71,7.71,0,0,0-1.86,4.48l0,.09h11.14v-.53a6,6,0,0,0-1.46-4.15A5,5,0,0,0,984,202.23Zm2-8.7h2.59l.05.11-4.38,4.57h-1.88Z"/><path d="M551.4,261.46l2.86-.23V245.78l-2.86-.23V244h5v17.24l2.87.23V263H551.4Zm5-22.92h-2.09v-2.95h2.09Z"/><path d="M562.29,245.55V244H567l.2,3.15a6.63,6.63,0,0,1,2.44-2.59,7,7,0,0,1,3.64-.91,6,6,0,0,1,3.64,1.06,5.88,5.88,0,0,1,2.09,3.24,7.4,7.4,0,0,1,2.45-3.15,6.41,6.41,0,0,1,3.88-1.15,5.74,5.74,0,0,1,4.7,2c1.11,1.35,1.66,3.43,1.66,6.26v9.3l2.87.24V263h-7.86v-1.55l2.86-.24v-9.34c0-2.34-.41-4-1.24-5a4.27,4.27,0,0,0-3.45-1.45,4.71,4.71,0,0,0-3.79,1.56,7.52,7.52,0,0,0-1.64,4,2.17,2.17,0,0,0,0,.26c0,.09,0,.19,0,.32v9.63l2.86.23V263h-7.84v-1.55l2.87-.23v-9.35q0-3.45-1.26-4.93a4.28,4.28,0,0,0-3.45-1.48,5.23,5.23,0,0,0-3.56,1.13,6,6,0,0,0-1.84,3.05v11.58l2.86.23V263h-7.84v-1.55l2.87-.23V245.78Z"/><path d="M596.62,245.55V244h4.63l.26,2.95a6.66,6.66,0,0,1,6-3.3,6.21,6.21,0,0,1,5.36,2.73,12.37,12.37,0,0,1,1.93,7.29V254a11,11,0,0,1-1.93,6.81,6.34,6.34,0,0,1-5.33,2.54,7.66,7.66,0,0,1-3.51-.77,6.4,6.4,0,0,1-2.45-2.17v8.09l2.87.23v1.56h-7.83v-1.56l2.87-.23V245.78Zm16.07,8.11a10.91,10.91,0,0,0-1.44-5.91,4.69,4.69,0,0,0-4.22-2.28,5.48,5.48,0,0,0-3.45,1,6.22,6.22,0,0,0-2,2.62v9.14a5.8,5.8,0,0,0,2.08,2.47,6.15,6.15,0,0,0,3.41.89,4.78,4.78,0,0,0,4.19-2.07,9.57,9.57,0,0,0,1.43-5.5Z"/><path d="M618.23,253.22a10.24,10.24,0,0,1,2.3-6.89,8.28,8.28,0,0,1,12.22,0,10.24,10.24,0,0,1,2.3,6.89v.58a10.24,10.24,0,0,1-2.29,6.9,8.32,8.32,0,0,1-12.23,0,10.25,10.25,0,0,1-2.3-6.9Zm2.11.58a9,9,0,0,0,1.67,5.55,5.89,5.89,0,0,0,9.26,0,9.07,9.07,0,0,0,1.67-5.55v-.58a9,9,0,0,0-1.68-5.52,5.85,5.85,0,0,0-9.25,0,9,9,0,0,0-1.67,5.52Z"/><path d="M643,244l.26,3.16v.23a6.76,6.76,0,0,1,2.21-2.75,5.58,5.58,0,0,1,3.31-1,5.16,5.16,0,0,1,.79.06,4.69,4.69,0,0,1,.62.13l-.28,2-1.57-.11a4.8,4.8,0,0,0-3.26,1.12,6.2,6.2,0,0,0-1.82,3.07v11.35l2.87.23V263h-7.82v-1.55l2.86-.23V245.78l-2.86-.23V244H643Z"/><path d="M658.34,239.12V244h4.18v1.72h-4.18V258.1a4.06,4.06,0,0,0,.68,2.65,2.26,2.26,0,0,0,1.8.78c.34,0,.67,0,1,0s.7-.08,1.12-.15l.32,1.56a5.57,5.57,0,0,1-1.29.35,8.56,8.56,0,0,1-1.51.13,3.91,3.91,0,0,1-3.12-1.27,6,6,0,0,1-1.12-4V245.71h-3.27V244h3.27v-4.87Z"/><path d="M679.52,263c-.14-.65-.24-1.2-.3-1.67a13.55,13.55,0,0,1-.08-1.43,8.3,8.3,0,0,1-2.82,2.48,7.91,7.91,0,0,1-4,1,6.09,6.09,0,0,1-4.33-1.44,5.13,5.13,0,0,1-1.52-3.91,4.82,4.82,0,0,1,2.26-4.18,10.8,10.8,0,0,1,6.16-1.55h4.2v-2.51a4.06,4.06,0,0,0-1.31-3.2,5.38,5.38,0,0,0-3.67-1.16,9.13,9.13,0,0,0-2.89.43,6.71,6.71,0,0,0-2.19,1.17l-.17,2.55h-1.74v-3.66a10.85,10.85,0,0,1,3.16-1.65,12,12,0,0,1,3.91-.63,7.62,7.62,0,0,1,5.06,1.6,5.61,5.61,0,0,1,1.92,4.58v9.36c0,.38,0,.76,0,1.11a8.87,8.87,0,0,0,.12,1l1.9.12V263Zm-6.92-1.5a7.63,7.63,0,0,0,4-1.05,6.23,6.23,0,0,0,2.52-2.73v-3.81H674.9a7.91,7.91,0,0,0-4.58,1.19,3.53,3.53,0,0,0-1.71,3,3.12,3.12,0,0,0,1.06,2.47A4.26,4.26,0,0,0,672.6,261.51Z"/><path d="M685.87,261.46l2.86-.23V245.78l-2.86-.23V244h4.73l.19,3.32a6.7,6.7,0,0,1,2.47-2.71,6.86,6.86,0,0,1,3.68-1,5.83,5.83,0,0,1,4.71,1.89q1.62,1.89,1.62,5.89v9.81l2.87.23V263H698.3v-1.55l2.86-.23v-9.79c0-2.18-.41-3.72-1.22-4.62a4.43,4.43,0,0,0-3.47-1.35,5.42,5.42,0,0,0-3.61,1.17,6.4,6.4,0,0,0-2,3.1v11.49l2.87.23V263h-7.84Z"/><path d="M714.27,239.12V244h4.19v1.72h-4.19V258.1a4.06,4.06,0,0,0,.68,2.65,2.26,2.26,0,0,0,1.8.78c.34,0,.67,0,1,0s.69-.08,1.11-.15l.32,1.56a5.47,5.47,0,0,1-1.28.35,8.67,8.67,0,0,1-1.52.13,3.94,3.94,0,0,1-3.12-1.27,6,6,0,0,1-1.11-4V245.71h-3.27V244h3.27v-4.87Z"/><path d="M730.71,263.38a7.64,7.64,0,0,1-5.94-2.63,9.64,9.64,0,0,1-2.36-6.69v-1a9.94,9.94,0,0,1,2.35-6.76,7.23,7.23,0,0,1,5.67-2.69,7.07,7.07,0,0,1,5.5,2.21,8.46,8.46,0,0,1,2,5.91v1.79H724.51v.51a8.42,8.42,0,0,0,1.71,5.37,5.44,5.44,0,0,0,4.49,2.17,9.24,9.24,0,0,0,3.34-.54,6.6,6.6,0,0,0,2.37-1.57l.9,1.44a7.68,7.68,0,0,1-2.71,1.79A10.4,10.4,0,0,1,730.71,263.38Zm-.28-17.95a5,5,0,0,0-3.91,1.79,7.62,7.62,0,0,0-1.86,4.47l0,.09h11.14v-.53a6,6,0,0,0-1.46-4.15A5,5,0,0,0,730.43,245.43Z"/><path d="M750.45,253.66a12.37,12.37,0,0,1,1.93-7.29,6.19,6.19,0,0,1,5.37-2.73,6.75,6.75,0,0,1,3.41.82,6.68,6.68,0,0,1,2.42,2.34l.21-2.81h1.85v24.54l2.86.23v1.56h-7.84v-1.56l2.87-.23v-8a6.45,6.45,0,0,1-2.43,2.13,7.43,7.43,0,0,1-3.39.74,6.3,6.3,0,0,1-5.33-2.55,11,11,0,0,1-1.93-6.8Zm2.13.37a9.8,9.8,0,0,0,1.38,5.51,4.66,4.66,0,0,0,4.15,2.06,5.91,5.91,0,0,0,3.32-.88,6.18,6.18,0,0,0,2.1-2.44V249a6.92,6.92,0,0,0-2-2.57,5.3,5.3,0,0,0-3.33-1,4.61,4.61,0,0,0-4.18,2.29,11.31,11.31,0,0,0-1.39,5.94Z"/><path d="M784.53,259.88a6.42,6.42,0,0,1-2.45,2.58,7.08,7.08,0,0,1-3.66.92,5.77,5.77,0,0,1-4.7-2c-1.14-1.36-1.7-3.47-1.7-6.33v-9.23l-2.36-.23V244h4.45v11.06q0,3.48,1.19,5a4,4,0,0,0,3.36,1.51,6.18,6.18,0,0,0,3.81-1.06,5.54,5.54,0,0,0,2-2.91v-11.8l-2.7-.23V244h4.81v17.24l2.55.23V263h-4.39Z"/><path d="M800.6,263.38a7.64,7.64,0,0,1-5.94-2.63,9.64,9.64,0,0,1-2.36-6.69v-1a9.94,9.94,0,0,1,2.35-6.76,7.25,7.25,0,0,1,5.67-2.69,7.05,7.05,0,0,1,5.5,2.21,8.47,8.47,0,0,1,2,5.91v1.79H794.4v.51a8.42,8.42,0,0,0,1.71,5.37,5.44,5.44,0,0,0,4.49,2.17,9.24,9.24,0,0,0,3.34-.54,6.6,6.6,0,0,0,2.37-1.57l.9,1.44a7.59,7.59,0,0,1-2.71,1.79A10.4,10.4,0,0,1,800.6,263.38Zm-.28-17.95a5,5,0,0,0-3.91,1.79,7.62,7.62,0,0,0-1.86,4.47l0,.09h11.14v-.53a6,6,0,0,0-1.46-4.15A5,5,0,0,0,800.32,245.43Z"/><path d="M825.86,245.55l-2.37.18,4.74,12.51.62,2.24h.1l.67-2.24,4.68-12.51-2.37-.18V244h6.39v1.56l-1.86.16L829.75,263h-1.69l-6.73-17.3-1.87-.16V244h6.4Z"/><path d="M840.38,253.22a10.24,10.24,0,0,1,2.3-6.89,8.28,8.28,0,0,1,12.22,0,10.24,10.24,0,0,1,2.3,6.89v.58a10.24,10.24,0,0,1-2.29,6.9,8.32,8.32,0,0,1-12.23,0,10.25,10.25,0,0,1-2.3-6.9Zm2.11.58a9.07,9.07,0,0,0,1.67,5.55,5.47,5.47,0,0,0,4.66,2.25,5.41,5.41,0,0,0,4.6-2.25,9,9,0,0,0,1.67-5.55v-.58a9,9,0,0,0-1.68-5.52,5.85,5.85,0,0,0-9.25,0,9.07,9.07,0,0,0-1.67,5.52Z"/><path d="M868.75,261.6a6,6,0,0,0,3.69-1.19,3.92,3.92,0,0,0,1.6-3.33h1.87l0,.11a5.21,5.21,0,0,1-2.1,4.41,7.82,7.82,0,0,1-5.09,1.78,7.24,7.24,0,0,1-6-2.66,10.64,10.64,0,0,1-2.13-6.85v-.74a10.59,10.59,0,0,1,2.13-6.82,7.2,7.2,0,0,1,6-2.67,9.68,9.68,0,0,1,4,.82,7.86,7.86,0,0,1,3,2.25l.09,4.15H874l-.33-3.37a5.9,5.9,0,0,0-2.1-1.51,7.19,7.19,0,0,0-2.86-.55,5.06,5.06,0,0,0-4.52,2.19,9.66,9.66,0,0,0-1.47,5.51v.74a9.79,9.79,0,0,0,1.46,5.55A5.07,5.07,0,0,0,868.75,261.6Z"/><path d="M888.25,263.38a7.65,7.65,0,0,1-6-2.63,9.64,9.64,0,0,1-2.35-6.69v-1a9.89,9.89,0,0,1,2.35-6.76,7.23,7.23,0,0,1,5.66-2.69,7.08,7.08,0,0,1,5.51,2.21,8.51,8.51,0,0,1,2,5.91v1.79H882v.51a8.42,8.42,0,0,0,1.71,5.37,5.46,5.46,0,0,0,4.5,2.17,9.24,9.24,0,0,0,3.34-.54,6.78,6.78,0,0,0,2.37-1.57l.89,1.44a7.55,7.55,0,0,1-2.7,1.79A10.4,10.4,0,0,1,888.25,263.38ZM888,245.43a5,5,0,0,0-3.91,1.79,7.55,7.55,0,0,0-1.85,4.47l0,.09h11.15v-.53a6.1,6.1,0,0,0-1.46-4.15A5,5,0,0,0,888,245.43Zm5-5.1v.32h-2l-2.94-3-2.91,3H883.2v-.37l4-3.89h1.73Z"/><path d="M912.82,239.12V244H917v1.72h-4.18V258.1a4.06,4.06,0,0,0,.68,2.65,2.26,2.26,0,0,0,1.8.78c.34,0,.67,0,1,0s.7-.08,1.12-.15l.31,1.56a5.47,5.47,0,0,1-1.28.35,8.56,8.56,0,0,1-1.51.13,3.91,3.91,0,0,1-3.12-1.27,5.93,5.93,0,0,1-1.12-4V245.71h-3.27V244h3.27v-4.87Z"/><path d="M929.26,263.38a7.65,7.65,0,0,1-6-2.63,9.64,9.64,0,0,1-2.35-6.69v-1a9.93,9.93,0,0,1,2.34-6.76,7.26,7.26,0,0,1,5.67-2.69,7.08,7.08,0,0,1,5.51,2.21,8.51,8.51,0,0,1,2,5.91v1.79H923.05v.51a8.42,8.42,0,0,0,1.71,5.37,5.46,5.46,0,0,0,4.5,2.17,9.15,9.15,0,0,0,3.33-.54,6.73,6.73,0,0,0,2.38-1.57l.89,1.44a7.55,7.55,0,0,1-2.7,1.79A10.4,10.4,0,0,1,929.26,263.38ZM929,245.43a5,5,0,0,0-3.91,1.79,7.55,7.55,0,0,0-1.85,4.47l0,.09h11.15v-.53a6.1,6.1,0,0,0-1.46-4.15A5,5,0,0,0,929,245.43Z"/><path d="M939.85,261.46l2.87-.23V245.78l-2.87-.23V244h4.73l.2,3.32a6.7,6.7,0,0,1,2.47-2.71,6.84,6.84,0,0,1,3.68-1,5.86,5.86,0,0,1,4.71,1.89q1.62,1.89,1.62,5.89v9.81l2.86.23V263h-7.84v-1.55l2.87-.23v-9.79c0-2.18-.41-3.72-1.22-4.62a4.47,4.47,0,0,0-3.48-1.35,5.44,5.44,0,0,0-3.61,1.17,6.46,6.46,0,0,0-2,3.1v11.49l2.86.23V263h-7.84Z"/><path d="M962.81,237.15v-1.56h5v11.65a6.8,6.8,0,0,1,6.22-3.6,5.78,5.78,0,0,1,4.62,1.86q1.6,1.86,1.6,5.78v10l2.87.23V263h-7.84v-1.55l2.86-.23v-10c0-2.06-.4-3.54-1.22-4.44a4.28,4.28,0,0,0-3.36-1.34,5.69,5.69,0,0,0-3.62,1.13,6.68,6.68,0,0,0-2.13,3v11.62l2.86.23V263h-7.82v-1.55l2.87-.23V237.38Z"/><path d="M999.37,263a16.44,16.44,0,0,1-.29-1.67,11.32,11.32,0,0,1-.09-1.43,8.36,8.36,0,0,1-2.81,2.48,8,8,0,0,1-4,1,6.06,6.06,0,0,1-4.32-1.44,5.14,5.14,0,0,1-1.53-3.91,4.82,4.82,0,0,1,2.26-4.18,10.82,10.82,0,0,1,6.16-1.55H999v-2.51a4.06,4.06,0,0,0-1.31-3.2,5.38,5.38,0,0,0-3.67-1.16,9.13,9.13,0,0,0-2.89.43,6.71,6.71,0,0,0-2.19,1.17l-.17,2.55H987v-3.66a11,11,0,0,1,3.16-1.65,12,12,0,0,1,3.91-.63,7.6,7.6,0,0,1,5.06,1.6,5.61,5.61,0,0,1,1.92,4.58v9.36c0,.38,0,.76,0,1.11a7.18,7.18,0,0,0,.11,1l1.9.12V263Zm-6.92-1.5a7.63,7.63,0,0,0,4-1.05,6.23,6.23,0,0,0,2.52-2.73v-3.81h-4.24a7.91,7.91,0,0,0-4.58,1.19,3.53,3.53,0,0,0-1.71,3,3.12,3.12,0,0,0,1.06,2.47A4.26,4.26,0,0,0,992.45,261.51Z"/><path d="M567.88,297.23A11,11,0,0,1,566,304a6.33,6.33,0,0,1-5.33,2.54,7.31,7.31,0,0,1-3.6-.84,6.31,6.31,0,0,1-2.44-2.4l-.23,2.87h-1.79V280.58l-2.87-.23v-1.56h5v11.39a6.48,6.48,0,0,1,5.94-3.34,6.21,6.21,0,0,1,5.36,2.73,12.37,12.37,0,0,1,1.93,7.29Zm-2.12-.37a11.11,11.11,0,0,0-1.41-5.92,4.57,4.57,0,0,0-4.15-2.27,5.48,5.48,0,0,0-3.56,1.09,6.44,6.44,0,0,0-2,2.79v8.6a5.71,5.71,0,0,0,5.59,3.6,4.67,4.67,0,0,0,4.13-2,9.65,9.65,0,0,0,1.39-5.48Z"/><path d="M579.84,306.58A7.64,7.64,0,0,1,573.9,304a9.64,9.64,0,0,1-2.36-6.69v-1a9.9,9.9,0,0,1,2.35-6.77,7.23,7.23,0,0,1,5.67-2.69,7.07,7.07,0,0,1,5.5,2.21,8.51,8.51,0,0,1,2,5.91v1.79H573.63v.51a8.37,8.37,0,0,0,1.72,5.37,5.44,5.44,0,0,0,4.49,2.17,9.24,9.24,0,0,0,3.34-.54,6.78,6.78,0,0,0,2.37-1.57l.9,1.45a7.66,7.66,0,0,1-2.71,1.78A10.4,10.4,0,0,1,579.84,306.58Zm-.28-17.95a5,5,0,0,0-3.91,1.78,7.64,7.64,0,0,0-1.86,4.48l0,.09H585v-.53a6.1,6.1,0,0,0-1.46-4.15A5,5,0,0,0,579.56,288.63Z"/><path d="M590.37,288.75v-1.56h4.73l.19,3.15a6.63,6.63,0,0,1,2.44-2.59,7,7,0,0,1,3.64-.91A6,6,0,0,1,605,287.9a5.88,5.88,0,0,1,2.09,3.24,7.48,7.48,0,0,1,2.45-3.15,6.43,6.43,0,0,1,3.88-1.15,5.73,5.73,0,0,1,4.7,2c1.11,1.35,1.66,3.43,1.66,6.26v9.3l2.87.24v1.55H614.8v-1.55l2.87-.24v-9.34c0-2.34-.42-4-1.24-5a4.3,4.3,0,0,0-3.46-1.45,4.71,4.71,0,0,0-3.79,1.56,7.52,7.52,0,0,0-1.64,4,2.17,2.17,0,0,0,0,.26,3,3,0,0,1,0,.32v9.63l2.86.23v1.55h-7.84v-1.55l2.87-.23v-9.35c0-2.29-.42-3.94-1.26-4.93a4.28,4.28,0,0,0-3.45-1.48,5.23,5.23,0,0,0-3.56,1.13,6,6,0,0,0-1.84,3.05v11.58l2.87.23v1.55h-7.84v-1.55l2.86-.23V289Z"/><path d="M633.45,288.75v-1.56h4.62l.27,2.95a6.87,6.87,0,0,1,2.47-2.44,7,7,0,0,1,3.52-.86,6.2,6.2,0,0,1,5.36,2.73,12.37,12.37,0,0,1,1.94,7.29v.37a11,11,0,0,1-1.94,6.81,6.32,6.32,0,0,1-5.32,2.54,7.63,7.63,0,0,1-3.51-.77,6.4,6.4,0,0,1-2.45-2.17v8.09l2.86.23v1.56h-7.82V312l2.87-.23V289Zm16.07,8.11a10.91,10.91,0,0,0-1.44-5.91,4.7,4.7,0,0,0-4.22-2.28,5.53,5.53,0,0,0-3.46,1,6.2,6.2,0,0,0-2,2.62v9.15a5.76,5.76,0,0,0,2.08,2.46,6.12,6.12,0,0,0,3.4.89,4.76,4.76,0,0,0,4.19-2.07,9.47,9.47,0,0,0,1.44-5.5Z"/><path d="M659.61,287.19l.26,3.16v.23a6.76,6.76,0,0,1,2.21-2.75,5.56,5.56,0,0,1,3.31-1,4.93,4.93,0,0,1,.78.06,5.28,5.28,0,0,1,.63.13l-.28,2-1.57-.11a4.8,4.8,0,0,0-3.26,1.12,6.12,6.12,0,0,0-1.82,3.07v11.35l2.87.23v1.55h-7.83v-1.55l2.87-.23V289l-2.87-.23v-1.56h4.7Z"/><path d="M677.57,306.58a7.64,7.64,0,0,1-5.94-2.63,9.64,9.64,0,0,1-2.36-6.69v-1a9.94,9.94,0,0,1,2.35-6.77,7.26,7.26,0,0,1,5.67-2.69,7.05,7.05,0,0,1,5.5,2.21,8.47,8.47,0,0,1,2,5.91v1.79H671.37v.51a8.42,8.42,0,0,0,1.71,5.37,5.44,5.44,0,0,0,4.49,2.17,9.2,9.2,0,0,0,3.34-.54,6.6,6.6,0,0,0,2.37-1.57l.9,1.45a7.57,7.57,0,0,1-2.71,1.78A10.4,10.4,0,0,1,677.57,306.58Zm-.28-17.95a5,5,0,0,0-3.91,1.78,7.71,7.71,0,0,0-1.86,4.48l0,.09H682.7v-.53a6.09,6.09,0,0,0-1.45-4.15A5,5,0,0,0,677.29,288.63Z"/><path d="M702.36,293.06h-1.73l-.24-2.69a5.26,5.26,0,0,0-2-1.28,7.62,7.62,0,0,0-2.77-.46,5.18,5.18,0,0,0-3.45,1A3,3,0,0,0,691,292a2.76,2.76,0,0,0,1,2.18,9.56,9.56,0,0,0,4,1.51,13.14,13.14,0,0,1,5.08,2.07,4.27,4.27,0,0,1,1.68,3.56,4.61,4.61,0,0,1-1.92,3.84,8.16,8.16,0,0,1-5.09,1.47,11.9,11.9,0,0,1-3.84-.59,9.19,9.19,0,0,1-3-1.66V300.5h1.71l.3,2.7a4.78,4.78,0,0,0,2.13,1.22,9.27,9.27,0,0,0,2.7.38,5.81,5.81,0,0,0,3.6-1,3,3,0,0,0,1.32-2.42,3,3,0,0,0-1.1-2.34,8.84,8.84,0,0,0-4-1.64,13.29,13.29,0,0,1-5-2,4,4,0,0,1-1.64-3.42,4.56,4.56,0,0,1,1.85-3.68,7.47,7.47,0,0,1,4.86-1.5,10.92,10.92,0,0,1,3.83.64,7.75,7.75,0,0,1,2.82,1.73Z"/><path d="M715,306.58A7.64,7.64,0,0,1,709,304a9.64,9.64,0,0,1-2.36-6.69v-1a9.94,9.94,0,0,1,2.35-6.77,7.23,7.23,0,0,1,5.67-2.69,7.07,7.07,0,0,1,5.5,2.21,8.46,8.46,0,0,1,2,5.91v1.79H708.76v.51a8.42,8.42,0,0,0,1.71,5.37A5.44,5.44,0,0,0,715,304.8a9.24,9.24,0,0,0,3.34-.54,6.6,6.6,0,0,0,2.37-1.57l.9,1.45a7.66,7.66,0,0,1-2.71,1.78A10.4,10.4,0,0,1,715,306.58Zm-.28-17.95a5,5,0,0,0-3.91,1.78,7.71,7.71,0,0,0-1.86,4.48l0,.09h11.14v-.53a6,6,0,0,0-1.46-4.15A5,5,0,0,0,714.68,288.63Z"/><path d="M725.56,304.66l2.87-.23V289l-2.87-.23v-1.56h4.73l.19,3.32A6.7,6.7,0,0,1,733,287.8a6.89,6.89,0,0,1,3.68-1,5.83,5.83,0,0,1,4.71,1.89c1.08,1.26,1.62,3.22,1.62,5.9v9.8l2.87.23v1.55H738v-1.55l2.86-.23v-9.79c0-2.18-.4-3.72-1.22-4.62a4.43,4.43,0,0,0-3.47-1.35,5.42,5.42,0,0,0-3.61,1.16,6.55,6.55,0,0,0-2,3.11v11.49l2.87.23v1.55h-7.84Z"/><path d="M754,282.32v4.87h4.18v1.72H754V301.3a4.06,4.06,0,0,0,.67,2.65,2.26,2.26,0,0,0,1.8.78c.34,0,.68,0,1,0s.69-.08,1.11-.15l.32,1.56a5.45,5.45,0,0,1-1.28.36,9.7,9.7,0,0,1-1.51.12,3.91,3.91,0,0,1-3.12-1.27,5.93,5.93,0,0,1-1.12-4V288.91h-3.27v-1.72h3.27v-4.87Z"/><path d="M770.4,306.58a7.64,7.64,0,0,1-5.94-2.63,9.64,9.64,0,0,1-2.36-6.69v-1a9.94,9.94,0,0,1,2.35-6.77,7.26,7.26,0,0,1,5.67-2.69,7.05,7.05,0,0,1,5.5,2.21,8.47,8.47,0,0,1,2,5.91v1.79H764.2v.51a8.42,8.42,0,0,0,1.71,5.37,5.44,5.44,0,0,0,4.49,2.17,9.2,9.2,0,0,0,3.34-.54,6.6,6.6,0,0,0,2.37-1.57l.9,1.45a7.57,7.57,0,0,1-2.71,1.78A10.4,10.4,0,0,1,770.4,306.58Zm-.28-17.95a5,5,0,0,0-3.91,1.78,7.71,7.71,0,0,0-1.86,4.48l0,.09h11.14v-.53a6.09,6.09,0,0,0-1.45-4.15A5,5,0,0,0,770.12,288.63Z"/><path d="M795.19,293.06h-1.73l-.24-2.69a5.26,5.26,0,0,0-2-1.28,7.62,7.62,0,0,0-2.77-.46,5.18,5.18,0,0,0-3.45,1,3,3,0,0,0-1.15,2.33,2.76,2.76,0,0,0,1,2.18,9.56,9.56,0,0,0,4,1.51,13.14,13.14,0,0,1,5.08,2.07,4.27,4.27,0,0,1,1.68,3.56,4.61,4.61,0,0,1-1.92,3.84,8.16,8.16,0,0,1-5.09,1.47,11.9,11.9,0,0,1-3.84-.59,9.19,9.19,0,0,1-3-1.66V300.5h1.71l.3,2.7a4.78,4.78,0,0,0,2.13,1.22,9.27,9.27,0,0,0,2.7.38,5.81,5.81,0,0,0,3.6-1,3,3,0,0,0,1.32-2.42,3,3,0,0,0-1.1-2.34,8.84,8.84,0,0,0-4-1.64,13.29,13.29,0,0,1-5-2,4,4,0,0,1-1.64-3.42,4.56,4.56,0,0,1,1.85-3.68,7.47,7.47,0,0,1,4.86-1.5,10.92,10.92,0,0,1,3.83.64,7.75,7.75,0,0,1,2.82,1.73Z"/><path d="M808.16,296.42a10.24,10.24,0,0,1,2.3-6.89,8.28,8.28,0,0,1,12.22,0,10.24,10.24,0,0,1,2.3,6.89V297a10.24,10.24,0,0,1-2.29,6.9,8.32,8.32,0,0,1-12.23,0,10.25,10.25,0,0,1-2.3-6.9Zm2.11.58a9.07,9.07,0,0,0,1.67,5.55,5.89,5.89,0,0,0,9.26,0,9,9,0,0,0,1.67-5.55v-.58a9,9,0,0,0-1.68-5.52,5.85,5.85,0,0,0-9.25,0,9.07,9.07,0,0,0-1.67,5.52Z"/><path d="M842.21,293.06h-1.72l-.25-2.69a5.26,5.26,0,0,0-2-1.28,7.61,7.61,0,0,0-2.76-.46,5.19,5.19,0,0,0-3.46,1,3,3,0,0,0-1.15,2.33,2.76,2.76,0,0,0,1,2.18,9.62,9.62,0,0,0,4,1.51,13.14,13.14,0,0,1,5.08,2.07,4.27,4.27,0,0,1,1.68,3.56,4.61,4.61,0,0,1-1.92,3.84,8.16,8.16,0,0,1-5.09,1.47,12,12,0,0,1-3.84-.59,9.29,9.29,0,0,1-3-1.66V300.5h1.71l.3,2.7a4.78,4.78,0,0,0,2.13,1.22,9.27,9.27,0,0,0,2.7.38,5.79,5.79,0,0,0,3.6-1,3,3,0,0,0,1.32-2.42,3,3,0,0,0-1.1-2.34,8.84,8.84,0,0,0-4-1.64,13.29,13.29,0,0,1-5-2,4,4,0,0,1-1.64-3.42,4.59,4.59,0,0,1,1.85-3.68,7.48,7.48,0,0,1,4.87-1.5,10.9,10.9,0,0,1,3.82.64,7.75,7.75,0,0,1,2.82,1.73Z"/><path d="M559.66,348a6.05,6.05,0,0,0,3.69-1.19,3.92,3.92,0,0,0,1.6-3.33h1.86l0,.11a5.21,5.21,0,0,1-2.1,4.41,7.82,7.82,0,0,1-5.09,1.78,7.24,7.24,0,0,1-6-2.67,10.64,10.64,0,0,1-2.12-6.84v-.74a10.64,10.64,0,0,1,2.12-6.82,7.21,7.21,0,0,1,6-2.67,9.68,9.68,0,0,1,4,.82,8,8,0,0,1,3,2.25l.08,4.15h-1.79l-.33-3.37a6.08,6.08,0,0,0-2.1-1.51,7,7,0,0,0-2.86-.55,5.08,5.08,0,0,0-4.53,2.19,9.74,9.74,0,0,0-1.46,5.51v.74a9.71,9.71,0,0,0,1.46,5.55A5.07,5.07,0,0,0,559.66,348Z"/><path d="M570.77,339.62a10.19,10.19,0,0,1,2.3-6.89,8.28,8.28,0,0,1,12.22,0,10.24,10.24,0,0,1,2.3,6.89v.58a10.29,10.29,0,0,1-2.29,6.9,8.32,8.32,0,0,1-12.23,0,10.2,10.2,0,0,1-2.3-6.9Zm2.11.58a9,9,0,0,0,1.67,5.55,5.89,5.89,0,0,0,9.26,0,9.07,9.07,0,0,0,1.67-5.55v-.58a9,9,0,0,0-1.68-5.52,5.85,5.85,0,0,0-9.25,0,9,9,0,0,0-1.67,5.52Z"/><path d="M590.63,347.86l2.87-.23V332.18l-2.87-.23v-1.56h4.73l.19,3.32A6.79,6.79,0,0,1,598,331a7,7,0,0,1,3.68-.95,5.87,5.87,0,0,1,4.72,1.89q1.61,1.89,1.61,5.89v9.81l2.87.23v1.55h-7.84v-1.55l2.86-.23v-9.79c0-2.18-.4-3.72-1.22-4.62a4.43,4.43,0,0,0-3.47-1.35,5.42,5.42,0,0,0-3.61,1.16,6.53,6.53,0,0,0-2,3.11v11.49l2.86.23v1.55h-7.84Z"/><path d="M613.59,323.55V322h4.95v11.65a6.83,6.83,0,0,1,6.23-3.6,5.76,5.76,0,0,1,4.61,1.86q1.61,1.86,1.61,5.78v9.95l2.87.23v1.55H626v-1.55l2.86-.23v-10c0-2.06-.41-3.54-1.22-4.44a4.32,4.32,0,0,0-3.37-1.34,5.66,5.66,0,0,0-3.61,1.13,6.57,6.57,0,0,0-2.14,3v11.62l2.87.23v1.55h-7.82v-1.55l2.86-.23V323.78Z"/><path d="M645.23,349.78a7.64,7.64,0,0,1-5.94-2.63,9.64,9.64,0,0,1-2.36-6.69v-1a9.89,9.89,0,0,1,2.35-6.76A7.23,7.23,0,0,1,645,330a7.07,7.07,0,0,1,5.5,2.21,8.51,8.51,0,0,1,2,5.91V340H639v.51a8.37,8.37,0,0,0,1.72,5.37,5.44,5.44,0,0,0,4.49,2.17,9.24,9.24,0,0,0,3.34-.54,6.78,6.78,0,0,0,2.37-1.57l.9,1.44a7.68,7.68,0,0,1-2.71,1.79A10.4,10.4,0,0,1,645.23,349.78ZM645,331.83a5,5,0,0,0-3.91,1.78,7.71,7.71,0,0,0-1.86,4.48l0,.09h11.14v-.53a6.1,6.1,0,0,0-1.46-4.15A5,5,0,0,0,645,331.83Z"/><path d="M664.34,348a6.05,6.05,0,0,0,3.69-1.19,4,4,0,0,0,1.6-3.33h1.86l0,.11a5.21,5.21,0,0,1-2.1,4.41,7.77,7.77,0,0,1-5.08,1.78,7.24,7.24,0,0,1-6-2.67,10.59,10.59,0,0,1-2.13-6.84v-.74a10.59,10.59,0,0,1,2.13-6.82,7.21,7.21,0,0,1,6-2.67,9.67,9.67,0,0,1,4,.82,7.86,7.86,0,0,1,3,2.25l.09,4.15h-1.79l-.34-3.37a5.9,5.9,0,0,0-2.1-1.51,7,7,0,0,0-2.85-.55,5.08,5.08,0,0,0-4.53,2.19,9.66,9.66,0,0,0-1.47,5.51v.74a9.79,9.79,0,0,0,1.46,5.55A5.09,5.09,0,0,0,664.34,348Z"/><path d="M675.3,347.86l2.87-.23V332.18L675.3,332v-1.56h5v17.24l2.87.23v1.55H675.3Zm5-22.92h-2.09V322h2.09Z"/><path d="M686.2,332v-1.56h4.73l.19,3.15a6.65,6.65,0,0,1,2.45-2.59,7,7,0,0,1,3.64-.91,6,6,0,0,1,3.64,1.06,5.88,5.88,0,0,1,2.09,3.24,7.4,7.4,0,0,1,2.45-3.15,6.4,6.4,0,0,1,3.87-1.15,5.75,5.75,0,0,1,4.71,2c1.1,1.35,1.66,3.43,1.66,6.26v9.3l2.86.24v1.55h-7.85v-1.55l2.86-.24v-9.34q0-3.51-1.24-5a4.31,4.31,0,0,0-3.45-1.44,4.7,4.7,0,0,0-3.79,1.56,7.52,7.52,0,0,0-1.64,4,2.17,2.17,0,0,0,0,.26v9.95l2.87.23v1.55h-7.84v-1.55l2.86-.23v-9.35c0-2.3-.41-3.94-1.25-4.93a4.29,4.29,0,0,0-3.46-1.48A5.25,5.25,0,0,0,693,333a6,6,0,0,0-1.83,3.05v11.58l2.86.23v1.55H686.2v-1.55l2.87-.23V332.18Z"/><path d="M729.3,349.78a7.64,7.64,0,0,1-5.94-2.63,9.64,9.64,0,0,1-2.35-6.69v-1a9.93,9.93,0,0,1,2.34-6.76A7.26,7.26,0,0,1,729,330a7.05,7.05,0,0,1,5.5,2.21,8.47,8.47,0,0,1,2,5.91V340H723.1v.51a8.42,8.42,0,0,0,1.71,5.37A5.45,5.45,0,0,0,729.3,348a9.2,9.2,0,0,0,3.34-.54,6.73,6.73,0,0,0,2.38-1.57l.89,1.44a7.55,7.55,0,0,1-2.7,1.79A10.42,10.42,0,0,1,729.3,349.78ZM729,331.83a5,5,0,0,0-3.91,1.78,7.64,7.64,0,0,0-1.85,4.48l0,.09h11.15v-.53A6.1,6.1,0,0,0,733,333.5,5,5,0,0,0,729,331.83Z"/><path d="M739.9,347.86l2.87-.23V332.18L739.9,332v-1.56h4.73l.2,3.32A6.72,6.72,0,0,1,747.3,331,6.93,6.93,0,0,1,751,330a5.86,5.86,0,0,1,4.71,1.89q1.62,1.89,1.62,5.89v9.81l2.86.23v1.55h-7.84v-1.55l2.87-.23v-9.79q0-3.27-1.23-4.62a4.43,4.43,0,0,0-3.47-1.35,5.43,5.43,0,0,0-3.61,1.16,6.53,6.53,0,0,0-2,3.11v11.49l2.86.23v1.55H739.9Z"/><path d="M768.31,325.52v4.87h4.18v1.72h-4.18V344.5a4.06,4.06,0,0,0,.68,2.65,2.26,2.26,0,0,0,1.8.78c.34,0,.67,0,1,0s.7-.08,1.12-.15l.31,1.56a5,5,0,0,1-1.28.35,8.56,8.56,0,0,1-1.51.13,3.91,3.91,0,0,1-3.12-1.27,5.93,5.93,0,0,1-1.12-4V332.11h-3.27v-1.72h3.27v-4.87Z"/><path d="M776,339.62a10.24,10.24,0,0,1,2.3-6.89,8.28,8.28,0,0,1,12.22,0,10.24,10.24,0,0,1,2.3,6.89v.58a10.24,10.24,0,0,1-2.29,6.9,8.32,8.32,0,0,1-12.23,0,10.25,10.25,0,0,1-2.3-6.9Zm2.11.58a9.07,9.07,0,0,0,1.67,5.55,5.89,5.89,0,0,0,9.26,0,9,9,0,0,0,1.67-5.55v-.58A9,9,0,0,0,789,334.1a5.85,5.85,0,0,0-9.25,0,9.07,9.07,0,0,0-1.67,5.52Z"/><path d="M810.06,336.26h-1.72l-.25-2.69a5.26,5.26,0,0,0-2-1.28,7.61,7.61,0,0,0-2.76-.46,5.19,5.19,0,0,0-3.46,1,3,3,0,0,0-1.15,2.33,2.76,2.76,0,0,0,1,2.18,9.62,9.62,0,0,0,4,1.51,13.14,13.14,0,0,1,5.08,2.07,4.27,4.27,0,0,1,1.68,3.56,4.61,4.61,0,0,1-1.92,3.84,8.16,8.16,0,0,1-5.09,1.47,11.9,11.9,0,0,1-3.84-.59,9.29,9.29,0,0,1-3-1.66V343.7h1.71l.3,2.7a4.78,4.78,0,0,0,2.13,1.22,9.27,9.27,0,0,0,2.7.38,5.79,5.79,0,0,0,3.6-1,3,3,0,0,0,1.32-2.43,3,3,0,0,0-1.1-2.33,8.84,8.84,0,0,0-4-1.64,13.29,13.29,0,0,1-5-2,4,4,0,0,1-1.64-3.42,4.59,4.59,0,0,1,1.85-3.68,7.48,7.48,0,0,1,4.87-1.5,10.9,10.9,0,0,1,3.82.64,7.75,7.75,0,0,1,2.82,1.73Z"/><path d="M836.16,349.41c-.14-.65-.24-1.2-.3-1.67a11.2,11.2,0,0,1-.09-1.43,8.27,8.27,0,0,1-2.81,2.48,7.91,7.91,0,0,1-4,1,6.07,6.07,0,0,1-4.33-1.44,5.12,5.12,0,0,1-1.53-3.91,4.83,4.83,0,0,1,2.27-4.18,10.77,10.77,0,0,1,6.15-1.55h4.2v-2.51a4.05,4.05,0,0,0-1.3-3.2,5.38,5.38,0,0,0-3.67-1.16,9.13,9.13,0,0,0-2.89.43,6.71,6.71,0,0,0-2.19,1.17l-.18,2.55H823.8l0-3.66a10.85,10.85,0,0,1,3.16-1.65,12,12,0,0,1,3.91-.63,7.62,7.62,0,0,1,5.06,1.6,5.61,5.61,0,0,1,1.92,4.58v9.36c0,.38,0,.75,0,1.11a8.87,8.87,0,0,0,.12,1.05l1.9.12v1.55Zm-6.92-1.5a7.63,7.63,0,0,0,4-1.05,6.18,6.18,0,0,0,2.51-2.72v-3.82h-4.23a7.91,7.91,0,0,0-4.58,1.19,3.53,3.53,0,0,0-1.71,3,3.12,3.12,0,0,0,1.06,2.47A4.25,4.25,0,0,0,829.24,347.91Z"/><path d="M856.11,346.67a6.56,6.56,0,0,1-2.44,2.3,7.29,7.29,0,0,1-3.52.81,6.3,6.3,0,0,1-5.33-2.55,11,11,0,0,1-1.93-6.8v-.37a12.44,12.44,0,0,1,1.93-7.29,6.19,6.19,0,0,1,5.37-2.73,6.53,6.53,0,0,1,5.87,3.21v-9.47l-2.87-.23V322h5v25.64l2.86.23v1.55h-4.74ZM845,340.43a9.65,9.65,0,0,0,1.38,5.48,4.69,4.69,0,0,0,4.16,2,5.67,5.67,0,0,0,5.5-3.43v-9a6.5,6.5,0,0,0-2-2.63,5.5,5.5,0,0,0-3.44-1,4.57,4.57,0,0,0-4.17,2.27,11.2,11.2,0,0,0-1.4,5.92Z"/><path d="M864.27,340.06a12.44,12.44,0,0,1,1.92-7.29,6.22,6.22,0,0,1,5.37-2.73,6.87,6.87,0,0,1,3.42.81,6.79,6.79,0,0,1,2.42,2.35l.21-2.81h1.85v24.54l2.86.23v1.56h-7.84v-1.56l2.87-.23v-8a6.52,6.52,0,0,1-2.43,2.13,7.43,7.43,0,0,1-3.39.74,6.33,6.33,0,0,1-5.34-2.55,11,11,0,0,1-1.92-6.8Zm2.13.37a9.8,9.8,0,0,0,1.38,5.51,4.66,4.66,0,0,0,4.15,2.06,5.83,5.83,0,0,0,3.32-.89,6.08,6.08,0,0,0,2.1-2.43V335.4a7,7,0,0,0-2.05-2.57,5.3,5.3,0,0,0-3.33-1,4.58,4.58,0,0,0-4.18,2.29,11.31,11.31,0,0,0-1.39,5.94Z"/><path d="M898.35,346.28a6.42,6.42,0,0,1-2.45,2.58,7.1,7.1,0,0,1-3.66.92,5.79,5.79,0,0,1-4.71-2q-1.69-2-1.69-6.33v-9.23l-2.36-.23v-1.56h4.45v11.06c0,2.32.39,4,1.19,5a4,4,0,0,0,3.36,1.51,6.2,6.2,0,0,0,3.81-1.06,5.54,5.54,0,0,0,2-2.91v-11.8l-2.7-.23v-1.56h4.81v17.24l2.55.23v1.55h-4.39Z"/><path d="M905.89,347.86l2.87-.23V332.18l-2.87-.23v-1.56h5v17.24l2.87.23v1.55h-7.83Zm5-22.92h-2.09V322h2.09Z"/><path d="M921.8,330.39l.27,3.16v.23a6.66,6.66,0,0,1,2.2-2.75,5.59,5.59,0,0,1,3.32-1,5,5,0,0,1,.78.06,4.69,4.69,0,0,1,.62.13l-.28,2-1.56-.11a4.76,4.76,0,0,0-3.26,1.12,6.12,6.12,0,0,0-1.82,3.07v11.35l2.86.23v1.55h-7.82v-1.55l2.86-.23V332.18l-2.86-.23v-1.56h4.69Z"/><path d="M931.58,347.86l2.86-.23V332.18l-2.86-.23v-1.56h4.95v17.24l2.87.23v1.55h-7.82Zm4.95-22.92h-2.09V322h2.09Z"/><path d="M956.15,346.67a6.63,6.63,0,0,1-2.44,2.3,7.29,7.29,0,0,1-3.52.81,6.3,6.3,0,0,1-5.33-2.55,11,11,0,0,1-1.93-6.8v-.37a12.37,12.37,0,0,1,1.93-7.29,6.19,6.19,0,0,1,5.37-2.73,6.77,6.77,0,0,1,3.44.83,7,7,0,0,1,2.43,2.38v-9.47l-2.87-.23V322h5v25.64l2.86.23v1.55h-4.74Zm-11.09-6.24a9.65,9.65,0,0,0,1.38,5.48,4.67,4.67,0,0,0,4.15,2A6,6,0,0,0,954,347a6.11,6.11,0,0,0,2.12-2.52v-9a6.5,6.5,0,0,0-2-2.63,5.5,5.5,0,0,0-3.44-1,4.57,4.57,0,0,0-4.17,2.27,11.11,11.11,0,0,0-1.4,5.92Z"/><path d="M964.31,339.62a10.19,10.19,0,0,1,2.3-6.89,8.28,8.28,0,0,1,12.22,0,10.24,10.24,0,0,1,2.3,6.89v.58a10.25,10.25,0,0,1-2.3,6.9,8.3,8.3,0,0,1-12.22,0,10.2,10.2,0,0,1-2.3-6.9Zm2.11.58a9,9,0,0,0,1.67,5.55,5.89,5.89,0,0,0,9.26,0A9.07,9.07,0,0,0,979,340.2v-.58a9,9,0,0,0-1.68-5.52,5.85,5.85,0,0,0-9.25,0,9,9,0,0,0-1.67,5.52Z"/><path d="M998.35,336.26h-1.72l-.24-2.69a5.34,5.34,0,0,0-2-1.28,7.62,7.62,0,0,0-2.77-.46,5.18,5.18,0,0,0-3.45,1,3,3,0,0,0-1.15,2.33,2.76,2.76,0,0,0,1,2.18,9.5,9.5,0,0,0,4,1.51,13,13,0,0,1,5.08,2.07,4.25,4.25,0,0,1,1.69,3.56,4.61,4.61,0,0,1-1.92,3.84,8.18,8.18,0,0,1-5.09,1.47,11.9,11.9,0,0,1-3.84-.59,9.08,9.08,0,0,1-3-1.66V343.7h1.7l.3,2.7a4.87,4.87,0,0,0,2.14,1.22,9.27,9.27,0,0,0,2.7.38,5.81,5.81,0,0,0,3.6-1,3,3,0,0,0,1.32-2.43,3.06,3.06,0,0,0-1.1-2.33,8.84,8.84,0,0,0-4-1.64,13.29,13.29,0,0,1-5-2,4,4,0,0,1-1.64-3.42,4.58,4.58,0,0,1,1.84-3.68,7.49,7.49,0,0,1,4.87-1.5,10.92,10.92,0,0,1,3.83.64,7.75,7.75,0,0,1,2.82,1.73Z"/><path d="M1010.94,347.86l2.87-.23V332.18l-2.87-.23v-1.56h4.73l.19,3.32a6.87,6.87,0,0,1,2.47-2.72A7,7,0,0,1,1022,330a5.87,5.87,0,0,1,4.72,1.89q1.61,1.89,1.61,5.89v9.81l2.87.23v1.55h-7.84v-1.55l2.86-.23v-9.79c0-2.18-.4-3.72-1.22-4.62a4.43,4.43,0,0,0-3.47-1.35,5.42,5.42,0,0,0-3.61,1.16,6.53,6.53,0,0,0-2,3.11v11.49l2.86.23v1.55h-7.84Z"/><path d="M1034.34,339.62a10.19,10.19,0,0,1,2.3-6.89,8.28,8.28,0,0,1,12.22,0,10.24,10.24,0,0,1,2.3,6.89v.58a10.29,10.29,0,0,1-2.29,6.9,8.32,8.32,0,0,1-12.23,0,10.2,10.2,0,0,1-2.3-6.9Zm2.11.58a9,9,0,0,0,1.67,5.55,5.89,5.89,0,0,0,9.26,0,9.07,9.07,0,0,0,1.67-5.55v-.58a9,9,0,0,0-1.68-5.52,5.85,5.85,0,0,0-9.25,0,9,9,0,0,0-1.67,5.52Z"/><path d="M559.66,391.2a6.05,6.05,0,0,0,3.69-1.19,3.92,3.92,0,0,0,1.6-3.33h1.86l0,.11a5.21,5.21,0,0,1-2.1,4.41,7.82,7.82,0,0,1-5.09,1.78,7.24,7.24,0,0,1-6-2.67,10.64,10.64,0,0,1-2.12-6.84v-.74a10.64,10.64,0,0,1,2.12-6.82,7.21,7.21,0,0,1,6-2.67,9.68,9.68,0,0,1,4,.82,8,8,0,0,1,3,2.25l.08,4.15h-1.79l-.33-3.37a6.08,6.08,0,0,0-2.1-1.51,7.19,7.19,0,0,0-2.86-.55,5.08,5.08,0,0,0-4.53,2.19,9.74,9.74,0,0,0-1.46,5.51v.74a9.71,9.71,0,0,0,1.46,5.55A5.09,5.09,0,0,0,559.66,391.2Z"/><path d="M584.74,389.48a6.48,6.48,0,0,1-2.45,2.58,7.12,7.12,0,0,1-3.67.92,5.78,5.78,0,0,1-4.7-2q-1.7-2-1.69-6.33v-9.23l-2.36-.23v-1.56h4.45v11.05c0,2.33.39,4,1.18,5a4.07,4.07,0,0,0,3.37,1.51,6.22,6.22,0,0,0,3.81-1.06,5.6,5.6,0,0,0,2-2.91v-11.8l-2.71-.23v-1.56h4.82v17.24l2.55.23v1.55h-4.39Z"/><path d="M597,373.59l.26,3.16V377a6.68,6.68,0,0,1,2.21-2.75,5.56,5.56,0,0,1,3.31-1,4.93,4.93,0,0,1,.78.06,5.28,5.28,0,0,1,.63.13l-.29,2-1.56-.11a4.8,4.8,0,0,0-3.26,1.12,6.12,6.12,0,0,0-1.82,3.07v11.35l2.87.23v1.55h-7.83v-1.55l2.87-.23V375.38l-2.87-.23v-1.56H597Z"/><path d="M620.69,379.46H619l-.25-2.69a5.3,5.3,0,0,0-2-1.28A7.7,7.7,0,0,0,614,375a5.19,5.19,0,0,0-3.46,1,3,3,0,0,0-1.15,2.33,2.76,2.76,0,0,0,1,2.18,9.62,9.62,0,0,0,4,1.51,13.14,13.14,0,0,1,5.08,2.07,4.28,4.28,0,0,1,1.69,3.56,4.62,4.62,0,0,1-1.93,3.84,8.16,8.16,0,0,1-5.09,1.47,12,12,0,0,1-3.84-.59,9.29,9.29,0,0,1-3-1.66v-3.84h1.71l.3,2.71a4.88,4.88,0,0,0,2.13,1.22,9.32,9.32,0,0,0,2.7.38,5.82,5.82,0,0,0,3.61-1,3,3,0,0,0,1.31-2.43,3,3,0,0,0-1.09-2.33,8.94,8.94,0,0,0-4-1.64,13.17,13.17,0,0,1-5-2,4,4,0,0,1-1.65-3.42,4.59,4.59,0,0,1,1.85-3.68,7.48,7.48,0,0,1,4.87-1.5,10.86,10.86,0,0,1,3.82.64,7.75,7.75,0,0,1,2.82,1.73Z"/><path d="M624.91,382.82a10.24,10.24,0,0,1,2.3-6.89,8.28,8.28,0,0,1,12.22,0,10.24,10.24,0,0,1,2.3,6.89v.58a10.24,10.24,0,0,1-2.29,6.9,8.32,8.32,0,0,1-12.23,0,10.25,10.25,0,0,1-2.3-6.9Zm2.11.58a9,9,0,0,0,1.67,5.55,5.89,5.89,0,0,0,9.26,0,9.07,9.07,0,0,0,1.67-5.55v-.58a9,9,0,0,0-1.68-5.52,5.85,5.85,0,0,0-9.25,0,9,9,0,0,0-1.67,5.52Z"/><path d="M667.13,389.87a6.63,6.63,0,0,1-2.44,2.3,7.29,7.29,0,0,1-3.52.81,6.3,6.3,0,0,1-5.33-2.55,11,11,0,0,1-1.93-6.8v-.37a12.37,12.37,0,0,1,1.93-7.29,6.19,6.19,0,0,1,5.37-2.73,6.87,6.87,0,0,1,3.44.83,7,7,0,0,1,2.43,2.38V367l-2.87-.23v-1.56h5v25.64l2.86.23v1.55h-4.74ZM656,383.63a9.65,9.65,0,0,0,1.38,5.48,4.68,4.68,0,0,0,4.16,2,6,6,0,0,0,3.38-.92,6,6,0,0,0,2.12-2.51v-9a6.6,6.6,0,0,0-2-2.64,5.5,5.5,0,0,0-3.44-1,4.57,4.57,0,0,0-4.17,2.28,11.11,11.11,0,0,0-1.4,5.92Z"/><path d="M683.67,393a7.64,7.64,0,0,1-5.94-2.63,9.64,9.64,0,0,1-2.36-6.69v-1a9.92,9.92,0,0,1,2.35-6.76,7.26,7.26,0,0,1,5.67-2.69,7,7,0,0,1,5.5,2.21,8.47,8.47,0,0,1,2,5.91v1.79H677.47v.51a8.42,8.42,0,0,0,1.71,5.37,5.44,5.44,0,0,0,4.49,2.17,9.2,9.2,0,0,0,3.34-.54,6.6,6.6,0,0,0,2.37-1.57l.9,1.44a7.59,7.59,0,0,1-2.71,1.79A10.4,10.4,0,0,1,683.67,393Zm-.28-18a5.06,5.06,0,0,0-3.91,1.78,7.68,7.68,0,0,0-1.86,4.48l0,.09H688.8v-.53a6.09,6.09,0,0,0-1.45-4.15A5,5,0,0,0,683.39,375Z"/><path d="M702.94,369.25V367h9.19v2.24l-2.87.49V389.9l2.87.49v2.22h-9.19v-2.22l2.86-.49V369.74Z"/><path d="M714.4,390.39l2.86-.49V376.31l-2.86-.49v-2.23h6l.24,2.83a7,7,0,0,1,2.38-2.35,6.46,6.46,0,0,1,3.27-.83A6.21,6.21,0,0,1,731,375c1.12,1.2,1.69,3,1.69,5.56v9.3l2.86.49v2.22h-9.19v-2.22l2.86-.49v-9.23a5.18,5.18,0,0,0-1-3.57,4,4,0,0,0-3-1.05,4.9,4.9,0,0,0-2.65.72,5.27,5.27,0,0,0-1.83,2V389.9l2.86.49v2.22H714.4Z"/><path d="M744.12,369v4.59h3.61v2.56h-3.61V387.7a2.57,2.57,0,0,0,.56,1.88,2,2,0,0,0,1.46.55,8,8,0,0,0,1-.08c.38-.05.7-.11,1-.17l.47,2.38a4.43,4.43,0,0,1-1.44.52,9.36,9.36,0,0,1-1.9.2,4.48,4.48,0,0,1-3.35-1.28,5.54,5.54,0,0,1-1.25-4V376.15h-3v-2.56h3V369Z"/><path d="M751.26,375.82v-2.23h6l.33,2.76a6.71,6.71,0,0,1,2-2.29,4.62,4.62,0,0,1,2.71-.82,6.15,6.15,0,0,1,.84.06,4.24,4.24,0,0,1,.66.13l-.46,3.22-2-.11a4,4,0,0,0-2.3.64,4.19,4.19,0,0,0-1.44,1.8V389.9l2.86.49v2.22h-9.19v-2.22l2.86-.49V376.31Z"/><path d="M765.81,382.92A10.49,10.49,0,0,1,768.1,376a8.46,8.46,0,0,1,12.44,0,10.5,10.5,0,0,1,2.29,7v.39a10.39,10.39,0,0,1-2.29,7,8.48,8.48,0,0,1-12.44,0,10.45,10.45,0,0,1-2.29-6.95Zm3.47.39a9,9,0,0,0,1.27,5,4.58,4.58,0,0,0,7.53,0,8.94,8.94,0,0,0,1.29-5v-.39a8.94,8.94,0,0,0-1.29-5,4.57,4.57,0,0,0-7.54,0,9.1,9.1,0,0,0-1.26,5Z"/><path d="M798.81,390.34a6.13,6.13,0,0,1-2.28,2,7,7,0,0,1-3.12.67,6.51,6.51,0,0,1-5.44-2.52,10.53,10.53,0,0,1-2-6.64v-.37a12.65,12.65,0,0,1,2-7.4,6.29,6.29,0,0,1,5.48-2.81,6.9,6.9,0,0,1,3,.62,6.25,6.25,0,0,1,2.2,1.8v-7.75l-2.86-.49v-2.23h6.32V389.9l2.87.49v2.22h-5.87Zm-9.34-6.52a8.1,8.1,0,0,0,1.18,4.6,4.1,4.1,0,0,0,3.64,1.74,4.57,4.57,0,0,0,2.6-.7,5.31,5.31,0,0,0,1.74-2v-8.82a5.23,5.23,0,0,0-1.74-1.9,4.54,4.54,0,0,0-2.56-.7,3.93,3.93,0,0,0-3.67,2.06,10.61,10.61,0,0,0-1.19,5.34Z"/><path d="M821.2,389.8a6.51,6.51,0,0,1-2.31,2.35,6.35,6.35,0,0,1-3.26.83,6.1,6.1,0,0,1-4.83-2c-1.16-1.32-1.74-3.39-1.74-6.19v-8.49l-2.18-.49v-2.23h5.64v11.25c0,2,.3,3.42.9,4.18a3.31,3.31,0,0,0,2.79,1.14,5.67,5.67,0,0,0,3-.74,4.73,4.73,0,0,0,1.82-2.12v-11l-2.55-.49v-2.23h6V389.9l2.18.49v2.22h-5.29Z"/><path d="M838,390.27a4.65,4.65,0,0,0,3-1.06,3.26,3.26,0,0,0,1.31-2.61h3.11l0,.1a5.38,5.38,0,0,1-2.19,4.37A8,8,0,0,1,838,393a7.69,7.69,0,0,1-6.34-2.71,10.45,10.45,0,0,1-2.19-6.8v-.74a10.4,10.4,0,0,1,2.2-6.78,7.65,7.65,0,0,1,6.33-2.71,10.66,10.66,0,0,1,4.1.75,8.44,8.44,0,0,1,3,2.08l.15,4.22h-2.76l-.75-3a4.65,4.65,0,0,0-1.58-1A6,6,0,0,0,838,376a4.19,4.19,0,0,0-3.9,2,9.24,9.24,0,0,0-1.17,4.81v.74a9.4,9.4,0,0,0,1.16,4.86A4.21,4.21,0,0,0,838,390.27Zm.14,2.5-.21.91a3.57,3.57,0,0,1,1.9.91,2.82,2.82,0,0,1,.75,2.13,3.14,3.14,0,0,1-1.39,2.69,6.69,6.69,0,0,1-4,1l-.12-1.91a4.22,4.22,0,0,0,2-.43,1.4,1.4,0,0,0,.76-1.3,1.21,1.21,0,0,0-.63-1.17,5.83,5.83,0,0,0-2.16-.46l.56-2.37Z"/><path d="M861.28,392.61c-.1-.52-.19-1-.25-1.39s-.1-.82-.12-1.23a8.53,8.53,0,0,1-2.5,2.14,6.5,6.5,0,0,1-3.21.85,6.41,6.41,0,0,1-4.52-1.45,5.34,5.34,0,0,1-1.55-4.09,4.72,4.72,0,0,1,2.19-4.17,10.66,10.66,0,0,1,6-1.47h3.56v-2.22a3.43,3.43,0,0,0-1-2.64,4.16,4.16,0,0,0-2.94-1,7,7,0,0,0-2.29.34,4.25,4.25,0,0,0-1.61.91l-.37,2H850v-3.69a10.45,10.45,0,0,1,3.15-1.66,12.56,12.56,0,0,1,4-.62,8,8,0,0,1,5.24,1.65,5.77,5.77,0,0,1,2,4.73v9.16c0,.24,0,.48,0,.72s0,.47,0,.7l1.41.19v2.22Zm1.72-26.7a4,4,0,0,1-1,2.79,3.43,3.43,0,0,1-2.63,1.14,5.07,5.07,0,0,1-2.6-.81,4.6,4.6,0,0,0-2.25-.82,1.65,1.65,0,0,0-1.26.57,2,2,0,0,0-.52,1.38l-1.88-.46a4.18,4.18,0,0,1,1-2.83,3.29,3.29,0,0,1,2.63-1.21,5.42,5.42,0,0,1,2.46.83,5.27,5.27,0,0,0,2.39.82,1.65,1.65,0,0,0,1.25-.57,2,2,0,0,0,.52-1.4Zm-7.29,24.17a6.11,6.11,0,0,0,3.14-.83,5.08,5.08,0,0,0,2-2v-3.12H857.2a5.21,5.21,0,0,0-3.36,1,3,3,0,0,0-1.24,2.39,2.36,2.36,0,0,0,.77,1.91A3.55,3.55,0,0,0,855.71,390.08Z"/><path d="M868.72,382.92A10.48,10.48,0,0,1,871,376a8.46,8.46,0,0,1,12.44,0,10.44,10.44,0,0,1,2.29,7v.39a10.44,10.44,0,0,1-2.28,7,8.49,8.49,0,0,1-12.45,0,10.44,10.44,0,0,1-2.28-6.95Zm3.46.39a9,9,0,0,0,1.27,5,4.59,4.59,0,0,0,7.54,0,9,9,0,0,0,1.28-5v-.39a9,9,0,0,0-1.28-5,4.58,4.58,0,0,0-7.55,0,9.1,9.1,0,0,0-1.26,5Z"/><path d="M910.25,392.61c-.1-.52-.18-1-.24-1.39s-.1-.82-.13-1.23a8.4,8.4,0,0,1-2.5,2.14,6.48,6.48,0,0,1-3.21.85,6.41,6.41,0,0,1-4.52-1.45,5.34,5.34,0,0,1-1.54-4.09,4.72,4.72,0,0,1,2.19-4.17,10.63,10.63,0,0,1,6-1.47h3.57v-2.22a3.43,3.43,0,0,0-1.06-2.64,4.15,4.15,0,0,0-2.93-1,7,7,0,0,0-2.3.34,4.25,4.25,0,0,0-1.61.91l-.37,2h-2.67v-3.69a10.45,10.45,0,0,1,3.15-1.66,12.62,12.62,0,0,1,4-.62,8,8,0,0,1,5.24,1.65,5.8,5.8,0,0,1,2,4.73v9.16c0,.24,0,.48,0,.72s0,.47,0,.7l1.41.19v2.22Zm-5.57-2.53a6.18,6.18,0,0,0,3.15-.83,5.08,5.08,0,0,0,2-2v-3.12h-3.69a5.26,5.26,0,0,0-3.37,1,3,3,0,0,0-1.24,2.39,2.39,2.39,0,0,0,.77,1.91A3.55,3.55,0,0,0,904.68,390.08Z"/><path d="M917.69,382.92A10.48,10.48,0,0,1,920,376a8.46,8.46,0,0,1,12.44,0,10.44,10.44,0,0,1,2.29,7v.39a10.44,10.44,0,0,1-2.28,7,8.49,8.49,0,0,1-12.45,0,10.44,10.44,0,0,1-2.28-6.95Zm3.46.39a9,9,0,0,0,1.28,5,4.58,4.58,0,0,0,7.53,0,9,9,0,0,0,1.28-5v-.39a9,9,0,0,0-1.28-5,4.22,4.22,0,0,0-3.78-2,4.15,4.15,0,0,0-3.76,2,9,9,0,0,0-1.27,5Z"/><path d="M562.84,410.22a9,9,0,0,1,6.37,2.1,7.93,7.93,0,0,1,0,11.13,9,9,0,0,1-6.37,2.09h-5.43v7.56l2.86.49v2.22h-9.19v-2.22l2.86-.49V412.94l-2.86-.49v-2.23h11.76Zm-5.43,12.62h5.43a5.05,5.05,0,0,0,3.89-1.4,5,5,0,0,0,1.29-3.53,5.1,5.1,0,0,0-1.29-3.55,5,5,0,0,0-3.89-1.42h-5.43Z"/><path d="M582.72,436.18a8,8,0,0,1-6.32-2.65,10,10,0,0,1-2.35-6.86v-.78a9.74,9.74,0,0,1,2.42-6.75,7.44,7.44,0,0,1,5.72-2.7,7.2,7.2,0,0,1,5.81,2.32,9.2,9.2,0,0,1,2,6.19v2.16H577.64l0,.09a7.46,7.46,0,0,0,1.39,4.5,4.41,4.41,0,0,0,3.74,1.77,8.86,8.86,0,0,0,3.09-.5,7,7,0,0,0,2.29-1.38l1.35,2.25a8.23,8.23,0,0,1-2.7,1.66A10.75,10.75,0,0,1,582.72,436.18Zm-.53-17a3.75,3.75,0,0,0-3,1.47,7,7,0,0,0-1.51,3.68l0,.09h8.77v-.46a5.36,5.36,0,0,0-1.09-3.41A3.91,3.91,0,0,0,582.19,419.16Z"/><path d="M592.88,433.59l2.87-.49V419.51l-2.87-.49v-2.23h6l.25,2.83a6.86,6.86,0,0,1,2.38-2.35,6.4,6.4,0,0,1,3.26-.83,6.2,6.2,0,0,1,4.76,1.8c1.13,1.2,1.69,3.06,1.69,5.56v9.3l2.86.49v2.22h-9.19v-2.22l2.87-.49v-9.23a5.13,5.13,0,0,0-1-3.57,4,4,0,0,0-3-1.05,4.84,4.84,0,0,0-2.64.72,5.29,5.29,0,0,0-1.84,2V433.1l2.86.49v2.22h-9.19Z"/><path d="M631.11,422.77h-2.6l-.56-2.29a4.63,4.63,0,0,0-1.59-1,6.13,6.13,0,0,0-2.17-.36,4,4,0,0,0-2.75.81,2.56,2.56,0,0,0-.89,1.95,2.18,2.18,0,0,0,.79,1.78,8.28,8.28,0,0,0,3.22,1.16,13.68,13.68,0,0,1,5.36,2.1,4.23,4.23,0,0,1,1.76,3.56,4.91,4.91,0,0,1-2,4.09,8.56,8.56,0,0,1-5.36,1.57,14,14,0,0,1-3.88-.5,10.66,10.66,0,0,1-3.08-1.45v-4.34h2.6l.65,2.54a3.52,3.52,0,0,0,1.62.79,8.74,8.74,0,0,0,2.1.25,4.9,4.9,0,0,0,2.9-.75,2.32,2.32,0,0,0,1-2,2.37,2.37,0,0,0-.87-1.88,8.18,8.18,0,0,0-3.29-1.28,13.7,13.7,0,0,1-5.22-2.06,4.12,4.12,0,0,1-1.76-3.51,5,5,0,0,1,2-4,7.78,7.78,0,0,1,5.14-1.63,12.62,12.62,0,0,1,3.88.56,8.29,8.29,0,0,1,2.87,1.56Z"/><path d="M647.32,435.81c-.11-.52-.19-1-.25-1.39s-.1-.82-.12-1.23a8.21,8.21,0,0,1-2.5,2.13,7.16,7.16,0,0,1-7.73-.59,5.34,5.34,0,0,1-1.55-4.09,4.72,4.72,0,0,1,2.19-4.17,10.65,10.65,0,0,1,6-1.47h3.57v-2.22a3.43,3.43,0,0,0-1-2.64,4.16,4.16,0,0,0-2.94-1,7,7,0,0,0-2.29.34,4.25,4.25,0,0,0-1.61.91l-.37,2H636v-3.69a10.45,10.45,0,0,1,3.15-1.66,12.29,12.29,0,0,1,4-.62,8,8,0,0,1,5.24,1.65,5.77,5.77,0,0,1,2,4.73v9.88c0,.23,0,.47.05.7l1.41.19v2.22Zm-5.57-2.53a6.14,6.14,0,0,0,3.14-.83,5.13,5.13,0,0,0,2-2v-3.13h-3.69a5.21,5.21,0,0,0-3.36,1,3,3,0,0,0-1.24,2.39,2.36,2.36,0,0,0,.77,1.91A3.53,3.53,0,0,0,641.75,433.28Z"/><path d="M654.05,433.59l2.87-.49V419.51l-2.87-.49v-2.23h6l.23,2.48a6.22,6.22,0,0,1,2.35-2.09,7.15,7.15,0,0,1,3.34-.74,5.82,5.82,0,0,1,3.26.88,5.29,5.29,0,0,1,2,2.63,7.13,7.13,0,0,1,2.37-2.56,6.21,6.21,0,0,1,3.45-.95,5.73,5.73,0,0,1,4.61,2q1.68,2,1.68,6v8.66l2.87.49v2.22H677v-2.22l2.86-.49v-8.7a6.36,6.36,0,0,0-1-4,3.51,3.51,0,0,0-2.87-1.17,3.64,3.64,0,0,0-2.91,1.27,5.51,5.51,0,0,0-1.27,3.21v9.37l2.86.49v2.22h-9.19v-2.22l2.86-.49v-8.7a6.24,6.24,0,0,0-1-3.91,3.45,3.45,0,0,0-2.87-1.24,4.81,4.81,0,0,0-2.61.65,4.19,4.19,0,0,0-1.56,1.83V433.1l2.87.49v2.22h-9.2Z"/><path d="M697.26,436.18a8,8,0,0,1-6.32-2.65,10,10,0,0,1-2.35-6.86v-.78a9.74,9.74,0,0,1,2.42-6.75,7.44,7.44,0,0,1,5.72-2.7,7.2,7.2,0,0,1,5.81,2.32,9.2,9.2,0,0,1,2,6.19v2.16H692.18l0,.09a7.4,7.4,0,0,0,1.39,4.5,4.41,4.41,0,0,0,3.74,1.77,8.76,8.76,0,0,0,3.08-.5,7,7,0,0,0,2.3-1.38l1.35,2.25a8.23,8.23,0,0,1-2.7,1.66A10.79,10.79,0,0,1,697.26,436.18Zm-.53-17a3.75,3.75,0,0,0-3,1.47,7,7,0,0,0-1.51,3.68l0,.09h8.78v-.46a5.36,5.36,0,0,0-1.09-3.41A3.91,3.91,0,0,0,696.73,419.16Z"/><path d="M707.42,433.59l2.86-.49V419.51l-2.86-.49v-2.23h6l.24,2.83a7,7,0,0,1,2.39-2.35,6.4,6.4,0,0,1,3.26-.83,6.2,6.2,0,0,1,4.76,1.8c1.13,1.2,1.69,3.06,1.69,5.56v9.3l2.86.49v2.22h-9.19v-2.22l2.87-.49v-9.23a5.18,5.18,0,0,0-1-3.57,4,4,0,0,0-3-1.05,4.9,4.9,0,0,0-2.65.72,5.27,5.27,0,0,0-1.83,2V433.1l2.86.49v2.22h-9.19Z"/><path d="M737.14,412.2v4.59h3.61v2.57h-3.61V430.9a2.6,2.6,0,0,0,.56,1.89,2,2,0,0,0,1.47.54,8,8,0,0,0,1-.08c.38-.05.7-.11,1-.17l.48,2.38a4.38,4.38,0,0,1-1.45.51,8.69,8.69,0,0,1-1.89.21,4.48,4.48,0,0,1-3.36-1.28,5.54,5.54,0,0,1-1.25-4V419.36h-3v-2.57h3V412.2Z"/><path d="M744,426.12a10.48,10.48,0,0,1,2.28-6.95,8.46,8.46,0,0,1,12.44,0,10.44,10.44,0,0,1,2.29,7v.39a10.42,10.42,0,0,1-2.28,7,8.49,8.49,0,0,1-12.45,0,10.44,10.44,0,0,1-2.28-6.95Zm3.46.39a9,9,0,0,0,1.27,5,4.59,4.59,0,0,0,7.54,0,9,9,0,0,0,1.28-5v-.39a9,9,0,0,0-1.28-5,4.22,4.22,0,0,0-3.78-2,4.15,4.15,0,0,0-3.76,2,9,9,0,0,0-1.27,5Z"/><path d="M792.6,418.07h-2.44l-.65-3.62a6.56,6.56,0,0,0-2.08-1.35,7.41,7.41,0,0,0-2.93-.53,7.18,7.18,0,0,0-6.14,2.89,12,12,0,0,0-2.14,7.34v.41a12.24,12.24,0,0,0,2.1,7.35,6.78,6.78,0,0,0,5.83,2.91,8.84,8.84,0,0,0,3.16-.54,6.16,6.16,0,0,0,2.2-1.34l.65-3.62h2.44v4.55a9.5,9.5,0,0,1-3.32,2.54,11.33,11.33,0,0,1-5.13,1.12,10.34,10.34,0,0,1-8.19-3.69,13.64,13.64,0,0,1-3.2-9.28v-.37a13.86,13.86,0,0,1,3.14-9.31,10.32,10.32,0,0,1,8.25-3.68,11.07,11.07,0,0,1,5.13,1.13,9.74,9.74,0,0,1,3.32,2.54Z"/><path d="M796.31,426.12a10.43,10.43,0,0,1,2.29-6.95,8.45,8.45,0,0,1,12.43,0,10.45,10.45,0,0,1,2.3,7v.39a10.37,10.37,0,0,1-2.29,7,8.48,8.48,0,0,1-12.44,0,10.4,10.4,0,0,1-2.29-6.95Zm3.46.39a9,9,0,0,0,1.28,5,4.58,4.58,0,0,0,7.53,0,8.91,8.91,0,0,0,1.28-5v-.39a8.93,8.93,0,0,0-1.28-5,4.57,4.57,0,0,0-7.54,0,9.1,9.1,0,0,0-1.27,5Z"/><path d="M815.81,433.59l2.86-.49V419.51l-2.86-.49v-2.23h6l.23,2.48a6.25,6.25,0,0,1,2.36-2.09,7.12,7.12,0,0,1,3.34-.74,5.87,5.87,0,0,1,3.26.88,5.22,5.22,0,0,1,2,2.63,7.07,7.07,0,0,1,2.38-2.56,6.15,6.15,0,0,1,3.44-.95,5.72,5.72,0,0,1,4.61,2c1.12,1.33,1.69,3.33,1.69,6v8.66l2.86.49v2.22h-9.21v-2.22l2.87-.49v-8.7a6.36,6.36,0,0,0-1-4,3.51,3.51,0,0,0-2.87-1.17,3.67,3.67,0,0,0-2.91,1.27,5.58,5.58,0,0,0-1.27,3.21v9.37l2.87.49v2.22h-9.2v-2.22l2.87-.49v-8.7a6.17,6.17,0,0,0-1-3.91,3.45,3.45,0,0,0-2.87-1.24,4.8,4.8,0,0,0-2.6.65,4.21,4.21,0,0,0-1.57,1.83V433.1l2.87.49v2.22h-9.19Z"/><path d="M850.08,440.89l2.87-.49V419.51l-2.87-.49v-2.23h5.84l.32,2.32a6.37,6.37,0,0,1,2.31-2,7,7,0,0,1,3.15-.68,6.33,6.33,0,0,1,5.5,2.8,12.74,12.74,0,0,1,2,7.41V427a10.48,10.48,0,0,1-2,6.63,6.51,6.51,0,0,1-5.43,2.53,7.57,7.57,0,0,1-3.09-.59,6,6,0,0,1-2.26-1.75v6.56l2.87.49v2.23h-9.2Zm15.6-14.24a10.16,10.16,0,0,0-1.27-5.33,4.13,4.13,0,0,0-3.76-2.07,4.57,4.57,0,0,0-2.53.67,4.87,4.87,0,0,0-1.71,1.83V431a4.53,4.53,0,0,0,4.27,2.46,4.28,4.28,0,0,0,3.73-1.79,8,8,0,0,0,1.27-4.66Z"/><path d="M885.91,433a6.19,6.19,0,0,1-5.57,3.18,6.08,6.08,0,0,1-4.84-2c-1.16-1.32-1.74-3.39-1.74-6.19v-8.49l-2.18-.49v-2.23h5.64V428c0,2,.3,3.42.9,4.18a3.35,3.35,0,0,0,2.8,1.15,5.7,5.7,0,0,0,3.05-.75,4.71,4.71,0,0,0,1.81-2.12v-11l-2.54-.49v-2.23h6V433.1l2.18.49v2.22h-5.29Z"/><path d="M900.22,412.2v4.59h3.6v2.57h-3.6V430.9a2.6,2.6,0,0,0,.55,1.89,2,2,0,0,0,1.47.54,8.13,8.13,0,0,0,1-.08,9.4,9.4,0,0,0,1-.17l.48,2.38a4.39,4.39,0,0,1-1.44.51,8.85,8.85,0,0,1-1.9.21A4.48,4.48,0,0,1,898,434.9a5.54,5.54,0,0,1-1.25-4V419.36h-3v-2.57h3V412.2Z"/><path d="M919.76,435.81c-.1-.52-.18-1-.24-1.39s-.1-.82-.13-1.23a8.09,8.09,0,0,1-2.5,2.13,7.16,7.16,0,0,1-7.73-.59,5.34,5.34,0,0,1-1.54-4.09,4.73,4.73,0,0,1,2.18-4.17,10.66,10.66,0,0,1,6-1.47h3.57v-2.22a3.43,3.43,0,0,0-1.06-2.64,4.15,4.15,0,0,0-2.93-1,7,7,0,0,0-2.3.34,4.25,4.25,0,0,0-1.61.91l-.37,2h-2.67v-3.69a10.45,10.45,0,0,1,3.15-1.66,12.35,12.35,0,0,1,4-.62,8,8,0,0,1,5.24,1.65,5.8,5.8,0,0,1,2,4.73V432c0,.24,0,.48,0,.72s0,.47,0,.7l1.41.19v2.22Zm-5.57-2.53a6.18,6.18,0,0,0,3.15-.83,5.13,5.13,0,0,0,2-2v-3.13h-3.7a5.23,5.23,0,0,0-3.36,1,3,3,0,0,0-1.24,2.39,2.39,2.39,0,0,0,.77,1.91A3.55,3.55,0,0,0,914.19,433.28Z"/><path d="M935.72,433.47a4.69,4.69,0,0,0,3-1.06,3.26,3.26,0,0,0,1.31-2.61h3.11l0,.1a5.33,5.33,0,0,1-2.19,4.37,8,8,0,0,1-5.3,1.91,7.65,7.65,0,0,1-6.33-2.71,10.45,10.45,0,0,1-2.19-6.8v-.74a10.4,10.4,0,0,1,2.2-6.78,7.65,7.65,0,0,1,6.32-2.71,10.68,10.68,0,0,1,4.11.75,8.31,8.31,0,0,1,3,2.08l.16,4.22h-2.76l-.75-3a4.61,4.61,0,0,0-1.59-1,6.19,6.19,0,0,0-2.18-.37,4.17,4.17,0,0,0-3.89,2,9.24,9.24,0,0,0-1.17,4.81v.74a9.4,9.4,0,0,0,1.16,4.86A4.19,4.19,0,0,0,935.72,433.47Z"/><path d="M946.59,433.59l2.86-.49V419.51l-2.86-.49v-2.23h6.33V433.1l2.86.49v2.22h-9.19Zm6.33-21.67h-3.47v-3.53h3.47Z"/><path d="M958.43,426.12a10.49,10.49,0,0,1,2.29-6.95,8.46,8.46,0,0,1,12.44,0,10.44,10.44,0,0,1,2.29,7v.39a10.42,10.42,0,0,1-2.28,7,8.49,8.49,0,0,1-12.45,0,10.45,10.45,0,0,1-2.29-6.95Zm3.47.39a9,9,0,0,0,1.27,5,4.58,4.58,0,0,0,7.53,0,8.91,8.91,0,0,0,1.29-5v-.39a8.94,8.94,0,0,0-1.29-5,4.57,4.57,0,0,0-7.54,0,9.1,9.1,0,0,0-1.26,5Z"/><path d="M978.1,433.59l2.87-.49V419.51L978.1,419v-2.23h6l.25,2.83a6.94,6.94,0,0,1,2.38-2.35,6.42,6.42,0,0,1,3.26-.83,6.23,6.23,0,0,1,4.77,1.8c1.12,1.2,1.68,3.06,1.68,5.56v9.3l2.87.49v2.22h-9.19v-2.22l2.86-.49v-9.23a5.18,5.18,0,0,0-1-3.57,4,4,0,0,0-3-1.05,4.9,4.9,0,0,0-2.65.72,5.29,5.29,0,0,0-1.84,2V433.1l2.87.49v2.22h-9.2Z"/><path d="M1014.19,435.81c-.1-.52-.18-1-.24-1.39s-.1-.82-.13-1.23a8.09,8.09,0,0,1-2.5,2.13,7.16,7.16,0,0,1-7.73-.59,5.34,5.34,0,0,1-1.54-4.09,4.73,4.73,0,0,1,2.18-4.17,10.66,10.66,0,0,1,6-1.47h3.57v-2.22a3.43,3.43,0,0,0-1.06-2.64,4.15,4.15,0,0,0-2.93-1,7,7,0,0,0-2.3.34,4.25,4.25,0,0,0-1.61.91l-.37,2h-2.67v-3.69a10.45,10.45,0,0,1,3.15-1.66,12.35,12.35,0,0,1,4-.62,8,8,0,0,1,5.23,1.65,5.77,5.77,0,0,1,2,4.73V432c0,.24,0,.48,0,.72s0,.47,0,.7l1.41.19v2.22Zm-5.57-2.53a6.18,6.18,0,0,0,3.15-.83,5.13,5.13,0,0,0,2-2v-3.13h-3.7a5.23,5.23,0,0,0-3.36,1,3,3,0,0,0-1.24,2.39,2.39,2.39,0,0,0,.77,1.91A3.55,3.55,0,0,0,1008.62,433.28Z"/><path d="M1021.14,410.62v-2.23h6.32V433.1l2.87.49v2.22h-9.19v-2.22l2.86-.49v-22Z"/><path d="M1036.39,435.81h-2.49v-2.94h2.49Zm-.21-8.4h-2.09V410.22h2.09Z"/></g></svg>