<svg xmlns="http://www.w3.org/2000/svg" viewBox="0 0 668.69 350.06"><defs><style>.cls-1{fill:#fff;opacity:0.65;}.cls-2{fill:#027e8e;}.cls-3{fill:#564646;}.cls-4{fill:#a2a2a2;}.cls-5{fill:#777572;}.cls-6{fill:#f8c186;}.cls-7{fill:#909090;}.cls-8{fill:#b4b4b4;}</style></defs><title>I1-pilares</title><g id="Camada_2" data-name="Camada 2"><g id="Camada_1-2" data-name="Camada 1"><ellipse class="cls-1" cx="334.34" cy="175.03" rx="334.34" ry="175.03"/><path class="cls-2" d="M23.78,36.72l1-.15,4.43-12.66h3l4.4,12.66,1,.15v1.76h-5V36.72l1-.18-.61-2H28.37l-.64,2,1,.18v1.76h-5Zm5.28-4.33H32.4l-1.64-5.12H30.7Z"/><path class="cls-2" d="M49.16,33.37a6.36,6.36,0,0,1-1.07,3.88A3.68,3.68,0,0,1,45,38.7a3.31,3.31,0,0,1-1.6-.41,3.39,3.39,0,0,1-1.18-1.14L42,38.48H39.41V24.94l-1.55-.3V22.87h4.46v6a3.33,3.33,0,0,1,1.12-1A3.16,3.16,0,0,1,45,27.5a3.58,3.58,0,0,1,3.14,1.55,7.23,7.23,0,0,1,1.07,4.1Zm-2.91-.22a5.67,5.67,0,0,0-.46-2.5,1.64,1.64,0,0,0-1.58-.93,2.21,2.21,0,0,0-1.15.29,2,2,0,0,0-.73.81V35.4a1.87,1.87,0,0,0,.74.76,2.38,2.38,0,0,0,1.14.23,1.71,1.71,0,0,0,1.58-.79,4.58,4.58,0,0,0,.44-2.25Z"/><path class="cls-2" d="M59.34,31.38h-2L57.07,30a2.71,2.71,0,0,0-.75-.4,2.94,2.94,0,0,0-1-.15,1.91,1.91,0,0,0-1.22.34,1,1,0,0,0-.45.85,1,1,0,0,0,.44.85,4.46,4.46,0,0,0,1.7.58,7.23,7.23,0,0,1,3,1.17,2.59,2.59,0,0,1,1,2.14,2.87,2.87,0,0,1-1.25,2.39,5.53,5.53,0,0,1-3.3.92,6.93,6.93,0,0,1-2.3-.37A5.85,5.85,0,0,1,51,37.25V34.82h2l.4,1.4a1.56,1.56,0,0,0,.7.33,4.31,4.31,0,0,0,.94.11,2.37,2.37,0,0,0,1.33-.27,1,1,0,0,0,.46-.85,1,1,0,0,0-.46-.85,5,5,0,0,0-1.71-.62,6.85,6.85,0,0,1-2.88-1.16,2.49,2.49,0,0,1-1-2.08A3,3,0,0,1,52,28.46a4.69,4.69,0,0,1,3.19-1,8.4,8.4,0,0,1,2.38.34,5.15,5.15,0,0,1,1.76.86Z"/><path class="cls-2" d="M65.36,25v2.65h1.89v2.05H65.36v5.51a1.24,1.24,0,0,0,.26.89.92.92,0,0,0,.7.28h.52a3.67,3.67,0,0,0,.51-.09l.25,2.11a6.48,6.48,0,0,1-1,.22,7.17,7.17,0,0,1-1,.08,3.11,3.11,0,0,1-2.33-.86,3.67,3.67,0,0,1-.85-2.62V29.71H60.86V27.66h1.59V25Z"/><path class="cls-2" d="M69,36.72l1.36-.33V29.71l-1.55-.29V27.66H73l.13,1.58a3.36,3.36,0,0,1,1-1.32,2.26,2.26,0,0,1,1.39-.47H76a3.15,3.15,0,0,1,.42.09l-.31,2.66h-1.2a2.06,2.06,0,0,0-1.06.26,1.52,1.52,0,0,0-.64.71v5.22l1.4.3v1.76H69Z"/><path class="cls-2" d="M84,38.48c-.07-.19-.14-.37-.2-.56a5.47,5.47,0,0,1-.15-.58,3.84,3.84,0,0,1-1.26,1,3.74,3.74,0,0,1-1.71.37,3.62,3.62,0,0,1-2.56-.85,3.1,3.1,0,0,1-.93-2.36,2.7,2.7,0,0,1,1.22-2.35A6.42,6.42,0,0,1,82,32.27h1.49V31.22A1.62,1.62,0,0,0,83,30a1.89,1.89,0,0,0-1.27-.44,3,3,0,0,0-.85.11,2.42,2.42,0,0,0-.64.27L80,31.13H77.82V28.72a8.13,8.13,0,0,1,1.84-.86,6.65,6.65,0,0,1,2.26-.37,5.13,5.13,0,0,1,3.24,1,3.35,3.35,0,0,1,1.27,2.84v4.9a2.94,2.94,0,0,0,0,.42l.86.12v1.76Zm-2.56-2a2.49,2.49,0,0,0,1.2-.28,2.36,2.36,0,0,0,.85-.72V33.84H82a2,2,0,0,0-1.4.43,1.37,1.37,0,0,0-.48,1,1.1,1.1,0,0,0,.35.85,1.43,1.43,0,0,0,1,.35Z"/><path class="cls-2" d="M93.44,36.45A1.71,1.71,0,0,0,94.68,36a1.62,1.62,0,0,0,.47-1.22h2.64v.06a3.42,3.42,0,0,1-1.23,2.75,5.2,5.2,0,0,1-6.89-.43,5.83,5.83,0,0,1-1.31-3.93v-.3A5.67,5.67,0,0,1,89.71,29a4.78,4.78,0,0,1,3.83-1.55,6.44,6.44,0,0,1,2.34.4A4.49,4.49,0,0,1,97.59,29v2.88H95.22l-.48-1.71a2.23,2.23,0,0,0-.54-.31,2.28,2.28,0,0,0-.73-.12,1.86,1.86,0,0,0-1.71.89,4.81,4.81,0,0,0-.51,2.33v.29a5.09,5.09,0,0,0,.47,2.34A1.72,1.72,0,0,0,93.44,36.45Zm.85,2-.11.58a1.9,1.9,0,0,1,1.07.52,1.57,1.57,0,0,1,.43,1.2,2,2,0,0,1-.91,1.7,4.43,4.43,0,0,1-2.56.64l-.11-1.56a1.33,1.33,0,0,0,.8-.2.71.71,0,0,0,.31-.62.6.6,0,0,0-.33-.58,3.17,3.17,0,0,0-1.1-.22l.32-1.41Z"/><path class="cls-2" d="M106,38.48c-.08-.19-.15-.37-.22-.56a5.43,5.43,0,0,1-.13-.58,3.84,3.84,0,0,1-1.26,1,3.77,3.77,0,0,1-1.71.37,3.62,3.62,0,0,1-2.56-.85,3.1,3.1,0,0,1-.93-2.36,2.66,2.66,0,0,1,1.3-2.36,6.37,6.37,0,0,1,3.57-.85h1.49v-1a1.58,1.58,0,0,0-.45-1.21,1.88,1.88,0,0,0-1.33-.42,2.72,2.72,0,0,0-.85.11,2.35,2.35,0,0,0-.63.27l-.19,1.16h-2.2V28.72a7.76,7.76,0,0,1,1.76-.86,6.7,6.7,0,0,1,2.26-.37,5,5,0,0,1,3.26,1,3.34,3.34,0,0,1,1.26,2.8v4.9a1.48,1.48,0,0,0,0,.42l.85.12v1.76Zm1.86-15.12a2.39,2.39,0,0,1-.6,1.63,1.87,1.87,0,0,1-1.5.67,3.66,3.66,0,0,1-1.59-.43,3.43,3.43,0,0,0-1.4-.44.71.71,0,0,0-.6.34,1.18,1.18,0,0,0-.25.76l-1.55-.42a2.42,2.42,0,0,1,.59-1.62,1.87,1.87,0,0,1,1.5-.7,4.08,4.08,0,0,1,1.52.43,4,4,0,0,0,1.47.44.78.78,0,0,0,.61-.32,1.33,1.33,0,0,0,.25-.79ZM103.5,36.52a2.49,2.49,0,0,0,1.2-.28,2.56,2.56,0,0,0,.85-.72V33.84h-1.49a2,2,0,0,0-1.41.43,1.37,1.37,0,0,0-.48,1,1.1,1.1,0,0,0,.35.85A1.41,1.41,0,0,0,103.5,36.52Z"/><path class="cls-2" d="M110.39,33a5.77,5.77,0,0,1,1.35-4,5.32,5.32,0,0,1,7.5,0,5.73,5.73,0,0,1,1.36,4v.21a5.82,5.82,0,0,1-1.31,4,5.36,5.36,0,0,1-7.5,0,5.78,5.78,0,0,1-1.36-4Zm2.92.21a4.6,4.6,0,0,0,.52,2.35,1.81,1.81,0,0,0,1.7.9,1.79,1.79,0,0,0,1.63-.9,4.66,4.66,0,0,0,.53-2.37V33a4.57,4.57,0,0,0-.54-2.35,2,2,0,0,0-2.73-.59,1.85,1.85,0,0,0-.59.59,4.81,4.81,0,0,0-.52,2.35Z"/><path class="cls-2" d="M182.94,23.91a6,6,0,0,1,4.4,1.71A5.86,5.86,0,0,1,189,30v2.4a5.86,5.86,0,0,1-1.7,4.38,6,6,0,0,1-4.4,1.7h-6.55V36.72l1.55-.3V26l-1.55-.3V23.91Zm-2.08,2.25V36.22h1.93a3,3,0,0,0,2.46-1,4.16,4.16,0,0,0,.85-2.78V30a4.13,4.13,0,0,0-.85-2.75,3,3,0,0,0-2.46-1.06Z"/><path class="cls-2" d="M195.75,38.68a4.86,4.86,0,0,1-3.75-1.5,5.44,5.44,0,0,1-1.4-3.81V33a5.88,5.88,0,0,1,1.34-4,4.93,4.93,0,0,1,6.95-.24,5.11,5.11,0,0,1,1.2,3.57V34h-6.46V34a2.77,2.77,0,0,0,.72,1.75,2.19,2.19,0,0,0,1.71.69,5.5,5.5,0,0,0,1.61-.19,7.28,7.28,0,0,0,1.4-.62l.78,1.8a5.68,5.68,0,0,1-1.7.86A7.3,7.3,0,0,1,195.75,38.68Zm-.27-9a1.53,1.53,0,0,0-1.28.61,3.37,3.37,0,0,0-.58,1.63V32h3.58v-.25a2.34,2.34,0,0,0-.44-1.49A1.56,1.56,0,0,0,195.48,29.71Z"/><path class="cls-2" d="M206.55,36.45A1.73,1.73,0,0,0,207.8,36a1.58,1.58,0,0,0,.47-1.22h2.64v.06a3.41,3.41,0,0,1-1.2,2.75,5.2,5.2,0,0,1-6.89-.43,5.82,5.82,0,0,1-1.3-3.93v-.3A5.66,5.66,0,0,1,202.86,29a4.79,4.79,0,0,1,3.83-1.55,6.49,6.49,0,0,1,2.35.4,4.57,4.57,0,0,1,1.71,1.1v2.88h-2.37l-.48-1.71a2.29,2.29,0,0,0-.55-.31,2.22,2.22,0,0,0-.72-.12,1.84,1.84,0,0,0-1.75.89,4.6,4.6,0,0,0-.51,2.33v.29a5,5,0,0,0,.46,2.34A1.73,1.73,0,0,0,206.55,36.45Z"/><path class="cls-2" d="M212.27,33a5.77,5.77,0,0,1,1.35-4,5.32,5.32,0,0,1,7.5,0,5.74,5.74,0,0,1,1.39,4v.21a5.76,5.76,0,0,1-1.36,4,5.33,5.33,0,0,1-7.49,0,5.77,5.77,0,0,1-1.39-4Zm2.92.21a4.69,4.69,0,0,0,.5,2.35,2,2,0,0,0,3.34,0,4.56,4.56,0,0,0,.53-2.37V33a4.66,4.66,0,0,0-.53-2.35,1.8,1.8,0,0,0-1.71-.91,1.76,1.76,0,0,0-1.63.89,4.61,4.61,0,0,0-.52,2.36Z"/><path class="cls-2" d="M223.36,29.42V27.66h4.27l.12,1.42a3.74,3.74,0,0,1,1.34-1.22,3.81,3.81,0,0,1,1.82-.42,3.29,3.29,0,0,1,1.78.46,2.89,2.89,0,0,1,1.12,1.39,3.74,3.74,0,0,1,1.29-1.36,3.49,3.49,0,0,1,1.89-.49,3,3,0,0,1,2.51,1.11,5.07,5.07,0,0,1,.93,3.37v4.47l1.4.3v1.76h-5.58V36.72l1.26-.3v-4.5a2.84,2.84,0,0,0-.4-1.71,1.51,1.51,0,0,0-1.2-.48,2.13,2.13,0,0,0-1.07.27,2.34,2.34,0,0,0-.73.77v5.62l1.18.3v1.76H230V36.72l1.18-.3v-4.5a2.71,2.71,0,0,0-.4-1.71,1.47,1.47,0,0,0-1.2-.5,2.29,2.29,0,0,0-1,.24,1.88,1.88,0,0,0-.74.63v5.81l1.27.3v1.76h-5.58V36.72l1.41-.3V29.71Z"/><path class="cls-2" d="M242.57,29.42V27.66h4.26l.15,1.25a3.41,3.41,0,0,1,1.12-1.05,3.13,3.13,0,0,1,1.56-.38,3.59,3.59,0,0,1,3.12,1.57,7,7,0,0,1,1.11,4.13v.21a6.19,6.19,0,0,1-1.11,3.86,3.71,3.71,0,0,1-3.1,1.46,3.45,3.45,0,0,1-1.51-.32,3,3,0,0,1-1.13-.92v3.1l1.41.3v1.76h-5.73V40.87l1.41-.3V29.71ZM251,33.15a5.19,5.19,0,0,0-.51-2.48,1.71,1.71,0,0,0-1.56-1,2.26,2.26,0,0,0-1.13.28,1.91,1.91,0,0,0-.73.76v4.78a1.82,1.82,0,0,0,.73.7,2.56,2.56,0,0,0,1.15.24,1.71,1.71,0,0,0,1.56-.85,4.39,4.39,0,0,0,.49-2.25Z"/><path class="cls-2" d="M255.18,33a5.77,5.77,0,0,1,1.35-4,5.32,5.32,0,0,1,7.5,0,5.73,5.73,0,0,1,1.36,4v.21a5.76,5.76,0,0,1-1.36,4,5.34,5.34,0,0,1-7.5,0,5.75,5.75,0,0,1-1.35-4Zm2.92.21a4.71,4.71,0,0,0,.52,2.38,1.8,1.8,0,0,0,1.71.89,1.76,1.76,0,0,0,1.62-.92,4.76,4.76,0,0,0,.53-2.37V33a4.66,4.66,0,0,0-.53-2.35,1.81,1.81,0,0,0-1.71-.91,1.76,1.76,0,0,0-1.65.91,4.58,4.58,0,0,0-.52,2.35Z"/><path class="cls-2" d="M275.48,31.38h-2L273.21,30a2.71,2.71,0,0,0-.75-.4,3.09,3.09,0,0,0-1-.15,1.91,1.91,0,0,0-1.22.34,1,1,0,0,0-.44.85.93.93,0,0,0,.43.85,4.46,4.46,0,0,0,1.7.58,7.18,7.18,0,0,1,3,1.17,2.57,2.57,0,0,1,1,2.14,2.87,2.87,0,0,1-1.25,2.39,5.51,5.51,0,0,1-3.3.92,6.93,6.93,0,0,1-2.3-.37,5.71,5.71,0,0,1-1.84-1.09V34.82h2l.4,1.4a1.55,1.55,0,0,0,.71.33,4.17,4.17,0,0,0,.94.11,2.35,2.35,0,0,0,1.32-.27,1,1,0,0,0,.47-.85,1,1,0,0,0-.47-.85,5,5,0,0,0-1.71-.62A6.9,6.9,0,0,1,268,32.91a2.48,2.48,0,0,1-1-2.08,3,3,0,0,1,1.11-2.34,4.61,4.61,0,0,1,3.19-1,8.3,8.3,0,0,1,2.38.34,5.27,5.27,0,0,1,1.77.85Z"/><path class="cls-2" d="M277.11,36.72l1.42-.3V29.71L277,29.42V27.66h4.48v8.73l1.4.3v1.76h-5.73Zm4.33-11.65h-2.91v-2.2h2.91Z"/><path class="cls-2" d="M288.87,36.45a1.75,1.75,0,0,0,1.25-.46,1.62,1.62,0,0,0,.47-1.22h2.64v.06A3.39,3.39,0,0,1,292,37.58a5.2,5.2,0,0,1-6.88-.43,5.78,5.78,0,0,1-1.31-3.93v-.3A5.71,5.71,0,0,1,285.15,29a4.81,4.81,0,0,1,3.9-1.55,6.49,6.49,0,0,1,2.35.4,4.57,4.57,0,0,1,1.71,1.1v2.88h-2.35l-.48-1.71a2.05,2.05,0,0,0-.54-.31,2.24,2.24,0,0,0-.73-.12,1.84,1.84,0,0,0-1.75.89,4.7,4.7,0,0,0-.51,2.33v.29a5.09,5.09,0,0,0,.47,2.34A1.72,1.72,0,0,0,288.87,36.45Zm.86,2-.11.58a1.93,1.93,0,0,1,1.07.52,1.61,1.61,0,0,1,.43,1.2,2,2,0,0,1-.92,1.7,4.42,4.42,0,0,1-2.55.64l-.12-1.56a1.39,1.39,0,0,0,.82-.2.69.69,0,0,0,.29-.62.59.59,0,0,0-.32-.58,3.17,3.17,0,0,0-1.1-.22l.31-1.41Z"/><path class="cls-2" d="M301.47,38.48c-.08-.19-.15-.37-.21-.56a3.77,3.77,0,0,1-.14-.58,3.78,3.78,0,0,1-1.27,1,3.7,3.7,0,0,1-1.7.37,3.62,3.62,0,0,1-2.56-.85,3,3,0,0,1-.93-2.36,2.66,2.66,0,0,1,1.22-2.36,6.37,6.37,0,0,1,3.57-.85H301v-1a1.63,1.63,0,0,0-.46-1.21,1.87,1.87,0,0,0-1.33-.42,2.76,2.76,0,0,0-.85.11,2.5,2.5,0,0,0-.63.27l-.19,1.16h-2.2V28.72a8,8,0,0,1,1.79-.86,6.68,6.68,0,0,1,2.25-.37,5,5,0,0,1,3.27,1,3.34,3.34,0,0,1,1.26,2.8v4.9a1.48,1.48,0,0,0,0,.42l.85.12v1.76Zm1.86-15.12a2.39,2.39,0,0,1-.6,1.63,1.89,1.89,0,0,1-1.5.67,3.66,3.66,0,0,1-1.59-.43,3.48,3.48,0,0,0-1.4-.44.74.74,0,0,0-.6.34,1.18,1.18,0,0,0-.25.76l-1.51-.42a2.38,2.38,0,0,1,.6-1.62,1.84,1.84,0,0,1,1.49-.7,4.08,4.08,0,0,1,1.52.43A4,4,0,0,0,301,24a.78.78,0,0,0,.61-.32,1.26,1.26,0,0,0,.25-.79Zm-4.39,13.16a2.43,2.43,0,0,0,1.19-.28,2.39,2.39,0,0,0,.86-.72V33.84H299.5a2,2,0,0,0-1.41.43,1.34,1.34,0,0,0-.48,1,1.1,1.1,0,0,0,.35.85,1.41,1.41,0,0,0,1,.35Z"/><path class="cls-2" d="M305.83,33a5.77,5.77,0,0,1,1.35-4,5.32,5.32,0,0,1,7.5,0A5.78,5.78,0,0,1,316,33v.21a5.81,5.81,0,0,1-1.39,4,5.36,5.36,0,0,1-7.5,0,5.78,5.78,0,0,1-1.36-4Zm2.91.21a4.93,4.93,0,0,0,.52,2.38,1.81,1.81,0,0,0,1.71.89,1.77,1.77,0,0,0,1.63-.92,4.76,4.76,0,0,0,.53-2.37V33a4.57,4.57,0,0,0-.54-2.35,2,2,0,0,0-2.74-.59,2.07,2.07,0,0,0-.59.59,4.81,4.81,0,0,0-.52,2.35Z"/><path class="cls-2" d="M348.05,9.28a6,6,0,0,1,3.89,1.14,3.78,3.78,0,0,1,1.4,3.13,3.13,3.13,0,0,1-.59,1.91,4.05,4.05,0,0,1-1.7,1.31A3.15,3.15,0,0,1,352.91,18a4,4,0,0,1,.56,2.19V21a1.21,1.21,0,0,0,.19.74.85.85,0,0,0,.63.32l.36,0v1.76h-1.51a2.39,2.39,0,0,1-2-.77,3.27,3.27,0,0,1-.58-2v-.85a2.32,2.32,0,0,0-.56-1.71,2.16,2.16,0,0,0-1.59-.63H346v3.84l1.55.3v1.75h-6V22.09l1.54-.3V11.34l-1.54-.3V9.28h6.51ZM346,15.7h2a2.8,2.8,0,0,0,1.84-.52,1.89,1.89,0,0,0,.65-1.5,2,2,0,0,0-.61-1.56,2.4,2.4,0,0,0-1.78-.58H346Z"/><path class="cls-2" d="M360.83,24.05a4.85,4.85,0,0,1-3.73-1.5,5.32,5.32,0,0,1-1.4-3.81v-.4a5.9,5.9,0,0,1,1.32-4,4.94,4.94,0,0,1,7-.23,5.06,5.06,0,0,1,1.21,3.57v1.62h-6.45v.06a2.87,2.87,0,0,0,.71,1.76,2.22,2.22,0,0,0,1.71.69,5.16,5.16,0,0,0,1.61-.2,7,7,0,0,0,1.37-.6l.79,1.8a5.81,5.81,0,0,1-1.71.89A7.09,7.09,0,0,1,360.83,24.05Zm-.25-9a1.49,1.49,0,0,0-1.28.62,3.18,3.18,0,0,0-.58,1.63v.05h3.58v-.26a2.39,2.39,0,0,0-.43-1.49A1.59,1.59,0,0,0,360.58,15.07Z"/><path class="cls-2" d="M371.64,21.81a1.71,1.71,0,0,0,1.25-.46,1.61,1.61,0,0,0,.47-1.21H376v.06a3.39,3.39,0,0,1-1.23,2.74,5.16,5.16,0,0,1-6.88-.43,5.76,5.76,0,0,1-1.32-3.92v-.3a5.81,5.81,0,0,1,1.35-3.93,4.82,4.82,0,0,1,3.88-1.54,6.76,6.76,0,0,1,2.36.39,4.78,4.78,0,0,1,1.71,1.1l0,2.89h-2.4L373,15.49a1.89,1.89,0,0,0-.53-.31,1.87,1.87,0,0,0-.7-.11,1.84,1.84,0,0,0-1.74.9,4.7,4.7,0,0,0-.52,2.32v.3a5.1,5.1,0,0,0,.48,2.34A1.72,1.72,0,0,0,371.64,21.81Z"/><path class="cls-2" d="M377.35,18.33a5.71,5.71,0,0,1,1.36-4,5.31,5.31,0,0,1,7.49,0,5.79,5.79,0,0,1,1.35,4v.22a5.72,5.72,0,0,1-1.35,4,5.33,5.33,0,0,1-7.49,0,5.74,5.74,0,0,1-1.36-4Zm2.92.21a4.65,4.65,0,0,0,.52,2.37,2,2,0,0,0,2.76.57,1.94,1.94,0,0,0,.57-.57,4.65,4.65,0,0,0,.52-2.37v-.21a4.46,4.46,0,0,0-.53-2.35,2,2,0,0,0-2.72-.61,2.05,2.05,0,0,0-.6.61,4.76,4.76,0,0,0-.52,2.35Z"/><path class="cls-2" d="M388.67,22.09l1.4-.3V15.07l-1.55-.31V13h4.26l.14,1.55a4,4,0,0,1,1.32-1.29,3.45,3.45,0,0,1,1.78-.46,3.24,3.24,0,0,1,2.55,1,4.8,4.8,0,0,1,.93,3.23v4.71l1.4.3v1.75h-5.58V22.09l1.24-.3v-4.7a2.27,2.27,0,0,0-.43-1.55,1.81,1.81,0,0,0-1.29-.47,2.2,2.2,0,0,0-1,.23A2.14,2.14,0,0,0,393,16v5.8l1.18.3v1.75h-5.5Z"/><path class="cls-2" d="M401.66,22.09l1.41-.3V10.3l-1.56-.3V8.24H406V14.4a3.78,3.78,0,0,1,1.25-1.17,3.64,3.64,0,0,1,4.27.72,5.18,5.18,0,0,1,1,3.47v4.37l1.4.3v1.75h-5.54V22.09l1.26-.3V17.4a2.82,2.82,0,0,0-.44-1.79,1.68,1.68,0,0,0-1.33-.54,2.18,2.18,0,0,0-1.06.22,2.09,2.09,0,0,0-.77.61v5.86l1.26.3v1.75h-5.58Z"/><path class="cls-2" d="M419.92,24.05a4.85,4.85,0,0,1-3.75-1.5,5.32,5.32,0,0,1-1.4-3.81v-.4a5.9,5.9,0,0,1,1.32-4,4.94,4.94,0,0,1,7-.23,5.06,5.06,0,0,1,1.21,3.57v1.62H417.8v.06a2.73,2.73,0,0,0,.71,1.76,2.21,2.21,0,0,0,1.71.69,5.16,5.16,0,0,0,1.61-.2,7,7,0,0,0,1.4-.61l.78,1.8a5.78,5.78,0,0,1-1.7.9A7.75,7.75,0,0,1,419.92,24.05Zm-.27-9a1.51,1.51,0,0,0-1.27.62,3.18,3.18,0,0,0-.58,1.63v.05h3.57v-.26a2.34,2.34,0,0,0-.44-1.49A1.56,1.56,0,0,0,419.65,15.07Z"/><path class="cls-2" d="M430.73,21.81a1.67,1.67,0,0,0,1.24-.46,1.61,1.61,0,0,0,.47-1.21h2.65v.06a3.42,3.42,0,0,1-1.23,2.74,5.18,5.18,0,0,1-6.89-.43,5.8,5.8,0,0,1-1.31-3.92v-.3A5.81,5.81,0,0,1,427,14.36a4.85,4.85,0,0,1,3.83-1.54,6.74,6.74,0,0,1,2.35.39,4.66,4.66,0,0,1,1.7,1.1l0,2.89h-2.37l-.48-1.71a1.89,1.89,0,0,0-.53-.31,2.1,2.1,0,0,0-.74-.13,1.87,1.87,0,0,0-1.75.9,4.8,4.8,0,0,0-.51,2.32v.3a5.09,5.09,0,0,0,.47,2.34A1.72,1.72,0,0,0,430.73,21.81Z"/><path class="cls-2" d="M436.34,22.09l1.41-.3V15.07l-1.55-.31V13h4.48v8.77l1.39.3v1.75h-5.73Zm4.34-11.66h-2.93V8.24h2.93Z"/><path class="cls-2" d="M442.69,14.78V13H447l.12,1.43a3.59,3.59,0,0,1,1.31-1.2,3.69,3.69,0,0,1,1.81-.43,3.29,3.29,0,0,1,1.78.46,2.78,2.78,0,0,1,1.12,1.39,3.69,3.69,0,0,1,1.3-1.36,3.64,3.64,0,0,1,1.88-.49,3.16,3.16,0,0,1,2.56,1.1,5.2,5.2,0,0,1,.92,3.37v4.5l1.41.3v1.75h-5.59V22.09l1.26-.3V17.28a2.71,2.71,0,0,0-.4-1.71,1.43,1.43,0,0,0-1.21-.5,1.9,1.9,0,0,0-1.07.27,1.93,1.93,0,0,0-.73.77v5.65l1.18.3v1.75h-5.25V22.09l1.18-.3V17.28a2.71,2.71,0,0,0-.4-1.71,1.41,1.41,0,0,0-1.2-.49,2.34,2.34,0,0,0-1,.22,2,2,0,0,0-.73.64v5.83l1.26.3v1.75h-5.58V22.09l1.41-.3V15.07Z"/><path class="cls-2" d="M467.16,24.05a4.86,4.86,0,0,1-3.74-1.5,5.37,5.37,0,0,1-1.4-3.81v-.4a5.9,5.9,0,0,1,1.32-4,5,5,0,0,1,7-.23,5.15,5.15,0,0,1,1.21,3.57v1.62h-6.46v.06a2.82,2.82,0,0,0,.72,1.76,2.18,2.18,0,0,0,1.7.69,5.12,5.12,0,0,0,1.61-.2,7,7,0,0,0,1.4-.61l.8,1.8a6.22,6.22,0,0,1-1.71.9A7.3,7.3,0,0,1,467.16,24.05Zm-.27-9a1.54,1.54,0,0,0-1.28.62,3.26,3.26,0,0,0-.57,1.63v.05h3.58v-.26a2.39,2.39,0,0,0-.41-1.49A1.59,1.59,0,0,0,466.89,15.07Z"/><path class="cls-2" d="M472.73,22.09l1.4-.3V15.07l-1.56-.31V13h4.27l.13,1.55a3.91,3.91,0,0,1,1.33-1.29,3.38,3.38,0,0,1,1.76-.46,3.25,3.25,0,0,1,2.56,1,4.72,4.72,0,0,1,.94,3.23v4.71l1.4.3v1.75h-5.58V22.09l1.25-.3v-4.7a2.23,2.23,0,0,0-.48-1.55,1.82,1.82,0,0,0-1.3-.47A2.14,2.14,0,0,0,477,16v5.8l1.18.3v1.75h-5.49Z"/><path class="cls-2" d="M490.19,10.37V13h1.9v2.05h-1.9v5.51a1.28,1.28,0,0,0,.26.9,1,1,0,0,0,.7.27,4.51,4.51,0,0,0,.52,0l.51-.09.24,2.12a9.6,9.6,0,0,1-1,.22,7.17,7.17,0,0,1-1,.08,3.11,3.11,0,0,1-2.33-.86,3.66,3.66,0,0,1-.81-2.62V15.07h-1.59V13h1.59V10.37Z"/><path class="cls-2" d="M493.22,18.33a5.75,5.75,0,0,1,1.35-4,5.32,5.32,0,0,1,7.5,0,5.78,5.78,0,0,1,1.36,4v.22a5.74,5.74,0,0,1-1.36,4,5.34,5.34,0,0,1-7.5,0,5.78,5.78,0,0,1-1.35-4Zm2.92.21a4.65,4.65,0,0,0,.52,2.37,2,2,0,0,0,2.76.57,1.94,1.94,0,0,0,.57-.57,4.66,4.66,0,0,0,.53-2.37v-.21A4.57,4.57,0,0,0,500,16a2,2,0,0,0-2.72-.61,2.05,2.05,0,0,0-.6.61,4.66,4.66,0,0,0-.52,2.35Z"/><path class="cls-2" d="M377.61,47.09a3.57,3.57,0,0,1-1.21,1.14,3.22,3.22,0,0,1-1.58.39,3.66,3.66,0,0,1-3.11-1.46,6.25,6.25,0,0,1-1.1-3.86v-.21A7,7,0,0,1,371.72,39a3.59,3.59,0,0,1,3.11-1.57,3.21,3.21,0,0,1,1.46.35,3.57,3.57,0,0,1,1.14,1V34.87l-1.56-.3V32.81h4.47V46.36l1.39.3v1.7h-3.92Zm-4.1-3.79a4.42,4.42,0,0,0,.47,2.23,1.67,1.67,0,0,0,1.56.85,2.07,2.07,0,0,0,1.88-1V40.75a2.18,2.18,0,0,0-.77-.85,2.09,2.09,0,0,0-1.09-.28,1.62,1.62,0,0,0-1.56,1,5.4,5.4,0,0,0-.49,2.48Z"/><path class="cls-2" d="M387.86,48.62a4.87,4.87,0,0,1-3.74-1.5,5.39,5.39,0,0,1-1.4-3.81v-.4a6,6,0,0,1,1.33-4,5,5,0,0,1,7-.23,5.2,5.2,0,0,1,1.21,3.58v1.58h-6.46v.06a2.79,2.79,0,0,0,.71,1.76,2.18,2.18,0,0,0,1.7.69,5.42,5.42,0,0,0,1.61-.19,7.56,7.56,0,0,0,1.4-.62l.79,1.8a5.73,5.73,0,0,1-1.71.86A7.28,7.28,0,0,1,387.86,48.62Zm-.26-9a1.51,1.51,0,0,0-1.28.62,3.18,3.18,0,0,0-.58,1.63v0h3.59v-.26a2.31,2.31,0,0,0-.44-1.48,1.54,1.54,0,0,0-1.29-.56Z"/><path class="cls-2" d="M398.39,39.35V37.59h4.26l.15,1.26a3.47,3.47,0,0,1,1.14-1.08,3.16,3.16,0,0,1,1.56-.38A3.63,3.63,0,0,1,408.6,39a7,7,0,0,1,1.11,4.13v.21a6.32,6.32,0,0,1-1.11,3.86,3.66,3.66,0,0,1-3.11,1.46A3.59,3.59,0,0,1,404,48.3a3.25,3.25,0,0,1-1.12-.93V50.5l1.4.29V52.6h-5.72V50.8l1.41-.3V39.65Zm8.39,3.74a5.17,5.17,0,0,0-.51-2.48,1.71,1.71,0,0,0-1.56-1,2.25,2.25,0,0,0-1.13.27,1.93,1.93,0,0,0-.73.77v4.74a1.82,1.82,0,0,0,.73.7,2.53,2.53,0,0,0,1.15.24,1.71,1.71,0,0,0,1.56-.86,4.39,4.39,0,0,0,.49-2.25Z"/><path class="cls-2" d="M417.87,48.41a5.37,5.37,0,0,1-.21-.56,3.65,3.65,0,0,1-.14-.57,3.88,3.88,0,0,1-1.27,1,3.72,3.72,0,0,1-1.71.38,3.54,3.54,0,0,1-2.51-.85,3,3,0,0,1-.94-2.36,2.68,2.68,0,0,1,1.22-2.34,6.33,6.33,0,0,1,3.58-.86h1.49V41.16a1.59,1.59,0,0,0-.45-1.21,1.84,1.84,0,0,0-1.33-.43,2.7,2.7,0,0,0-.89.12,2.35,2.35,0,0,0-.63.27l-.19,1.16h-2.2v-2.4a8.25,8.25,0,0,1,1.92-.91,6.6,6.6,0,0,1,2.25-.37,5.15,5.15,0,0,1,3.26,1,3.39,3.39,0,0,1,1.25,2.81v4.94a2.94,2.94,0,0,0,0,.42l.85.12v1.7Zm-2.56-1.95a2.43,2.43,0,0,0,1.21-.29,2.24,2.24,0,0,0,.85-.71V43.81h-1.49a2,2,0,0,0-1.41.43,1.39,1.39,0,0,0-.48,1,1,1,0,0,0,.36.86,1.42,1.42,0,0,0,1,.31Z"/><path class="cls-2" d="M429.29,47.09a3.48,3.48,0,0,1-1.18,1.14,3.11,3.11,0,0,1-1.58.39,3.65,3.65,0,0,1-3.1-1.46,6.19,6.19,0,0,1-1.11-3.86v-.21A7,7,0,0,1,423.43,39a3.62,3.62,0,0,1,3.12-1.57,3.21,3.21,0,0,1,1.46.35,3.79,3.79,0,0,1,1.14,1V34.87l-1.56-.3V32.81h4.48V46.36l1.4.3v1.7h-3.94Zm-4.08-3.79a4.33,4.33,0,0,0,.48,2.23,1.65,1.65,0,0,0,1.55.85,2.07,2.07,0,0,0,1.88-1V40.75a2.22,2.22,0,0,0-.76-.85,2.1,2.1,0,0,0-1.1-.28,1.63,1.63,0,0,0-1.56,1,5.53,5.53,0,0,0-.49,2.48Z"/><path class="cls-2" d="M434.59,46.63l1.4-.3V39.65l-1.55-.3V37.59h4.26l.14,1.58a3.51,3.51,0,0,1,1-1.31,2.2,2.2,0,0,1,1.39-.47h.49a3.29,3.29,0,0,1,.43.09l-.31,2.66h-1.2a2,2,0,0,0-1.06.25,1.69,1.69,0,0,0-.64.71v5.26l1.4.3v1.7h-5.72Z"/><path class="cls-2" d="M442.79,42.9A5.78,5.78,0,0,1,444.14,39a5.34,5.34,0,0,1,7.5,0,5.82,5.82,0,0,1,1.35,4v.2a5.77,5.77,0,0,1-1.35,4,5.36,5.36,0,0,1-7.5,0,5.82,5.82,0,0,1-1.35-4Zm8.75-9.63a2.41,2.41,0,0,1-.6,1.64,1.9,1.9,0,0,1-1.5.67,3.66,3.66,0,0,1-1.59-.43,3.33,3.33,0,0,0-1.41-.44.71.71,0,0,0-.59.33,1.13,1.13,0,0,0-.25.77l-1.55-.42a2.38,2.38,0,0,1,.59-1.63,1.9,1.9,0,0,1,1.5-.7,4,4,0,0,1,1.51.43,4,4,0,0,0,1.47.44.75.75,0,0,0,.61-.32,1.22,1.22,0,0,0,.25-.79Zm-5.83,9.84a4.65,4.65,0,0,0,.52,2.37,1.81,1.81,0,0,0,1.71.9,1.76,1.76,0,0,0,1.64-.9,4.66,4.66,0,0,0,.53-2.37V42.9a4.69,4.69,0,0,0-.53-2.35,1.8,1.8,0,0,0-1.7-.91,1.75,1.75,0,0,0-1.66.91,4.6,4.6,0,0,0-.52,2.35Z"/><path class="cls-2" d="M459.44,48.62a4.85,4.85,0,0,1-3.73-1.5,5.35,5.35,0,0,1-1.4-3.81v-.4a5.89,5.89,0,0,1,1.32-4,5,5,0,0,1,6.95-.23,5.1,5.1,0,0,1,1.21,3.58v1.58h-6.45v.06a2.77,2.77,0,0,0,.71,1.76,2.22,2.22,0,0,0,1.71.69,5.46,5.46,0,0,0,1.61-.19,7,7,0,0,0,1.4-.62l.79,1.8a5.68,5.68,0,0,1-1.7.86A7.38,7.38,0,0,1,459.44,48.62Zm-.26-9a1.51,1.51,0,0,0-1.28.62,3.37,3.37,0,0,0-.58,1.63v0h3.57v-.26a2.3,2.3,0,0,0-.43-1.48A1.54,1.54,0,0,0,459.18,39.64Z"/><path class="cls-2" d="M474,41.31h-2L471.73,40a2.71,2.71,0,0,0-.75-.4,3.18,3.18,0,0,0-1-.16,2,2,0,0,0-1.22.35,1,1,0,0,0-.45.85,1,1,0,0,0,.43.85,4.57,4.57,0,0,0,1.71.58,6.78,6.78,0,0,1,3,1.19,2.56,2.56,0,0,1,1,2.13,2.81,2.81,0,0,1-1.26,2.38,5.37,5.37,0,0,1-3.3.93,6.86,6.86,0,0,1-2.29-.36,5.81,5.81,0,0,1-1.86-1V44.82h2l.4,1.41a1.85,1.85,0,0,0,.71.33,4.81,4.81,0,0,0,.93.1,2.39,2.39,0,0,0,1.36-.32,1,1,0,0,0,.32-1.39,1.05,1.05,0,0,0-.32-.31,4.72,4.72,0,0,0-1.7-.63,6.9,6.9,0,0,1-2.93-1.18,2.55,2.55,0,0,1-1-2.09,3,3,0,0,1,1.11-2.34,4.73,4.73,0,0,1,3.19-1,8,8,0,0,1,2.39.34,5.27,5.27,0,0,1,1.77.85Z"/><path class="cls-2" d="M538.09,37.81l1-.15L543.56,25h3L551,37.66l1,.15v1.75h-5V37.81l1-.18-.64-2h-4.72l-.64,2,1,.18v1.75h-5Zm5.28-4.33h3.32l-1.64-5.12H545Z"/><path class="cls-2" d="M552.71,25.72V24h4.47V37.51l1.42.3v1.75h-5.74V37.81l1.41-.3V26Z"/><path class="cls-2" d="M559.73,34.24a7,7,0,0,1,1.11-4.12A3.6,3.6,0,0,1,564,28.55a3,3,0,0,1,1.59.4,3.73,3.73,0,0,1,1.19,1.15l.2-1.36h2.56v10.5a4.48,4.48,0,0,1-1.35,3.41,5.18,5.18,0,0,1-3.69,1.27,7.56,7.56,0,0,1-1.71-.22,8.43,8.43,0,0,1-1.7-.62l.53-2a10.14,10.14,0,0,0,1.41.47,5.27,5.27,0,0,0,1.48.18,1.89,1.89,0,0,0,1.59-.65,2.73,2.73,0,0,0,.54-1.81v-.71a3.27,3.27,0,0,1-1.15.94,3.3,3.3,0,0,1-1.49.32,3.66,3.66,0,0,1-3.1-1.46,6.26,6.26,0,0,1-1.12-3.86Zm2.91.21a4.54,4.54,0,0,0,.48,2.23,1.7,1.7,0,0,0,1.56.86,2.47,2.47,0,0,0,1.14-.25,1.85,1.85,0,0,0,.75-.72V31.84a2,2,0,0,0-.75-.76,2,2,0,0,0-1.11-.26,1.65,1.65,0,0,0-1.57.94,5.46,5.46,0,0,0-.5,2.48Z"/><path class="cls-2" d="M571.24,34.05a5.78,5.78,0,0,1,1.36-4,5.34,5.34,0,0,1,7.5,0,5.75,5.75,0,0,1,1.35,4v.21a5.77,5.77,0,0,1-1.35,4,5.36,5.36,0,0,1-7.5,0,5.78,5.78,0,0,1-1.36-4Zm2.92.21a4.75,4.75,0,0,0,.52,2.37,2,2,0,0,0,2.77.57,2.06,2.06,0,0,0,.57-.57,4.74,4.74,0,0,0,.53-2.37v-.21A4.67,4.67,0,0,0,578,31.7a2,2,0,0,0-2.72-.6,1.94,1.94,0,0,0-.61.6,4.79,4.79,0,0,0-.52,2.35Z"/><path class="cls-2" d="M582.94,37.81l1.4-.3V30.8l-1.55-.3V28.72h4.27l.13,1.57a3.37,3.37,0,0,1,1-1.3,2.18,2.18,0,0,1,1.39-.47h.49a2.1,2.1,0,0,1,.42.09l-.27,2.71H589a2.07,2.07,0,0,0-1.06.25,1.66,1.66,0,0,0-.64.7v5.27l1.4.3v1.75H583Z"/><path class="cls-2" d="M591.25,37.81l1.41-.3V30.8l-1.57-.3V28.72h4.48v8.79l1.4.3v1.75h-5.72Zm4.32-11.65h-2.91V24h2.91Z"/><path class="cls-2" d="M602.24,26.09v2.63h1.91v2h-1.91v5.52a1.38,1.38,0,0,0,.26.85.9.9,0,0,0,.71.27h.52l.5-.08.26,2.1a6.51,6.51,0,0,1-1,.23,6.15,6.15,0,0,1-1,.08,3.14,3.14,0,0,1-2.33-.85,3.65,3.65,0,0,1-.85-2.63V30.79h-1.58V28.72h1.58V26.09Z"/><path class="cls-2" d="M605.23,30.5V28.72h4.27l.12,1.43a3.51,3.51,0,0,1,1.3-1.21,3.79,3.79,0,0,1,1.81-.42,3.47,3.47,0,0,1,1.78.45,2.84,2.84,0,0,1,1.13,1.45,3.74,3.74,0,0,1,1.3-1.35,3.46,3.46,0,0,1,1.88-.49,3.1,3.1,0,0,1,2.56,1.1,5.22,5.22,0,0,1,.89,3.3v4.51l1.41.3v1.74h-5.59V37.81l1.26-.3V33a2.68,2.68,0,0,0-.4-1.7,1.42,1.42,0,0,0-1.19-.48,1.92,1.92,0,0,0-1.07.27,2,2,0,0,0-.73.76V37.5l1.18.29v1.75h-5.26V37.81l1.17-.3V33a2.6,2.6,0,0,0-.4-1.7,1.42,1.42,0,0,0-1.19-.5,2.32,2.32,0,0,0-1,.22,2.24,2.24,0,0,0-.74.63v5.85l1.27.3v1.75h-5.57V37.81l1.41-.3V30.8Z"/><path class="cls-2" d="M624.52,34.05a5.73,5.73,0,0,1,1.36-4,5.33,5.33,0,0,1,7.49,0,5.7,5.7,0,0,1,1.35,4v.21a5.72,5.72,0,0,1-1.35,4,5.35,5.35,0,0,1-7.49,0,5.78,5.78,0,0,1-1.36-4Zm2.92.21a4.65,4.65,0,0,0,.52,2.37,2,2,0,0,0,2.76.57,1.94,1.94,0,0,0,.57-.57,4.65,4.65,0,0,0,.52-2.37v-.21a4.46,4.46,0,0,0-.53-2.35,2,2,0,0,0-2.72-.6,1.91,1.91,0,0,0-.6.6,4.58,4.58,0,0,0-.52,2.35Z"/><path class="cls-2" d="M644.8,32.46h-2l-.31-1.35a2.71,2.71,0,0,0-.75-.4,3.18,3.18,0,0,0-1-.16,2,2,0,0,0-1.22.35,1,1,0,0,0-.45.85,1,1,0,0,0,.43.81,4.3,4.3,0,0,0,1.7.58,7,7,0,0,1,3,1.18,2.56,2.56,0,0,1,1,2.13,2.81,2.81,0,0,1-1.24,2.39,5.44,5.44,0,0,1-3.27,1,7.19,7.19,0,0,1-2.3-.37,6.24,6.24,0,0,1-1.86-1V36h2l.4,1.41a1.7,1.7,0,0,0,.71.32,4.23,4.23,0,0,0,.94.1,2.48,2.48,0,0,0,1.36-.31,1,1,0,0,0,.32-1.39,1.08,1.08,0,0,0-.32-.32,4.64,4.64,0,0,0-1.71-.62A7.16,7.16,0,0,1,637.37,34a2.59,2.59,0,0,1-1-2.09,3.07,3.07,0,0,1,1.06-2.35,4.67,4.67,0,0,1,3.19-1,8,8,0,0,1,2.39.34,4.92,4.92,0,0,1,1.77.85Z"/><ellipse class="cls-3" cx="334.34" cy="328.26" rx="331.93" ry="18.63"/><rect class="cls-4" x="35.95" y="84.47" width="77.56" height="211.62"/><rect class="cls-5" x="35.95" y="84.47" width="77.56" height="23.03"/><path class="cls-4" d="M116.56,63.69H32.88A18.94,18.94,0,0,0,14,82.59h0a18.92,18.92,0,0,0,18.92,18.92h83.72a18.92,18.92,0,0,0,18.9-18.92h0A19,19,0,0,0,116.56,63.69Z"/><path class="cls-5" d="M116.56,63.69H32.88a18.94,18.94,0,0,0-15.75,8.43H132.3A19,19,0,0,0,116.56,63.69Z"/><path class="cls-6" d="M18.25,82.56h0A18.93,18.93,0,0,1,37.17,63.63H32.91A18.93,18.93,0,0,0,14,82.52v0h0a18.93,18.93,0,0,0,18.92,18.93h4.28A18.92,18.92,0,0,1,18.25,82.56Z"/><path class="cls-6" d="M116.56,63.69h-3.41a18.92,18.92,0,0,1,18.93,18.9h0a18.92,18.92,0,0,1-18.92,18.92h3.4A18.91,18.91,0,0,0,135.49,82.6h0A18.92,18.92,0,0,0,116.56,63.69Z"/><path class="cls-5" d="M102.9,87.44a8,8,0,0,1,8-8h2a6,6,0,0,1,6,6,3,3,0,1,1-6.06.32,1.71,1.71,0,0,1,0-.32v-1a1.94,1.94,0,1,0-3.87,0v1a6.88,6.88,0,1,0,13.75,0h0a9.83,9.83,0,0,0-9.81-9.79h-2a11.8,11.8,0,0,0-9.69,5h-51a11.85,11.85,0,0,0-9.67-5h-2a9.83,9.83,0,0,0-9.83,9.79,6.87,6.87,0,0,0,13.74.49,4,4,0,0,0,0-.49v-1a1.93,1.93,0,0,0-3.86-.26,1.13,1.13,0,0,0,0,.26v1a3,3,0,0,1-6.07.32v-.32a6,6,0,0,1,6-6h2a8,8,0,0,1,8,8,13.93,13.93,0,0,1-13.91,13.91H30.68a19.78,19.78,0,0,0,2.18.14H45.45a17.72,17.72,0,0,0,6.89-14,11.81,11.81,0,0,0-.37-3H99.41a11.82,11.82,0,0,0-.38,3,17.83,17.83,0,0,0,6.9,14h10.63a19.78,19.78,0,0,0,2.18-.14h-2A13.91,13.91,0,0,1,102.9,87.44Z"/><path class="cls-5" d="M49.79,110.73h0a3.51,3.51,0,0,0-3.51,3.51V296.06h7V114.24a3.51,3.51,0,0,0-3.51-3.51Z"/><path class="cls-5" d="M62.31,110.73h0a3.52,3.52,0,0,0-3.52,3.51V296.06h7V114.24A3.51,3.51,0,0,0,62.31,110.73Z"/><path class="cls-5" d="M74.81,110.73h0a3.51,3.51,0,0,0-3.51,3.51V296.06h7V114.24A3.53,3.53,0,0,0,74.81,110.73Z"/><path class="cls-5" d="M87.33,110.73h0a3.52,3.52,0,0,0-3.52,3.51V296.06h7V114.24A3.51,3.51,0,0,0,87.33,110.73Z"/><path class="cls-5" d="M99.81,110.73h0a3.52,3.52,0,0,0-3.52,3.51V296.06h7V114.24a3.49,3.49,0,0,0-3.48-3.51Z"/><rect class="cls-6" x="109.69" y="107.48" width="3.81" height="188.59"/><rect class="cls-6" x="35.95" y="107.48" width="3.81" height="188.59"/><rect class="cls-6" x="20.94" y="296.06" width="104.59" height="27.14"/><rect class="cls-4" x="20.94" y="296.06" width="98" height="27.14"/><rect class="cls-7" x="20.94" y="319.05" width="98" height="4.15"/><rect class="cls-8" x="20.94" y="296.06" width="98" height="4.15"/><rect class="cls-6" x="20.94" y="296.06" width="6.41" height="27.14"/><rect class="cls-4" x="209.35" y="84.47" width="77.56" height="211.62"/><rect class="cls-5" x="209.35" y="84.47" width="77.56" height="23.03"/><path class="cls-4" d="M290,63.69H206.3a18.93,18.93,0,0,0-18.94,18.9h0a18.92,18.92,0,0,0,18.92,18.92H290a18.92,18.92,0,0,0,18.92-18.92h0A19,19,0,0,0,290,63.69Z"/><path class="cls-5" d="M290,63.69H206.3a19,19,0,0,0-15.76,8.43H305.71A19,19,0,0,0,290,63.69Z"/><path class="cls-6" d="M191.66,82.56h0a18.93,18.93,0,0,1,18.91-18.93H206.3a18.93,18.93,0,0,0-18.94,18.91v0h0a18.93,18.93,0,0,0,18.92,18.93h4.29a18.93,18.93,0,0,1-18.91-18.93Z"/><path class="cls-6" d="M290,63.69h-3.41a18.93,18.93,0,0,1,18.93,18.92h0a18.93,18.93,0,0,1-18.92,18.93H290A18.93,18.93,0,0,0,308.9,82.64v0h0A18.93,18.93,0,0,0,290,63.69Z"/><path class="cls-5" d="M276.31,87.44a8,8,0,0,1,8-8h2a6,6,0,0,1,6,6,3,3,0,1,1-6.07,0h0v-1a1.93,1.93,0,0,0-3.86-.26,1.13,1.13,0,0,0,0,.26v1a6.88,6.88,0,0,0,13.75,0h0a9.84,9.84,0,0,0-9.81-9.79h-2a11.77,11.77,0,0,0-9.69,5h-51a11.8,11.8,0,0,0-9.67-5h-2a9.82,9.82,0,0,0-9.82,9.82,6.87,6.87,0,1,0,13.74.48,3.84,3.84,0,0,0,0-.48v-1a1.93,1.93,0,1,0-3.86-.26,1.13,1.13,0,0,0,0,.26v1a3,3,0,0,1-6.08,0h0a6,6,0,0,1,6-6h2a8,8,0,0,1,8,8A13.92,13.92,0,0,1,208,101.36h-3.89a17.44,17.44,0,0,0,2.17.13h12.58a17.7,17.7,0,0,0,6.91-14,12.3,12.3,0,0,0-.38-3h47.48a12.29,12.29,0,0,0-.37,3,17.74,17.74,0,0,0,6.9,14H290a17.71,17.71,0,0,0,2.18-.13h-2a13.9,13.9,0,0,1-13.9-13.91Z"/><path class="cls-5" d="M223.2,110.73h0a3.51,3.51,0,0,0-3.51,3.51V296.06h7V114.24a3.52,3.52,0,0,0-3.52-3.51Z"/><path class="cls-5" d="M235.72,110.73h0a3.52,3.52,0,0,0-3.52,3.51V296.06h7V114.24A3.51,3.51,0,0,0,235.72,110.73Z"/><path class="cls-5" d="M248.22,110.73h0a3.51,3.51,0,0,0-3.51,3.51V296.06h7V114.24A3.53,3.53,0,0,0,248.22,110.73Z"/><path class="cls-5" d="M260.74,110.73h0a3.52,3.52,0,0,0-3.52,3.51V296.06h7V114.24A3.51,3.51,0,0,0,260.74,110.73Z"/><path class="cls-5" d="M273.22,110.73h0a3.52,3.52,0,0,0-3.52,3.51V296.06h7V114.24a3.47,3.47,0,0,0-3.44-3.51Z"/><rect class="cls-6" x="283.1" y="107.48" width="3.81" height="188.59"/><rect class="cls-6" x="209.35" y="107.48" width="3.81" height="188.59"/><rect class="cls-6" x="194.35" y="296.06" width="104.59" height="27.14"/><rect class="cls-4" x="194.35" y="296.06" width="98" height="27.14"/><rect class="cls-7" x="194.35" y="319.05" width="98" height="4.15"/><rect class="cls-8" x="194.35" y="296.06" width="98" height="4.15"/><rect class="cls-6" x="194.35" y="296.06" width="6.41" height="27.14"/><rect class="cls-4" x="382.76" y="84.47" width="77.56" height="211.62"/><rect class="cls-5" x="382.76" y="84.47" width="77.56" height="23.03"/><path class="cls-4" d="M463.39,63.69H379.7a18.94,18.94,0,0,0-18.93,18.93h0a18.93,18.93,0,0,0,18.91,18.93h83.73a18.91,18.91,0,0,0,18.92-18.91v0h0A19,19,0,0,0,463.39,63.69Z"/><path class="cls-5" d="M463.39,63.69H379.7a19,19,0,0,0-15.76,8.43H479.11A18.93,18.93,0,0,0,463.39,63.69Z"/><path class="cls-6" d="M365.06,82.56h0A18.93,18.93,0,0,1,384,63.63h-4.25a18.93,18.93,0,0,0-18.92,18.93h0a18.92,18.92,0,0,0,18.9,18.93H384a18.94,18.94,0,0,1-18.94-18.92Z"/><path class="cls-6" d="M463.39,63.69H460a18.94,18.94,0,0,1,18.9,18.9h0A18.91,18.91,0,0,1,460,101.51h3.4a18.9,18.9,0,0,0,18.92-18.9v0h0A18.92,18.92,0,0,0,463.39,63.69Z"/><path class="cls-5" d="M449.72,87.44a8,8,0,0,1,8-8h2a6,6,0,0,1,6,6,3,3,0,1,1-6.07.32,1.71,1.71,0,0,1,0-.32v-1a1.93,1.93,0,0,0-3.86-.26,1.13,1.13,0,0,0,0,.26v1a6.87,6.87,0,1,0,13.74.49v-.49a9.82,9.82,0,0,0-9.85-9.79h-2a11.8,11.8,0,0,0-9.69,5H397a11.85,11.85,0,0,0-9.67-5h-2a9.83,9.83,0,0,0-9.83,9.82,6.88,6.88,0,1,0,13.75,0h0v-1a1.94,1.94,0,1,0-3.87,0v1a3,3,0,0,1-6.07.32v-.32a6,6,0,0,1,6-6h2a8,8,0,0,1,8,8,13.92,13.92,0,0,1-13.9,13.91h-3.9a17.55,17.55,0,0,0,2.17.13h12.63a17.72,17.72,0,0,0,6.9-14,12.29,12.29,0,0,0-.37-3h47.44a11.76,11.76,0,0,0-.38,3,17.76,17.76,0,0,0,6.89,14H463.4a17.6,17.6,0,0,0,2.18-.13h-2A13.91,13.91,0,0,1,449.72,87.44Z"/><path class="cls-5" d="M396.61,110.73h0a3.51,3.51,0,0,0-3.51,3.51V296.06h7V114.24a3.5,3.5,0,0,0-3.5-3.51Z"/><path class="cls-5" d="M409.13,110.73h0a3.53,3.53,0,0,0-3.53,3.51V296.06h7V114.24A3.51,3.51,0,0,0,409.13,110.73Z"/><path class="cls-5" d="M421.63,110.73h0a3.51,3.51,0,0,0-3.51,3.51V296.06h7V114.24A3.52,3.52,0,0,0,421.63,110.73Z"/><path class="cls-5" d="M434.15,110.73h0a3.52,3.52,0,0,0-3.52,3.51V296.06h7V114.24A3.51,3.51,0,0,0,434.15,110.73Z"/><path class="cls-5" d="M446.63,110.73h0a3.51,3.51,0,0,0-3.51,3.51V296.06h7V114.24a3.47,3.47,0,0,0-3.46-3.51Z"/><rect class="cls-6" x="456.51" y="107.48" width="3.81" height="188.59"/><rect class="cls-6" x="382.76" y="107.48" width="3.81" height="188.59"/><rect class="cls-6" x="367.76" y="296.06" width="104.59" height="27.14"/><rect class="cls-4" x="367.76" y="296.06" width="98" height="27.14"/><rect class="cls-7" x="367.76" y="319.05" width="98" height="4.15"/><rect class="cls-8" x="367.76" y="296.06" width="98" height="4.15"/><rect class="cls-6" x="367.76" y="296.06" width="6.41" height="27.14"/><rect class="cls-4" x="556.17" y="84.47" width="77.56" height="211.62"/><rect class="cls-5" x="556.17" y="84.47" width="77.56" height="23.03"/><path class="cls-4" d="M636.79,63.69H553.11a18.94,18.94,0,0,0-18.93,18.93h0a18.93,18.93,0,0,0,18.91,18.93h83.73a18.91,18.91,0,0,0,18.92-18.91v0h0A19,19,0,0,0,636.79,63.69Z"/><path class="cls-5" d="M636.79,63.69H553.11a19,19,0,0,0-15.76,8.43H652.52A19,19,0,0,0,636.79,63.69Z"/><path class="cls-6" d="M538.48,82.56h0a18.92,18.92,0,0,1,18.91-18.93h-4.25a18.93,18.93,0,0,0-18.92,18.93h0a18.92,18.92,0,0,0,18.9,18.93h4.29a18.93,18.93,0,0,1-18.93-18.92Z"/><path class="cls-6" d="M636.79,63.69h-3.42A18.93,18.93,0,0,1,652.3,82.62h0a18.93,18.93,0,0,1-18.91,18.93h3.4a18.93,18.93,0,0,0,18.93-18.92v0h0A18.94,18.94,0,0,0,636.79,63.69Z"/><path class="cls-5" d="M623.13,87.44a8,8,0,0,1,8-8h2a6,6,0,0,1,6,6h0a3,3,0,1,1-6.06.32,1.71,1.71,0,0,1,0-.32v-1a1.94,1.94,0,0,0-3.87-.26v1.25a6.88,6.88,0,0,0,13.75.49v-.49a9.82,9.82,0,0,0-9.84-9.79h-2a11.8,11.8,0,0,0-9.69,5h-51a11.85,11.85,0,0,0-9.67-5h-2a9.83,9.83,0,0,0-9.83,9.82,6.88,6.88,0,0,0,13.75.48v-1.5a1.94,1.94,0,0,0-3.87-.26v1.25a3,3,0,1,1-6.06.32,1.71,1.71,0,0,1,0-.32,6,6,0,0,1,6-6h2a8,8,0,0,1,8,8,13.93,13.93,0,0,1-13.91,13.91h-3.89a17.55,17.55,0,0,0,2.17.13h12.6a17.72,17.72,0,0,0,6.9-14,12.3,12.3,0,0,0-.38-3h47.43a12.29,12.29,0,0,0-.37,3,17.74,17.74,0,0,0,6.9,14h10.63a17.71,17.71,0,0,0,2.18-.13h-2A13.91,13.91,0,0,1,623.13,87.44Z"/><path class="cls-5" d="M570,110.73h0a3.51,3.51,0,0,0-3.51,3.51V296.06h7V114.24a3.5,3.5,0,0,0-3.5-3.51Z"/><path class="cls-5" d="M582.52,110.73h0a3.51,3.51,0,0,0-3.51,3.51V296.06h7V114.24A3.52,3.52,0,0,0,582.52,110.73Z"/><path class="cls-5" d="M595,110.73h0a3.51,3.51,0,0,0-3.51,3.51V296.06h7V114.24A3.52,3.52,0,0,0,595,110.73Z"/><path class="cls-5" d="M607.55,110.73h0a3.51,3.51,0,0,0-3.51,3.51V296.06h7V114.24A3.52,3.52,0,0,0,607.55,110.73Z"/><path class="cls-5" d="M620.06,110.73h0a3.53,3.53,0,0,0-3.53,3.51V296.06h7V114.24a3.5,3.5,0,0,0-3.48-3.51Z"/><rect class="cls-6" x="629.92" y="107.48" width="3.81" height="188.59"/><rect class="cls-6" x="556.17" y="107.48" width="3.81" height="188.59"/><rect class="cls-6" x="541.16" y="296.06" width="104.59" height="27.14"/><rect class="cls-4" x="541.16" y="296.06" width="98" height="27.14"/><rect class="cls-7" x="541.16" y="319.05" width="98" height="4.15"/><rect class="cls-8" x="541.16" y="296.06" width="98" height="4.15"/><rect class="cls-6" x="541.16" y="296.06" width="6.41" height="27.14"/></g></g></svg>