<svg xmlns="http://www.w3.org/2000/svg" viewBox="0 0 641.7 363.47"><defs><style>.cls-1,.cls-10{fill:#fff;}.cls-1{opacity:0.65;}.cls-2{fill:#d8d6d6;}.cls-3{fill:#3f3942;}.cls-4{fill:#4a434f;}.cls-5{fill:#c59a55;}.cls-6{fill:#97753f;}.cls-7{fill:#d5a95e;}.cls-8{fill:#b48d4c;}.cls-9{fill:#dfbf8a;}.cls-11{fill:#d2b688;}.cls-12{fill:#ae884a;}.cls-13{fill:#94733d;}.cls-14{fill:#353036;}.cls-15{fill:#3d3840;}.cls-16{fill:#a27d43;}.cls-17{fill:#b89b6c;}.cls-18{fill:#e9e8e9;}.cls-19{fill:#f8d5c2;}.cls-20{fill:#423332;}.cls-21{fill:#372a29;}.cls-22{fill:#da9473;}.cls-23{fill:#574f4f;}.cls-24{fill:#322d34;}.cls-25{fill:#fbba34;}.cls-26{fill:#c89232;}.cls-27{fill:#2b2422;}.cls-28{fill:#9e6740;}.cls-29{fill:#3c3232;}.cls-30{fill:#d57a54;}.cls-31{fill:#f0ab8a;}.cls-32{fill:#432a1b;}.cls-33{fill:#e98b64;}.cls-34{fill:#ea533a;}.cls-35{fill:none;stroke:#f2b496;stroke-miterlimit:10;}</style></defs><title>I2-professora</title><g id="Camada_2" data-name="Camada 2"><g id="Camada_1-2" data-name="Camada 1"><ellipse class="cls-1" cx="320.85" cy="167.96" rx="320.85" ry="167.96"/><path class="cls-2" d="M516,258.25H97.78v-7.8H512.5v-8.89H516v16.69m-7.37-24.16h-3.55V29.5h3.55V234.09"/><polyline class="cls-3" points="500.81 230.22 105.92 230.22 105.92 26.72 500.81 26.72 500.81 230.22"/><polyline class="cls-4" points="493 222.24 113.73 222.24 113.73 34.7 493 34.7 493 222.24"/><path class="cls-5" d="M110.23,225.91H496.5V31H110.23V225.91m-8.62-203.5H505.12V234.53H101.61V22.41"/><polygon class="cls-6" points="111.22 31.03 110.23 31.03 110.23 32.03 101.61 23.41 101.61 22.41 102.61 22.41 111.22 31.03 111.22 31.03"/><polygon class="cls-6" points="495.51 31.03 496.5 31.03 496.5 32.03 505.12 23.41 505.12 22.41 504.12 22.41 495.51 31.03 495.51 31.03"/><polygon class="cls-6" points="495.51 225.91 496.5 225.91 496.5 224.91 505.12 233.53 505.12 234.52 504.12 234.52 495.51 225.91 495.51 225.91"/><polygon class="cls-6" points="111.22 225.91 110.23 225.91 110.23 224.91 101.61 233.53 101.61 234.52 102.61 234.52 111.22 225.91 111.22 225.91"/><polyline class="cls-7" points="512.5 234.09 512.5 250.45 94.23 250.45 94.23 234.09 512.5 234.09"/><polyline class="cls-8" points="512.5 250.45 94.23 250.45 94.23 247.61 512.5 247.61 512.5 250.45"/><polyline class="cls-9" points="512.5 236.93 94.23 236.93 94.23 234.09 512.5 234.09 512.5 236.93"/><path class="cls-10" d="M446.57,233.94H431.68a1.77,1.77,0,1,1,0-3.54h14.89a1.77,1.77,0,1,1,0,3.54Z"/><polygon class="cls-10" points="482.01 234.09 453.66 234.09 453.66 223.17 482.01 223.17 482.01 234.09 482.01 234.09"/><polygon class="cls-11" points="482.01 231.82 453.66 231.82 453.66 223.17 482.01 223.17 482.01 231.82 482.01 231.82"/><path class="cls-12" d="M188.44,250.45h0m.47-2.84H142.27c-.6-3.83-1-7.38-1.33-10.68h49.3c-.29,3.3-.73,6.85-1.33,10.68"/><path class="cls-13" d="M188.44,250.45h-45.7c-.16-1-.32-1.91-.47-2.84h46.64c-.15.93-.31,1.88-.47,2.84"/><path class="cls-14" d="M190.76,225.91H140.42c0-1.28,0-2.5.07-3.67h50.2c0,1.17.06,2.39.07,3.67"/><path class="cls-15" d="M190.69,222.24h-50.2a75,75,0,0,1,1.08-10.38h-1c.73-2.16,1.39-4.27,2-6.31a34.71,34.71,0,0,1-4.94-3.25l-.5.7c-4.74-4.11-8.14-10-10.82-15.17a55.09,55.09,0,0,1-4.14-9.89,17.34,17.34,0,0,1,1.19-12.14c2.54-5.86,14.14-23.94,28.38-27l.21-.05h0c.46-.11.95-.2,1.48-.28l3.31,20.7h14.18l3.37-21.06a21.9,21.9,0,0,1,7.76,1.55h0c6.08,2.66,20.54,23.55,20.54,23.55l13.83-16.09.38.3,1.34-1.79a4.42,4.42,0,0,1,1-3.58,4.15,4.15,0,0,1,2.77-1.22,4.28,4.28,0,0,1,2.68-1h.15L250.13,104a.51.51,0,0,1,.41-.21.48.48,0,0,1,.29.09.5.5,0,0,1,.12.7l-24.66,35.65a4,4,0,0,1,.82.48,4.25,4.25,0,0,1,.86,6l-4.5,6,.82.65s-15.52,21.83-16.48,23.12-2.55,3.28-4.63,3.34H203c-2,0-3.61-1.65-4.67-3.05-.6-.78-5.89-7.69-10.38-13.57,1.27,6.38-2.45,10.94-5,13.52a151.31,151.31,0,0,0,7.62,35.15h-1a76.79,76.79,0,0,1,1.07,10.38m-46.36-27.3a1.09,1.09,0,0,1,.86.44,131.58,131.58,0,0,0,3-18.67c-3.24-3.31-8.45-9.89-2.55-19.39-5.17,4-11,9.69-12.35,12.79-1.06,2.44-1.06,3.63-.71,4.85a43.83,43.83,0,0,0,3.35,7.88c2.36,4.58,4.21,8.63,6.89,12.07l-.24.34a10.63,10.63,0,0,1,1.75-.31M137,141.51a16.53,16.53,0,0,0,2.63-7.83c.9-7,.27-14.37,2.8-21a14.3,14.3,0,0,1,1.5-2.94v.1a3.58,3.58,0,0,0,3.61,3.55c0,4.12,2.51,8.89,5.94,12.49a27.14,27.14,0,0,1-4,9.13,14,14,0,0,1-6.14,5.24,21.16,21.16,0,0,0,1-2.81c-2.36,1.11-4.79,3.31-7.27,4.06m35.65-5-1.77-.49V128.7c4.94-3.56,9.14-10,9.14-15.3a3.58,3.58,0,0,0,3.61-3.55v-3.68h0a3.58,3.58,0,0,0-3.61-3.55V95.25h0a8.64,8.64,0,0,0,0-.88c-.63-7.66-9.27-16.83-16.18-16.84h0c-7.18,0-16.24,9.89-16.24,17.72v7.37A3.72,3.72,0,0,0,146,103c-3.61-10.74,1.25-28.8,19.51-28.8,19.62,0,23.89,20.16,19.19,31.63a3.46,3.46,0,0,1,.73,2.14v3.69a3.58,3.58,0,0,1-3.61,3.54,13.35,13.35,0,0,1-.88,4.57,24.25,24.25,0,0,1-8.26,10.73v6.06m-16-7.47a22.34,22.34,0,0,1-1.89-1.88,20.74,20.74,0,0,0,1.89,1.53v.35"/><path class="cls-16" d="M190.47,234.09H140.71c-.2-3-.29-5.67-.29-8.18h50.34c0,2.51-.09,5.23-.29,8.18"/><path class="cls-17" d="M190.24,236.93h-49.3c-.09-1-.17-1.91-.23-2.84h49.76c-.06.93-.14,1.87-.23,2.84"/><path class="cls-18" d="M163.16,363.47c-19.57,0-35.44-4-35.44-8.86s15.87-8.86,35.44-8.86,35.45,4,35.45,8.86-15.87,8.86-35.45,8.86"/><polyline class="cls-19" points="170.91 136.04 170.91 127 156.73 127 156.73 136.04 153.18 137.02 156.73 159.17 170.91 159.17 174.45 137.02 170.91 136.04"/><polyline class="cls-20" points="156.73 130.34 156.73 130.34 156.73 129.06 156.73 129.06 156.73 130.34"/><polyline class="cls-21" points="156.73 129.06 156.73 129.06 156.73 128.71 156.73 128.71 156.73 129.06"/><path class="cls-22" d="M170.91,136l-14.18-5.7v-1.63a12.63,12.63,0,0,0,7.08,2.69h0a12.65,12.65,0,0,0,7.1-2.7V136"/><path class="cls-19" d="M143.12,203h41.39c9.5,16.34-.83,43.41-5.68,95.24-.88,7.37,1.66,24.86,2.35,41.84l1.43,14h-9.22l-1.37-14-4.93-42-2.49-67.41H163l-1.75,109.43,0,14h-9.21v-14c.12-80-20.78-116.81-9-137.08Z"/><path class="cls-23" d="M161.31,346.12s-1,6.05-4.58,6.05-4.57-6.05-4.57-6.05a28.5,28.5,0,0,0-1,5.85c0,4.32,1.72,6.75,5.53,6.75s5.53-2.43,5.53-6.75a28.78,28.78,0,0,0-.95-5.85Z"/><path class="cls-23" d="M172.88,346.54s1.56,5.94,5.08,5.63,4-6.42,4-6.42a28.39,28.39,0,0,1,1.46,5.74c.38,4.3-1.11,6.87-4.92,7.2s-5.72-1.93-6.09-6.24a28.16,28.16,0,0,1,.44-5.91Z"/><path class="cls-24" d="M184.41,199.36H143.22s-10.13,15.52-.22,59.41a.8.8,0,0,0,.75.48h40.14a.81.81,0,0,0,.75-.48c9.91-43.89-.23-59.41-.23-59.41Z"/><polygon class="cls-10" points="178.36 199.36 149.56 199.36 149.56 154.19 178.36 154.19 178.36 199.36 178.36 199.36"/><path class="cls-25" d="M160.27,158.93l-4.72-22.62c-20,1.05-6.42,11.64-11,18.13-7,10.09-1.55,17.06,1.81,20.49a151.33,151.33,0,0,1-7.62,35.16h21.12v-7.2l.36-44Z"/><polygon class="cls-26" points="147.44 141.9 155.21 144.84 152.16 149.09 160.27 158.93 155.54 136.13 147.44 141.9 147.44 141.9"/><path class="cls-25" d="M167.36,158.93l4.72-22.62c20,1.05,6.43,11.64,11,18.13,7,10.09,1.55,17.06-1.81,20.49a150.7,150.7,0,0,0,7.62,35.16H167.73v-7.2l-.37-44Z"/><polygon class="cls-26" points="180.2 141.9 172.43 144.84 175.48 149.09 167.36 158.93 172.1 136.13 180.2 141.9 180.2 141.9"/><path class="cls-19" d="M215.67,156.11a4.18,4.18,0,0,1-2.54-.85,4.25,4.25,0,0,1-.86-5.95l7.12-9.5a4.25,4.25,0,0,1,6.81,5.1l-7.12,9.5a4.22,4.22,0,0,1-3.41,1.7Z"/><path class="cls-27" d="M219.89,144.57a.79.79,0,0,1-.65-1.23l29.12-41.09a.51.51,0,0,1,.41-.21.52.52,0,0,1,.29.09.51.51,0,0,1,.12.7l-28.65,41.4a.75.75,0,0,1-.64.34Z"/><path class="cls-19" d="M217.78,145.22a1.42,1.42,0,0,1-1.39-1.13,4.53,4.53,0,0,1,1-3.81,4.81,4.81,0,0,1,4.38-1.17,1.42,1.42,0,1,1-.38,2.81,2.37,2.37,0,0,0-1.93.3,1.79,1.79,0,0,0-.25,1.3,1.42,1.42,0,0,1-1.1,1.67l-.29,0Z"/><path class="cls-19" d="M142.56,193.17c-1,0-9.33,1.83-6.3,4.06,1.05.77,3.44-1,4.61-1.2.85-.17,2.14.07,2.68-.77s0-2.1-1-2.09c-3.28,0,.61,0,0,0Z"/><path class="cls-19" d="M143,194.91c-2.69-.21-6.12-3.84-6.58-3.64-.2.09-3.69,6-3.48,6.64s7.2,6.39,10.07,6.66a6.11,6.11,0,0,0,6-4.9c.29-2.46-3.63-4.59-6.05-4.76Z"/><path class="cls-25" d="M135.34,201.23c-4.74-4.11-8.15-10-10.82-15.18a53.28,53.28,0,0,1-4.14-9.88A17.34,17.34,0,0,1,121.56,164c2.56-5.89,14.27-24.13,28.61-27.06l-4.44,5.82,4.11,8.75c-5.17,2.61-16.39,12.34-18.32,16.8-1.06,2.44-1.06,3.63-.71,4.85a43.81,43.81,0,0,0,3.34,7.88c2.37,4.58,4.22,8.63,6.9,12.06l-5.71,8.1Z"/><path class="cls-25" d="M201.24,178c-2,0-3.6-1.64-4.66-3l-16.85-22,1.71-8.38-1.17-6.68c6.07,2.66,20.54,23.55,20.54,23.55l13.83-16.09,7.88,6.21S207,173.4,206,174.69s-2.55,3.28-4.63,3.34Z"/><path class="cls-28" d="M135.26,139.73c2.48-.74,4.91-2.94,7.26-4a21.13,21.13,0,0,1-1,2.81,14,14,0,0,0,6.14-5.24c4-5.69,5.37-12.92,4.88-19.84a13.54,13.54,0,0,0-1-4.58,8.19,8.19,0,0,0-2.06-2.82,4.49,4.49,0,0,0-2-1.08,4.09,4.09,0,0,0-2.8.56,10.09,10.09,0,0,0-4.11,5.43c-2.54,6.62-1.9,14-2.8,21a16.49,16.49,0,0,1-2.63,7.82Z"/><path class="cls-19" d="M180.05,102.62V95.25c0-7.83-9.06-17.72-16.24-17.72s-16.24,9.89-16.24,17.72v7.37a3.58,3.58,0,0,0-3.61,3.55v3.68a3.58,3.58,0,0,0,3.61,3.55c0,7.83,9.06,18,16.24,18s16.24-10.17,16.24-18a3.58,3.58,0,0,0,3.61-3.55v-3.68a3.58,3.58,0,0,0-3.61-3.55"/><path class="cls-29" d="M170.91,128.7h0c4.94-3.56,9.14-10,9.14-15.3a3.58,3.58,0,0,0,3.61-3.55v-3.68h0v3.68a3.58,3.58,0,0,1-3.61,3.55c0,5.33-4.2,11.74-9.14,15.3"/><path class="cls-30" d="M163.81,131.4h0a12.65,12.65,0,0,0,7.1-2.7h0a12.65,12.65,0,0,1-7.1,2.7"/><path class="cls-29" d="M180,94.37c-.63-7.66-9.27-16.83-16.18-16.84,6.91,0,15.55,9.18,16.18,16.84"/><path class="cls-31" d="M155,110.22a2.8,2.8,0,0,1-.1-5.6h.1a2.8,2.8,0,0,1,.1,5.59H155"/><path class="cls-32" d="M157.75,106.61a2.8,2.8,0,1,1-2.9-2.7,2.81,2.81,0,0,1,2.9,2.7Z"/><path class="cls-10" d="M156.6,105.81a.7.7,0,0,1-1.4,0,.7.7,0,1,1,1.4,0Z"/><path class="cls-32" d="M158.35,104.47a4.06,4.06,0,0,0-3.29-2.26,4.38,4.38,0,0,0-4,1.85h-.21a2.07,2.07,0,0,1-.6-.16,2.86,2.86,0,0,1-.81-.55l-.1,0a.1.1,0,0,0,0,.12l.16.3a3.3,3.3,0,0,0,.48.6,2.69,2.69,0,0,0,.66.47,2.57,2.57,0,0,0,.26.12l.13,0a.45.45,0,0,0,.45-.24,3.84,3.84,0,0,1,3.55-1.82,3.4,3.4,0,0,1,2.71,1.84.37.37,0,0,0,.47.19.36.36,0,0,0,.18-.47Z"/><path class="cls-33" d="M172.67,110.22a2.8,2.8,0,0,1-.1-5.6h.1a2.8,2.8,0,0,1,.1,5.59h-.1"/><path class="cls-32" d="M175.47,106.61a2.8,2.8,0,1,1-2.9-2.7,2.81,2.81,0,0,1,2.9,2.7Z"/><path class="cls-10" d="M174.32,105.81a.69.69,0,0,1-.67.72.7.7,0,0,1-.73-.67.71.71,0,0,1,.68-.73.7.7,0,0,1,.72.68Z"/><path class="cls-32" d="M169.27,104.47a4.06,4.06,0,0,1,3.29-2.26,4.38,4.38,0,0,1,4,1.85h.21a2.07,2.07,0,0,0,.6-.16,2.86,2.86,0,0,0,.81-.55l.1,0a.1.1,0,0,1,0,.12l-.16.3a3.3,3.3,0,0,1-.48.6,2.69,2.69,0,0,1-.66.47,1.89,1.89,0,0,1-.27.12l-.12,0a.45.45,0,0,1-.45-.24,3.85,3.85,0,0,0-3.55-1.82,3.4,3.4,0,0,0-2.71,1.84.37.37,0,0,1-.47.19.36.36,0,0,1-.18-.47Z"/><path class="cls-34" d="M169.46,120.91c0,2.78-2.54,5-5.68,5s-5.67-2.26-5.67-5Z"/><path class="cls-10" d="M167.74,122.8h-8a.7.7,0,0,1-.7-.71v-1.18h9.45v1.18a.71.71,0,0,1-.71.71Z"/><path class="cls-28" d="M173.25,96.68a10.9,10.9,0,0,0,3.06,5.37,23.93,23.93,0,0,1-11.89-7.46,10.21,10.21,0,0,0,3.1,5.33,22.18,22.18,0,0,1-3.76-2.17,29.18,29.18,0,0,1-6.85-6.82c-2.81,5.7-8,12.8-11.55,12.9-5.49-10.08-1.48-31.43,18.37-31.43s24,20.64,19,32c-4-.86-8.4-6.1-9.51-7.75Z"/><path class="cls-35" d="M163.78,115.45s-3,.37-3.51-1.62"/></g></g></svg>