<svg xmlns="http://www.w3.org/2000/svg" viewBox="0 0 50.6 50.6"><defs><style>.cls-1{fill:#fff;}</style></defs><title>Atividade</title><g id="Camada_2" data-name="Camada 2"><g id="Camada_1-2" data-name="Camada 1"><path class="cls-1" d="M49.29,15.92a4.46,4.46,0,0,0-6.29,0l-4.46,4.47V8.64a4.4,4.4,0,0,0-1.3-3.14L33.05,1.3A4.42,4.42,0,0,0,29.9,0H4.45A4.45,4.45,0,0,0,0,4.45v41.7A4.45,4.45,0,0,0,4.45,50.6H34.09a4.45,4.45,0,0,0,4.45-4.45V33L49.29,22.21A4.44,4.44,0,0,0,49.29,15.92ZM29.65,3A1.63,1.63,0,0,1,31,3.4l4.19,4.19a1.63,1.63,0,0,1,.44,1.3H29.65Zm5.93,43.19a1.49,1.49,0,0,1-1.49,1.48H4.45A1.49,1.49,0,0,1,3,46.15V4.45A1.49,1.49,0,0,1,4.45,3H26.68v7.42a1.49,1.49,0,0,0,1.49,1.48h7.41V23.35L31.2,27.73l-2.09,2.1a1.46,1.46,0,0,0-.36.58l-2.1,6.29a1.48,1.48,0,0,0,1.88,1.87l6.29-2.1a1.51,1.51,0,0,0,.58-.35l.18-.18V46.15ZM32.25,30.88,34.35,33l-.8.8-3.15,1,1.05-3.14Zm4.2,0-2.1-2.1,7.12-7.13,2.1,2.09ZM47.19,20.12l-1.52,1.53-2.1-2.1L45.1,18a1.48,1.48,0,1,1,2.09,2.1Z"/><path class="cls-1" d="M28.17,14.82H7.41a1.49,1.49,0,0,0,0,3H28.17a1.49,1.49,0,0,0,0-3Z"/><path class="cls-1" d="M22.24,20.75H7.41a1.49,1.49,0,0,0,0,3H22.24a1.49,1.49,0,0,0,0-3Z"/><path class="cls-1" d="M22.24,26.68H7.41a1.49,1.49,0,0,0,0,3H22.24a1.49,1.49,0,0,0,0-3Z"/><path class="cls-1" d="M22.24,32.61H7.41a1.49,1.49,0,0,0,0,3H22.24a1.49,1.49,0,0,0,0-3Z"/><path class="cls-1" d="M28.17,41.7h-8.9a1.49,1.49,0,0,0,0,3h8.9a1.49,1.49,0,0,0,0-3Z"/></g></g></svg>