<svg id="Camada_1" data-name="Camada 1" xmlns="http://www.w3.org/2000/svg" xmlns:xlink="http://www.w3.org/1999/xlink" viewBox="0 0 186.53 134.98"><defs><style>.cls-1{fill:none;}.cls-2{clip-path:url(#clip-path);}.cls-3{fill:#322560;}.cls-4{fill:#322661;}.cls-5{fill:#322761;}.cls-6{fill:#332862;}.cls-7{fill:#332963;}.cls-8{fill:#332a64;}.cls-9{fill:#332b64;}.cls-10{fill:#332d65;}.cls-11{fill:#342e66;}.cls-12{fill:#342f66;}.cls-13{fill:#343067;}.cls-14{fill:#343168;}.cls-15{fill:#343269;}.cls-16{fill:#353369;}.cls-17{fill:#35346a;}.cls-18{fill:#35356b;}.cls-19{fill:#35366b;}.cls-20{fill:#35376c;}.cls-21{fill:#36386d;}.cls-22{fill:#36396d;}.cls-23{fill:#363a6e;}.cls-24{fill:#363b6f;}.cls-25{fill:#373d70;}.cls-26{fill:#373e70;}.cls-27{fill:#373f71;}.cls-28{fill:#374072;}.cls-29{fill:#374172;}.cls-30{fill:#384273;}.cls-31{fill:#384374;}.cls-32{fill:#384475;}.cls-33{fill:#384575;}.cls-34{fill:#384676;}.cls-35{fill:#394777;}.cls-36{fill:#394877;}.cls-37{fill:#394978;}.cls-38{fill:#394a79;}.cls-39{fill:#394b79;}.cls-40{fill:#3a4c7a;}.cls-41{fill:#3a4d7b;}.cls-42{fill:#3a4f7c;}.cls-43{fill:#3a507c;}.cls-44{fill:#3a517d;}.cls-45{fill:#3b527e;}.cls-46{fill:#3b537e;}.cls-47{fill:#3b547f;}.cls-48{fill:#3b5580;}.cls-49{fill:#3b5680;}.cls-50{fill:#3c5781;}.cls-51{fill:#3c5882;}.cls-52{fill:#3c5982;}.cls-53{fill:#3c5a83;}.cls-54{fill:#3c5b84;}.cls-55{fill:#3d5c85;}.cls-56{fill:#3d5d85;}.cls-57{fill:#3d5e86;}.cls-58{fill:#3d5f87;}.cls-59{fill:#3d6087;}.cls-60{fill:#3e6188;}.cls-61{fill:#3e6289;}.cls-62{fill:#3e6389;}.cls-63{fill:#3e658a;}.cls-64{fill:#3e668b;}.cls-65{fill:#3f678b;}.cls-66{fill:#3f688c;}.cls-67{fill:#3f698d;}.cls-68{fill:#3f6a8e;}.cls-69{fill:#3f6b8e;}.cls-70{fill:#406c8f;}.cls-71{fill:#406d90;}.cls-72{fill:#406e90;}.cls-73{fill:#406f91;}.cls-74{fill:#407092;}.cls-75{fill:#417192;}.cls-76{fill:#417293;}.cls-77{fill:#417394;}.cls-78{fill:#417494;}.cls-79{fill:#417595;}.cls-80{fill:#427696;}.cls-81{fill:#427796;}.cls-82{fill:#427897;}.cls-83{fill:#427998;}.cls-84{fill:#427a98;}.cls-85{fill:#437b99;}.cls-86{fill:#437c9a;}.cls-87{fill:#437d9a;}.cls-88{fill:#437e9b;}.cls-89{fill:#437f9c;}.cls-90{fill:#44809c;}.cls-91{fill:#44819d;}.cls-92{fill:#44829e;}.cls-93{fill:#44839e;}.cls-94{fill:#44849f;}.cls-95{fill:#4485a0;}.cls-96{fill:#4586a0;}.cls-97{fill:#4587a1;}.cls-98{fill:#4588a2;}.cls-99{fill:#4589a2;}.cls-100{fill:#458aa3;}.cls-101{fill:#468ba4;}.cls-102{fill:#468ca4;}.cls-103{fill:#468da5;}.cls-104{fill:#468ea6;}.cls-105{fill:#468fa6;}.cls-106{fill:#4790a7;}.cls-107{fill:#4791a8;}.cls-108{fill:#4792a8;}.cls-109{fill:#4793a9;}.cls-110{fill:#4794aa;}.cls-111{fill:#4895aa;}.cls-112{fill:#4896ab;}.cls-113{fill:#4897ac;}.cls-114{fill:#4898ac;}.cls-115{fill:#4899ad;}.cls-116{fill:#499aae;}.cls-117{fill:#499bae;}.cls-118{fill:#499caf;}.cls-119{fill:#499db0;}.cls-120{fill:#499eb0;}.cls-121{fill:#499fb1;}.cls-122{fill:#4aa0b1;}.cls-123{fill:#4aa1b2;}.cls-124{fill:#4aa2b3;}.cls-125{fill:#4aa3b3;}.cls-126{fill:#4aa4b4;}.cls-127{fill:#4ba5b5;}.cls-128{fill:#4ba6b5;}.cls-129{fill:#4ba7b6;}.cls-130{fill:#4ba8b7;}.cls-131{fill:#4ba9b7;}.cls-132{fill:#4baab8;}.cls-133{fill:#4caab8;}.cls-134{fill:#4cabb9;}.cls-135{fill:#4cacba;}.cls-136{fill:#4cadba;}.cls-137{fill:#4caebb;}.cls-138{fill:#4dafbb;}.cls-139{fill:#4db0bc;}.cls-140{fill:#4db1bd;}.cls-141{fill:#4db2bd;}.cls-142{fill:#4db3be;}.cls-143{fill:#4db4be;}.cls-144{fill:#4eb5bf;}.cls-145{fill:#4eb5c0;}.cls-146{fill:#4eb6c0;}.cls-147{fill:#4eb7c1;}.cls-148{fill:#4eb8c1;}.cls-149{fill:#4eb9c2;}.cls-150{fill:#4fbac2;}.cls-151{fill:#4fbbc3;}.cls-152{fill:#4fbbc4;}.cls-153{fill:#4fbcc4;}.cls-154{fill:#02031c;}</style><clipPath id="clip-path"><path class="cls-1" d="M92.61,1.91a8.56,8.56,0,0,1,6.06,14.61,12.34,12.34,0,0,0-3,12.49A1.9,1.9,0,0,0,96.7,30.2a2.1,2.1,0,0,0,.73.14,1.9,1.9,0,0,0,.88-.21,12.33,12.33,0,0,0,6.67-11,8.57,8.57,0,1,1,8.57,8.57,12.33,12.33,0,0,0-11,6.67,1.93,1.93,0,0,0-.07,1.61,1.9,1.9,0,0,0,1.19,1.08,12.36,12.36,0,0,0,12.48-3,8.57,8.57,0,1,1,0,12.11,12.36,12.36,0,0,0-17.47,0l0,0,0,0a12.4,12.4,0,0,0,0,17.46,8.57,8.57,0,0,1,0,12.11,8.56,8.56,0,0,1-12.11,0,8.57,8.57,0,0,1,0-12.11,12.4,12.4,0,0,0,0-17.49h0v0a12.37,12.37,0,0,0-17.48,0,8.57,8.57,0,1,1,0-12.11,12.33,12.33,0,0,0,8.75,3.62,12.17,12.17,0,0,0,3.74-.58,1.9,1.9,0,0,0,1.11-2.69,12.32,12.32,0,0,0-11-6.67,8.57,8.57,0,1,1,8.56-8.57,12.35,12.35,0,0,0,6.67,11,2,2,0,0,0,.88.21,2,2,0,0,0,.73-.14A1.92,1.92,0,0,0,89.6,29a12.32,12.32,0,0,0-3-12.48A8.56,8.56,0,0,1,92.61,1.91m0-1.91A10.47,10.47,0,0,0,85.2,17.87a10.45,10.45,0,0,1,2.58,10.57,10.48,10.48,0,0,1-5.64-9.3A10.47,10.47,0,1,0,71.67,29.61,10.45,10.45,0,0,1,81,35.26a10.62,10.62,0,0,1-3.16.48,10.43,10.43,0,0,1-7.4-3.06,10.47,10.47,0,1,0,0,14.81,10.45,10.45,0,0,1,14.78,0l0,0,0,0a10.45,10.45,0,0,1,0,14.78,10.47,10.47,0,1,0,14.81,0,10.46,10.46,0,0,1,0-14.77l0,0,0,0a10.47,10.47,0,0,1,14.79,0,10.48,10.48,0,1,0,0-14.81,10.47,10.47,0,0,1-7.4,3.06,10.69,10.69,0,0,1-3.17-.48,10.47,10.47,0,0,1,9.3-5.65,10.47,10.47,0,1,0-10.47-10.47,10.44,10.44,0,0,1-5.65,9.29A10.46,10.46,0,0,1,100,17.87,10.47,10.47,0,0,0,92.61,0Z"/></clipPath></defs><title>logo</title><g class="cls-2"><rect class="cls-3" x="51.5" width="82.21" height="80.16"/><circle class="cls-3" cx="92.61" cy="40.08" r="40.08"/><circle class="cls-4" cx="92.61" cy="40.08" r="39.82"/><circle class="cls-5" cx="92.61" cy="40.08" r="39.55"/><circle class="cls-6" cx="92.61" cy="40.08" r="39.29"/><circle class="cls-7" cx="92.61" cy="40.08" r="39.02"/><circle class="cls-8" cx="92.61" cy="40.08" r="38.75"/><circle class="cls-9" cx="92.61" cy="40.08" r="38.49"/><circle class="cls-10" cx="92.61" cy="40.08" r="38.22"/><circle class="cls-11" cx="92.61" cy="40.08" r="37.96"/><circle class="cls-12" cx="92.61" cy="40.08" r="37.69"/><circle class="cls-13" cx="92.61" cy="40.08" r="37.43"/><circle class="cls-14" cx="92.61" cy="40.08" r="37.16"/><circle class="cls-15" cx="92.61" cy="40.08" r="36.9"/><circle class="cls-16" cx="92.61" cy="40.08" r="36.63"/><circle class="cls-17" cx="92.61" cy="40.08" r="36.37"/><circle class="cls-18" cx="92.61" cy="40.08" r="36.1"/><circle class="cls-19" cx="92.61" cy="40.08" r="35.83"/><circle class="cls-20" cx="92.61" cy="40.08" r="35.57"/><circle class="cls-21" cx="92.61" cy="40.08" r="35.3"/><circle class="cls-22" cx="92.61" cy="40.08" r="35.04"/><circle class="cls-23" cx="92.61" cy="40.08" r="34.77"/><circle class="cls-24" cx="92.61" cy="40.08" r="34.51"/><circle class="cls-25" cx="92.61" cy="40.08" r="34.24"/><circle class="cls-26" cx="92.61" cy="40.08" r="33.98"/><circle class="cls-27" cx="92.61" cy="40.08" r="33.71"/><circle class="cls-28" cx="92.61" cy="40.08" r="33.45"/><circle class="cls-29" cx="92.61" cy="40.08" r="33.18"/><circle class="cls-30" cx="92.61" cy="40.08" r="32.91"/><circle class="cls-31" cx="92.61" cy="40.08" r="32.65"/><circle class="cls-32" cx="92.61" cy="40.08" r="32.38"/><circle class="cls-33" cx="92.61" cy="40.08" r="32.12"/><circle class="cls-34" cx="92.61" cy="40.08" r="31.85"/><circle class="cls-35" cx="92.61" cy="40.08" r="31.59"/><circle class="cls-36" cx="92.61" cy="40.08" r="31.32"/><circle class="cls-37" cx="92.61" cy="40.08" r="31.06"/><circle class="cls-38" cx="92.61" cy="40.08" r="30.79"/><circle class="cls-39" cx="92.61" cy="40.08" r="30.53"/><circle class="cls-40" cx="92.61" cy="40.08" r="30.26"/><circle class="cls-41" cx="92.61" cy="40.08" r="29.99"/><circle class="cls-42" cx="92.61" cy="40.08" r="29.73"/><circle class="cls-43" cx="92.61" cy="40.08" r="29.46"/><circle class="cls-44" cx="92.61" cy="40.08" r="29.2"/><circle class="cls-45" cx="92.61" cy="40.08" r="28.93"/><circle class="cls-46" cx="92.61" cy="40.08" r="28.67"/><circle class="cls-47" cx="92.61" cy="40.08" r="28.4"/><circle class="cls-48" cx="92.61" cy="40.08" r="28.14"/><circle class="cls-49" cx="92.61" cy="40.08" r="27.87"/><circle class="cls-50" cx="92.61" cy="40.08" r="27.61"/><circle class="cls-51" cx="92.61" cy="40.08" r="27.34"/><circle class="cls-52" cx="92.61" cy="40.08" r="27.07"/><circle class="cls-53" cx="92.61" cy="40.08" r="26.81"/><circle class="cls-54" cx="92.61" cy="40.08" r="26.54"/><circle class="cls-55" cx="92.61" cy="40.08" r="26.28"/><circle class="cls-56" cx="92.61" cy="40.08" r="26.01"/><circle class="cls-57" cx="92.61" cy="40.08" r="25.75"/><circle class="cls-58" cx="92.61" cy="40.08" r="25.48"/><circle class="cls-59" cx="92.61" cy="40.08" r="25.22"/><circle class="cls-60" cx="92.61" cy="40.08" r="24.95"/><circle class="cls-61" cx="92.61" cy="40.08" r="24.69"/><circle class="cls-62" cx="92.61" cy="40.08" r="24.42"/><circle class="cls-63" cx="92.61" cy="40.08" r="24.16"/><circle class="cls-64" cx="92.61" cy="40.08" r="23.89"/><circle class="cls-65" cx="92.61" cy="40.08" r="23.62"/><circle class="cls-66" cx="92.61" cy="40.08" r="23.36"/><circle class="cls-67" cx="92.61" cy="40.08" r="23.09"/><circle class="cls-68" cx="92.61" cy="40.08" r="22.83"/><circle class="cls-69" cx="92.61" cy="40.08" r="22.56"/><circle class="cls-70" cx="92.61" cy="40.08" r="22.3"/><circle class="cls-71" cx="92.61" cy="40.08" r="22.03"/><circle class="cls-72" cx="92.61" cy="40.08" r="21.77"/><circle class="cls-73" cx="92.61" cy="40.08" r="21.5"/><circle class="cls-74" cx="92.61" cy="40.08" r="21.24"/><circle class="cls-75" cx="92.61" cy="40.08" r="20.97"/><circle class="cls-76" cx="92.61" cy="40.08" r="20.7"/><circle class="cls-77" cx="92.61" cy="40.08" r="20.44"/><circle class="cls-78" cx="92.61" cy="40.08" r="20.17"/><circle class="cls-79" cx="92.61" cy="40.08" r="19.91"/><circle class="cls-80" cx="92.61" cy="40.08" r="19.64"/><circle class="cls-81" cx="92.61" cy="40.08" r="19.38"/><circle class="cls-82" cx="92.61" cy="40.08" r="19.11"/><circle class="cls-83" cx="92.61" cy="40.08" r="18.85"/><circle class="cls-84" cx="92.61" cy="40.08" r="18.58"/><circle class="cls-85" cx="92.61" cy="40.08" r="18.32"/><circle class="cls-86" cx="92.61" cy="40.08" r="18.05"/><circle class="cls-87" cx="92.61" cy="40.08" r="17.78"/><circle class="cls-88" cx="92.61" cy="40.08" r="17.52"/><circle class="cls-89" cx="92.61" cy="40.08" r="17.25"/><circle class="cls-90" cx="92.61" cy="40.08" r="16.99"/><circle class="cls-91" cx="92.61" cy="40.08" r="16.72"/><circle class="cls-92" cx="92.61" cy="40.08" r="16.46"/><circle class="cls-93" cx="92.61" cy="40.08" r="16.19"/><circle class="cls-94" cx="92.61" cy="40.08" r="15.93"/><circle class="cls-95" cx="92.61" cy="40.08" r="15.66"/><circle class="cls-96" cx="92.61" cy="40.08" r="15.4"/><circle class="cls-97" cx="92.61" cy="40.08" r="15.13"/><circle class="cls-98" cx="92.61" cy="40.08" r="14.86"/><circle class="cls-99" cx="92.61" cy="40.08" r="14.6"/><circle class="cls-100" cx="92.61" cy="40.08" r="14.33"/><circle class="cls-101" cx="92.61" cy="40.08" r="14.07"/><circle class="cls-102" cx="92.61" cy="40.08" r="13.8"/><circle class="cls-103" cx="92.61" cy="40.08" r="13.54"/><circle class="cls-104" cx="92.61" cy="40.08" r="13.27"/><circle class="cls-105" cx="92.61" cy="40.08" r="13.01"/><circle class="cls-106" cx="92.61" cy="40.08" r="12.74"/><circle class="cls-107" cx="92.61" cy="40.08" r="12.48"/><circle class="cls-108" cx="92.61" cy="40.08" r="12.21"/><circle class="cls-109" cx="92.61" cy="40.08" r="11.94"/><circle class="cls-110" cx="92.61" cy="40.08" r="11.68"/><circle class="cls-111" cx="92.61" cy="40.08" r="11.41"/><circle class="cls-112" cx="92.61" cy="40.08" r="11.15"/><circle class="cls-113" cx="92.61" cy="40.08" r="10.88"/><circle class="cls-114" cx="92.61" cy="40.08" r="10.62"/><circle class="cls-115" cx="92.61" cy="40.08" r="10.35"/><circle class="cls-116" cx="92.61" cy="40.08" r="10.09"/><circle class="cls-117" cx="92.61" cy="40.08" r="9.82"/><circle class="cls-118" cx="92.61" cy="40.08" r="9.56"/><circle class="cls-119" cx="92.61" cy="40.08" r="9.29"/><circle class="cls-120" cx="92.61" cy="40.08" r="9.02"/><circle class="cls-121" cx="92.61" cy="40.08" r="8.76"/><circle class="cls-122" cx="92.61" cy="40.08" r="8.49"/><circle class="cls-123" cx="92.61" cy="40.08" r="8.23"/><circle class="cls-124" cx="92.61" cy="40.08" r="7.96"/><circle class="cls-125" cx="92.61" cy="40.08" r="7.7"/><circle class="cls-126" cx="92.61" cy="40.08" r="7.43"/><circle class="cls-127" cx="92.61" cy="40.08" r="7.17"/><circle class="cls-128" cx="92.61" cy="40.08" r="6.9"/><circle class="cls-129" cx="92.61" cy="40.08" r="6.64"/><circle class="cls-130" cx="92.61" cy="40.08" r="6.37"/><circle class="cls-131" cx="92.61" cy="40.08" r="6.11"/><circle class="cls-132" cx="92.61" cy="40.08" r="5.84"/><circle class="cls-133" cx="92.61" cy="40.08" r="5.57"/><circle class="cls-134" cx="92.61" cy="40.08" r="5.31"/><circle class="cls-135" cx="92.61" cy="40.08" r="5.04"/><circle class="cls-136" cx="92.61" cy="40.08" r="4.78"/><circle class="cls-137" cx="92.61" cy="40.08" r="4.51"/><circle class="cls-138" cx="92.61" cy="40.08" r="4.25"/><circle class="cls-139" cx="92.61" cy="40.08" r="3.98"/><circle class="cls-140" cx="92.61" cy="40.08" r="3.72"/><circle class="cls-141" cx="92.61" cy="40.08" r="3.45"/><circle class="cls-142" cx="92.61" cy="40.08" r="3.19"/><circle class="cls-143" cx="92.61" cy="40.08" r="2.92"/><circle class="cls-144" cx="92.61" cy="40.08" r="2.65"/><circle class="cls-145" cx="92.61" cy="40.08" r="2.39"/><circle class="cls-146" cx="92.61" cy="40.08" r="2.12"/><circle class="cls-147" cx="92.61" cy="40.08" r="1.86"/><circle class="cls-148" cx="92.61" cy="40.08" r="1.59"/><circle class="cls-149" cx="92.61" cy="40.08" r="1.33"/><circle class="cls-150" cx="92.61" cy="40.08" r="1.06"/><circle class="cls-151" cx="92.61" cy="40.08" r="0.8"/><circle class="cls-152" cx="92.61" cy="40.08" r="0.53"/><circle class="cls-153" cx="92.61" cy="40.08" r="0.27"/><rect class="cls-3" x="53.6" y="1.91" width="77.18" height="76.35"/><circle class="cls-3" cx="92.61" cy="40.08" r="40.08"/><circle class="cls-4" cx="92.61" cy="40.08" r="39.82"/><circle class="cls-5" cx="92.61" cy="40.08" r="39.55"/><circle class="cls-6" cx="92.61" cy="40.08" r="39.29"/><circle class="cls-7" cx="92.61" cy="40.08" r="39.02"/><circle class="cls-8" cx="92.61" cy="40.08" r="38.75"/><circle class="cls-9" cx="92.61" cy="40.08" r="38.49"/><circle class="cls-10" cx="92.61" cy="40.08" r="38.22"/><circle class="cls-11" cx="92.61" cy="40.08" r="37.96"/><circle class="cls-12" cx="92.61" cy="40.08" r="37.69"/><circle class="cls-13" cx="92.61" cy="40.08" r="37.43"/><circle class="cls-14" cx="92.61" cy="40.08" r="37.16"/><circle class="cls-15" cx="92.61" cy="40.08" r="36.9"/><circle class="cls-16" cx="92.61" cy="40.08" r="36.63"/><circle class="cls-17" cx="92.61" cy="40.08" r="36.37"/><circle class="cls-18" cx="92.61" cy="40.08" r="36.1"/><circle class="cls-19" cx="92.61" cy="40.08" r="35.83"/><circle class="cls-20" cx="92.61" cy="40.08" r="35.57"/><circle class="cls-21" cx="92.61" cy="40.08" r="35.3"/><circle class="cls-22" cx="92.61" cy="40.08" r="35.04"/><circle class="cls-23" cx="92.61" cy="40.08" r="34.77"/><circle class="cls-24" cx="92.61" cy="40.08" r="34.51"/><circle class="cls-25" cx="92.61" cy="40.08" r="34.24"/><circle class="cls-26" cx="92.61" cy="40.08" r="33.98"/><circle class="cls-27" cx="92.61" cy="40.08" r="33.71"/><circle class="cls-28" cx="92.61" cy="40.08" r="33.45"/><circle class="cls-29" cx="92.61" cy="40.08" r="33.18"/><circle class="cls-30" cx="92.61" cy="40.08" r="32.91"/><circle class="cls-31" cx="92.61" cy="40.08" r="32.65"/><circle class="cls-32" cx="92.61" cy="40.08" r="32.38"/><circle class="cls-33" cx="92.61" cy="40.08" r="32.12"/><circle class="cls-34" cx="92.61" cy="40.08" r="31.85"/><circle class="cls-35" cx="92.61" cy="40.08" r="31.59"/><circle class="cls-36" cx="92.61" cy="40.08" r="31.32"/><circle class="cls-37" cx="92.61" cy="40.08" r="31.06"/><circle class="cls-38" cx="92.61" cy="40.08" r="30.79"/><circle class="cls-39" cx="92.61" cy="40.08" r="30.53"/><circle class="cls-40" cx="92.61" cy="40.08" r="30.26"/><circle class="cls-41" cx="92.61" cy="40.08" r="29.99"/><circle class="cls-42" cx="92.61" cy="40.08" r="29.73"/><circle class="cls-43" cx="92.61" cy="40.08" r="29.46"/><circle class="cls-44" cx="92.61" cy="40.08" r="29.2"/><circle class="cls-45" cx="92.61" cy="40.08" r="28.93"/><circle class="cls-46" cx="92.61" cy="40.08" r="28.67"/><circle class="cls-47" cx="92.61" cy="40.08" r="28.4"/><circle class="cls-48" cx="92.61" cy="40.08" r="28.14"/><circle class="cls-49" cx="92.61" cy="40.08" r="27.87"/><circle class="cls-50" cx="92.61" cy="40.08" r="27.61"/><circle class="cls-51" cx="92.61" cy="40.08" r="27.34"/><circle class="cls-52" cx="92.61" cy="40.08" r="27.07"/><circle class="cls-53" cx="92.61" cy="40.08" r="26.81"/><circle class="cls-54" cx="92.61" cy="40.08" r="26.54"/><circle class="cls-55" cx="92.61" cy="40.08" r="26.28"/><circle class="cls-56" cx="92.61" cy="40.08" r="26.01"/><circle class="cls-57" cx="92.61" cy="40.08" r="25.75"/><circle class="cls-58" cx="92.61" cy="40.08" r="25.48"/><circle class="cls-59" cx="92.61" cy="40.08" r="25.22"/><circle class="cls-60" cx="92.61" cy="40.08" r="24.95"/><circle class="cls-61" cx="92.61" cy="40.08" r="24.69"/><circle class="cls-62" cx="92.61" cy="40.08" r="24.42"/><circle class="cls-63" cx="92.61" cy="40.08" r="24.16"/><circle class="cls-64" cx="92.61" cy="40.08" r="23.89"/><circle class="cls-65" cx="92.61" cy="40.08" r="23.62"/><circle class="cls-66" cx="92.61" cy="40.08" r="23.36"/><circle class="cls-67" cx="92.61" cy="40.08" r="23.09"/><circle class="cls-68" cx="92.61" cy="40.08" r="22.83"/><circle class="cls-69" cx="92.61" cy="40.08" r="22.56"/><circle class="cls-70" cx="92.61" cy="40.08" r="22.3"/><circle class="cls-71" cx="92.61" cy="40.08" r="22.03"/><circle class="cls-72" cx="92.61" cy="40.08" r="21.77"/><circle class="cls-73" cx="92.61" cy="40.08" r="21.5"/><circle class="cls-74" cx="92.61" cy="40.08" r="21.24"/><circle class="cls-75" cx="92.61" cy="40.08" r="20.97"/><circle class="cls-76" cx="92.61" cy="40.08" r="20.7"/><circle class="cls-77" cx="92.61" cy="40.08" r="20.44"/><circle class="cls-78" cx="92.61" cy="40.08" r="20.17"/><circle class="cls-79" cx="92.61" cy="40.08" r="19.91"/><circle class="cls-80" cx="92.61" cy="40.08" r="19.64"/><circle class="cls-81" cx="92.61" cy="40.08" r="19.38"/><circle class="cls-82" cx="92.61" cy="40.08" r="19.11"/><circle class="cls-83" cx="92.61" cy="40.08" r="18.85"/><circle class="cls-84" cx="92.61" cy="40.08" r="18.58"/><circle class="cls-85" cx="92.61" cy="40.08" r="18.32"/><circle class="cls-86" cx="92.61" cy="40.08" r="18.05"/><circle class="cls-87" cx="92.61" cy="40.08" r="17.78"/><circle class="cls-88" cx="92.61" cy="40.08" r="17.52"/><circle class="cls-89" cx="92.61" cy="40.08" r="17.25"/><circle class="cls-90" cx="92.61" cy="40.08" r="16.99"/><circle class="cls-91" cx="92.61" cy="40.08" r="16.72"/><circle class="cls-92" cx="92.61" cy="40.08" r="16.46"/><circle class="cls-93" cx="92.61" cy="40.08" r="16.19"/><circle class="cls-94" cx="92.61" cy="40.08" r="15.93"/><circle class="cls-95" cx="92.61" cy="40.08" r="15.66"/><circle class="cls-96" cx="92.61" cy="40.08" r="15.4"/><circle class="cls-97" cx="92.61" cy="40.08" r="15.13"/><circle class="cls-98" cx="92.61" cy="40.08" r="14.86"/><circle class="cls-99" cx="92.61" cy="40.08" r="14.6"/><circle class="cls-100" cx="92.61" cy="40.08" r="14.33"/><circle class="cls-101" cx="92.61" cy="40.08" r="14.07"/><circle class="cls-102" cx="92.61" cy="40.08" r="13.8"/><circle class="cls-103" cx="92.61" cy="40.08" r="13.54"/><circle class="cls-104" cx="92.61" cy="40.08" r="13.27"/><circle class="cls-105" cx="92.61" cy="40.08" r="13.01"/><circle class="cls-106" cx="92.61" cy="40.08" r="12.74"/><circle class="cls-107" cx="92.61" cy="40.08" r="12.48"/><circle class="cls-108" cx="92.61" cy="40.08" r="12.21"/><circle class="cls-109" cx="92.61" cy="40.08" r="11.94"/><circle class="cls-110" cx="92.61" cy="40.08" r="11.68"/><circle class="cls-111" cx="92.61" cy="40.08" r="11.41"/><circle class="cls-112" cx="92.61" cy="40.08" r="11.15"/><circle class="cls-113" cx="92.61" cy="40.08" r="10.88"/><circle class="cls-114" cx="92.61" cy="40.08" r="10.62"/><circle class="cls-115" cx="92.61" cy="40.08" r="10.35"/><circle class="cls-116" cx="92.61" cy="40.08" r="10.09"/><circle class="cls-117" cx="92.61" cy="40.08" r="9.82"/><circle class="cls-118" cx="92.61" cy="40.08" r="9.56"/><circle class="cls-119" cx="92.61" cy="40.08" r="9.29"/><circle class="cls-120" cx="92.61" cy="40.08" r="9.02"/><circle class="cls-121" cx="92.61" cy="40.08" r="8.76"/><circle class="cls-122" cx="92.61" cy="40.08" r="8.49"/><circle class="cls-123" cx="92.61" cy="40.08" r="8.23"/><circle class="cls-124" cx="92.61" cy="40.08" r="7.96"/><circle class="cls-125" cx="92.61" cy="40.08" r="7.7"/><circle class="cls-126" cx="92.61" cy="40.08" r="7.43"/><circle class="cls-127" cx="92.61" cy="40.08" r="7.17"/><circle class="cls-128" cx="92.61" cy="40.08" r="6.9"/><circle class="cls-129" cx="92.61" cy="40.08" r="6.64"/><circle class="cls-130" cx="92.61" cy="40.08" r="6.37"/><circle class="cls-131" cx="92.61" cy="40.08" r="6.11"/><circle class="cls-132" cx="92.61" cy="40.08" r="5.84"/><circle class="cls-133" cx="92.61" cy="40.08" r="5.57"/><circle class="cls-134" cx="92.61" cy="40.08" r="5.31"/><circle class="cls-135" cx="92.61" cy="40.08" r="5.04"/><circle class="cls-136" cx="92.61" cy="40.08" r="4.78"/><circle class="cls-137" cx="92.61" cy="40.08" r="4.51"/><circle class="cls-138" cx="92.61" cy="40.08" r="4.25"/><circle class="cls-139" cx="92.61" cy="40.08" r="3.98"/><circle class="cls-140" cx="92.61" cy="40.08" r="3.72"/><circle class="cls-141" cx="92.61" cy="40.08" r="3.45"/><circle class="cls-142" cx="92.61" cy="40.08" r="3.19"/><circle class="cls-143" cx="92.61" cy="40.08" r="2.92"/><circle class="cls-144" cx="92.61" cy="40.08" r="2.65"/><circle class="cls-145" cx="92.61" cy="40.08" r="2.39"/><circle class="cls-146" cx="92.61" cy="40.08" r="2.12"/><circle class="cls-147" cx="92.61" cy="40.08" r="1.86"/><circle class="cls-148" cx="92.61" cy="40.08" r="1.59"/><circle class="cls-149" cx="92.61" cy="40.08" r="1.33"/><circle class="cls-150" cx="92.61" cy="40.08" r="1.06"/><circle class="cls-151" cx="92.61" cy="40.08" r="0.8"/><circle class="cls-152" cx="92.61" cy="40.08" r="0.53"/><circle class="cls-153" cx="92.61" cy="40.08" r="0.27"/></g><path class="cls-154" d="M2.74,112.93a1.55,1.55,0,0,1-1.14.46,1.57,1.57,0,0,1-1.6-1.6V93.92a1.9,1.9,0,0,1,.46-1.25,1.65,1.65,0,0,1,1.17-.61c1.65-.16,3.25-.24,4.78-.24q4,0,6.09,1.71a5.93,5.93,0,0,1,2.07,4.85q0,7.14-8.16,7.14c-1.15,0-2.14,0-3-.11a.21.21,0,0,0-.24.23v6.15A1.55,1.55,0,0,1,2.74,112.93ZM3.2,94.86v7.66c0,.16.09.25.27.29a19.1,19.1,0,0,0,2.65.21,6.08,6.08,0,0,0,3.94-1.13,3.92,3.92,0,0,0,1.37-3.22,3.86,3.86,0,0,0-1.35-3.19,6.13,6.13,0,0,0-4-1.09,20.24,20.24,0,0,0-2.65.17A.29.29,0,0,0,3.2,94.86Z"/><path class="cls-154" d="M19.56,113.39a1.67,1.67,0,0,1-1.66-1.66v-18a1.67,1.67,0,0,1,1.66-1.66h9.85a1.28,1.28,0,0,1,1.31,1.31,1.23,1.23,0,0,1-.38.93,1.27,1.27,0,0,1-.93.38h-8c-.17,0-.26.08-.26.23v5.57a.23.23,0,0,0,.26.26h7.53a1.16,1.16,0,0,1,.88.37,1.24,1.24,0,0,1,0,1.77,1.16,1.16,0,0,1-.88.37H21.36a.23.23,0,0,0-.26.26v6.94a.23.23,0,0,0,.26.26h8.05a1.27,1.27,0,0,1,.93.38,1.23,1.23,0,0,1,.38.93,1.28,1.28,0,0,1-1.31,1.31Z"/><path class="cls-154" d="M37.89,112.93a1.56,1.56,0,0,1-2.21,0,1.52,1.52,0,0,1-.47-1.11V93.69a1.59,1.59,0,0,1,1.58-1.57,2.6,2.6,0,0,1,2.36,1.37L47.43,108s0,0,0,0a0,0,0,0,0,0,0V93.69a1.59,1.59,0,0,1,1.58-1.57,1.5,1.5,0,0,1,1.1.46,1.48,1.48,0,0,1,.47,1.11v18.13a1.48,1.48,0,0,1-.47,1.11,1.5,1.5,0,0,1-1.1.46A2.58,2.58,0,0,1,46.73,112L38.42,97.54a0,0,0,0,0-.06,0v14.28A1.52,1.52,0,0,1,37.89,112.93Z"/><path class="cls-154" d="M61,103.92a11.68,11.68,0,0,1-4.8-2.72,5.45,5.45,0,0,1-1.47-3.84,5.23,5.23,0,0,1,1.63-4,6.44,6.44,0,0,1,4.49-1.49,15.72,15.72,0,0,1,4.73.65,1.93,1.93,0,0,1,1,.77,2.2,2.2,0,0,1,.4,1.27.82.82,0,0,1-.44.75.92.92,0,0,1-.91.06,11.46,11.46,0,0,0-4.48-.93,3.39,3.39,0,0,0-2.42.79,2.8,2.8,0,0,0-.85,2.18,3.08,3.08,0,0,0,.79,2.06A5.17,5.17,0,0,0,61,100.86a13.42,13.42,0,0,1,5.35,2.86,5.55,5.55,0,0,1,1.5,4A5.48,5.48,0,0,1,66,112.17a8.11,8.11,0,0,1-5.33,1.52,11.92,11.92,0,0,1-4.17-.7,2.12,2.12,0,0,1-1.37-2.16.78.78,0,0,1,.44-.73.9.9,0,0,1,.87,0,8.29,8.29,0,0,0,3.94,1c2.81,0,4.22-1.11,4.22-3.35a3.12,3.12,0,0,0-.83-2.19A7,7,0,0,0,61,103.92Z"/><path class="cls-154" d="M71.09,113.39a1.14,1.14,0,0,1-1-.49,1.08,1.08,0,0,1-.16-1.08L76.2,93.69A2.17,2.17,0,0,1,77,92.55a2.27,2.27,0,0,1,1.34-.43h.18a2.24,2.24,0,0,1,1.35.43,2.21,2.21,0,0,1,.83,1.14L87,111.82a1.1,1.1,0,0,1-.16,1.08,1.14,1.14,0,0,1-1,.49h-.12A2.2,2.2,0,0,1,84.4,113a2.27,2.27,0,0,1-.83-1.14L82.4,108c0-.15-.12-.23-.32-.23H74.74a.29.29,0,0,0-.32.23l-1.17,3.85a2.05,2.05,0,0,1-.8,1.14A2.25,2.25,0,0,1,71.09,113.39Zm7.29-18.33L75.32,105a.16.16,0,0,0,0,.16.18.18,0,0,0,.15.07h5.83a.17.17,0,0,0,.14-.07.16.16,0,0,0,0-.16l-3.06-9.94a0,0,0,0,0-.06,0Z"/><path class="cls-154" d="M92.65,112.94a1.5,1.5,0,0,1-1.09.45,1.48,1.48,0,0,1-1.09-.45,1.45,1.45,0,0,1-.46-1.09V93.66a1.45,1.45,0,0,1,.46-1.09,1.48,1.48,0,0,1,1.09-.45,2.33,2.33,0,0,1,2.24,1.37l5.75,11.13s0,0,0,0a0,0,0,0,0,0,0l5.72-11.08a2.43,2.43,0,0,1,2.33-1.42,1.56,1.56,0,0,1,1.14.46,1.55,1.55,0,0,1,.46,1.14v18.07a1.55,1.55,0,0,1-.46,1.14,1.56,1.56,0,0,1-1.14.46,1.57,1.57,0,0,1-1.6-1.6V97.68a0,0,0,0,0-.06,0l-4.32,8.57a2.34,2.34,0,0,1-4.2,0l-4.31-8.57a0,0,0,0,0-.06,0v14.17A1.48,1.48,0,0,1,92.65,112.94Z"/><path class="cls-154" d="M115.69,113.39a1.69,1.69,0,0,1-1.66-1.66v-18a1.69,1.69,0,0,1,1.66-1.66h9.86a1.26,1.26,0,0,1,.93.37,1.31,1.31,0,0,1,.38.94,1.3,1.3,0,0,1-1.31,1.31h-8c-.17,0-.26.08-.26.23v5.57a.23.23,0,0,0,.26.26H125a1.19,1.19,0,0,1,.89.37,1.24,1.24,0,0,1,0,1.77,1.19,1.19,0,0,1-.89.37H117.5a.23.23,0,0,0-.26.26v6.94a.23.23,0,0,0,.26.26h8a1.3,1.3,0,0,1,1.31,1.31,1.31,1.31,0,0,1-.38.94,1.26,1.26,0,0,1-.93.37Z"/><path class="cls-154" d="M134,112.93a1.57,1.57,0,0,1-2.68-1.11V93.69a1.57,1.57,0,0,1,1.57-1.57,2.58,2.58,0,0,1,2.36,1.37L143.56,108s0,0,.06,0a0,0,0,0,0,0,0V93.69a1.48,1.48,0,0,1,.47-1.11,1.56,1.56,0,0,1,2.21,0,1.52,1.52,0,0,1,.47,1.11v18.13a1.59,1.59,0,0,1-1.58,1.57,2.59,2.59,0,0,1-2.36-1.37l-8.31-14.48a0,0,0,0,0,0,0s0,0,0,0v14.28A1.52,1.52,0,0,1,134,112.93Z"/><path class="cls-154" d="M152.19,94.8a1.35,1.35,0,0,1-1.34-1.34,1.33,1.33,0,0,1,1.34-1.34h12.48a1.29,1.29,0,0,1,.94.39,1.27,1.27,0,0,1,.4.95,1.25,1.25,0,0,1-.4.94,1.26,1.26,0,0,1-.94.4h-4.38a.23.23,0,0,0-.26.26v16.73a1.52,1.52,0,0,1-.47,1.14,1.61,1.61,0,0,1-2.74-1.14V95.06c0-.18-.08-.26-.26-.26Z"/><path class="cls-154" d="M184,110.8a9.74,9.74,0,0,1-13.85,0c-1.7-1.92-2.55-4.61-2.55-8s.85-6.13,2.55-8.05a9.74,9.74,0,0,1,13.85,0c1.7,1.92,2.55,4.61,2.55,8.05S185.68,108.88,184,110.8Zm-2.33-14.27a6.12,6.12,0,0,0-9.19,0q-1.61,2.09-1.61,6.23c0,2.75.54,4.83,1.61,6.22a6.12,6.12,0,0,0,9.19,0c1.07-1.39,1.61-3.47,1.61-6.22S182.72,97.92,181.65,96.53Z"/><path class="cls-154" d="M7.2,135.05a6.39,6.39,0,0,1-5.14-2.31,9.79,9.79,0,0,1-1.95-6.5A10.06,10.06,0,0,1,2,119.76a6.16,6.16,0,0,1,5.08-2.32,11.82,11.82,0,0,1,3.6.52.69.69,0,0,1,.54.72A.38.38,0,0,1,11,119a.32.32,0,0,1-.34.06,10.69,10.69,0,0,0-3.55-.61,5.06,5.06,0,0,0-4.27,2.06,9.4,9.4,0,0,0-1.55,5.73A9.13,9.13,0,0,0,2.92,132,5.19,5.19,0,0,0,7.27,134a10.16,10.16,0,0,0,3.53-.61.32.32,0,0,1,.34.06.4.4,0,0,1,.17.32.69.69,0,0,1-.54.72A11.62,11.62,0,0,1,7.2,135.05Z"/><path class="cls-154" d="M26.59,132.75a6.56,6.56,0,0,1-5.32,2.3,6.56,6.56,0,0,1-5.32-2.3,12,12,0,0,1,0-13,6.56,6.56,0,0,1,5.32-2.3,6.56,6.56,0,0,1,5.32,2.3,12,12,0,0,1,0,13Zm-.83-12.31a5.39,5.39,0,0,0-4.49-2,5.39,5.39,0,0,0-4.49,2,11.52,11.52,0,0,0,0,11.61,5.39,5.39,0,0,0,4.49,2,5.39,5.39,0,0,0,4.49-2,11.52,11.52,0,0,0,0-11.61Z"/><path class="cls-154" d="M32.56,134.65a.54.54,0,0,1-.39.17.61.61,0,0,1-.42-.17.54.54,0,0,1-.17-.4v-15.9a.65.65,0,0,1,.2-.48.66.66,0,0,1,.48-.2,1.12,1.12,0,0,1,1,.59l5.7,10s0,0,0,0,0,0,0,0l5.7-10a1.09,1.09,0,0,1,1-.59.7.7,0,0,1,.49.2.64.64,0,0,1,.22.48v15.88a.59.59,0,1,1-1.18,0v-14.7s0,0,0,0h-.05l-5.35,9.32a1,1,0,0,1-1.74,0l-5.33-9.32h0s0,0,0,0v14.72A.54.54,0,0,1,32.56,134.65Z"/><path class="cls-154" d="M51.61,134.65a.57.57,0,0,1-.42.17.58.58,0,0,1-.43-.17.57.57,0,0,1-.16-.42V119.15a1.55,1.55,0,0,1,.36-1,1.39,1.39,0,0,1,.95-.5,25.81,25.81,0,0,1,3.08-.19,7.43,7.43,0,0,1,4.77,1.33,4.59,4.59,0,0,1,1.64,3.79,4.93,4.93,0,0,1-1.65,4,7.21,7.21,0,0,1-4.76,1.4c-.89,0-1.9-.06-3-.17a.17.17,0,0,0-.19.19v6.27A.57.57,0,0,1,51.61,134.65Zm.16-15.73v7.61a.23.23,0,0,0,.19.23,22.77,22.77,0,0,0,2.94.19,6.13,6.13,0,0,0,4-1.12,3.82,3.82,0,0,0,1.39-3.18,3.72,3.72,0,0,0-1.36-3.13,6.33,6.33,0,0,0-4-1.07,17.72,17.72,0,0,0-2.94.23A.24.24,0,0,0,51.77,118.92Z"/><path class="cls-154" d="M74.22,133.54a5.77,5.77,0,0,1-4.29,1.51,5.78,5.78,0,0,1-4.3-1.51,6.11,6.11,0,0,1-1.51-4.48v-10.8a.55.55,0,0,1,.18-.41.59.59,0,0,1,.44-.18.6.6,0,0,1,.41.17.57.57,0,0,1,.17.42v10.85q0,4.9,4.63,4.91t4.6-4.91V118.26a.57.57,0,0,1,.17-.42.56.56,0,0,1,.42-.17.57.57,0,0,1,.42.17.57.57,0,0,1,.16.42v10.8A6.11,6.11,0,0,1,74.22,133.54Z"/><path class="cls-154" d="M79.55,118.71a.46.46,0,0,1-.36-.16.51.51,0,0,1,0-.72.46.46,0,0,1,.36-.16H90.4a.52.52,0,0,1,0,1H85.77a.19.19,0,0,0-.21.21v15.31a.54.54,0,0,1-.17.42.6.6,0,0,1-.41.17.57.57,0,0,1-.41-.17.54.54,0,0,1-.18-.42V118.92a.19.19,0,0,0-.21-.21Z"/><path class="cls-154" d="M91.08,134.82a.41.41,0,0,1-.35-.19.47.47,0,0,1,0-.4l5.73-15.9a1,1,0,0,1,.37-.48.92.92,0,0,1,.57-.18,1,1,0,0,1,.59.18.89.89,0,0,1,.35.48l5.73,15.9a.44.44,0,0,1,0,.4.39.39,0,0,1-.35.19.9.9,0,0,1-.52-.17.88.88,0,0,1-.32-.42l-1.62-4.65a.28.28,0,0,0-.29-.19H93.78a.26.26,0,0,0-.26.19l-1.62,4.65A.78.78,0,0,1,91.08,134.82Zm6.23-16.09L94,128.22a.16.16,0,0,0,0,.13.14.14,0,0,0,.11.06h6.42c.1,0,.14-.07.11-.19l-3.28-9.49s0,0,0,0S97.31,118.72,97.31,118.73Z"/><path class="cls-154" d="M112.14,135.05a6.39,6.39,0,0,1-5.14-2.31,9.79,9.79,0,0,1-2-6.5,10.12,10.12,0,0,1,1.87-6.48,6.16,6.16,0,0,1,5.08-2.32,11.82,11.82,0,0,1,3.6.52.69.69,0,0,1,.54.72.38.38,0,0,1-.18.32.32.32,0,0,1-.34.06,10.69,10.69,0,0,0-3.55-.61,5.06,5.06,0,0,0-4.27,2.06,9.4,9.4,0,0,0-1.55,5.73,9.13,9.13,0,0,0,1.61,5.72,5.2,5.2,0,0,0,4.36,2.08,10.1,10.1,0,0,0,3.52-.61.32.32,0,0,1,.34.06.37.37,0,0,1,.17.32.69.69,0,0,1-.54.72A11.62,11.62,0,0,1,112.14,135.05Z"/><path class="cls-154" d="M122.17,134.63a.64.64,0,0,1-1.08-.45V118.31a.61.61,0,0,1,.19-.45.62.62,0,0,1,.89,0,.61.61,0,0,1,.19.45v15.87A.61.61,0,0,1,122.17,134.63Z"/><path class="cls-154" d="M138.81,132.75a7.3,7.3,0,0,1-10.64,0,9.87,9.87,0,0,1-1.91-6.51,9.86,9.86,0,0,1,1.91-6.5,7.3,7.3,0,0,1,10.64,0,12,12,0,0,1,0,13ZM138,120.44a6,6,0,0,0-9,0,11.52,11.52,0,0,0,0,11.61,6,6,0,0,0,9,0,11.45,11.45,0,0,0,0-11.61Z"/><path class="cls-154" d="M144.81,134.65a.57.57,0,0,1-.42.17.58.58,0,0,1-.43-.17.57.57,0,0,1-.16-.42V118.35a.65.65,0,0,1,.2-.48.66.66,0,0,1,.48-.2,1.13,1.13,0,0,1,1,.59l8.9,14.75s0,0,0,0a0,0,0,0,0,0,0V118.26a.57.57,0,0,1,.16-.42.58.58,0,0,1,.43-.17.57.57,0,0,1,.42.17.57.57,0,0,1,.16.42v15.87a.68.68,0,0,1-.68.69,1.13,1.13,0,0,1-1-.59L145,119.48a0,0,0,0,0,0,0s0,0,0,0v14.75A.57.57,0,0,1,144.81,134.65Z"/><path class="cls-154" d="M159,134.82a.38.38,0,0,1-.35-.19.44.44,0,0,1-.05-.4l5.73-15.9a1.09,1.09,0,0,1,.36-.48,1,1,0,0,1,1.16,0,.91.91,0,0,1,.36.48l5.73,15.9a.47.47,0,0,1,0,.4.41.41,0,0,1-.35.19.9.9,0,0,1-.52-.17.84.84,0,0,1-.33-.42L169,129.58a.27.27,0,0,0-.28-.19h-7.09a.26.26,0,0,0-.26.19l-1.62,4.65A.79.79,0,0,1,159,134.82Zm6.22-16.09-3.31,9.49a.13.13,0,0,0,0,.13.14.14,0,0,0,.12.06h6.41c.11,0,.15-.07.12-.19l-3.29-9.49s0,0,0,0A0,0,0,0,0,165.19,118.73Z"/><path class="cls-154" d="M176,134.82a1.28,1.28,0,0,1-.93-.4,1.31,1.31,0,0,1-.39-.94v-15.2a.65.65,0,0,1,.61-.61.55.55,0,0,1,.41.18.58.58,0,0,1,.18.43v15.29a.19.19,0,0,0,.21.21h8a.49.49,0,0,1,.36.15.53.53,0,0,1,.15.37.49.49,0,0,1-.15.36.5.5,0,0,1-.36.16Z"/></svg>