<svg xmlns="http://www.w3.org/2000/svg" viewBox="0 0 30 30"><defs><style>.cls-1{fill:#f9f0d3;}.cls-2{fill:#8b4503;}</style></defs><title>botaoVoltarParaOTopo_Curso2</title><g id="Camada_2" data-name="Camada 2"><g id="Camada_1-2" data-name="Camada 1"><path class="cls-1" d="M26,1a3,3,0,0,1,3,3V26a3,3,0,0,1-3,3H4a3,3,0,0,1-3-3V4A3,3,0,0,1,4,1H26m0-1H4A4,4,0,0,0,0,4V26a4,4,0,0,0,4,4H26a4,4,0,0,0,4-4V4a4,4,0,0,0-4-4Z"/><path class="cls-2" d="M22.65,16.25a.49.49,0,0,1-.35-.15L15,8.93,7.7,16.1a.51.51,0,0,1-.71,0,.5.5,0,0,1,0-.71l8-7.86,8,7.86a.5.5,0,0,1-.35.86Z"/><path class="cls-2" d="M15,24.27a.5.5,0,0,1-.5-.5V8.23a.5.5,0,0,1,1,0V23.77A.5.5,0,0,1,15,24.27Z"/><path class="cls-2" d="M22.65,1H7.35a.5.5,0,0,1-.5-.5.5.5,0,0,1,.5-.5h15.3a.5.5,0,0,1,.5.5A.5.5,0,0,1,22.65,1Z"/></g></g></svg>