<svg xmlns="http://www.w3.org/2000/svg" viewBox="0 0 50.46 51.22"><defs><style>.cls-1{fill:#fff;}</style></defs><title>Problema</title><g id="Camada_2" data-name="Camada 2"><g id="Camada_1-2" data-name="Camada 1"><path class="cls-1" d="M2.17,36V22.15H7.28a1.15,1.15,0,0,0,1.06-1.23,1.19,1.19,0,0,0-.09-.36,3.09,3.09,0,0,1,5.65-2.48,3.14,3.14,0,0,1,0,2.48,1.09,1.09,0,0,0-.05.85,1.1,1.1,0,0,0,.57.63,1,1,0,0,0,.47.11H20v4.46a5.35,5.35,0,0,0-.58,0h0a5.24,5.24,0,0,0-2.1,10.05l.23.1.87-2-.23-.1a3.09,3.09,0,0,1-1.6-4.06,3.09,3.09,0,0,1,2.83-1.85h0a3.05,3.05,0,0,1,1.23.26,1.09,1.09,0,0,0,1.43-.56,1,1,0,0,0,.09-.43V22.15h3.7a3.77,3.77,0,0,0,0,.58A5.28,5.28,0,0,0,30,27.87l.24.05.44-2.12-.25-.05a3.07,3.07,0,0,1-2.2-4.25,1.08,1.08,0,0,0,0-.83,1,1,0,0,0-.57-.59,1.08,1.08,0,0,0-.43-.1h-5.1V16.29a5.63,5.63,0,0,0,.58,0,5.25,5.25,0,1,0,0-10.49h0a5.44,5.44,0,0,0-.57,0V2.17h13.9A3.92,3.92,0,0,1,40,6.08V20h-5.1a1.08,1.08,0,0,0-1.08,1.09,1,1,0,0,0,.09.43,3.09,3.09,0,0,1,.26,1.23V23H36.3v-.25a5.63,5.63,0,0,0,0-.58h4.78a1.08,1.08,0,0,0,1.08-1.08v-15A6.09,6.09,0,0,0,36.05,0h-30A6.09,6.09,0,0,0,0,6.08V36a6.09,6.09,0,0,0,6.08,6.07h9.41V39.9H6.08A3.92,3.92,0,0,1,2.17,36ZM20.3,8a1.12,1.12,0,0,0,.77.32h0a1.08,1.08,0,0,0,.43-.1A3.05,3.05,0,0,1,22.73,8,3.09,3.09,0,1,1,21.5,13.9a1,1,0,0,0-.83,0,1.07,1.07,0,0,0-.69,1v5H16.29a4.53,4.53,0,0,0,0-.52v-.07a5.25,5.25,0,0,0-10.49,0v.07a4.41,4.41,0,0,0,0,.52H2.17V6.08A3.91,3.91,0,0,1,6.08,2.17H20V7.26A1.12,1.12,0,0,0,20.3,8ZM6.08,19.4Z"/><path class="cls-1" d="M48.57,35.84l-6.93-4.78L39,24a1.08,1.08,0,0,0-1.39-.64l-5.47,2.42a1.08,1.08,0,0,0-.57,1.38c.09.24.18.42.27.61s.16.34.26.6a3.08,3.08,0,1,1-5.76,2.18,3,3,0,0,1-.19-1.25,1.1,1.1,0,0,0-.28-.78,1.07,1.07,0,0,0-.75-.36,1.35,1.35,0,0,0-.44.07l-5.78,2.18a1.08,1.08,0,0,0-.64,1.39l2,5.28a5.18,5.18,0,0,0-.56.17A5.24,5.24,0,0,0,16.56,44a5.24,5.24,0,0,0,6.76,3.09,5.38,5.38,0,0,0,.55-.24l1.39,3.71a1.06,1.06,0,0,0,.56.6,1,1,0,0,0,.45.1,1,1,0,0,0,.38-.07l8-3a4.74,4.74,0,0,0,2.69,2.28l.23.08.69-2-.24-.08a2.56,2.56,0,0,1-1.31-1l2-.75a6.07,6.07,0,0,0,5.62,3.79h.26V48.23h-.25a4,4,0,0,1-3.91-3.92,1,1,0,0,0-.32-.76l-2.9-2.9a1,1,0,0,1-.09-1.28,1,1,0,0,1,.72-.39.92.92,0,0,1,.75.28l6,6,1.53-1.54-1.79-1.78A6.12,6.12,0,0,0,44.24,38L43,34.6l4.38,3a2.25,2.25,0,0,1,.95,1.85v11h2.17v-11A4.41,4.41,0,0,0,48.57,35.84Zm-12.9,6.29,2.41,2.41L26.91,48.75l-1.5-4a1.09,1.09,0,0,0-.78-.68l-.23,0a1.1,1.1,0,0,0-.76.3A3.08,3.08,0,0,1,18.45,42a3.06,3.06,0,0,1,2-2.79,2.87,2.87,0,0,1,.77-.17,2.57,2.57,0,0,1,.48,0,1.09,1.09,0,0,0,1.14-1,1.1,1.1,0,0,0-.07-.44L20.64,32,24.1,30.7a5.27,5.27,0,0,0,6.08,3.88,6.46,6.46,0,0,0,.86-.24,5.28,5.28,0,0,0,3.06-6.77l-.11-.3,3.35-1.49,4.87,13A3.62,3.62,0,0,1,42.46,40l-2.29-2.29a3.09,3.09,0,0,0-2.21-1h0a3.11,3.11,0,0,0-2.2.89A3.15,3.15,0,0,0,35.67,42.13ZM35.9,42Z"/></g></g></svg>