<?xml version="1.0" encoding="UTF-8" standalone="no"?>
<svg
   xmlns:dc="http://purl.org/dc/elements/1.1/"
   xmlns:cc="http://creativecommons.org/ns#"
   xmlns:rdf="http://www.w3.org/1999/02/22-rdf-syntax-ns#"
   xmlns:svg="http://www.w3.org/2000/svg"
   xmlns="http://www.w3.org/2000/svg"
   xmlns:sodipodi="http://sodipodi.sourceforge.net/DTD/sodipodi-0.dtd"
   xmlns:inkscape="http://www.inkscape.org/namespaces/inkscape"
   viewBox="0 0 629.25 14.19"
   version="1.1"
   id="svg3751"
   sodipodi:docname="top.svg"
   inkscape:version="0.92.4 (5da689c313, 2019-01-14)"
   width="629.25"
   height="41.099998">
  <metadata
     id="metadata3755">
    <rdf:RDF>
      <cc:Work
         rdf:about="">
        <dc:format>image/svg+xml</dc:format>
        <dc:type
           rdf:resource="http://purl.org/dc/dcmitype/StillImage" />
        <dc:title>top</dc:title>
      </cc:Work>
    </rdf:RDF>
  </metadata>
  <sodipodi:namedview
     pagecolor="#ffffff"
     bordercolor="#666666"
     borderopacity="1"
     objecttolerance="10"
     gridtolerance="10"
     guidetolerance="10"
     inkscape:pageopacity="0"
     inkscape:pageshadow="2"
     inkscape:window-width="1920"
     inkscape:window-height="1017"
     id="namedview3753"
     showgrid="false"
     inkscape:zoom="2.8526023"
     inkscape:cx="643.07929"
     inkscape:cy="33.595001"
     inkscape:window-x="-7"
     inkscape:window-y="-8"
     inkscape:window-maximized="1"
     inkscape:current-layer="svg3751"
     inkscape:lockguides="true"
     inkscape:snap-bbox="true"
     inkscape:bbox-paths="false"
     inkscape:snap-intersection-paths="false"
     inkscape:snap-page="true"
     inkscape:snap-grids="true" />
  <defs
     id="defs3737">
    <style
       id="style3735">.cls-1{fill:none;stroke:#a44a3d;stroke-miterlimit:10;stroke-width:2px;}.cls-2{fill:#a44a3d;}.cls-3{fill:#c3665c;}.cls-4{fill:#fff;}</style>
  </defs>
  <title
     id="title3739">top</title>
  <g
     id="Camada_2"
     data-name="Camada 2"
     style="stroke-width:0;stroke-miterlimit:4;stroke-dasharray:none"
     transform="translate(0,-13.454999)">
    <g
       id="Camada_1-2"
       data-name="Camada 1"
       transform="scale(1,1.0052166)"
       style="stroke-width:0;stroke-miterlimit:4;stroke-dasharray:none">
      <path
         class="cls-2"
         d="m 0,0 h 629.25 v 36.74 a 4,4 0 0 1 -4,4 H 4 a 4,4 0 0 1 -4,-4 z"
         id="path3743"
         inkscape:connector-curvature="0"
         style="fill:#a44a3d;stroke-width:0;stroke-miterlimit:4;stroke-dasharray:none" />
      <path
         class="cls-3"
         d="m 315.13,0 -0.51,40.74 h 310.63 a 3.73,3.73 0 0 0 3,-1.51 4.88,4.88 0 0 0 1,-3.15 V 0 Z"
         id="path3745"
         inkscape:connector-curvature="0"
         style="fill:#c3665c;stroke-width:0;stroke-miterlimit:4;stroke-dasharray:none" />
      <path
         class="cls-4"
         d="m 329.73,18.74 a 3.57,3.57 0 0 0 -3.4,-1.78 v 0 h -0.22 a 3.81,3.81 0 0 0 -1.17,0.24 4.41,4.41 0 0 0 -1.77,1.05 4.89,4.89 0 0 1 -3.17,1.32 v 0 a 3.75,3.75 0 0 1 -0.48,0 0.65,0.65 0 0 1 -0.58,-0.65 0.63,0.63 0 0 1 0.14,-0.4 v 0 l 0.31,-0.36 v 0 a 4.87,4.87 0 0 1 3.15,-1.31 4.45,4.45 0 0 0 2,-0.51 4.07,4.07 0 0 0 1,-0.66 l 0.15,-0.13 v 0 a 4.0057615,4.0057615 0 0 0 -5.66,-5.67 v 0 l -0.14,0.16 a 4,4 0 0 0 -0.67,1 4.39,4.39 0 0 0 -0.5,2 4.92,4.92 0 0 1 -1.3,3.16 v 0 a 3.27,3.27 0 0 1 -0.35,0.3 v 0 a 0.64,0.64 0 0 1 -0.41,0.15 0.66,0.66 0 0 1 -0.65,-0.52 v 0 a 0.62,0.62 0 0 1 0,-0.13 v 0 c 0,-0.13 0,-0.26 0,-0.39 v 0 a 4.91,4.91 0 0 1 1.31,-3.16 4.39,4.39 0 0 0 1.06,-1.79 3.62,3.62 0 0 0 0.24,-1.14 c 0,-0.14 0,-0.22 0,-0.22 v 0 a 3.7,3.7 0 0 0 -2.05,-3.54 4,4 0 0 0 -6,3.54 v 0 c 0,0 0,0.08 0,0.22 a 4,4 0 0 0 0.24,1.15 4.29,4.29 0 0 0 1.06,1.78 4.91,4.91 0 0 1 1.31,3.16 v 0 c 0,0.13 0,0.27 0,0.39 v 0 c 0,0 0,0.06 0,0.1 v 0 a 0.66,0.66 0 0 1 -0.64,0.51 0.67,0.67 0 0 1 -0.42,-0.15 v 0 a 2.43,2.43 0 0 1 -0.34,-0.3 v 0 a 4.92,4.92 0 0 1 -1.3,-3.16 4.42,4.42 0 0 0 -0.53,-2 4.13,4.13 0 0 0 -0.63,-1 l -0.15,-0.16 v 0 a 4,4 0 0 0 -6.77,2.16 4,4 0 0 0 1.12,3.51 v 0 l 0.15,0.13 a 3.81,3.81 0 0 0 1,0.68 4.34,4.34 0 0 0 2,0.49 4.87,4.87 0 0 1 3.15,1.31 v 0 c 0.12,0.12 0.22,0.25 0.33,0.38 a 0.71,0.71 0 0 1 0.12,0.38 0.65,0.65 0 0 1 -0.57,0.65 h -0.48 v 0 a 4.91,4.91 0 0 1 -3.16,-1.31 4.39,4.39 0 0 0 -1.79,-1.06 4,4 0 0 0 -1.15,-0.23 h -0.22 v 0 a 3.69,3.69 0 0 0 -3.52,2.07 4,4 0 0 0 3.54,6 h 0.22 a 4.05,4.05 0 0 0 1.16,-0.23 4.59,4.59 0 0 0 1.78,-1.06 4.89,4.89 0 0 1 3.15,-1.31 v 0 a 4,4 0 0 1 4,4 4.91,4.91 0 0 1 -1.31,3.16 4.3,4.3 0 0 0 -1,1.73 3.86,3.86 0 0 0 -0.26,1.23 c 0,0.12 0,0.19 0,0.19 a 4,4 0 0 0 5.94,3.55 3.73,3.73 0 0 0 2.07,-3.55 v 0 c 0,0 0,-0.09 0,-0.24 a 4.3,4.3 0 0 0 -0.22,-1.09 4.54,4.54 0 0 0 -1.08,-1.82 4.91,4.91 0 0 1 -1.37,-3.21 4,4 0 0 1 4,-4 v 0 a 4.89,4.89 0 0 1 3.15,1.31 4.44,4.44 0 0 0 1.85,1.05 3.69,3.69 0 0 0 1.16,0.24 h 0.22 a 4.06,4.06 0 0 0 3.35,-6.21 z"
         id="path3747"
         inkscape:connector-curvature="0"
         style="fill:#ffffff;stroke-width:0;stroke-miterlimit:4;stroke-dasharray:none" />
    </g>
  </g>
</svg>
