<svg xmlns="http://www.w3.org/2000/svg" xmlns:xlink="http://www.w3.org/1999/xlink" viewBox="0 0 1124.64 651.26"><defs><style>.cls-1{fill:none;}.cls-2{fill:#dd7a7a;}.cls-3{fill:#c6b366;}.cls-4{clip-path:url(#clip-path);}.cls-5{fill:#fff3c2;}.cls-6{fill:#fff3c3;}.cls-7{fill:#fff3c4;}.cls-8{fill:#fff4c5;}.cls-9{fill:#fff4c6;}.cls-10{fill:#fff4c7;}.cls-11{fill:#fff4c8;}.cls-12{fill:#fff4c9;}.cls-13{fill:#fff5ca;}.cls-14{fill:#fff5cb;}.cls-15{fill:#fff5cc;}.cls-16{fill:#fff5cd;}.cls-17{fill:#fff5ce;}.cls-18{fill:#fff6cf;}.cls-19{fill:#fff6d0;}.cls-20{fill:#fff6d1;}.cls-21{fill:#fff6d2;}.cls-22{fill:#fff6d3;}.cls-23{fill:#fff7d4;}.cls-24{fill:#fff7d5;}.cls-25{fill:#fff7d6;}.cls-26{fill:#fff7d7;}.cls-27{fill:#fff7d8;}.cls-28{fill:#fff8d9;}.cls-29{fill:#fff8da;}.cls-30{fill:#fff8db;}.cls-31{fill:#fff8dc;}.cls-32{fill:#fff8dd;}.cls-33{fill:#fff9de;}.cls-34{fill:#fff9df;}.cls-35{fill:#fff9e0;}.cls-36{fill:#fff9e2;}.cls-37{fill:#fff9e3;}.cls-38{fill:#fffae4;}.cls-39{fill:#fffae5;}.cls-40{fill:#fffae6;}.cls-41{fill:#fffae7;}.cls-42{fill:#fffae8;}.cls-43{fill:#fffbe9;}.cls-44{fill:#fffbea;}.cls-45{fill:#fffbeb;}.cls-46{fill:#fffbec;}.cls-47{fill:#fffbed;}.cls-48{fill:#fffcee;}.cls-49{fill:#fffcef;}.cls-50{fill:#fffcf0;}.cls-51{fill:#fffcf1;}.cls-52{fill:#fffcf2;}.cls-53{fill:#fffdf3;}.cls-54{fill:#fffdf4;}.cls-55{fill:#fffdf5;}.cls-56{fill:#fffdf6;}.cls-57{fill:#fffdf7;}.cls-58{fill:#fffef8;}.cls-59{fill:#fffef9;}.cls-60{fill:#fffefa;}.cls-61{fill:#fffefb;}.cls-62{fill:#fffefc;}.cls-63{fill:#fffffd;}.cls-64{fill:#fffffe;}.cls-65{fill:#fff;}.cls-66{fill:#ffeda1;}.cls-67{fill:#3a1e1c;}.cls-68{clip-path:url(#clip-path-2);}.cls-69{fill:#fffdfd;}.cls-70{clip-path:url(#clip-path-3);}.cls-71{fill:#d88268;}.cls-72{fill:#d98369;}.cls-73{fill:#da8469;}.cls-74{fill:#db856a;}.cls-75{fill:#dc866b;}.cls-76{fill:#dd876b;}.cls-77{fill:#de886c;}.cls-78{fill:#df896d;}.cls-79{fill:#e08a6d;}.cls-80{fill:#e18b6e;}.cls-81{fill:#e28c6f;}.cls-82{fill:#e48d70;}.cls-83{fill:#e58d70;}.cls-84{fill:#e68e71;}.cls-85{fill:#e78f72;}.cls-86{fill:#e89072;}.cls-87{fill:#e99173;}.cls-88{fill:#ea9274;}.cls-89{fill:#eb9374;}.cls-90{fill:#ec9475;}.cls-91{fill:#ed9576;}.cls-92{fill:#ee9676;}.cls-93{fill:#ef9777;}.cls-94{fill:#3d201f;}.cls-95{fill:#b5574d;}.cls-96{fill:#b3514e;}.cls-97{fill:#312235;}.cls-98{fill:#fc999c;}.cls-99{fill:#f9aaaa;}.cls-100{fill:#822222;}.cls-101{fill:#9b3737;}.cls-102{fill:#5b1f3c;}</style><clipPath id="clip-path"><path class="cls-1" d="M428.87,402.79a192.51,192.51,0,0,0-5.05-43.86c-32.69-73-109.23-124.15-198.45-124.15C106.43,234.78,10,325.78,10,438a193.16,193.16,0,0,0,5,43.87C47.74,554.84,124.28,606,213.5,606,332.44,606,428.87,515,428.87,402.79Z"/></clipPath><clipPath id="clip-path-2"><path class="cls-1" d="M541.11,351.64c-10.3-18-97.34-31.5-97.34-31.5S301.45,131.38,232.44,137.81s-80.25,56.58-80.25,56.58l-32.63,66.55C54.29,295.86,10.25,362,10.25,437.86c0,112.25,96.43,203.24,215.37,203.24,117.57,0,213.12-88.9,215.32-199.35C473.29,419.44,549.06,365.51,541.11,351.64Z"/></clipPath><clipPath id="clip-path-3"><path class="cls-1" d="M227.93,321.46l-2.36,9.79s-19.92,12.89-37.91,11.87c-5.34-.31,67.76,42.79,71.74,42.94s34.38-50.15,34.38-50.15-20.41-3.74-27.17-4-14.47-18.28-14.47-18.28Z"/></clipPath></defs><title>M2-fala1</title><g id="Camada_5" data-name="Camada 5"><path class="cls-2" d="M225.37,234.78c119,0,215.37,91,215.37,203.24S344.32,641.26,225.37,641.26,10,550.27,10,438s96.42-203.24,215.37-203.24m0-10a235.1,235.1,0,0,0-87.54,16.69A225.72,225.72,0,0,0,66.22,287,212.37,212.37,0,0,0,17.8,354.82a203.34,203.34,0,0,0,0,166.4A212.3,212.3,0,0,0,66.22,589a225.89,225.89,0,0,0,71.61,45.57,238.05,238.05,0,0,0,175.08,0A225.94,225.94,0,0,0,384.53,589a212.12,212.12,0,0,0,48.41-67.79,203.34,203.34,0,0,0,0-166.4A212.19,212.19,0,0,0,384.53,287a225.76,225.76,0,0,0-71.62-45.57,235.1,235.1,0,0,0-87.54-16.69Z"/><ellipse class="cls-3" cx="225.37" cy="438.02" rx="215.37" ry="203.24"/><g class="cls-4"><rect class="cls-5" x="10" y="234.78" width="418.87" height="371.24"/><path class="cls-5" d="M206.79,475.71a120.37,120.37,0,1,1,167,33A120.37,120.37,0,0,1,206.79,475.71Z"/><path class="cls-6" d="M208.43,474.61a118.4,118.4,0,1,1,164.26,32.46A118.39,118.39,0,0,1,208.43,474.61Z"/><path class="cls-7" d="M210.07,473.51a116.43,116.43,0,1,1,161.52,31.92A116.42,116.42,0,0,1,210.07,473.51Z"/><path class="cls-8" d="M211.71,472.41A114.45,114.45,0,1,1,370.5,503.79,114.44,114.44,0,0,1,211.71,472.41Z"/><circle class="cls-9" cx="306.79" cy="408.71" r="112.48"/><circle class="cls-10" cx="306.79" cy="408.71" r="110.5"/><circle class="cls-11" cx="306.79" cy="408.71" r="108.53"/><circle class="cls-12" cx="306.79" cy="408.71" r="106.56"/><circle class="cls-13" cx="306.79" cy="408.71" r="104.58"/><circle class="cls-14" cx="306.79" cy="408.71" r="102.61"/><circle class="cls-15" cx="306.79" cy="408.71" r="100.64"/><circle class="cls-16" cx="306.79" cy="408.71" r="98.66"/><circle class="cls-17" cx="306.79" cy="408.71" r="96.69"/><circle class="cls-18" cx="306.79" cy="408.71" r="94.72"/><circle class="cls-19" cx="306.79" cy="408.71" r="92.74"/><circle class="cls-20" cx="306.79" cy="408.71" r="90.77"/><circle class="cls-21" cx="306.79" cy="408.71" r="88.8"/><circle class="cls-22" cx="306.79" cy="408.71" r="86.82"/><circle class="cls-23" cx="306.79" cy="408.71" r="84.85"/><circle class="cls-24" cx="306.79" cy="408.71" r="82.88"/><circle class="cls-25" cx="306.79" cy="408.71" r="80.9"/><circle class="cls-26" cx="306.79" cy="408.71" r="78.93"/><circle class="cls-27" cx="306.79" cy="408.71" r="76.96"/><circle class="cls-28" cx="306.79" cy="408.71" r="74.98"/><circle class="cls-29" cx="306.79" cy="408.71" r="73.01"/><circle class="cls-30" cx="306.79" cy="408.71" r="71.04"/><circle class="cls-31" cx="306.79" cy="408.71" r="69.06"/><circle class="cls-32" cx="306.79" cy="408.71" r="67.09"/><circle class="cls-33" cx="306.79" cy="408.71" r="65.12"/><circle class="cls-34" cx="306.79" cy="408.71" r="63.15"/><circle class="cls-35" cx="306.79" cy="408.71" r="61.17"/><circle class="cls-36" cx="306.79" cy="408.71" r="59.2"/><circle class="cls-37" cx="306.79" cy="408.71" r="57.23"/><circle class="cls-38" cx="306.79" cy="408.71" r="55.25"/><circle class="cls-39" cx="306.79" cy="408.71" r="53.28"/><circle class="cls-40" cx="306.79" cy="408.71" r="51.31"/><circle class="cls-41" cx="306.79" cy="408.71" r="49.33"/><circle class="cls-42" cx="306.79" cy="408.71" r="47.36"/><circle class="cls-43" cx="306.79" cy="408.71" r="45.39"/><circle class="cls-44" cx="306.79" cy="408.71" r="43.41"/><circle class="cls-45" cx="306.79" cy="408.71" r="41.44"/><circle class="cls-46" cx="306.79" cy="408.71" r="39.47"/><circle class="cls-47" cx="306.79" cy="408.71" r="37.49"/><circle class="cls-48" cx="306.79" cy="408.71" r="35.52"/><circle class="cls-49" cx="306.79" cy="408.71" r="33.55"/><circle class="cls-50" cx="306.79" cy="408.71" r="31.57"/><circle class="cls-51" cx="306.79" cy="408.71" r="29.6"/><circle class="cls-52" cx="306.79" cy="408.71" r="27.63"/><circle class="cls-53" cx="306.79" cy="408.71" r="25.65"/><circle class="cls-54" cx="306.79" cy="408.71" r="23.68"/><circle class="cls-55" cx="306.79" cy="408.71" r="21.71"/><circle class="cls-56" cx="306.79" cy="408.71" r="19.73"/><circle class="cls-57" cx="306.79" cy="408.71" r="17.76"/><circle class="cls-58" cx="306.79" cy="408.71" r="15.79"/><circle class="cls-59" cx="306.79" cy="408.71" r="13.81"/><circle class="cls-60" cx="306.79" cy="408.71" r="11.84"/><circle class="cls-61" cx="306.79" cy="408.71" r="9.87"/><circle class="cls-62" cx="306.79" cy="408.71" r="7.89"/><circle class="cls-63" cx="306.79" cy="408.71" r="5.92"/><circle class="cls-64" cx="306.79" cy="408.71" r="3.95"/><circle class="cls-65" cx="306.79" cy="408.71" r="1.97"/></g><path class="cls-3" d="M787.8,44.22c-174.89,0-318.64,118.13-335.23,269.27L353,353.14s-6.51,2.41-5.85,11.74a12.7,12.7,0,0,0,7.43,10.89L458.82,407C492,541,626.68,641.26,787.8,641.26c186,0,336.84-133.65,336.84-298.52S973.83,44.22,787.8,44.22Z"/><path class="cls-66" d="M787.75,0C612.85,0,469.11,118.13,452.52,269.27L353,308.92s-6.51,2.41-5.86,11.74a12.7,12.7,0,0,0,7.44,10.88l104.21,31.28C492,496.78,626.63,597,787.75,597c186,0,336.84-133.65,336.84-298.52S973.78,0,787.75,0Z"/><path class="cls-67" d="M586.22,245.49h-1.35l-.24-3.24a6.11,6.11,0,0,0-2.19-1.63,7.3,7.3,0,0,0-3.12-.62,6.8,6.8,0,0,0-5.62,2.6,10.39,10.39,0,0,0-2.09,6.71v.31a10.51,10.51,0,0,0,2.07,6.73A6.57,6.57,0,0,0,579.1,259a8.15,8.15,0,0,0,3.25-.62,6,6,0,0,0,2.28-1.63l.24-3.24h1.35v3.75a7.4,7.4,0,0,1-2.87,2.3,9.53,9.53,0,0,1-4.25.92,8.29,8.29,0,0,1-6.63-3,11.59,11.59,0,0,1-2.58-7.78v-.28a11.64,11.64,0,0,1,2.57-7.8,8.38,8.38,0,0,1,6.73-3,9.2,9.2,0,0,1,4.2.93,7.6,7.6,0,0,1,2.83,2.31Z"/><path class="cls-67" d="M600.18,260.14c-.11-.54-.2-1-.24-1.39a9.51,9.51,0,0,1-.08-1.19,6.83,6.83,0,0,1-2.32,2.06,6.45,6.45,0,0,1-3.26.82,5,5,0,0,1-3.56-1.2,4.27,4.27,0,0,1-1.26-3.25,4,4,0,0,1,1.87-3.48,8.77,8.77,0,0,1,5.07-1.29h3.46v-2.1a3.38,3.38,0,0,0-1.08-2.66,4.33,4.33,0,0,0-3-1,7.48,7.48,0,0,0-2.38.36,5.48,5.48,0,0,0-1.81,1l-.14,2.13H590l0-3a8.79,8.79,0,0,1,2.6-1.38,9.75,9.75,0,0,1,3.22-.53,6.26,6.26,0,0,1,4.18,1.34,4.73,4.73,0,0,1,1.58,3.82v7.79c0,.33,0,.64,0,.93s0,.59.09.88l1.57.1v1.29Zm-5.71-1.25a6.19,6.19,0,0,0,3.32-.88,5.07,5.07,0,0,0,2.07-2.27v-3.18h-3.49a6.48,6.48,0,0,0-3.78,1,3,3,0,0,0-1.41,2.5,2.61,2.61,0,0,0,.88,2.06A3.49,3.49,0,0,0,594.47,258.89Z"/><path class="cls-67" d="M609.49,244.29l.22,2.63v.19a5.58,5.58,0,0,1,1.82-2.29,4.56,4.56,0,0,1,2.73-.83,3.31,3.31,0,0,1,.64.06,3.85,3.85,0,0,1,.52.11l-.23,1.64-1.29-.09a3.89,3.89,0,0,0-2.69.93,5.14,5.14,0,0,0-1.5,2.55v9.47l2.36.19v1.29h-6.45v-1.29l2.36-.19V245.78l-2.36-.19v-1.3h3.87Z"/><path class="cls-67" d="M617.38,252a8.58,8.58,0,0,1,1.89-5.74,6.77,6.77,0,0,1,10.08,0,8.53,8.53,0,0,1,1.9,5.74v.48a8.6,8.6,0,0,1-1.89,5.75,6.82,6.82,0,0,1-10.09,0,8.6,8.6,0,0,1-1.89-5.75Zm1.73.48a7.59,7.59,0,0,0,1.38,4.63,4.49,4.49,0,0,0,3.84,1.87,4.45,4.45,0,0,0,3.8-1.87,7.59,7.59,0,0,0,1.38-4.63V252a7.52,7.52,0,0,0-1.39-4.6,4.8,4.8,0,0,0-7.63,0,7.58,7.58,0,0,0-1.38,4.6Z"/><path class="cls-67" d="M648,259a5,5,0,0,0,3-1,3.28,3.28,0,0,0,1.31-2.77h1.54l0,.09a4.36,4.36,0,0,1-1.73,3.67,6.42,6.42,0,0,1-4.2,1.48,5.91,5.91,0,0,1-4.94-2.22,8.9,8.9,0,0,1-1.76-5.7v-.62a8.91,8.91,0,0,1,1.76-5.68A5.93,5.93,0,0,1,648,244a7.93,7.93,0,0,1,3.32.69,6.62,6.62,0,0,1,2.45,1.88l.07,3.45h-1.48l-.28-2.81a4.91,4.91,0,0,0-1.73-1.25,5.66,5.66,0,0,0-2.35-.46,4.19,4.19,0,0,0-3.74,1.82A8.21,8.21,0,0,0,643,251.9v.62a8.17,8.17,0,0,0,1.21,4.63A4.17,4.17,0,0,0,648,259Z"/><path class="cls-67" d="M668.68,257.53a5.45,5.45,0,0,1-2,2.15,5.83,5.83,0,0,1-3,.76,4.73,4.73,0,0,1-3.87-1.69c-.94-1.14-1.4-2.9-1.4-5.28v-7.69l-2-.19v-1.3h3.67v9.21a6.9,6.9,0,0,0,1,4.16,3.31,3.31,0,0,0,2.78,1.26A5,5,0,0,0,667,258a4.62,4.62,0,0,0,1.65-2.43v-9.83l-2.23-.19v-1.3h4v14.37l2.1.19v1.29h-3.62Z"/><path class="cls-67" d="M678.77,244.29l.21,2.63v.19a5.75,5.75,0,0,1,1.82-2.29,4.59,4.59,0,0,1,2.74-.83,3.39,3.39,0,0,1,.64.06,3.85,3.85,0,0,1,.52.11l-.24,1.64-1.29-.09a3.89,3.89,0,0,0-2.68.93,5.09,5.09,0,0,0-1.51,2.55v9.47l2.37.19v1.29H674.9v-1.29l2.36-.19V245.78l-2.36-.19v-1.3h3.87Z"/><path class="cls-67" d="M698.32,249.18H696.9l-.2-2.24a4.33,4.33,0,0,0-1.65-1.07,6.41,6.41,0,0,0-2.28-.38,4.22,4.22,0,0,0-2.85.83,2.5,2.5,0,0,0-.95,1.94,2.32,2.32,0,0,0,.82,1.81,7.94,7.94,0,0,0,3.27,1.26,10.73,10.73,0,0,1,4.19,1.72,3.57,3.57,0,0,1,1.39,3,3.86,3.86,0,0,1-1.58,3.2,6.68,6.68,0,0,1-4.2,1.22,9.63,9.63,0,0,1-3.17-.49,7.25,7.25,0,0,1-2.47-1.38v-3.19h1.41l.24,2.25a4.06,4.06,0,0,0,1.76,1,7.85,7.85,0,0,0,2.23.31,4.76,4.76,0,0,0,3-.83,2.47,2.47,0,0,0,1.09-2,2.6,2.6,0,0,0-.91-2,7.22,7.22,0,0,0-3.27-1.36,10.91,10.91,0,0,1-4.15-1.64,3.32,3.32,0,0,1-1.36-2.84,3.81,3.81,0,0,1,1.53-3.07,6.07,6.07,0,0,1,4-1.26,8.83,8.83,0,0,1,3.15.54,6.42,6.42,0,0,1,2.33,1.44Z"/><path class="cls-67" d="M701.69,258.85l2.36-.19V245.78l-2.36-.19v-1.3h4.08v14.37l2.37.19v1.29h-6.45Zm4.08-19.1h-1.72v-2.46h1.72Z"/><path class="cls-67" d="M722.43,249.18H721l-.2-2.24a4.41,4.41,0,0,0-1.65-1.07,6.41,6.41,0,0,0-2.28-.38,4.18,4.18,0,0,0-2.85.83,2.5,2.5,0,0,0-.95,1.94,2.29,2.29,0,0,0,.82,1.81,7.94,7.94,0,0,0,3.27,1.26,10.8,10.8,0,0,1,4.19,1.72,3.57,3.57,0,0,1,1.39,3,3.84,3.84,0,0,1-1.59,3.2,6.65,6.65,0,0,1-4.19,1.22,9.63,9.63,0,0,1-3.17-.49,7.25,7.25,0,0,1-2.47-1.38v-3.19h1.4l.25,2.25a4,4,0,0,0,1.76,1A7.8,7.8,0,0,0,717,259a4.76,4.76,0,0,0,3-.83,2.49,2.49,0,0,0,1.08-2,2.59,2.59,0,0,0-.9-2,7.27,7.27,0,0,0-3.27-1.36,10.84,10.84,0,0,1-4.15-1.64,3.32,3.32,0,0,1-1.36-2.84,3.83,3.83,0,0,1,1.52-3.07,6.12,6.12,0,0,1,4-1.26,8.83,8.83,0,0,1,3.15.54,6.5,6.5,0,0,1,2.33,1.44Z"/><path class="cls-67" d="M729.9,240.23v4.06h3.45v1.43H729.9v10.33a3.39,3.39,0,0,0,.55,2.2,1.87,1.87,0,0,0,1.49.66c.28,0,.55,0,.82,0s.57-.07.92-.12l.26,1.3a4.36,4.36,0,0,1-1.06.29,7.41,7.41,0,0,1-1.24.1,3.25,3.25,0,0,1-2.58-1.05,5,5,0,0,1-.92-3.34V245.72h-2.69v-1.43h2.69v-4.06Z"/><path class="cls-67" d="M747.36,260.14c-.11-.54-.19-1-.24-1.39a9.5,9.5,0,0,1-.07-1.19,6.92,6.92,0,0,1-2.32,2.06,6.51,6.51,0,0,1-3.27.82,5,5,0,0,1-3.56-1.2,4.27,4.27,0,0,1-1.26-3.25,4,4,0,0,1,1.87-3.48,8.77,8.77,0,0,1,5.07-1.29h3.47v-2.1a3.41,3.41,0,0,0-1.08-2.66,4.36,4.36,0,0,0-3-1,7.48,7.48,0,0,0-2.38.36,5.48,5.48,0,0,0-1.81,1l-.14,2.13h-1.44l0-3a8.79,8.79,0,0,1,2.6-1.38A9.75,9.75,0,0,1,743,244a6.24,6.24,0,0,1,4.18,1.34,4.73,4.73,0,0,1,1.58,3.82v7.79c0,.33,0,.64,0,.93a8.46,8.46,0,0,0,.1.88l1.56.1v1.29Zm-5.71-1.25A6.17,6.17,0,0,0,745,258a5.15,5.15,0,0,0,2.08-2.27v-3.18h-3.5a6.45,6.45,0,0,0-3.77,1,2.94,2.94,0,0,0-1.42,2.5,2.61,2.61,0,0,0,.88,2.06A3.49,3.49,0,0,0,741.65,258.89Z"/><path class="cls-67" d="M755.44,259.43a6.61,6.61,0,0,1-.55,2.64,6.24,6.24,0,0,1-1.48,2.18l-1-.76a7.73,7.73,0,0,0,1-1.92,6.67,6.67,0,0,0,.32-2.11v-2.08h1.73Z"/><path class="cls-67" d="M580.7,293.85a5.39,5.39,0,0,1-2,1.92,5.9,5.9,0,0,1-2.89.67,5.16,5.16,0,0,1-4.4-2.12,9.26,9.26,0,0,1-1.59-5.67v-.31a10.41,10.41,0,0,1,1.59-6.07,5.07,5.07,0,0,1,4.42-2.28,5.65,5.65,0,0,1,2.85.7,5.82,5.82,0,0,1,2,2v-7.89l-2.37-.19v-1.3h4.11v21.37l2.36.19v1.29h-3.92Zm-9.15-5.2a8.07,8.07,0,0,0,1.14,4.57,3.86,3.86,0,0,0,3.43,1.7,4.85,4.85,0,0,0,2.79-.76,5.1,5.1,0,0,0,1.75-2.1v-7.5a5.48,5.48,0,0,0-1.68-2.19,4.46,4.46,0,0,0-2.83-.85,3.78,3.78,0,0,0-3.45,1.89,9.49,9.49,0,0,0-1.15,4.93Z"/><path class="cls-67" d="M594.34,296.44a6.28,6.28,0,0,1-4.9-2.19,8.08,8.08,0,0,1-1.94-5.57v-.8a8.31,8.31,0,0,1,1.93-5.64,6,6,0,0,1,4.68-2.25,5.81,5.81,0,0,1,4.54,1.85,7.11,7.11,0,0,1,1.65,4.92v1.5H589.22v.42a7,7,0,0,0,1.42,4.48,4.47,4.47,0,0,0,3.7,1.8,7.6,7.6,0,0,0,2.76-.45,5.47,5.47,0,0,0,1.95-1.3l.74,1.2a6.22,6.22,0,0,1-2.23,1.48A8.44,8.44,0,0,1,594.34,296.44Zm-.23-14.95a4.14,4.14,0,0,0-3.23,1.48,6.51,6.51,0,0,0-1.53,3.73l0,.08h9.19v-.44a5.11,5.11,0,0,0-1.2-3.46A4.08,4.08,0,0,0,594.11,281.49Z"/><path class="cls-67" d="M602.94,281.59v-1.3h3.81l.22,2.46a5.45,5.45,0,0,1,4.94-2.76,5.1,5.1,0,0,1,4.42,2.28,10.41,10.41,0,0,1,1.6,6.07v.31a9.25,9.25,0,0,1-1.6,5.68,5.19,5.19,0,0,1-4.39,2.11,6.28,6.28,0,0,1-2.89-.63,5.44,5.44,0,0,1-2-1.81v6.74l2.37.19v1.3h-6.45v-1.3l2.36-.19v-19Zm13.25,6.75a9.19,9.19,0,0,0-1.19-4.92,3.84,3.84,0,0,0-3.48-1.9,4.55,4.55,0,0,0-2.85.84,5.18,5.18,0,0,0-1.65,2.19v7.62a4.81,4.81,0,0,0,1.72,2.05,5,5,0,0,0,2.81.74,3.94,3.94,0,0,0,3.46-1.72,8.07,8.07,0,0,0,1.18-4.59Z"/><path class="cls-67" d="M620.75,288a8.58,8.58,0,0,1,1.9-5.74,6.77,6.77,0,0,1,10.08,0,8.58,8.58,0,0,1,1.9,5.74v.48a8.56,8.56,0,0,1-1.9,5.75,6.24,6.24,0,0,1-5,2.23,6.3,6.3,0,0,1-5.06-2.23,8.61,8.61,0,0,1-1.9-5.75Zm1.74.48a7.59,7.59,0,0,0,1.38,4.63,4.49,4.49,0,0,0,3.84,1.87,4.45,4.45,0,0,0,3.8-1.87,7.59,7.59,0,0,0,1.38-4.63V288a7.52,7.52,0,0,0-1.39-4.6,4.8,4.8,0,0,0-7.63,0,7.58,7.58,0,0,0-1.38,4.6Z"/><path class="cls-67" d="M637.34,294.85l2.36-.19V281.78l-2.36-.19v-1.3h4.09v14.37l2.36.19v1.29h-6.45Zm4.09-19.1H639.7v-2.46h1.73Z"/><path class="cls-67" d="M658.08,285.18h-1.42l-.2-2.24a4.41,4.41,0,0,0-1.65-1.07,6.41,6.41,0,0,0-2.28-.38,4.18,4.18,0,0,0-2.85.83,2.5,2.5,0,0,0-.95,1.94,2.32,2.32,0,0,0,.82,1.81,7.94,7.94,0,0,0,3.27,1.26,10.8,10.8,0,0,1,4.19,1.72,3.57,3.57,0,0,1,1.39,3,3.84,3.84,0,0,1-1.59,3.2,6.63,6.63,0,0,1-4.19,1.22,9.63,9.63,0,0,1-3.17-.49,7.25,7.25,0,0,1-2.47-1.38v-3.19h1.4l.25,2.25a4,4,0,0,0,1.76,1,7.8,7.8,0,0,0,2.23.31,4.76,4.76,0,0,0,3-.83,2.5,2.5,0,0,0,1.09-2,2.6,2.6,0,0,0-.91-1.95,7.22,7.22,0,0,0-3.27-1.36,10.91,10.91,0,0,1-4.15-1.64,3.32,3.32,0,0,1-1.36-2.84,3.83,3.83,0,0,1,1.52-3.07,6.12,6.12,0,0,1,4-1.26,8.83,8.83,0,0,1,3.15.54A6.42,6.42,0,0,1,658,282Z"/><path class="cls-67" d="M679.68,293.85a5.43,5.43,0,0,1-2,1.92,6,6,0,0,1-2.9.67,5.17,5.17,0,0,1-4.4-2.12,9.26,9.26,0,0,1-1.59-5.67v-.31a10.41,10.41,0,0,1,1.59-6.07A5.09,5.09,0,0,1,674.8,280a5.64,5.64,0,0,1,2.84.7,5.74,5.74,0,0,1,2,2v-7.89l-2.37-.19v-1.3h4.11v21.37l2.36.19v1.29h-3.91Zm-9.15-5.2a8.07,8.07,0,0,0,1.14,4.57,3.86,3.86,0,0,0,3.43,1.7,4.85,4.85,0,0,0,2.79-.76,5.1,5.1,0,0,0,1.75-2.1v-7.5a5.48,5.48,0,0,0-1.68-2.19,4.46,4.46,0,0,0-2.83-.85,3.76,3.76,0,0,0-3.44,1.89,9.39,9.39,0,0,0-1.16,4.93Z"/><path class="cls-67" d="M697.24,296.14c-.12-.54-.2-1-.25-1.39a9.5,9.5,0,0,1-.07-1.19,6.92,6.92,0,0,1-2.32,2.06,6.5,6.5,0,0,1-3.26.82,5,5,0,0,1-3.57-1.2,4.27,4.27,0,0,1-1.26-3.25,4,4,0,0,1,1.87-3.48,8.81,8.81,0,0,1,5.07-1.29h3.47v-2.1a3.38,3.38,0,0,0-1.08-2.66,4.36,4.36,0,0,0-3-1,7.48,7.48,0,0,0-2.38.36,5.33,5.33,0,0,0-1.8,1l-.15,2.13h-1.43V281.9a8.79,8.79,0,0,1,2.6-1.38,9.81,9.81,0,0,1,3.23-.53,6.23,6.23,0,0,1,4.17,1.34,4.7,4.7,0,0,1,1.58,3.82v7.79c0,.33,0,.64,0,.93a8.46,8.46,0,0,0,.1.88l1.56.1v1.29Zm-5.72-1.25a6.17,6.17,0,0,0,3.32-.88,5.15,5.15,0,0,0,2.08-2.27v-3.18h-3.5a6.45,6.45,0,0,0-3.77,1,3,3,0,0,0-1.42,2.5,2.65,2.65,0,0,0,.88,2.06A3.51,3.51,0,0,0,691.52,294.89Z"/><path class="cls-67" d="M709.76,281.72v-1.43h2.6V278a5.29,5.29,0,0,1,1.18-3.69,4.27,4.27,0,0,1,3.32-1.3,6.39,6.39,0,0,1,1,.07,9.39,9.39,0,0,1,1,.21l-.22,1.45a5.57,5.57,0,0,0-.71-.14,5.32,5.32,0,0,0-.85-.05,2.68,2.68,0,0,0-2.18.9,3.86,3.86,0,0,0-.76,2.55v2.32h3.74v1.43H714.1v12.94l2.36.19v1.29H710v-1.29l2.37-.19V281.72Z"/><path class="cls-67" d="M727.08,296.44a6.28,6.28,0,0,1-4.9-2.19,8.08,8.08,0,0,1-1.94-5.57v-.8a8.31,8.31,0,0,1,1.94-5.64,6,6,0,0,1,4.67-2.25,5.79,5.79,0,0,1,4.54,1.85,7.11,7.11,0,0,1,1.65,4.92v1.5H722v.42a7.08,7.08,0,0,0,1.41,4.48,4.48,4.48,0,0,0,3.7,1.8,7.56,7.56,0,0,0,2.76-.45,5.6,5.6,0,0,0,2-1.3l.73,1.2a6.22,6.22,0,0,1-2.23,1.48A8.44,8.44,0,0,1,727.08,296.44Zm-.23-14.95a4.12,4.12,0,0,0-3.22,1.48,6.38,6.38,0,0,0-1.53,3.73l0,.08h9.19v-.44a5.07,5.07,0,0,0-1.21-3.46A4.08,4.08,0,0,0,726.85,281.49Z"/><path class="cls-67" d="M747.52,285.18H746.1l-.2-2.24a4.26,4.26,0,0,0-1.65-1.07,6.41,6.41,0,0,0-2.28-.38,4.22,4.22,0,0,0-2.85.83,2.5,2.5,0,0,0-1,1.94,2.32,2.32,0,0,0,.82,1.81,7.94,7.94,0,0,0,3.27,1.26,10.73,10.73,0,0,1,4.19,1.72,3.57,3.57,0,0,1,1.39,3,3.86,3.86,0,0,1-1.58,3.2,6.68,6.68,0,0,1-4.2,1.22,9.63,9.63,0,0,1-3.17-.49,7.25,7.25,0,0,1-2.47-1.38v-3.19h1.41l.24,2.25a4.06,4.06,0,0,0,1.76,1,7.85,7.85,0,0,0,2.23.31,4.74,4.74,0,0,0,3-.83,2.47,2.47,0,0,0,1.09-2,2.6,2.6,0,0,0-.91-1.95,7.22,7.22,0,0,0-3.27-1.36,10.91,10.91,0,0,1-4.15-1.64,3.34,3.34,0,0,1-1.36-2.84,3.81,3.81,0,0,1,1.53-3.07,6.07,6.07,0,0,1,4-1.26,8.83,8.83,0,0,1,3.15.54,6.42,6.42,0,0,1,2.33,1.44Z"/><path class="cls-67" d="M755,276.23v4.06h3.45v1.43H755v10.33a3.38,3.38,0,0,0,.56,2.2,1.83,1.83,0,0,0,1.48.66c.28,0,.56,0,.82,0s.57-.07.92-.12l.26,1.3a4.36,4.36,0,0,1-1.06.29,7.41,7.41,0,0,1-1.24.1,3.23,3.23,0,0,1-2.57-1.05,5,5,0,0,1-.93-3.34V281.72h-2.69v-1.43h2.69v-4.06Z"/><path class="cls-67" d="M772.46,296.14c-.12-.54-.2-1-.25-1.39a9.5,9.5,0,0,1-.07-1.19,6.92,6.92,0,0,1-2.32,2.06,6.5,6.5,0,0,1-3.26.82,5,5,0,0,1-3.57-1.2,4.27,4.27,0,0,1-1.26-3.25,4,4,0,0,1,1.87-3.48,8.81,8.81,0,0,1,5.07-1.29h3.47v-2.1a3.38,3.38,0,0,0-1.08-2.66,4.35,4.35,0,0,0-3-1,7.54,7.54,0,0,0-2.39.36,5.33,5.33,0,0,0-1.8,1L763.7,285h-1.43V281.9a8.92,8.92,0,0,1,2.6-1.38,9.81,9.81,0,0,1,3.23-.53,6.23,6.23,0,0,1,4.17,1.34,4.7,4.7,0,0,1,1.58,3.82v7.79q0,.49,0,.93a6.4,6.4,0,0,0,.09.88l1.56.1v1.29Zm-5.71-1.25a6.16,6.16,0,0,0,3.31-.88,5.15,5.15,0,0,0,2.08-2.27v-3.18h-3.5a6.45,6.45,0,0,0-3.77,1,3,3,0,0,0-1.42,2.5,2.65,2.65,0,0,0,.88,2.06A3.52,3.52,0,0,0,766.75,294.89Z"/><path class="cls-67" d="M780.53,295.43a6.78,6.78,0,0,1-.54,2.64,6.26,6.26,0,0,1-1.49,2.18l-1-.76a7.41,7.41,0,0,0,1-1.92,6.4,6.4,0,0,0,.33-2.11v-2.08h1.72Z"/><path class="cls-67" d="M795.46,281.59l-2,.15,3.91,10.43.51,1.86H798l.55-1.86,3.86-10.43-2-.15v-1.3h5.28v1.3l-1.54.13-5.53,14.42h-1.4l-5.55-14.42-1.53-.13v-1.3h5.27Z"/><path class="cls-67" d="M807.44,288a8.53,8.53,0,0,1,1.9-5.74,6.76,6.76,0,0,1,10.07,0,8.53,8.53,0,0,1,1.9,5.74v.48a8.6,8.6,0,0,1-1.89,5.75,6.81,6.81,0,0,1-10.08,0,8.56,8.56,0,0,1-1.9-5.75Zm1.74.48a7.59,7.59,0,0,0,1.37,4.63,4.49,4.49,0,0,0,3.84,1.87,4.45,4.45,0,0,0,3.8-1.87,7.59,7.59,0,0,0,1.38-4.63V288a7.52,7.52,0,0,0-1.39-4.6,4.8,4.8,0,0,0-7.63,0,7.58,7.58,0,0,0-1.37,4.6Z"/><path class="cls-67" d="M835.66,293.53a5.38,5.38,0,0,1-2,2.15,5.79,5.79,0,0,1-3,.76,4.74,4.74,0,0,1-3.88-1.69q-1.4-1.71-1.4-5.28v-7.69l-1.94-.19v-1.3h3.66v9.21a6.9,6.9,0,0,0,1,4.16,3.31,3.31,0,0,0,2.78,1.26A5.09,5.09,0,0,0,834,294a4.66,4.66,0,0,0,1.64-2.43v-9.83l-2.23-.19v-1.3h4v14.37l2.1.19v1.29h-3.62Z"/><path class="cls-67" d="M853,280.29l.22,2.63v.19a5.58,5.58,0,0,1,1.82-2.29,4.53,4.53,0,0,1,2.73-.83,3.31,3.31,0,0,1,.64.06,3.85,3.85,0,0,1,.52.11l-.23,1.64-1.29-.09a3.89,3.89,0,0,0-2.69.93,5.14,5.14,0,0,0-1.5,2.55v9.47l2.36.19v1.29H849.1v-1.29l2.36-.19V281.78l-2.36-.19v-1.3H853Z"/><path class="cls-67" d="M867.78,296.44a6.28,6.28,0,0,1-4.9-2.19,8.08,8.08,0,0,1-1.94-5.57v-.8a8.31,8.31,0,0,1,1.94-5.64,6,6,0,0,1,4.67-2.25,5.79,5.79,0,0,1,4.54,1.85,7.11,7.11,0,0,1,1.65,4.92v1.5H862.67v.42a7.08,7.08,0,0,0,1.41,4.48,4.48,4.48,0,0,0,3.7,1.8,7.56,7.56,0,0,0,2.76-.45,5.6,5.6,0,0,0,2-1.3l.73,1.2a6.22,6.22,0,0,1-2.23,1.48A8.44,8.44,0,0,1,867.78,296.44Zm-.23-14.95a4.12,4.12,0,0,0-3.22,1.48,6.38,6.38,0,0,0-1.53,3.73l0,.08H872v-.44a5.07,5.07,0,0,0-1.21-3.46A4.08,4.08,0,0,0,867.55,281.49Z"/><path class="cls-67" d="M880.83,276.23v4.06h3.45v1.43h-3.45v10.33a3.38,3.38,0,0,0,.56,2.2,1.85,1.85,0,0,0,1.48.66c.28,0,.56,0,.82,0s.58-.07.92-.12l.27,1.3a4.49,4.49,0,0,1-1.06.29,7.53,7.53,0,0,1-1.25.1,3.23,3.23,0,0,1-2.57-1.05,5,5,0,0,1-.92-3.34V281.72h-2.7v-1.43h2.7v-4.06Z"/><path class="cls-67" d="M887.18,288a8.53,8.53,0,0,1,1.9-5.74,6.76,6.76,0,0,1,10.07,0,8.53,8.53,0,0,1,1.9,5.74v.48a8.6,8.6,0,0,1-1.89,5.75,6.24,6.24,0,0,1-5,2.23,6.3,6.3,0,0,1-5.06-2.23,8.56,8.56,0,0,1-1.9-5.75Zm1.74.48a7.59,7.59,0,0,0,1.38,4.63,4.84,4.84,0,0,0,7.64,0,7.65,7.65,0,0,0,1.37-4.63V288a7.58,7.58,0,0,0-1.38-4.6,4.8,4.8,0,0,0-7.63,0,7.58,7.58,0,0,0-1.38,4.6Z"/><path class="cls-67" d="M903.5,281.59v-1.3h3.9l.16,2.62a5.45,5.45,0,0,1,2-2.15,5.67,5.67,0,0,1,3-.77,4.92,4.92,0,0,1,3,.89,4.85,4.85,0,0,1,1.72,2.7,6.2,6.2,0,0,1,2-2.63,5.25,5.25,0,0,1,3.19-1,4.73,4.73,0,0,1,3.88,1.69,8.2,8.2,0,0,1,1.37,5.21v7.75l2.36.21v1.29h-6.48v-1.29l2.37-.21v-7.78c0-1.95-.34-3.33-1-4.13a3.51,3.51,0,0,0-2.84-1.21,3.85,3.85,0,0,0-3.13,1.3,6.27,6.27,0,0,0-1.35,3.33v.22a1.86,1.86,0,0,1,0,.26v8l2.36.19v1.29h-6.46v-1.29l2.36-.19v-7.8a6.33,6.33,0,0,0-1-4.1,3.5,3.5,0,0,0-2.84-1.24,4.31,4.31,0,0,0-2.94.94,5,5,0,0,0-1.51,2.54v9.66l2.36.19v1.29H903.5v-1.29l2.37-.19V281.78Z"/><path class="cls-67" d="M943.11,296.14c-.12-.54-.2-1-.25-1.39a9.5,9.5,0,0,1-.07-1.19,6.92,6.92,0,0,1-2.32,2.06,6.47,6.47,0,0,1-3.26.82,5,5,0,0,1-3.57-1.2,4.27,4.27,0,0,1-1.26-3.25,4,4,0,0,1,1.87-3.48,8.81,8.81,0,0,1,5.07-1.29h3.47v-2.1a3.38,3.38,0,0,0-1.08-2.66,4.35,4.35,0,0,0-3-1,7.54,7.54,0,0,0-2.39.36,5.33,5.33,0,0,0-1.8,1l-.15,2.13h-1.43V281.9a8.92,8.92,0,0,1,2.6-1.38,9.81,9.81,0,0,1,3.23-.53,6.23,6.23,0,0,1,4.17,1.34,4.7,4.7,0,0,1,1.58,3.82v7.79q0,.49,0,.93a6.4,6.4,0,0,0,.09.88l1.56.1v1.29Zm-5.71-1.25a6.22,6.22,0,0,0,3.32-.88,5.19,5.19,0,0,0,2.07-2.27v-3.18H939.3a6.46,6.46,0,0,0-3.78,1,3,3,0,0,0-1.42,2.5,2.65,2.65,0,0,0,.88,2.06A3.52,3.52,0,0,0,937.4,294.89Z"/><path class="cls-67" d="M952.41,280.29l.22,2.63v.19a5.66,5.66,0,0,1,1.82-2.29,4.58,4.58,0,0,1,2.73-.83,3.42,3.42,0,0,1,.65.06,3.37,3.37,0,0,1,.51.11l-.23,1.64-1.29-.09a3.91,3.91,0,0,0-2.69.93,5.14,5.14,0,0,0-1.5,2.55v9.47l2.36.19v1.29h-6.45v-1.29l2.37-.19V281.78l-2.37-.19v-1.3h3.87Z"/><path class="cls-67" d="M978.64,296.14c-.12-.54-.2-1-.25-1.39a9.5,9.5,0,0,1-.07-1.19,6.83,6.83,0,0,1-2.32,2.06,6.47,6.47,0,0,1-3.26.82,5,5,0,0,1-3.57-1.2,4.27,4.27,0,0,1-1.26-3.25,4,4,0,0,1,1.87-3.48,8.81,8.81,0,0,1,5.07-1.29h3.47v-2.1a3.38,3.38,0,0,0-1.08-2.66,4.35,4.35,0,0,0-3-1,7.54,7.54,0,0,0-2.39.36,5.33,5.33,0,0,0-1.8,1l-.15,2.13h-1.43V281.9a8.92,8.92,0,0,1,2.6-1.38,9.81,9.81,0,0,1,3.23-.53,6.23,6.23,0,0,1,4.17,1.34,4.7,4.7,0,0,1,1.58,3.82v7.79q0,.49,0,.93a6.4,6.4,0,0,0,.09.88l1.56.1v1.29Zm-5.71-1.25a6.22,6.22,0,0,0,3.32-.88,5.19,5.19,0,0,0,2.07-2.27v-3.18h-3.49a6.46,6.46,0,0,0-3.78,1,3,3,0,0,0-1.41,2.5,2.64,2.64,0,0,0,.87,2.06A3.52,3.52,0,0,0,972.93,294.89Z"/><path class="cls-67" d="M573.55,316.29l.22,2.63v.19a5.58,5.58,0,0,1,1.82-2.29,4.58,4.58,0,0,1,2.73-.83,3.49,3.49,0,0,1,.65.06,3.37,3.37,0,0,1,.51.11l-.23,1.64-1.29-.09a3.91,3.91,0,0,0-2.69.93,5.14,5.14,0,0,0-1.5,2.55v9.47l2.36.19v1.29h-6.45v-1.29l2.37-.19V317.78l-2.37-.19v-1.3h3.87Z"/><path class="cls-67" d="M581.44,324a8.53,8.53,0,0,1,1.9-5.74,6.76,6.76,0,0,1,10.07,0,8.53,8.53,0,0,1,1.9,5.74v.48a8.6,8.6,0,0,1-1.89,5.75,6.81,6.81,0,0,1-10.08,0,8.56,8.56,0,0,1-1.9-5.75Zm1.74.48a7.59,7.59,0,0,0,1.38,4.63,4.83,4.83,0,0,0,7.63,0,7.59,7.59,0,0,0,1.38-4.63V324a7.58,7.58,0,0,0-1.38-4.6,4.49,4.49,0,0,0-3.82-1.89,4.43,4.43,0,0,0-3.81,1.89,7.58,7.58,0,0,0-1.38,4.6Z"/><path class="cls-67" d="M602.13,312.23v4.06h3.45v1.43h-3.45v10.33a3.39,3.39,0,0,0,.55,2.2,1.87,1.87,0,0,0,1.49.66c.28,0,.55,0,.82,0s.57-.07.92-.12l.26,1.3a4.36,4.36,0,0,1-1.06.29,7.44,7.44,0,0,1-1.25.1,3.25,3.25,0,0,1-2.57-1.05,5,5,0,0,1-.92-3.34V317.72h-2.69v-1.43h2.69v-4.06Z"/><path class="cls-67" d="M608.65,330.85l2.36-.19V317.78l-2.36-.19v-1.3h4.09v14.37l2.36.19v1.29h-6.45Zm4.09-19.1H611v-2.46h1.73Z"/><path class="cls-67" d="M617.69,330.85l2.37-.19V317.78l-2.37-.19v-1.3h3.9l.16,2.77a5.78,5.78,0,0,1,2-2.27,5.67,5.67,0,0,1,3-.8,4.8,4.8,0,0,1,3.88,1.58,7.5,7.5,0,0,1,1.34,4.91v8.18l2.36.19v1.29h-6.47v-1.29l2.37-.19V322.5a5.77,5.77,0,0,0-1-3.85,3.61,3.61,0,0,0-2.86-1.13,4.45,4.45,0,0,0-3,1,5.42,5.42,0,0,0-1.66,2.59v9.58l2.36.19v1.29h-6.47Z"/><path class="cls-67" d="M648,332.14c-.11-.54-.19-1-.24-1.39a9.51,9.51,0,0,1-.08-1.19,6.89,6.89,0,0,1-2.31,2.06,6.51,6.51,0,0,1-3.27.82,5,5,0,0,1-3.56-1.2,4.27,4.27,0,0,1-1.26-3.25,4,4,0,0,1,1.87-3.48,8.77,8.77,0,0,1,5.07-1.29h3.46v-2.1a3.38,3.38,0,0,0-1.08-2.66,4.32,4.32,0,0,0-3-1,7.48,7.48,0,0,0-2.38.36,5.48,5.48,0,0,0-1.81,1l-.14,2.13h-1.44l0-3.05a8.79,8.79,0,0,1,2.6-1.38,9.75,9.75,0,0,1,3.22-.53,6.24,6.24,0,0,1,4.18,1.34,4.73,4.73,0,0,1,1.58,3.82v7.79c0,.33,0,.64,0,.93a8.46,8.46,0,0,0,.1.88l1.56.1v1.29Zm-5.71-1.25a6.17,6.17,0,0,0,3.32-.88,5.07,5.07,0,0,0,2.07-2.27v-3.18h-3.49a6.45,6.45,0,0,0-3.77,1,2.94,2.94,0,0,0-1.42,2.5,2.61,2.61,0,0,0,.88,2.06A3.49,3.49,0,0,0,642.25,330.89Z"/><path class="cls-67" d="M656.24,332.14h-2.06v-2.45h2.06Zm-.17-7h-1.73V310.81h1.73Z"/><g class="cls-68"><path class="cls-69" d="M329.94,510.18s.78-10,4.41-10.57l24.22,31.55-9.37,5.44Z"/><path class="cls-65" d="M153.53,566.53s24.48-21.86,24.48-27-14.35-8.34-14.35-8.34l-20.41,29.5,9.58,7.33Z"/><path class="cls-67" d="M176.44,360.74s-46.9-131.84,7.44-198.9c0,0,58.11-39.81,101.53,7s13,178.54,13,178.54Z"/><g class="cls-70"><polygon class="cls-71" points="293.71 313.64 293.74 313.95 182.31 324.32 182.31 313.64 293.71 313.64"/><polygon class="cls-71" points="293.74 313.95 293.78 314.33 293.78 314.76 182.31 325.13 182.31 324.32 293.74 313.95"/><polygon class="cls-72" points="293.78 315.57 182.31 325.95 182.31 325.13 293.78 314.76 293.78 315.57"/><polygon class="cls-73" points="293.78 316.39 182.31 326.76 182.31 325.95 293.78 315.57 293.78 316.39"/><polygon class="cls-74" points="293.78 317.2 182.31 327.57 182.31 326.76 293.78 316.39 293.78 317.2"/><polygon class="cls-75" points="293.78 318.01 182.31 328.39 182.31 327.57 293.78 317.2 293.78 318.01"/><polygon class="cls-76" points="293.78 318.83 182.31 329.2 182.31 328.39 293.78 318.01 293.78 318.83"/><polygon class="cls-77" points="293.78 319.64 182.31 330.01 182.31 329.2 293.78 318.83 293.78 319.64"/><polygon class="cls-78" points="293.78 320.45 182.31 330.83 182.31 330.01 293.78 319.64 293.78 320.45"/><polygon class="cls-79" points="293.78 321.27 182.31 331.64 182.31 330.83 293.78 320.45 293.78 321.27"/><polygon class="cls-80" points="293.78 322.08 182.31 332.45 182.31 331.64 293.78 321.27 293.78 322.08"/><polygon class="cls-81" points="293.78 322.89 182.31 333.27 182.31 332.45 293.78 322.08 293.78 322.89"/><polygon class="cls-82" points="293.78 323.71 182.31 334.08 182.31 333.27 293.78 322.89 293.78 323.71"/><polygon class="cls-83" points="293.78 324.52 182.31 334.89 182.31 334.08 293.78 323.71 293.78 324.52"/><polygon class="cls-84" points="293.78 325.33 182.31 335.71 182.31 334.89 293.78 324.52 293.78 325.33"/><polygon class="cls-85" points="293.78 326.14 182.31 336.52 182.31 335.71 293.78 325.33 293.78 326.14"/><polygon class="cls-86" points="293.78 326.96 182.31 337.33 182.31 336.52 293.78 326.14 293.78 326.96"/><polygon class="cls-87" points="293.78 327.77 182.31 338.14 182.31 337.33 293.78 326.96 293.78 327.77"/><polygon class="cls-88" points="293.78 328.58 182.31 338.96 182.31 338.14 293.78 327.77 293.78 328.58"/><polygon class="cls-89" points="293.78 329.4 182.31 339.77 182.31 338.96 293.78 328.58 293.78 329.4"/><polygon class="cls-90" points="293.78 330.21 182.31 340.58 182.31 339.77 293.78 329.4 293.78 330.21"/><polygon class="cls-91" points="293.78 331.02 182.31 341.4 182.31 340.58 293.78 330.21 293.78 331.02"/><polygon class="cls-92" points="293.78 331.84 182.31 342.21 182.31 341.4 293.78 331.02 293.78 331.84"/><polygon class="cls-93" points="293.78 332.65 182.31 343.02 182.31 342.21 293.78 331.84 293.78 332.65"/><polygon class="cls-93" points="184.35 386.21 182.31 364.39 182.31 343.02 293.78 332.65 293.78 386.21 184.35 386.21"/></g><path class="cls-93" d="M182.6,222.54s-.88,110.78,64.76,101.68c35.49-4.92,47.51-40.41,40.88-70.91a191.62,191.62,0,0,1-3.79-46.77s-4.08-29.37-38.7-20.3S196.11,192,196.11,192,180.54,195.13,182.6,222.54Z"/><path class="cls-67" d="M177.07,228.73s25.09-2.78,36.43-7.67l.58-15.4s2.55,9.93,4.85,12.41,22.88-.74,32-3.59,4.81-14.7,4.81-14.7l4.34,11.86s28.57,3.44,28.73-.93S285,186,276.62,182s-73.88-4.43-83.08,4.1S177.53,216.52,177.07,228.73Z"/><ellipse class="cls-94" cx="262.95" cy="244.39" rx="3.92" ry="3.17" transform="translate(-22.42 26.6) rotate(-5.56)"/><ellipse class="cls-94" cx="223.88" cy="248.1" rx="3.92" ry="3.17" transform="translate(-22.97 22.84) rotate(-5.56)"/><path class="cls-95" d="M250.55,278.83a15.34,15.34,0,0,1-5.17-.8l.35-.94c5.16,1.91,13.88,0,15.56-3.33,1.13-2.28-1.44-4.53-3.78-6-6.89-4.38-5.32-8.93-5.25-9.13l.94.35c0,.16-1.33,4,4.84,7.94,4.88,3.1,4.95,5.69,4.14,7.31C260.72,277.15,255.37,278.83,250.55,278.83Z"/><path class="cls-96" d="M262,289.89c-18.37,4.75-31.32.71-30.6,2,0,0-.78,13.73,15.42,13.63C263.55,305.45,262,289.89,262,289.89Z"/><path class="cls-65" d="M219.38,333.59s22.52,13.65,36.94,11.8c6.84-.87,18.95-14,18.95-14l13,129.74-49.8,2.24Z"/><path class="cls-97" d="M172.66,557.55S155.05,630.13,157,650s4.68,52.17,34,146c0,0,78.26,32.38,150.2-.81,0,0,6.29-1.86,10.91-43.81s12.42-142.59-8.72-187.47S172.66,557.55,172.66,557.55Z"/><path class="cls-67" d="M270.81,230.55s-4.74-6.21-9.75-3.11a.89.89,0,0,0-.58,1.12c.25.84,1.91-1.63,9.83,2.73C270.31,231.29,270.81,231.58,270.81,230.55Z"/><path class="cls-67" d="M213.93,234s4.75-6.2,9.75-3.1a.89.89,0,0,1,.58,1.12c-.25.83-1.91-1.64-9.83,2.73C214.43,234.73,213.93,235,213.93,234Z"/><path class="cls-65" d="M259.62,290.44s-.65,3.21-2,4.12-15.59,1.66-24.11,1c-2.87-.24-2.32-2.92-2.18-3.89C231.35,291.63,246.09,293.49,259.62,290.44Z"/><path class="cls-98" d="M251.34,305.09s-1.86-9.5-19.13-7C232.21,298.13,235.94,307.82,251.34,305.09Z"/><ellipse class="cls-99" cx="281.01" cy="254.61" rx="3.62" ry="6.23" transform="translate(3.96 513.52) rotate(-85.24)"/><ellipse class="cls-99" cx="214.79" cy="263.85" rx="6.23" ry="3.62" transform="translate(-52.96 53.94) rotate(-12.76)"/><path class="cls-100" d="M334.61,435.84,357,461.35s-6.12,9.16-12,18.65c-6.27,10.12-15.54,20.35-13.57,20.57,4,.44,26.78,31.77,26.78,31.77l28-38s21.11-33.38,20.75-37-18.37-28.47-24.44-34.21c-3.74-3.54-9.95-8.73-15.17-16.12-29.22-41.32-56.53-70.82-58.39-72.35s-11-6.17-14.23-4.64-19.19,1.4-19.19,1.4l2.64,115.37L219.63,333.58s-12.56,4.34-26.08,2.61-36.24,3.62-36.24,3.62-10.24,27.71-17.55,29.81-11,20.26-11,20.26c-2.17,2.65-10.18,14.08-19.61,27.71h0s-37.48,45.94-43,49.92S63.56,481,63.56,481l78.84,83.79,27.83-35.52c-7.13-.49-43.13-49.77-43.13-49.77,2.53-4.53,2.3-8.25,1.56-10.71,17.3-18.49,42.63-47.19,42.63-47.19.41,4.07,6.47,16.8,16.93,32.52s9.69,42.14,9.69,42.14c-14.94,21.68-25,61.34-25,61.34s1,7.93,26.28,20.55c11,5.5,46.51,16.31,46.51,16.31l39.46-43.29,50.78,35.64s9.12-9.12,8.21-18.27S325.71,505,325.71,505s-1.89-19,.27-24.66S334.61,435.84,334.61,435.84Z"/><path class="cls-71" d="M153.53,566.53s12.2,10.71,14.67,8.24l12.43-35.2S165.06,550.81,153.53,566.53Z"/><path class="cls-93" d="M170.88,567.7s5.9-5.86,14.86,2.8,9.68,9.26,9.68,9.26,7,2.88,7.52-4.62c0,0,8.8,1.29,6.83-8.4,0,0,6.13-4.42.7-12,0,0,5.51-1.05,2.24-11.46s-24-20.47-24-20.47-9.94-3.49-10.82,8.08c0,0-7.16.37-4.66,10.37,0,0-4.65,4.21-3.65,8.77s-.11,3.67-.11,3.67S162.79,561.13,170.88,567.7Z"/><path class="cls-95" d="M202.56,575.46c-.11-.13-11.87-13.67-24.48-19.79l.43-.9c12.8,6.21,24.69,19.9,24.81,20Z"/><path class="cls-95" d="M209.42,567.1c-.17-.16-17.14-16.09-29.48-22.74l.48-.88c12.45,6.71,29.52,22.73,29.69,22.9Z"/><path class="cls-95" d="M210.09,555c-.15-.18-15.21-17.91-27.55-21.76l.3-1c12.61,4,27.39,21.33,28,22.07Z"/><path class="cls-93" d="M347.86,556.51l-16.17,4.75s-6.95,2.88-7.52-4.62c0,0-8.8,1.29-6.82-8.4,0,0-6.14-4.42-.71-12,0,0-5.51-1.05-2.24-11.46s15.67-13.15,15.67-13.15,9.94-3.49,10.82,8.07c0,0,7.16.38,4.66,10.37,0,0,4.65,4.21,3.65,8.78s.11,3.66.11,3.66S356,549.94,347.86,556.51Z"/><path class="cls-95" d="M324.44,557.06l-.54-.84A275.12,275.12,0,0,1,349.1,542l.43.9A273.55,273.55,0,0,0,324.44,557.06Z"/><path class="cls-95" d="M317.64,548.64l-.59-.8c.16-.12,15.84-11.55,28.27-18.25l.47.88C333.42,537.14,317.8,548.53,317.64,548.64Z"/><path class="cls-95" d="M317.07,536.46l-.86-.51c.09-.16,9.39-15.38,24.63-16.79l.09,1C326.2,521.52,317.16,536.31,317.07,536.46Z"/><path class="cls-101" d="M219.38,333.59S195.23,345.24,182.15,365l44.38,12.67s-15.11,14.85-14.79,18.07,66.17,51,66.17,51,33.54-61.51,29.81-64.56-24.29-6.81-24.29-6.81,19.48-27.6,22.87-27.94-28-16.36-31-16.06,2.52,110.28,2.52,110.28l-.15,2.38Z"/><path class="cls-97" d="M277.91,446.79s9.26,81.81,7,104.33"/><circle class="cls-101" cx="291.65" cy="471.48" r="5.33"/><circle class="cls-101" cx="293.78" cy="509.48" r="5.33"/><path class="cls-102" d="M173.81,404.74l-1-.23a76.6,76.6,0,0,0-11.55-60.85l.82-.58A77.66,77.66,0,0,1,173.81,404.74Z"/><path class="cls-102" d="M329.09,406.93l-1-.09c1.1-12.29-3.36-24.57-7.3-35.4-4.66-12.82-10-27.36-20.07-37.89l.72-.69c10.27,10.68,15.59,25.32,20.29,38.23C325.7,382,330.21,394.42,329.09,406.93Z"/><path class="cls-102" d="M146.32,377a27.46,27.46,0,0,0-3.49-7l.82-.57a28.62,28.62,0,0,1,3.62,7.2Z"/><path class="cls-102" d="M136,392.63a35.57,35.57,0,0,0-6.08-.83l0-1a35.6,35.6,0,0,1,6.25.86Z"/><path class="cls-102" d="M334.44,441l-1-.12a74.23,74.23,0,0,0,.43-11.92l1-.05A75.14,75.14,0,0,1,334.44,441Z"/><path class="cls-102" d="M355.5,460.4l-.14-1a75,75,0,0,1,12.07-.73l0,1A74.13,74.13,0,0,0,355.5,460.4Z"/><path class="cls-102" d="M365,468.05a59.33,59.33,0,0,0-8.69-6.35l.52-.86a62,62,0,0,1,8.83,6.45Z"/><path class="cls-102" d="M200.41,496.57l-.52-.85a60,60,0,0,1,11.6-5.55l.33.94A58.91,58.91,0,0,0,200.41,496.57Z"/><path class="cls-102" d="M127.77,469.24c-2.33,0-10-.2-12.54-2.74l.7-.71c2.66,2.65,12.37,2.44,12.47,2.45l0,1Z"/><path class="cls-102" d="M118.83,482.89v-1c3.43,0,7.7-2.82,7.74-2.85l.56.83C126.94,480,122.56,482.89,118.83,482.89Z"/></g></g></svg>