<svg xmlns="http://www.w3.org/2000/svg" xmlns:xlink="http://www.w3.org/1999/xlink" viewBox="0 0 1124.64 651.26"><defs><style>.cls-1{fill:none;}.cls-2{fill:#dd7a7a;}.cls-3{fill:#c6b366;}.cls-4{clip-path:url(#clip-path);}.cls-5{fill:#fff3c2;}.cls-6{fill:#fff3c3;}.cls-7{fill:#fff3c4;}.cls-8{fill:#fff4c5;}.cls-9{fill:#fff4c6;}.cls-10{fill:#fff4c7;}.cls-11{fill:#fff4c8;}.cls-12{fill:#fff4c9;}.cls-13{fill:#fff5ca;}.cls-14{fill:#fff5cb;}.cls-15{fill:#fff5cc;}.cls-16{fill:#fff5cd;}.cls-17{fill:#fff5ce;}.cls-18{fill:#fff6cf;}.cls-19{fill:#fff6d0;}.cls-20{fill:#fff6d1;}.cls-21{fill:#fff6d2;}.cls-22{fill:#fff6d3;}.cls-23{fill:#fff7d4;}.cls-24{fill:#fff7d5;}.cls-25{fill:#fff7d6;}.cls-26{fill:#fff7d7;}.cls-27{fill:#fff7d8;}.cls-28{fill:#fff8d9;}.cls-29{fill:#fff8da;}.cls-30{fill:#fff8db;}.cls-31{fill:#fff8dc;}.cls-32{fill:#fff8dd;}.cls-33{fill:#fff9de;}.cls-34{fill:#fff9df;}.cls-35{fill:#fff9e0;}.cls-36{fill:#fff9e2;}.cls-37{fill:#fff9e3;}.cls-38{fill:#fffae4;}.cls-39{fill:#fffae5;}.cls-40{fill:#fffae6;}.cls-41{fill:#fffae7;}.cls-42{fill:#fffae8;}.cls-43{fill:#fffbe9;}.cls-44{fill:#fffbea;}.cls-45{fill:#fffbeb;}.cls-46{fill:#fffbec;}.cls-47{fill:#fffbed;}.cls-48{fill:#fffcee;}.cls-49{fill:#fffcef;}.cls-50{fill:#fffcf0;}.cls-51{fill:#fffcf1;}.cls-52{fill:#fffcf2;}.cls-53{fill:#fffdf3;}.cls-54{fill:#fffdf4;}.cls-55{fill:#fffdf5;}.cls-56{fill:#fffdf6;}.cls-57{fill:#fffdf7;}.cls-58{fill:#fffef8;}.cls-59{fill:#fffef9;}.cls-60{fill:#fffefa;}.cls-61{fill:#fffefb;}.cls-62{fill:#fffefc;}.cls-63{fill:#fffffd;}.cls-64{fill:#fffffe;}.cls-65{fill:#fff;}.cls-66{fill:#ffeda1;}.cls-67{clip-path:url(#clip-path-2);}.cls-68{fill:#fffdfd;}.cls-69{fill:#3a1e1c;}.cls-70{clip-path:url(#clip-path-3);}.cls-71{fill:#d88268;}.cls-72{fill:#d98369;}.cls-73{fill:#da8469;}.cls-74{fill:#db856a;}.cls-75{fill:#dc866b;}.cls-76{fill:#dd876b;}.cls-77{fill:#de886c;}.cls-78{fill:#df896d;}.cls-79{fill:#e08a6d;}.cls-80{fill:#e18b6e;}.cls-81{fill:#e28c6f;}.cls-82{fill:#e48d70;}.cls-83{fill:#e58d70;}.cls-84{fill:#e68e71;}.cls-85{fill:#e78f72;}.cls-86{fill:#e89072;}.cls-87{fill:#e99173;}.cls-88{fill:#ea9274;}.cls-89{fill:#eb9374;}.cls-90{fill:#ec9475;}.cls-91{fill:#ed9576;}.cls-92{fill:#ee9676;}.cls-93{fill:#ef9777;}.cls-94{fill:#3d201f;}.cls-95{fill:#b5574d;}.cls-96{fill:#b3514e;}.cls-97{fill:#312235;}.cls-98{fill:#fc999c;}.cls-99{fill:#f9aaaa;}.cls-100{fill:#822222;}.cls-101{fill:#9b3737;}.cls-102{fill:#5b1f3c;}</style><clipPath id="clip-path"><path class="cls-1" d="M428.87,402.79a192.51,192.51,0,0,0-5.05-43.86c-32.69-73-109.23-124.15-198.45-124.15C106.43,234.78,10,325.78,10,438a193.16,193.16,0,0,0,5,43.87C47.74,554.84,124.28,606,213.5,606,332.44,606,428.87,515,428.87,402.79Z"/></clipPath><clipPath id="clip-path-2"><path class="cls-1" d="M541.11,351.64c-10.3-18-97.34-31.5-97.34-31.5S301.45,131.38,232.44,137.81s-80.25,56.58-80.25,56.58l-32.63,66.55C54.29,295.86,10.25,362,10.25,437.86c0,112.25,96.43,203.24,215.37,203.24,117.57,0,213.12-88.9,215.32-199.35C473.29,419.44,549.06,365.51,541.11,351.64Z"/></clipPath><clipPath id="clip-path-3"><path class="cls-1" d="M227.93,321.46l-2.36,9.79s-19.92,12.89-37.91,11.87c-5.34-.31,67.76,42.79,71.74,42.94s34.38-50.15,34.38-50.15-20.41-3.74-27.17-4-14.47-18.28-14.47-18.28Z"/></clipPath></defs><title>M2-fala1</title><g id="Camada_5" data-name="Camada 5"><path class="cls-2" d="M225.37,234.78c119,0,215.37,91,215.37,203.24S344.32,641.26,225.37,641.26,10,550.27,10,438s96.42-203.24,215.37-203.24m0-10a235.1,235.1,0,0,0-87.54,16.69A225.72,225.72,0,0,0,66.22,287,212.37,212.37,0,0,0,17.8,354.82a203.34,203.34,0,0,0,0,166.4A212.3,212.3,0,0,0,66.22,589a225.89,225.89,0,0,0,71.61,45.57,238.05,238.05,0,0,0,175.08,0A225.94,225.94,0,0,0,384.53,589a212.12,212.12,0,0,0,48.41-67.79,203.34,203.34,0,0,0,0-166.4A212.19,212.19,0,0,0,384.53,287a225.76,225.76,0,0,0-71.62-45.57,235.1,235.1,0,0,0-87.54-16.69Z"/><ellipse class="cls-3" cx="225.37" cy="438.02" rx="215.37" ry="203.24"/><g class="cls-4"><rect class="cls-5" x="10" y="234.78" width="418.87" height="371.24"/><path class="cls-5" d="M206.79,475.71a120.37,120.37,0,1,1,167,33A120.37,120.37,0,0,1,206.79,475.71Z"/><path class="cls-6" d="M208.43,474.61a118.4,118.4,0,1,1,164.26,32.46A118.39,118.39,0,0,1,208.43,474.61Z"/><path class="cls-7" d="M210.07,473.51a116.43,116.43,0,1,1,161.52,31.92A116.42,116.42,0,0,1,210.07,473.51Z"/><path class="cls-8" d="M211.71,472.41A114.45,114.45,0,1,1,370.5,503.79,114.44,114.44,0,0,1,211.71,472.41Z"/><circle class="cls-9" cx="306.79" cy="408.71" r="112.48"/><circle class="cls-10" cx="306.79" cy="408.71" r="110.5"/><circle class="cls-11" cx="306.79" cy="408.71" r="108.53"/><circle class="cls-12" cx="306.79" cy="408.71" r="106.56"/><circle class="cls-13" cx="306.79" cy="408.71" r="104.58"/><circle class="cls-14" cx="306.79" cy="408.71" r="102.61"/><circle class="cls-15" cx="306.79" cy="408.71" r="100.64"/><circle class="cls-16" cx="306.79" cy="408.71" r="98.66"/><circle class="cls-17" cx="306.79" cy="408.71" r="96.69"/><circle class="cls-18" cx="306.79" cy="408.71" r="94.72"/><circle class="cls-19" cx="306.79" cy="408.71" r="92.74"/><circle class="cls-20" cx="306.79" cy="408.71" r="90.77"/><circle class="cls-21" cx="306.79" cy="408.71" r="88.8"/><circle class="cls-22" cx="306.79" cy="408.71" r="86.82"/><circle class="cls-23" cx="306.79" cy="408.71" r="84.85"/><circle class="cls-24" cx="306.79" cy="408.71" r="82.88"/><circle class="cls-25" cx="306.79" cy="408.71" r="80.9"/><circle class="cls-26" cx="306.79" cy="408.71" r="78.93"/><circle class="cls-27" cx="306.79" cy="408.71" r="76.96"/><circle class="cls-28" cx="306.79" cy="408.71" r="74.98"/><circle class="cls-29" cx="306.79" cy="408.71" r="73.01"/><circle class="cls-30" cx="306.79" cy="408.71" r="71.04"/><circle class="cls-31" cx="306.79" cy="408.71" r="69.06"/><circle class="cls-32" cx="306.79" cy="408.71" r="67.09"/><circle class="cls-33" cx="306.79" cy="408.71" r="65.12"/><circle class="cls-34" cx="306.79" cy="408.71" r="63.15"/><circle class="cls-35" cx="306.79" cy="408.71" r="61.17"/><circle class="cls-36" cx="306.79" cy="408.71" r="59.2"/><circle class="cls-37" cx="306.79" cy="408.71" r="57.23"/><circle class="cls-38" cx="306.79" cy="408.71" r="55.25"/><circle class="cls-39" cx="306.79" cy="408.71" r="53.28"/><circle class="cls-40" cx="306.79" cy="408.71" r="51.31"/><circle class="cls-41" cx="306.79" cy="408.71" r="49.33"/><circle class="cls-42" cx="306.79" cy="408.71" r="47.36"/><circle class="cls-43" cx="306.79" cy="408.71" r="45.39"/><circle class="cls-44" cx="306.79" cy="408.71" r="43.41"/><circle class="cls-45" cx="306.79" cy="408.71" r="41.44"/><circle class="cls-46" cx="306.79" cy="408.71" r="39.47"/><circle class="cls-47" cx="306.79" cy="408.71" r="37.49"/><circle class="cls-48" cx="306.79" cy="408.71" r="35.52"/><circle class="cls-49" cx="306.79" cy="408.71" r="33.55"/><circle class="cls-50" cx="306.79" cy="408.71" r="31.57"/><circle class="cls-51" cx="306.79" cy="408.71" r="29.6"/><circle class="cls-52" cx="306.79" cy="408.71" r="27.63"/><circle class="cls-53" cx="306.79" cy="408.71" r="25.65"/><circle class="cls-54" cx="306.79" cy="408.71" r="23.68"/><circle class="cls-55" cx="306.79" cy="408.71" r="21.71"/><circle class="cls-56" cx="306.79" cy="408.71" r="19.73"/><circle class="cls-57" cx="306.79" cy="408.71" r="17.76"/><circle class="cls-58" cx="306.79" cy="408.71" r="15.79"/><circle class="cls-59" cx="306.79" cy="408.71" r="13.81"/><circle class="cls-60" cx="306.79" cy="408.71" r="11.84"/><circle class="cls-61" cx="306.79" cy="408.71" r="9.87"/><circle class="cls-62" cx="306.79" cy="408.71" r="7.89"/><circle class="cls-63" cx="306.79" cy="408.71" r="5.92"/><circle class="cls-64" cx="306.79" cy="408.71" r="3.95"/><circle class="cls-65" cx="306.79" cy="408.71" r="1.97"/></g><path class="cls-3" d="M787.8,44.22c-174.89,0-318.64,118.13-335.23,269.27L353,353.14s-6.51,2.41-5.85,11.74a12.7,12.7,0,0,0,7.43,10.89L458.82,407C492,541,626.68,641.26,787.8,641.26c186,0,336.84-133.65,336.84-298.52S973.83,44.22,787.8,44.22Z"/><path class="cls-66" d="M787.75,0C612.85,0,469.11,118.13,452.52,269.27L353,308.92s-6.51,2.41-5.86,11.74a12.7,12.7,0,0,0,7.44,10.88l104.21,31.28C492,496.78,626.63,597,787.75,597c186,0,336.84-133.65,336.84-298.52S973.78,0,787.75,0Z"/><g class="cls-67"><path class="cls-68" d="M329.94,510.18s.78-10,4.41-10.57l24.22,31.55-9.37,5.44Z"/><path class="cls-65" d="M153.53,566.53s24.48-21.86,24.48-27-14.35-8.34-14.35-8.34l-20.41,29.5,9.58,7.33Z"/><path class="cls-69" d="M176.44,360.74s-46.9-131.84,7.44-198.9c0,0,58.11-39.81,101.53,7s13,178.54,13,178.54Z"/><g class="cls-70"><polygon class="cls-71" points="293.71 313.64 293.74 313.95 182.31 324.32 182.31 313.64 293.71 313.64"/><polygon class="cls-71" points="293.74 313.95 293.78 314.33 293.78 314.76 182.31 325.13 182.31 324.32 293.74 313.95"/><polygon class="cls-72" points="293.78 315.57 182.31 325.95 182.31 325.13 293.78 314.76 293.78 315.57"/><polygon class="cls-73" points="293.78 316.39 182.31 326.76 182.31 325.95 293.78 315.57 293.78 316.39"/><polygon class="cls-74" points="293.78 317.2 182.31 327.57 182.31 326.76 293.78 316.39 293.78 317.2"/><polygon class="cls-75" points="293.78 318.01 182.31 328.39 182.31 327.57 293.78 317.2 293.78 318.01"/><polygon class="cls-76" points="293.78 318.83 182.31 329.2 182.31 328.39 293.78 318.01 293.78 318.83"/><polygon class="cls-77" points="293.78 319.64 182.31 330.01 182.31 329.2 293.78 318.83 293.78 319.64"/><polygon class="cls-78" points="293.78 320.45 182.31 330.83 182.31 330.01 293.78 319.64 293.78 320.45"/><polygon class="cls-79" points="293.78 321.27 182.31 331.64 182.31 330.83 293.78 320.45 293.78 321.27"/><polygon class="cls-80" points="293.78 322.08 182.31 332.45 182.31 331.64 293.78 321.27 293.78 322.08"/><polygon class="cls-81" points="293.78 322.89 182.31 333.27 182.31 332.45 293.78 322.08 293.78 322.89"/><polygon class="cls-82" points="293.78 323.71 182.31 334.08 182.31 333.27 293.78 322.89 293.78 323.71"/><polygon class="cls-83" points="293.78 324.52 182.31 334.89 182.31 334.08 293.78 323.71 293.78 324.52"/><polygon class="cls-84" points="293.78 325.33 182.31 335.71 182.31 334.89 293.78 324.52 293.78 325.33"/><polygon class="cls-85" points="293.78 326.14 182.31 336.52 182.31 335.71 293.78 325.33 293.78 326.14"/><polygon class="cls-86" points="293.78 326.96 182.31 337.33 182.31 336.52 293.78 326.14 293.78 326.96"/><polygon class="cls-87" points="293.78 327.77 182.31 338.14 182.31 337.33 293.78 326.96 293.78 327.77"/><polygon class="cls-88" points="293.78 328.58 182.31 338.96 182.31 338.14 293.78 327.77 293.78 328.58"/><polygon class="cls-89" points="293.78 329.4 182.31 339.77 182.31 338.96 293.78 328.58 293.78 329.4"/><polygon class="cls-90" points="293.78 330.21 182.31 340.58 182.31 339.77 293.78 329.4 293.78 330.21"/><polygon class="cls-91" points="293.78 331.02 182.31 341.4 182.31 340.58 293.78 330.21 293.78 331.02"/><polygon class="cls-92" points="293.78 331.84 182.31 342.21 182.31 341.4 293.78 331.02 293.78 331.84"/><polygon class="cls-93" points="293.78 332.65 182.31 343.02 182.31 342.21 293.78 331.84 293.78 332.65"/><polygon class="cls-93" points="184.35 386.21 182.31 364.39 182.31 343.02 293.78 332.65 293.78 386.21 184.35 386.21"/></g><path class="cls-93" d="M182.6,222.54s-.88,110.78,64.76,101.68c35.49-4.92,47.51-40.41,40.88-70.91a191.62,191.62,0,0,1-3.79-46.77s-4.08-29.37-38.7-20.3S196.11,192,196.11,192,180.54,195.13,182.6,222.54Z"/><path class="cls-69" d="M177.07,228.73s25.09-2.78,36.43-7.67l.58-15.4s2.55,9.93,4.85,12.41,22.88-.74,32-3.59,4.81-14.7,4.81-14.7l4.34,11.86s28.57,3.44,28.73-.93S285,186,276.62,182s-73.88-4.43-83.08,4.1S177.53,216.52,177.07,228.73Z"/><ellipse class="cls-94" cx="262.95" cy="244.39" rx="3.92" ry="3.17" transform="translate(-22.42 26.6) rotate(-5.56)"/><ellipse class="cls-94" cx="223.88" cy="248.1" rx="3.92" ry="3.17" transform="translate(-22.97 22.84) rotate(-5.56)"/><path class="cls-95" d="M250.55,278.83a15.34,15.34,0,0,1-5.17-.8l.35-.94c5.16,1.91,13.88,0,15.56-3.33,1.13-2.28-1.44-4.53-3.78-6-6.89-4.38-5.32-8.93-5.25-9.13l.94.35c0,.16-1.33,4,4.84,7.94,4.88,3.1,4.95,5.69,4.14,7.31C260.72,277.15,255.37,278.83,250.55,278.83Z"/><path class="cls-96" d="M262,289.89c-18.37,4.75-31.32.71-30.6,2,0,0-.78,13.73,15.42,13.63C263.55,305.45,262,289.89,262,289.89Z"/><path class="cls-65" d="M219.38,333.59s22.52,13.65,36.94,11.8c6.84-.87,18.95-14,18.95-14l13,129.74-49.8,2.24Z"/><path class="cls-97" d="M172.66,557.55S155.05,630.13,157,650s4.68,52.17,34,146c0,0,78.26,32.38,150.2-.81,0,0,6.29-1.86,10.91-43.81s12.42-142.59-8.72-187.47S172.66,557.55,172.66,557.55Z"/><path class="cls-69" d="M270.81,230.55s-4.74-6.21-9.75-3.11a.89.89,0,0,0-.58,1.12c.25.84,1.91-1.63,9.83,2.73C270.31,231.29,270.81,231.58,270.81,230.55Z"/><path class="cls-69" d="M213.93,234s4.75-6.2,9.75-3.1a.89.89,0,0,1,.58,1.12c-.25.83-1.91-1.64-9.83,2.73C214.43,234.73,213.93,235,213.93,234Z"/><path class="cls-65" d="M259.62,290.44s-.65,3.21-2,4.12-15.59,1.66-24.11,1c-2.87-.24-2.32-2.92-2.18-3.89C231.35,291.63,246.09,293.49,259.62,290.44Z"/><path class="cls-98" d="M251.34,305.09s-1.86-9.5-19.13-7C232.21,298.13,235.94,307.82,251.34,305.09Z"/><ellipse class="cls-99" cx="281.01" cy="254.61" rx="3.62" ry="6.23" transform="translate(3.96 513.52) rotate(-85.24)"/><ellipse class="cls-99" cx="214.79" cy="263.85" rx="6.23" ry="3.62" transform="translate(-52.96 53.94) rotate(-12.76)"/><path class="cls-100" d="M334.61,435.84,357,461.35s-6.12,9.16-12,18.65c-6.27,10.12-15.54,20.35-13.57,20.57,4,.44,26.78,31.77,26.78,31.77l28-38s21.11-33.38,20.75-37-18.37-28.47-24.44-34.21c-3.74-3.54-9.95-8.73-15.17-16.12-29.22-41.32-56.53-70.82-58.39-72.35s-11-6.17-14.23-4.64-19.19,1.4-19.19,1.4l2.64,115.37L219.63,333.58s-12.56,4.34-26.08,2.61-36.24,3.62-36.24,3.62-10.24,27.71-17.55,29.81-11,20.26-11,20.26c-2.17,2.65-10.18,14.08-19.61,27.71h0s-37.48,45.94-43,49.92S63.56,481,63.56,481l78.84,83.79,27.83-35.52c-7.13-.49-43.13-49.77-43.13-49.77,2.53-4.53,2.3-8.25,1.56-10.71,17.3-18.49,42.63-47.19,42.63-47.19.41,4.07,6.47,16.8,16.93,32.52s9.69,42.14,9.69,42.14c-14.94,21.68-25,61.34-25,61.34s1,7.93,26.28,20.55c11,5.5,46.51,16.31,46.51,16.31l39.46-43.29,50.78,35.64s9.12-9.12,8.21-18.27S325.71,505,325.71,505s-1.89-19,.27-24.66S334.61,435.84,334.61,435.84Z"/><path class="cls-71" d="M153.53,566.53s12.2,10.71,14.67,8.24l12.43-35.2S165.06,550.81,153.53,566.53Z"/><path class="cls-93" d="M170.88,567.7s5.9-5.86,14.86,2.8,9.68,9.26,9.68,9.26,7,2.88,7.52-4.62c0,0,8.8,1.29,6.83-8.4,0,0,6.13-4.42.7-12,0,0,5.51-1.05,2.24-11.46s-24-20.47-24-20.47-9.94-3.49-10.82,8.08c0,0-7.16.37-4.66,10.37,0,0-4.65,4.21-3.65,8.77s-.11,3.67-.11,3.67S162.79,561.13,170.88,567.7Z"/><path class="cls-95" d="M202.56,575.46c-.11-.13-11.87-13.67-24.48-19.79l.43-.9c12.8,6.21,24.69,19.9,24.81,20Z"/><path class="cls-95" d="M209.42,567.1c-.17-.16-17.14-16.09-29.48-22.74l.48-.88c12.45,6.71,29.52,22.73,29.69,22.9Z"/><path class="cls-95" d="M210.09,555c-.15-.18-15.21-17.91-27.55-21.76l.3-1c12.61,4,27.39,21.33,28,22.07Z"/><path class="cls-93" d="M347.86,556.51l-16.17,4.75s-6.95,2.88-7.52-4.62c0,0-8.8,1.29-6.82-8.4,0,0-6.14-4.42-.71-12,0,0-5.51-1.05-2.24-11.46s15.67-13.15,15.67-13.15,9.94-3.49,10.82,8.07c0,0,7.16.38,4.66,10.37,0,0,4.65,4.21,3.65,8.78s.11,3.66.11,3.66S356,549.94,347.86,556.51Z"/><path class="cls-95" d="M324.44,557.06l-.54-.84A275.12,275.12,0,0,1,349.1,542l.43.9A273.55,273.55,0,0,0,324.44,557.06Z"/><path class="cls-95" d="M317.64,548.64l-.59-.8c.16-.12,15.84-11.55,28.27-18.25l.47.88C333.42,537.14,317.8,548.53,317.64,548.64Z"/><path class="cls-95" d="M317.07,536.46l-.86-.51c.09-.16,9.39-15.38,24.63-16.79l.09,1C326.2,521.52,317.16,536.31,317.07,536.46Z"/><path class="cls-101" d="M219.38,333.59S195.23,345.24,182.15,365l44.38,12.67s-15.11,14.85-14.79,18.07,66.17,51,66.17,51,33.54-61.51,29.81-64.56-24.29-6.81-24.29-6.81,19.48-27.6,22.87-27.94-28-16.36-31-16.06,2.52,110.28,2.52,110.28l-.15,2.38Z"/><path class="cls-97" d="M277.91,446.79s9.26,81.81,7,104.33"/><circle class="cls-101" cx="291.65" cy="471.48" r="5.33"/><circle class="cls-101" cx="293.78" cy="509.48" r="5.33"/><path class="cls-102" d="M173.81,404.74l-1-.23a76.6,76.6,0,0,0-11.55-60.85l.82-.58A77.66,77.66,0,0,1,173.81,404.74Z"/><path class="cls-102" d="M329.09,406.93l-1-.09c1.1-12.29-3.36-24.57-7.3-35.4-4.66-12.82-10-27.36-20.07-37.89l.72-.69c10.27,10.68,15.59,25.32,20.29,38.23C325.7,382,330.21,394.42,329.09,406.93Z"/><path class="cls-102" d="M146.32,377a27.46,27.46,0,0,0-3.49-7l.82-.57a28.62,28.62,0,0,1,3.62,7.2Z"/><path class="cls-102" d="M136,392.63a35.57,35.57,0,0,0-6.08-.83l0-1a35.6,35.6,0,0,1,6.25.86Z"/><path class="cls-102" d="M334.44,441l-1-.12a74.23,74.23,0,0,0,.43-11.92l1-.05A75.14,75.14,0,0,1,334.44,441Z"/><path class="cls-102" d="M355.5,460.4l-.14-1a75,75,0,0,1,12.07-.73l0,1A74.13,74.13,0,0,0,355.5,460.4Z"/><path class="cls-102" d="M365,468.05a59.33,59.33,0,0,0-8.69-6.35l.52-.86a62,62,0,0,1,8.83,6.45Z"/><path class="cls-102" d="M200.41,496.57l-.52-.85a60,60,0,0,1,11.6-5.55l.33.94A58.91,58.91,0,0,0,200.41,496.57Z"/><path class="cls-102" d="M127.77,469.24c-2.33,0-10-.2-12.54-2.74l.7-.71c2.66,2.65,12.37,2.44,12.47,2.45l0,1Z"/><path class="cls-102" d="M118.83,482.89v-1c3.43,0,7.7-2.82,7.74-2.85l.56.83C126.94,480,122.56,482.89,118.83,482.89Z"/></g><path d="M637.24,207.32h-2.72l-.72-4a7.44,7.44,0,0,0-2.31-1.5,8.22,8.22,0,0,0-3.26-.59,8,8,0,0,0-6.81,3.22,13.31,13.31,0,0,0-2.39,8.15V213a13.57,13.57,0,0,0,2.34,8.17,7.52,7.52,0,0,0,6.47,3.24,9.89,9.89,0,0,0,3.52-.61,6.77,6.77,0,0,0,2.44-1.48l.72-4h2.72v5.06a10.5,10.5,0,0,1-3.69,2.82,12.53,12.53,0,0,1-5.71,1.24,11.48,11.48,0,0,1-9.1-4.1A15.17,15.17,0,0,1,615.19,213v-.41a15.34,15.34,0,0,1,3.49-10.34,11.47,11.47,0,0,1,9.16-4.09,12.41,12.41,0,0,1,5.71,1.26,10.86,10.86,0,0,1,3.69,2.82Z"/><path d="M655.13,227c-.12-.57-.21-1.08-.28-1.54s-.11-.91-.13-1.37a9.38,9.38,0,0,1-2.79,2.38,8,8,0,0,1-8.58-.67,5.9,5.9,0,0,1-1.72-4.54,5.27,5.27,0,0,1,2.43-4.64,11.92,11.92,0,0,1,6.67-1.63h4v-2.46a3.8,3.8,0,0,0-1.17-2.94,4.66,4.66,0,0,0-3.27-1.08,7.86,7.86,0,0,0-2.54.37,4.61,4.61,0,0,0-1.79,1l-.41,2.23h-3V208a11.29,11.29,0,0,1,3.5-1.85,13.84,13.84,0,0,1,4.45-.69,8.84,8.84,0,0,1,5.82,1.84,6.42,6.42,0,0,1,2.23,5.25v10.18c0,.27,0,.54,0,.8s0,.52,0,.78l1.57.21V227Zm-6.19-2.81a6.84,6.84,0,0,0,3.49-.92,5.74,5.74,0,0,0,2.27-2.2v-3.48h-4.1a5.82,5.82,0,0,0-3.74,1.09,3.3,3.3,0,0,0-1.38,2.66,2.65,2.65,0,0,0,.86,2.12A3.92,3.92,0,0,0,648.94,224.21Z"/><path d="M663.37,208.37v-2.48H670l.37,3.07a7.38,7.38,0,0,1,2.22-2.54,5.16,5.16,0,0,1,3-.92,5.88,5.88,0,0,1,.92.07,4.92,4.92,0,0,1,.74.14l-.51,3.58-2.19-.12a4.46,4.46,0,0,0-2.56.71,4.68,4.68,0,0,0-1.6,2V224l3.18.54V227H663.37v-2.46l3.18-.54v-15.1Z"/><path d="M711.46,217.22a13,13,0,0,1-2.35,7.2,7.46,7.46,0,0,1-6.48,3,3.9,3.9,0,0,1-2.47-.81,4.42,4.42,0,0,1-1.5-2.27,6.43,6.43,0,0,1-2.38,2.32,6.74,6.74,0,0,1-3.26.76,4.17,4.17,0,0,1-3.79-2.35,10.42,10.42,0,0,1-1-6.18,16,16,0,0,1,2.69-8.12,6.56,6.56,0,0,1,5.44-3.05,8.82,8.82,0,0,1,3.29.5,14,14,0,0,1,2.74,1.57l-.07.07h.11l-1,11.43a4.59,4.59,0,0,0,.42,3,1.86,1.86,0,0,0,1.59.81,4.39,4.39,0,0,0,3.84-2.22,11.23,11.23,0,0,0,1.59-5.63q.33-7.47-2.81-11.63t-9.67-4.17a11.82,11.82,0,0,0-9.69,4.51q-3.66,4.51-4,11.76t2.93,11.61q3.28,4.26,9.42,4.27a14.89,14.89,0,0,0,3.47-.42,11.11,11.11,0,0,0,3-1.11l.77,2.09a10.9,10.9,0,0,1-3.35,1.28,17.55,17.55,0,0,1-3.94.46q-7.42,0-11.48-4.87t-3.7-13.31q.38-8.26,4.87-13.44a14.82,14.82,0,0,1,11.76-5.18q7.39,0,11.35,4.89T711.46,217.22Zm-19.79,1.68a9.07,9.07,0,0,0,.43,4.21,2.17,2.17,0,0,0,2.09,1.45,5.28,5.28,0,0,0,2.28-.49,4.83,4.83,0,0,0,1.9-1.72,3.76,3.76,0,0,1,0-.48c0-.17,0-.36,0-.57l.92-10.51a6.44,6.44,0,0,0-1.07-.37,4.91,4.91,0,0,0-1.16-.14,4.11,4.11,0,0,0-3.73,2.13A15.68,15.68,0,0,0,691.67,218.9Z"/><path d="M734.91,224.43a5.18,5.18,0,0,0,3.37-1.19,3.59,3.59,0,0,0,1.46-2.9h3.45l0,.12a5.89,5.89,0,0,1-2.43,4.85,8.87,8.87,0,0,1-5.89,2.12,8.54,8.54,0,0,1-7-3,11.66,11.66,0,0,1-2.43-7.56v-.82a11.56,11.56,0,0,1,2.44-7.53,8.53,8.53,0,0,1,7-3,11.73,11.73,0,0,1,4.56.84,9.22,9.22,0,0,1,3.35,2.3l.18,4.69h-3.07l-.84-3.32a5,5,0,0,0-1.76-1.07,6.57,6.57,0,0,0-2.42-.41,4.62,4.62,0,0,0-4.32,2.17,10.27,10.27,0,0,0-1.3,5.35v.82a10.38,10.38,0,0,0,1.29,5.4A4.64,4.64,0,0,0,734.91,224.43Z"/><path d="M762.1,223.9a7.18,7.18,0,0,1-2.57,2.62,7.05,7.05,0,0,1-3.62.91,6.77,6.77,0,0,1-5.37-2.2q-1.93-2.22-1.94-6.88v-9.43l-2.42-.55v-2.48h6.27v12.5c0,2.25.33,3.8,1,4.65a3.69,3.69,0,0,0,3.1,1.27,6.35,6.35,0,0,0,3.39-.83,5.2,5.2,0,0,0,2-2.36v-12.2l-2.83-.55v-2.48h6.68V224l2.42.54V227h-5.88Z"/><path d="M771.28,208.37v-2.48h6.62l.37,3.07a7.38,7.38,0,0,1,2.22-2.54,5.16,5.16,0,0,1,3-.92,5.88,5.88,0,0,1,.92.07,4.92,4.92,0,0,1,.74.14l-.51,3.58-2.19-.12a4.46,4.46,0,0,0-2.56.71,4.68,4.68,0,0,0-1.6,2V224l3.18.54V227H771.28v-2.46l3.18-.54v-15.1Z"/><path d="M804,212.53H801.1l-.62-2.54a5.15,5.15,0,0,0-1.77-1.06,6.73,6.73,0,0,0-2.41-.4,4.45,4.45,0,0,0-3,.9,2.8,2.8,0,0,0-1,2.16,2.42,2.42,0,0,0,.88,2,9,9,0,0,0,3.57,1.28,15.62,15.62,0,0,1,6,2.34,4.7,4.7,0,0,1,2,3.95,5.44,5.44,0,0,1-2.28,4.55,9.51,9.51,0,0,1-5.94,1.74,15.56,15.56,0,0,1-4.32-.55,11.59,11.59,0,0,1-3.42-1.61l0-4.83h2.89l.73,2.83a3.9,3.9,0,0,0,1.8.88,10.12,10.12,0,0,0,2.34.28,5.47,5.47,0,0,0,3.21-.83,2.58,2.58,0,0,0,1.16-2.18,2.61,2.61,0,0,0-1-2.09,9.19,9.19,0,0,0-3.67-1.43,15.46,15.46,0,0,1-5.8-2.28,4.63,4.63,0,0,1-2-3.91,5.49,5.49,0,0,1,2.2-4.39,8.62,8.62,0,0,1,5.71-1.82,14.13,14.13,0,0,1,4.32.62,9.15,9.15,0,0,1,3.18,1.74Z"/><path d="M808.21,224.56l3.19-.54v-15.1l-3.19-.55v-2.48h7V224l3.19.54V227H808.21Zm7-24.08H811.4v-3.93h3.84Z"/><path d="M837.53,212.53h-2.89L834,210a5,5,0,0,0-1.76-1.06,6.79,6.79,0,0,0-2.42-.4,4.42,4.42,0,0,0-3,.9,2.78,2.78,0,0,0-1,2.16,2.42,2.42,0,0,0,.88,2,9.09,9.09,0,0,0,3.57,1.28,15.55,15.55,0,0,1,6,2.34,4.7,4.7,0,0,1,1.95,3.95,5.43,5.43,0,0,1-2.27,4.55,9.54,9.54,0,0,1-6,1.74,15.43,15.43,0,0,1-4.31-.55,11.47,11.47,0,0,1-3.42-1.61l0-4.83h2.89l.72,2.83a3.94,3.94,0,0,0,1.81.88,10.1,10.1,0,0,0,2.33.28,5.5,5.5,0,0,0,3.22-.83,2.58,2.58,0,0,0,1.16-2.18,2.62,2.62,0,0,0-1-2.09,9.07,9.07,0,0,0-3.66-1.43,15.39,15.39,0,0,1-5.8-2.28,4.63,4.63,0,0,1-2-3.91,5.52,5.52,0,0,1,2.2-4.39,8.63,8.63,0,0,1,5.71-1.82,14.08,14.08,0,0,1,4.32.62,9,9,0,0,1,3.18,1.74Z"/><path d="M848.47,200.79v5.1h4v2.85h-4v12.83a2.87,2.87,0,0,0,.61,2.09,2.21,2.21,0,0,0,1.63.61,8.38,8.38,0,0,0,1.15-.09c.42-.06.77-.12,1.06-.18l.53,2.63a4.86,4.86,0,0,1-1.6.58,10.15,10.15,0,0,1-2.11.22A5,5,0,0,1,846,226a6.15,6.15,0,0,1-1.39-4.45V208.74h-3.34v-2.85h3.34v-5.1Z"/><path d="M870.19,227c-.12-.57-.21-1.08-.28-1.54s-.11-.91-.13-1.37a9.5,9.5,0,0,1-2.79,2.38,8,8,0,0,1-8.58-.67,5.9,5.9,0,0,1-1.72-4.54,5.27,5.27,0,0,1,2.43-4.64,11.92,11.92,0,0,1,6.67-1.63h4v-2.46a3.78,3.78,0,0,0-1.18-2.94,4.61,4.61,0,0,0-3.26-1.08,8,8,0,0,0-2.55.37,4.64,4.64,0,0,0-1.78,1l-.41,2.23h-3V208a11.34,11.34,0,0,1,3.49-1.85,13.94,13.94,0,0,1,4.46-.69,8.84,8.84,0,0,1,5.82,1.84,6.42,6.42,0,0,1,2.22,5.25v10.18c0,.27,0,.54,0,.8s0,.52,0,.78l1.57.21V227Zm-6.2-2.81a6.85,6.85,0,0,0,3.5-.92,5.74,5.74,0,0,0,2.27-2.2v-3.48h-4.11a5.86,5.86,0,0,0-3.74,1.09,3.31,3.31,0,0,0-1.37,2.66,2.62,2.62,0,0,0,.86,2.12A3.9,3.9,0,0,0,864,224.21Z"/><path d="M882.84,225.62a9.72,9.72,0,0,1-1,4,10.08,10.08,0,0,1-2.58,3.48l-2.17-1.45a12.22,12.22,0,0,0,1.39-2.87,10.2,10.2,0,0,0,.46-3.1v-3h3.85Z"/><path d="M630.38,320a7.27,7.27,0,0,1-2.71,2.55,8.09,8.09,0,0,1-3.91.9,7,7,0,0,1-5.93-2.83,12.29,12.29,0,0,1-2.14-7.56v-.41a13.82,13.82,0,0,1,2.14-8.09,6.89,6.89,0,0,1,6-3,7.26,7.26,0,0,1,6.52,3.57V294.55l-3.18-.26v-1.74h5.53v28.5l3.18.25V323h-5.27ZM618.06,313a10.76,10.76,0,0,0,1.53,6.1,5.2,5.2,0,0,0,4.62,2.26,6.65,6.65,0,0,0,3.76-1,6.75,6.75,0,0,0,2.35-2.8v-10a7.31,7.31,0,0,0-2.25-2.93,6.15,6.15,0,0,0-3.82-1.13,5.09,5.09,0,0,0-4.64,2.53,12.39,12.39,0,0,0-1.55,6.57Z"/><path d="M648.76,323.43a8.46,8.46,0,0,1-6.6-2.92,10.67,10.67,0,0,1-2.62-7.43V312a11,11,0,0,1,2.61-7.52,8.09,8.09,0,0,1,6.3-3,7.82,7.82,0,0,1,6.11,2.46,9.38,9.38,0,0,1,2.23,6.56v2H641.87v.56a9.34,9.34,0,0,0,1.9,6,6,6,0,0,0,5,2.41,10,10,0,0,0,3.71-.61,7.35,7.35,0,0,0,2.64-1.73l1,1.6a8.45,8.45,0,0,1-3,2A11.56,11.56,0,0,1,648.76,323.43Zm-.31-19.94a5.61,5.61,0,0,0-4.35,2,8.54,8.54,0,0,0-2.06,5l0,.1h12.38V310a6.74,6.74,0,0,0-1.62-4.61A5.52,5.52,0,0,0,648.45,303.49Z"/><path d="M660.34,303.63v-1.74h5.14l.29,3.28a7.59,7.59,0,0,1,2.75-2.71,7.68,7.68,0,0,1,3.91-1,6.89,6.89,0,0,1,6,3,13.74,13.74,0,0,1,2.15,8.09V313a12.2,12.2,0,0,1-2.15,7.57,7,7,0,0,1-5.92,2.82,8.49,8.49,0,0,1-3.9-.85,7.09,7.09,0,0,1-2.72-2.41v9l3.18.25v1.74h-8.69v-1.74l3.19-.25V303.88Zm17.85,9a12.1,12.1,0,0,0-1.6-6.56,5.21,5.21,0,0,0-4.69-2.54,6.14,6.14,0,0,0-3.83,1.12,6.88,6.88,0,0,0-2.22,2.92v10.16a6.38,6.38,0,0,0,2.31,2.73,6.69,6.69,0,0,0,3.78,1,5.31,5.31,0,0,0,4.66-2.3,10.6,10.6,0,0,0,1.59-6.12Z"/><path d="M684.35,312.14a11.36,11.36,0,0,1,2.55-7.65,9.2,9.2,0,0,1,13.58,0,11.37,11.37,0,0,1,2.56,7.65v.65a11.35,11.35,0,0,1-2.55,7.66,9.24,9.24,0,0,1-13.59,0,11.35,11.35,0,0,1-2.55-7.66Zm2.34.65a10,10,0,0,0,1.86,6.17,6.54,6.54,0,0,0,10.29,0,10,10,0,0,0,1.85-6.17v-.65a10,10,0,0,0-1.86-6.13,6.5,6.5,0,0,0-10.28,0,10,10,0,0,0-1.86,6.13Z"/><path d="M706.69,321.3l3.18-.25V303.88l-3.18-.25v-1.74h5.51v19.16l3.18.25V323h-8.69Zm5.51-25.46h-2.33v-3.29h2.33Z"/><path d="M734.64,308.41h-1.91l-.28-3a5.76,5.76,0,0,0-2.22-1.43,8.55,8.55,0,0,0-3.07-.51,5.71,5.71,0,0,0-3.84,1.11,3.31,3.31,0,0,0-1.28,2.58,3,3,0,0,0,1.11,2.42,10.63,10.63,0,0,0,4.4,1.68,14.4,14.4,0,0,1,5.64,2.3,4.74,4.74,0,0,1,1.88,3.95,5.1,5.1,0,0,1-2.14,4.27,9.07,9.07,0,0,1-5.65,1.63,13.06,13.06,0,0,1-4.27-.65,10.17,10.17,0,0,1-3.33-1.85v-4.25h1.89l.33,3a5.44,5.44,0,0,0,2.38,1.36,10.56,10.56,0,0,0,3,.42,6.48,6.48,0,0,0,4-1.11,3.29,3.29,0,0,0,1.46-2.7,3.41,3.41,0,0,0-1.22-2.6,9.93,9.93,0,0,0-4.4-1.81,14.87,14.87,0,0,1-5.6-2.18,4.48,4.48,0,0,1-1.82-3.8,5.08,5.08,0,0,1,2-4.09,8.33,8.33,0,0,1,5.41-1.67,12.3,12.3,0,0,1,4.25.71,8.62,8.62,0,0,1,3.13,1.93Z"/><path d="M763.74,320a7.27,7.27,0,0,1-2.71,2.55,8.09,8.09,0,0,1-3.91.9,7,7,0,0,1-5.93-2.83,12.29,12.29,0,0,1-2.14-7.56v-.41a13.82,13.82,0,0,1,2.14-8.09,6.89,6.89,0,0,1,6-3,7.26,7.26,0,0,1,6.52,3.57V294.55l-3.18-.26v-1.74H766v28.5l3.18.25V323h-5.27ZM751.42,313a10.76,10.76,0,0,0,1.53,6.1,5.2,5.2,0,0,0,4.62,2.26,6.65,6.65,0,0,0,3.76-1,6.75,6.75,0,0,0,2.35-2.8v-10a7.31,7.31,0,0,0-2.25-2.93,6.15,6.15,0,0,0-3.82-1.13,5.08,5.08,0,0,0-4.64,2.53,12.39,12.39,0,0,0-1.55,6.57Z"/><path d="M787.39,323c-.15-.71-.26-1.33-.33-1.85a13.82,13.82,0,0,1-.1-1.58,9.39,9.39,0,0,1-3.12,2.75,8.84,8.84,0,0,1-4.4,1.09,6.71,6.71,0,0,1-4.8-1.6,5.68,5.68,0,0,1-1.7-4.33,5.34,5.34,0,0,1,2.52-4.65,11.94,11.94,0,0,1,6.84-1.72H787v-2.79a4.5,4.5,0,0,0-1.45-3.56,5.93,5.93,0,0,0-4.07-1.29,10.22,10.22,0,0,0-3.22.48,7.21,7.21,0,0,0-2.43,1.3l-.19,2.83h-1.94l0-4.06a12.15,12.15,0,0,1,3.51-1.84,13.21,13.21,0,0,1,4.34-.7,8.48,8.48,0,0,1,5.63,1.78,6.25,6.25,0,0,1,2.13,5.09v10.4c0,.42,0,.84,0,1.24a11.11,11.11,0,0,0,.12,1.16l2.11.13V323Zm-7.69-1.66a8.47,8.47,0,0,0,4.47-1.17,6.88,6.88,0,0,0,2.79-3v-4.23h-4.7a8.77,8.77,0,0,0-5.09,1.31,3.93,3.93,0,0,0-1.91,3.33,3.49,3.49,0,0,0,1.19,2.75A4.75,4.75,0,0,0,779.7,321.36Z"/><path d="M804.27,303.8v-1.91h3.49V298.8a7,7,0,0,1,1.61-4.92,5.75,5.75,0,0,1,4.47-1.74,9.84,9.84,0,0,1,1.29.1c.44.07.89.16,1.35.28l-.3,1.93c-.31-.08-.63-.14-.95-.19a9.5,9.5,0,0,0-1.16-.07,3.65,3.65,0,0,0-2.94,1.22,5.1,5.1,0,0,0-1,3.39v3.09h5v1.91h-5v17.25l3.18.25V323h-8.71V321.3l3.18-.25V303.8Z"/><path d="M827.61,323.43a8.46,8.46,0,0,1-6.6-2.92,10.67,10.67,0,0,1-2.62-7.43V312a11,11,0,0,1,2.61-7.52,8.06,8.06,0,0,1,6.3-3,7.83,7.83,0,0,1,6.11,2.46,9.43,9.43,0,0,1,2.23,6.56v2H820.71v.56a9.34,9.34,0,0,0,1.91,6,6,6,0,0,0,5,2.41,10,10,0,0,0,3.71-.61,7.35,7.35,0,0,0,2.64-1.73l1,1.6a8.49,8.49,0,0,1-3,2A11.51,11.51,0,0,1,827.61,323.43Zm-.31-19.94a5.61,5.61,0,0,0-4.35,2,8.48,8.48,0,0,0-2.06,5l0,.1h12.38V310a6.74,6.74,0,0,0-1.62-4.61A5.53,5.53,0,0,0,827.3,303.49Z"/><path d="M855.15,308.41h-1.92l-.27-3a5.91,5.91,0,0,0-2.22-1.43,8.55,8.55,0,0,0-3.07-.51,5.71,5.71,0,0,0-3.84,1.11,3.31,3.31,0,0,0-1.28,2.58,3.06,3.06,0,0,0,1.1,2.42,10.75,10.75,0,0,0,4.41,1.68,14.4,14.4,0,0,1,5.64,2.3,4.74,4.74,0,0,1,1.88,3.95,5.13,5.13,0,0,1-2.14,4.27,9.08,9.08,0,0,1-5.66,1.63,13,13,0,0,1-4.26-.65,10,10,0,0,1-3.33-1.85v-4.25h1.89l.33,3a5.44,5.44,0,0,0,2.38,1.36,10.54,10.54,0,0,0,3,.42,6.5,6.5,0,0,0,4-1.11,3.32,3.32,0,0,0,1.46-2.7,3.41,3.41,0,0,0-1.22-2.6,9.93,9.93,0,0,0-4.4-1.81,14.8,14.8,0,0,1-5.6-2.18,4.46,4.46,0,0,1-1.82-3.8,5.08,5.08,0,0,1,2-4.09,8.31,8.31,0,0,1,5.41-1.67,12.21,12.21,0,0,1,4.24.71,8.58,8.58,0,0,1,3.14,1.93Z"/><path d="M865.21,296.48v5.41h4.64v1.91h-4.64v13.77a4.52,4.52,0,0,0,.75,2.94,2.51,2.51,0,0,0,2,.87,9.9,9.9,0,0,0,1.1-.05c.36,0,.77-.08,1.24-.16l.35,1.74a6.41,6.41,0,0,1-1.42.39,10.56,10.56,0,0,1-1.68.13,4.42,4.42,0,0,1-3.47-1.4,6.69,6.69,0,0,1-1.24-4.46V303.8h-3.63v-1.91h3.63v-5.41Z"/><path d="M888.74,323a18,18,0,0,1-.33-1.85,11.87,11.87,0,0,1-.1-1.58,9.39,9.39,0,0,1-3.12,2.75,8.86,8.86,0,0,1-4.4,1.09,6.71,6.71,0,0,1-4.8-1.6,5.64,5.64,0,0,1-1.7-4.33,5.34,5.34,0,0,1,2.52-4.65,11.93,11.93,0,0,1,6.83-1.72h4.67v-2.79a4.5,4.5,0,0,0-1.45-3.56,5.94,5.94,0,0,0-4.08-1.29,10.2,10.2,0,0,0-3.21.48,7.21,7.21,0,0,0-2.43,1.3l-.2,2.83H875l0-4.06a12,12,0,0,1,3.51-1.84,13.16,13.16,0,0,1,4.34-.7,8.48,8.48,0,0,1,5.63,1.78,6.25,6.25,0,0,1,2.13,5.09v10.4c0,.42,0,.84,0,1.24a11.12,11.12,0,0,0,.13,1.16l2.11.13V323Zm-7.69-1.66a8.47,8.47,0,0,0,4.47-1.17,6.88,6.88,0,0,0,2.79-3v-4.23H883.6a8.76,8.76,0,0,0-5.08,1.31,3.93,3.93,0,0,0-1.91,3.33,3.52,3.52,0,0,0,1.18,2.75A4.8,4.8,0,0,0,881.05,321.36Z"/><path d="M899.62,322.09a8.84,8.84,0,0,1-.73,3.51,8.53,8.53,0,0,1-2,2.91l-1.39-1a10.63,10.63,0,0,0,1.36-2.56,8.69,8.69,0,0,0,.44-2.82v-2.77h2.32Z"/><path d="M919.74,303.63l-2.64.19,5.27,13.91.69,2.48h.11l.75-2.48,5.19-13.91-2.63-.19v-1.74h7.1v1.74l-2.07.17L924.05,323h-1.87L914.7,303.8l-2.07-.17v-1.74h7.11Z"/><path d="M935.87,312.14a11.32,11.32,0,0,1,2.56-7.65,9.19,9.19,0,0,1,13.57,0,11.32,11.32,0,0,1,2.56,7.65v.65a11.35,11.35,0,0,1-2.55,7.66,9.23,9.23,0,0,1-13.58,0,11.31,11.31,0,0,1-2.56-7.66Zm2.34.65a10,10,0,0,0,1.86,6.17,6.54,6.54,0,0,0,10.29,0,10,10,0,0,0,1.86-6.17v-.65a10,10,0,0,0-1.87-6.13,6.5,6.5,0,0,0-10.28,0,10,10,0,0,0-1.86,6.13Z"/><path d="M973.9,319.55a7.33,7.33,0,0,1-2.73,2.87,8,8,0,0,1-4.07,1,6.4,6.4,0,0,1-5.22-2.26c-1.26-1.51-1.89-3.86-1.89-7V303.88l-2.62-.25v-1.74h5v12.29c0,2.57.43,4.42,1.31,5.54a4.48,4.48,0,0,0,3.74,1.68,6.94,6.94,0,0,0,4.23-1.17,6.2,6.2,0,0,0,2.22-3.24V303.88l-3-.25v-1.74h5.35v19.16l2.83.25V323h-4.88Z"/><path d="M620.75,349.89l.3,3.52v.25a7.43,7.43,0,0,1,2.45-3.06,6.21,6.21,0,0,1,3.68-1.1,4.94,4.94,0,0,1,.87.07,5.51,5.51,0,0,1,.69.14l-.31,2.19-1.74-.12a5.32,5.32,0,0,0-3.62,1.24,6.81,6.81,0,0,0-2,3.41v12.62l3.18.25V371h-8.69V369.3l3.18-.25V351.88l-3.18-.25v-1.74h5.21Z"/><path d="M640.71,371.43a8.49,8.49,0,0,1-6.6-2.92,10.72,10.72,0,0,1-2.62-7.43V360a11,11,0,0,1,2.61-7.52,8.09,8.09,0,0,1,6.3-3,7.82,7.82,0,0,1,6.11,2.46,9.38,9.38,0,0,1,2.23,6.56v2H633.82v.56a9.34,9.34,0,0,0,1.9,6,6.06,6.06,0,0,0,5,2.41,10,10,0,0,0,3.71-.61,7.35,7.35,0,0,0,2.64-1.73l1,1.6a8.58,8.58,0,0,1-3,2A11.56,11.56,0,0,1,640.71,371.43Zm-.31-19.94a5.58,5.58,0,0,0-4.34,2,8.55,8.55,0,0,0-2.07,5l0,.1h12.39V358a6.74,6.74,0,0,0-1.62-4.61A5.55,5.55,0,0,0,640.4,351.49Z"/><path d="M658.29,344.48v5.41h4.65v1.91h-4.65v13.77a4.52,4.52,0,0,0,.75,2.94,2.52,2.52,0,0,0,2,.87,10,10,0,0,0,1.1-.05c.36,0,.77-.08,1.24-.16l.35,1.74a6.57,6.57,0,0,1-1.42.39,10.75,10.75,0,0,1-1.68.13,4.4,4.4,0,0,1-3.47-1.4,6.64,6.64,0,0,1-1.24-4.46V351.8H652.3v-1.91h3.63v-5.41Z"/><path d="M666.85,360.14a11.36,11.36,0,0,1,2.55-7.65,9.2,9.2,0,0,1,13.58,0,11.37,11.37,0,0,1,2.56,7.65v.65a11.35,11.35,0,0,1-2.55,7.66,9.24,9.24,0,0,1-13.59,0,11.35,11.35,0,0,1-2.55-7.66Zm2.34.65a10,10,0,0,0,1.86,6.17,6.54,6.54,0,0,0,10.29,0,10,10,0,0,0,1.85-6.17v-.65a10,10,0,0,0-1.86-6.13,6.5,6.5,0,0,0-10.28,0,10,10,0,0,0-1.86,6.13Z"/><path d="M688.84,351.63v-1.74h5.25l.22,3.5a7.29,7.29,0,0,1,2.71-2.87,7.71,7.71,0,0,1,4.05-1,6.66,6.66,0,0,1,4,1.18,6.54,6.54,0,0,1,2.32,3.6,8.22,8.22,0,0,1,2.73-3.5,7.16,7.16,0,0,1,4.3-1.28,6.38,6.38,0,0,1,5.23,2.25q1.84,2.24,1.84,6.95V369l3.19.27V371H716V369.3l3.18-.27V358.66q0-3.9-1.38-5.52a4.76,4.76,0,0,0-3.83-1.61,5.2,5.2,0,0,0-4.21,1.74,8.28,8.28,0,0,0-1.83,4.43,2.91,2.91,0,0,0,0,.3,3.44,3.44,0,0,1,0,.35v10.7l3.18.25V371h-8.71V369.3l3.19-.25V358.66q0-3.82-1.4-5.48a4.76,4.76,0,0,0-3.84-1.65,5.82,5.82,0,0,0-4,1.26,6.7,6.7,0,0,0-2,3.39v12.87l3.18.25V371h-8.71V369.3l3.18-.25V351.88Z"/><path d="M742.2,371a18,18,0,0,1-.33-1.85,11.87,11.87,0,0,1-.1-1.58,9.43,9.43,0,0,1-3.13,2.75,8.8,8.8,0,0,1-4.39,1.09,6.75,6.75,0,0,1-4.81-1.6,5.68,5.68,0,0,1-1.7-4.33,5.34,5.34,0,0,1,2.52-4.65,11.94,11.94,0,0,1,6.84-1.72h4.67v-2.79a4.51,4.51,0,0,0-1.46-3.56,5.92,5.92,0,0,0-4.07-1.29A10.2,10.2,0,0,0,733,352a7.21,7.21,0,0,0-2.43,1.3l-.2,2.83h-1.93l0-4.06a12,12,0,0,1,3.5-1.84,13.22,13.22,0,0,1,4.35-.7,8.45,8.45,0,0,1,5.62,1.78,6.25,6.25,0,0,1,2.13,5.09v10.4c0,.42,0,.84,0,1.24a9,9,0,0,0,.13,1.16l2.11.13V371Zm-7.7-1.66a8.5,8.5,0,0,0,4.48-1.17,7,7,0,0,0,2.79-3v-4.23h-4.71a8.79,8.79,0,0,0-5.09,1.31,3.92,3.92,0,0,0-1.9,3.33,3.49,3.49,0,0,0,1.18,2.75A4.77,4.77,0,0,0,734.5,369.36Z"/><path d="M754.74,349.89l.29,3.52v.25a7.59,7.59,0,0,1,2.45-3.06,6.23,6.23,0,0,1,3.68-1.1,4.94,4.94,0,0,1,.87.07,6.14,6.14,0,0,1,.7.14l-.32,2.19-1.74-.12a5.34,5.34,0,0,0-3.62,1.24,6.88,6.88,0,0,0-2,3.41v12.62l3.18.25V371h-8.69V369.3l3.19-.25V351.88l-3.19-.25v-1.74h5.22Z"/><path d="M790.07,371a18,18,0,0,1-.33-1.85,11.87,11.87,0,0,1-.1-1.58,9.33,9.33,0,0,1-3.13,2.75,8.8,8.8,0,0,1-4.39,1.09,6.71,6.71,0,0,1-4.8-1.6,5.64,5.64,0,0,1-1.7-4.33,5.34,5.34,0,0,1,2.52-4.65,11.91,11.91,0,0,1,6.83-1.72h4.67v-2.79a4.51,4.51,0,0,0-1.46-3.56,5.92,5.92,0,0,0-4.07-1.29,10.2,10.2,0,0,0-3.21.48,7.21,7.21,0,0,0-2.43,1.3l-.2,2.83h-1.93l0-4.06a12,12,0,0,1,3.5-1.84,13.22,13.22,0,0,1,4.35-.7,8.43,8.43,0,0,1,5.62,1.78,6.25,6.25,0,0,1,2.13,5.09v10.4c0,.42,0,.84,0,1.24a9,9,0,0,0,.13,1.16l2.11.13V371Zm-7.7-1.66a8.48,8.48,0,0,0,4.48-1.17,6.88,6.88,0,0,0,2.79-3v-4.23h-4.71a8.79,8.79,0,0,0-5.09,1.31,3.92,3.92,0,0,0-1.9,3.33,3.49,3.49,0,0,0,1.18,2.75A4.77,4.77,0,0,0,782.37,369.36Z"/><path d="M812.33,349.89l.3,3.52v.25a7.51,7.51,0,0,1,2.45-3.06,6.21,6.21,0,0,1,3.68-1.1,4.94,4.94,0,0,1,.87.07,5.51,5.51,0,0,1,.69.14L820,351.9l-1.74-.12a5.32,5.32,0,0,0-3.62,1.24,6.81,6.81,0,0,0-2,3.41v12.62l3.18.25V371h-8.69V369.3l3.18-.25V351.88l-3.18-.25v-1.74h5.21Z"/><path d="M823,360.14a11.32,11.32,0,0,1,2.56-7.65,9.19,9.19,0,0,1,13.57,0,11.32,11.32,0,0,1,2.56,7.65v.65a11.35,11.35,0,0,1-2.55,7.66,9.23,9.23,0,0,1-13.58,0,11.31,11.31,0,0,1-2.56-7.66Zm2.34.65a10,10,0,0,0,1.86,6.17,6.54,6.54,0,0,0,10.29,0,10,10,0,0,0,1.86-6.17v-.65a10,10,0,0,0-1.87-6.13,6.5,6.5,0,0,0-10.28,0,10,10,0,0,0-1.86,6.13Z"/><path d="M850.83,344.48v5.41h4.65v1.91h-4.65v13.77a4.52,4.52,0,0,0,.75,2.94,2.51,2.51,0,0,0,2,.87,10.08,10.08,0,0,0,1.11-.05c.36,0,.77-.08,1.24-.16l.35,1.74a6.51,6.51,0,0,1-1.43.39,10.56,10.56,0,0,1-1.68.13,4.38,4.38,0,0,1-3.46-1.4,6.64,6.64,0,0,1-1.24-4.46V351.8h-3.64v-1.91h3.64v-5.41Z"/><path d="M859.62,369.3l3.18-.25V351.88l-3.18-.25v-1.74h5.51v19.16l3.18.25V371h-8.69Zm5.51-25.46H862.8v-3.29h2.33Z"/><path d="M871.81,369.3l3.18-.25V351.88l-3.18-.25v-1.74h5.25l.22,3.69a7.51,7.51,0,0,1,2.74-3,7.64,7.64,0,0,1,4.09-1.06,6.53,6.53,0,0,1,5.24,2.1q1.78,2.1,1.79,6.55v10.9l3.19.25V371h-8.71V369.3l3.18-.25V358.17q0-3.63-1.36-5.14a4.93,4.93,0,0,0-3.86-1.5,6,6,0,0,0-4,1.3,7.29,7.29,0,0,0-2.24,3.45v12.77l3.19.25V371h-8.71Z"/><path d="M912.59,371a18,18,0,0,1-.33-1.85,11.87,11.87,0,0,1-.1-1.58,9.33,9.33,0,0,1-3.13,2.75,8.8,8.8,0,0,1-4.39,1.09,6.75,6.75,0,0,1-4.81-1.6,5.67,5.67,0,0,1-1.69-4.33,5.35,5.35,0,0,1,2.51-4.65,11.94,11.94,0,0,1,6.84-1.72h4.67v-2.79a4.51,4.51,0,0,0-1.46-3.56,5.92,5.92,0,0,0-4.07-1.29,10.2,10.2,0,0,0-3.21.48,7.21,7.21,0,0,0-2.43,1.3l-.2,2.83h-1.93l0-4.06a12,12,0,0,1,3.5-1.84,13.22,13.22,0,0,1,4.35-.7,8.45,8.45,0,0,1,5.62,1.78,6.25,6.25,0,0,1,2.13,5.09v10.4c0,.42,0,.84,0,1.24a9,9,0,0,0,.13,1.16l2.11.13V371Zm-7.7-1.66a8.48,8.48,0,0,0,4.48-1.17,6.93,6.93,0,0,0,2.79-3v-4.23h-4.71a8.79,8.79,0,0,0-5.09,1.31,3.92,3.92,0,0,0-1.9,3.33,3.49,3.49,0,0,0,1.18,2.75A4.77,4.77,0,0,0,904.89,369.36Z"/><path d="M923.68,371H921v-3.2h2.67Z"/></g></svg>