<svg xmlns="http://www.w3.org/2000/svg" xmlns:xlink="http://www.w3.org/1999/xlink" viewBox="0 0 1124.64 651.26"><defs><style>.cls-1{fill:none;}.cls-2{fill:#dd7a7a;}.cls-3{fill:#c6b366;}.cls-4{clip-path:url(#clip-path);}.cls-5{fill:#fff3c2;}.cls-6{fill:#fff3c3;}.cls-7{fill:#fff3c4;}.cls-8{fill:#fff4c5;}.cls-9{fill:#fff4c6;}.cls-10{fill:#fff4c7;}.cls-11{fill:#fff4c8;}.cls-12{fill:#fff4c9;}.cls-13{fill:#fff5ca;}.cls-14{fill:#fff5cb;}.cls-15{fill:#fff5cc;}.cls-16{fill:#fff5cd;}.cls-17{fill:#fff5ce;}.cls-18{fill:#fff6cf;}.cls-19{fill:#fff6d0;}.cls-20{fill:#fff6d1;}.cls-21{fill:#fff6d2;}.cls-22{fill:#fff6d3;}.cls-23{fill:#fff7d4;}.cls-24{fill:#fff7d5;}.cls-25{fill:#fff7d6;}.cls-26{fill:#fff7d7;}.cls-27{fill:#fff7d8;}.cls-28{fill:#fff8d9;}.cls-29{fill:#fff8da;}.cls-30{fill:#fff8db;}.cls-31{fill:#fff8dc;}.cls-32{fill:#fff8dd;}.cls-33{fill:#fff9de;}.cls-34{fill:#fff9df;}.cls-35{fill:#fff9e0;}.cls-36{fill:#fff9e2;}.cls-37{fill:#fff9e3;}.cls-38{fill:#fffae4;}.cls-39{fill:#fffae5;}.cls-40{fill:#fffae6;}.cls-41{fill:#fffae7;}.cls-42{fill:#fffae8;}.cls-43{fill:#fffbe9;}.cls-44{fill:#fffbea;}.cls-45{fill:#fffbeb;}.cls-46{fill:#fffbec;}.cls-47{fill:#fffbed;}.cls-48{fill:#fffcee;}.cls-49{fill:#fffcef;}.cls-50{fill:#fffcf0;}.cls-51{fill:#fffcf1;}.cls-52{fill:#fffcf2;}.cls-53{fill:#fffdf3;}.cls-54{fill:#fffdf4;}.cls-55{fill:#fffdf5;}.cls-56{fill:#fffdf6;}.cls-57{fill:#fffdf7;}.cls-58{fill:#fffef8;}.cls-59{fill:#fffef9;}.cls-60{fill:#fffefa;}.cls-61{fill:#fffefb;}.cls-62{fill:#fffefc;}.cls-63{fill:#fffffd;}.cls-64{fill:#fffffe;}.cls-65{fill:#fff;}.cls-66{fill:#ffeda1;}.cls-67{clip-path:url(#clip-path-2);}.cls-68{fill:#ef9777;}.cls-69{fill:#3a1e1c;}.cls-70{clip-path:url(#clip-path-3);}.cls-71{fill:#d88268;}.cls-72{fill:#d98369;}.cls-73{fill:#da8469;}.cls-74{fill:#db856a;}.cls-75{fill:#dc866b;}.cls-76{fill:#dd876b;}.cls-77{fill:#de886c;}.cls-78{fill:#df896d;}.cls-79{fill:#e08a6d;}.cls-80{fill:#e18b6e;}.cls-81{fill:#e28c6f;}.cls-82{fill:#e48d70;}.cls-83{fill:#e58d70;}.cls-84{fill:#e68e71;}.cls-85{fill:#e78f72;}.cls-86{fill:#e89072;}.cls-87{fill:#e99173;}.cls-88{fill:#ea9274;}.cls-89{fill:#eb9374;}.cls-90{fill:#ec9475;}.cls-91{fill:#ed9576;}.cls-92{fill:#ee9676;}.cls-93{fill:#3d201f;}.cls-94{fill:#b5574d;}.cls-95{fill:#b3514e;}.cls-96{fill:#312235;}.cls-97{fill:#fc999c;}.cls-98{fill:#f9aaaa;}.cls-99{fill:#822222;}.cls-100{fill:#9b3737;}.cls-101{fill:#5b1f3c;}.cls-102{fill:#fffdfd;}.cls-103{clip-path:url(#clip-path-4);}.cls-104{fill:#ce7061;}</style><clipPath id="clip-path"><path class="cls-1" d="M428.87,402.79a192.51,192.51,0,0,0-5.05-43.86c-32.69-73-109.23-124.15-198.45-124.15C106.43,234.78,10,325.78,10,438a193.16,193.16,0,0,0,5,43.87C47.74,554.84,124.28,606,213.5,606,332.44,606,428.87,515,428.87,402.79Z"/></clipPath><clipPath id="clip-path-2"><path class="cls-1" d="M540.86,351.81c-10.3-18-97.34-31.5-97.34-31.5S301.2,131.55,232.19,138s-80.25,56.59-80.25,56.59l-32.63,66.55C54,296,10,362.17,10,438c0,112.25,96.43,203.24,215.37,203.24,117.57,0,213.12-88.9,215.32-199.34C473,419.61,548.81,365.68,540.86,351.81Z"/></clipPath><clipPath id="clip-path-3"><path class="cls-1" d="M227.68,319.63l-2.36,9.78s-19.92,12.9-37.91,11.87c-5.34-.3,67.76,42.8,71.74,43s34.38-50.16,34.38-50.16-20.41-3.73-27.17-4-14.47-18.28-14.47-18.28Z"/></clipPath><clipPath id="clip-path-4"><path class="cls-1" d="M541.11-404.43c-10.3-18-97.34-31.5-97.34-31.5S301.45-624.7,232.44-618.27s-80.25,56.59-80.25,56.59l-32.63,66.55C54.29-460.21,10.25-394.07,10.25-318.22,10.25-206,106.68-115,225.62-115c117.57,0,213.12-88.9,215.32-199.35C473.29-336.63,549.06-390.56,541.11-404.43Z"/></clipPath></defs><title>M2-fala2</title><g id="Camada_5" data-name="Camada 5"><path class="cls-2" d="M225.37,234.78c119,0,215.37,91,215.37,203.24S344.32,641.26,225.37,641.26,10,550.27,10,438s96.42-203.24,215.37-203.24m0-10a235.1,235.1,0,0,0-87.54,16.69A225.72,225.72,0,0,0,66.22,287,212.37,212.37,0,0,0,17.8,354.82a203.34,203.34,0,0,0,0,166.4A212.3,212.3,0,0,0,66.22,589a225.89,225.89,0,0,0,71.61,45.57,238.05,238.05,0,0,0,175.08,0A225.94,225.94,0,0,0,384.53,589a212.12,212.12,0,0,0,48.41-67.79,203.34,203.34,0,0,0,0-166.4A212.19,212.19,0,0,0,384.53,287a225.76,225.76,0,0,0-71.62-45.57,235.1,235.1,0,0,0-87.54-16.69Z"/><ellipse class="cls-3" cx="225.37" cy="438.02" rx="215.37" ry="203.24"/><g class="cls-4"><rect class="cls-5" x="10" y="234.78" width="418.87" height="371.24"/><path class="cls-5" d="M206.79,475.71a120.37,120.37,0,1,1,167,33A120.37,120.37,0,0,1,206.79,475.71Z"/><path class="cls-6" d="M208.43,474.61a118.4,118.4,0,1,1,164.26,32.46A118.39,118.39,0,0,1,208.43,474.61Z"/><path class="cls-7" d="M210.07,473.51a116.43,116.43,0,1,1,161.52,31.92A116.42,116.42,0,0,1,210.07,473.51Z"/><path class="cls-8" d="M211.71,472.41A114.45,114.45,0,1,1,370.5,503.79,114.44,114.44,0,0,1,211.71,472.41Z"/><circle class="cls-9" cx="306.79" cy="408.71" r="112.48"/><circle class="cls-10" cx="306.79" cy="408.71" r="110.5"/><circle class="cls-11" cx="306.79" cy="408.71" r="108.53"/><circle class="cls-12" cx="306.79" cy="408.71" r="106.56"/><circle class="cls-13" cx="306.79" cy="408.71" r="104.58"/><circle class="cls-14" cx="306.79" cy="408.71" r="102.61"/><circle class="cls-15" cx="306.79" cy="408.71" r="100.64"/><circle class="cls-16" cx="306.79" cy="408.71" r="98.66"/><circle class="cls-17" cx="306.79" cy="408.71" r="96.69"/><circle class="cls-18" cx="306.79" cy="408.71" r="94.72"/><circle class="cls-19" cx="306.79" cy="408.71" r="92.74"/><circle class="cls-20" cx="306.79" cy="408.71" r="90.77"/><circle class="cls-21" cx="306.79" cy="408.71" r="88.8"/><circle class="cls-22" cx="306.79" cy="408.71" r="86.82"/><circle class="cls-23" cx="306.79" cy="408.71" r="84.85"/><circle class="cls-24" cx="306.79" cy="408.71" r="82.88"/><circle class="cls-25" cx="306.79" cy="408.71" r="80.9"/><circle class="cls-26" cx="306.79" cy="408.71" r="78.93"/><circle class="cls-27" cx="306.79" cy="408.71" r="76.96"/><circle class="cls-28" cx="306.79" cy="408.71" r="74.98"/><circle class="cls-29" cx="306.79" cy="408.71" r="73.01"/><circle class="cls-30" cx="306.79" cy="408.71" r="71.04"/><circle class="cls-31" cx="306.79" cy="408.71" r="69.06"/><circle class="cls-32" cx="306.79" cy="408.71" r="67.09"/><circle class="cls-33" cx="306.79" cy="408.71" r="65.12"/><circle class="cls-34" cx="306.79" cy="408.71" r="63.15"/><circle class="cls-35" cx="306.79" cy="408.71" r="61.17"/><circle class="cls-36" cx="306.79" cy="408.71" r="59.2"/><circle class="cls-37" cx="306.79" cy="408.71" r="57.23"/><circle class="cls-38" cx="306.79" cy="408.71" r="55.25"/><circle class="cls-39" cx="306.79" cy="408.71" r="53.28"/><circle class="cls-40" cx="306.79" cy="408.71" r="51.31"/><circle class="cls-41" cx="306.79" cy="408.71" r="49.33"/><circle class="cls-42" cx="306.79" cy="408.71" r="47.36"/><circle class="cls-43" cx="306.79" cy="408.71" r="45.39"/><circle class="cls-44" cx="306.79" cy="408.71" r="43.41"/><circle class="cls-45" cx="306.79" cy="408.71" r="41.44"/><circle class="cls-46" cx="306.79" cy="408.71" r="39.47"/><circle class="cls-47" cx="306.79" cy="408.71" r="37.49"/><circle class="cls-48" cx="306.79" cy="408.71" r="35.52"/><circle class="cls-49" cx="306.79" cy="408.71" r="33.55"/><circle class="cls-50" cx="306.79" cy="408.71" r="31.57"/><circle class="cls-51" cx="306.79" cy="408.71" r="29.6"/><circle class="cls-52" cx="306.79" cy="408.71" r="27.63"/><circle class="cls-53" cx="306.79" cy="408.71" r="25.65"/><circle class="cls-54" cx="306.79" cy="408.71" r="23.68"/><circle class="cls-55" cx="306.79" cy="408.71" r="21.71"/><circle class="cls-56" cx="306.79" cy="408.71" r="19.73"/><circle class="cls-57" cx="306.79" cy="408.71" r="17.76"/><circle class="cls-58" cx="306.79" cy="408.71" r="15.79"/><circle class="cls-59" cx="306.79" cy="408.71" r="13.81"/><circle class="cls-60" cx="306.79" cy="408.71" r="11.84"/><circle class="cls-61" cx="306.79" cy="408.71" r="9.87"/><circle class="cls-62" cx="306.79" cy="408.71" r="7.89"/><circle class="cls-63" cx="306.79" cy="408.71" r="5.92"/><circle class="cls-64" cx="306.79" cy="408.71" r="3.95"/><circle class="cls-65" cx="306.79" cy="408.71" r="1.97"/></g><path class="cls-3" d="M787.8,44.22c-174.89,0-318.64,118.13-335.23,269.27L353,353.14s-6.51,2.41-5.85,11.74a12.7,12.7,0,0,0,7.43,10.89L458.82,407C492,541,626.68,641.26,787.8,641.26c186,0,336.84-133.65,336.84-298.52S973.83,44.22,787.8,44.22Z"/><path class="cls-66" d="M787.75,0C612.85,0,469.11,118.13,452.52,269.27L353,308.92s-6.51,2.41-5.86,11.74a12.7,12.7,0,0,0,7.44,10.88l104.21,31.28C492,496.78,626.63,597,787.75,597c186,0,336.84-133.65,336.84-298.52S973.78,0,787.75,0Z"/><g class="cls-67"><path class="cls-68" d="M534.21,352.94a18,18,0,0,0-2.21-1.87,19.39,19.39,0,0,0-1.77-1.13A22.73,22.73,0,0,0,526,348.1a17.85,17.85,0,0,0-2.86-.67s-45.4,6.11-38.5,3-1.62-3.79-1.62-3.79-21.76,4.67-30,9.17c-5.48,3-12.26,25.5-12.26,25.5L453,395.57s13.81-9.68,18.89-14.76c3.66-3.66,20.55-3.28,33.25-5.34,4.95-.8,12.12-3.69,14.92-4.36,3.25-.78,3.54-3.18,6.58-5.16a30.6,30.6,0,0,0,4.82-3.82c1.7-1.67,1.32-1.57,1.87-3.17.27-.79,1.73-2.75,1.7-3.67A3.43,3.43,0,0,0,534.21,352.94Zm-19.63,13.12s-16.06,2.81-17-.63c-2.53,1,21.79-1.33,28.2-3.88Z"/><path class="cls-65" d="M153.28,564.7s24.48-21.86,24.48-27-14.35-8.35-14.35-8.35L143,558.89l9.58,7.33Z"/><path class="cls-69" d="M175.94,358.82S129,227,183.38,159.92c0,0,58.11-39.81,101.53,7s13,178.54,13,178.54Z"/><g class="cls-70"><polygon class="cls-71" points="293.46 311.8 293.49 312.12 182.06 322.49 182.06 311.8 293.46 311.8"/><polygon class="cls-71" points="293.49 312.12 293.53 312.49 293.53 312.93 182.06 323.3 182.06 322.49 293.49 312.12"/><polygon class="cls-72" points="293.53 313.74 182.06 324.11 182.06 323.3 293.53 312.93 293.53 313.74"/><polygon class="cls-73" points="293.53 314.55 182.06 324.93 182.06 324.11 293.53 313.74 293.53 314.55"/><polygon class="cls-74" points="293.53 315.37 182.06 325.74 182.06 324.93 293.53 314.55 293.53 315.37"/><polygon class="cls-75" points="293.53 316.18 182.06 326.55 182.06 325.74 293.53 315.37 293.53 316.18"/><polygon class="cls-76" points="293.53 316.99 182.06 327.37 182.06 326.55 293.53 316.18 293.53 316.99"/><polygon class="cls-77" points="293.53 317.81 182.06 328.18 182.06 327.37 293.53 316.99 293.53 317.81"/><polygon class="cls-78" points="293.53 318.62 182.06 328.99 182.06 328.18 293.53 317.81 293.53 318.62"/><polygon class="cls-79" points="293.53 319.43 182.06 329.81 182.06 328.99 293.53 318.62 293.53 319.43"/><polygon class="cls-80" points="293.53 320.24 182.06 330.62 182.06 329.81 293.53 319.43 293.53 320.24"/><polygon class="cls-81" points="293.53 321.06 182.06 331.43 182.06 330.62 293.53 320.24 293.53 321.06"/><polygon class="cls-82" points="293.53 321.87 182.06 332.24 182.06 331.43 293.53 321.06 293.53 321.87"/><polygon class="cls-83" points="293.53 322.68 182.06 333.06 182.06 332.24 293.53 321.87 293.53 322.68"/><polygon class="cls-84" points="293.53 323.5 182.06 333.87 182.06 333.06 293.53 322.68 293.53 323.5"/><polygon class="cls-85" points="293.53 324.31 182.06 334.68 182.06 333.87 293.53 323.5 293.53 324.31"/><polygon class="cls-86" points="293.53 325.12 182.06 335.5 182.06 334.68 293.53 324.31 293.53 325.12"/><polygon class="cls-87" points="293.53 325.94 182.06 336.31 182.06 335.5 293.53 325.12 293.53 325.94"/><polygon class="cls-88" points="293.53 326.75 182.06 337.12 182.06 336.31 293.53 325.94 293.53 326.75"/><polygon class="cls-89" points="293.53 327.56 182.06 337.94 182.06 337.12 293.53 326.75 293.53 327.56"/><polygon class="cls-90" points="293.53 328.38 182.06 338.75 182.06 337.94 293.53 327.56 293.53 328.38"/><polygon class="cls-91" points="293.53 329.19 182.06 339.56 182.06 338.75 293.53 328.38 293.53 329.19"/><polygon class="cls-92" points="293.53 330 182.06 340.38 182.06 339.56 293.53 329.19 293.53 330"/><polygon class="cls-68" points="293.53 330.82 182.06 341.19 182.06 340.38 293.53 330 293.53 330.82"/><polygon class="cls-68" points="184.1 384.38 182.06 362.56 182.06 341.19 293.53 330.82 293.53 384.38 184.1 384.38"/></g><path class="cls-68" d="M182.35,220.71s-.88,110.78,64.76,101.68C282.6,317.47,294.62,282,288,251.47a191.55,191.55,0,0,1-3.79-46.76s-4.08-29.37-38.7-20.31-49.64,5.72-49.64,5.72S180.29,193.3,182.35,220.71Z"/><path class="cls-69" d="M176.82,226.89s25.09-2.78,36.43-7.67l.58-15.39s2.55,9.93,4.85,12.4,22.88-.73,32-3.58,4.81-14.7,4.81-14.7l4.33,11.85s28.58,3.45,28.74-.93-3.86-24.71-12.21-28.74-73.88-4.44-83.08,4.1S177.28,214.69,176.82,226.89Z"/><ellipse class="cls-93" cx="265.7" cy="242.56" rx="3.92" ry="3.17" transform="translate(-22.23 26.86) rotate(-5.56)"/><ellipse class="cls-93" cx="226.63" cy="246.26" rx="3.92" ry="3.17" transform="translate(-22.78 23.1) rotate(-5.56)"/><path class="cls-94" d="M250.3,277a15.34,15.34,0,0,1-5.17-.8l.35-.94c5.16,1.91,13.88,0,15.56-3.34,1.13-2.27-1.44-4.53-3.78-6-6.89-4.38-5.32-8.94-5.25-9.13l.94.34c0,.16-1.33,4,4.84,7.94,4.88,3.11,4.95,5.69,4.14,7.32C260.47,275.31,255.12,277,250.3,277Z"/><path class="cls-95" d="M264.7,287.05c-18.37,4.76-37.46.2-36.73,1.53,0,0,1.77,14.25,18,14.15C262.72,302.62,264.7,287.05,264.7,287.05Z"/><path class="cls-65" d="M219.13,331.75s22.52,13.66,36.94,11.81c6.84-.88,18.95-14,18.95-14l13,129.73-49.8,2.24Z"/><path class="cls-96" d="M172.41,555.72s-17.61,72.57-15.63,92.45,4.68,52.17,34,145.94c0,0,78.25,32.39,150.2-.8,0,0,6.29-1.86,10.91-43.82S364.32,606.9,343.18,562,172.41,555.72,172.41,555.72Z"/><path class="cls-69" d="M274.56,219.71s-4.74-6.2-9.75-3.1a.89.89,0,0,0-.58,1.12c.25.83,1.91-1.64,9.83,2.73C274.06,220.46,274.56,220.75,274.56,219.71Z"/><path class="cls-69" d="M214.68,224.15s4.75-6.21,9.75-3.11a.89.89,0,0,1,.58,1.12c-.25.84-1.91-1.63-9.83,2.73C215.18,224.89,214.68,225.18,214.68,224.15Z"/><path class="cls-65" d="M262.37,287.6s-.65,3.21-2,4.13-15.62,2-24.11.95c-5.38-.66-6.4-3.32-6.26-4.3C230,288.38,248.84,290.65,262.37,287.6Z"/><path class="cls-97" d="M249.13,302.5s-1.22-9.7-18.49-7.16C230.64,295.34,234.77,304.19,249.13,302.5Z"/><ellipse class="cls-98" cx="280.76" cy="252.77" rx="3.62" ry="6.23" transform="translate(5.56 511.58) rotate(-85.24)"/><ellipse class="cls-98" cx="214.54" cy="262.02" rx="6.23" ry="3.62" transform="translate(-52.56 53.84) rotate(-12.76)"/><path class="cls-99" d="M333.31,438.84l41.91,37.38s10.59,6.85,14.41,7.27c4,.44,11.28-4.8,11.28-4.8l67.67-73.64s-37.64-24.88-38-28.5-33.25,46.55-33.25,46.55-2.17-2.74-7.67-1.67c-3,.59-1.59,5.6-7.66-.14-3.74-3.54-9.95-8.73-15.17-16.11-29.22-41.33-56.53-70.83-58.39-72.35s-11-6.17-14.23-4.65S275,329.59,275,329.59L277.66,445,219.13,331.75s-12.56,4.33-26.08,2.61S156.81,338,156.81,338s-10.24,27.71-17.55,29.81-11,20.25-11,20.25c-2.17,2.65-10.18,14.08-19.61,27.72h0s-37.48,45.93-43,49.91-2.65,13.44-2.65,13.44L141.9,562.9l27.83-35.51c-7.13-.5-43.13-49.77-43.13-49.77,2.53-4.53,2.3-8.26,1.56-10.72,17.3-18.49,42.63-47.18,42.63-47.18.41,4.06,6.47,16.8,16.93,32.51s9.69,42.14,9.69,42.14c-14.94,21.68-25,61.35-25,61.35s1,7.92,26.28,20.54c11,5.51,46.51,16.31,46.51,16.31l39.46-43.28,50.78,35.64s9.12-9.13,8.21-18.27-18.44-63.5-18.44-63.5-1.89-19,.27-24.66S333.31,438.84,333.31,438.84Z"/><path class="cls-71" d="M153.28,564.7s12.2,10.7,14.67,8.23l12.43-35.19S164.81,549,153.28,564.7Z"/><path class="cls-68" d="M170.63,565.87s5.9-5.86,14.86,2.8,9.68,9.26,9.68,9.26,7,2.88,7.52-4.63c0,0,8.8,1.29,6.83-8.39,0,0,6.13-4.42.7-12,0,0,5.51-1.06,2.24-11.47s-24-20.46-24-20.46-9.94-3.49-10.82,8.07c0,0-7.16.38-4.66,10.38,0,0-4.65,4.2-3.65,8.77s-.11,3.66-.11,3.66S162.54,559.29,170.63,565.87Z"/><path class="cls-94" d="M202.31,573.63c-.11-.14-11.87-13.67-24.48-19.79l.43-.9c12.8,6.21,24.69,19.9,24.81,20Z"/><path class="cls-94" d="M209.17,565.27c-.17-.16-17.14-16.1-29.48-22.75l.48-.88c12.45,6.72,29.52,22.74,29.69,22.9Z"/><path class="cls-94" d="M209.84,553.19c-.15-.18-15.21-17.9-27.55-21.76l.3-.95c12.61,3.94,27.39,21.33,28,22.07Z"/><path class="cls-100" d="M219.13,331.75S195,343.4,181.9,363.18l44.38,12.67s-15.11,14.86-14.79,18.07,66.17,51,66.17,51,33.54-61.51,29.81-64.56-24.29-6.81-24.29-6.81,19.48-27.61,22.87-27.95-28-16.36-31-16.05,2.52,110.28,2.52,110.28l-.15,2.38Z"/><path class="cls-96" d="M277.66,445s9.26,81.81,7,104.33"/><circle class="cls-100" cx="291.4" cy="469.64" r="5.33"/><circle class="cls-100" cx="293.53" cy="507.64" r="5.33"/><path class="cls-101" d="M173.56,402.9l-1-.23A76.61,76.61,0,0,0,161,341.82l.82-.57A77.63,77.63,0,0,1,173.56,402.9Z"/><path class="cls-101" d="M328.84,405.1l-1-.09c1.1-12.3-3.36-24.58-7.3-35.41-4.66-12.82-10-27.35-20.07-37.88l.72-.69c10.27,10.68,15.59,25.32,20.29,38.23C325.45,380.19,330,392.58,328.84,405.1Z"/><path class="cls-101" d="M146.07,375.14a27.73,27.73,0,0,0-3.49-6.94l.82-.57a28.39,28.39,0,0,1,3.62,7.19Z"/><path class="cls-101" d="M135.79,390.8a34.62,34.62,0,0,0-6.08-.84l0-1a36.56,36.56,0,0,1,6.25.85Z"/><path class="cls-101" d="M334.19,439.12l-1-.11a74.31,74.31,0,0,0,.43-11.93l1,0A75,75,0,0,1,334.19,439.12Z"/><path class="cls-101" d="M400.14,437.11a74.37,74.37,0,0,0-2.84-11.6l.95-.31A74,74,0,0,1,401.12,437Z"/><path class="cls-101" d="M384.8,437.09l-1-.15a60.44,60.44,0,0,0,.75-10.74l1,0A60.42,60.42,0,0,1,384.8,437.09Z"/><path class="cls-101" d="M200.16,494.73l-.52-.85a60,60,0,0,1,11.6-5.54l.33.94A58.87,58.87,0,0,0,200.16,494.73Z"/><path class="cls-101" d="M127.52,467.41c-2.33,0-10-.2-12.54-2.75l.7-.71c2.65,2.65,12.37,2.45,12.47,2.45l0,1Z"/><path class="cls-101" d="M118.58,481.06v-1c3.43,0,7.7-2.83,7.74-2.86l.56.83C126.69,478.16,122.31,481.06,118.58,481.06Z"/><path class="cls-102" d="M429.66,380.81s2.67-5,6.17-7l37.67,21.76L464.16,407Z"/><path class="cls-94" d="M468.18,355l-.7-.71c1.94-1.94,15-3.57,16.44-3.75l.12,1C478.37,352.26,469.47,353.75,468.18,355Z"/><path class="cls-94" d="M493.85,354.74c-1.39,0-1.52-.19-1.63-.35a.58.58,0,0,1,.09-.77l.71.71a.45.45,0,0,0,.09-.36.39.39,0,0,0-.21-.27c1.85.69,34.51-3.93,36.74-4.53v0c.13,0,.56-.05.67.37l-.28.58c-.42.2-11.19,1.79-18.63,2.79C500.47,354.34,495.86,354.74,493.85,354.74Z"/><path class="cls-94" d="M496.51,358.81a13.91,13.91,0,0,1-4-.37l.37-.93c3.79,1.53,39.32-2.56,40.89-4.7a.17.17,0,0,0,0,.1l1,.07a1.15,1.15,0,0,1-.6.8C530.85,355.82,506.61,358.81,496.51,358.81Z"/><path class="cls-94" d="M506.71,368c-3.94,0-8-.56-9.1-1.28a.83.83,0,0,1-.47-1l1,.29a.28.28,0,0,0,0-.22c.27.31,2.34.86,5.94,1.08,4.89.3,9.1-.22,10.23-1.25l.15-.1,17-6.81a8.06,8.06,0,0,1,2,0,.64.64,0,0,1,.41.42c.14.44-.19,1.19-1,2.24l-.81-.59a7.23,7.23,0,0,0,.71-1.15c-.32,0-.81,0-1.25,0l-16.65,6.71C513.51,367.62,510.14,368,506.71,368Z"/><path class="cls-94" d="M470.37,365.43l-.41-.91c.2-.09,4.9-2.33,4.62-8.69l1,0A10,10,0,0,1,470.37,365.43Z"/><path class="cls-94" d="M457.8,373l-.94-.33c.14-.4,3.66-9.84,21.35-8.16.08,0,3.77.61,5.41-1l.08-.08.11,0c.25-.09,6.15-2.07,9.66.61l-.61.79c-2.85-2.18-7.85-.74-8.62-.49-2,1.9-6,1.25-6.16,1.22C461.2,363.85,457.84,372.88,457.8,373Z"/><path class="cls-94" d="M497.86,368.5l-.92-.39c.32-.77.61-2,.29-2.32-.07-.07-6.06-7.14-5.25-8.56a17.69,17.69,0,0,0,.19-4.89l1-.06c0,.74.23,4.49-.31,5.44,0,.89,4.21,6.49,5.08,7.36S498,368.09,497.86,368.5Z"/></g><path class="cls-69" d="M578.42,213.83v-1.3h6.45v1.3l-2.36.19v8.53h12V214l-2.36-.19v-1.3h6.45v1.3l-2.36.19v18.35l2.36.19v1.29h-6.45v-1.29l2.36-.19V224h-12v8.33l2.36.19v1.29h-6.45v-1.29l2.36-.19V214Z"/><path class="cls-69" d="M601.08,225.69A8.57,8.57,0,0,1,603,220a6.78,6.78,0,0,1,10.07,0,8.57,8.57,0,0,1,1.9,5.74v.49a8.6,8.6,0,0,1-1.89,5.75,6.81,6.81,0,0,1-10.08,0,8.56,8.56,0,0,1-1.9-5.75Zm1.74.49a7.61,7.61,0,0,0,1.38,4.63,4.84,4.84,0,0,0,7.64,0,7.67,7.67,0,0,0,1.37-4.63v-.49a7.6,7.6,0,0,0-1.38-4.6,4.81,4.81,0,0,0-7.63,0,7.6,7.6,0,0,0-1.38,4.6Z"/><path class="cls-69" d="M622.2,235.16a5.56,5.56,0,0,1-1.16,3.77,4.08,4.08,0,0,1-3.23,1.33,4.25,4.25,0,0,1-.83-.08c-.26-.05-.52-.12-.79-.2l.18-1.48a5,5,0,0,0,.62.14,4,4,0,0,0,.72.08,2.47,2.47,0,0,0,2-.9,4.22,4.22,0,0,0,.72-2.66V219.5l-2.36-.19V218h4.1Zm-.09-21.76h-1.74V211h1.74Z"/><path class="cls-69" d="M632.84,234.16a6.28,6.28,0,0,1-4.9-2.19A8.11,8.11,0,0,1,626,226.4v-.81a8.34,8.34,0,0,1,1.93-5.64,6,6,0,0,1,4.68-2.24,5.81,5.81,0,0,1,4.54,1.85,7.11,7.11,0,0,1,1.65,4.92V226H627.72v.43a7,7,0,0,0,1.42,4.47,4.45,4.45,0,0,0,3.7,1.81,7.6,7.6,0,0,0,2.76-.45,5.5,5.5,0,0,0,1.95-1.31l.74,1.21a6.22,6.22,0,0,1-2.23,1.48A8.44,8.44,0,0,1,632.84,234.16Zm-.23-14.95a4.14,4.14,0,0,0-3.23,1.48,6.48,6.48,0,0,0-1.53,3.73l0,.07h9.19v-.44a5.09,5.09,0,0,0-1.2-3.45A4.08,4.08,0,0,0,632.61,219.21Z"/><path class="cls-69" d="M656,234.16a6.28,6.28,0,0,1-4.9-2.19,8.11,8.11,0,0,1-1.94-5.57v-.81a8.35,8.35,0,0,1,1.94-5.64,6,6,0,0,1,4.67-2.24,5.78,5.78,0,0,1,4.54,1.85,7.11,7.11,0,0,1,1.65,4.92V226H650.92v.43a7,7,0,0,0,1.41,4.47,4.47,4.47,0,0,0,3.7,1.81,7.56,7.56,0,0,0,2.76-.45,5.63,5.63,0,0,0,2-1.31l.73,1.21a6.13,6.13,0,0,1-2.23,1.48A8.44,8.44,0,0,1,656,234.16Zm-.23-14.95a4.12,4.12,0,0,0-3.22,1.48,6.35,6.35,0,0,0-1.53,3.73l0,.07h9.19v-.44a5,5,0,0,0-1.21-3.45A4.08,4.08,0,0,0,655.8,219.21Zm1.64-7.26h2.13l0,.09-3.6,3.81h-1.56Z"/><path class="cls-69" d="M683.21,231.57a5.43,5.43,0,0,1-2,1.92,5.94,5.94,0,0,1-2.9.67,5.21,5.21,0,0,1-4.4-2.12,9.26,9.26,0,0,1-1.59-5.67v-.31A10.41,10.41,0,0,1,673.9,220a5.1,5.1,0,0,1,4.43-2.28,5.51,5.51,0,0,1,2.84.7,5.65,5.65,0,0,1,2,2V212.5l-2.36-.19V211h4.1v21.37l2.36.19v1.29h-3.91Zm-9.14-5.2a8.18,8.18,0,0,0,1.13,4.57,3.87,3.87,0,0,0,3.43,1.7,4.9,4.9,0,0,0,2.79-.76,5,5,0,0,0,1.75-2.1v-7.5a5.49,5.49,0,0,0-1.67-2.2,4.55,4.55,0,0,0-2.84-.85,3.79,3.79,0,0,0-3.44,1.9,9.39,9.39,0,0,0-1.15,4.93Z"/><path class="cls-69" d="M689.82,232.56l2.37-.19V219.5l-2.37-.19V218h4.09v14.37l2.37.19v1.29h-6.46Zm4.09-19.1h-1.72V211h1.72Z"/><path class="cls-69" d="M710,233.85c-.12-.53-.2-1-.25-1.39a9.23,9.23,0,0,1-.07-1.18,6.93,6.93,0,0,1-2.32,2.06,6.47,6.47,0,0,1-3.26.82,5,5,0,0,1-3.57-1.2,4.27,4.27,0,0,1-1.26-3.25,4,4,0,0,1,1.87-3.49,8.81,8.81,0,0,1,5.07-1.29h3.47v-2.09a3.42,3.42,0,0,0-1.08-2.67,4.4,4.4,0,0,0-3-1,7.84,7.84,0,0,0-2.39.35,5.34,5.34,0,0,0-1.8,1l-.15,2.12h-1.43v-3a8.92,8.92,0,0,1,2.6-1.38,9.81,9.81,0,0,1,3.23-.53,6.28,6.28,0,0,1,4.17,1.33,4.72,4.72,0,0,1,1.58,3.83v7.79q0,.48,0,.93a6.1,6.1,0,0,0,.09.87l1.57.1v1.29Zm-5.71-1.24a6.22,6.22,0,0,0,3.32-.88,5.24,5.24,0,0,0,2.07-2.27v-3.18h-3.49a6.46,6.46,0,0,0-3.78,1,3,3,0,0,0-1.41,2.5,2.62,2.62,0,0,0,.87,2A3.48,3.48,0,0,0,704.31,232.61Z"/><path class="cls-69" d="M733.69,231.57a5.43,5.43,0,0,1-2,1.92,6,6,0,0,1-2.9.67,5.19,5.19,0,0,1-4.4-2.12,9.26,9.26,0,0,1-1.59-5.67v-.31a10.41,10.41,0,0,1,1.59-6.07,5.09,5.09,0,0,1,4.43-2.28,5.54,5.54,0,0,1,2.84.7,5.65,5.65,0,0,1,2,2V212.5l-2.37-.19V211h4.11v21.37l2.36.19v1.29h-3.91Zm-9.15-5.2a8.09,8.09,0,0,0,1.14,4.57,3.86,3.86,0,0,0,3.43,1.7,4.92,4.92,0,0,0,2.79-.76,5.1,5.1,0,0,0,1.75-2.1v-7.5a5.52,5.52,0,0,0-1.68-2.2,4.52,4.52,0,0,0-2.83-.85,3.77,3.77,0,0,0-3.44,1.9,9.39,9.39,0,0,0-1.16,4.93Z"/><path class="cls-69" d="M747.33,234.16a6.28,6.28,0,0,1-4.9-2.19,8.11,8.11,0,0,1-1.94-5.57v-.81a8.35,8.35,0,0,1,1.94-5.64,6,6,0,0,1,4.67-2.24,5.79,5.79,0,0,1,4.54,1.85,7.11,7.11,0,0,1,1.65,4.92V226H742.22v.43a7,7,0,0,0,1.41,4.47,4.47,4.47,0,0,0,3.7,1.81,7.6,7.6,0,0,0,2.76-.45,5.5,5.5,0,0,0,1.95-1.31l.74,1.21a6.22,6.22,0,0,1-2.23,1.48A8.44,8.44,0,0,1,747.33,234.16Zm-.23-14.95a4.14,4.14,0,0,0-3.23,1.48,6.41,6.41,0,0,0-1.52,3.73l0,.07h9.19v-.44a5.09,5.09,0,0,0-1.2-3.45A4.08,4.08,0,0,0,747.1,219.21Z"/><path class="cls-69" d="M775.14,231.25a5.47,5.47,0,0,1-2,2.15,5.77,5.77,0,0,1-3,.76,4.77,4.77,0,0,1-3.88-1.7q-1.4-1.69-1.4-5.27V219.5l-1.94-.19V218h3.67v9.22a6.83,6.83,0,0,0,1,4.16,3.31,3.31,0,0,0,2.77,1.26,5.13,5.13,0,0,0,3.14-.88,4.7,4.7,0,0,0,1.65-2.43V219.5l-2.23-.19V218h4v14.37l2.1.19v1.29h-3.63Z"/><path class="cls-69" d="M781.09,219.31V218H785l.16,2.63a5.55,5.55,0,0,1,2-2.16,5.67,5.67,0,0,1,3-.76,4.92,4.92,0,0,1,3,.89,4.85,4.85,0,0,1,1.72,2.7,6.2,6.2,0,0,1,2-2.63,5.25,5.25,0,0,1,3.19-1A4.7,4.7,0,0,1,804,219.4a8.2,8.2,0,0,1,1.37,5.21v7.75l2.36.2v1.29h-6.48v-1.29l2.37-.2v-7.78c0-2-.34-3.33-1-4.14a3.54,3.54,0,0,0-2.84-1.21,3.86,3.86,0,0,0-3.13,1.31,6.27,6.27,0,0,0-1.35,3.32v.22a2.1,2.1,0,0,1,0,.27v8l2.36.19v1.29h-6.46v-1.29l2.36-.19v-7.79a6.38,6.38,0,0,0-1-4.11,3.53,3.53,0,0,0-2.84-1.24,4.31,4.31,0,0,0-2.94,1,5,5,0,0,0-1.51,2.54v9.65l2.36.19v1.29h-6.47v-1.29l2.37-.19V219.5Z"/><path class="cls-69" d="M820.7,233.85c-.12-.53-.2-1-.25-1.39a9.23,9.23,0,0,1-.07-1.18,7,7,0,0,1-2.32,2.06,6.47,6.47,0,0,1-3.26.82,5,5,0,0,1-3.57-1.2,4.27,4.27,0,0,1-1.26-3.25,4,4,0,0,1,1.87-3.49,8.81,8.81,0,0,1,5.07-1.29h3.47v-2.09a3.42,3.42,0,0,0-1.08-2.67,4.4,4.4,0,0,0-3-1,7.84,7.84,0,0,0-2.39.35,5.34,5.34,0,0,0-1.8,1l-.15,2.12h-1.43v-3a8.92,8.92,0,0,1,2.6-1.38,9.81,9.81,0,0,1,3.23-.53,6.28,6.28,0,0,1,4.17,1.33,4.72,4.72,0,0,1,1.58,3.83v7.79q0,.48,0,.93a6.1,6.1,0,0,0,.09.87l1.56.1v1.29ZM815,232.61a6.22,6.22,0,0,0,3.32-.88,5.24,5.24,0,0,0,2.07-2.27v-3.18h-3.49a6.46,6.46,0,0,0-3.78,1,3,3,0,0,0-1.42,2.5,2.62,2.62,0,0,0,.88,2A3.48,3.48,0,0,0,815,232.61Z"/><path class="cls-69" d="M833.47,225.69a8.57,8.57,0,0,1,1.9-5.74,6.78,6.78,0,0,1,10.07,0,8.57,8.57,0,0,1,1.9,5.74v.49a8.6,8.6,0,0,1-1.89,5.75,6.81,6.81,0,0,1-10.08,0,8.56,8.56,0,0,1-1.9-5.75Zm1.74.49a7.67,7.67,0,0,0,1.37,4.63,4.5,4.5,0,0,0,3.85,1.87,4.43,4.43,0,0,0,3.79-1.87,7.61,7.61,0,0,0,1.38-4.63v-.49a7.6,7.6,0,0,0-1.38-4.6,4.82,4.82,0,0,0-7.64,0,7.66,7.66,0,0,0-1.37,4.6ZM842,212h2.13l.05.09-3.61,3.81H839Z"/><path class="cls-69" d="M854.15,214V218h3.45v1.44h-3.45v10.33a3.4,3.4,0,0,0,.56,2.2,1.84,1.84,0,0,0,1.49.65c.28,0,.55,0,.82,0s.57-.07.92-.13l.26,1.31a4.86,4.86,0,0,1-1.06.29,7.44,7.44,0,0,1-1.25.1,3.25,3.25,0,0,1-2.57-1,5,5,0,0,1-.92-3.34V219.44h-2.7V218h2.7V214Z"/><path class="cls-69" d="M860.68,232.56l2.36-.19V219.5l-2.36-.19V218h4.09v14.37l2.36.19v1.29h-6.45Zm4.09-19.1H863V211h1.73Z"/><path class="cls-69" d="M869.67,219.31V218h3.9l.16,2.63a5.52,5.52,0,0,1,2-2.16,5.67,5.67,0,0,1,3-.76,4.54,4.54,0,0,1,4.73,3.59,6.11,6.11,0,0,1,2-2.63,5.26,5.26,0,0,1,3.2-1,4.68,4.68,0,0,1,3.87,1.69c.92,1.12,1.37,2.86,1.37,5.21v7.75l2.37.2v1.29h-6.48v-1.29l2.36-.2v-7.78a6.5,6.5,0,0,0-1-4.14,3.54,3.54,0,0,0-2.85-1.21,3.84,3.84,0,0,0-3.12,1.31,6.2,6.2,0,0,0-1.36,3.32,1.55,1.55,0,0,0,0,.22v8.29l2.37.19v1.29h-6.47v-1.29l2.36-.19v-7.79a6.45,6.45,0,0,0-1-4.11,3.53,3.53,0,0,0-2.85-1.24,4.31,4.31,0,0,0-2.94,1,5,5,0,0,0-1.51,2.54v9.65l2.36.19v1.29h-6.46v-1.29l2.36-.19V219.5Z"/><path class="cls-69" d="M909.27,233.85c-.12-.53-.2-1-.25-1.39a11.5,11.5,0,0,1-.07-1.18,6.93,6.93,0,0,1-2.32,2.06,6.45,6.45,0,0,1-3.26.82,5,5,0,0,1-3.57-1.2,4.27,4.27,0,0,1-1.26-3.25,4,4,0,0,1,1.87-3.49,8.82,8.82,0,0,1,5.08-1.29H909v-2.09a3.42,3.42,0,0,0-1.08-2.67,4.4,4.4,0,0,0-3-1,7.84,7.84,0,0,0-2.39.35,5.34,5.34,0,0,0-1.8,1l-.14,2.12h-1.44v-3a9,9,0,0,1,2.61-1.38,9.75,9.75,0,0,1,3.22-.53A6.33,6.33,0,0,1,909.1,219a4.75,4.75,0,0,1,1.58,3.83v7.79c0,.32,0,.63,0,.93a6.1,6.1,0,0,0,.09.87l1.57.1v1.29Zm-5.71-1.24a6.22,6.22,0,0,0,3.32-.88,5.12,5.12,0,0,0,2.07-2.27v-3.18h-3.49a6.46,6.46,0,0,0-3.78,1,3,3,0,0,0-1.41,2.5,2.59,2.59,0,0,0,.88,2A3.43,3.43,0,0,0,903.56,232.61Z"/><path class="cls-69" d="M921.8,219.44V218h2.59v-2.31a5.3,5.3,0,0,1,1.19-3.69,4.26,4.26,0,0,1,3.32-1.31,6.19,6.19,0,0,1,1,.08,8.85,8.85,0,0,1,1,.2l-.21,1.45c-.23-.06-.47-.1-.71-.14a7,7,0,0,0-.86-.05,2.7,2.7,0,0,0-2.18.91,3.86,3.86,0,0,0-.76,2.55V218h3.74v1.44h-3.74v12.93l2.36.19v1.29H922v-1.29l2.36-.19V219.44Z"/><path class="cls-69" d="M939.12,234.16a6.26,6.26,0,0,1-4.9-2.19,8.06,8.06,0,0,1-1.94-5.57v-.81a8.34,8.34,0,0,1,1.93-5.64,6,6,0,0,1,4.68-2.24,5.77,5.77,0,0,1,4.53,1.85,7.06,7.06,0,0,1,1.66,4.92V226H934v.43a7,7,0,0,0,1.41,4.47,4.48,4.48,0,0,0,3.71,1.81,7.51,7.51,0,0,0,2.75-.45,5.45,5.45,0,0,0,2-1.31l.74,1.21a6.31,6.31,0,0,1-2.23,1.48A8.48,8.48,0,0,1,939.12,234.16Zm-.23-14.95a4.14,4.14,0,0,0-3.23,1.48,6.48,6.48,0,0,0-1.53,3.73l0,.07h9.19v-.44a5.09,5.09,0,0,0-1.2-3.45A4.08,4.08,0,0,0,938.89,219.21Z"/><path class="cls-69" d="M948.06,232.56l2.37-.19V219.5l-2.37-.19V218h4.09v14.37l2.36.19v1.29h-6.45Zm4.09-19.1h-1.72V211h1.72Z"/><path class="cls-69" d="M961.18,218l.22,2.64v.19a5.52,5.52,0,0,1,1.82-2.29,4.58,4.58,0,0,1,2.73-.83,4.62,4.62,0,0,1,.65,0c.2,0,.38.07.51.11l-.23,1.64-1.29-.09a3.92,3.92,0,0,0-2.69.94,5.14,5.14,0,0,0-1.5,2.55v9.46l2.36.19v1.29h-6.45v-1.29l2.36-.19V219.5l-2.36-.19V218h3.87Z"/><path class="cls-69" d="M980.19,233.85c-.12-.53-.2-1-.25-1.39a9.23,9.23,0,0,1-.07-1.18,7,7,0,0,1-2.32,2.06,6.5,6.5,0,0,1-3.26.82,5,5,0,0,1-3.57-1.2,4.27,4.27,0,0,1-1.26-3.25,4,4,0,0,1,1.87-3.49,8.81,8.81,0,0,1,5.07-1.29h3.47v-2.09a3.42,3.42,0,0,0-1.08-2.67,4.4,4.4,0,0,0-3-1,7.84,7.84,0,0,0-2.39.35,5.34,5.34,0,0,0-1.8,1l-.15,2.12H970v-3a8.79,8.79,0,0,1,2.6-1.38,9.81,9.81,0,0,1,3.23-.53A6.28,6.28,0,0,1,980,219a4.72,4.72,0,0,1,1.58,3.83v7.79c0,.32,0,.63,0,.93a8,8,0,0,0,.1.87l1.56.1v1.29Zm-5.71-1.24a6.16,6.16,0,0,0,3.31-.88,5.21,5.21,0,0,0,2.08-2.27v-3.18h-3.5a6.45,6.45,0,0,0-3.77,1,3,3,0,0,0-1.42,2.5,2.62,2.62,0,0,0,.88,2A3.48,3.48,0,0,0,974.48,232.61Z"/><path class="cls-69" d="M578.45,248.31V247h4.09v21.37l2.36.19v1.29h-6.45v-1.29l2.36-.19V248.5Z"/><path class="cls-69" d="M587.52,268.56l2.37-.19V255.5l-2.37-.19V254h4.09v14.37l2.37.19v1.29h-6.46Zm4.09-19.1h-1.72V247h1.72Z"/><path class="cls-69" d="M601.44,255.31l-2,.14,3.92,10.43.51,1.86H604l.55-1.86,3.86-10.43-2-.14V254h5.28v1.31l-1.54.13-5.53,14.41h-1.4l-5.55-14.41-1.53-.13V254h5.27Z"/><path class="cls-69" d="M617.39,254l.21,2.64v.19a5.68,5.68,0,0,1,1.82-2.29,4.59,4.59,0,0,1,2.74-.83,4.48,4.48,0,0,1,.64,0c.21,0,.38.07.52.11l-.24,1.64-1.29-.09a3.89,3.89,0,0,0-2.68.94,5.09,5.09,0,0,0-1.51,2.55v9.46l2.37.19v1.29h-6.45v-1.29l2.36-.19V255.5l-2.36-.19V254h3.87Z"/><path class="cls-69" d="M632.2,270.16a6.28,6.28,0,0,1-4.9-2.19,8.11,8.11,0,0,1-1.94-5.57v-.81A8.35,8.35,0,0,1,627.3,256a6,6,0,0,1,4.67-2.24,5.79,5.79,0,0,1,4.54,1.85,7.11,7.11,0,0,1,1.65,4.92V262H627.09v.43a7,7,0,0,0,1.41,4.47,4.47,4.47,0,0,0,3.7,1.81,7.56,7.56,0,0,0,2.76-.45,5.5,5.5,0,0,0,1.95-1.31l.74,1.21a6.22,6.22,0,0,1-2.23,1.48A8.44,8.44,0,0,1,632.2,270.16Zm-.23-15a4.12,4.12,0,0,0-3.22,1.48,6.35,6.35,0,0,0-1.53,3.73l0,.07h9.19v-.44a5.09,5.09,0,0,0-1.21-3.45A4.08,4.08,0,0,0,632,255.21Z"/><path class="cls-69" d="M643.79,269.15a6.79,6.79,0,0,1-.55,2.64,6.47,6.47,0,0,1-1.48,2.18l-1-.76a7.69,7.69,0,0,0,1-1.92,6.44,6.44,0,0,0,.33-2.11V267.1h1.73Z"/><path class="cls-69" d="M653.7,255.31V254h3.81l.22,2.46a5.75,5.75,0,0,1,2-2,5.65,5.65,0,0,1,2.9-.72A5.12,5.12,0,0,1,667.1,256a10.41,10.41,0,0,1,1.59,6.07v.31a9.27,9.27,0,0,1-1.59,5.68,5.21,5.21,0,0,1-4.4,2.11,6.19,6.19,0,0,1-2.89-.64,5.17,5.17,0,0,1-2-1.81v6.74l2.36.19V276H653.7v-1.31l2.36-.19V255.5ZM667,262.06a9.19,9.19,0,0,0-1.19-4.92,3.85,3.85,0,0,0-3.48-1.91,4.56,4.56,0,0,0-2.85.85,5.16,5.16,0,0,0-1.64,2.19v7.61a4.75,4.75,0,0,0,1.72,2.05,4.93,4.93,0,0,0,2.8.75,3.91,3.91,0,0,0,3.46-1.73,8,8,0,0,0,1.18-4.58Z"/><path class="cls-69" d="M678.43,270.16a6.28,6.28,0,0,1-4.9-2.19,8.11,8.11,0,0,1-1.94-5.57v-.81a8.34,8.34,0,0,1,1.93-5.64,6,6,0,0,1,4.68-2.24,5.79,5.79,0,0,1,4.54,1.85,7.11,7.11,0,0,1,1.65,4.92V262H673.31v.43a7.05,7.05,0,0,0,1.42,4.47,4.45,4.45,0,0,0,3.7,1.81,7.6,7.6,0,0,0,2.76-.45,5.5,5.5,0,0,0,1.95-1.31l.74,1.21a6.22,6.22,0,0,1-2.23,1.48A8.44,8.44,0,0,1,678.43,270.16Zm-.23-15a4.14,4.14,0,0,0-3.23,1.48,6.48,6.48,0,0,0-1.53,3.73l0,.07h9.19v-.44a5.09,5.09,0,0,0-1.2-3.45A4.08,4.08,0,0,0,678.2,255.21Z"/><path class="cls-69" d="M691.25,254l.21,2.64v.19a5.6,5.6,0,0,1,1.82-2.29,4.59,4.59,0,0,1,2.74-.83,4.48,4.48,0,0,1,.64,0c.21,0,.38.07.52.11l-.24,1.64-1.29-.09a3.92,3.92,0,0,0-2.69.94,5.14,5.14,0,0,0-1.5,2.55v9.46l2.37.19v1.29h-6.45v-1.29l2.36-.19V255.5l-2.36-.19V254h3.87Z"/><path class="cls-69" d="M703.87,250V254h3.45v1.44h-3.45v10.33a3.4,3.4,0,0,0,.56,2.2,1.84,1.84,0,0,0,1.49.65c.28,0,.55,0,.82,0s.57-.07.92-.13l.26,1.31a5,5,0,0,1-1.06.29,7.53,7.53,0,0,1-1.25.1,3.23,3.23,0,0,1-2.57-1.05,5,5,0,0,1-.92-3.34V255.44h-2.7V254h2.7V250Z"/><path class="cls-69" d="M710.22,261.69a8.57,8.57,0,0,1,1.9-5.74,6.79,6.79,0,0,1,10.08,0,8.62,8.62,0,0,1,1.9,5.74v.49a8.61,8.61,0,0,1-1.9,5.75,6.24,6.24,0,0,1-5,2.23,6.3,6.3,0,0,1-5.06-2.23,8.56,8.56,0,0,1-1.9-5.75Zm1.74.49a7.61,7.61,0,0,0,1.38,4.63,4.84,4.84,0,0,0,7.64,0,7.61,7.61,0,0,0,1.38-4.63v-.49a7.61,7.61,0,0,0-1.39-4.6,4.81,4.81,0,0,0-7.63,0,7.6,7.6,0,0,0-1.38,4.6Z"/><path class="cls-69" d="M745,267.57a5.43,5.43,0,0,1-2,1.92,5.94,5.94,0,0,1-2.9.67,5.19,5.19,0,0,1-4.4-2.12,9.26,9.26,0,0,1-1.59-5.67v-.31a10.41,10.41,0,0,1,1.59-6.07,5.09,5.09,0,0,1,4.43-2.28,5.51,5.51,0,0,1,2.84.7,5.65,5.65,0,0,1,2,2V248.5l-2.36-.19V247h4.1v21.37l2.36.19v1.29h-3.91Zm-9.14-5.2a8.1,8.1,0,0,0,1.13,4.57,3.86,3.86,0,0,0,3.43,1.7,4.92,4.92,0,0,0,2.79-.76,5.1,5.1,0,0,0,1.75-2.1v-7.5a5.52,5.52,0,0,0-1.68-2.2,4.52,4.52,0,0,0-2.83-.85,3.78,3.78,0,0,0-3.44,1.9,9.39,9.39,0,0,0-1.15,4.93Z"/><path class="cls-69" d="M758.68,270.16a6.28,6.28,0,0,1-4.9-2.19,8.11,8.11,0,0,1-1.94-5.57v-.81a8.35,8.35,0,0,1,1.94-5.64,6,6,0,0,1,4.67-2.24,5.79,5.79,0,0,1,4.54,1.85,7.11,7.11,0,0,1,1.65,4.92V262H753.57v.43a7,7,0,0,0,1.41,4.47,4.47,4.47,0,0,0,3.7,1.81,7.56,7.56,0,0,0,2.76-.45,5.63,5.63,0,0,0,2-1.31l.73,1.21a6.22,6.22,0,0,1-2.23,1.48A8.44,8.44,0,0,1,758.68,270.16Zm-.23-15a4.12,4.12,0,0,0-3.22,1.48,6.35,6.35,0,0,0-1.53,3.73l0,.07h9.19v-.44a5,5,0,0,0-1.21-3.45A4.08,4.08,0,0,0,758.45,255.21Z"/><path class="cls-69" d="M774.59,255.31V254h3.89l.16,2.63a5.37,5.37,0,0,1,5-2.92,4.54,4.54,0,0,1,4.73,3.59,6.11,6.11,0,0,1,2-2.63,5.25,5.25,0,0,1,3.19-1,4.69,4.69,0,0,1,3.88,1.69c.92,1.12,1.37,2.86,1.37,5.21v7.75l2.37.2v1.29h-6.48v-1.29l2.36-.2v-7.78a6.5,6.5,0,0,0-1-4.14,3.54,3.54,0,0,0-2.85-1.21,3.86,3.86,0,0,0-3.13,1.31,6.27,6.27,0,0,0-1.35,3.32,1.55,1.55,0,0,0,0,.22v8.29l2.37.19v1.29h-6.47v-1.29l2.36-.19v-7.79a6.45,6.45,0,0,0-1-4.11,3.53,3.53,0,0,0-2.85-1.24,4.31,4.31,0,0,0-2.94,1,5,5,0,0,0-1.51,2.54v9.65l2.36.19v1.29h-6.46v-1.29l2.36-.19V255.5Z"/><path class="cls-69" d="M803.24,268.56l2.37-.19V255.5l-2.37-.19V254h4.09v14.37l2.37.19v1.29h-6.46Zm4.09-19.1h-1.72V247h1.72Z"/><path class="cls-69" d="M812.29,268.56l2.36-.19V255.5l-2.36-.19V254h3.9l.16,2.77a5.42,5.42,0,0,1,5.07-3.06,4.82,4.82,0,0,1,3.89,1.58,7.48,7.48,0,0,1,1.33,4.91v8.17l2.37.19v1.29h-6.47v-1.29l2.36-.19v-8.16a5.79,5.79,0,0,0-1-3.85,3.67,3.67,0,0,0-2.87-1.13,4.46,4.46,0,0,0-3,1,5.43,5.43,0,0,0-1.66,2.58v9.58l2.37.19v1.29h-6.47Z"/><path class="cls-69" d="M831.22,248.31V247h4.09v9.71a5.85,5.85,0,0,1,2.09-2.21,5.72,5.72,0,0,1,3-.79,4.75,4.75,0,0,1,3.81,1.55,7.36,7.36,0,0,1,1.32,4.82v8.29l2.37.19v1.29h-6.47v-1.29l2.37-.19v-8.32a5.46,5.46,0,0,0-1-3.69,3.54,3.54,0,0,0-2.78-1.13,4.66,4.66,0,0,0-3,1,5.59,5.59,0,0,0-1.76,2.51v9.68l2.36.19v1.29h-6.45v-1.29l2.37-.19V248.5Z"/><path class="cls-69" d="M861.38,269.85c-.12-.53-.2-1-.25-1.39a9.23,9.23,0,0,1-.07-1.18,7,7,0,0,1-2.32,2.06,6.5,6.5,0,0,1-3.26.82,5,5,0,0,1-3.57-1.2,4.27,4.27,0,0,1-1.26-3.25,4,4,0,0,1,1.87-3.49,8.81,8.81,0,0,1,5.07-1.29h3.47v-2.09a3.42,3.42,0,0,0-1.08-2.67,4.41,4.41,0,0,0-3-1,7.77,7.77,0,0,0-2.38.35,5.34,5.34,0,0,0-1.8,1l-.15,2.12h-1.43v-3a8.79,8.79,0,0,1,2.6-1.38,9.81,9.81,0,0,1,3.23-.53A6.28,6.28,0,0,1,861.2,255a4.72,4.72,0,0,1,1.58,3.83v7.79c0,.32,0,.63,0,.93a8,8,0,0,0,.1.87l1.56.1v1.29Zm-5.72-1.24a6.17,6.17,0,0,0,3.32-.88,5.21,5.21,0,0,0,2.08-2.27v-3.18h-3.5a6.45,6.45,0,0,0-3.77,1,3,3,0,0,0-1.42,2.5,2.62,2.62,0,0,0,.88,2.05A3.47,3.47,0,0,0,855.66,268.61Z"/><path class="cls-69" d="M880.84,268.68a5,5,0,0,0,3-1,3.28,3.28,0,0,0,1.32-2.77h1.53l0,.09a4.36,4.36,0,0,1-1.73,3.67,6.4,6.4,0,0,1-4.2,1.48,5.94,5.94,0,0,1-4.94-2.22,8.91,8.91,0,0,1-1.75-5.7v-.62a8.89,8.89,0,0,1,1.75-5.68,5.9,5.9,0,0,1,4.93-2.23,7.89,7.89,0,0,1,3.32.69,6.59,6.59,0,0,1,2.45,1.87l.07,3.46h-1.48l-.27-2.81a4.87,4.87,0,0,0-1.73-1.25,5.75,5.75,0,0,0-2.36-.46A4.14,4.14,0,0,0,877.1,257a8.1,8.1,0,0,0-1.21,4.59v.62a8.27,8.27,0,0,0,1.2,4.63A4.17,4.17,0,0,0,880.84,268.68Z"/><path class="cls-69" d="M900.84,269.85c-.12-.53-.2-1-.25-1.39a9.23,9.23,0,0,1-.07-1.18,7,7,0,0,1-2.32,2.06,6.5,6.5,0,0,1-3.26.82,5,5,0,0,1-3.57-1.2,4.27,4.27,0,0,1-1.26-3.25,4,4,0,0,1,1.87-3.49,8.79,8.79,0,0,1,5.07-1.29h3.47v-2.09a3.42,3.42,0,0,0-1.08-2.67,4.41,4.41,0,0,0-3-1,7.77,7.77,0,0,0-2.38.35,5.49,5.49,0,0,0-1.81,1l-.14,2.12h-1.44l0-3a8.79,8.79,0,0,1,2.6-1.38,9.81,9.81,0,0,1,3.23-.53,6.28,6.28,0,0,1,4.17,1.33,4.75,4.75,0,0,1,1.58,3.83v7.79c0,.32,0,.63,0,.93a8,8,0,0,0,.1.87l1.56.1v1.29Zm-5.72-1.24a6.17,6.17,0,0,0,3.32-.88,5.21,5.21,0,0,0,2.08-2.27v-3.18H897a6.45,6.45,0,0,0-3.77,1,2.94,2.94,0,0,0-1.42,2.5,2.59,2.59,0,0,0,.88,2.05A3.45,3.45,0,0,0,895.12,268.61Z"/><path class="cls-69" d="M917.77,258.9h-1.42l-.21-2.24a4.29,4.29,0,0,0-1.64-1.07,6.25,6.25,0,0,0-2.29-.38,4.22,4.22,0,0,0-2.84.82,2.5,2.5,0,0,0-1,1.94,2.3,2.3,0,0,0,.82,1.82,7.82,7.82,0,0,0,3.26,1.26,10.52,10.52,0,0,1,4.19,1.72,3.58,3.58,0,0,1,1.4,3,3.85,3.85,0,0,1-1.59,3.2,6.74,6.74,0,0,1-4.2,1.22,9.67,9.67,0,0,1-3.17-.49,7.71,7.71,0,0,1-2.47-1.38v-3.2h1.41l.24,2.26a4.09,4.09,0,0,0,1.77,1,7.78,7.78,0,0,0,2.22.31,4.79,4.79,0,0,0,3-.83,2.47,2.47,0,0,0,1.09-2,2.54,2.54,0,0,0-.91-1.95,7.33,7.33,0,0,0-3.26-1.37,11,11,0,0,1-4.16-1.63,3.37,3.37,0,0,1-1.35-2.85A3.83,3.83,0,0,1,908.2,255a6.13,6.13,0,0,1,4-1.25,8.88,8.88,0,0,1,3.16.54,6.11,6.11,0,0,1,2.32,1.44Z"/><path class="cls-69" d="M932.07,269.85c-.11-.53-.19-1-.24-1.39a9.23,9.23,0,0,1-.07-1.18,7,7,0,0,1-2.32,2.06,6.51,6.51,0,0,1-3.27.82,5,5,0,0,1-3.56-1.2,4.27,4.27,0,0,1-1.26-3.25,4,4,0,0,1,1.87-3.49,8.77,8.77,0,0,1,5.07-1.29h3.47v-2.09a3.42,3.42,0,0,0-1.08-2.67,4.41,4.41,0,0,0-3-1,7.77,7.77,0,0,0-2.38.35,5.49,5.49,0,0,0-1.81,1l-.14,2.12h-1.44l0-3a8.79,8.79,0,0,1,2.6-1.38,9.77,9.77,0,0,1,3.23-.53A6.28,6.28,0,0,1,931.9,255a4.75,4.75,0,0,1,1.58,3.83v7.79c0,.32,0,.63,0,.93a8,8,0,0,0,.1.87l1.56.1v1.29Zm-5.71-1.24a6.17,6.17,0,0,0,3.32-.88,5.21,5.21,0,0,0,2.08-2.27v-3.18h-3.5a6.45,6.45,0,0,0-3.77,1,2.94,2.94,0,0,0-1.42,2.5,2.59,2.59,0,0,0,.88,2.05A3.45,3.45,0,0,0,926.36,268.61Z"/><path class="cls-69" d="M951.76,270.16a6.26,6.26,0,0,1-4.9-2.19,8.06,8.06,0,0,1-1.94-5.57v-.81a8.34,8.34,0,0,1,1.93-5.64,6,6,0,0,1,4.68-2.24,5.77,5.77,0,0,1,4.53,1.85,7.06,7.06,0,0,1,1.66,4.92V262H946.64v.43a7,7,0,0,0,1.42,4.47,4.45,4.45,0,0,0,3.7,1.81,7.51,7.51,0,0,0,2.75-.45,5.45,5.45,0,0,0,2-1.31l.74,1.21a6.22,6.22,0,0,1-2.23,1.48A8.44,8.44,0,0,1,951.76,270.16Zm-.23-15a4.14,4.14,0,0,0-3.23,1.48,6.48,6.48,0,0,0-1.53,3.73l0,.07H956v-.44a5.09,5.09,0,0,0-1.2-3.45A4.08,4.08,0,0,0,951.53,255.21Z"/><path class="cls-69" d="M975,270.16a6.28,6.28,0,0,1-4.9-2.19,8.11,8.11,0,0,1-1.94-5.57v-.81a8.35,8.35,0,0,1,1.94-5.64,6,6,0,0,1,4.67-2.24,5.79,5.79,0,0,1,4.54,1.85,7.11,7.11,0,0,1,1.65,4.92V262H969.84v.43a7,7,0,0,0,1.41,4.47,4.47,4.47,0,0,0,3.7,1.81,7.56,7.56,0,0,0,2.76-.45,5.5,5.5,0,0,0,1.95-1.31l.74,1.21a6.22,6.22,0,0,1-2.23,1.48A8.44,8.44,0,0,1,975,270.16Zm-.23-15a4.12,4.12,0,0,0-3.22,1.48,6.35,6.35,0,0,0-1.53,3.73l0,.07h9.19v-.44A5.09,5.09,0,0,0,978,256.6,4.08,4.08,0,0,0,974.72,255.21Zm1.64-7.26h2.13l0,.09-3.61,3.81h-1.55Z"/><path class="cls-69" d="M578.33,291.31V290h3.82l.21,2.46a5.83,5.83,0,0,1,2-2,5.71,5.71,0,0,1,2.91-.72,5.1,5.1,0,0,1,4.42,2.28,10.41,10.41,0,0,1,1.59,6.07v.31a9.27,9.27,0,0,1-1.59,5.68,5.19,5.19,0,0,1-4.39,2.11,6.2,6.2,0,0,1-2.9-.64,5.24,5.24,0,0,1-2-1.81v6.74l2.37.19V312h-6.46v-1.31l2.37-.19V291.5Zm13.25,6.75a9.19,9.19,0,0,0-1.18-4.92,3.87,3.87,0,0,0-3.48-1.91,4.56,4.56,0,0,0-2.85.85,5.18,5.18,0,0,0-1.65,2.19v7.61a4.75,4.75,0,0,0,1.72,2.05,4.93,4.93,0,0,0,2.8.75A3.91,3.91,0,0,0,590.4,303a8,8,0,0,0,1.18-4.58Z"/><path class="cls-69" d="M607,305.85c-.12-.53-.2-1-.25-1.39a11.5,11.5,0,0,1-.07-1.18,6.93,6.93,0,0,1-2.32,2.06,6.47,6.47,0,0,1-3.26.82,5,5,0,0,1-3.57-1.2,4.27,4.27,0,0,1-1.26-3.25,4,4,0,0,1,1.87-3.49,8.82,8.82,0,0,1,5.08-1.29h3.46v-2.09a3.42,3.42,0,0,0-1.08-2.67,4.4,4.4,0,0,0-3-1,7.84,7.84,0,0,0-2.39.35,5.34,5.34,0,0,0-1.8,1l-.15,2.12h-1.43v-3a9,9,0,0,1,2.6-1.38,9.81,9.81,0,0,1,3.23-.53,6.33,6.33,0,0,1,4.18,1.33,4.75,4.75,0,0,1,1.58,3.83v7.79c0,.32,0,.63,0,.93a6.1,6.1,0,0,0,.09.87l1.57.1v1.29Zm-5.71-1.24a6.22,6.22,0,0,0,3.32-.88,5.24,5.24,0,0,0,2.07-2.27v-3.18h-3.49a6.46,6.46,0,0,0-3.78,1,3,3,0,0,0-1.41,2.5,2.62,2.62,0,0,0,.87,2.05A3.48,3.48,0,0,0,601.27,304.61Z"/><path class="cls-69" d="M616.29,290l.21,2.64v.19a5.6,5.6,0,0,1,1.82-2.29,4.59,4.59,0,0,1,2.74-.83,4.48,4.48,0,0,1,.64.05c.21,0,.38.07.52.11l-.24,1.64-1.29-.09a3.92,3.92,0,0,0-2.69.94,5.14,5.14,0,0,0-1.5,2.55v9.46l2.37.19v1.29h-6.45v-1.29l2.36-.19V291.5l-2.36-.19V290h3.87Z"/><path class="cls-69" d="M635.29,305.85c-.11-.53-.2-1-.25-1.39a11.5,11.5,0,0,1-.07-1.18,6.93,6.93,0,0,1-2.32,2.06,6.45,6.45,0,0,1-3.26.82,5,5,0,0,1-3.57-1.2,4.27,4.27,0,0,1-1.26-3.25,4,4,0,0,1,1.87-3.49,8.82,8.82,0,0,1,5.08-1.29H635v-2.09a3.42,3.42,0,0,0-1.08-2.67,4.4,4.4,0,0,0-3-1,7.84,7.84,0,0,0-2.39.35,5.44,5.44,0,0,0-1.8,1l-.14,2.12H625.1v-3a9,9,0,0,1,2.61-1.38,9.75,9.75,0,0,1,3.22-.53,6.33,6.33,0,0,1,4.18,1.33,4.75,4.75,0,0,1,1.58,3.83v7.79c0,.32,0,.63,0,.93a8,8,0,0,0,.09.87l1.57.1v1.29Zm-5.71-1.24a6.19,6.19,0,0,0,3.32-.88,5.12,5.12,0,0,0,2.07-2.27v-3.18h-3.49a6.46,6.46,0,0,0-3.78,1,3,3,0,0,0-1.41,2.5,2.59,2.59,0,0,0,.88,2.05A3.45,3.45,0,0,0,629.58,304.61Z"/><path class="cls-69" d="M647.71,284.31V283h4.09v21.37l2.36.19v1.29h-6.45v-1.29l2.37-.19V284.5Z"/><path class="cls-69" d="M667.73,305.85c-.11-.53-.19-1-.24-1.39a9.23,9.23,0,0,1-.08-1.18,7,7,0,0,1-2.31,2.06,6.51,6.51,0,0,1-3.27.82,5,5,0,0,1-3.56-1.2,4.27,4.27,0,0,1-1.26-3.25,4,4,0,0,1,1.87-3.49,8.77,8.77,0,0,1,5.07-1.29h3.46v-2.09a3.42,3.42,0,0,0-1.08-2.67,4.38,4.38,0,0,0-3-1,7.77,7.77,0,0,0-2.38.35,5.49,5.49,0,0,0-1.81,1l-.14,2.12h-1.44l0-3a8.79,8.79,0,0,1,2.6-1.38,9.75,9.75,0,0,1,3.22-.53,6.31,6.31,0,0,1,4.18,1.33,4.75,4.75,0,0,1,1.58,3.83v7.79c0,.32,0,.63,0,.93a8,8,0,0,0,.1.87l1.56.1v1.29ZM662,304.61a6.17,6.17,0,0,0,3.32-.88,5.12,5.12,0,0,0,2.07-2.27v-3.18h-3.49a6.45,6.45,0,0,0-3.77,1,2.94,2.94,0,0,0-1.42,2.5,2.59,2.59,0,0,0,.88,2.05A3.45,3.45,0,0,0,662,304.61ZM665,284h2.14l0,.09-3.61,3.81H662Z"/><path class="cls-69" d="M680.5,298.06a10.41,10.41,0,0,1,1.59-6.07,5.1,5.1,0,0,1,4.43-2.28,5.33,5.33,0,0,1,4.81,2.64l.18-2.35H693v20.45l2.36.19V312h-6.46v-1.31l2.36-.19v-6.68a5.33,5.33,0,0,1-2,1.78,6.08,6.08,0,0,1-2.8.61,5.21,5.21,0,0,1-4.4-2.12,9.26,9.26,0,0,1-1.59-5.67Zm1.76.31A8.21,8.21,0,0,0,683.4,303a3.81,3.81,0,0,0,3.42,1.72,4.77,4.77,0,0,0,2.74-.74,5,5,0,0,0,1.73-2v-7.73A5.77,5.77,0,0,0,689.6,292a4.33,4.33,0,0,0-2.75-.83,3.76,3.76,0,0,0-3.44,1.91,9.43,9.43,0,0,0-1.15,4.94Z"/><path class="cls-69" d="M708.61,303.25a5.37,5.37,0,0,1-2,2.15,5.77,5.77,0,0,1-3,.76,4.76,4.76,0,0,1-3.88-1.7q-1.4-1.69-1.4-5.27V291.5l-1.94-.19V290H700v9.22a6.9,6.9,0,0,0,1,4.16,3.32,3.32,0,0,0,2.78,1.26,5.13,5.13,0,0,0,3.14-.88,4.7,4.7,0,0,0,1.65-2.43V291.5l-2.24-.19V290h4v14.37l2.11.19v1.29h-3.63Z"/><path class="cls-69" d="M721.86,306.16A6.28,6.28,0,0,1,717,304,8.11,8.11,0,0,1,715,298.4v-.81A8.35,8.35,0,0,1,717,292a6,6,0,0,1,4.67-2.24,5.79,5.79,0,0,1,4.54,1.85,7.11,7.11,0,0,1,1.65,4.92V298H716.75v.43a7,7,0,0,0,1.41,4.47,4.47,4.47,0,0,0,3.7,1.81,7.56,7.56,0,0,0,2.76-.45,5.5,5.5,0,0,0,2-1.31l.74,1.21a6.22,6.22,0,0,1-2.23,1.48A8.44,8.44,0,0,1,721.86,306.16Zm-.23-15a4.14,4.14,0,0,0-3.23,1.48,6.41,6.41,0,0,0-1.52,3.73l0,.07h9.2v-.44a5.09,5.09,0,0,0-1.21-3.45A4.08,4.08,0,0,0,721.63,291.21Z"/><path class="cls-69" d="M742.69,291.31l-2,.14,3.91,10.43.51,1.86h.08l.56-1.86,3.85-10.43-2-.14V290H753v1.31l-1.54.13-5.53,14.41h-1.39L739,291.44l-1.53-.13V290h5.27Z"/><path class="cls-69" d="M765.5,305.85c-.12-.53-.2-1-.25-1.39a9.23,9.23,0,0,1-.07-1.18,7,7,0,0,1-2.32,2.06,6.5,6.5,0,0,1-3.26.82A5,5,0,0,1,756,305a4.27,4.27,0,0,1-1.26-3.25,4,4,0,0,1,1.87-3.49,8.79,8.79,0,0,1,5.07-1.29h3.47v-2.09a3.42,3.42,0,0,0-1.08-2.67,4.41,4.41,0,0,0-3-1,7.77,7.77,0,0,0-2.38.35,5.49,5.49,0,0,0-1.81,1l-.14,2.12H755.3l0-3a8.79,8.79,0,0,1,2.6-1.38,9.81,9.81,0,0,1,3.23-.53,6.28,6.28,0,0,1,4.17,1.33,4.75,4.75,0,0,1,1.58,3.83v7.79c0,.32,0,.63,0,.93a8,8,0,0,0,.1.87l1.56.1v1.29Zm-5.72-1.24a6.17,6.17,0,0,0,3.32-.88,5.21,5.21,0,0,0,2.08-2.27v-3.18h-3.5a6.45,6.45,0,0,0-3.77,1,2.94,2.94,0,0,0-1.42,2.5,2.59,2.59,0,0,0,.88,2.05A3.45,3.45,0,0,0,759.78,304.61Z"/><path class="cls-69" d="M770.67,291.31V290h3.9l.16,2.63a5.52,5.52,0,0,1,2-2.16,5.72,5.72,0,0,1,3-.76,5,5,0,0,1,3,.89,4.91,4.91,0,0,1,1.72,2.7,6.18,6.18,0,0,1,2-2.63,5.28,5.28,0,0,1,3.2-1,4.71,4.71,0,0,1,3.88,1.69,8.2,8.2,0,0,1,1.37,5.21v7.75l2.36.2v1.29h-6.48v-1.29l2.36-.2v-7.78a6.5,6.5,0,0,0-1-4.14,3.54,3.54,0,0,0-2.85-1.21,3.85,3.85,0,0,0-3.12,1.31,6.36,6.36,0,0,0-1.36,3.32c0,.08,0,.15,0,.22a2.1,2.1,0,0,1,0,.27v8l2.36.19v1.29h-6.46v-1.29l2.36-.19v-7.79a6.44,6.44,0,0,0-1-4.11,3.53,3.53,0,0,0-2.85-1.24,4.3,4.3,0,0,0-2.93.95,5.06,5.06,0,0,0-1.52,2.54v9.65l2.37.19v1.29h-6.47v-1.29l2.36-.19V291.5Z"/><path class="cls-69" d="M799.3,297.69a8.57,8.57,0,0,1,1.9-5.74,6.78,6.78,0,0,1,10.07,0,8.57,8.57,0,0,1,1.9,5.74v.49a8.6,8.6,0,0,1-1.89,5.75,6.24,6.24,0,0,1-5,2.23,6.3,6.3,0,0,1-5.06-2.23,8.56,8.56,0,0,1-1.9-5.75Zm1.74.49a7.61,7.61,0,0,0,1.38,4.63,4.84,4.84,0,0,0,7.64,0,7.61,7.61,0,0,0,1.38-4.63v-.49a7.61,7.61,0,0,0-1.39-4.6,4.81,4.81,0,0,0-7.63,0,7.6,7.6,0,0,0-1.38,4.6Z"/><path class="cls-69" d="M827.38,294.9H826l-.2-2.24a4.41,4.41,0,0,0-1.65-1.07,6.19,6.19,0,0,0-2.28-.38A4.23,4.23,0,0,0,819,292a2.53,2.53,0,0,0-1,1.94,2.3,2.3,0,0,0,.82,1.82,7.94,7.94,0,0,0,3.27,1.26,10.65,10.65,0,0,1,4.19,1.72,3.57,3.57,0,0,1,1.39,3,3.85,3.85,0,0,1-1.59,3.2,6.71,6.71,0,0,1-4.19,1.22,9.63,9.63,0,0,1-3.17-.49,7.6,7.6,0,0,1-2.47-1.38v-3.2h1.4l.25,2.26a4,4,0,0,0,1.76,1,7.8,7.8,0,0,0,2.23.31,4.83,4.83,0,0,0,3-.83,2.5,2.5,0,0,0,1.09-2,2.57,2.57,0,0,0-.91-1.95,7.38,7.38,0,0,0-3.27-1.37,10.92,10.92,0,0,1-4.15-1.63,3.35,3.35,0,0,1-1.36-2.85,3.86,3.86,0,0,1,1.52-3.07,6.17,6.17,0,0,1,4-1.25,8.83,8.83,0,0,1,3.15.54,6.24,6.24,0,0,1,2.33,1.44Z"/><path class="cls-69" d="M833.38,305.15a6.78,6.78,0,0,1-.54,2.64,6.36,6.36,0,0,1-1.49,2.18l-1-.76a7.75,7.75,0,0,0,1-1.92,6.44,6.44,0,0,0,.33-2.11V303.1h1.72Z"/><path class="cls-69" d="M850.68,306.16a6.25,6.25,0,0,1-4.9-2.19,8.07,8.07,0,0,1-1.95-5.57v-.81a8.35,8.35,0,0,1,1.94-5.64,6,6,0,0,1,4.67-2.24,5.78,5.78,0,0,1,4.54,1.85,7.11,7.11,0,0,1,1.65,4.92V298H845.56v.43a7,7,0,0,0,1.41,4.47,4.47,4.47,0,0,0,3.71,1.81,7.51,7.51,0,0,0,2.75-.45,5.54,5.54,0,0,0,2-1.31l.74,1.21a6.26,6.26,0,0,1-2.24,1.48A8.39,8.39,0,0,1,850.68,306.16Zm-.24-15a4.12,4.12,0,0,0-3.22,1.48,6.35,6.35,0,0,0-1.53,3.73l0,.07h9.19v-.44a5.09,5.09,0,0,0-1.2-3.45A4.1,4.1,0,0,0,850.44,291.21Z"/><path class="cls-69" d="M871.26,303.25a5.44,5.44,0,0,1-2,2.15,5.79,5.79,0,0,1-3,.76,4.75,4.75,0,0,1-3.88-1.7c-.94-1.13-1.4-2.89-1.4-5.27V291.5l-1.94-.19V290h3.66v9.22a6.9,6.9,0,0,0,1,4.16,3.31,3.31,0,0,0,2.78,1.26,5.15,5.15,0,0,0,3.14-.88,4.74,4.74,0,0,0,1.64-2.43V291.5l-2.23-.19V290h4v14.37l2.1.19v1.29h-3.62Z"/><path class="cls-69" d="M891.73,306.16a6.26,6.26,0,0,1-4.9-2.19,8.06,8.06,0,0,1-1.94-5.57v-.81a8.34,8.34,0,0,1,1.93-5.64,6,6,0,0,1,4.68-2.24,5.77,5.77,0,0,1,4.53,1.85,7.06,7.06,0,0,1,1.66,4.92V298H886.61v.43a7,7,0,0,0,1.41,4.47,4.48,4.48,0,0,0,3.71,1.81,7.51,7.51,0,0,0,2.75-.45,5.45,5.45,0,0,0,2-1.31l.74,1.21a6.22,6.22,0,0,1-2.23,1.48A8.44,8.44,0,0,1,891.73,306.16Zm-.23-15a4.14,4.14,0,0,0-3.23,1.48,6.48,6.48,0,0,0-1.53,3.73l0,.07H896v-.44a5.09,5.09,0,0,0-1.2-3.45A4.08,4.08,0,0,0,891.5,291.21Z"/><path class="cls-69" d="M907.63,291.31V290h3.9l.16,2.63a5.52,5.52,0,0,1,2-2.16,5.72,5.72,0,0,1,3-.76,5,5,0,0,1,3,.89,4.91,4.91,0,0,1,1.72,2.7,6.18,6.18,0,0,1,2-2.63,5.28,5.28,0,0,1,3.2-1,4.71,4.71,0,0,1,3.88,1.69,8.2,8.2,0,0,1,1.37,5.21v7.75l2.36.2v1.29h-6.48v-1.29l2.36-.2v-7.78a6.5,6.5,0,0,0-1-4.14,3.54,3.54,0,0,0-2.85-1.21,3.85,3.85,0,0,0-3.12,1.31,6.36,6.36,0,0,0-1.36,3.32c0,.08,0,.15,0,.22a2.1,2.1,0,0,1,0,.27v8l2.36.19v1.29h-6.46v-1.29l2.36-.19v-7.79a6.44,6.44,0,0,0-1-4.11,3.53,3.53,0,0,0-2.85-1.24,4.3,4.3,0,0,0-2.93.95,5.06,5.06,0,0,0-1.52,2.54v9.65l2.37.19v1.29h-6.47v-1.29l2.36-.19V291.5Z"/><path class="cls-69" d="M943.18,306.16a6.28,6.28,0,0,1-4.91-2.19,8.11,8.11,0,0,1-1.94-5.57v-.81a8.35,8.35,0,0,1,1.94-5.64,6,6,0,0,1,4.67-2.24,5.78,5.78,0,0,1,4.54,1.85,7.11,7.11,0,0,1,1.65,4.92V298H938.06v.43a7,7,0,0,0,1.41,4.47,4.47,4.47,0,0,0,3.71,1.81,7.51,7.51,0,0,0,2.75-.45,5.54,5.54,0,0,0,2-1.31l.74,1.21a6.26,6.26,0,0,1-2.24,1.48A8.42,8.42,0,0,1,943.18,306.16Zm-.24-15a4.12,4.12,0,0,0-3.22,1.48,6.35,6.35,0,0,0-1.53,3.73l0,.07h9.19v-.44a5,5,0,0,0-1.21-3.45A4.08,4.08,0,0,0,942.94,291.21Z"/><path class="cls-69" d="M963.76,303.25a5.44,5.44,0,0,1-2,2.15,5.83,5.83,0,0,1-3,.76,4.74,4.74,0,0,1-3.87-1.7c-.94-1.13-1.4-2.89-1.4-5.27V291.5l-1.94-.19V290h3.66v9.22a6.9,6.9,0,0,0,1,4.16,3.31,3.31,0,0,0,2.78,1.26,5.15,5.15,0,0,0,3.14-.88,4.74,4.74,0,0,0,1.64-2.43V291.5l-2.23-.19V290h4v14.37l2.1.19v1.29h-3.62Z"/><path class="cls-69" d="M981.47,294.9h-1.42l-.2-2.24a4.26,4.26,0,0,0-1.65-1.07,6.19,6.19,0,0,0-2.28-.38,4.27,4.27,0,0,0-2.85.82,2.53,2.53,0,0,0-1,1.94,2.33,2.33,0,0,0,.82,1.82,7.94,7.94,0,0,0,3.27,1.26,10.58,10.58,0,0,1,4.19,1.72,3.57,3.57,0,0,1,1.39,3,3.87,3.87,0,0,1-1.58,3.2,6.74,6.74,0,0,1-4.2,1.22,9.63,9.63,0,0,1-3.17-.49,7.6,7.6,0,0,1-2.47-1.38v-3.2h1.41l.24,2.26a4.06,4.06,0,0,0,1.76,1,7.85,7.85,0,0,0,2.23.31,4.79,4.79,0,0,0,3-.83,2.47,2.47,0,0,0,1.09-2,2.54,2.54,0,0,0-.91-1.95,7.32,7.32,0,0,0-3.27-1.37,10.92,10.92,0,0,1-4.15-1.63,3.38,3.38,0,0,1-1.36-2.85,3.84,3.84,0,0,1,1.53-3.07,6.13,6.13,0,0,1,4-1.25,8.83,8.83,0,0,1,3.15.54,6.16,6.16,0,0,1,2.33,1.44Z"/><path class="cls-69" d="M578.48,340.56l2.36-.19V327.44h-2.59V326h2.59v-2a5.25,5.25,0,0,1,1.39-3.91,5.18,5.18,0,0,1,3.83-1.38,9.57,9.57,0,0,1,2,.22,12.88,12.88,0,0,1,2,.65l-.28,1.51a10.09,10.09,0,0,0-1.71-.57,7.83,7.83,0,0,0-1.9-.21,3.52,3.52,0,0,0-2.67.95,3.81,3.81,0,0,0-.91,2.74v2h9v14.37l2.37.19v1.29H587.5v-1.29l2.36-.19V327.44h-7.28v12.93l2.36.19v1.29h-6.46Z"/><path class="cls-69" d="M596,320.31V319h4.08v21.37l2.37.19v1.29H596v-1.29l2.36-.19V320.5Z"/><path class="cls-69" d="M604.66,320.31V319h4.09v9.71a5.85,5.85,0,0,1,2.09-2.21,5.72,5.72,0,0,1,3-.79,4.77,4.77,0,0,1,3.81,1.55,7.36,7.36,0,0,1,1.32,4.82v8.29l2.36.19v1.29h-6.46v-1.29l2.36-.19v-8.32a5.41,5.41,0,0,0-1-3.69,3.52,3.52,0,0,0-2.77-1.13,4.66,4.66,0,0,0-3,.95,5.44,5.44,0,0,0-1.76,2.51v9.68l2.36.19v1.29h-6.45v-1.29l2.36-.19V320.5Z"/><path class="cls-69" d="M623.84,333.69a8.57,8.57,0,0,1,1.9-5.74,6.78,6.78,0,0,1,10.07,0,8.57,8.57,0,0,1,1.9,5.74v.49a8.6,8.6,0,0,1-1.89,5.75,6.81,6.81,0,0,1-10.08,0,8.56,8.56,0,0,1-1.9-5.75Zm1.74.49a7.61,7.61,0,0,0,1.38,4.63,4.84,4.84,0,0,0,7.64,0,7.67,7.67,0,0,0,1.37-4.63v-.49a7.6,7.6,0,0,0-1.38-4.6,4.81,4.81,0,0,0-7.63,0,7.6,7.6,0,0,0-1.38,4.6Z"/><path class="cls-69" d="M651.92,330.9H650.5l-.2-2.24a4.41,4.41,0,0,0-1.65-1.07,6.19,6.19,0,0,0-2.28-.38,4.23,4.23,0,0,0-2.85.82,2.53,2.53,0,0,0-.95,1.94,2.3,2.3,0,0,0,.82,1.82,7.81,7.81,0,0,0,3.27,1.26,10.65,10.65,0,0,1,4.19,1.72,3.6,3.6,0,0,1,1.39,3,3.85,3.85,0,0,1-1.59,3.2,6.74,6.74,0,0,1-4.2,1.22,9.57,9.57,0,0,1-3.16-.49,7.65,7.65,0,0,1-2.48-1.38v-3.2h1.41l.25,2.26a4,4,0,0,0,1.76,1,7.78,7.78,0,0,0,2.22.31,4.84,4.84,0,0,0,3-.83,2.49,2.49,0,0,0,1.08-2,2.56,2.56,0,0,0-.9-1.95,7.43,7.43,0,0,0-3.27-1.37,10.85,10.85,0,0,1-4.15-1.63,3.35,3.35,0,0,1-1.36-2.85,3.86,3.86,0,0,1,1.52-3.07,6.15,6.15,0,0,1,4-1.25,8.83,8.83,0,0,1,3.15.54,6.24,6.24,0,0,1,2.33,1.44Z"/><path class="cls-69" d="M657.92,341.15a6.78,6.78,0,0,1-.54,2.64,6.5,6.5,0,0,1-1.49,2.18l-1-.76a7.75,7.75,0,0,0,1-1.92,6.44,6.44,0,0,0,.32-2.11V339.1h1.73Z"/><path class="cls-69" d="M682.55,320.53v1.3l-2.36.19V335.8a6.3,6.3,0,0,1-1.72,4.64,6,6,0,0,1-4.45,1.72,6.77,6.77,0,0,1-4.69-1.55,5.6,5.6,0,0,1-1.65-4.54l0-.09h1.63a4.68,4.68,0,0,0,1.22,3.51,4.77,4.77,0,0,0,3.47,1.19,4.18,4.18,0,0,0,3.18-1.32,5,5,0,0,0,1.25-3.56V322l-2.37-.19v-1.3h6.47Z"/><path class="cls-69" d="M685.09,333.69A8.57,8.57,0,0,1,687,328a6.78,6.78,0,0,1,10.07,0,8.57,8.57,0,0,1,1.9,5.74v.49a8.6,8.6,0,0,1-1.89,5.75,6.81,6.81,0,0,1-10.08,0,8.56,8.56,0,0,1-1.9-5.75Zm1.74.49a7.61,7.61,0,0,0,1.37,4.63,4.49,4.49,0,0,0,3.84,1.87,4.45,4.45,0,0,0,3.8-1.87,7.61,7.61,0,0,0,1.38-4.63v-.49a7.6,7.6,0,0,0-1.38-4.6,4.82,4.82,0,0,0-7.64,0,7.6,7.6,0,0,0-1.37,4.6Z"/><path class="cls-69" d="M713.17,330.9h-1.42l-.21-2.24a4.29,4.29,0,0,0-1.64-1.07,6.29,6.29,0,0,0-2.29-.38,4.22,4.22,0,0,0-2.84.82,2.5,2.5,0,0,0-.95,1.94,2.3,2.3,0,0,0,.82,1.82,7.82,7.82,0,0,0,3.26,1.26,10.52,10.52,0,0,1,4.19,1.72,3.57,3.57,0,0,1,1.39,3,3.84,3.84,0,0,1-1.58,3.2,6.74,6.74,0,0,1-4.2,1.22,9.67,9.67,0,0,1-3.17-.49,7.71,7.71,0,0,1-2.47-1.38v-3.2h1.41l.24,2.26a4.09,4.09,0,0,0,1.77,1,7.78,7.78,0,0,0,2.22.31,4.79,4.79,0,0,0,3-.83,2.47,2.47,0,0,0,1.09-2,2.54,2.54,0,0,0-.91-1.95,7.33,7.33,0,0,0-3.26-1.37,11,11,0,0,1-4.16-1.63,3.37,3.37,0,0,1-1.35-2.85A3.83,3.83,0,0,1,703.6,327a6.13,6.13,0,0,1,4-1.25,8.92,8.92,0,0,1,3.16.54,6.19,6.19,0,0,1,2.32,1.44Z"/><path class="cls-69" d="M723.56,342.16a6.26,6.26,0,0,1-4.9-2.19,8.06,8.06,0,0,1-1.94-5.57v-.81a8.34,8.34,0,0,1,1.93-5.64,6,6,0,0,1,4.68-2.24,5.77,5.77,0,0,1,4.53,1.85,7.06,7.06,0,0,1,1.66,4.92V334H718.44v.43a7,7,0,0,0,1.42,4.47,4.45,4.45,0,0,0,3.7,1.81,7.51,7.51,0,0,0,2.75-.45,5.45,5.45,0,0,0,2-1.31l.74,1.21a6.22,6.22,0,0,1-2.23,1.48A8.44,8.44,0,0,1,723.56,342.16Zm-.23-15a4.14,4.14,0,0,0-3.23,1.48,6.48,6.48,0,0,0-1.53,3.73l0,.07h9.19v-.44a5.09,5.09,0,0,0-1.2-3.45A4.08,4.08,0,0,0,723.33,327.21ZM725,320h2.13l0,.09-3.61,3.81H722Z"/><path class="cls-69" d="M756.26,327.21h-1.35l-.24-3.24a6.13,6.13,0,0,0-2.19-1.64,7.46,7.46,0,0,0-3.12-.62,6.83,6.83,0,0,0-5.62,2.6,10.42,10.42,0,0,0-2.09,6.72v.31a10.53,10.53,0,0,0,2.07,6.73,6.57,6.57,0,0,0,5.43,2.61,8.14,8.14,0,0,0,3.24-.63,6,6,0,0,0,2.28-1.62l.24-3.24h1.35v3.75a7.49,7.49,0,0,1-2.87,2.3,9.66,9.66,0,0,1-4.24.92,8.3,8.3,0,0,1-6.64-3,11.59,11.59,0,0,1-2.58-7.78v-.28a11.61,11.61,0,0,1,2.57-7.8,8.38,8.38,0,0,1,6.73-3,9.2,9.2,0,0,1,4.2.93,7.6,7.6,0,0,1,2.83,2.31Z"/><path class="cls-69" d="M770.22,341.85c-.11-.53-.2-1-.24-1.39a9.23,9.23,0,0,1-.08-1.18,6.93,6.93,0,0,1-2.32,2.06,6.45,6.45,0,0,1-3.26.82,5,5,0,0,1-3.56-1.2,4.27,4.27,0,0,1-1.26-3.25,4,4,0,0,1,1.87-3.49,8.77,8.77,0,0,1,5.07-1.29h3.46v-2.09a3.42,3.42,0,0,0-1.08-2.67,4.38,4.38,0,0,0-3-1,7.77,7.77,0,0,0-2.38.35,5.49,5.49,0,0,0-1.81,1l-.14,2.12H760l0-3a8.79,8.79,0,0,1,2.6-1.38,9.75,9.75,0,0,1,3.22-.53,6.31,6.31,0,0,1,4.18,1.33,4.75,4.75,0,0,1,1.58,3.83v7.79c0,.32,0,.63,0,.93s.05.59.09.87l1.57.1v1.29Zm-5.71-1.24a6.19,6.19,0,0,0,3.32-.88,5.12,5.12,0,0,0,2.07-2.27v-3.18h-3.49a6.48,6.48,0,0,0-3.78,1,3,3,0,0,0-1.41,2.5,2.59,2.59,0,0,0,.88,2.05A3.45,3.45,0,0,0,764.51,340.61Z"/><path class="cls-69" d="M779.53,326l.22,2.64v.19a5.52,5.52,0,0,1,1.82-2.29,4.56,4.56,0,0,1,2.73-.83,4.37,4.37,0,0,1,.64.05c.21,0,.38.07.52.11l-.23,1.64-1.29-.09a3.9,3.9,0,0,0-2.69.94,5.14,5.14,0,0,0-1.5,2.55v9.46l2.36.19v1.29h-6.45v-1.29l2.36-.19V327.5l-2.36-.19V326h3.87Z"/><path class="cls-69" d="M787.07,320.31V319h4.09v21.37l2.36.19v1.29h-6.45v-1.29l2.36-.19V320.5Z"/><path class="cls-69" d="M796,333.69a8.57,8.57,0,0,1,1.9-5.74,6.78,6.78,0,0,1,10.07,0,8.57,8.57,0,0,1,1.9,5.74v.49a8.6,8.6,0,0,1-1.89,5.75,6.81,6.81,0,0,1-10.08,0,8.56,8.56,0,0,1-1.9-5.75Zm1.74.49a7.67,7.67,0,0,0,1.37,4.63,4.5,4.5,0,0,0,3.85,1.87,4.43,4.43,0,0,0,3.79-1.87,7.61,7.61,0,0,0,1.38-4.63v-.49a7.6,7.6,0,0,0-1.38-4.6,4.82,4.82,0,0,0-7.64,0,7.66,7.66,0,0,0-1.37,4.6Z"/><path class="cls-69" d="M824.05,330.9h-1.42l-.21-2.24a4.29,4.29,0,0,0-1.64-1.07,6.19,6.19,0,0,0-2.28-.38,4.23,4.23,0,0,0-2.85.82,2.5,2.5,0,0,0-.95,1.94,2.3,2.3,0,0,0,.82,1.82,7.81,7.81,0,0,0,3.27,1.26,10.65,10.65,0,0,1,4.19,1.72,3.6,3.6,0,0,1,1.39,3,3.85,3.85,0,0,1-1.59,3.2,6.74,6.74,0,0,1-4.2,1.22,9.57,9.57,0,0,1-3.16-.49,7.65,7.65,0,0,1-2.48-1.38v-3.2h1.41l.25,2.26a4,4,0,0,0,1.76,1,7.78,7.78,0,0,0,2.22.31,4.79,4.79,0,0,0,3-.83,2.47,2.47,0,0,0,1.09-2,2.56,2.56,0,0,0-.9-1.95,7.43,7.43,0,0,0-3.27-1.37,11,11,0,0,1-4.16-1.63A3.37,3.37,0,0,1,813,330a3.86,3.86,0,0,1,1.52-3.07,6.15,6.15,0,0,1,4-1.25,8.83,8.83,0,0,1,3.15.54,6.24,6.24,0,0,1,2.33,1.44Z"/><path class="cls-69" d="M841.66,342.16a6.28,6.28,0,0,1-4.9-2.19,8.11,8.11,0,0,1-1.94-5.57v-.81a8.34,8.34,0,0,1,1.93-5.64,6,6,0,0,1,4.68-2.24,5.81,5.81,0,0,1,4.54,1.85,7.11,7.11,0,0,1,1.65,4.92V334H836.54v.43a7,7,0,0,0,1.42,4.47,4.45,4.45,0,0,0,3.7,1.81,7.51,7.51,0,0,0,2.75-.45,5.45,5.45,0,0,0,2-1.31l.74,1.21a6.22,6.22,0,0,1-2.23,1.48A8.44,8.44,0,0,1,841.66,342.16Zm-.23-15a4.14,4.14,0,0,0-3.23,1.48,6.48,6.48,0,0,0-1.53,3.73l0,.07h9.19v-.44a5.09,5.09,0,0,0-1.2-3.45A4.08,4.08,0,0,0,841.43,327.21Z"/><path class="cls-69" d="M857.33,340.56l1.55-.11,7.5-19.92H868l7.43,19.92,1.58.11v1.29h-5.21v-1.29l1.84-.14-1.74-4.78h-9.48l-1.75,4.78,1.84.14v1.29h-5.19Zm5.68-6.48h8.34l-4.1-11.28h-.09Z"/><path class="cls-69" d="M879.15,340.56l2.36-.19V327.5l-2.36-.19V326h3.9l.16,2.77a5.39,5.39,0,0,1,5.07-3.06,4.82,4.82,0,0,1,3.89,1.58,7.54,7.54,0,0,1,1.33,4.91v8.17l2.36.19v1.29H889.4v-1.29l2.36-.19v-8.16a5.79,5.79,0,0,0-1-3.85,3.63,3.63,0,0,0-2.86-1.13,4.46,4.46,0,0,0-3,1,5.43,5.43,0,0,0-1.66,2.58v9.58l2.36.19v1.29h-6.46Z"/><path class="cls-69" d="M909.42,341.85c-.12-.53-.2-1-.25-1.39a9.23,9.23,0,0,1-.07-1.18,7,7,0,0,1-2.32,2.06,6.5,6.5,0,0,1-3.26.82A5,5,0,0,1,900,341a4.27,4.27,0,0,1-1.26-3.25,4,4,0,0,1,1.87-3.49,8.81,8.81,0,0,1,5.07-1.29h3.47v-2.09a3.42,3.42,0,0,0-1.08-2.67,4.41,4.41,0,0,0-3-1,7.77,7.77,0,0,0-2.38.35,5.34,5.34,0,0,0-1.8,1l-.15,2.12h-1.43v-3a8.79,8.79,0,0,1,2.6-1.38,9.81,9.81,0,0,1,3.23-.53,6.28,6.28,0,0,1,4.17,1.33,4.72,4.72,0,0,1,1.58,3.83v7.79c0,.32,0,.63,0,.93a8,8,0,0,0,.1.87l1.56.1v1.29Zm-5.72-1.24a6.17,6.17,0,0,0,3.32-.88,5.21,5.21,0,0,0,2.08-2.27v-3.18h-3.5a6.45,6.45,0,0,0-3.77,1,3,3,0,0,0-1.42,2.5,2.62,2.62,0,0,0,.88,2.05A3.47,3.47,0,0,0,903.7,340.61Z"/><path class="cls-69" d="M942.79,323.1l-.09,0-7.84,18.78h-1.21l-7.82-18.69-.09,0,.16,9.25v7.94l2.36.19v1.29h-6.45v-1.29l2.36-.19V322l-2.36-.19v-1.3h4.64l7.75,18.77h.09l7.79-18.77h4.65v1.3l-2.36.19v18.35l2.36.19v1.29h-6.45v-1.29l2.36-.19v-7.94Z"/><path class="cls-69" d="M960,341.85c-.11-.53-.19-1-.24-1.39a9.23,9.23,0,0,1-.08-1.18,6.93,6.93,0,0,1-2.32,2.06,6.45,6.45,0,0,1-3.26.82,5,5,0,0,1-3.56-1.2,4.27,4.27,0,0,1-1.26-3.25,4,4,0,0,1,1.87-3.49,8.77,8.77,0,0,1,5.07-1.29h3.46v-2.09a3.42,3.42,0,0,0-1.08-2.67,4.38,4.38,0,0,0-3-1,7.77,7.77,0,0,0-2.38.35,5.49,5.49,0,0,0-1.81,1l-.14,2.12H949.8l0-3a8.79,8.79,0,0,1,2.6-1.38,9.75,9.75,0,0,1,3.22-.53,6.31,6.31,0,0,1,4.18,1.33,4.75,4.75,0,0,1,1.58,3.83v7.79c0,.32,0,.63,0,.93a8,8,0,0,0,.1.87l1.56.1v1.29Zm-5.71-1.24a6.17,6.17,0,0,0,3.32-.88,5.12,5.12,0,0,0,2.07-2.27v-3.18h-3.49a6.48,6.48,0,0,0-3.78,1,3,3,0,0,0-1.41,2.5,2.59,2.59,0,0,0,.88,2.05A3.45,3.45,0,0,0,954.28,340.61Z"/><path class="cls-69" d="M969.3,326l.22,2.64v.19a5.52,5.52,0,0,1,1.82-2.29,4.56,4.56,0,0,1,2.73-.83,4.37,4.37,0,0,1,.64.05c.21,0,.38.07.52.11l-.23,1.64-1.29-.09a3.9,3.9,0,0,0-2.69.94,5.14,5.14,0,0,0-1.5,2.55v9.46l2.36.19v1.29h-6.45v-1.29l2.36-.19V327.5l-2.36-.19V326h3.87Z"/><path class="cls-69" d="M977.36,340.56l2.36-.19V327.5l-2.36-.19V326h4.09v14.37l2.36.19v1.29h-6.45Zm4.09-19.1h-1.73V319h1.73Z"/><path class="cls-69" d="M997.55,341.85c-.11-.53-.19-1-.24-1.39a9.23,9.23,0,0,1-.08-1.18,7,7,0,0,1-2.31,2.06,6.51,6.51,0,0,1-3.27.82,5,5,0,0,1-3.56-1.2,4.27,4.27,0,0,1-1.26-3.25,4,4,0,0,1,1.87-3.49,8.77,8.77,0,0,1,5.07-1.29h3.46v-2.09a3.42,3.42,0,0,0-1.08-2.67,4.36,4.36,0,0,0-3-1,7.77,7.77,0,0,0-2.38.35,5.49,5.49,0,0,0-1.81,1l-.14,2.12h-1.44l0-3a8.79,8.79,0,0,1,2.6-1.38,9.75,9.75,0,0,1,3.22-.53,6.29,6.29,0,0,1,4.18,1.33,4.75,4.75,0,0,1,1.58,3.83v7.79c0,.32,0,.63,0,.93a8,8,0,0,0,.1.87l1.56.1v1.29Zm-5.71-1.24a6.17,6.17,0,0,0,3.32-.88,5.12,5.12,0,0,0,2.07-2.27v-3.18h-3.49a6.45,6.45,0,0,0-3.77,1,2.94,2.94,0,0,0-1.42,2.5,2.59,2.59,0,0,0,.88,2.05A3.45,3.45,0,0,0,991.84,340.61Z"/><path class="cls-69" d="M1005.63,341.15a6.61,6.61,0,0,1-.55,2.64,6.33,6.33,0,0,1-1.48,2.18l-1-.76a8.1,8.1,0,0,0,1-1.92,6.72,6.72,0,0,0,.32-2.11V339.1h1.73Z"/><path class="cls-69" d="M578.33,363.31V362h3.82l.21,2.46a5.83,5.83,0,0,1,2-2,5.71,5.71,0,0,1,2.91-.72,5.1,5.1,0,0,1,4.42,2.28,10.41,10.41,0,0,1,1.59,6.07v.31a9.27,9.27,0,0,1-1.59,5.68,5.19,5.19,0,0,1-4.39,2.11,6.2,6.2,0,0,1-2.9-.64,5.24,5.24,0,0,1-2-1.81v6.74l2.37.19V384h-6.46v-1.31l2.37-.19V363.5Zm13.25,6.75a9.19,9.19,0,0,0-1.18-4.92,3.87,3.87,0,0,0-3.48-1.91,4.56,4.56,0,0,0-2.85.85,5.18,5.18,0,0,0-1.65,2.19v7.61a4.75,4.75,0,0,0,1.72,2.05,4.93,4.93,0,0,0,2.8.75A3.91,3.91,0,0,0,590.4,375a8,8,0,0,0,1.18-4.58Z"/><path class="cls-69" d="M599.91,362l.21,2.64v.19a5.6,5.6,0,0,1,1.82-2.29,4.58,4.58,0,0,1,2.73-.83,4.51,4.51,0,0,1,.65.05c.21,0,.38.07.51.11l-.23,1.64-1.29-.09a3.92,3.92,0,0,0-2.69.94,5.14,5.14,0,0,0-1.5,2.55v9.46l2.37.19v1.29H596v-1.29l2.37-.19V363.5l-2.37-.19V362h3.88Z"/><path class="cls-69" d="M607.79,369.69a8.57,8.57,0,0,1,1.9-5.74,6.79,6.79,0,0,1,10.08,0,8.61,8.61,0,0,1,1.89,5.74v.49a8.6,8.6,0,0,1-1.89,5.75,6.24,6.24,0,0,1-5,2.23,6.3,6.3,0,0,1-5.06-2.23,8.56,8.56,0,0,1-1.9-5.75Zm1.74.49a7.61,7.61,0,0,0,1.38,4.63,4.84,4.84,0,0,0,7.64,0,7.61,7.61,0,0,0,1.38-4.63v-.49a7.61,7.61,0,0,0-1.39-4.6,4.81,4.81,0,0,0-7.63,0,7.6,7.6,0,0,0-1.38,4.6Z"/><path class="cls-69" d="M628.83,363.31l-2,.14,3.91,10.43.51,1.86h.09l.55-1.86,3.85-10.43-1.95-.14V362h5.27v1.31l-1.53.13L632,377.85h-1.39l-5.55-14.41-1.54-.13V362h5.28Z"/><path class="cls-69" d="M640.9,376.56l2.36-.19V363.5l-2.36-.19V362H645v14.37l2.36.19v1.29H640.9Zm4.09-19.1h-1.73V355H645Z"/><path class="cls-69" d="M661.17,375.57a5.46,5.46,0,0,1-2,1.92,5.94,5.94,0,0,1-2.9.67,5.21,5.21,0,0,1-4.4-2.12,9.32,9.32,0,0,1-1.58-5.67v-.31a10.49,10.49,0,0,1,1.58-6.07,5.1,5.1,0,0,1,4.43-2.28,5.51,5.51,0,0,1,2.84.7,5.57,5.57,0,0,1,2,2V356.5l-2.36-.19V355h4.1v21.37l2.37.19v1.29h-3.92Zm-9.15-5.2a8.09,8.09,0,0,0,1.14,4.57,3.86,3.86,0,0,0,3.43,1.7,4.92,4.92,0,0,0,2.79-.76,5,5,0,0,0,1.74-2.1v-7.5a5.41,5.41,0,0,0-1.67-2.2,4.54,4.54,0,0,0-2.83-.85,3.79,3.79,0,0,0-3.45,1.9,9.39,9.39,0,0,0-1.15,4.93Z"/><path class="cls-69" d="M674.81,378.16a6.26,6.26,0,0,1-4.9-2.19A8.06,8.06,0,0,1,668,370.4v-.81A8.34,8.34,0,0,1,669.9,364a6,6,0,0,1,4.68-2.24,5.77,5.77,0,0,1,4.53,1.85,7.06,7.06,0,0,1,1.66,4.92V370H669.69v.43a7,7,0,0,0,1.41,4.47,4.48,4.48,0,0,0,3.71,1.81,7.51,7.51,0,0,0,2.75-.45,5.45,5.45,0,0,0,2-1.31l.74,1.21a6.22,6.22,0,0,1-2.23,1.48A8.44,8.44,0,0,1,674.81,378.16Zm-.23-15a4.14,4.14,0,0,0-3.23,1.48,6.48,6.48,0,0,0-1.53,3.73l0,.07H679v-.44a5.09,5.09,0,0,0-1.2-3.45A4.08,4.08,0,0,0,674.58,363.21Z"/><path class="cls-69" d="M683.55,376.56l2.36-.19V363.5l-2.36-.19V362h3.9l.16,2.77a5.42,5.42,0,0,1,5.07-3.06,4.82,4.82,0,0,1,3.89,1.58,7.48,7.48,0,0,1,1.33,4.91v8.17l2.36.19v1.29H693.8v-1.29l2.36-.19v-8.16a5.73,5.73,0,0,0-1-3.85,3.63,3.63,0,0,0-2.86-1.13,4.46,4.46,0,0,0-3,1,5.43,5.43,0,0,0-1.66,2.58v9.58l2.37.19v1.29h-6.47Z"/><path class="cls-69" d="M709.54,376.68a5,5,0,0,0,3.05-1,3.28,3.28,0,0,0,1.32-2.77h1.53l0,.09a4.36,4.36,0,0,1-1.73,3.67,6.4,6.4,0,0,1-4.2,1.48,5.94,5.94,0,0,1-4.94-2.22,8.91,8.91,0,0,1-1.75-5.7v-.62a8.89,8.89,0,0,1,1.75-5.68,5.9,5.9,0,0,1,4.93-2.23,7.89,7.89,0,0,1,3.32.69,6.59,6.59,0,0,1,2.45,1.87l.07,3.46h-1.48l-.27-2.81a4.91,4.91,0,0,0-1.74-1.25,5.66,5.66,0,0,0-2.35-.46A4.14,4.14,0,0,0,705.8,365a8.11,8.11,0,0,0-1.22,4.59v.62a8.28,8.28,0,0,0,1.21,4.63A4.17,4.17,0,0,0,709.54,376.68Z"/><path class="cls-69" d="M718.59,376.56l2.36-.19V363.5l-2.36-.19V362h4.09v14.37l2.36.19v1.29h-6.45Zm4.09-19.1H721V355h1.73Z"/><path class="cls-69" d="M738.78,377.85c-.11-.53-.2-1-.24-1.39a9.23,9.23,0,0,1-.08-1.18,6.93,6.93,0,0,1-2.32,2.06,6.45,6.45,0,0,1-3.26.82,5,5,0,0,1-3.56-1.2,4.27,4.27,0,0,1-1.26-3.25,4,4,0,0,1,1.87-3.49,8.77,8.77,0,0,1,5.07-1.29h3.46v-2.09a3.42,3.42,0,0,0-1.08-2.67,4.38,4.38,0,0,0-3-1,7.77,7.77,0,0,0-2.38.35,5.39,5.39,0,0,0-1.81,1l-.14,2.12h-1.44l0-3a8.79,8.79,0,0,1,2.6-1.38,9.75,9.75,0,0,1,3.22-.53,6.31,6.31,0,0,1,4.18,1.33,4.75,4.75,0,0,1,1.58,3.83v7.79c0,.32,0,.63,0,.93s0,.59.09.87l1.57.1v1.29Zm-5.71-1.24a6.19,6.19,0,0,0,3.32-.88,5.12,5.12,0,0,0,2.07-2.27v-3.18H735a6.48,6.48,0,0,0-3.78,1,3,3,0,0,0-1.41,2.5,2.59,2.59,0,0,0,.88,2.05A3.45,3.45,0,0,0,733.07,376.61Z"/><path class="cls-69" d="M748.09,362l.22,2.64v.19a5.52,5.52,0,0,1,1.82-2.29,4.56,4.56,0,0,1,2.73-.83,4.37,4.37,0,0,1,.64.05c.21,0,.38.07.52.11l-.23,1.64-1.29-.09a3.9,3.9,0,0,0-2.69.94,5.14,5.14,0,0,0-1.5,2.55v9.46l2.36.19v1.29h-6.45v-1.29l2.36-.19V363.5l-2.36-.19V362h3.87Z"/><path class="cls-69" d="M774.31,377.85c-.11-.53-.2-1-.24-1.39a9.23,9.23,0,0,1-.08-1.18,6.93,6.93,0,0,1-2.32,2.06,6.45,6.45,0,0,1-3.26.82,5,5,0,0,1-3.56-1.2,4.27,4.27,0,0,1-1.26-3.25,4,4,0,0,1,1.87-3.49,8.77,8.77,0,0,1,5.07-1.29H774v-2.09a3.42,3.42,0,0,0-1.08-2.67,4.38,4.38,0,0,0-3-1,7.77,7.77,0,0,0-2.38.35,5.49,5.49,0,0,0-1.81,1l-.14,2.12h-1.44l0-3a8.79,8.79,0,0,1,2.6-1.38,9.75,9.75,0,0,1,3.22-.53,6.31,6.31,0,0,1,4.18,1.33,4.75,4.75,0,0,1,1.58,3.83v7.79c0,.32,0,.63,0,.93s0,.59.09.87l1.57.1v1.29Zm-5.71-1.24a6.19,6.19,0,0,0,3.32-.88,5.12,5.12,0,0,0,2.07-2.27v-3.18H770.5a6.48,6.48,0,0,0-3.78,1,3,3,0,0,0-1.41,2.5,2.59,2.59,0,0,0,.88,2.05A3.45,3.45,0,0,0,768.6,376.61Z"/><path class="cls-69" d="M791.24,366.9h-1.42l-.2-2.24a4.29,4.29,0,0,0-1.64-1.07,6.29,6.29,0,0,0-2.29-.38,4.27,4.27,0,0,0-2.85.82,2.53,2.53,0,0,0-1,1.94,2.33,2.33,0,0,0,.82,1.82,7.94,7.94,0,0,0,3.27,1.26,10.58,10.58,0,0,1,4.19,1.72,3.57,3.57,0,0,1,1.39,3,3.87,3.87,0,0,1-1.58,3.2,6.74,6.74,0,0,1-4.2,1.22,9.63,9.63,0,0,1-3.17-.49,7.71,7.71,0,0,1-2.47-1.38v-3.2h1.41l.24,2.26a4.06,4.06,0,0,0,1.76,1,7.85,7.85,0,0,0,2.23.31,4.79,4.79,0,0,0,3-.83,2.47,2.47,0,0,0,1.09-2,2.54,2.54,0,0,0-.91-1.95,7.32,7.32,0,0,0-3.27-1.37,10.92,10.92,0,0,1-4.15-1.63,3.38,3.38,0,0,1-1.36-2.85,3.84,3.84,0,0,1,1.53-3.07,6.13,6.13,0,0,1,4-1.25,8.92,8.92,0,0,1,3.16.54,6.19,6.19,0,0,1,2.32,1.44Z"/><path class="cls-69" d="M808.64,376.68a4.92,4.92,0,0,0,3-1,3.28,3.28,0,0,0,1.32-2.77h1.54l0,.09a4.36,4.36,0,0,1-1.73,3.67,6.43,6.43,0,0,1-4.2,1.48,5.92,5.92,0,0,1-4.94-2.22,8.91,8.91,0,0,1-1.76-5.7v-.62a8.9,8.9,0,0,1,1.76-5.68,5.88,5.88,0,0,1,4.92-2.23,7.86,7.86,0,0,1,3.32.69,6.44,6.44,0,0,1,2.45,1.87l.08,3.46H813l-.28-2.81a4.79,4.79,0,0,0-1.73-1.25,5.71,5.71,0,0,0-2.36-.46,4.16,4.16,0,0,0-3.73,1.82,8.1,8.1,0,0,0-1.21,4.59v.62a8.27,8.27,0,0,0,1.2,4.63A4.2,4.2,0,0,0,808.64,376.68Z"/><path class="cls-69" d="M817.8,369.69a8.57,8.57,0,0,1,1.9-5.74,6.78,6.78,0,0,1,10.07,0,8.57,8.57,0,0,1,1.9,5.74v.49a8.6,8.6,0,0,1-1.89,5.75,6.24,6.24,0,0,1-5,2.23,6.3,6.3,0,0,1-5.06-2.23,8.56,8.56,0,0,1-1.9-5.75Zm1.74.49a7.61,7.61,0,0,0,1.38,4.63,4.84,4.84,0,0,0,7.64,0,7.61,7.61,0,0,0,1.38-4.63v-.49a7.61,7.61,0,0,0-1.39-4.6,4.81,4.81,0,0,0-7.63,0,7.6,7.6,0,0,0-1.38,4.6Z"/><path class="cls-69" d="M834.12,363.31V362H838l.16,2.63a5.37,5.37,0,0,1,5-2.92,4.54,4.54,0,0,1,4.73,3.59,6.11,6.11,0,0,1,2-2.63,5.25,5.25,0,0,1,3.19-1A4.69,4.69,0,0,1,857,363.4c.92,1.12,1.37,2.86,1.37,5.21v7.75l2.36.2v1.29h-6.48v-1.29l2.37-.2v-7.78a6.5,6.5,0,0,0-1-4.14,3.57,3.57,0,0,0-2.85-1.21,3.86,3.86,0,0,0-3.13,1.31,6.27,6.27,0,0,0-1.35,3.32v.22a2.1,2.1,0,0,1,0,.27v8l2.36.19v1.29H844.2v-1.29l2.36-.19v-7.79a6.45,6.45,0,0,0-1-4.11,3.55,3.55,0,0,0-2.85-1.24,4.31,4.31,0,0,0-2.94.95,5,5,0,0,0-1.51,2.54v9.65l2.36.19v1.29h-6.47v-1.29l2.37-.19V363.5Z"/><path class="cls-69" d="M862.44,363.31V362h3.81l.22,2.46a5.8,5.8,0,0,1,2-2,5.71,5.71,0,0,1,2.91-.72,5.1,5.1,0,0,1,4.42,2.28,10.41,10.41,0,0,1,1.6,6.07v.31a9.27,9.27,0,0,1-1.6,5.68,5.19,5.19,0,0,1-4.39,2.11,6.16,6.16,0,0,1-2.89-.64,5.27,5.27,0,0,1-2-1.81v6.74l2.37.19V384h-6.45v-1.31l2.36-.19V363.5Zm13.25,6.75a9.19,9.19,0,0,0-1.19-4.92,3.87,3.87,0,0,0-3.48-1.91,4.56,4.56,0,0,0-2.85.85,5.18,5.18,0,0,0-1.65,2.19v7.61a4.75,4.75,0,0,0,1.72,2.05,5,5,0,0,0,2.81.75A3.89,3.89,0,0,0,874.5,375a8,8,0,0,0,1.19-4.58Z"/><path class="cls-69" d="M884,362l.21,2.64v.19a5.6,5.6,0,0,1,1.82-2.29,4.59,4.59,0,0,1,2.74-.83,4.48,4.48,0,0,1,.64.05c.21,0,.38.07.52.11l-.24,1.64-1.29-.09a3.89,3.89,0,0,0-2.68.94,5.09,5.09,0,0,0-1.51,2.55v9.46l2.37.19v1.29h-6.45v-1.29l2.36-.19V363.5l-2.36-.19V362H884Z"/><path class="cls-69" d="M903,377.85c-.11-.53-.2-1-.24-1.39a9.23,9.23,0,0,1-.08-1.18,6.93,6.93,0,0,1-2.32,2.06,6.45,6.45,0,0,1-3.26.82,5,5,0,0,1-3.56-1.2,4.24,4.24,0,0,1-1.27-3.25,4,4,0,0,1,1.87-3.49,8.82,8.82,0,0,1,5.08-1.29h3.46v-2.09a3.42,3.42,0,0,0-1.08-2.67,4.38,4.38,0,0,0-3-1,7.77,7.77,0,0,0-2.38.35,5.39,5.39,0,0,0-1.81,1l-.14,2.12h-1.44l0-3a8.79,8.79,0,0,1,2.6-1.38,9.75,9.75,0,0,1,3.22-.53,6.33,6.33,0,0,1,4.18,1.33,4.75,4.75,0,0,1,1.58,3.83v7.79c0,.32,0,.63,0,.93a8,8,0,0,0,.09.87l1.57.1v1.29Zm-5.71-1.24a6.19,6.19,0,0,0,3.32-.88,5.12,5.12,0,0,0,2.07-2.27v-3.18H899.2a6.46,6.46,0,0,0-3.78,1,3,3,0,0,0-1.41,2.5,2.59,2.59,0,0,0,.88,2.05A3.45,3.45,0,0,0,897.3,376.61Z"/><path class="cls-69" d="M919.94,366.9h-1.42l-.2-2.24a4.26,4.26,0,0,0-1.65-1.07,6.19,6.19,0,0,0-2.28-.38,4.27,4.27,0,0,0-2.85.82,2.53,2.53,0,0,0-.95,1.94,2.33,2.33,0,0,0,.82,1.82,7.94,7.94,0,0,0,3.27,1.26,10.58,10.58,0,0,1,4.19,1.72,3.57,3.57,0,0,1,1.39,3,3.87,3.87,0,0,1-1.58,3.2,6.74,6.74,0,0,1-4.2,1.22,9.63,9.63,0,0,1-3.17-.49,7.6,7.6,0,0,1-2.47-1.38v-3.2h1.41l.24,2.26a4.06,4.06,0,0,0,1.76,1,7.85,7.85,0,0,0,2.23.31,4.81,4.81,0,0,0,3-.83,2.47,2.47,0,0,0,1.09-2,2.57,2.57,0,0,0-.91-1.95,7.32,7.32,0,0,0-3.27-1.37,10.92,10.92,0,0,1-4.15-1.63,3.38,3.38,0,0,1-1.36-2.85,3.84,3.84,0,0,1,1.53-3.07,6.13,6.13,0,0,1,4-1.25,8.83,8.83,0,0,1,3.15.54,6.16,6.16,0,0,1,2.33,1.44Z"/><path class="cls-69" d="M941.54,375.57a5.43,5.43,0,0,1-2,1.92,5.94,5.94,0,0,1-2.9.67,5.19,5.19,0,0,1-4.4-2.12,9.26,9.26,0,0,1-1.59-5.67v-.31a10.41,10.41,0,0,1,1.59-6.07,5.09,5.09,0,0,1,4.43-2.28,5.51,5.51,0,0,1,2.84.7,5.65,5.65,0,0,1,2,2V356.5l-2.36-.19V355h4.1v21.37l2.36.19v1.29h-3.91Zm-9.14-5.2a8.1,8.1,0,0,0,1.13,4.57,3.86,3.86,0,0,0,3.43,1.7,4.92,4.92,0,0,0,2.79-.76,5.1,5.1,0,0,0,1.75-2.1v-7.5a5.52,5.52,0,0,0-1.68-2.2,4.52,4.52,0,0,0-2.83-.85,3.78,3.78,0,0,0-3.44,1.9,9.39,9.39,0,0,0-1.15,4.93Z"/><path class="cls-69" d="M959.1,377.85c-.12-.53-.2-1-.25-1.39a9.23,9.23,0,0,1-.07-1.18,6.93,6.93,0,0,1-2.32,2.06,6.47,6.47,0,0,1-3.26.82,5,5,0,0,1-3.57-1.2,4.27,4.27,0,0,1-1.26-3.25,4,4,0,0,1,1.87-3.49,8.81,8.81,0,0,1,5.07-1.29h3.47v-2.09a3.42,3.42,0,0,0-1.08-2.67,4.4,4.4,0,0,0-3-1,7.84,7.84,0,0,0-2.39.35,5.34,5.34,0,0,0-1.8,1l-.15,2.12h-1.43v-3a8.92,8.92,0,0,1,2.6-1.38,9.81,9.81,0,0,1,3.23-.53,6.28,6.28,0,0,1,4.17,1.33,4.72,4.72,0,0,1,1.58,3.83v7.79q0,.48,0,.93a6.1,6.1,0,0,0,.09.87l1.57.1v1.29Zm-5.71-1.24a6.22,6.22,0,0,0,3.32-.88,5.24,5.24,0,0,0,2.07-2.27v-3.18h-3.49a6.46,6.46,0,0,0-3.78,1,3,3,0,0,0-1.41,2.5,2.62,2.62,0,0,0,.87,2.05A3.48,3.48,0,0,0,953.39,376.61Z"/><path class="cls-69" d="M590.18,402.9h-1.42l-.21-2.24a4.29,4.29,0,0,0-1.64-1.07,6.19,6.19,0,0,0-2.28-.38,4.23,4.23,0,0,0-2.85.82,2.5,2.5,0,0,0-.95,1.94,2.3,2.3,0,0,0,.82,1.82,7.81,7.81,0,0,0,3.27,1.26,10.53,10.53,0,0,1,4.18,1.72,3.58,3.58,0,0,1,1.4,3,3.85,3.85,0,0,1-1.59,3.2,6.74,6.74,0,0,1-4.2,1.22,9.57,9.57,0,0,1-3.16-.49,7.65,7.65,0,0,1-2.48-1.38v-3.2h1.41l.25,2.26a4,4,0,0,0,1.76,1,7.78,7.78,0,0,0,2.22.31,4.79,4.79,0,0,0,3-.83,2.47,2.47,0,0,0,1.09-2,2.56,2.56,0,0,0-.9-1.95,7.43,7.43,0,0,0-3.27-1.37,11,11,0,0,1-4.16-1.63,3.37,3.37,0,0,1-1.35-2.85,3.86,3.86,0,0,1,1.52-3.07,6.15,6.15,0,0,1,4-1.25,8.83,8.83,0,0,1,3.15.54,6.11,6.11,0,0,1,2.32,1.44Z"/><path class="cls-69" d="M600.57,414.16a6.28,6.28,0,0,1-4.9-2.19,8.11,8.11,0,0,1-1.94-5.57v-.81a8.34,8.34,0,0,1,1.93-5.64,6,6,0,0,1,4.68-2.24,5.81,5.81,0,0,1,4.54,1.85,7.11,7.11,0,0,1,1.65,4.92V406H595.45v.43a7.05,7.05,0,0,0,1.42,4.47,4.45,4.45,0,0,0,3.7,1.81,7.6,7.6,0,0,0,2.76-.45,5.5,5.5,0,0,0,1.95-1.31l.74,1.21a6.22,6.22,0,0,1-2.23,1.48A8.44,8.44,0,0,1,600.57,414.16Zm-.23-15a4.14,4.14,0,0,0-3.23,1.48,6.48,6.48,0,0,0-1.53,3.73l0,.07h9.19v-.44a5.09,5.09,0,0,0-1.2-3.45A4.08,4.08,0,0,0,600.34,399.21Z"/><path class="cls-69" d="M609.25,399.31V398h3.9l.16,2.63a5.37,5.37,0,0,1,5-2.92,4.54,4.54,0,0,1,4.73,3.59,6.11,6.11,0,0,1,2-2.63,5.25,5.25,0,0,1,3.19-1,4.69,4.69,0,0,1,3.88,1.69,8.2,8.2,0,0,1,1.37,5.21v7.75l2.36.2v1.29H629.4v-1.29l2.37-.2v-7.78a6.5,6.5,0,0,0-1-4.14,3.57,3.57,0,0,0-2.85-1.21,3.86,3.86,0,0,0-3.13,1.31,6.27,6.27,0,0,0-1.35,3.32v.22a2.1,2.1,0,0,1,0,.27v8l2.36.19v1.29h-6.46v-1.29l2.36-.19v-7.79a6.45,6.45,0,0,0-1-4.11,3.55,3.55,0,0,0-2.85-1.24,4.31,4.31,0,0,0-2.94.95,5,5,0,0,0-1.51,2.54v9.65l2.36.19v1.29h-6.47v-1.29l2.37-.19V399.5Z"/><path class="cls-69" d="M648.86,413.85c-.12-.53-.2-1-.25-1.39a9.23,9.23,0,0,1-.07-1.18,6.93,6.93,0,0,1-2.32,2.06,6.47,6.47,0,0,1-3.26.82,5,5,0,0,1-3.57-1.2,4.27,4.27,0,0,1-1.26-3.25,4,4,0,0,1,1.87-3.49,8.81,8.81,0,0,1,5.07-1.29h3.47v-2.09a3.42,3.42,0,0,0-1.08-2.67,4.4,4.4,0,0,0-3-1,7.84,7.84,0,0,0-2.39.35,5.34,5.34,0,0,0-1.8,1l-.15,2.12h-1.43v-3a8.92,8.92,0,0,1,2.6-1.38,9.81,9.81,0,0,1,3.23-.53,6.28,6.28,0,0,1,4.17,1.33,4.72,4.72,0,0,1,1.58,3.83v7.79q0,.48,0,.93a6.1,6.1,0,0,0,.09.87l1.57.1v1.29Zm-5.71-1.24a6.22,6.22,0,0,0,3.32-.88,5.24,5.24,0,0,0,2.07-2.27v-3.18h-3.49a6.46,6.46,0,0,0-3.78,1,3,3,0,0,0-1.41,2.5,2.62,2.62,0,0,0,.87,2.05A3.48,3.48,0,0,0,643.15,412.61Z"/><path class="cls-69" d="M654.09,412.56l2.36-.19V399.5l-2.36-.19V398H658l.16,2.77a5.42,5.42,0,0,1,5.07-3.06,4.81,4.81,0,0,1,3.89,1.58,7.48,7.48,0,0,1,1.33,4.91v8.17l2.37.19v1.29h-6.47v-1.29l2.36-.19v-8.16a5.79,5.79,0,0,0-1-3.85,3.67,3.67,0,0,0-2.87-1.13,4.48,4.48,0,0,0-3,1,5.51,5.51,0,0,0-1.66,2.58v9.58l2.37.19v1.29h-6.47Z"/><path class="cls-69" d="M684.36,413.85c-.12-.53-.2-1-.25-1.39a11.5,11.5,0,0,1-.07-1.18,6.93,6.93,0,0,1-2.32,2.06,6.45,6.45,0,0,1-3.26.82,5,5,0,0,1-3.57-1.2,4.27,4.27,0,0,1-1.26-3.25,4,4,0,0,1,1.87-3.49,8.82,8.82,0,0,1,5.08-1.29H684v-2.09a3.42,3.42,0,0,0-1.08-2.67,4.4,4.4,0,0,0-3-1,7.84,7.84,0,0,0-2.39.35,5.34,5.34,0,0,0-1.8,1l-.15,2.12h-1.43v-3a9,9,0,0,1,2.61-1.38,9.75,9.75,0,0,1,3.22-.53,6.33,6.33,0,0,1,4.18,1.33,4.75,4.75,0,0,1,1.58,3.83v7.79c0,.32,0,.63,0,.93a6.1,6.1,0,0,0,.09.87l1.57.1v1.29Zm-5.71-1.24a6.22,6.22,0,0,0,3.32-.88,5.12,5.12,0,0,0,2.07-2.27v-3.18h-3.49a6.46,6.46,0,0,0-3.78,1,3,3,0,0,0-1.41,2.5,2.62,2.62,0,0,0,.87,2.05A3.48,3.48,0,0,0,678.65,412.61Z"/><path class="cls-69" d="M704.05,414.16a6.25,6.25,0,0,1-4.9-2.19,8.07,8.07,0,0,1-1.95-5.57v-.81a8.35,8.35,0,0,1,1.94-5.64,6,6,0,0,1,4.67-2.24,5.78,5.78,0,0,1,4.54,1.85,7.11,7.11,0,0,1,1.65,4.92V406H698.93v.43a7,7,0,0,0,1.41,4.47,4.47,4.47,0,0,0,3.71,1.81,7.51,7.51,0,0,0,2.75-.45,5.54,5.54,0,0,0,2-1.31l.74,1.21a6.26,6.26,0,0,1-2.24,1.48A8.39,8.39,0,0,1,704.05,414.16Zm-.24-15a4.12,4.12,0,0,0-3.22,1.48,6.35,6.35,0,0,0-1.53,3.73l0,.07h9.19v-.44a5.09,5.09,0,0,0-1.2-3.45A4.1,4.1,0,0,0,703.81,399.21Z"/><path class="cls-69" d="M731.85,411.25a5.44,5.44,0,0,1-2,2.15,5.83,5.83,0,0,1-3,.76,4.74,4.74,0,0,1-3.87-1.7c-.94-1.13-1.4-2.89-1.4-5.27V399.5l-1.94-.19V398h3.66v9.22a6.9,6.9,0,0,0,1,4.16,3.31,3.31,0,0,0,2.78,1.26,5.15,5.15,0,0,0,3.14-.88,4.74,4.74,0,0,0,1.64-2.43V399.5l-2.23-.19V398h4v14.37l2.1.19v1.29H732Z"/><path class="cls-69" d="M737.86,412.56l2.37-.19V399.5l-2.37-.19V398h3.9l.16,2.77a5.75,5.75,0,0,1,2-2.26,5.67,5.67,0,0,1,3-.8,4.8,4.8,0,0,1,3.88,1.58,7.48,7.48,0,0,1,1.34,4.91v8.17l2.36.19v1.29h-6.47v-1.29l2.37-.19v-8.16a5.79,5.79,0,0,0-1-3.85,3.65,3.65,0,0,0-2.86-1.13,4.46,4.46,0,0,0-3,1,5.43,5.43,0,0,0-1.66,2.58v9.58l2.36.19v1.29h-6.47Z"/><path class="cls-69" d="M768.69,402.9h-1.43l-.2-2.24a4.29,4.29,0,0,0-1.64-1.07,6.29,6.29,0,0,0-2.29-.38,4.27,4.27,0,0,0-2.85.82,2.53,2.53,0,0,0-.95,1.94,2.33,2.33,0,0,0,.82,1.82,7.94,7.94,0,0,0,3.27,1.26,10.58,10.58,0,0,1,4.19,1.72,3.57,3.57,0,0,1,1.39,3,3.87,3.87,0,0,1-1.58,3.2,6.74,6.74,0,0,1-4.2,1.22,9.63,9.63,0,0,1-3.17-.49,7.71,7.71,0,0,1-2.47-1.38v-3.2H759l.24,2.26a4.06,4.06,0,0,0,1.76,1,7.85,7.85,0,0,0,2.23.31,4.79,4.79,0,0,0,3-.83,2.47,2.47,0,0,0,1.09-2,2.54,2.54,0,0,0-.91-1.95,7.32,7.32,0,0,0-3.27-1.37,10.92,10.92,0,0,1-4.15-1.63A3.37,3.37,0,0,1,757.6,402a3.83,3.83,0,0,1,1.52-3.07,6.13,6.13,0,0,1,4-1.25,8.92,8.92,0,0,1,3.16.54,6.19,6.19,0,0,1,2.32,1.44Z"/><path class="cls-69" d="M778.92,399.31V398h3.81l.22,2.46a5.8,5.8,0,0,1,2-2,5.71,5.71,0,0,1,2.91-.72,5.09,5.09,0,0,1,4.42,2.28,10.34,10.34,0,0,1,1.6,6.07v.31a9.2,9.2,0,0,1-1.6,5.68,5.18,5.18,0,0,1-4.39,2.11,6.16,6.16,0,0,1-2.89-.64,5.17,5.17,0,0,1-2-1.81v6.74l2.36.19V420h-6.45v-1.31l2.36-.19V399.5Zm13.25,6.75a9.19,9.19,0,0,0-1.19-4.92,3.85,3.85,0,0,0-3.48-1.91,4.56,4.56,0,0,0-2.85.85,5.08,5.08,0,0,0-1.64,2.19v7.61a4.73,4.73,0,0,0,1.71,2.05,5,5,0,0,0,2.81.75A3.91,3.91,0,0,0,791,411a8,8,0,0,0,1.18-4.58Z"/><path class="cls-69" d="M800.49,398l.22,2.64v.19a5.52,5.52,0,0,1,1.82-2.29,4.56,4.56,0,0,1,2.73-.83,4.37,4.37,0,0,1,.64.05c.21,0,.38.07.52.11l-.23,1.64-1.29-.09a3.9,3.9,0,0,0-2.69.94,5.14,5.14,0,0,0-1.5,2.55v9.46l2.36.19v1.29h-6.45v-1.29l2.36-.19V399.5l-2.36-.19V398h3.87Z"/><path class="cls-69" d="M815.31,414.16A6.28,6.28,0,0,1,810.4,412a8.11,8.11,0,0,1-1.94-5.57v-.81A8.35,8.35,0,0,1,810.4,400a6,6,0,0,1,4.67-2.24,5.78,5.78,0,0,1,4.54,1.85,7.11,7.11,0,0,1,1.65,4.92V406H810.19v.43a7,7,0,0,0,1.41,4.47,4.47,4.47,0,0,0,3.71,1.81,7.51,7.51,0,0,0,2.75-.45,5.54,5.54,0,0,0,2-1.31l.74,1.21a6.26,6.26,0,0,1-2.24,1.48A8.42,8.42,0,0,1,815.31,414.16Zm-.24-15a4.12,4.12,0,0,0-3.22,1.48,6.35,6.35,0,0,0-1.53,3.73l0,.07h9.19v-.44a5,5,0,0,0-1.21-3.45A4.08,4.08,0,0,0,815.07,399.21Z"/><path class="cls-69" d="M835.74,402.9h-1.42l-.2-2.24a4.29,4.29,0,0,0-1.64-1.07,6.29,6.29,0,0,0-2.29-.38,4.27,4.27,0,0,0-2.85.82,2.53,2.53,0,0,0-1,1.94,2.33,2.33,0,0,0,.82,1.82,7.94,7.94,0,0,0,3.27,1.26,10.58,10.58,0,0,1,4.19,1.72,3.57,3.57,0,0,1,1.39,3,3.87,3.87,0,0,1-1.58,3.2,6.74,6.74,0,0,1-4.2,1.22,9.63,9.63,0,0,1-3.17-.49,7.71,7.71,0,0,1-2.47-1.38v-3.2h1.41l.24,2.26a4.06,4.06,0,0,0,1.76,1,7.85,7.85,0,0,0,2.23.31,4.79,4.79,0,0,0,3-.83,2.47,2.47,0,0,0,1.09-2,2.54,2.54,0,0,0-.91-1.95,7.32,7.32,0,0,0-3.27-1.37,10.92,10.92,0,0,1-4.15-1.63,3.38,3.38,0,0,1-1.36-2.85,3.84,3.84,0,0,1,1.53-3.07,6.13,6.13,0,0,1,4-1.25,8.92,8.92,0,0,1,3.16.54,6.19,6.19,0,0,1,2.32,1.44Z"/><path class="cls-69" d="M846.14,414.16a6.26,6.26,0,0,1-4.9-2.19,8.06,8.06,0,0,1-1.94-5.57v-.81a8.34,8.34,0,0,1,1.93-5.64,6,6,0,0,1,4.68-2.24,5.77,5.77,0,0,1,4.53,1.85,7.06,7.06,0,0,1,1.66,4.92V406H841v.43a7,7,0,0,0,1.41,4.47,4.48,4.48,0,0,0,3.71,1.81,7.51,7.51,0,0,0,2.75-.45,5.45,5.45,0,0,0,2-1.31l.74,1.21a6.31,6.31,0,0,1-2.23,1.48A8.48,8.48,0,0,1,846.14,414.16Zm-.23-15a4.14,4.14,0,0,0-3.23,1.48,6.48,6.48,0,0,0-1.53,3.73l0,.07h9.19v-.44a5.09,5.09,0,0,0-1.2-3.45A4.08,4.08,0,0,0,845.91,399.21Z"/><path class="cls-69" d="M854.88,412.56l2.36-.19V399.5l-2.36-.19V398h3.9l.16,2.77a5.39,5.39,0,0,1,5.07-3.06,4.82,4.82,0,0,1,3.89,1.58,7.48,7.48,0,0,1,1.33,4.91v8.17l2.36.19v1.29h-6.46v-1.29l2.36-.19v-8.16a5.79,5.79,0,0,0-1-3.85,3.63,3.63,0,0,0-2.86-1.13,4.46,4.46,0,0,0-3,1,5.43,5.43,0,0,0-1.66,2.58v9.58l2.36.19v1.29h-6.46Z"/><path class="cls-69" d="M878.31,394V398h3.45v1.44h-3.45v10.33a3.41,3.41,0,0,0,.55,2.2,1.84,1.84,0,0,0,1.49.65c.28,0,.55,0,.82,0s.57-.07.92-.13l.26,1.31a4.86,4.86,0,0,1-1.06.29,7.44,7.44,0,0,1-1.25.1,3.25,3.25,0,0,1-2.57-1.05,5,5,0,0,1-.92-3.34V399.44h-2.7V398h2.7V394Z"/><path class="cls-69" d="M884.83,412.56l2.36-.19V399.5l-2.36-.19V398h4.09v14.37l2.36.19v1.29h-6.45Zm4.09-19.1h-1.73V391h1.73Z"/><path class="cls-69" d="M893.87,412.56l2.37-.19V399.5l-2.37-.19V398h3.9l.16,2.77a5.75,5.75,0,0,1,2-2.26,5.67,5.67,0,0,1,3-.8,4.8,4.8,0,0,1,3.88,1.58,7.48,7.48,0,0,1,1.34,4.91v8.17l2.36.19v1.29h-6.47v-1.29l2.37-.19v-8.16a5.79,5.79,0,0,0-1-3.85,3.65,3.65,0,0,0-2.86-1.13,4.46,4.46,0,0,0-3,1,5.43,5.43,0,0,0-1.66,2.58v9.58l2.36.19v1.29h-6.47Z"/><path class="cls-69" d="M912.81,392.31V391h4.09v9.71A5.83,5.83,0,0,1,919,398.5a5.75,5.75,0,0,1,3-.79,4.73,4.73,0,0,1,3.8,1.55,7.3,7.3,0,0,1,1.33,4.82v8.29l2.36.19v1.29h-6.46v-1.29l2.36-.19v-8.32a5.46,5.46,0,0,0-1-3.69,3.54,3.54,0,0,0-2.77-1.13,4.64,4.64,0,0,0-3,.95,5.44,5.44,0,0,0-1.76,2.51v9.68l2.36.19v1.29h-6.45v-1.29l2.36-.19V392.5Z"/><path class="cls-69" d="M932,405.69a8.57,8.57,0,0,1,1.9-5.74A6.78,6.78,0,0,1,944,400a8.57,8.57,0,0,1,1.9,5.74v.49a8.6,8.6,0,0,1-1.89,5.75,6.81,6.81,0,0,1-10.08,0,8.56,8.56,0,0,1-1.9-5.75Zm1.74.49a7.67,7.67,0,0,0,1.37,4.63,4.49,4.49,0,0,0,3.84,1.87,4.45,4.45,0,0,0,3.8-1.87,7.61,7.61,0,0,0,1.38-4.63v-.49a7.6,7.6,0,0,0-1.38-4.6,4.82,4.82,0,0,0-7.64,0,7.66,7.66,0,0,0-1.37,4.6Z"/><path class="cls-69" d="M960.07,402.9h-1.42l-.21-2.24a4.29,4.29,0,0,0-1.64-1.07,6.25,6.25,0,0,0-2.29-.38,4.22,4.22,0,0,0-2.84.82,2.5,2.5,0,0,0-.95,1.94,2.3,2.3,0,0,0,.82,1.82,7.82,7.82,0,0,0,3.26,1.26,10.52,10.52,0,0,1,4.19,1.72,3.58,3.58,0,0,1,1.4,3,3.85,3.85,0,0,1-1.59,3.2,6.74,6.74,0,0,1-4.2,1.22,9.67,9.67,0,0,1-3.17-.49,7.71,7.71,0,0,1-2.47-1.38v-3.2h1.41l.24,2.26a4.09,4.09,0,0,0,1.77,1,7.78,7.78,0,0,0,2.22.31,4.79,4.79,0,0,0,3-.83,2.47,2.47,0,0,0,1.09-2,2.54,2.54,0,0,0-.91-1.95,7.33,7.33,0,0,0-3.26-1.37,11,11,0,0,1-4.16-1.63A3.37,3.37,0,0,1,949,402,3.83,3.83,0,0,1,950.5,399a6.13,6.13,0,0,1,4-1.25,8.88,8.88,0,0,1,3.16.54,6.11,6.11,0,0,1,2.32,1.44Z"/><path class="cls-69" d="M966.23,413.85h-2v-2.4h2Z"/><g class="cls-103"><path class="cls-96" d="M190,275.55s-6.77,14.38-4.3,22.7S202.88,312,202.88,312s37.07,22.44,68.87,18.45,21.38-11,21.38-11l-55.79-45.94Z"/><path class="cls-96" d="M298,272s-5.18,10.44-3,17.43,15.57,10.15,15.57,10.15l10.35.39,104,5.36s7.43-21.13-51.76-33.44S298,272,298,272Z"/><path class="cls-104" d="M202.2,14.2l2.37,26.31s-29.12,70.66-9.27,203l-6,40.43s24.06,11.27,41.43,15.9a72.35,72.35,0,0,0,32,1.2s-39.64-43.48-45.34-49.63L267.07,11S238.58-46.54,202.2,14.2Z"/><path class="cls-104" d="M284.55,12.39S258.79,82.93,300,217.08c0,0,5.91,55.23-2.05,54.93s81.06,6.76,86.9,7-44.4-20.8-48.8-31.06-6.29-201.14-.33-218.46a234.54,234.54,0,0,0,8.72-34.22S289.46,1.67,284.55,12.39Z"/><path class="cls-96" d="M172.66-198.52S155.05-125.95,157-106.07s4.68,52.17,34,145.94c0,0,78.26,32.39,150.2-.8,0,0,6.29-1.86,10.91-43.82s12.42-142.59-8.72-187.46S172.66-198.52,172.66-198.52Z"/></g></g></svg>