<svg xmlns="http://www.w3.org/2000/svg" xmlns:xlink="http://www.w3.org/1999/xlink" viewBox="0 0 1124.64 651.26"><defs><style>.cls-1{fill:none;}.cls-2{clip-path:url(#clip-path);}.cls-3{fill:#312235;}.cls-4{fill:#ce7061;}.cls-5{fill:#dd7a7a;}.cls-6{fill:#c6b366;}.cls-7{clip-path:url(#clip-path-2);}.cls-8{fill:#fff3c2;}.cls-9{fill:#fff3c3;}.cls-10{fill:#fff3c4;}.cls-11{fill:#fff4c5;}.cls-12{fill:#fff4c6;}.cls-13{fill:#fff4c7;}.cls-14{fill:#fff4c8;}.cls-15{fill:#fff4c9;}.cls-16{fill:#fff5ca;}.cls-17{fill:#fff5cb;}.cls-18{fill:#fff5cc;}.cls-19{fill:#fff5cd;}.cls-20{fill:#fff5ce;}.cls-21{fill:#fff6cf;}.cls-22{fill:#fff6d0;}.cls-23{fill:#fff6d1;}.cls-24{fill:#fff6d2;}.cls-25{fill:#fff6d3;}.cls-26{fill:#fff7d4;}.cls-27{fill:#fff7d5;}.cls-28{fill:#fff7d6;}.cls-29{fill:#fff7d7;}.cls-30{fill:#fff7d8;}.cls-31{fill:#fff8d9;}.cls-32{fill:#fff8da;}.cls-33{fill:#fff8db;}.cls-34{fill:#fff8dc;}.cls-35{fill:#fff8dd;}.cls-36{fill:#fff9de;}.cls-37{fill:#fff9df;}.cls-38{fill:#fff9e0;}.cls-39{fill:#fff9e2;}.cls-40{fill:#fff9e3;}.cls-41{fill:#fffae4;}.cls-42{fill:#fffae5;}.cls-43{fill:#fffae6;}.cls-44{fill:#fffae7;}.cls-45{fill:#fffae8;}.cls-46{fill:#fffbe9;}.cls-47{fill:#fffbea;}.cls-48{fill:#fffbeb;}.cls-49{fill:#fffbec;}.cls-50{fill:#fffbed;}.cls-51{fill:#fffcee;}.cls-52{fill:#fffcef;}.cls-53{fill:#fffcf0;}.cls-54{fill:#fffcf1;}.cls-55{fill:#fffcf2;}.cls-56{fill:#fffdf3;}.cls-57{fill:#fffdf4;}.cls-58{fill:#fffdf5;}.cls-59{fill:#fffdf6;}.cls-60{fill:#fffdf7;}.cls-61{fill:#fffef8;}.cls-62{fill:#fffef9;}.cls-63{fill:#fffefa;}.cls-64{fill:#fffefb;}.cls-65{fill:#fffefc;}.cls-66{fill:#fffffd;}.cls-67{fill:#fffffe;}.cls-68{fill:#fff;}.cls-69{fill:#ffeda1;}.cls-70{fill:#3a1e1c;}.cls-71{clip-path:url(#clip-path-3);}.cls-72{clip-path:url(#clip-path-4);}.cls-73{fill:#d88268;}.cls-74{fill:#d98369;}.cls-75{fill:#da8469;}.cls-76{fill:#db856a;}.cls-77{fill:#dc866b;}.cls-78{fill:#dd876b;}.cls-79{fill:#de886c;}.cls-80{fill:#df896d;}.cls-81{fill:#e08a6d;}.cls-82{fill:#e18b6e;}.cls-83{fill:#e28c6f;}.cls-84{fill:#e48d70;}.cls-85{fill:#e58d70;}.cls-86{fill:#e68e71;}.cls-87{fill:#e78f72;}.cls-88{fill:#e89072;}.cls-89{fill:#e99173;}.cls-90{fill:#ea9274;}.cls-91{fill:#eb9374;}.cls-92{fill:#ec9475;}.cls-93{fill:#ed9576;}.cls-94{fill:#ee9676;}.cls-95{fill:#ef9777;}.cls-96{fill:#3d201f;}.cls-97{fill:#b5574d;}.cls-98{fill:#b3514e;}.cls-99{fill:#fc999c;}.cls-100{fill:#f9aaaa;}.cls-101{fill:#822222;}.cls-102{fill:#9b3737;}.cls-103{fill:#5b1f3c;}.cls-104{fill:#fffdfd;}</style><clipPath id="clip-path"><path class="cls-1" d="M540.86-384.19c-10.3-18-97.34-31.5-97.34-31.5S301.2-604.45,232.19-598s-80.25,56.59-80.25,56.59l-32.63,66.55C54-440,10-373.83,10-298,10-185.73,106.43-94.74,225.37-94.74c117.57,0,213.12-88.9,215.32-199.34C473-316.39,548.81-370.32,540.86-384.19Z"/></clipPath><clipPath id="clip-path-2"><path class="cls-1" d="M428.87,402.79a192.51,192.51,0,0,0-5.05-43.86c-32.69-73-109.23-124.15-198.45-124.15C106.43,234.78,10,325.78,10,438a193.16,193.16,0,0,0,5,43.87C47.74,554.84,124.28,606,213.5,606,332.44,606,428.87,515,428.87,402.79Z"/></clipPath><clipPath id="clip-path-3"><path class="cls-1" d="M541.08,351.81c-8.62-15-92-32.76-90.33-32.5,3.75,5-153.08-187.41-218.34-181.34-69,6.43-80.25,56.59-80.25,56.59l-32.63,66.55C54.27,296,10.22,362.17,10.22,438c0,112.25,96.43,203.24,215.37,203.24,117.57,0,213.12-88.9,215.32-199.34C473.26,419.61,549,365.68,541.08,351.81Z"/></clipPath><clipPath id="clip-path-4"><path class="cls-1" d="M227.9,319.63l-2.36,9.78s-19.92,12.9-37.91,11.87c-5.34-.3,67.76,42.8,71.74,43s34.38-50.16,34.38-50.16-20.41-3.73-27.17-4-14.47-18.28-14.47-18.28Z"/></clipPath></defs><title>M2-fala3</title><g id="Camada_5" data-name="Camada 5"><g class="cls-2"><path class="cls-3" d="M189.7,293.79s-6.77,14.38-4.3,22.7,17.23,13.73,17.23,13.73,37.07,22.44,68.87,18.45,21.38-11,21.38-11l-55.79-45.94Z"/><path class="cls-3" d="M297.71,290.25s-5.18,10.44-3,17.43,15.57,10.15,15.57,10.15l10.35.39,104,5.36s7.43-21.13-51.76-33.44S297.71,290.25,297.71,290.25Z"/><path class="cls-4" d="M202,32.44l2.37,26.31s-29.12,70.66-9.27,203l-6,40.43S213.13,313.4,230.5,318a72.35,72.35,0,0,0,32,1.2s-39.64-43.48-45.34-49.63L266.82,29.2S238.33-28.3,202,32.44Z"/><path class="cls-4" d="M284.3,30.63s-25.76,70.54,15.46,204.69c0,0,5.91,55.23-2.05,54.93s81.06,6.76,86.9,7-44.4-20.8-48.8-31.06S329.52,65,335.48,47.71a234.2,234.2,0,0,0,8.72-34.22S289.21,19.91,284.3,30.63Z"/><path class="cls-3" d="M172.41-180.28s-17.61,72.57-15.63,92.45,4.68,52.17,34,145.94c0,0,78.25,32.39,150.2-.8,0,0,6.29-1.86,10.91-43.82S364.32-129.1,343.18-174,172.41-180.28,172.41-180.28Z"/></g><path class="cls-5" d="M225.37,234.78c119,0,215.37,91,215.37,203.24S344.32,641.26,225.37,641.26,10,550.27,10,438s96.42-203.24,215.37-203.24m0-10a235.1,235.1,0,0,0-87.54,16.69A225.72,225.72,0,0,0,66.22,287,212.37,212.37,0,0,0,17.8,354.82a203.34,203.34,0,0,0,0,166.4A212.3,212.3,0,0,0,66.22,589a225.89,225.89,0,0,0,71.61,45.57,238.05,238.05,0,0,0,175.08,0A225.94,225.94,0,0,0,384.53,589a212.12,212.12,0,0,0,48.41-67.79,203.34,203.34,0,0,0,0-166.4A212.19,212.19,0,0,0,384.53,287a225.76,225.76,0,0,0-71.62-45.57,235.1,235.1,0,0,0-87.54-16.69Z"/><ellipse class="cls-6" cx="225.37" cy="438.02" rx="215.37" ry="203.24"/><g class="cls-7"><rect class="cls-8" x="10" y="234.78" width="418.87" height="371.24"/><path class="cls-8" d="M429.87,358.41v24.32h5.82a120.91,120.91,0,1,1,0-48.65h-5.82Z"/><circle class="cls-9" cx="316.21" cy="360" r="118.73"/><circle class="cls-10" cx="314.98" cy="361.6" r="116.75"/><circle class="cls-11" cx="313.75" cy="363.19" r="114.77"/><circle class="cls-12" cx="312.53" cy="364.78" r="112.79"/><circle class="cls-13" cx="311.3" cy="366.38" r="110.82"/><circle class="cls-14" cx="310.07" cy="367.97" r="108.84"/><circle class="cls-15" cx="308.85" cy="369.57" r="106.86"/><circle class="cls-16" cx="307.62" cy="371.16" r="104.88"/><circle class="cls-17" cx="306.39" cy="372.76" r="102.9"/><circle class="cls-18" cx="305.17" cy="374.35" r="100.92"/><circle class="cls-19" cx="303.94" cy="375.95" r="98.94"/><circle class="cls-20" cx="302.71" cy="377.54" r="96.96"/><circle class="cls-21" cx="301.48" cy="379.13" r="94.98"/><circle class="cls-22" cx="300.26" cy="380.73" r="93.01"/><circle class="cls-23" cx="299.03" cy="382.32" r="91.03"/><circle class="cls-24" cx="297.8" cy="383.92" r="89.05"/><circle class="cls-25" cx="296.58" cy="385.51" r="87.07"/><circle class="cls-26" cx="295.35" cy="387.11" r="85.09"/><circle class="cls-27" cx="294.12" cy="388.7" r="83.11"/><circle class="cls-28" cx="292.9" cy="390.3" r="81.13"/><circle class="cls-29" cx="291.67" cy="391.89" r="79.15"/><circle class="cls-30" cx="290.44" cy="393.48" r="77.18"/><circle class="cls-31" cx="289.22" cy="395.08" r="75.2"/><circle class="cls-32" cx="287.99" cy="396.67" r="73.22"/><circle class="cls-33" cx="286.76" cy="398.27" r="71.24"/><circle class="cls-34" cx="285.54" cy="399.86" r="69.26"/><circle class="cls-35" cx="284.31" cy="401.46" r="67.28"/><circle class="cls-36" cx="283.08" cy="403.05" r="65.3"/><circle class="cls-37" cx="281.85" cy="404.64" r="63.32"/><circle class="cls-38" cx="280.63" cy="406.24" r="61.34"/><circle class="cls-39" cx="279.4" cy="407.83" r="59.37"/><circle class="cls-40" cx="278.17" cy="409.43" r="57.39"/><circle class="cls-41" cx="276.95" cy="411.02" r="55.41"/><circle class="cls-42" cx="275.72" cy="412.62" r="53.43"/><circle class="cls-43" cx="274.49" cy="414.21" r="51.45"/><circle class="cls-44" cx="273.27" cy="415.81" r="49.47"/><circle class="cls-45" cx="272.04" cy="417.4" r="47.49"/><circle class="cls-46" cx="270.81" cy="418.99" r="45.51"/><circle class="cls-47" cx="269.59" cy="420.59" r="43.53"/><circle class="cls-48" cx="268.36" cy="422.18" r="41.56"/><circle class="cls-49" cx="267.13" cy="423.78" r="39.58"/><circle class="cls-50" cx="265.9" cy="425.37" r="37.6"/><circle class="cls-51" cx="264.68" cy="426.97" r="35.62"/><circle class="cls-52" cx="263.45" cy="428.56" r="33.64"/><circle class="cls-53" cx="262.22" cy="430.16" r="31.66"/><circle class="cls-54" cx="261" cy="431.75" r="29.68"/><circle class="cls-55" cx="259.77" cy="433.34" r="27.7"/><circle class="cls-56" cx="258.54" cy="434.94" r="25.73"/><circle class="cls-57" cx="257.32" cy="436.53" r="23.75"/><circle class="cls-58" cx="256.09" cy="438.13" r="21.77"/><circle class="cls-59" cx="254.86" cy="439.72" r="19.79"/><circle class="cls-60" cx="253.64" cy="441.32" r="17.81"/><circle class="cls-61" cx="252.41" cy="442.91" r="15.83"/><circle class="cls-62" cx="251.18" cy="444.51" r="13.85"/><circle class="cls-63" cx="249.96" cy="446.1" r="11.87"/><circle class="cls-64" cx="248.73" cy="447.69" r="9.89"/><circle class="cls-65" cx="247.5" cy="449.29" r="7.92"/><circle class="cls-66" cx="246.27" cy="450.88" r="5.94"/><circle class="cls-67" cx="245.05" cy="452.48" r="3.96"/><circle class="cls-68" cx="243.82" cy="454.07" r="1.98"/></g><path class="cls-6" d="M787.8,44.22c-174.89,0-318.64,118.13-335.23,269.27L353,353.14s-6.51,2.41-5.85,11.74a12.7,12.7,0,0,0,7.43,10.89L458.82,407C492,541,626.68,641.26,787.8,641.26c186,0,336.84-133.65,336.84-298.52S973.83,44.22,787.8,44.22Z"/><path class="cls-69" d="M787.75,0C612.85,0,469.11,118.13,452.52,269.27L353,308.92s-6.51,2.41-5.86,11.74a12.7,12.7,0,0,0,7.44,10.88l104.21,31.28C492,496.78,626.63,597,787.75,597c186,0,336.84-133.65,336.84-298.52S973.78,0,787.75,0Z"/><path class="cls-70" d="M593.32,270.08H591.9l-.24-3a5.37,5.37,0,0,0-2.13-1.56,8.29,8.29,0,0,0-3.16-.56,6.46,6.46,0,0,0-4.07,1.14,3.49,3.49,0,0,0-1.46,2.84,3.35,3.35,0,0,0,1.31,2.69,12.24,12.24,0,0,0,4.55,1.9,13,13,0,0,1,5.18,2.37,4.92,4.92,0,0,1,1.78,3.94,4.79,4.79,0,0,1-2.06,4.06,8.71,8.71,0,0,1-5.26,1.51,10.77,10.77,0,0,1-4.2-.81,8,8,0,0,1-3.17-2.3v-3.73h1.42l.25,3.12a6.14,6.14,0,0,0,2.45,1.67,9,9,0,0,0,3.25.57,6.68,6.68,0,0,0,4-1.12,3.46,3.46,0,0,0,1.55-2.94,3.59,3.59,0,0,0-1.29-2.85,11.83,11.83,0,0,0-4.5-2,13.9,13.9,0,0,1-5.24-2.28A4.58,4.58,0,0,1,579.1,269a4.79,4.79,0,0,1,2-4,8.47,8.47,0,0,1,5.24-1.54,10,10,0,0,1,4.11.81,7.09,7.09,0,0,1,2.84,2.18Z"/><path class="cls-70" d="M603.4,285.39a6.26,6.26,0,0,1-4.9-2.19,8.07,8.07,0,0,1-1.94-5.58v-.8a8.31,8.31,0,0,1,1.93-5.64,6,6,0,0,1,4.68-2.24,5.76,5.76,0,0,1,4.53,1.84,7.06,7.06,0,0,1,1.66,4.92v1.5H598.28v.42a7.08,7.08,0,0,0,1.41,4.48,4.51,4.51,0,0,0,3.71,1.81,7.29,7.29,0,0,0,2.75-.46,5.3,5.3,0,0,0,2-1.3l.74,1.2a6.37,6.37,0,0,1-2.23,1.49A8.67,8.67,0,0,1,603.4,285.39Zm-.23-15a4.15,4.15,0,0,0-3.23,1.49,6.45,6.45,0,0,0-1.53,3.72l0,.08h9.19v-.44a5.11,5.11,0,0,0-1.2-3.46A4.08,4.08,0,0,0,603.17,270.43Z"/><path class="cls-70" d="M612.08,270.53v-1.3H616l.16,2.62a5.45,5.45,0,0,1,2-2.15,5.67,5.67,0,0,1,3-.76,4.5,4.5,0,0,1,4.72,3.58,6.24,6.24,0,0,1,2-2.63,5.34,5.34,0,0,1,3.2-.95,4.74,4.74,0,0,1,3.88,1.68q1.37,1.68,1.37,5.22v7.74l2.36.21v1.29h-6.48v-1.29l2.36-.21v-7.77q0-2.94-1-4.14a3.51,3.51,0,0,0-2.85-1.21,3.84,3.84,0,0,0-3.12,1.3,6.36,6.36,0,0,0-1.36,3.33c0,.08,0,.15,0,.22a1.93,1.93,0,0,1,0,.26v8l2.36.19v1.29h-6.46v-1.29l2.36-.19v-7.79a6.41,6.41,0,0,0-1-4.11,3.5,3.5,0,0,0-2.85-1.24,4.3,4.3,0,0,0-2.93.94,5,5,0,0,0-1.52,2.55v9.65l2.37.19v1.29h-6.47v-1.29l2.36-.19V270.72Z"/><path class="cls-70" d="M640.39,270.53v-1.3h3.82l.21,2.46a5.7,5.7,0,0,1,2-2,5.78,5.78,0,0,1,2.91-.71,5.12,5.12,0,0,1,4.42,2.27,10.45,10.45,0,0,1,1.59,6.08v.3a9.23,9.23,0,0,1-1.59,5.68,5.22,5.22,0,0,1-4.4,2.12,6.31,6.31,0,0,1-2.89-.64,5.41,5.41,0,0,1-2-1.81v6.74l2.36.19v1.3h-6.45v-1.3l2.37-.19v-19Zm13.25,6.76a9.11,9.11,0,0,0-1.19-4.93,3.84,3.84,0,0,0-3.47-1.9,4.55,4.55,0,0,0-2.85.84,5.18,5.18,0,0,0-1.65,2.19v7.62a4.81,4.81,0,0,0,1.72,2.05,4.93,4.93,0,0,0,2.8.75,3.93,3.93,0,0,0,3.46-1.73,8,8,0,0,0,1.18-4.59Z"/><path class="cls-70" d="M662,269.23l.22,2.64v.19a5.7,5.7,0,0,1,1.82-2.3,4.57,4.57,0,0,1,2.73-.82,3.43,3.43,0,0,1,.65.05,3.37,3.37,0,0,1,.51.11l-.23,1.64-1.29-.09a3.91,3.91,0,0,0-2.69.93,5.13,5.13,0,0,0-1.5,2.56v9.46l2.36.19v1.29h-6.45v-1.29l2.37-.19V270.72l-2.37-.19v-1.3H662Z"/><path class="cls-70" d="M676.78,285.39a6.26,6.26,0,0,1-4.9-2.19,8.07,8.07,0,0,1-1.94-5.58v-.8a8.31,8.31,0,0,1,1.93-5.64,6,6,0,0,1,4.68-2.24,5.76,5.76,0,0,1,4.53,1.84,7.06,7.06,0,0,1,1.66,4.92v1.5H671.66v.42a7,7,0,0,0,1.42,4.48,4.48,4.48,0,0,0,3.7,1.81,7.29,7.29,0,0,0,2.75-.46,5.3,5.3,0,0,0,2-1.3l.74,1.2a6.37,6.37,0,0,1-2.23,1.49A8.64,8.64,0,0,1,676.78,285.39Zm-.23-15a4.15,4.15,0,0,0-3.23,1.49,6.45,6.45,0,0,0-1.53,3.72l0,.08H681v-.44a5.11,5.11,0,0,0-1.2-3.46A4.08,4.08,0,0,0,676.55,270.43Z"/><path class="cls-70" d="M703.89,285.08c-.12-.54-.2-1-.25-1.39a9.39,9.39,0,0,1-.07-1.19,7.06,7.06,0,0,1-2.32,2.07,6.6,6.6,0,0,1-3.26.82,4.93,4.93,0,0,1-3.57-1.21,4.27,4.27,0,0,1-1.26-3.25,4,4,0,0,1,1.87-3.48,8.81,8.81,0,0,1,5.07-1.29h3.47v-2.1a3.38,3.38,0,0,0-1.08-2.66,4.35,4.35,0,0,0-3-1,7.54,7.54,0,0,0-2.39.36,5.33,5.33,0,0,0-1.8,1l-.15,2.13H693.7v-3.05a8.92,8.92,0,0,1,2.6-1.38,9.81,9.81,0,0,1,3.23-.52,6.23,6.23,0,0,1,4.17,1.33,4.7,4.7,0,0,1,1.58,3.82v7.8c0,.32,0,.63,0,.92a8.46,8.46,0,0,0,.1.88l1.56.1v1.29Zm-5.71-1.25a6.16,6.16,0,0,0,3.31-.88,5.15,5.15,0,0,0,2.08-2.27v-3.17h-3.5a6.45,6.45,0,0,0-3.77,1,3,3,0,0,0-1.42,2.5,2.65,2.65,0,0,0,.88,2.06A3.52,3.52,0,0,0,698.18,283.83Z"/><path class="cls-70" d="M709,270.53v-1.3h3.81l.22,2.46a5.75,5.75,0,0,1,2-2,5.81,5.81,0,0,1,2.91-.71,5.11,5.11,0,0,1,4.42,2.27,10.45,10.45,0,0,1,1.59,6.08v.3a9.23,9.23,0,0,1-1.59,5.68,5.2,5.2,0,0,1-4.39,2.12,6.28,6.28,0,0,1-2.89-.64,5.36,5.36,0,0,1-2-1.81v6.74l2.37.19v1.3H709v-1.3l2.36-.19v-19Zm13.25,6.76a9.2,9.2,0,0,0-1.19-4.93,3.86,3.86,0,0,0-3.48-1.9,4.55,4.55,0,0,0-2.85.84,5.18,5.18,0,0,0-1.65,2.19v7.62a4.81,4.81,0,0,0,1.72,2.05,4.94,4.94,0,0,0,2.81.75,3.92,3.92,0,0,0,3.45-1.73,8,8,0,0,0,1.19-4.59Z"/><path class="cls-70" d="M726.79,276.92a8.55,8.55,0,0,1,1.9-5.74,6.79,6.79,0,0,1,10.08,0,8.59,8.59,0,0,1,1.89,5.74v.48a8.59,8.59,0,0,1-1.89,5.75,6.25,6.25,0,0,1-5,2.24,6.31,6.31,0,0,1-5.06-2.24,8.54,8.54,0,0,1-1.9-5.75Zm1.74.48a7.59,7.59,0,0,0,1.38,4.63,4.82,4.82,0,0,0,7.64,0,7.59,7.59,0,0,0,1.38-4.63v-.48a7.59,7.59,0,0,0-1.39-4.6,4.8,4.8,0,0,0-7.63,0,7.58,7.58,0,0,0-1.38,4.6Z"/><path class="cls-70" d="M743.38,283.79l2.36-.19V270.72l-2.36-.19v-1.3h4.08V283.6l2.37.19v1.29h-6.45Zm4.08-19.1h-1.72v-2.46h1.72Z"/><path class="cls-70" d="M763.57,285.08c-.12-.54-.2-1-.25-1.39a9.39,9.39,0,0,1-.07-1.19,7,7,0,0,1-2.32,2.07,6.58,6.58,0,0,1-3.26.82,4.93,4.93,0,0,1-3.57-1.21,4.27,4.27,0,0,1-1.26-3.25,4,4,0,0,1,1.87-3.48,8.82,8.82,0,0,1,5.08-1.29h3.46v-2.1a3.38,3.38,0,0,0-1.08-2.66,4.35,4.35,0,0,0-3-1,7.54,7.54,0,0,0-2.39.36,5.33,5.33,0,0,0-1.8,1l-.15,2.13h-1.43v-3.05a8.92,8.92,0,0,1,2.6-1.38,9.81,9.81,0,0,1,3.23-.52,6.23,6.23,0,0,1,4.17,1.33,4.7,4.7,0,0,1,1.59,3.82v7.8c0,.32,0,.63,0,.92a6.4,6.4,0,0,0,.09.88l1.57.1v1.29Zm-5.71-1.25a6.22,6.22,0,0,0,3.32-.88,5.19,5.19,0,0,0,2.07-2.27v-3.17h-3.49a6.46,6.46,0,0,0-3.78,1,3,3,0,0,0-1.41,2.5,2.64,2.64,0,0,0,.87,2.06A3.52,3.52,0,0,0,757.86,283.83Z"/><path class="cls-70" d="M780,282.79a5.43,5.43,0,0,1-2,1.92,6,6,0,0,1-2.9.68,5.18,5.18,0,0,1-4.4-2.13,9.22,9.22,0,0,1-1.59-5.67v-.3a10.45,10.45,0,0,1,1.59-6.08,5.11,5.11,0,0,1,4.43-2.27,5.61,5.61,0,0,1,2.84.69,5.77,5.77,0,0,1,2,2v-7.9l-2.36-.19v-1.3h4.1V283.6l2.36.19v1.29h-3.91Zm-9.14-5.2a8.07,8.07,0,0,0,1.13,4.57,3.83,3.83,0,0,0,3.43,1.7,4.85,4.85,0,0,0,2.79-.76A5.14,5.14,0,0,0,780,281v-7.5a5.58,5.58,0,0,0-1.67-2.2,4.5,4.5,0,0,0-2.84-.85,3.76,3.76,0,0,0-3.44,1.9,9.35,9.35,0,0,0-1.15,4.93Z"/><path class="cls-70" d="M797.58,285.08c-.12-.54-.2-1-.25-1.39a9.39,9.39,0,0,1-.07-1.19,7,7,0,0,1-2.32,2.07,6.58,6.58,0,0,1-3.26.82,4.93,4.93,0,0,1-3.57-1.21,4.27,4.27,0,0,1-1.26-3.25,4,4,0,0,1,1.87-3.48,8.81,8.81,0,0,1,5.07-1.29h3.47v-2.1a3.38,3.38,0,0,0-1.08-2.66,4.35,4.35,0,0,0-3-1,7.54,7.54,0,0,0-2.39.36,5.33,5.33,0,0,0-1.8,1l-.15,2.13h-1.43v-3.05a8.92,8.92,0,0,1,2.6-1.38,9.81,9.81,0,0,1,3.23-.52,6.23,6.23,0,0,1,4.17,1.33,4.7,4.7,0,0,1,1.58,3.82v7.8c0,.32,0,.63,0,.92a6.4,6.4,0,0,0,.09.88l1.57.1v1.29Zm-5.71-1.25a6.22,6.22,0,0,0,3.32-.88,5.19,5.19,0,0,0,2.07-2.27v-3.17h-3.49a6.46,6.46,0,0,0-3.78,1,3,3,0,0,0-1.41,2.5,2.64,2.64,0,0,0,.87,2.06A3.52,3.52,0,0,0,791.87,283.83Z"/><path class="cls-70" d="M809.89,270.53v-1.3h3.81l.22,2.46a5.75,5.75,0,0,1,2-2,5.81,5.81,0,0,1,2.91-.71,5.11,5.11,0,0,1,4.42,2.27,10.45,10.45,0,0,1,1.59,6.08v.3a9.23,9.23,0,0,1-1.59,5.68,5.2,5.2,0,0,1-4.39,2.12,6.28,6.28,0,0,1-2.89-.64,5.36,5.36,0,0,1-2-1.81v6.74l2.37.19v1.3h-6.45v-1.3l2.36-.19v-19Zm13.25,6.76a9.2,9.2,0,0,0-1.19-4.93,3.86,3.86,0,0,0-3.48-1.9,4.55,4.55,0,0,0-2.85.84,5.18,5.18,0,0,0-1.65,2.19v7.62a4.81,4.81,0,0,0,1.72,2.05,4.94,4.94,0,0,0,2.81.75,3.92,3.92,0,0,0,3.45-1.73,8,8,0,0,0,1.19-4.59Z"/><path class="cls-70" d="M834.62,285.39a6.25,6.25,0,0,1-4.9-2.19,8.08,8.08,0,0,1-2-5.58v-.8a8.31,8.31,0,0,1,1.94-5.64,6,6,0,0,1,4.67-2.24,5.77,5.77,0,0,1,4.54,1.84,7.11,7.11,0,0,1,1.65,4.92v1.5H829.5v.42a7.08,7.08,0,0,0,1.41,4.48,4.5,4.5,0,0,0,3.71,1.81,7.29,7.29,0,0,0,2.75-.46,5.38,5.38,0,0,0,2-1.3l.74,1.2a6.42,6.42,0,0,1-2.24,1.49A8.58,8.58,0,0,1,834.62,285.39Zm-.24-15a4.13,4.13,0,0,0-3.22,1.49,6.32,6.32,0,0,0-1.53,3.72l0,.08h9.19v-.44a5.11,5.11,0,0,0-1.2-3.46A4.1,4.1,0,0,0,834.38,270.43Z"/><path class="cls-70" d="M843.33,263.53v-1.3h4.09V283.6l2.36.19v1.29h-6.45v-1.29l2.36-.19V263.72Z"/><path class="cls-70" d="M852.23,276.92a8.55,8.55,0,0,1,1.9-5.74,6.78,6.78,0,0,1,10.07,0,8.55,8.55,0,0,1,1.9,5.74v.48a8.59,8.59,0,0,1-1.89,5.75,6.79,6.79,0,0,1-10.08,0,8.54,8.54,0,0,1-1.9-5.75Zm1.74.48a7.59,7.59,0,0,0,1.38,4.63,4.81,4.81,0,0,0,7.63,0,7.59,7.59,0,0,0,1.38-4.63v-.48a7.58,7.58,0,0,0-1.38-4.6,4.8,4.8,0,0,0-7.63,0,7.58,7.58,0,0,0-1.38,4.6Z"/><path class="cls-70" d="M880.31,274.12h-1.42l-.2-2.24a4.41,4.41,0,0,0-1.65-1.07,6.41,6.41,0,0,0-2.28-.38,4.23,4.23,0,0,0-2.85.83,2.48,2.48,0,0,0-.95,1.94,2.28,2.28,0,0,0,.82,1.81,7.81,7.81,0,0,0,3.27,1.26,10.64,10.64,0,0,1,4.19,1.73,3.57,3.57,0,0,1,1.39,3,3.84,3.84,0,0,1-1.59,3.2,6.68,6.68,0,0,1-4.2,1.23,9.56,9.56,0,0,1-3.16-.5,7.3,7.3,0,0,1-2.48-1.38v-3.19h1.41l.25,2.25a4,4,0,0,0,1.76,1,7.79,7.79,0,0,0,2.22.32,4.72,4.72,0,0,0,3-.84,2.47,2.47,0,0,0,1.09-2,2.59,2.59,0,0,0-.9-1.95,7.44,7.44,0,0,0-3.27-1.36,11,11,0,0,1-4.16-1.63,3.37,3.37,0,0,1-1.35-2.85,3.84,3.84,0,0,1,1.52-3.07,6.1,6.1,0,0,1,4-1.25,8.83,8.83,0,0,1,3.15.53,6.5,6.5,0,0,1,2.33,1.44Z"/><path class="cls-70" d="M890.54,270.53v-1.3h3.81l.22,2.46a5.7,5.7,0,0,1,2-2,5.78,5.78,0,0,1,2.91-.71,5.12,5.12,0,0,1,4.42,2.27,10.45,10.45,0,0,1,1.59,6.08v.3a9.23,9.23,0,0,1-1.59,5.68,5.22,5.22,0,0,1-4.4,2.12,6.31,6.31,0,0,1-2.89-.64,5.41,5.41,0,0,1-2-1.81v6.74l2.36.19v1.3h-6.45v-1.3l2.37-.19v-19Zm13.25,6.76a9.11,9.11,0,0,0-1.19-4.93,3.84,3.84,0,0,0-3.48-1.9,4.52,4.52,0,0,0-2.84.84,5.18,5.18,0,0,0-1.65,2.19v7.62a4.81,4.81,0,0,0,1.72,2.05,4.93,4.93,0,0,0,2.8.75,3.93,3.93,0,0,0,3.46-1.73,8,8,0,0,0,1.18-4.59Z"/><path class="cls-70" d="M908.24,283.79l2.37-.19V270.72l-2.37-.19v-1.3h4.09V283.6l2.36.19v1.29h-6.45Zm4.09-19.1h-1.72v-2.46h1.72Z"/><path class="cls-70" d="M917.26,263.53v-1.3h4.09V283.6l2.36.19v1.29h-6.45v-1.29l2.36-.19V263.72Z"/><path class="cls-70" d="M937.28,285.08c-.12-.54-.2-1-.25-1.39a9.39,9.39,0,0,1-.07-1.19,7,7,0,0,1-2.32,2.07,6.58,6.58,0,0,1-3.26.82,4.93,4.93,0,0,1-3.57-1.21,4.27,4.27,0,0,1-1.26-3.25,4,4,0,0,1,1.87-3.48,8.82,8.82,0,0,1,5.08-1.29H937v-2.1a3.38,3.38,0,0,0-1.08-2.66,4.35,4.35,0,0,0-3-1,7.54,7.54,0,0,0-2.39.36,5.33,5.33,0,0,0-1.8,1l-.15,2.13h-1.43v-3.05a8.92,8.92,0,0,1,2.6-1.38,9.81,9.81,0,0,1,3.23-.52,6.23,6.23,0,0,1,4.17,1.33,4.7,4.7,0,0,1,1.59,3.82v7.8c0,.32,0,.63,0,.92a6.4,6.4,0,0,0,.09.88l1.57.1v1.29Zm-5.71-1.25a6.22,6.22,0,0,0,3.32-.88,5.19,5.19,0,0,0,2.07-2.27v-3.17h-3.49a6.46,6.46,0,0,0-3.78,1,3,3,0,0,0-1.41,2.5,2.64,2.64,0,0,0,.87,2.06A3.52,3.52,0,0,0,931.57,283.83Z"/><path class="cls-70" d="M946.59,269.23l.21,2.64v.19a5.7,5.7,0,0,1,1.82-2.3,4.57,4.57,0,0,1,2.73-.82,3.43,3.43,0,0,1,.65.05,3.85,3.85,0,0,1,.52.11l-.24,1.64-1.29-.09a3.91,3.91,0,0,0-2.69.93,5.13,5.13,0,0,0-1.5,2.56v9.46l2.37.19v1.29h-6.45v-1.29l2.36-.19V270.72l-2.36-.19v-1.3h3.87Z"/><path class="cls-70" d="M961.4,285.39a6.28,6.28,0,0,1-4.9-2.19,8.12,8.12,0,0,1-1.94-5.58v-.8a8.31,8.31,0,0,1,1.93-5.64,6,6,0,0,1,4.68-2.24,5.8,5.8,0,0,1,4.54,1.84,7.11,7.11,0,0,1,1.65,4.92v1.5H956.28v.42a7.08,7.08,0,0,0,1.42,4.48,4.48,4.48,0,0,0,3.7,1.81,7.38,7.38,0,0,0,2.76-.46,5.35,5.35,0,0,0,2-1.3l.74,1.2a6.37,6.37,0,0,1-2.23,1.49A8.64,8.64,0,0,1,961.4,285.39Zm-.23-15a4.15,4.15,0,0,0-3.23,1.49,6.45,6.45,0,0,0-1.53,3.72l0,.08h9.19v-.44a5.11,5.11,0,0,0-1.2-3.46A4.08,4.08,0,0,0,961.17,270.43Z"/><path class="cls-70" d="M981.84,274.12h-1.42l-.2-2.24a4.41,4.41,0,0,0-1.65-1.07,6.41,6.41,0,0,0-2.28-.38,4.23,4.23,0,0,0-2.85.83,2.51,2.51,0,0,0-1,1.94,2.28,2.28,0,0,0,.82,1.81,7.94,7.94,0,0,0,3.27,1.26,10.64,10.64,0,0,1,4.19,1.73,3.54,3.54,0,0,1,1.39,3,3.84,3.84,0,0,1-1.59,3.2,6.65,6.65,0,0,1-4.19,1.23,9.63,9.63,0,0,1-3.17-.5,7.25,7.25,0,0,1-2.47-1.38v-3.19h1.4l.25,2.25a4,4,0,0,0,1.76,1,7.81,7.81,0,0,0,2.23.32,4.76,4.76,0,0,0,3-.84,2.5,2.5,0,0,0,1.09-2,2.6,2.6,0,0,0-.91-1.95,7.39,7.39,0,0,0-3.27-1.36,10.85,10.85,0,0,1-4.15-1.63,3.35,3.35,0,0,1-1.36-2.85,3.84,3.84,0,0,1,1.52-3.07,6.12,6.12,0,0,1,4-1.25,8.83,8.83,0,0,1,3.15.53,6.5,6.5,0,0,1,2.33,1.44Z"/><path class="cls-70" d="M1003.44,282.79a5.39,5.39,0,0,1-2,1.92,5.91,5.91,0,0,1-2.89.68,5.16,5.16,0,0,1-4.4-2.13,9.22,9.22,0,0,1-1.59-5.67v-.3a10.45,10.45,0,0,1,1.59-6.08,5.09,5.09,0,0,1,4.42-2.27,5.65,5.65,0,0,1,2.85.69,5.85,5.85,0,0,1,2,2v-7.9l-2.37-.19v-1.3h4.11V283.6l2.36.19v1.29h-3.92Zm-9.15-5.2a8.07,8.07,0,0,0,1.14,4.57,3.83,3.83,0,0,0,3.43,1.7,4.85,4.85,0,0,0,2.79-.76,5.14,5.14,0,0,0,1.75-2.09v-7.5a5.52,5.52,0,0,0-1.68-2.2,4.46,4.46,0,0,0-2.83-.85,3.77,3.77,0,0,0-3.45,1.9,9.44,9.44,0,0,0-1.15,4.93Z"/><path class="cls-70" d="M1010.17,276.92a8.55,8.55,0,0,1,1.9-5.74,6.78,6.78,0,0,1,10.07,0,8.55,8.55,0,0,1,1.9,5.74v.48a8.59,8.59,0,0,1-1.89,5.75,6.79,6.79,0,0,1-10.08,0,8.54,8.54,0,0,1-1.9-5.75Zm1.74.48a7.59,7.59,0,0,0,1.37,4.63,4.5,4.5,0,0,0,3.84,1.88,4.46,4.46,0,0,0,3.8-1.88,7.59,7.59,0,0,0,1.38-4.63v-.48a7.58,7.58,0,0,0-1.38-4.6,4.81,4.81,0,0,0-7.64,0,7.58,7.58,0,0,0-1.37,4.6Z"/><path class="cls-70" d="M587.32,299.75a7.22,7.22,0,0,1,5.14,1.71,6.55,6.55,0,0,1,0,9.06,7.26,7.26,0,0,1-5.14,1.7h-4.81v7.38l2.36.19v1.29h-6.45v-1.29l2.36-.19V301.24l-2.36-.19v-1.3h8.9Zm-4.81,11h4.81a5.22,5.22,0,0,0,3.92-1.34,4.61,4.61,0,0,0,1.32-3.37,4.72,4.72,0,0,0-1.31-3.41,5.23,5.23,0,0,0-3.93-1.36h-4.81Z"/><path class="cls-70" d="M604,321.39a6.28,6.28,0,0,1-4.9-2.19,8.12,8.12,0,0,1-1.94-5.58v-.8a8.31,8.31,0,0,1,1.93-5.64,6,6,0,0,1,4.68-2.24,5.79,5.79,0,0,1,4.54,1.84A7.11,7.11,0,0,1,610,311.7v1.5H598.9v.42a7.08,7.08,0,0,0,1.42,4.48,4.48,4.48,0,0,0,3.7,1.81,7.38,7.38,0,0,0,2.76-.46,5.35,5.35,0,0,0,2-1.3l.74,1.2a6.37,6.37,0,0,1-2.23,1.49A8.64,8.64,0,0,1,604,321.39Zm-.23-15a4.15,4.15,0,0,0-3.23,1.49,6.45,6.45,0,0,0-1.53,3.72l0,.08h9.19v-.44a5.11,5.11,0,0,0-1.2-3.46A4.08,4.08,0,0,0,603.79,306.43Z"/><path class="cls-70" d="M612.76,319.79l2.37-.19V306.72l-2.37-.19v-1.3h3.9l.16,2.77a5.37,5.37,0,0,1,5.07-3.06,4.8,4.8,0,0,1,3.89,1.57,7.51,7.51,0,0,1,1.33,4.92v8.17l2.37.19v1.29H623v-1.29l2.36-.19v-8.16a5.78,5.78,0,0,0-1-3.85,3.67,3.67,0,0,0-2.87-1.13,4.47,4.47,0,0,0-3,1,5.49,5.49,0,0,0-1.66,2.59v9.58l2.37.19v1.29h-6.47Z"/><path class="cls-70" d="M643.58,310.12h-1.42l-.2-2.24a4.33,4.33,0,0,0-1.65-1.07,6.41,6.41,0,0,0-2.28-.38,4.23,4.23,0,0,0-2.85.83,2.51,2.51,0,0,0-.95,1.94,2.31,2.31,0,0,0,.82,1.81,7.94,7.94,0,0,0,3.27,1.26,10.58,10.58,0,0,1,4.19,1.73,3.54,3.54,0,0,1,1.39,3,3.84,3.84,0,0,1-1.59,3.2,6.63,6.63,0,0,1-4.19,1.23,9.63,9.63,0,0,1-3.17-.5,7.25,7.25,0,0,1-2.47-1.38v-3.19h1.4l.25,2.25a4,4,0,0,0,1.76,1,7.81,7.81,0,0,0,2.23.32,4.76,4.76,0,0,0,3-.84,2.5,2.5,0,0,0,1.09-2,2.6,2.6,0,0,0-.91-1.95,7.34,7.34,0,0,0-3.27-1.36,10.92,10.92,0,0,1-4.15-1.63,3.35,3.35,0,0,1-1.36-2.85,3.84,3.84,0,0,1,1.52-3.07,6.12,6.12,0,0,1,4-1.25,8.83,8.83,0,0,1,3.15.53,6.42,6.42,0,0,1,2.33,1.44Z"/><path class="cls-70" d="M657.89,321.08c-.12-.54-.2-1-.25-1.39a11.7,11.7,0,0,1-.07-1.19,7,7,0,0,1-2.32,2.07,6.58,6.58,0,0,1-3.26.82,4.93,4.93,0,0,1-3.57-1.21,4.27,4.27,0,0,1-1.26-3.25,4,4,0,0,1,1.87-3.48,8.82,8.82,0,0,1,5.08-1.29h3.46v-2.1a3.38,3.38,0,0,0-1.08-2.66,4.35,4.35,0,0,0-3-1,7.54,7.54,0,0,0-2.39.36,5.33,5.33,0,0,0-1.8,1l-.15,2.13H647.7v-3.05a9,9,0,0,1,2.6-1.38,9.81,9.81,0,0,1,3.23-.52,6.28,6.28,0,0,1,4.18,1.33,4.73,4.73,0,0,1,1.58,3.82v7.8c0,.32,0,.63,0,.92a6.4,6.4,0,0,0,.09.88l1.57.1v1.29Zm-5.71-1.25a6.22,6.22,0,0,0,3.32-.88,5.19,5.19,0,0,0,2.07-2.27v-3.17h-3.49a6.46,6.46,0,0,0-3.78,1,3,3,0,0,0-1.41,2.5,2.64,2.64,0,0,0,.87,2.06A3.52,3.52,0,0,0,652.18,319.83Z"/><path class="cls-70" d="M663.06,306.53v-1.3H667l.16,2.62a5.59,5.59,0,0,1,2-2.15,5.67,5.67,0,0,1,3-.76,4.52,4.52,0,0,1,4.73,3.58,6.17,6.17,0,0,1,2-2.63,5.31,5.31,0,0,1,3.19-.95,4.71,4.71,0,0,1,3.88,1.68c.92,1.12,1.37,2.86,1.37,5.22v7.74l2.36.21v1.29h-6.47v-1.29l2.36-.21v-7.77q0-2.94-1-4.14a3.53,3.53,0,0,0-2.85-1.21,3.85,3.85,0,0,0-3.13,1.3,6.27,6.27,0,0,0-1.35,3.33v.22a1.93,1.93,0,0,1,0,.26v8l2.36.19v1.29h-6.46v-1.29l2.36-.19v-7.79a6.41,6.41,0,0,0-1-4.11,3.52,3.52,0,0,0-2.85-1.24,4.31,4.31,0,0,0-2.94.94,5,5,0,0,0-1.51,2.55v9.65l2.36.19v1.29h-6.47v-1.29l2.37-.19V306.72Z"/><path class="cls-70" d="M698.61,321.39a6.28,6.28,0,0,1-4.9-2.19,8.12,8.12,0,0,1-1.94-5.58v-.8a8.31,8.31,0,0,1,1.93-5.64,6,6,0,0,1,4.68-2.24,5.8,5.8,0,0,1,4.54,1.84,7.11,7.11,0,0,1,1.65,4.92v1.5H693.49v.42a7,7,0,0,0,1.42,4.48,4.48,4.48,0,0,0,3.7,1.81,7.29,7.29,0,0,0,2.75-.46,5.3,5.3,0,0,0,2-1.3l.74,1.2a6.37,6.37,0,0,1-2.23,1.49A8.64,8.64,0,0,1,698.61,321.39Zm-.23-15a4.15,4.15,0,0,0-3.23,1.49,6.45,6.45,0,0,0-1.53,3.72l0,.08h9.19v-.44a5.11,5.11,0,0,0-1.2-3.46A4.08,4.08,0,0,0,698.38,306.43Z"/><path class="cls-70" d="M707.35,319.79l2.36-.19V306.72l-2.36-.19v-1.3h3.9l.16,2.77a5.37,5.37,0,0,1,5.07-3.06,4.8,4.8,0,0,1,3.89,1.57,7.51,7.51,0,0,1,1.33,4.92v8.17l2.37.19v1.29H717.6v-1.29l2.36-.19v-8.16a5.78,5.78,0,0,0-1-3.85,3.67,3.67,0,0,0-2.87-1.13,4.47,4.47,0,0,0-3,1,5.49,5.49,0,0,0-1.66,2.59v9.58l2.37.19v1.29h-6.47Z"/><path class="cls-70" d="M730.78,301.17v4.06h3.45v1.43h-3.45V317a3.37,3.37,0,0,0,.56,2.21,1.85,1.85,0,0,0,1.48.65,7.27,7.27,0,0,0,.82,0c.27,0,.57-.06.92-.12l.26,1.3a4,4,0,0,1-1.06.29,7.42,7.42,0,0,1-1.24.11,3.27,3.27,0,0,1-2.58-1.06A5,5,0,0,1,729,317V306.66h-2.69v-1.43H729v-4.06Z"/><path class="cls-70" d="M737.13,312.92a8.55,8.55,0,0,1,1.9-5.74,6.78,6.78,0,0,1,10.07,0,8.55,8.55,0,0,1,1.9,5.74v.48a8.59,8.59,0,0,1-1.89,5.75,6.79,6.79,0,0,1-10.08,0,8.54,8.54,0,0,1-1.9-5.75Zm1.74.48a7.65,7.65,0,0,0,1.37,4.63,4.51,4.51,0,0,0,3.85,1.88,4.44,4.44,0,0,0,3.79-1.88,7.59,7.59,0,0,0,1.38-4.63v-.48a7.58,7.58,0,0,0-1.38-4.6,4.81,4.81,0,0,0-7.64,0,7.64,7.64,0,0,0-1.37,4.6Z"/><path class="cls-70" d="M777.47,306.43h-1.35l-.24-3.24a6.11,6.11,0,0,0-2.19-1.63,7.3,7.3,0,0,0-3.12-.62,6.8,6.8,0,0,0-5.62,2.6,10.33,10.33,0,0,0-2.09,6.71v.31a10.57,10.57,0,0,0,2.06,6.73,6.58,6.58,0,0,0,5.43,2.62,8.07,8.07,0,0,0,3.24-.63,6.06,6.06,0,0,0,2.29-1.63l.24-3.24h1.35v3.75a7.44,7.44,0,0,1-2.88,2.3,9.46,9.46,0,0,1-4.24.93,8.34,8.34,0,0,1-6.64-3,11.64,11.64,0,0,1-2.58-7.79v-.28a11.65,11.65,0,0,1,2.58-7.8,8.41,8.41,0,0,1,6.73-3,9.23,9.23,0,0,1,4.2.93,7.6,7.6,0,0,1,2.83,2.31Z"/><path class="cls-70" d="M780.6,312.92a8.55,8.55,0,0,1,1.9-5.74,6.79,6.79,0,0,1,10.08,0,8.6,8.6,0,0,1,1.9,5.74v.48a8.59,8.59,0,0,1-1.9,5.75,6.25,6.25,0,0,1-5,2.24,6.31,6.31,0,0,1-5.06-2.24,8.54,8.54,0,0,1-1.9-5.75Zm1.74.48a7.59,7.59,0,0,0,1.38,4.63,4.82,4.82,0,0,0,7.64,0,7.59,7.59,0,0,0,1.38-4.63v-.48a7.59,7.59,0,0,0-1.39-4.6,4.8,4.8,0,0,0-7.63,0,7.58,7.58,0,0,0-1.38,4.6Z"/><path class="cls-70" d="M796.93,306.53v-1.3h3.89l.16,2.62a5.59,5.59,0,0,1,2-2.15,5.67,5.67,0,0,1,3-.76,4.52,4.52,0,0,1,4.73,3.58,6.17,6.17,0,0,1,2-2.63,5.31,5.31,0,0,1,3.19-.95,4.71,4.71,0,0,1,3.88,1.68c.92,1.12,1.37,2.86,1.37,5.22v7.74l2.37.21v1.29h-6.48v-1.29l2.36-.21v-7.77q0-2.94-1-4.14a3.53,3.53,0,0,0-2.85-1.21,3.85,3.85,0,0,0-3.13,1.3,6.27,6.27,0,0,0-1.35,3.33,1.55,1.55,0,0,0,0,.22v8.29l2.37.19v1.29H807v-1.29l2.36-.19v-7.79a6.41,6.41,0,0,0-1-4.11,3.5,3.5,0,0,0-2.85-1.24,4.31,4.31,0,0,0-2.94.94A5,5,0,0,0,801,310v9.65l2.36.19v1.29h-6.46v-1.29l2.36-.19V306.72Z"/><path class="cls-70" d="M825.24,306.53v-1.3h3.81l.22,2.46a5.75,5.75,0,0,1,2-2,5.81,5.81,0,0,1,2.91-.71,5.11,5.11,0,0,1,4.42,2.27,10.45,10.45,0,0,1,1.6,6.08v.3a9.23,9.23,0,0,1-1.6,5.68,5.2,5.2,0,0,1-4.39,2.12,6.28,6.28,0,0,1-2.89-.64,5.44,5.44,0,0,1-2-1.81v6.74l2.37.19v1.3h-6.45v-1.3l2.36-.19v-19Zm13.25,6.76a9.2,9.2,0,0,0-1.19-4.93,3.84,3.84,0,0,0-3.48-1.9,4.55,4.55,0,0,0-2.85.84,5.18,5.18,0,0,0-1.65,2.19v7.62a4.81,4.81,0,0,0,1.72,2.05,5,5,0,0,0,2.81.75,3.94,3.94,0,0,0,3.46-1.73,8,8,0,0,0,1.18-4.59Z"/><path class="cls-70" d="M854.58,318.47a5.38,5.38,0,0,1-2,2.15,5.83,5.83,0,0,1-3,.77,4.77,4.77,0,0,1-3.88-1.7c-.93-1.14-1.39-2.89-1.39-5.28v-7.69l-2-.19v-1.3H846v9.21a6.88,6.88,0,0,0,1,4.16,3.31,3.31,0,0,0,2.78,1.26,5,5,0,0,0,3.13-.88,4.62,4.62,0,0,0,1.65-2.43v-9.83l-2.23-.19v-1.3h4V319.6l2.1.19v1.29h-3.62Z"/><path class="cls-70" d="M864.9,301.17v4.06h3.45v1.43H864.9V317a3.43,3.43,0,0,0,.56,2.21,1.85,1.85,0,0,0,1.48.65,7.27,7.27,0,0,0,.82,0c.27,0,.57-.06.92-.12l.26,1.3a4,4,0,0,1-1.05.29,7.64,7.64,0,0,1-1.25.11,3.24,3.24,0,0,1-2.57-1.06,5,5,0,0,1-.93-3.34V306.66h-2.69v-1.43h2.69v-4.06Z"/><path class="cls-70" d="M882.37,321.08c-.12-.54-.2-1-.25-1.39a9.39,9.39,0,0,1-.07-1.19,7.06,7.06,0,0,1-2.32,2.07,6.58,6.58,0,0,1-3.26.82,4.93,4.93,0,0,1-3.57-1.21,4.27,4.27,0,0,1-1.26-3.25,4,4,0,0,1,1.87-3.48,8.81,8.81,0,0,1,5.07-1.29h3.47v-2.1A3.38,3.38,0,0,0,881,307.4a4.35,4.35,0,0,0-3-1,7.54,7.54,0,0,0-2.39.36,5.33,5.33,0,0,0-1.8,1l-.15,2.13h-1.43v-3.05a8.92,8.92,0,0,1,2.6-1.38,9.81,9.81,0,0,1,3.23-.52,6.23,6.23,0,0,1,4.17,1.33,4.7,4.7,0,0,1,1.58,3.82v7.8c0,.32,0,.63,0,.92a6.4,6.4,0,0,0,.09.88l1.56.1v1.29Zm-5.71-1.25A6.22,6.22,0,0,0,880,319a5.19,5.19,0,0,0,2.07-2.27v-3.17h-3.49a6.46,6.46,0,0,0-3.78,1,3,3,0,0,0-1.42,2.5,2.65,2.65,0,0,0,.88,2.06A3.52,3.52,0,0,0,876.66,319.83Z"/><path class="cls-70" d="M894.62,319.91a4.93,4.93,0,0,0,3-1,3.27,3.27,0,0,0,1.32-2.77h1.54l0,.09a4.4,4.4,0,0,1-1.74,3.68,6.44,6.44,0,0,1-4.19,1.48,6,6,0,0,1-5-2.22,8.92,8.92,0,0,1-1.75-5.71v-.61a8.92,8.92,0,0,1,1.75-5.69,5.93,5.93,0,0,1,4.93-2.22,8,8,0,0,1,3.32.68,6.54,6.54,0,0,1,2.45,1.88l.07,3.46H899l-.28-2.82a5,5,0,0,0-1.73-1.25,5.71,5.71,0,0,0-2.36-.46,4.18,4.18,0,0,0-3.73,1.82,8.14,8.14,0,0,0-1.21,4.6v.61a8.23,8.23,0,0,0,1.2,4.63A4.2,4.2,0,0,0,894.62,319.91Z"/><path class="cls-70" d="M903.66,319.79l2.37-.19V306.72l-2.37-.19v-1.3h4.09V319.6l2.36.19v1.29h-6.45Zm4.09-19.1H906v-2.46h1.72Z"/><path class="cls-70" d="M913,312.92a8.55,8.55,0,0,1,1.9-5.74,6.78,6.78,0,0,1,10.07,0,8.55,8.55,0,0,1,1.9,5.74v.48a8.59,8.59,0,0,1-1.89,5.75,6.79,6.79,0,0,1-10.08,0,8.54,8.54,0,0,1-1.9-5.75Zm1.74.48a7.65,7.65,0,0,0,1.37,4.63,4.51,4.51,0,0,0,3.85,1.88,4.44,4.44,0,0,0,3.79-1.88,7.59,7.59,0,0,0,1.38-4.63v-.48a7.58,7.58,0,0,0-1.38-4.6,4.81,4.81,0,0,0-7.64,0,7.64,7.64,0,0,0-1.37,4.6Z"/><path class="cls-70" d="M929.41,319.79l2.36-.19V306.72l-2.36-.19v-1.3h3.9l.16,2.77a5.35,5.35,0,0,1,5.07-3.06,4.82,4.82,0,0,1,3.89,1.57,7.51,7.51,0,0,1,1.33,4.92v8.17l2.36.19v1.29h-6.46v-1.29l2.36-.19v-8.16a5.72,5.72,0,0,0-1-3.85,3.63,3.63,0,0,0-2.86-1.13,4.45,4.45,0,0,0-3,1,5.42,5.42,0,0,0-1.66,2.59v9.58l2.36.19v1.29h-6.46Z"/><path class="cls-70" d="M959.68,321.08c-.12-.54-.2-1-.25-1.39a9.39,9.39,0,0,1-.07-1.19,7,7,0,0,1-2.32,2.07,6.58,6.58,0,0,1-3.26.82,4.93,4.93,0,0,1-3.57-1.21,4.27,4.27,0,0,1-1.26-3.25,4,4,0,0,1,1.87-3.48,8.81,8.81,0,0,1,5.07-1.29h3.47v-2.1a3.38,3.38,0,0,0-1.08-2.66,4.35,4.35,0,0,0-3-1,7.54,7.54,0,0,0-2.39.36,5.33,5.33,0,0,0-1.8,1l-.15,2.13h-1.43v-3.05a8.92,8.92,0,0,1,2.6-1.38,9.81,9.81,0,0,1,3.23-.52,6.23,6.23,0,0,1,4.17,1.33,4.7,4.7,0,0,1,1.58,3.82v7.8c0,.32,0,.63,0,.92a6.4,6.4,0,0,0,.09.88l1.57.1v1.29ZM954,319.83a6.22,6.22,0,0,0,3.32-.88,5.19,5.19,0,0,0,2.07-2.27v-3.17h-3.49a6.46,6.46,0,0,0-3.78,1,3,3,0,0,0-1.41,2.5,2.64,2.64,0,0,0,.87,2.06A3.52,3.52,0,0,0,954,319.83Z"/><path class="cls-70" d="M964.88,299.53v-1.3H969V319.6l2.36.19v1.29h-6.45v-1.29l2.36-.19V299.72Z"/><path class="cls-70" d="M976.75,321.08h-2v-2.4h2Z"/><g class="cls-71"><path class="cls-68" d="M153.5,564.7s24.48-21.86,24.48-27-14.34-8.35-14.34-8.35l-20.42,29.5,9.58,7.33Z"/><path class="cls-70" d="M176.16,358.82S129.27,227,183.61,159.92c0,0,58.1-39.81,101.53,7s13,178.54,13,178.54Z"/><g class="cls-72"><polygon class="cls-73" points="293.69 311.8 293.71 312.12 182.29 322.49 182.29 311.8 293.69 311.8"/><polygon class="cls-73" points="293.71 312.12 293.75 312.49 293.75 312.93 182.29 323.3 182.29 322.49 293.71 312.12"/><polygon class="cls-74" points="293.75 313.74 182.29 324.11 182.29 323.3 293.75 312.93 293.75 313.74"/><polygon class="cls-75" points="293.75 314.55 182.29 324.93 182.29 324.11 293.75 313.74 293.75 314.55"/><polygon class="cls-76" points="293.75 315.37 182.29 325.74 182.29 324.93 293.75 314.55 293.75 315.37"/><polygon class="cls-77" points="293.75 316.18 182.29 326.55 182.29 325.74 293.75 315.37 293.75 316.18"/><polygon class="cls-78" points="293.75 316.99 182.29 327.37 182.29 326.55 293.75 316.18 293.75 316.99"/><polygon class="cls-79" points="293.75 317.81 182.29 328.18 182.29 327.37 293.75 316.99 293.75 317.81"/><polygon class="cls-80" points="293.75 318.62 182.29 328.99 182.29 328.18 293.75 317.81 293.75 318.62"/><polygon class="cls-81" points="293.75 319.43 182.29 329.81 182.29 328.99 293.75 318.62 293.75 319.43"/><polygon class="cls-82" points="293.75 320.24 182.29 330.62 182.29 329.81 293.75 319.43 293.75 320.24"/><polygon class="cls-83" points="293.75 321.06 182.29 331.43 182.29 330.62 293.75 320.24 293.75 321.06"/><polygon class="cls-84" points="293.75 321.87 182.29 332.24 182.29 331.43 293.75 321.06 293.75 321.87"/><polygon class="cls-85" points="293.75 322.68 182.29 333.06 182.29 332.24 293.75 321.87 293.75 322.68"/><polygon class="cls-86" points="293.75 323.5 182.29 333.87 182.29 333.06 293.75 322.68 293.75 323.5"/><polygon class="cls-87" points="293.75 324.31 182.29 334.68 182.29 333.87 293.75 323.5 293.75 324.31"/><polygon class="cls-88" points="293.75 325.12 182.29 335.5 182.29 334.68 293.75 324.31 293.75 325.12"/><polygon class="cls-89" points="293.75 325.94 182.29 336.31 182.29 335.5 293.75 325.12 293.75 325.94"/><polygon class="cls-90" points="293.75 326.75 182.29 337.12 182.29 336.31 293.75 325.94 293.75 326.75"/><polygon class="cls-91" points="293.75 327.56 182.29 337.94 182.29 337.12 293.75 326.75 293.75 327.56"/><polygon class="cls-92" points="293.75 328.38 182.29 338.75 182.29 337.94 293.75 327.56 293.75 328.38"/><polygon class="cls-93" points="293.75 329.19 182.29 339.56 182.29 338.75 293.75 328.38 293.75 329.19"/><polygon class="cls-94" points="293.75 330 182.29 340.38 182.29 339.56 293.75 329.19 293.75 330"/><polygon class="cls-95" points="293.75 330.82 182.29 341.19 182.29 340.38 293.75 330 293.75 330.82"/><polygon class="cls-95" points="184.32 384.38 182.29 362.56 182.29 341.19 293.75 330.82 293.75 384.38 184.32 384.38"/></g><path class="cls-95" d="M182.57,220.71s-.88,110.78,64.76,101.68c35.49-4.92,47.51-40.41,40.88-70.92a191.55,191.55,0,0,1-3.79-46.76s-4.08-29.37-38.7-20.31-49.64,5.72-49.64,5.72S180.51,193.3,182.57,220.71Z"/><path class="cls-70" d="M177,226.89s25.09-2.78,36.43-7.67l.58-15.39s2.55,9.93,4.85,12.4,22.88-.73,32-3.58,4.81-14.7,4.81-14.7l4.34,11.85s28.57,3.45,28.73-.93-3.86-24.71-12.21-28.74-73.88-4.44-83.08,4.1S177.5,214.69,177,226.89Z"/><ellipse class="cls-96" cx="265.92" cy="242.56" rx="3.92" ry="3.17" transform="translate(-22.23 26.88) rotate(-5.56)"/><ellipse class="cls-96" cx="226.86" cy="246.26" rx="3.92" ry="3.17" transform="translate(-22.77 23.12) rotate(-5.56)"/><path class="cls-97" d="M250.52,277a15.34,15.34,0,0,1-5.17-.8l.35-.94c5.16,1.91,13.88,0,15.56-3.34,1.13-2.27-1.43-4.53-3.78-6-6.89-4.38-5.32-8.94-5.25-9.13l.94.34c0,.16-1.33,4,4.84,7.94,4.89,3.11,4.95,5.69,4.15,7.32C260.69,275.31,255.34,277,250.52,277Z"/><path class="cls-98" d="M264.92,287.05c-18.37,3.57-37.46.15-36.73,1.15,0,0,1.77,10.68,18,10.61C262.94,298.73,264.92,287.05,264.92,287.05Z"/><path class="cls-68" d="M219.35,331.75s22.52,13.66,36.94,11.81c6.84-.88,19-14,19-14l13,129.73-49.8,2.24Z"/><path class="cls-3" d="M172.63,555.72S155,628.29,157,648.17s4.67,52.17,34,145.94c0,0,78.26,32.39,150.2-.8,0,0,6.29-1.86,10.91-43.82S364.54,606.9,343.4,562,172.63,555.72,172.63,555.72Z"/><path class="cls-70" d="M271,224s-6.44-4.41-10.23.1a.9.9,0,0,0-.21,1.24c.5.72,1.31-2.15,10.2-.47C270.78,224.88,271.34,225,271,224Z"/><path class="cls-70" d="M218.7,227.22s5.76-5.29,10.14-1.36a.89.89,0,0,1,.39,1.2c-.4.78-1.61-1.94-10.16,1C219.07,228,218.52,228.24,218.7,227.22Z"/><path class="cls-68" d="M262.59,287.47s-.64,2.4-2,3.09-15.62,1.5-24.11.72c-5.38-.5-6.4-2.5-6.25-3.23C230.25,288.05,249.06,289.75,262.59,287.47Z"/><path class="cls-99" d="M249.35,298.64s-1.22-7.27-18.49-5.37C230.86,293.27,235,299.91,249.35,298.64Z"/><ellipse class="cls-100" cx="280.98" cy="252.77" rx="3.62" ry="6.23" transform="translate(5.76 511.8) rotate(-85.24)"/><ellipse class="cls-100" cx="214.76" cy="262.02" rx="6.23" ry="3.62" transform="translate(-52.56 53.89) rotate(-12.76)"/><path class="cls-101" d="M333.53,438.84l41.91,37.38s10.59,6.85,14.42,7.27S408.13,474,408.13,474l39.67-86.66s-43.31-16.06-43.67-19.67-13.35,48.69-13.35,48.69-1-1.57-6.5-.5c-3,.58-1.8,5.6-7.86-.14-3.75-3.54-4.15-3.13-9.37-10.51-29.22-41.33-56.53-70.83-58.39-72.35s-11-6.17-14.23-4.65-19.18,1.41-19.18,1.41L277.88,445,219.35,331.75s-12.56,4.33-26.08,2.61S157,338,157,338s-10.23,27.71-17.55,29.81-11,20.25-11,20.25c-2.17,2.65-10.18,14.08-19.61,27.72h0s-37.48,45.93-43,49.91-2.65,13.44-2.65,13.44l78.84,83.79L170,527.39c-7.13-.5-43.13-49.77-43.13-49.77,2.54-4.53,2.3-8.26,1.56-10.72,17.3-18.49,42.63-47.18,42.63-47.18.41,4.06,6.47,16.8,16.94,32.51s9.68,42.14,9.68,42.14c-14.94,21.68-25,61.35-25,61.35s1,7.92,26.28,20.54c11,5.51,46.51,16.31,46.51,16.31l39.46-43.28,50.78,35.64s9.12-9.13,8.21-18.27-18.44-63.5-18.44-63.5-1.89-19,.28-24.66S333.53,438.84,333.53,438.84Z"/><path class="cls-73" d="M153.5,564.7s12.2,10.7,14.68,8.23l12.43-35.19S165,549,153.5,564.7Z"/><path class="cls-95" d="M170.85,565.87s5.9-5.86,14.86,2.8,9.68,9.26,9.68,9.26,7,2.88,7.52-4.63c0,0,8.8,1.29,6.83-8.39,0,0,6.13-4.42.71-12,0,0,5.5-1.06,2.23-11.47s-24-20.46-24-20.46-9.94-3.49-10.82,8.07c0,0-7.16.38-4.66,10.38,0,0-4.65,4.2-3.65,8.77s-.11,3.66-.11,3.66S162.76,559.29,170.85,565.87Z"/><path class="cls-97" d="M202.53,573.63c-.11-.14-11.87-13.67-24.48-19.79l.44-.9c12.8,6.21,24.68,19.9,24.8,20Z"/><path class="cls-97" d="M209.39,565.27c-.17-.16-17.14-16.1-29.48-22.75l.48-.88c12.45,6.72,29.52,22.74,29.69,22.9Z"/><path class="cls-97" d="M210.06,553.19c-.15-.18-15.21-17.9-27.54-21.76l.29-.95c12.61,3.94,27.4,21.33,28,22.07Z"/><path class="cls-102" d="M219.35,331.75s-24.15,11.65-37.22,31.43l44.37,12.67s-15.11,14.86-14.79,18.07,66.17,51,66.17,51,33.54-61.51,29.81-64.56-24.28-6.81-24.28-6.81,19.47-27.61,22.86-27.95-28-16.36-31-16.05,2.51,110.28,2.51,110.28l-.15,2.38Z"/><path class="cls-3" d="M277.88,445s9.26,81.81,7,104.33"/><circle class="cls-102" cx="291.62" cy="469.64" r="5.33"/><circle class="cls-102" cx="293.75" cy="507.64" r="5.33"/><path class="cls-103" d="M173.78,402.9l-1-.23a76.65,76.65,0,0,0-11.56-60.85l.82-.57A77.63,77.63,0,0,1,173.78,402.9Z"/><path class="cls-103" d="M329.06,405.1l-1-.09c1.1-12.3-3.36-24.58-7.3-35.41-4.66-12.82-9.95-27.35-20.07-37.88l.72-.69c10.27,10.68,15.59,25.32,20.29,38.23C325.67,380.19,330.18,392.58,329.06,405.1Z"/><path class="cls-103" d="M146.29,375.14a27.4,27.4,0,0,0-3.49-6.94l.82-.57a28.39,28.39,0,0,1,3.62,7.19Z"/><path class="cls-103" d="M136,390.8a33.69,33.69,0,0,0-6.08-.83l0-1a36.42,36.42,0,0,1,6.25.85Z"/><path class="cls-103" d="M334.41,439.12l-1-.11a74.31,74.31,0,0,0,.44-11.93l1,0A73.89,73.89,0,0,1,334.41,439.12Z"/><path class="cls-103" d="M396.36,433.11a73.27,73.27,0,0,0-2.84-11.6l1-.31A74,74,0,0,1,397.34,433Z"/><path class="cls-103" d="M383,434.09l-1-.15a59.28,59.28,0,0,0,.76-10.74l1,0A60.39,60.39,0,0,1,383,434.09Z"/><path class="cls-103" d="M200.39,494.73l-.53-.85a60,60,0,0,1,11.6-5.54l.33.94A59.09,59.09,0,0,0,200.39,494.73Z"/><path class="cls-103" d="M127.74,467.41c-2.32,0-10-.2-12.54-2.75l.71-.71c2.65,2.66,12.36,2.45,12.46,2.45l0,1Z"/><path class="cls-103" d="M118.8,481.06v-1c3.43,0,7.7-2.83,7.74-2.86l.56.83C126.91,478.16,122.54,481.06,118.8,481.06Z"/><path class="cls-104" d="M404.87,372.47a11.23,11.23,0,0,1,3.26-6.3L449,378l-4.26,11.35Z"/><path class="cls-95" d="M413.1,368.67s2.55-5.88,1.16-10.37-5.57-14.17-4.84-19.36a101.16,101.16,0,0,0,1.33-15.6c0-16-1.25-38.25-1.16-38.92.14-1,6.38-.85,6.68,2.46.12,1.26-.27,7.05.61,12.71,1.43,9.25,3.23,20.4,3.23,20.4s12.36-3.55,16.86-.31c0,0,8.21-2.12,9,1.69,0,0,6.59-.47,6.72,2.47a76.37,76.37,0,0,1,.05,9c-.07.53-3.31,5.76-3.68,8.66-.74,5.81,1,11.35-.56,14.66-2.34,5-7.64,8.17-7.83,9.53s-2.62,12.93-3.33,13.46S412.45,373.28,413.1,368.67Z"/><path class="cls-97" d="M431,344.62l-.38,0c-1.67-.14-3.4-1.31-3.24-4.18a17.18,17.18,0,0,1,1.35-4.27c.65-1.63,1.64-4.1,1.24-4.64a13.19,13.19,0,0,1-1.58-4.26c-1.17.7-3.23,1.63-4.27.23l.8-.6c.62.84,2.5-.14,3.5-.85l.69.08.08.1,0,.14a14.22,14.22,0,0,0,1.55,4.56c.74,1-.12,3.13-1.11,5.62a16.75,16.75,0,0,0-1.28,4c-.15,2.63,1.58,3.06,2.32,3.13a3.87,3.87,0,0,0,4.13-3.17,18.17,18.17,0,0,1,.85-2.57,32.9,32.9,0,0,0,1.46-4.53c.18-1.31-.43-10.28-.68-13.62l1-.07c0,.49.9,12.15.67,13.83a32.68,32.68,0,0,1-1.51,4.73c-.36,1-.77,2.09-.8,2.34A4.81,4.81,0,0,1,431,344.62Z"/><path class="cls-97" d="M440.13,344.18l-.3,0a6.62,6.62,0,0,1-4.95-3.46l.91-.42a5.59,5.59,0,0,0,4.18,2.89,1.16,1.16,0,0,0,.88-.26c1.28-1,2.28-4.19,2.95-9.54l.05-.43,1.65-11.64,1,.14-1.7,12.05c-.27,2.1-1.06,8.48-3.33,10.21A2.17,2.17,0,0,1,440.13,344.18Z"/><path class="cls-97" d="M447.39,342.16a4.36,4.36,0,0,1-1.46-.27,4.46,4.46,0,0,1-2.89-2.82l1-.23a3.56,3.56,0,0,0,2.26,2.11,2.37,2.37,0,0,0,2.25-.13c1.29-1,3.15-6.17,3.76-8.1l1,.31c-.24.74-2.34,7.26-4.11,8.59A2.86,2.86,0,0,1,447.39,342.16Z"/><path class="cls-95" d="M421.38,355.71c1.12.16,5.94-3.58,6.86-5.66s1.8-4.73,1.8-4.73,3.7-1.81,5.2-1.54c3.17.58,5.87-2.24,5.84-4,0-2-2.6-4.12-7.44-3,0,0-4.18,1.57-5.11,1.44s-3.64-.13-4.77.72a8.14,8.14,0,0,1-4.51,1.13c-.93-.13-3.36-.13-4.39.64"/><path class="cls-97" d="M421.43,356.21h-.12l.14-1h0c.86,0,5.41-3.34,6.31-5.37s1.78-4.66,1.78-4.69l.07-.2.19-.09c.39-.19,3.9-1.87,5.51-1.58a4.65,4.65,0,0,0,3.84-1.13,3.58,3.58,0,0,0,1.41-2.38,2.44,2.44,0,0,0-1-1.85c-1.26-1-3.38-1.26-5.8-.72-.65.25-4.27,1.58-5.29,1.45s-3.49-.07-4.4.62a8.58,8.58,0,0,1-4.88,1.22c-1-.14-3.19-.07-4,.55l-.6-.8c1.18-.89,3.76-.88,4.76-.74a7.75,7.75,0,0,0,4.14-1c1.31-1,4.23-.94,5.14-.81a22.41,22.41,0,0,0,4.86-1.42c3.8-.85,5.83.2,6.71.89a3.48,3.48,0,0,1,1.41,2.62,4.48,4.48,0,0,1-1.76,3.17,5.72,5.72,0,0,1-4.67,1.34c-.93-.17-3.3.74-4.7,1.41-.23.66-1,2.83-1.75,4.58C427.77,352.35,423,356.21,421.43,356.21Z"/></g></g></svg>