<svg xmlns="http://www.w3.org/2000/svg" viewBox="0 0 510.31 326.77"><defs><style>.cls-1{fill:#ffdf57;}.cls-2{fill:#4e4975;}.cls-3{fill:#ed624a;}.cls-4{fill:#d37d3d;}.cls-5{fill:#ea4924;}.cls-6{fill:#f9b466;}.cls-7{fill:#f49f4c;}.cls-8{fill:#3e385a;}.cls-9{fill:#e58f48;}.cls-10{fill:#ffcd85;}.cls-11{opacity:0.8;}.cls-12{fill:#fada99;}</style></defs><title>7-510px</title><g id="Camada_2" data-name="Camada 2"><g id="Camada_1-2" data-name="Camada 1"><rect class="cls-1" x="1.5" y="1.5" width="507.31" height="323.77"/><polygon class="cls-2" points="393.43 94.61 508.81 30.9 508.81 163.68 438.48 190.21 386.52 104.63 393.43 94.61"/><polygon class="cls-3" points="116.88 103.75 1.5 40.03 1.5 172.82 71.83 199.34 123.79 113.76 116.88 103.75"/><path class="cls-4" d="M336.71,226.23s-1.84,6,1,10,15.87,14.29,15.87,14.29a10,10,0,0,1-8.75-.5C340.51,247.4,334,238.9,334,238.9S331,232.46,336.71,226.23Z"/><path class="cls-5" d="M158.56,112.54,133.82,99.91a15.4,15.4,0,0,0-20.65,6.7L68.5,194.18a15.39,15.39,0,0,0,6.7,20.65l24.74,12.62a15.4,15.4,0,0,0,20.65-6.7l1.34-2.62-.4-.18,42.14-81.66h0l1.59-3.11A15.39,15.39,0,0,0,158.56,112.54Z"/><path class="cls-6" d="M346.64,129c-10.88,10.87-29,14.16-48.72,15.13l6,11.15a8,8,0,0,1,.8,2.16,7,7,0,0,1,.15,1.57c0,2.87-1.33,7.43-8.66,8.89a17.25,17.25,0,0,1-2.6.3c-8.06.36-17.09-4.32-20.85-6.5a7.87,7.87,0,0,1-2.78-2.75l-4-6.55-1.78-2.94a7.93,7.93,0,0,0-6.81-3.85H242.61a65.87,65.87,0,0,0-12.29,6.21l-.61.37A171.27,171.27,0,0,0,208,167.71a12.11,12.11,0,0,0-3.63,3l-50.19,60.76-.58.7a12.11,12.11,0,0,0-2.61,5.8,12.25,12.25,0,0,0,4.26,11.44l1.59,1.31a12.16,12.16,0,0,0,6.7,2.74c-1.18-.47-1.78-.86-1.47-.8,2,1,5.59-.35,9.18-3.23h0c.65-.52,1.29-1.08,1.93-1.7s1.78-1.93,3.33-3.79c6.34-7.6,19.21-24,28.39-35.13,3.68-4.46,6.78-8.07,8.6-9.9s3.23-2.62,4.32-2.81c3.41-.57,3.75,4.92,3.75,4.92s-2.45,3.19-6.19,8c-2,2.6-4.43,5.68-7,9-8.34,10.57-18.64,23.37-24.68,30-.83.9-1.58,1.69-2.23,2.34a12.07,12.07,0,0,0-1.53,4A12.23,12.23,0,0,0,184.12,266l1.59,1.31a12,12,0,0,0,4.06,2.21l-.41-.28s7.84,1.26,12.22-2.7c.1-.09.21-.17.31-.27.79-.79,2.46-2.8,4.67-5.57,4.2-5.27,10.43-13.33,16.67-21.36,3.44-4.41,6.87-8.8,10-12.69a8.24,8.24,0,0,1,1.86.13,6.38,6.38,0,0,1,5.16,5.14c-2.06,2.7-4.28,5.6-6.56,8.55-1.27,1.65-2.57,3.32-3.87,5-5.73,7.36-11.47,14.55-15.71,19.46a67.2,67.2,0,0,1-4.85,5.2c-.08.08-.17.14-.25.21s-.11.21-.16.31A12.27,12.27,0,0,0,211.73,286l2.23,1.84a12.17,12.17,0,0,0,8.18,2.77c-1.33-.5-2-.94-1.68-.88,2.37,1.13,6.92-.87,11.11-4.92,1-1,3.54-4,6.84-8.08,3.73-4.6,8.48-10.55,13.28-16.54l3.78-4.71,2.39-3a5.6,5.6,0,0,1,3.69,4.3,8.33,8.33,0,0,1,.07,3.4c-.09.59-.23,1.17-.38,1.76-.57.7-1.13,1.41-1.7,2.12-1.34,1.67-2.68,3.34-4,5-4.33,5.35-8.51,10.37-11.8,14.09a12.13,12.13,0,0,0,3.74,13.22h0a12,12,0,0,0,4.8,2.4c2.49-.22,5.9-2.12,9.1-5.21,1.3-1.26,5-5.76,9.67-11.57a1,1,0,0,1-.07-.15,11,11,0,0,1-1.27-5.51,1.21,1.21,0,0,1,0-.19V276a12.41,12.41,0,0,1,2.22-6.69,9.42,9.42,0,0,1,1.49-1.78h0q.42-.4.87-.78a12.4,12.4,0,0,1,10.84-2.32l2.16-2.67a7.62,7.62,0,0,1,1,.12l.23.06.13-.08a12.59,12.59,0,0,1,.42-5.78l.16-.45c.08-.22.17-.45.26-.67a1.17,1.17,0,0,1,.05-.11.05.05,0,0,1,0,0,12.32,12.32,0,0,1,19.4-4.29l1.68-.94a10.42,10.42,0,0,1,2.93-8.78l2.78-2.78a10.45,10.45,0,0,1,14.73,0l.09.09,2.08-1.16A10.43,10.43,0,0,1,336,227l2.78-2.78a10.44,10.44,0,0,1,14.72,0l.92.92,25.52-14.26C373.42,194.78,347.48,130.63,346.64,129Z"/><path class="cls-7" d="M215.38,209c3.74-4.8,6.19-8,6.19-8s-.34-5.49-3.75-4.92c-1.09.19-2.5,1-4.32,2.81s-4.92,5.44-8.6,9.9c-9.18,11.11-22.05,27.53-28.39,35.13-1.55,1.86-2.71,3.19-3.33,3.79s-1.28,1.18-1.93,1.7h0c-3.59,2.88-7.17,4.18-9.18,3.23-.31-.06.29.33,1.47.8,2.79,1.09,8.84,2.59,14.24-.34a13.79,13.79,0,0,0,2.53-1.77c.34-.29.71-.65,1.13-1.06.65-.65,1.4-1.44,2.23-2.34,6-6.59,16.34-19.39,24.68-30C211,214.66,213.35,211.58,215.38,209Z"/><path class="cls-7" d="M233.66,240.47c2.28-2.95,4.5-5.85,6.56-8.55a6.38,6.38,0,0,0-5.16-5.14,8.24,8.24,0,0,0-1.86-.13c-3.1,3.89-6.53,8.28-10,12.69-6.24,8-12.47,16.09-16.67,21.36-2.21,2.77-3.88,4.78-4.67,5.57-.1.1-.21.18-.31.27-4.38,4-12.22,2.7-12.22,2.7l.41.28c2.06,1.36,11.59,7,18.92,1l.29-.24c.08-.07.17-.13.25-.21a67.2,67.2,0,0,0,4.85-5.2c4.24-4.91,10-12.1,15.71-19.46C231.09,243.79,232.39,242.12,233.66,240.47Z"/><path class="cls-7" d="M259.54,264.06c.57-.71,1.13-1.42,1.7-2.12.15-.59.29-1.17.38-1.76a8.33,8.33,0,0,0-.07-3.4,5.6,5.6,0,0,0-3.69-4.3l-2.39,3-3.78,4.71c-4.8,6-9.55,11.94-13.28,16.54-3.3,4.07-5.81,7.08-6.84,8.08-4.19,4.05-8.74,6.05-11.11,4.92-.33-.06.35.38,1.68.88,3.34,1.27,10.78,2.91,16.56-2.19a65,65,0,0,0,5-5.24c3.29-3.72,7.47-8.74,11.8-14.09C256.86,267.4,258.2,265.73,259.54,264.06Z"/><path class="cls-7" d="M388.44,210.94,388,210l-1.46-2.86-18.37-36L346.64,129c.84,1.65,26.78,65.8,33.27,81.87l-25.52,14.26,5.31,5.31,30-17Z"/><path class="cls-7" d="M291.69,268.58l.53.65.11-.14-1.42-1.38Q291.32,268.13,291.69,268.58Z"/><path class="cls-7" d="M271,282c-4.68,5.81-8.37,10.31-9.67,11.57-3.2,3.09-6.61,5-9.1,5.21a3.81,3.81,0,0,1-2-.29c-1.16-.22,10.17,5.82,18.24-1.3a102,102,0,0,0,7.69-8.32,58,58,0,0,1-4.36-5.54A11.93,11.93,0,0,1,271,282Z"/><path class="cls-7" d="M289.6,264.93a12.68,12.68,0,0,1-.94-3.11l-.13.08-.23-.06a7.62,7.62,0,0,0-1-.12l-2.16,2.67a12.32,12.32,0,0,1,5.59,3.12l0,0A18.16,18.16,0,0,1,289.6,264.93Z"/><path class="cls-7" d="M311.49,252.48s-.06-.13-.15-.36l-.09-.23,0,0a10.92,10.92,0,0,1-.58-2.3l-1.68.94.64.58,2.42,2.43c-.19-.32-.36-.65-.52-1Z"/><path class="cls-7" d="M333.26,236.91l-2.08,1.16,5.41,5.41.74-.42L336,241.7A10.27,10.27,0,0,1,333.26,236.91Z"/><path class="cls-8" d="M441.81,186.88,397.14,99.3a15.39,15.39,0,0,0-20.65-6.69l-24.74,12.62a15.39,15.39,0,0,0-6.7,20.64l1.59,3.11,21.51,42.18,18.37,36,1.92,3.78,1.29,2.51a15.38,15.38,0,0,0,20.64,6.69l24.74-12.62A15.38,15.38,0,0,0,441.81,186.88Z"/><polygon class="cls-8" points="388.44 210.94 386.52 207.16 387.98 210.01 388.44 210.94"/><path class="cls-9" d="M293.14,167.83a18.49,18.49,0,0,0,3.08,0c7.33-1.46,8.62-6,8.66-8.89a7,7,0,0,0-.15-1.57,6.93,6.93,0,0,1-.84.65l-4.42,2.82a5.6,5.6,0,0,1-7.7-1.71l-4-6.3a2.07,2.07,0,0,1,.64-2.86l9.27-5.9.19-.12L281.3,113.24a7.94,7.94,0,0,0-7-4.19h-44.6a8,8,0,0,0-4.05,1.11l-48.14,28.5a7.94,7.94,0,0,1-4.06,1.11h-3.2a8.07,8.07,0,0,0-2.1.29,35.94,35.94,0,0,1-4.47-3.77l2.76,4.46L163,151.26,139.44,223.2l14.74,8.24,50.19-60.76a12.11,12.11,0,0,1,3.63-3,171.27,171.27,0,0,1,21.71-15.54l.61-.37h-3.39c-.22,0-8.49-1.92,5.09-10,5.4-3,32.74-5.35,37,2.6a4.28,4.28,0,0,1,.31.69,108.3,108.3,0,0,0,7.72,12.33C281.15,162.72,286.28,167.16,293.14,167.83Z"/><path class="cls-9" d="M359.94,230.65l-.24-.23-5.31-5.31-.92-.92a10.44,10.44,0,0,0-14.72,0L336,227a10.43,10.43,0,0,0-2.71,9.94A10.27,10.27,0,0,0,336,241.7l1.36,1.36,5.1,5.1a10.45,10.45,0,0,0,14.73,0l2.78-2.78A10.45,10.45,0,0,0,359.94,230.65ZM337,234.81a5.79,5.79,0,0,1,1.85-6.29l4.08-3.28a5.57,5.57,0,0,1,7.83.84l.58.71.51.64a2.08,2.08,0,0,1-.31,2.92l-9.68,7.81a2.09,2.09,0,0,1-2.92-.32l-1-1.19A5.56,5.56,0,0,1,337,234.81Z"/><path class="cls-9" d="M314.69,255.86c-1.82-1.9-3.07-3.24-3.18-3.36.16.34.33.67.52,1l-2.42-2.43-.64-.58a12.32,12.32,0,0,0-19.4,4.29c2.54-3.71,3.34-3.7,3.34-3.7.16.67-1.11,3.46.18,7.19a5.72,5.72,0,0,1,2-3.2l4.08-3.28a5.57,5.57,0,0,1,7.18.18,4.51,4.51,0,0,1,.65.66l1.09,1.35a2.08,2.08,0,0,1-.31,2.92l-9.68,7.81a3,3,0,0,1-.33.21c.1.12.21.23.32.35,7,7.28,21,19.9,21.06,19.92a12.29,12.29,0,0,0,4.31-2.79h0A12.43,12.43,0,0,0,325.14,267a10.35,10.35,0,0,0,4.51,2.59C326.72,268.19,319.07,260.43,314.69,255.86Z"/><path class="cls-9" d="M336.59,243.48l-5.41-5.41-.09-.09a10.45,10.45,0,0,0-14.73,0l-2.78,2.78a10.42,10.42,0,0,0-2.93,8.78,10.11,10.11,0,0,0,.42,1.79,10,10,0,0,1-.34-1.84c-.22-2.41.31-6,3.93-9.81a6.44,6.44,0,0,0,.52,7.28,5.79,5.79,0,0,1,2.08-3.7l4.08-3.29a5.71,5.71,0,0,1,7.84.85l1.09,1.35a2.09,2.09,0,0,1-.32,2.92l-8.9,7.18-.16.12c6.91,6.16,17.54,15.1,17.54,15.1a12.21,12.21,0,0,1-4.07,2.34A10.36,10.36,0,0,0,339.8,267l2.78-2.78a10.45,10.45,0,0,0,0-14.73Z"/><path class="cls-9" d="M311.07,251.33c.05.19.11.36.16.51C311.17,251.67,311.12,251.5,311.07,251.33Z"/><path class="cls-9" d="M305.92,282.39a12.21,12.21,0,0,0,2.6,2c-1.54-1.28-4.86-4.39-8.22-7.59Z"/><path class="cls-9" d="M319.08,285.19a19.1,19.1,0,0,1-5,.78A12.37,12.37,0,0,0,319.08,285.19Z"/><path class="cls-9" d="M288.66,261.82a12.68,12.68,0,0,0,.94,3.11,19.13,19.13,0,0,1-.8-3.18,12.8,12.8,0,0,1,.28-5.71A12.59,12.59,0,0,0,288.66,261.82Z"/><path class="cls-9" d="M279.25,292.22,279,292Z"/><path class="cls-9" d="M288.06,295.12h0Z"/><path class="cls-9" d="M279.25,292.22a12.41,12.41,0,0,0,8.81,2.9A14,14,0,0,1,279.25,292.22Z"/><path class="cls-9" d="M279,292c-.18-.16-.36-.32-.53-.49C278.68,291.72,278.86,291.88,279,292Z"/><path class="cls-9" d="M278.51,291.55c-.31-.31-.61-.63-.9-1C277.9,290.92,278.2,291.24,278.51,291.55Z"/><path class="cls-9" d="M292.22,269.23l-.53-.65q-.37-.45-.78-.87l-.2-.2a12.47,12.47,0,0,0-16.43-.8q-.45.38-.87.78c.47.76-2.4,5.69-.62,8.57a23.53,23.53,0,0,0,1.42,1.94c1.34,1.73,3.35,4.18,5.46,6.7,4.22,5,8.77,10.3,8.85,10.4a12.25,12.25,0,0,0,6.5-2.66h0A12.42,12.42,0,0,0,296.89,275Zm-13.56,9.7a2.08,2.08,0,0,1-2.92-.31,5.89,5.89,0,0,1,.87-8.13l2-1.59a5.63,5.63,0,0,1,7.84.84l.13.16a2.09,2.09,0,0,1-.31,2.92Z"/><path class="cls-9" d="M271,281.82a1,1,0,0,0,.07.15,11.93,11.93,0,0,0,.79,1.33c-.28-.44-.55-.89-.79-1.34Z"/><path class="cls-9" d="M271.92,269.27A12.41,12.41,0,0,0,269.7,276,13.47,13.47,0,0,1,271.92,269.27Z"/><path class="cls-4" d="M208.82,270.63c.05-.1.1-.21.16-.31l-.29.24Z"/><path class="cls-4" d="M177.78,253.09l2.13,1.2a12.07,12.07,0,0,1,1.53-4c-.42.41-.79.77-1.13,1.06A13.79,13.79,0,0,1,177.78,253.09Z"/><path class="cls-4" d="M272.77,161.68c3.76,2.18,12.79,6.86,20.85,6.5a17.25,17.25,0,0,0,2.6-.3,18.49,18.49,0,0,1-3.08,0c-6.86-.67-12-5.11-16.06-10.45a108.3,108.3,0,0,1-7.72-12.33,4.28,4.28,0,0,0-.31-.69c-4.29-8-31.63-5.64-37-2.6-13.58,8.11-5.31,10-5.09,10h0l7.8-5a7.93,7.93,0,0,1,4.26-1.24h18.43a7.93,7.93,0,0,1,6.81,3.85l1.78,2.94,4,6.55A7.87,7.87,0,0,0,272.77,161.68Z"/><path class="cls-4" d="M279.67,284.7c-2.11-2.52-4.12-5-5.46-6.7a23.53,23.53,0,0,1-1.42-1.94c-1.78-2.88,1.09-7.81.62-8.57h0a9.42,9.42,0,0,0-1.49,1.78A13.47,13.47,0,0,0,269.7,276v.16c0,.06,0,.13,0,.19a11,11,0,0,0,1.27,5.51l.07.14c.24.45.51.9.79,1.34a58,58,0,0,0,4.36,5.54c.47.56.95,1.13,1.43,1.73,3.83,4.75,9.92,4.59,10.8,4.54h.11C288.44,295,283.89,289.73,279.67,284.7Z"/><path class="cls-4" d="M298.06,265.26c-.11-.12-.22-.23-.32-.35a2.09,2.09,0,0,1-2.6-.53l-.95-1.19a5.72,5.72,0,0,1-1.25-3.75,5.87,5.87,0,0,1,.15-1.18c-1.29-3.73,0-6.52-.18-7.19,0,0-.8,0-3.34,3.7a.05.05,0,0,0,0,0,1.17,1.17,0,0,0-.05.11c-.1.22-.18.45-.26.67l-.16.45a12.8,12.8,0,0,0-.28,5.71,19.13,19.13,0,0,0,.8,3.18,18.16,18.16,0,0,0,1.09,2.56l0,0,.2.2,1.42,1.38c1.82,1.77,4.91,4.76,8,7.68,3.36,3.2,6.68,6.31,8.22,7.59h0a8.41,8.41,0,0,0,5.51,1.6,19.1,19.1,0,0,0,5-.78h0S305,272.54,298.06,265.26Z"/><path class="cls-4" d="M320.89,252.39l-.62.5a2.09,2.09,0,0,1-2.92-.31l-1-1.19a5.79,5.79,0,0,1-1.22-4.38.07.07,0,0,0,0,0,6.44,6.44,0,0,1-.52-7.28c-3.62,3.78-4.15,7.4-3.93,9.81a10.36,10.36,0,0,0,.5,2.35l0,0c0,.09.06.16.09.23.09.23.15.36.15.36l0,0c.11.12,1.36,1.46,3.18,3.36,4.38,4.57,12,12.33,15,13.77h0a6.21,6.21,0,0,0,4.7.19,12.21,12.21,0,0,0,4.07-2.34S327.8,258.55,320.89,252.39Z"/><path class="cls-4" d="M163.67,136.29,121.53,218l.4.18-1.34,2.62L151,237.94a12.11,12.11,0,0,1,2.61-5.8l.58-.7-14.74-8.24L163,151.26l3.44-10.51-2.76-4.46Z"/><path class="cls-10" d="M286.42,269.74a5.63,5.63,0,0,0-7.84-.84l-2,1.59a5.89,5.89,0,0,0-.87,8.13,2.08,2.08,0,0,0,2.92.31l7.58-6.11a2.09,2.09,0,0,0,.31-2.92Z"/><path class="cls-10" d="M307,252.62a4.51,4.51,0,0,0-.65-.66,5.57,5.57,0,0,0-7.18-.18l-4.08,3.28a5.72,5.72,0,0,0-2,3.2,5.87,5.87,0,0,0-.15,1.18,5.72,5.72,0,0,0,1.25,3.75l.95,1.19a2.09,2.09,0,0,0,2.6.53,3,3,0,0,0,.33-.21l9.68-7.81a2.08,2.08,0,0,0,.31-2.92Z"/><path class="cls-10" d="M329.18,240.82a5.71,5.71,0,0,0-7.84-.85l-4.08,3.29a5.79,5.79,0,0,0-2.08,3.7.07.07,0,0,1,0,0,5.79,5.79,0,0,0,1.22,4.38l1,1.19a2.09,2.09,0,0,0,2.92.31l.62-.5.16-.12,8.9-7.18a2.09,2.09,0,0,0,.32-2.92Z"/><path class="cls-10" d="M351.88,227.43l-.51-.64-.58-.71a5.57,5.57,0,0,0-7.83-.84l-4.08,3.28a5.79,5.79,0,0,0-1.85,6.29,5.56,5.56,0,0,0,1,1.84l1,1.19a2.09,2.09,0,0,0,2.92.32l9.68-7.81A2.08,2.08,0,0,0,351.88,227.43Z"/><path class="cls-10" d="M299.47,160.89l4.42-2.82a6.93,6.93,0,0,0,.84-.65,8,8,0,0,0-.8-2.16l-6-11.15-.05-.11-.19.12-9.27,5.9a2.07,2.07,0,0,0-.64,2.86l4,6.3A5.6,5.6,0,0,0,299.47,160.89Z"/><g class="cls-11"><path class="cls-12" d="M510.31,326.77H0V0H510.31ZM3,323.77H507.31V3H3Z"/></g></g></g></svg>