<svg xmlns="http://www.w3.org/2000/svg" xmlns:xlink="http://www.w3.org/1999/xlink" viewBox="0 0 533.86 537.27"><defs><style>.cls-1{fill:none;}.cls-2{fill:#ceeaa4;}.cls-3{clip-path:url(#clip-path);}.cls-4{fill:#fff;}.cls-5{fill:#feffff;}.cls-6{fill:#fdffff;}.cls-7{fill:#fcffff;}.cls-8{fill:#fafeff;}.cls-9{fill:#f9feff;}.cls-10{fill:#f8feff;}.cls-11{fill:#f7feff;}.cls-12{fill:#f6feff;}.cls-13{fill:#f5feff;}.cls-14{fill:#f4feff;}.cls-15{fill:#f2feff;}.cls-16{fill:#f1fdff;}.cls-17{fill:#f0fdff;}.cls-18{fill:#effdff;}.cls-19{fill:#eefdff;}.cls-20{fill:#edfdff;}.cls-21{fill:#ecfdff;}.cls-22{fill:#eafdff;}.cls-23{fill:#e9fdff;}.cls-24{fill:#e8fcff;}.cls-25{fill:#e7fcff;}.cls-26{fill:#e6fcff;}.cls-27{fill:#e5fcff;}.cls-28{fill:#e4fcff;}.cls-29{fill:#e3fcff;}.cls-30{fill:#e1fcff;}.cls-31{fill:#e0fcff;}.cls-32{fill:#dffbff;}.cls-33{fill:#defbff;}.cls-34{fill:#ddfbff;}.cls-35{fill:#dcfbff;}.cls-36{fill:#dbfbff;}.cls-37{fill:#dafbff;}.cls-38{fill:#d9fbff;}.cls-39{fill:#d7fbff;}.cls-40{fill:#d6faff;}.cls-41{fill:#d5faff;}.cls-42{fill:#d4faff;}.cls-43{fill:#d3faff;}.cls-44{fill:#d2faff;}.cls-45{fill:#d1faff;}.cls-46{fill:#d0faff;}.cls-47{fill:#cffaff;}.cls-48{fill:#cefaff;}.cls-49{fill:#cdf9ff;}.cls-50{fill:#cbf9ff;}.cls-51{fill:#caf9ff;}.cls-52{fill:#c9f9ff;}.cls-53{fill:#c8f9ff;}.cls-54{fill:#c7f9ff;}.cls-55{fill:#c6f9ff;}.cls-56{fill:#c5f9ff;}.cls-57{fill:#c4f8ff;}.cls-58{fill:#c3f8ff;}.cls-59{fill:#c2f8ff;}.cls-60{fill:#c1f8ff;}.cls-61{fill:#c0f8ff;}.cls-62{fill:#bff8ff;}.cls-63{fill:#bef8ff;}.cls-64{fill:#bdf8ff;}.cls-65{fill:#bcf8ff;}.cls-66{fill:#baf7ff;}.cls-67{fill:#b9f7ff;}.cls-68{fill:#b8f7ff;}.cls-69{fill:#b7f7ff;}.cls-70{fill:#b6f7ff;}.cls-71{fill:#b5f7ff;}.cls-72{fill:#b4f7ff;}.cls-73{fill:#b3f7ff;}.cls-74{fill:#b2f6ff;}.cls-75{fill:#b1f6ff;}.cls-76{fill:#b0f6ff;}.cls-77{fill:#aff6ff;}.cls-78{fill:#aef6ff;}.cls-79{fill:#adf6ff;}.cls-80{fill:#acf6ff;}.cls-81{fill:#abf6ff;}.cls-82{fill:#aaf6ff;}.cls-83{fill:#a9f5ff;}.cls-84{fill:#a8f5ff;}.cls-85{fill:#a7f5ff;}.cls-86{fill:#a6f5ff;}.cls-87{fill:#a5f5ff;}.cls-88{fill:#a4f5ff;}.cls-89{fill:#a3f5ff;}.cls-90{fill:#a2f5ff;}.cls-91{fill:#a1f5ff;}.cls-92{fill:#a0f4ff;}.cls-93{fill:#9ff4ff;}.cls-94{fill:#9ef4ff;}.cls-95{fill:#9df4ff;}.cls-96{fill:#9cf4ff;}.cls-97{fill:#9bf4ff;}.cls-98{fill:#9af4ff;}.cls-99{fill:#99f4ff;}.cls-100{fill:#98f4ff;}.cls-101{fill:#97f3ff;}.cls-102{fill:#96f3ff;}.cls-103{fill:#95f3ff;}.cls-104{fill:#94f3ff;}.cls-105{fill:#93f3ff;}.cls-106{fill:#92f3ff;}.cls-107{fill:#91f3ff;}.cls-108{fill:#90f3ff;}.cls-109{fill:#8ff3ff;}.cls-110{fill:#8ef2ff;}.cls-111{fill:#8df2ff;}.cls-112{fill:#8cf2ff;}.cls-113{fill:#8bf2ff;}.cls-114{fill:#8af2ff;}.cls-115{fill:#89f2ff;}.cls-116{fill:#88f2ff;}.cls-117{fill:#87f2ff;}.cls-118{fill:#86f2ff;}.cls-119{fill:#85f1ff;}.cls-120{fill:#84f1ff;}.cls-121{fill:#83f1ff;}.cls-122{fill:#82f1ff;}.cls-123{fill:#81f1ff;}.cls-124{fill:#663e3e;}.cls-125{clip-path:url(#clip-path-2);}.cls-126{fill:#f8d977;}.cls-127{fill:#f8d877;}.cls-128{fill:#f7d777;}.cls-129{fill:#f7d776;}.cls-130{fill:#f6d776;}.cls-131{fill:#f6d676;}.cls-132{fill:#f5d676;}.cls-133{fill:#f4d575;}.cls-134{fill:#f3d475;}.cls-135{fill:#f3d374;}.cls-136{fill:#f2d374;}.cls-137{fill:#f1d274;}.cls-138{fill:#f1d273;}.cls-139{fill:#f0d173;}.cls-140{fill:#efd073;}.cls-141{fill:#eecf72;}.cls-142{fill:#edcf72;}.cls-143{fill:#ecce71;}.cls-144{fill:#ebcd71;}.cls-145{fill:#eacc70;}.cls-146{fill:#e9cb70;}.cls-147{fill:#e8ca6f;}.cls-148{fill:#e7c96e;}.cls-149{fill:#e6c86e;}.cls-150{fill:#e4c76d;}.cls-151{fill:#e3c66d;}.cls-152{fill:#e2c46c;}.cls-153{fill:#e0c36b;}.cls-154{fill:#dfc26b;}.cls-155{fill:#ddc06a;}.cls-156{fill:#dcbf69;}.cls-157{fill:#dabe68;}.cls-158{fill:#d8bc67;}.cls-159{fill:#d7bb67;}.cls-160{fill:#d5b966;}.cls-161{fill:#d3b765;}.cls-162{fill:#d1b664;}.cls-163{fill:#cfb463;}.cls-164{fill:#cdb262;}.cls-165{fill:#cbb061;}.cls-166{fill:#c9ae60;}.cls-167{fill:#c7ac5f;}.cls-168{fill:#c4aa5e;}.cls-169{fill:#c2a85c;}.cls-170{fill:#c0a65b;}.cls-171{fill:#bda45a;}.cls-172{fill:#bba259;}.cls-173{fill:#b8a058;}.cls-174{fill:#b69d56;}.cls-175{fill:#b39b55;}.cls-176{fill:#b2d87c;}.cls-177{fill:#93b260;}.cls-178{fill:#af6969;}.cls-179{fill:#bc7d53;}.cls-180{fill:#8e5b3f;}.cls-181{fill:#663c2c;}.cls-182{fill:#dd97ba;}.cls-183{fill:#f4f4f4;}.cls-184{fill:#f4cbe0;}.cls-185{fill:#a82654;}.cls-186{fill:#7c6642;}.cls-187{fill:#e55c76;}.cls-188{fill:#fdfffd;}.cls-189{fill:#edb8f2;}.cls-190{fill:#606060;}.cls-191{fill:#f7f7f7;}.cls-192{opacity:0.5;}.cls-193{fill:#818981;}.cls-194{fill:#b2b9d3;}.cls-195{fill:#efefef;}.cls-196{fill:#d3b771;}.cls-197{clip-path:url(#clip-path-3);}.cls-198{fill:#d3b872;}.cls-199{fill:#d4b873;}.cls-200{fill:#d4b974;}.cls-201{fill:#d4b975;}.cls-202{fill:#d4b976;}.cls-203{fill:#d5ba76;}.cls-204{fill:#d5ba77;}.cls-205{fill:#d5ba78;}.cls-206{fill:#d5bb79;}.cls-207{fill:#d6bb79;}.cls-208{fill:#d6bc7a;}.cls-209{fill:#d6bc7b;}.cls-210{fill:#d6bd7c;}.cls-211{fill:#d7bd7d;}.cls-212{fill:#d7bd7e;}.cls-213{fill:#d7be7e;}.cls-214{fill:#d7be7f;}.cls-215{fill:#d8bf80;}.cls-216{fill:#d8bf81;}.cls-217{fill:#d8c082;}.cls-218{fill:#d9c083;}.cls-219{fill:#d9c084;}.cls-220{fill:#d9c185;}.cls-221{fill:#dac286;}.cls-222{fill:#dac287;}.cls-223{fill:#dac388;}.cls-224{fill:#dac389;}.cls-225{fill:#dbc48a;}.cls-226{fill:#dbc48b;}.cls-227{fill:#dbc58c;}.cls-228{fill:#dcc58d;}.cls-229{fill:#dcc68e;}.cls-230{fill:#dcc68f;}.cls-231{fill:#dcc790;}.cls-232{fill:#ddc791;}.cls-233{fill:#ddc892;}.cls-234{fill:#ddc893;}.cls-235{fill:#dec893;}.cls-236{fill:#dec994;}.cls-237{fill:#dec995;}.cls-238{fill:#dfca96;}.cls-239{fill:#dfca97;}.cls-240{fill:#dfcb98;}.cls-241{fill:#dfcb99;}.cls-242{fill:#e0cc9a;}.cls-243{fill:#e0cc9b;}.cls-244{fill:#e0cd9c;}.cls-245{fill:#e1cd9d;}.cls-246{fill:#e1ce9e;}.cls-247{fill:#e1ce9f;}.cls-248{fill:#e2cfa0;}.cls-249{fill:#e2cfa1;}.cls-250{fill:#e2d0a2;}.cls-251{fill:#e3d1a3;}.cls-252{fill:#e3d1a4;}.cls-253{fill:#e3d2a5;}.cls-254{fill:#e4d2a6;}.cls-255{fill:#e4d3a7;}.cls-256{fill:#e4d3a8;}.cls-257{fill:#e4d4a9;}.cls-258{fill:#e5d4aa;}.cls-259{fill:#e5d5ab;}.cls-260{fill:#e5d5ac;}.cls-261{fill:#e6d6ae;}.cls-262{fill:#e6d6af;}.cls-263{fill:#e6d7b0;}.cls-264{fill:#e7d7b1;}.cls-265{fill:#e7d8b2;}.cls-266{fill:#e7d8b3;}.cls-267{fill:#e8d9b4;}.cls-268{fill:#e8d9b5;}.cls-269{fill:#e8dab6;}.cls-270{fill:#e9dab7;}.cls-271{fill:#e9dbb8;}.cls-272{fill:#e9dcb9;}.cls-273{fill:#eadcba;}.cls-274{fill:#eaddbb;}.cls-275{fill:#eaddbc;}.cls-276{fill:#ebdebd;}.cls-277{fill:#ebdebe;}.cls-278{fill:#ebdfbf;}.cls-279{fill:#ecdfc1;}.cls-280{fill:#ece0c2;}.cls-281{fill:#ece0c3;}.cls-282{fill:#ede1c4;}.cls-283{fill:#ede1c5;}.cls-284{fill:#ede2c6;}.cls-285{fill:#eee3c7;}.cls-286{fill:#eee3c8;}.cls-287{fill:#eee4c9;}.cls-288{fill:#efe4ca;}.cls-289{fill:#efe5cb;}.cls-290{fill:#efe5cc;}.cls-291{fill:#f0e6cd;}.cls-292{fill:#f0e6cf;}.cls-293{fill:#f0e7d0;}.cls-294{fill:#f1e8d1;}.cls-295{fill:#f1e8d2;}.cls-296{fill:#f1e9d3;}.cls-297{fill:#f2e9d4;}.cls-298{fill:#f2ead5;}.cls-299{fill:#f2ead6;}.cls-300{fill:#f3ebd7;}.cls-301{fill:#f3ebd9;}.cls-302{fill:#f3ecda;}.cls-303{fill:#f4eddb;}.cls-304{fill:#f4eddc;}.cls-305{fill:#f4eedd;}.cls-306{fill:#f5eede;}.cls-307{fill:#f5efdf;}.cls-308{fill:#f5efe0;}.cls-309{fill:#f6f0e1;}.cls-310{fill:#f6f1e3;}.cls-311{fill:#f7f1e4;}.cls-312{fill:#f7f2e5;}.cls-313{fill:#f7f2e6;}.cls-314{fill:#f8f3e7;}.cls-315{fill:#f8f3e8;}.cls-316{fill:#f8f4e9;}.cls-317{fill:#f9f5ea;}.cls-318{fill:#f9f5ec;}.cls-319{fill:#f9f6ed;}.cls-320{fill:#faf6ee;}.cls-321{fill:#faf7ef;}.cls-322{fill:#faf7f0;}.cls-323{fill:#fbf8f1;}.cls-324{fill:#fbf9f2;}.cls-325{fill:#fbf9f4;}.cls-326{fill:#fcfaf5;}.cls-327{fill:#fcfaf6;}.cls-328{fill:#fdfbf7;}.cls-329{fill:#fdfbf8;}.cls-330{fill:#fdfcf9;}.cls-331{fill:#fefdfa;}.cls-332{fill:#fefdfc;}.cls-333{fill:#fefefd;}.cls-334{fill:#fffefe;}.cls-335{clip-path:url(#clip-path-4);}.cls-336{fill:#b0d38c;}.cls-337{fill:#bf8f64;}.cls-338{fill:#9aba74;}.cls-339{fill:#9b8c65;}.cls-340{fill:#77694b;}.cls-341{opacity:0.8;}.cls-342{fill:#fada99;}</style><clipPath id="clip-path"><rect class="cls-1" x="1.04" y="1.24" width="532.14" height="377.71"/></clipPath><clipPath id="clip-path-2"><path class="cls-1" d="M31,533.37s68.21-42.22,138.77-55.7c35.09-6.7,161.26-9.45,173.45-28.14s62-45.32,84.91-45.32S484.33,379,484.33,379H505s-3.12,38.37-20.62,48-82.94,19.1-89.6,64.73-147,28.65-170.42,33.56c-27.09,5.68-8.16,8.16-8.16,8.16Z"/></clipPath><clipPath id="clip-path-3"><circle class="cls-1" cx="471.07" cy="73.09" r="29.28"/></clipPath><clipPath id="clip-path-4"><circle class="cls-1" cx="56.21" cy="73.09" r="29.28"/></clipPath></defs><title>1-534px</title><g id="Camada_2" data-name="Camada 2"><g id="Camada_1-2" data-name="Camada 1"><rect class="cls-2" x="1.04" y="378.95" width="532.14" height="154.42"/><g class="cls-3"><rect class="cls-4" x="1.04" y="312.96" width="532.14" height="65.99"/><rect class="cls-4" x="1.04" y="311.11" width="532.14" height="1.85"/><rect class="cls-5" x="1.04" y="309.27" width="532.14" height="1.85"/><rect class="cls-6" x="1.04" y="307.42" width="532.14" height="1.85"/><rect class="cls-7" x="1.04" y="305.58" width="532.14" height="1.85"/><rect class="cls-8" x="1.04" y="303.73" width="532.14" height="1.85"/><rect class="cls-9" x="1.04" y="301.89" width="532.14" height="1.85"/><rect class="cls-10" x="1.04" y="300.04" width="532.14" height="1.85"/><rect class="cls-11" x="1.04" y="298.2" width="532.14" height="1.85"/><rect class="cls-12" x="1.04" y="296.35" width="532.14" height="1.85"/><rect class="cls-13" x="1.04" y="294.51" width="532.14" height="1.85"/><rect class="cls-14" x="1.04" y="292.66" width="532.14" height="1.85"/><rect class="cls-15" x="1.04" y="290.82" width="532.14" height="1.85"/><rect class="cls-16" x="1.04" y="288.97" width="532.14" height="1.85"/><rect class="cls-17" x="1.04" y="287.13" width="532.14" height="1.85"/><rect class="cls-18" x="1.04" y="285.28" width="532.14" height="1.85"/><rect class="cls-19" x="1.04" y="283.44" width="532.14" height="1.85"/><rect class="cls-20" x="1.04" y="281.59" width="532.14" height="1.85"/><rect class="cls-21" x="1.04" y="279.75" width="532.14" height="1.85"/><rect class="cls-22" x="1.04" y="277.9" width="532.14" height="1.85"/><rect class="cls-23" x="1.04" y="276.05" width="532.14" height="1.85"/><rect class="cls-24" x="1.04" y="274.21" width="532.14" height="1.85"/><rect class="cls-25" x="1.04" y="272.36" width="532.14" height="1.85"/><rect class="cls-26" x="1.04" y="270.52" width="532.14" height="1.85"/><rect class="cls-27" x="1.04" y="268.67" width="532.14" height="1.85"/><rect class="cls-28" x="1.04" y="266.83" width="532.14" height="1.85"/><rect class="cls-29" x="1.04" y="264.98" width="532.14" height="1.85"/><rect class="cls-30" x="1.04" y="263.14" width="532.14" height="1.85"/><rect class="cls-31" x="1.04" y="261.29" width="532.14" height="1.85"/><rect class="cls-32" x="1.04" y="259.45" width="532.14" height="1.85"/><rect class="cls-33" x="1.04" y="257.6" width="532.14" height="1.85"/><rect class="cls-34" x="1.04" y="255.76" width="532.14" height="1.85"/><rect class="cls-35" x="1.04" y="253.91" width="532.14" height="1.85"/><rect class="cls-36" x="1.04" y="252.07" width="532.14" height="1.85"/><rect class="cls-37" x="1.04" y="250.22" width="532.14" height="1.85"/><rect class="cls-38" x="1.04" y="248.38" width="532.14" height="1.85"/><rect class="cls-39" x="1.04" y="246.53" width="532.14" height="1.85"/><rect class="cls-40" x="1.04" y="244.69" width="532.14" height="1.85"/><rect class="cls-41" x="1.04" y="242.84" width="532.14" height="1.85"/><rect class="cls-42" x="1.04" y="240.99" width="532.14" height="1.85"/><rect class="cls-43" x="1.04" y="239.15" width="532.14" height="1.85"/><rect class="cls-44" x="1.04" y="237.3" width="532.14" height="1.85"/><rect class="cls-45" x="1.04" y="235.46" width="532.14" height="1.85"/><rect class="cls-46" x="1.04" y="233.61" width="532.14" height="1.85"/><rect class="cls-47" x="1.04" y="231.77" width="532.14" height="1.85"/><rect class="cls-48" x="1.04" y="229.92" width="532.14" height="1.85"/><rect class="cls-49" x="1.04" y="228.08" width="532.14" height="1.85"/><rect class="cls-50" x="1.04" y="226.23" width="532.14" height="1.85"/><rect class="cls-51" x="1.04" y="224.39" width="532.14" height="1.85"/><rect class="cls-52" x="1.04" y="222.54" width="532.14" height="1.85"/><rect class="cls-53" x="1.04" y="220.7" width="532.14" height="1.85"/><rect class="cls-54" x="1.04" y="218.85" width="532.14" height="1.85"/><rect class="cls-55" x="1.04" y="217.01" width="532.14" height="1.85"/><rect class="cls-56" x="1.04" y="215.16" width="532.14" height="1.85"/><rect class="cls-57" x="1.04" y="213.32" width="532.14" height="1.85"/><rect class="cls-58" x="1.04" y="211.47" width="532.14" height="1.85"/><rect class="cls-59" x="1.04" y="209.63" width="532.14" height="1.85"/><rect class="cls-60" x="1.04" y="207.78" width="532.14" height="1.85"/><rect class="cls-61" x="1.04" y="205.93" width="532.14" height="1.85"/><rect class="cls-62" x="1.04" y="204.09" width="532.14" height="1.85"/><rect class="cls-63" x="1.04" y="202.24" width="532.14" height="1.85"/><rect class="cls-64" x="1.04" y="200.4" width="532.14" height="1.85"/><rect class="cls-65" x="1.04" y="198.55" width="532.14" height="1.85"/><rect class="cls-66" x="1.04" y="196.71" width="532.14" height="1.85"/><rect class="cls-67" x="1.04" y="194.86" width="532.14" height="1.85"/><rect class="cls-68" x="1.04" y="193.02" width="532.14" height="1.85"/><rect class="cls-69" x="1.04" y="191.17" width="532.14" height="1.85"/><rect class="cls-70" x="1.04" y="189.33" width="532.14" height="1.85"/><rect class="cls-71" x="1.04" y="187.48" width="532.14" height="1.85"/><rect class="cls-72" x="1.04" y="185.64" width="532.14" height="1.85"/><rect class="cls-73" x="1.04" y="183.79" width="532.14" height="1.85"/><rect class="cls-74" x="1.04" y="181.95" width="532.14" height="1.85"/><rect class="cls-75" x="1.04" y="180.1" width="532.14" height="1.85"/><rect class="cls-76" x="1.04" y="178.26" width="532.14" height="1.85"/><rect class="cls-77" x="1.04" y="176.41" width="532.14" height="1.85"/><rect class="cls-78" x="1.04" y="174.57" width="532.14" height="1.85"/><rect class="cls-79" x="1.04" y="172.72" width="532.14" height="1.85"/><rect class="cls-80" x="1.04" y="170.87" width="532.14" height="1.85"/><rect class="cls-81" x="1.04" y="169.03" width="532.14" height="1.85"/><rect class="cls-82" x="1.04" y="167.18" width="532.14" height="1.85"/><rect class="cls-83" x="1.04" y="165.34" width="532.14" height="1.85"/><rect class="cls-84" x="1.04" y="163.49" width="532.14" height="1.85"/><rect class="cls-85" x="1.04" y="161.65" width="532.14" height="1.85"/><rect class="cls-86" x="1.04" y="159.8" width="532.14" height="1.85"/><rect class="cls-87" x="1.04" y="157.96" width="532.14" height="1.85"/><rect class="cls-88" x="1.04" y="156.11" width="532.14" height="1.85"/><rect class="cls-89" x="1.04" y="154.27" width="532.14" height="1.85"/><rect class="cls-90" x="1.04" y="152.42" width="532.14" height="1.85"/><rect class="cls-91" x="1.04" y="150.58" width="532.14" height="1.85"/><rect class="cls-92" x="1.04" y="148.73" width="532.14" height="1.85"/><rect class="cls-93" x="1.04" y="146.89" width="532.14" height="1.85"/><rect class="cls-94" x="1.04" y="145.04" width="532.14" height="1.85"/><rect class="cls-95" x="1.04" y="143.2" width="532.14" height="1.85"/><rect class="cls-96" x="1.04" y="141.35" width="532.14" height="1.85"/><rect class="cls-97" x="1.04" y="139.51" width="532.14" height="1.85"/><rect class="cls-98" x="1.04" y="137.66" width="532.14" height="1.85"/><rect class="cls-98" x="1.04" y="135.81" width="532.14" height="1.85"/><rect class="cls-99" x="1.04" y="133.97" width="532.14" height="1.85"/><rect class="cls-100" x="1.04" y="132.12" width="532.14" height="1.85"/><rect class="cls-101" x="1.04" y="130.28" width="532.14" height="1.85"/><rect class="cls-102" x="1.04" y="128.43" width="532.14" height="1.85"/><rect class="cls-103" x="1.04" y="126.59" width="532.14" height="1.85"/><rect class="cls-104" x="1.04" y="124.74" width="532.14" height="1.85"/><rect class="cls-105" x="1.04" y="122.9" width="532.14" height="1.85"/><rect class="cls-106" x="1.04" y="121.05" width="532.14" height="1.85"/><rect class="cls-107" x="1.04" y="119.21" width="532.14" height="1.85"/><rect class="cls-108" x="1.04" y="117.36" width="532.14" height="1.85"/><rect class="cls-108" x="1.04" y="115.52" width="532.14" height="1.85"/><rect class="cls-109" x="1.04" y="113.67" width="532.14" height="1.85"/><rect class="cls-110" x="1.04" y="111.83" width="532.14" height="1.85"/><rect class="cls-111" x="1.04" y="109.98" width="532.14" height="1.85"/><rect class="cls-112" x="1.04" y="108.14" width="532.14" height="1.85"/><rect class="cls-113" x="1.04" y="106.29" width="532.14" height="1.85"/><rect class="cls-114" x="1.04" y="104.45" width="532.14" height="1.85"/><rect class="cls-114" x="1.04" y="102.6" width="532.14" height="1.85"/><rect class="cls-115" x="1.04" y="100.75" width="532.14" height="1.85"/><rect class="cls-116" x="1.04" y="98.91" width="532.14" height="1.85"/><rect class="cls-117" x="1.04" y="97.06" width="532.14" height="1.85"/><rect class="cls-118" x="1.04" y="95.22" width="532.14" height="1.85"/><rect class="cls-118" x="1.04" y="93.37" width="532.14" height="1.85"/><rect class="cls-119" x="1.04" y="91.53" width="532.14" height="1.85"/><rect class="cls-120" x="1.04" y="89.68" width="532.14" height="1.85"/><rect class="cls-121" x="1.04" y="87.84" width="532.14" height="1.85"/><rect class="cls-121" x="1.04" y="85.99" width="532.14" height="1.85"/><rect class="cls-122" x="1.04" y="84.15" width="532.14" height="1.85"/><rect class="cls-123" x="1.04" y="82.3" width="532.14" height="1.85"/><rect class="cls-123" x="1.04" y="80.46" width="532.14" height="1.85"/><rect class="cls-123" x="1.04" y="1.24" width="532.14" height="79.22"/></g><path class="cls-4" d="M371.38,232.17c-4-6.93-13.68-9.84-20.79-6.21s-10.47,13.19-7.19,20.46c-4.34,1-8.86,2.14-12.23,5.06s-5.12,8.22-2.66,11.93,7.27,4.18,11.54,4.44l69.52,4.25c-4.52-.1-8.09,5.47-6.11,9.54s7.58,5,12.25,5.27q21.35,1.05,42.73.68c8.15-.14,18.07-1.63,21-9.23.55-1.42.84-3,1.94-4.1a6.76,6.76,0,0,1,4.22-1.42c8.13-.7,16.31.3,24.47,0,4.38-.17,8.89-.76,12.67-3s6.65-6.46,6.16-10.82-5.18-8.1-9.32-6.65c6.78-6.48,6.87-18.66.17-25.23s-18.86-6.27-25.21.63A26.56,26.56,0,0,0,471,218.62c6.77-11.66.19-28.8-12.64-32.94a38.84,38.84,0,0,0-11.31-1.48c-6.37-.11-13.13.35-18.33,4-8.79,6.18-9.77,18.92-7.65,29.45a17.88,17.88,0,0,0-25.6,18.1c-7.36-3.92-16.13-7.91-23.67-4.35"/><path class="cls-124" d="M145.27,319.54s-3.75-37.87,1.13-41.06,19.95-3,21.29-6.21-2.93-1.37-3.82-11.59,4.32-20.69,15.64-18.56,9.73,21.28,5.83,25.18-2.3,5.51-1.6,6.22,9.63-1.35,11.73,2.34,4.76,37.86,4.76,39.75"/><g class="cls-125"><polygon class="cls-126" points="31.04 535.2 183.31 537.27 31.04 537.27 31.04 535.2"/><polygon class="cls-127" points="31.04 532.27 397.83 537.27 183.31 537.27 31.04 535.2 31.04 532.27"/><polygon class="cls-127" points="31.04 529.34 504.81 535.81 504.79 537.27 397.83 537.27 31.04 532.27 31.04 529.34"/><polygon class="cls-127" points="31.04 526.41 504.85 532.88 504.81 535.81 31.04 529.34 31.04 526.41"/><polygon class="cls-128" points="31.04 523.48 504.89 529.95 504.85 532.88 31.04 526.41 31.04 523.48"/><polygon class="cls-129" points="31.04 520.55 504.93 527.02 504.89 529.95 31.04 523.48 31.04 520.55"/><polygon class="cls-130" points="31.04 517.62 504.95 524.09 504.95 525.46 504.93 527.02 31.04 520.55 31.04 517.62"/><polygon class="cls-131" points="31.04 514.7 504.95 521.16 504.95 524.09 31.04 517.62 31.04 514.7"/><polygon class="cls-132" points="31.04 511.77 504.95 518.24 504.95 521.16 31.04 514.7 31.04 511.77"/><polygon class="cls-132" points="31.04 508.84 504.95 515.31 504.95 518.24 31.04 511.77 31.04 508.84"/><polygon class="cls-133" points="31.04 505.91 504.95 512.38 504.95 515.31 31.04 508.84 31.04 505.91"/><polygon class="cls-133" points="31.04 502.98 504.95 509.45 504.95 512.38 31.04 505.91 31.04 502.98"/><polygon class="cls-134" points="31.04 500.05 504.95 506.52 504.95 509.45 31.04 502.98 31.04 500.05"/><polygon class="cls-135" points="31.04 497.12 504.95 503.59 504.95 506.52 31.04 500.05 31.04 497.12"/><polygon class="cls-136" points="31.04 494.19 504.95 500.67 504.95 503.59 31.04 497.12 31.04 494.19"/><polygon class="cls-137" points="31.04 491.27 504.95 497.74 504.95 500.67 31.04 494.19 31.04 491.27"/><polygon class="cls-138" points="31.04 488.34 504.95 494.81 504.95 497.74 31.04 491.27 31.04 488.34"/><polygon class="cls-139" points="31.04 485.41 504.95 491.88 504.95 494.81 31.04 488.34 31.04 485.41"/><polygon class="cls-140" points="31.04 482.48 504.95 488.95 504.95 491.88 31.04 485.41 31.04 482.48"/><polygon class="cls-141" points="31.04 479.55 504.95 486.02 504.95 488.95 31.04 482.48 31.04 479.55"/><polygon class="cls-142" points="31.04 476.62 504.95 483.09 504.95 486.02 31.04 479.55 31.04 476.62"/><polygon class="cls-143" points="31.04 473.69 504.95 480.17 504.95 483.09 31.04 476.62 31.04 473.69"/><polygon class="cls-144" points="31.04 470.77 504.95 477.24 504.95 480.17 31.04 473.69 31.04 470.77"/><polygon class="cls-145" points="31.04 467.84 504.95 474.31 504.95 477.24 31.04 470.77 31.04 467.84"/><polygon class="cls-146" points="31.04 464.91 504.95 471.38 504.95 474.31 31.04 467.84 31.04 464.91"/><polygon class="cls-147" points="31.04 461.98 504.95 468.45 504.95 471.38 31.04 464.91 31.04 461.98"/><polygon class="cls-148" points="31.04 459.05 504.95 465.52 504.95 468.45 31.04 461.98 31.04 459.05"/><polygon class="cls-149" points="31.04 456.12 504.95 462.59 504.95 465.52 31.04 459.05 31.04 456.12"/><polygon class="cls-150" points="31.04 453.19 504.95 459.67 504.95 462.59 31.04 456.12 31.04 453.19"/><polygon class="cls-151" points="31.04 450.27 504.95 456.74 504.95 459.67 31.04 453.19 31.04 450.27"/><polygon class="cls-152" points="31.04 447.34 504.95 453.81 504.95 456.74 31.04 450.27 31.04 447.34"/><polygon class="cls-153" points="31.04 444.41 504.95 450.88 504.95 453.81 31.04 447.34 31.04 444.41"/><polygon class="cls-154" points="31.04 441.48 504.95 447.95 504.95 450.88 31.04 444.41 31.04 441.48"/><polygon class="cls-155" points="31.04 438.55 504.95 445.02 504.95 447.95 31.04 441.48 31.04 438.55"/><polygon class="cls-156" points="31.04 435.62 504.95 442.09 504.95 445.02 31.04 438.55 31.04 435.62"/><polygon class="cls-157" points="31.04 432.7 504.95 439.17 504.95 442.09 31.04 435.62 31.04 432.7"/><polygon class="cls-158" points="31.04 429.77 504.95 436.24 504.95 439.17 31.04 432.7 31.04 429.77"/><polygon class="cls-159" points="31.04 426.84 504.95 433.31 504.95 436.24 31.04 429.77 31.04 426.84"/><polygon class="cls-160" points="31.04 423.91 504.95 430.38 504.95 433.31 31.04 426.84 31.04 423.91"/><polygon class="cls-161" points="31.04 420.98 504.95 427.45 504.95 430.38 31.04 423.91 31.04 420.98"/><polygon class="cls-162" points="31.04 418.05 504.95 424.52 504.95 427.45 31.04 420.98 31.04 418.05"/><polygon class="cls-163" points="31.04 415.12 504.95 421.59 504.95 424.52 31.04 418.05 31.04 415.12"/><polygon class="cls-164" points="31.04 412.2 504.95 418.67 504.95 421.59 31.04 415.12 31.04 412.2"/><polygon class="cls-165" points="31.04 409.27 504.95 415.74 504.95 418.67 31.04 412.2 31.04 409.27"/><polygon class="cls-166" points="31.04 406.34 504.95 412.81 504.95 415.74 31.04 409.27 31.04 406.34"/><polygon class="cls-167" points="31.04 403.41 504.95 409.88 504.95 412.81 31.04 406.34 31.04 403.41"/><polygon class="cls-168" points="31.04 400.48 504.95 406.95 504.95 409.88 31.04 403.41 31.04 400.48"/><polygon class="cls-169" points="31.04 397.55 504.95 404.02 504.95 406.95 31.04 400.48 31.04 397.55"/><polygon class="cls-170" points="31.04 394.63 504.95 401.09 504.95 404.02 31.04 397.55 31.04 394.63"/><polygon class="cls-171" points="31.04 391.7 504.95 398.17 504.95 401.09 31.04 394.63 31.04 391.7"/><polygon class="cls-172" points="31.04 388.77 504.95 395.24 504.95 398.17 31.04 391.7 31.04 388.77"/><polygon class="cls-173" points="31.04 386.86 31.05 385.84 504.95 392.31 504.95 395.24 31.04 388.77 31.04 386.86"/><polygon class="cls-174" points="31.05 385.84 31.09 382.91 504.95 389.38 504.95 392.31 31.05 385.84"/><polygon class="cls-175" points="31.09 382.91 31.13 379.98 504.95 386.45 504.95 389.38 31.09 382.91"/><polygon class="cls-175" points="31.13 379.98 31.14 378.95 504.95 378.95 504.95 386.45 31.13 379.98"/></g><rect class="cls-176" x="331.63" y="313.81" width="99.51" height="78.03" transform="translate(762.76 705.64) rotate(180)"/><rect class="cls-176" x="425.21" y="210.44" width="5.93" height="103.37" transform="translate(856.34 524.25) rotate(180)"/><path class="cls-176" d="M309.6,164H453.17a0,0,0,0,1,0,0v25.75a23,23,0,0,1-23,23H332.62a23,23,0,0,1-23-23V164A0,0,0,0,1,309.6,164Z" transform="translate(762.76 376.86) rotate(180)"/><rect class="cls-176" x="309.6" y="205.78" width="143.57" height="1.82" transform="translate(762.76 413.37) rotate(180)"/><rect class="cls-176" x="309.6" y="199.41" width="143.57" height="1.82" transform="translate(762.76 400.63) rotate(180)"/><rect class="cls-176" x="331.63" y="326.22" width="99.51" height="3.03" transform="translate(762.76 655.48) rotate(180)"/><rect class="cls-176" x="331.63" y="339.19" width="99.51" height="3.03" transform="translate(762.76 681.42) rotate(180)"/><rect class="cls-176" x="331.63" y="352.17" width="99.51" height="3.03" transform="translate(762.76 707.37) rotate(180)"/><rect class="cls-176" x="331.63" y="365.14" width="99.51" height="3.03" transform="translate(762.76 733.31) rotate(180)"/><rect class="cls-176" x="331.63" y="378.11" width="99.51" height="3.03" transform="translate(762.76 759.25) rotate(180)"/><rect class="cls-176" x="331.63" y="210.44" width="5.93" height="103.37" transform="translate(669.18 524.25) rotate(180)"/><rect class="cls-176" x="378.42" y="262.12" width="5.93" height="51.68" transform="translate(762.76 575.93) rotate(180)"/><rect class="cls-176" x="331.63" y="262.12" width="52.72" height="5.12" transform="translate(715.97 529.37) rotate(180)"/><path class="cls-176" d="M351.6,297.69h12.77a6.27,6.27,0,0,0,6.2-5.29L372.69,279a1.57,1.57,0,0,0-1.55-1.82H344.83a1.57,1.57,0,0,0-1.55,1.82l2.12,13.42A6.28,6.28,0,0,0,351.6,297.69Z"/><rect class="cls-176" x="356.85" y="262.12" width="2.26" height="15.04" transform="translate(715.97 539.29) rotate(180)"/><path class="cls-176" d="M408.45,295.24a.83.83,0,0,1,.4-1.5.83.83,0,0,1,1.52-.41,3.44,3.44,0,0,1,1.07-2.1,1.84,1.84,0,0,1,2.23-.17,2,2,0,0,1,.68,1.45,5.69,5.69,0,0,1-.2,1.63,2,2,0,0,1,2.08-.85,1.28,1.28,0,0,1,1.31-1.28,1.29,1.29,0,0,1,1.11,1.47,1,1,0,1,1,1,1.53Z"/><polygon class="cls-176" points="408.15 313.81 419.88 313.81 420.67 294.92 407.36 294.92 408.15 313.81"/><path class="cls-176" d="M393.78,295.24a.83.83,0,0,1,.4-1.5.83.83,0,0,1,1.52-.41,3.44,3.44,0,0,1,1.07-2.1,1.84,1.84,0,0,1,2.23-.17,1.93,1.93,0,0,1,.68,1.45,5.69,5.69,0,0,1-.2,1.63,2,2,0,0,1,2.08-.85,1.22,1.22,0,1,1,2.42.19,1,1,0,1,1,1,1.53Z"/><polygon class="cls-176" points="393.36 313.81 405.1 313.81 405.88 294.92 392.57 294.92 393.36 313.81"/><rect class="cls-177" x="23.54" y="329.26" width="63.36" height="49.68" transform="translate(110.44 708.21) rotate(180)"/><rect class="cls-177" x="83.12" y="263.45" width="3.77" height="65.82" transform="translate(170.02 592.71) rotate(180)"/><path class="cls-177" d="M9.51,233.9h91.42a0,0,0,0,1,0,0v8a23,23,0,0,1-23,23H32.54a23,23,0,0,1-23-23v-8A0,0,0,0,1,9.51,233.9Z" transform="translate(110.44 498.86) rotate(180)"/><rect class="cls-177" x="9.51" y="260.48" width="91.42" height="1.16" transform="translate(110.44 522.11) rotate(180)"/><rect class="cls-177" x="9.51" y="256.42" width="91.42" height="1.16" transform="translate(110.44 514) rotate(180)"/><rect class="cls-177" x="23.54" y="337.17" width="63.36" height="1.93" transform="translate(110.44 676.27) rotate(180)"/><rect class="cls-177" x="23.54" y="345.43" width="63.36" height="1.93" transform="translate(110.44 692.79) rotate(180)"/><rect class="cls-177" x="23.54" y="353.69" width="63.36" height="1.93" transform="translate(110.44 709.31) rotate(180)"/><rect class="cls-177" x="23.54" y="361.95" width="63.36" height="1.93" transform="translate(110.44 725.83) rotate(180)"/><rect class="cls-177" x="23.54" y="370.21" width="63.36" height="1.93" transform="translate(110.44 742.34) rotate(180)"/><rect class="cls-177" x="23.54" y="263.45" width="3.77" height="65.82" transform="translate(50.85 592.71) rotate(180)"/><rect class="cls-177" x="53.33" y="296.35" width="3.77" height="32.91" transform="translate(110.44 625.62) rotate(180)"/><rect class="cls-177" x="23.54" y="296.35" width="33.57" height="3.26" transform="translate(80.64 595.97) rotate(180)"/><path class="cls-177" d="M36.26,319h8.13a4,4,0,0,0,3.94-3.37l1.36-8.54a1,1,0,0,0-1-1.16H32a1,1,0,0,0-1,1.16l1.35,8.54A4,4,0,0,0,36.26,319Z"/><rect class="cls-177" x="39.6" y="296.35" width="1.44" height="9.58" transform="translate(80.64 602.28) rotate(180)"/><path class="cls-177" d="M72.45,317.44a.55.55,0,0,1-.2-.56.57.57,0,0,1,.46-.4.52.52,0,0,1,.39-.47.54.54,0,0,1,.58.21,2.15,2.15,0,0,1,.68-1.34,1.19,1.19,0,0,1,1.42-.1,1.26,1.26,0,0,1,.43.92,3.34,3.34,0,0,1-.13,1,1.29,1.29,0,0,1,1.33-.54.8.8,0,0,1,.83-.81.82.82,0,0,1,.71.93.65.65,0,1,1,.66,1Z"/><polygon class="cls-177" points="72.26 329.26 79.73 329.26 80.23 317.24 71.76 317.24 72.26 329.26"/><path class="cls-177" d="M63.11,317.44a.55.55,0,0,1-.2-.56.57.57,0,0,1,.46-.4.52.52,0,0,1,.39-.47.54.54,0,0,1,.58.21,2.15,2.15,0,0,1,.68-1.34,1.19,1.19,0,0,1,1.42-.1,1.26,1.26,0,0,1,.43.92,3.34,3.34,0,0,1-.13,1,1.29,1.29,0,0,1,1.33-.54.8.8,0,0,1,.83-.81.82.82,0,0,1,.71.93.65.65,0,1,1,.66,1Z"/><polygon class="cls-177" points="62.85 329.26 70.32 329.26 70.82 317.24 62.34 317.24 62.85 329.26"/><polygon class="cls-178" points="84.65 433.63 247.97 433.63 267.75 314.14 84.65 314.14 84.65 433.63"/><path class="cls-179" d="M126.14,408.46a41.55,41.55,0,1,0,41.55-41.54A41.55,41.55,0,0,0,126.14,408.46Zm11.63-14.81,25.66,14.81-25.66,14.82a33.36,33.36,0,0,1,0-29.63Zm27.79-18.5v29.62L139.9,390A33.35,33.35,0,0,1,165.56,375.15ZM195.47,390l-25.66,14.81V375.15A33.35,33.35,0,0,1,195.47,390Zm5.6,18.5a33.22,33.22,0,0,1-3.47,14.82l-25.66-14.82,25.66-14.81A33.15,33.15,0,0,1,201.07,408.46Zm-31.26,33.31V412.15L195.47,427A33.32,33.32,0,0,1,169.81,441.77ZM139.9,427l25.66-14.81v29.62A33.32,33.32,0,0,1,139.9,427Z"/><path class="cls-180" d="M167.69,450.51a42,42,0,1,1,42-42.05A42.09,42.09,0,0,1,167.69,450.51Zm0-83.09a41,41,0,1,0,41,41A41.09,41.09,0,0,0,167.69,367.42Zm1.62,74.88v-31l26.87,15.52-.29.44a34.09,34.09,0,0,1-26,15Zm1-29.28v28.21a33.11,33.11,0,0,0,24.45-14.1Zm-4.25,29.28-.53,0a34.09,34.09,0,0,1-26.05-15l-.29-.44,26.87-15.52Zm-25.44-15.17a33.08,33.08,0,0,0,24.44,14.1V413ZM137.56,424l-.24-.47a33.89,33.89,0,0,1,0-30.08l.24-.47,26.87,15.51Zm.42-29.62a32.89,32.89,0,0,0,0,28.22l24.45-14.11ZM197.81,424l-26.87-15.51L197.81,393l.24.48a33.87,33.87,0,0,1,0,30.07Zm-24.87-15.51,24.45,14.11a32.89,32.89,0,0,0,0-28.22Zm-3.63-2.82v-31l.54,0a34.08,34.08,0,0,1,26,15l.29.45Zm1-29.95v28.22l24.45-14.11A33.09,33.09,0,0,0,170.31,375.69Zm-4.25,29.95-26.87-15.51.29-.45a34.05,34.05,0,0,1,26.05-15l.53,0ZM140.62,389.8l24.44,14.11V375.69A33.06,33.06,0,0,0,140.62,389.8Z"/><polygon class="cls-181" points="255.17 194.66 235.39 314.14 243.15 314.14 262.94 194.66 255.17 194.66"/><rect class="cls-181" x="84.65" y="194.66" width="8.33" height="119.48" transform="translate(177.63 508.8) rotate(180)"/><polygon class="cls-179" points="75.99 192.38 276.41 192.38 251.37 135.71 101.03 135.71 75.99 192.38"/><path class="cls-182" d="M277.18,192.88h-202l25.49-57.67h151Zm-200.42-1H275.64L251,136.21H101.36Z"/><polygon class="cls-179" points="247.78 192.38 276.41 192.38 251.37 135.71 229.89 135.71 247.78 192.38"/><path class="cls-182" d="M277.18,192.88H247.41l-18.2-57.67H251.7Zm-29-1h27.49L251,136.21H230.58Z"/><polygon class="cls-179" points="190.52 192.38 219.15 192.38 208.42 135.71 186.94 135.71 190.52 192.38"/><path class="cls-182" d="M219.75,192.88h-29.7l-3.64-57.67h22.42Zm-28.76-1h27.55L208,136.21H187.47Z"/><polygon class="cls-179" points="133.25 192.38 161.88 192.38 165.46 135.71 143.99 135.71 133.25 192.38"/><path class="cls-182" d="M162.35,192.88h-29.7l10.92-57.67H166Zm-28.49-1h27.56l3.51-55.67H144.4Z"/><polygon class="cls-179" points="75.99 192.38 104.62 192.38 122.51 135.71 101.03 135.71 75.99 192.38"/><path class="cls-182" d="M105,192.88H75.22l25.49-57.67h22.48Zm-28.23-1h27.5l17.57-55.67H101.36Z"/><path class="cls-183" d="M247.78,192.38H76v14.31a14.32,14.32,0,1,0,28.63,0,14.32,14.32,0,1,0,28.63,0,14.32,14.32,0,0,0,28.64,0,14.32,14.32,0,1,0,28.63,0,14.32,14.32,0,1,0,28.63,0,14.32,14.32,0,1,0,28.63,0,14.32,14.32,0,1,0,28.63,0V192.38Z"/><path class="cls-184" d="M262.1,221.51a14.85,14.85,0,0,1-14.32-11,14.82,14.82,0,0,1-28.63,0,14.82,14.82,0,0,1-28.63,0,14.82,14.82,0,0,1-28.63,0,14.82,14.82,0,0,1-28.64,0,14.82,14.82,0,0,1-28.63,0,14.82,14.82,0,0,1-29.13-3.83V191.88H276.91v14.81A14.84,14.84,0,0,1,262.1,221.51Zm-14.82-14.82h1a13.82,13.82,0,1,0,27.63,0V192.88H76.49v13.81a13.82,13.82,0,1,0,27.63,0h1a13.82,13.82,0,1,0,27.63,0h1a13.82,13.82,0,0,0,27.64,0h1a13.82,13.82,0,1,0,27.63,0h1a13.82,13.82,0,1,0,27.63,0h1a13.82,13.82,0,1,0,27.63,0Z"/><polygon class="cls-185" points="276.41 192.38 75.99 192.38 76.68 190.82 275.72 190.82 276.41 192.38"/><path class="cls-186" d="M174.28,314.14h0a1.27,1.27,0,0,0,1.27-1.27V296.61a1.27,1.27,0,0,0-1.27-1.27h0a1.27,1.27,0,0,0-1.27,1.27v16.26A1.27,1.27,0,0,0,174.28,314.14Z"/><path class="cls-187" d="M168.2,303.49h0a.82.82,0,0,1,.27-.61l.2-.17a.82.82,0,0,0,0-1.24c-5.27-4.25-5.65-12-.91-13.46,2.89-.91,5.4,2,6.57,2s3-3.14,6.56-2c4.61,1.49,4.36,9.21-.9,13.46a.81.81,0,0,0,0,1.24l.2.17a.82.82,0,0,1,.27.61h0a.76.76,0,0,1-.75.79H169A.77.77,0,0,1,168.2,303.49Z"/><path class="cls-188" d="M178.65,299.84a10.53,10.53,0,0,0,1.37-1.3,9.26,9.26,0,0,0,1.07-1.57,8.11,8.11,0,0,0,1-3.64,4.89,4.89,0,0,0-.33-1.89,2.52,2.52,0,0,0-1.32-1.4,3.06,3.06,0,0,0-.95-.22,2.41,2.41,0,0,0-1,.14,6.31,6.31,0,0,0-1.61,1l.08.12a9.54,9.54,0,0,1,1.78-.38,1.46,1.46,0,0,1,.65.11c.09.05.19.08.29.14l.15.08.11.08a1.53,1.53,0,0,1,.51.85,3.16,3.16,0,0,1,.12.64c0,.11,0,.22,0,.35a2.16,2.16,0,0,1,0,.36,10.44,10.44,0,0,1-.58,3.12,16.44,16.44,0,0,1-.65,1.61c-.24.55-.56,1.08-.86,1.69Z"/><path class="cls-186" d="M196.54,314.14h0a1.27,1.27,0,0,0,1.27-1.27V296.61a1.27,1.27,0,0,0-1.27-1.27h0a1.27,1.27,0,0,0-1.27,1.27v16.26A1.27,1.27,0,0,0,196.54,314.14Z"/><path class="cls-187" d="M190.46,303.49h0a.82.82,0,0,1,.27-.61l.2-.17a.82.82,0,0,0,0-1.24c-5.27-4.25-5.65-12-.91-13.46,2.89-.91,5.4,2,6.57,2s3-3.14,6.56-2c4.61,1.49,4.36,9.21-.9,13.46a.81.81,0,0,0,0,1.24l.2.17a.82.82,0,0,1,.27.61h0a.76.76,0,0,1-.75.79H191.21A.77.77,0,0,1,190.46,303.49Z"/><path class="cls-188" d="M200.91,299.84a10.53,10.53,0,0,0,1.37-1.3,9.26,9.26,0,0,0,1.07-1.57,8.11,8.11,0,0,0,1-3.64,4.89,4.89,0,0,0-.33-1.89,2.52,2.52,0,0,0-1.32-1.4,3.06,3.06,0,0,0-1-.22,2.41,2.41,0,0,0-1,.14,6.31,6.31,0,0,0-1.61,1l.08.12a9.54,9.54,0,0,1,1.78-.38,1.46,1.46,0,0,1,.65.11c.09.05.19.08.29.14l.15.08.11.08a1.53,1.53,0,0,1,.51.85,3.16,3.16,0,0,1,.12.64c0,.11,0,.22,0,.35a2.16,2.16,0,0,1,0,.36,10.44,10.44,0,0,1-.58,3.12,16.44,16.44,0,0,1-.65,1.61c-.24.55-.56,1.08-.86,1.69Z"/><path class="cls-186" d="M218.8,314.14h0a1.27,1.27,0,0,0,1.27-1.27V296.61a1.27,1.27,0,0,0-1.27-1.27h0a1.27,1.27,0,0,0-1.27,1.27v16.26A1.27,1.27,0,0,0,218.8,314.14Z"/><path class="cls-187" d="M212.72,303.49h0a.82.82,0,0,1,.27-.61l.2-.17a.82.82,0,0,0,0-1.24c-5.27-4.25-5.65-12-.91-13.46,2.89-.91,5.4,2,6.57,2s3-3.14,6.56-2c4.61,1.49,4.36,9.21-.9,13.46a.81.81,0,0,0,0,1.24l.2.17a.82.82,0,0,1,.27.61h0a.76.76,0,0,1-.75.79H213.47A.76.76,0,0,1,212.72,303.49Z"/><path class="cls-188" d="M223.17,299.84a10.53,10.53,0,0,0,1.37-1.3,9.26,9.26,0,0,0,1.07-1.57,8.11,8.11,0,0,0,1-3.64,4.89,4.89,0,0,0-.33-1.89A2.52,2.52,0,0,0,225,290a3.06,3.06,0,0,0-.95-.22,2.41,2.41,0,0,0-1,.14,6.31,6.31,0,0,0-1.61,1l.08.12a9.54,9.54,0,0,1,1.78-.38,1.46,1.46,0,0,1,.65.11c.09.05.19.08.29.14l.15.08.11.08a1.53,1.53,0,0,1,.51.85,3.16,3.16,0,0,1,.12.64c0,.11,0,.22,0,.35a2.16,2.16,0,0,1,0,.36,10.44,10.44,0,0,1-.58,3.12,16.44,16.44,0,0,1-.65,1.61c-.24.55-.56,1.08-.86,1.69Z"/><rect class="cls-186" x="144.38" y="281.21" width="1.79" height="32.93" transform="translate(290.54 595.36) rotate(180)"/><path class="cls-189" d="M157.55,263c2.38,3.93-.17,9.86-4.66,10.83a12.21,12.21,0,0,1,3.36,22.64c3.43-.52,6.31,3.56,5.39,6.9s-4.54,5.41-8,5.49-6.77-1.42-9.74-3.2c-1.5,4-7.55,5.4-10.63,2.39s-1.87-9.08,2.13-10.68a8.19,8.19,0,0,1,1.24-15.61,7.51,7.51,0,0,1,2.57-14.38,14.1,14.1,0,0,1-.4-5.66,4.84,4.84,0,0,1,3.63-4c2.22-.33,2.32,1.69,3.83,2.38s2.15-.1,3.77-.32A7.54,7.54,0,0,1,157.55,263Z"/><rect class="cls-186" x="113.28" y="281.21" width="1.79" height="32.93" transform="translate(228.34 595.36) rotate(180)"/><path class="cls-189" d="M126.45,263c2.38,3.93-.18,9.86-4.66,10.83a12.21,12.21,0,0,1,3.36,22.64c3.43-.52,6.31,3.56,5.38,6.9s-4.53,5.41-8,5.49-6.77-1.42-9.75-3.2c-1.49,4-7.54,5.4-10.62,2.39s-1.87-9.08,2.13-10.68a8.19,8.19,0,0,1,1.24-15.61,7.51,7.51,0,0,1,2.57-14.38,14.1,14.1,0,0,1-.4-5.66,4.83,4.83,0,0,1,3.63-4c2.22-.33,2.32,1.69,3.83,2.38s2.15-.1,3.77-.32A7.54,7.54,0,0,1,126.45,263Z"/><polygon class="cls-190" points="215.5 334.57 302.94 334.57 318.81 449.79 231.37 449.79 215.5 334.57"/><polygon class="cls-191" points="311.49 443.41 297.37 340.95 222.83 340.95 236.94 443.41 311.49 443.41"/><g class="cls-192"><rect class="cls-186" x="267.47" y="381.11" width="2.29" height="42.17" transform="translate(509.7 821.48) rotate(-176.16)"/><path class="cls-189" d="M287.28,359c2.7,5.23-1.07,12.58-6.89,13.44a15.64,15.64,0,0,1,2.36,29.22c4.42-.37,7.75,5.1,6.29,9.29s-6.26,6.51-10.69,6.32-8.53-2.4-12.18-4.92c-2.26,5-10.1,6.25-13.78,2.14S250.78,402.68,256,401A10.5,10.5,0,0,1,259,381.14,9.62,9.62,0,0,1,263.46,363a18.35,18.35,0,0,1,0-7.27c.65-2.36,2.54-4.55,5-4.76,2.86-.24,2.82,2.35,4.69,3.37s2.75.05,4.84-.09C281.61,354,285.54,355.58,287.28,359Z"/><path class="cls-186" d="M271.08,432.08h0a2.27,2.27,0,0,0,1.19-3l-11.41-26.72a2.27,2.27,0,0,0-3-1.2h0a2.27,2.27,0,0,0-1.2,3l11.42,26.73A2.27,2.27,0,0,0,271.08,432.08Z"/><path class="cls-187" d="M253.61,418.84h0a1.45,1.45,0,0,1,0-1.19l.21-.43a1.45,1.45,0,0,0-.91-2c-11.63-3.29-17.68-15.71-10.93-21.49,4.1-3.51,10.26-.52,12.18-1.34s2.74-7.26,9.39-7.87c8.63-.78,13.63,12.08,8,22.76a1.45,1.45,0,0,0,.83,2.05l.45.14a1.42,1.42,0,0,1,.87.81h0a1.37,1.37,0,0,1-.68,1.82l-17.6,7.52A1.38,1.38,0,0,1,253.61,418.84Z"/><path class="cls-188" d="M268.22,405.51a18.58,18.58,0,0,0,1.34-3.11,17,17,0,0,0,.66-3.32,14.7,14.7,0,0,0-.89-6.69,8.94,8.94,0,0,0-1.87-2.88,4.49,4.49,0,0,0-3.15-1.36,5.48,5.48,0,0,0-1.71.29,4.37,4.37,0,0,0-1.49.91,11.45,11.45,0,0,0-1.95,2.78l.22.13a16,16,0,0,1,2.67-1.87,2.59,2.59,0,0,1,1.13-.27,5.43,5.43,0,0,1,.57,0l.31,0,.24.05a2.86,2.86,0,0,1,1.44,1,5.34,5.34,0,0,1,.64,1,4.77,4.77,0,0,1,.29.55,4,4,0,0,1,.26.6,18.87,18.87,0,0,1,1.23,5.54,28.61,28.61,0,0,1,.06,3.09c0,1.09-.16,2.17-.23,3.38Z"/><circle class="cls-193" cx="242.2" cy="361.23" r="7.86"/></g><path class="cls-194" d="M279.86,169.71c-93.78,0-195.55-40.18-223.81-61.72a.24.24,0,0,1,0-.35.25.25,0,0,1,.35,0c28.21,21.51,129.83,61.62,223.5,61.62,70.32,0,132.55-20,190.21-61-8.06,1.22-62.14,9.07-135,12.48-72.66,3.41-179.41,3-275.32-18.47a.25.25,0,0,1-.19-.3.25.25,0,0,1,.3-.19c95.86,21.42,202.56,21.86,275.19,18.46,78.7-3.68,135.45-12.54,136-12.63a.24.24,0,0,1,.27.15.25.25,0,0,1-.08.3,330.22,330.22,0,0,1-72.89,39.93C361.29,162.38,321.43,169.71,279.86,169.71Z"/><path class="cls-195" d="M56.2,109.79a1.78,1.78,0,0,1-.76-.15,2,2,0,0,1-.65-.43,2.14,2.14,0,0,1-.44-.65,2,2,0,0,1-.15-.77,1.84,1.84,0,0,1,0-.39,2.72,2.72,0,0,1,.11-.38,2.27,2.27,0,0,1,.19-.34,1.73,1.73,0,0,1,.25-.3,2.06,2.06,0,0,1,2.83,0,2.25,2.25,0,0,1,.24.3,1.63,1.63,0,0,1,.19.34,1.82,1.82,0,0,1,.11.38,1.84,1.84,0,0,1,0,.39,2,2,0,0,1-.15.77,2.3,2.3,0,0,1-.43.65,2.16,2.16,0,0,1-.65.43A1.83,1.83,0,0,1,56.2,109.79Z"/><path class="cls-195" d="M276.74,171.44a2,2,0,0,1-2-2h0a2,2,0,0,1,2-2h0a2,2,0,0,1,2,2h0a2,2,0,0,1-2,2h0Zm6-2a2,2,0,0,1,2-2h0a2,2,0,0,1,2,2h0a2,2,0,0,1-2,2h0A2,2,0,0,1,282.74,169.44Zm-14,1.83a2,2,0,0,1-1.93-2.06h0a2,2,0,0,1,2.06-1.94h0a2,2,0,0,1,1.94,2.06h0a2,2,0,0,1-2,1.94h-.06Zm24.08-.06a2,2,0,0,1-2.07-1.92h0a2,2,0,0,1,1.93-2.07h0a2,2,0,0,1,2.07,1.92h0a2,2,0,0,1-1.93,2.08h0C291.69,171.25,292.79,171.22,292.79,171.21Zm-32.11-.29a2,2,0,0,1-1.89-2.11h0a2,2,0,0,1,2.1-1.89h0a2,2,0,0,1,1.89,2.12h0a2,2,0,0,1-2,1.88h-.11Zm38-2a2,2,0,0,1,1.88-2.12h0a2,2,0,0,1,2.12,1.87h0a2,2,0,0,1-1.88,2.12h-.12A2,2,0,0,1,298.69,169Zm-46,1.43h0a2,2,0,0,1-1.85-2.15h0A2,2,0,0,1,253,166.4h0a2,2,0,0,1,1.84,2.15h0a2,2,0,0,1-2,1.85h-.15Zm54-2a2,2,0,0,1,1.82-2.16h0a2,2,0,0,1,2.16,1.83h0a2,2,0,0,1-1.82,2.16h-.17A2,2,0,0,1,306.66,168.43Zm-62,1.28h0a2,2,0,0,1-1.8-2.17h0a2,2,0,0,1,2.18-1.81h0a2,2,0,0,1,1.8,2.19h0a2,2,0,0,1-2,1.8h-.19Zm69.94-2a2,2,0,0,1,1.78-2.2h0a2,2,0,0,1,2.2,1.77h0a2,2,0,0,1-1.77,2.21h-.22A2,2,0,0,1,314.6,167.72Zm-77.92,1.16a2,2,0,0,1-1.76-2.23h0a2,2,0,0,1,2.22-1.76h0a2,2,0,0,1,1.75,2.22h0a2,2,0,0,1-2,1.77h-.23Zm85.85-2a2,2,0,0,1,1.72-2.25h0a2,2,0,0,1,2.25,1.72h0a2,2,0,0,1-1.72,2.24h0l-.27,0h0A2,2,0,0,1,322.53,166.83Zm-93.81,1a2,2,0,0,1-1.72-2.25h0a2,2,0,0,1,2.25-1.71h0a2,2,0,0,1,1.72,2.25h0a2,2,0,0,1-2,1.72h-.27Zm101.72-2.15a2,2,0,0,1,1.66-2.29h0a2,2,0,0,1,2.29,1.67h0a2,2,0,0,1-1.66,2.29h0a1.72,1.72,0,0,1-.32,0h0A2,2,0,0,1,330.44,165.73Zm-109.65,1a2,2,0,0,1-1.68-2.28h0a2,2,0,0,1,2.28-1.68h0a2,2,0,0,1,1.68,2.29h0a2,2,0,0,1-2,1.69h0Zm117.52-2.31a2,2,0,0,1,1.61-2.31h0a2,2,0,0,1,2.33,1.6h0a2,2,0,0,1-1.61,2.32h0a1.47,1.47,0,0,1-.36,0h0A2,2,0,0,1,338.31,164.44Zm-125.42,1a2,2,0,0,1-1.64-2.31h0a2,2,0,0,1,2.3-1.63h0a2,2,0,0,1,1.64,2.3h0a2,2,0,0,1-2,1.66h0A1.83,1.83,0,0,1,212.89,165.48ZM346.16,163a2,2,0,0,1,1.55-2.36h0a2,2,0,0,1,2.36,1.55h0a2,2,0,0,1-1.55,2.37h0a2.71,2.71,0,0,1-.41,0h0A2,2,0,0,1,346.16,163ZM205,164.08a2,2,0,0,1-1.6-2.33h0a2,2,0,0,1,2.33-1.6h0a2,2,0,0,1,1.6,2.33h0a2,2,0,0,1-2,1.63h0Zm149-2.79a2,2,0,0,1,1.49-2.4h0a2,2,0,0,1,2.4,1.49h0a2,2,0,0,1-1.49,2.41h0a1.75,1.75,0,0,1-.46,0h0A2,2,0,0,1,354,161.29Zm-156.82,1.26a2,2,0,0,1-1.56-2.36h0a2,2,0,0,1,2.36-1.56h0A2,2,0,0,1,199.5,161h0a2,2,0,0,1-2,1.59h0A1.87,1.87,0,0,1,197.14,162.55Zm-7.84-1.65h0a2,2,0,0,1-1.53-2.38h0a2,2,0,0,1,2.38-1.52h0a2,2,0,0,1,1.53,2.38h0a2,2,0,0,1-2,1.58h0A2,2,0,0,1,189.3,160.9Zm172.42-1.48a2,2,0,0,1,1.43-2.44h0a2,2,0,0,1,2.44,1.44h0a2,2,0,0,1-1.43,2.43h0a2.24,2.24,0,0,1-.51.07h0A2,2,0,0,1,361.72,159.42Zm-180.24-.29h0a2,2,0,0,1-1.49-2.41h0a2,2,0,0,1,2.41-1.49h0a2,2,0,0,1,1.49,2.4h0a2,2,0,0,1-1.95,1.55h0A1.8,1.8,0,0,1,181.48,159.13Zm188-1.78a2,2,0,0,1,1.36-2.47h0a2,2,0,0,1,2.48,1.37h0a2,2,0,0,1-1.37,2.47h0a2.09,2.09,0,0,1-.55.08h0A2,2,0,0,1,369.43,157.35Zm-195.74-.1a2,2,0,0,1-1.45-2.44h0a2,2,0,0,1,2.42-1.45h0a2,2,0,0,1,1.46,2.43h0a2,2,0,0,1-1.94,1.51h0A2.09,2.09,0,0,1,173.69,157.25Zm203.39-2.16a2,2,0,0,1,1.3-2.51h0a2,2,0,0,1,2.51,1.3h0a2,2,0,0,1-1.3,2.51h0a1.86,1.86,0,0,1-.6.11h0A2,2,0,0,1,377.08,155.09Zm-211.15.14a2,2,0,0,1-1.42-2.44h0a2,2,0,0,1,2.45-1.41h0a2,2,0,0,1,1.42,2.43h0a2,2,0,0,1-1.93,1.49h0A1.55,1.55,0,0,1,165.93,155.23Zm218.74-2.6a2,2,0,0,1,1.24-2.54h0a2,2,0,0,1,2.54,1.24h0a2,2,0,0,1-1.23,2.55h0a1.87,1.87,0,0,1-.65.1h0A2,2,0,0,1,384.67,152.63Zm-226.47.48a2,2,0,0,1-1.38-2.46h0a2,2,0,0,1,2.47-1.39h0a2,2,0,0,1,1.38,2.47h0a2,2,0,0,1-1.92,1.46h0A1.75,1.75,0,0,1,158.2,153.11Zm234-3.13a2,2,0,0,1,1.17-2.56h0a2,2,0,0,1,2.58,1.16h0a2,2,0,0,1-1.18,2.59v0a1.72,1.72,0,0,1-.7.14h0A2,2,0,0,1,392.2,150Zm-241.69.9a2,2,0,0,1-1.35-2.49h0a2,2,0,0,1,2.49-1.34h0a2,2,0,0,1,1.34,2.49h0a2,2,0,0,1-1.91,1.43h0A1.88,1.88,0,0,1,150.51,150.88Zm-7.67-2.34a2,2,0,0,1-1.31-2.5h0a2,2,0,0,1,2.51-1.32h0a2,2,0,0,1,1.31,2.51h0a2,2,0,0,1-1.91,1.4h0A2.08,2.08,0,0,1,142.84,148.54Zm256.82-1.4a2,2,0,0,1,1.11-2.6h0a2,2,0,0,1,2.6,1.11h0a2,2,0,0,1-1.11,2.6h0a1.94,1.94,0,0,1-.74.14h0A2,2,0,0,1,399.66,147.14Zm-264.45-1a2,2,0,0,1-1.27-2.53h0a2,2,0,0,1,2.52-1.27h0a2,2,0,0,1,1.27,2.54h0a2,2,0,0,1-1.89,1.36h0A1.73,1.73,0,0,1,135.21,146.09Zm271.83-2a2,2,0,0,1,1-2.63h0a2,2,0,0,1,2.63,1h0a2,2,0,0,1-1,2.63h0a2,2,0,0,1-.79.16h0A2,2,0,0,1,407,144.11Zm-279.43-.59a2,2,0,0,1-1.23-2.55h0a2,2,0,0,1,2.54-1.22h0a2,2,0,0,1,1.24,2.54h0a2,2,0,0,1-1.89,1.34h0A2.17,2.17,0,0,1,127.61,143.52Zm286.74-2.63a2,2,0,0,1,1-2.66h0a2,2,0,0,1,2.65,1h0a2,2,0,0,1-1,2.67h0a2,2,0,0,1-.83.17h0A2,2,0,0,1,414.35,140.89Zm-294.29-.06a2,2,0,0,1-1.2-2.56h0a2,2,0,0,1,2.57-1.19h0a2,2,0,0,1,1.19,2.56h0a2,2,0,0,1-1.88,1.32h0A1.86,1.86,0,0,1,120.06,140.83Zm301.51-3.33a2,2,0,0,1,.9-2.69h0a2,2,0,0,1,2.68.91h0a2,2,0,0,1-.9,2.68h0a2,2,0,0,1-.89.2h0A2,2,0,0,1,421.57,137.5Zm-309,.54a2,2,0,0,1-1.16-2.58h0a2,2,0,0,1,2.59-1.17h0a2,2,0,0,1,1.15,2.59h0a2,2,0,0,1-1.87,1.29h0A1.94,1.94,0,0,1,112.55,138Zm-7.47-2.94a2,2,0,0,1-1.11-2.6h0a2,2,0,0,1,2.6-1.11h0a2,2,0,0,1,1.11,2.61h0a2,2,0,0,1-1.85,1.25h0A1.83,1.83,0,0,1,105.08,135.1Zm323.62-1.18a2,2,0,0,1,.84-2.71h0a2,2,0,0,1,2.7.84h0a2,2,0,0,1-.84,2.7h0a2,2,0,0,1-.93.23h0A2,2,0,0,1,428.7,133.92ZM97.66,132a2,2,0,0,1-1.06-2.62h0a2,2,0,0,1,2.62-1.07h0a2,2,0,0,1,1.07,2.63h0a2,2,0,0,1-1.85,1.23h0A2,2,0,0,1,97.66,132Zm338.08-1.89a2,2,0,0,1,.78-2.72h0a2,2,0,0,1,2.72.78h0a2,2,0,0,1-.78,2.71h0a2,2,0,0,1-1,.25h0A2,2,0,0,1,435.74,130.15ZM90.3,128.83h0a2,2,0,0,1-1-2.64h0a2,2,0,0,1,2.64-1h0a2,2,0,0,1,1,2.65h0A2,2,0,0,1,91.12,129h0A1.87,1.87,0,0,1,90.3,128.83Zm352.39-2.61a2,2,0,0,1,.71-2.74h0a2,2,0,0,1,2.74.71h0a2,2,0,0,1-.71,2.73h0a2,2,0,0,1-1,.29h0A2,2,0,0,1,442.69,126.22ZM83,125.46h0a2,2,0,0,1-.94-2.67h0a2,2,0,0,1,2.66-.94h0a2,2,0,0,1,1,2.66h0a2,2,0,0,1-1.81,1.14h0A2,2,0,0,1,83,125.46Zm366.53-3.33a2,2,0,0,1,.64-2.75h0a2,2,0,0,1,2.75.63h0a2,2,0,0,1-.64,2.75h0a2,2,0,0,1-1.06.32h0A2,2,0,0,1,449.54,122.13ZM75.8,121.9a2,2,0,0,1-.87-2.69h0a2,2,0,0,1,2.69-.87h0a2,2,0,0,1,.87,2.7h0a2,2,0,0,1-1.79,1.09h0A2,2,0,0,1,75.8,121.9Zm380.5-4a2,2,0,0,1,.58-2.76h0a2,2,0,0,1,2.77.57h0a2,2,0,0,1-.58,2.77h0a1.94,1.94,0,0,1-1.1.33h0A2,2,0,0,1,456.3,117.86Zm-387.61.24a2,2,0,0,1-.78-2.72h0a2,2,0,0,1,2.72-.77h0a2,2,0,0,1,.78,2.72h0a2,2,0,0,1-1.75,1h0A2,2,0,0,1,68.69,118.1ZM463,113.46a2,2,0,0,1,.52-2.79h0a2,2,0,0,1,2.78.52h0a2,2,0,0,1-.52,2.78h0a2,2,0,0,1-1.13.36h0A2,2,0,0,1,463,113.46ZM61.72,114a2,2,0,0,1-.63-2.77h0a2,2,0,0,1,2.75-.63h0a2,2,0,0,1,.63,2.76h0a2,2,0,0,1-1.69.94h0A1.94,1.94,0,0,1,61.72,114Z"/><path class="cls-195" d="M471.07,109.79a2,2,0,0,1-1.42-.58,2.3,2.3,0,0,1-.43-.65,2,2,0,0,1-.15-.77,1.84,1.84,0,0,1,0-.39,1.82,1.82,0,0,1,.11-.38,1.63,1.63,0,0,1,.19-.34,2.25,2.25,0,0,1,.24-.3,2.08,2.08,0,0,1,1.81-.55,1.58,1.58,0,0,1,.37.11,2.37,2.37,0,0,1,.35.19,2.48,2.48,0,0,1,.3.25,1.73,1.73,0,0,1,.25.3,2.27,2.27,0,0,1,.19.34,2.72,2.72,0,0,1,.11.38,1.84,1.84,0,0,1,0,.39,2,2,0,0,1-.15.77,2.14,2.14,0,0,1-.44.65,2,2,0,0,1-.65.43A1.78,1.78,0,0,1,471.07,109.79Z"/><path class="cls-195" d="M263,122a2,2,0,0,1,2-2h0a2,2,0,0,1,2,2h0a2,2,0,0,1-2,2h0A2,2,0,0,1,263,122Zm7.95,0a2,2,0,0,1,2-2h0a2,2,0,0,1,2,2h0a2,2,0,0,1-2,2h0A2,2,0,0,1,271,122ZM257,124a2,2,0,0,1-2-2h0a2,2,0,0,1,2-2h0a2,2,0,0,1,2,2h0a2,2,0,0,1-2,2h0Zm21.86-2a2,2,0,0,1,2-2h0a2,2,0,0,1,2,2h0a2,2,0,0,1-2,2h0A2,2,0,0,1,278.89,122Zm-29.82,1.92a2,2,0,0,1-2-2h0a2,2,0,0,1,2-2h0a2,2,0,0,1,2,2h0a2,2,0,0,1-2,2h0Zm37.78-2a2,2,0,0,1,2-2h0a2,2,0,0,1,2,2h0a2,2,0,0,1-2,2h0A2,2,0,0,1,286.85,121.9Zm-45.74,1.87a2,2,0,0,1-2-2h0a2,2,0,0,1,2-2h0a2,2,0,0,1,2,2h0a2,2,0,0,1-2,2h0Zm53.69-2a2,2,0,0,1,1.95-2h0a2,2,0,0,1,2,2h0a2,2,0,0,1-2,2h0A2,2,0,0,1,294.8,121.77Zm-61.65,1.81a2,2,0,0,1-2-2h0a2,2,0,0,1,2.06-2h0a2,2,0,0,1,1.94,2.06h0a2,2,0,0,1-2,1.94h0Zm69.59-2a2,2,0,0,1,1.95-2h0a2,2,0,0,1,2.05,2h0a2,2,0,0,1-1.94,2h-.06A2,2,0,0,1,302.74,121.59Zm-77.54,1.76a2,2,0,0,1-1.93-2.06h0a2,2,0,0,1,2.07-1.94h0a2,2,0,0,1,1.93,2.07h0a2,2,0,0,1-2,1.93h-.07Zm85.49-2a2,2,0,0,1,1.94-2.07h0a2,2,0,0,1,2.06,1.94h0a2,2,0,0,1-1.93,2.06h-.07A2,2,0,0,1,310.69,121.38Zm-95.35-.4a2,2,0,0,1,2.08-1.92h0a2,2,0,0,1,1.92,2.08h0a2,2,0,0,1-2.08,1.92h0A2,2,0,0,1,215.34,121Zm103.3.12a2,2,0,0,1,1.92-2.06h0a2,2,0,0,1,2.07,1.92h0a2,2,0,0,1-1.92,2.08h-.07A2,2,0,0,1,318.64,121.1Zm-109.32,1.61a2,2,0,0,1-1.91-2.08h0a2,2,0,0,1,2.09-1.91h0a2,2,0,0,1,1.91,2.09h0a2,2,0,0,1-2,1.91h-.09Zm117.26-1.91a2,2,0,0,1,1.92-2.08h0a2,2,0,0,1,2.08,1.91h0a2,2,0,0,1-1.91,2.08h-.09A2,2,0,0,1,326.58,120.8Zm10,1.55a2,2,0,0,1-2.09-1.89h0a2,2,0,0,1,1.9-2.1h0a2,2,0,0,1,2.09,1.9h0a2,2,0,0,1-1.9,2.1h0Zm-135.25,0a2,2,0,0,1-1.89-2.12h0a2,2,0,0,1,2.11-1.88h0a2,2,0,0,1,1.89,2.1h0a2,2,0,0,1-2,1.9h-.11Zm141.1-2.27a2,2,0,0,1,1.89-2.1h0a2,2,0,0,1,2.1,1.89h0a2,2,0,0,1-1.89,2.11h-.1A2,2,0,0,1,342.47,120.06Zm-149,1.82a2,2,0,0,1-1.87-2.13h0a2,2,0,0,1,2.11-1.87h0a2,2,0,0,1,1.88,2.12h0a2,2,0,0,1-2,1.88h-.12Zm157-2.25a2,2,0,0,1,1.88-2.11h0a2,2,0,0,1,2.11,1.88h0a2,2,0,0,1-1.88,2.11h-.12A2,2,0,0,1,350.41,119.63Zm-164.92,1.72a2,2,0,0,1-1.86-2.13h0a2,2,0,0,1,2.13-1.86h0a2,2,0,0,1,1.86,2.14h0a2,2,0,0,1-2,1.86h-.14Zm172.85-2.18a2,2,0,0,1,1.87-2.13h0a2,2,0,0,1,2.13,1.88h0a2,2,0,0,1-1.87,2.12h-.13A2,2,0,0,1,358.34,119.17Zm-180.79,1.62a2,2,0,0,1-1.84-2.15h0a2,2,0,0,1,2.14-1.84h0a2,2,0,0,1,1.85,2.14h0a2,2,0,0,1-2,1.85h-.16Zm188.73-2.15a2,2,0,0,1,1.86-2.13h0a2,2,0,0,1,2.13,1.87h0a2,2,0,0,1-1.86,2.12h-.14A2,2,0,0,1,366.28,118.64Zm-196.66,1.51a2,2,0,0,1-1.83-2.15h0a2,2,0,0,1,2.16-1.83h0a2,2,0,0,1,1.83,2.16h0a2,2,0,0,1-2,1.84h0A.5.5,0,0,1,169.62,120.15Zm204.59-2.06a2,2,0,0,1,1.85-2.13h0a2,2,0,0,1,2.14,1.84h0a2,2,0,0,1-1.85,2.14h0a.36.36,0,0,1-.14,0h0A2,2,0,0,1,374.21,118.09Zm-212.52,1.37a2,2,0,0,1-1.81-2.17h0a2,2,0,0,1,2.17-1.81h0a2,2,0,0,1,1.81,2.17h0a2,2,0,0,1-2,1.82h-.18Zm220.45-2a2,2,0,0,1,1.84-2.15h0a2,2,0,0,1,2.15,1.84h0a2,2,0,0,1-1.84,2.14h-.16A2,2,0,0,1,382.14,117.5Zm-228.38,1.21a2,2,0,0,1-1.79-2.19h0a2,2,0,0,1,2.19-1.79h0a2,2,0,0,1,1.79,2.19h0a2,2,0,0,1-2,1.8h-.2Zm236.31-1.85a2,2,0,0,1,1.82-2.15h0a2,2,0,0,1,2.16,1.83h0a2,2,0,0,1-1.82,2.15h0l-.17,0h0A2,2,0,0,1,390.07,116.86Zm7.92-.67A2,2,0,0,1,399.8,114h0a2,2,0,0,1,2.18,1.82h0a2,2,0,0,1-1.82,2.16H400A2,2,0,0,1,398,116.19Zm-252.15,1.7a2,2,0,0,1-1.77-2.2h0a2,2,0,0,1,2.2-1.77h0a2,2,0,0,1,1.77,2.19h0a2,2,0,0,1-2,1.79h-.22Zm260.07-2.42a2,2,0,0,1,1.8-2.18h0a2,2,0,0,1,2.18,1.81h0a2,2,0,0,1-1.8,2.19h-.19A2,2,0,0,1,405.91,115.47Zm-268,1.53a2,2,0,0,1-1.76-2.21h0a2,2,0,0,1,2.22-1.75h0a2,2,0,0,1,1.76,2.21h0a2,2,0,0,1-2,1.76h-.23Zm275.9-2.28a2,2,0,0,1,1.79-2.18h0a2,2,0,0,1,2.19,1.79h0a2,2,0,0,1-1.79,2.18h-.2A2,2,0,0,1,413.83,114.72ZM130,116a2,2,0,0,1-1.74-2.23h0a2,2,0,0,1,2.24-1.73h0a2,2,0,0,1,1.73,2.23h0a2,2,0,0,1-2,1.75h0Zm291.72-2.12a2,2,0,0,1,1.78-2.2h0a2,2,0,0,1,2.2,1.78h0a2,2,0,0,1-1.78,2.21h-.21A2,2,0,0,1,421.74,113.92ZM122.12,115a2,2,0,0,1-1.72-2.25h0a2,2,0,0,1,2.25-1.71h0a2,2,0,0,1,1.72,2.25h0a2,2,0,0,1-2,1.74h0A2.48,2.48,0,0,1,122.12,115Zm307.53-1.93a2,2,0,0,1,1.76-2.22h0a2,2,0,0,1,2.21,1.77h0a2,2,0,0,1-1.76,2.21h-.23A2,2,0,0,1,429.65,113.08Zm7.9-.9A2,2,0,0,1,439.3,110h0a2,2,0,0,1,2.22,1.76h0a2,2,0,0,1-1.75,2.22h0a1,1,0,0,1-.24,0h0A2,2,0,0,1,437.55,112.18Zm-323.33,1.74a2,2,0,0,1-1.69-2.28h0A2,2,0,0,1,114.8,110h0a2,2,0,0,1,1.69,2.26h0a2,2,0,0,1-2,1.71h-.29Zm331.23-2.67a2,2,0,0,1,1.74-2.23h0a2,2,0,0,1,2.23,1.74h0a2,2,0,0,1-1.74,2.24h-.25A2,2,0,0,1,445.45,111.25Zm-339.11,1.48a2,2,0,0,1-1.67-2.27h0a2,2,0,0,1,2.28-1.67h0a2,2,0,0,1,1.67,2.27h0a2,2,0,0,1-2,1.69h0A1.51,1.51,0,0,1,106.34,112.73Zm347-2.47a2,2,0,0,1,1.73-2.24h0a2,2,0,0,1,2.24,1.73h0a2,2,0,0,1-1.73,2.23h0a1.1,1.1,0,0,1-.26,0h0A2,2,0,0,1,453.34,110.26ZM98.46,111.47h0a2,2,0,0,1-1.64-2.3h0a2,2,0,0,1,2.3-1.65v0a2,2,0,0,1,1.64,2.29h0a2,2,0,0,1-2,1.67h0A1.34,1.34,0,0,1,98.46,111.47Zm362.77-2.26a2,2,0,0,1,1.7-2.25h0a2,2,0,0,1,2.26,1.71h0a2,2,0,0,1-1.71,2.25h0l-.28,0h0A2,2,0,0,1,461.23,109.21Zm-370.63.92A2,2,0,0,1,89,107.81h0a2,2,0,0,1,2.32-1.62h0a2,2,0,0,1,1.62,2.31h0a2,2,0,0,1-2,1.67h0A2.21,2.21,0,0,1,90.6,110.13Zm-7.84-1.42a2,2,0,0,1-1.6-2.33h0a2,2,0,0,1,2.33-1.59h0a2,2,0,0,1,1.6,2.32h0a2,2,0,0,1-2,1.64h0A2.2,2.2,0,0,1,82.76,108.71Zm-7.84-1.5a2,2,0,0,1-1.57-2.36h0a2,2,0,0,1,2.35-1.58h0a2,2,0,0,1,1.57,2.36h0a2,2,0,0,1-2,1.62h0C75.19,107.25,75.05,107.22,74.92,107.21Zm-7.81-1.61a2,2,0,0,1-1.55-2.37h0a2,2,0,0,1,2.37-1.55h0a2,2,0,0,1,1.55,2.37h0a2,2,0,0,1-2,1.59h0A1.9,1.9,0,0,1,67.11,105.6Z"/><path class="cls-195" d="M59.77,104a2,2,0,0,1-1.42-.58,2.14,2.14,0,0,1-.43-.66,2,2,0,0,1-.15-.76,1.64,1.64,0,0,1,0-.38,1.6,1.6,0,0,1,.11-.39,2.79,2.79,0,0,1,.18-.34,3.76,3.76,0,0,1,.25-.31,2.08,2.08,0,0,1,2.83,0,2.42,2.42,0,0,1,.25.31,2.79,2.79,0,0,1,.18.34,2.22,2.22,0,0,1,.12.39,2.45,2.45,0,0,1,0,.38,1.82,1.82,0,0,1-.16.76,1.93,1.93,0,0,1-1.08,1.09A1.81,1.81,0,0,1,59.77,104Z"/><polygon class="cls-196" points="463.07 115.93 463.07 106.63 467.48 106.63 467.48 97.24 474.67 97.24 474.67 106.63 479.08 106.63 479.08 115.93 474.67 115.93 474.67 119.38 479.08 119.38 479.08 133.06 474.67 133.06 474.67 449.79 467.48 449.79 467.48 133.06 463.07 133.06 463.07 119.38 467.48 119.38 467.48 115.93 463.07 115.93"/><g class="cls-197"><rect class="cls-196" x="441.79" y="43.81" width="58.56" height="58.56"/><circle class="cls-196" cx="471.07" cy="73.09" r="29.28"/><circle class="cls-196" cx="471.07" cy="73.09" r="29.07"/><circle class="cls-198" cx="471.07" cy="73.09" r="28.87"/><circle class="cls-199" cx="471.07" cy="73.09" r="28.66"/><circle class="cls-199" cx="471.07" cy="73.09" r="28.46"/><circle class="cls-200" cx="471.07" cy="73.09" r="28.25"/><circle class="cls-201" cx="471.07" cy="73.09" r="28.04"/><circle class="cls-202" cx="471.07" cy="73.09" r="27.84"/><circle class="cls-203" cx="471.07" cy="73.09" r="27.63"/><circle class="cls-204" cx="471.07" cy="73.09" r="27.42"/><circle class="cls-205" cx="471.07" cy="73.09" r="27.22"/><circle class="cls-206" cx="471.07" cy="73.09" r="27.01"/><circle class="cls-207" cx="471.07" cy="73.09" r="26.81"/><circle class="cls-208" cx="471.07" cy="73.09" r="26.6"/><circle class="cls-209" cx="471.07" cy="73.09" r="26.39"/><circle class="cls-210" cx="471.07" cy="73.09" r="26.19"/><circle class="cls-211" cx="471.07" cy="73.09" r="25.98"/><circle class="cls-212" cx="471.07" cy="73.09" r="25.77"/><circle class="cls-213" cx="471.07" cy="73.09" r="25.57"/><circle class="cls-214" cx="471.07" cy="73.09" r="25.36"/><circle class="cls-215" cx="471.07" cy="73.09" r="25.16"/><circle class="cls-216" cx="471.07" cy="73.09" r="24.95"/><circle class="cls-217" cx="471.07" cy="73.09" r="24.74"/><circle class="cls-218" cx="471.07" cy="73.09" r="24.54"/><circle class="cls-219" cx="471.07" cy="73.09" r="24.33"/><circle class="cls-220" cx="471.07" cy="73.09" r="24.13"/><circle class="cls-220" cx="471.07" cy="73.09" r="23.92"/><circle class="cls-221" cx="471.07" cy="73.09" r="23.71"/><circle class="cls-222" cx="471.07" cy="73.09" r="23.51"/><circle class="cls-223" cx="471.07" cy="73.09" r="23.3"/><circle class="cls-224" cx="471.07" cy="73.09" r="23.09"/><circle class="cls-225" cx="471.07" cy="73.09" r="22.89"/><circle class="cls-226" cx="471.07" cy="73.09" r="22.68"/><circle class="cls-227" cx="471.07" cy="73.09" r="22.48"/><circle class="cls-228" cx="471.07" cy="73.09" r="22.27"/><circle class="cls-229" cx="471.07" cy="73.09" r="22.06"/><circle class="cls-230" cx="471.07" cy="73.09" r="21.86"/><circle class="cls-231" cx="471.07" cy="73.09" r="21.65"/><circle class="cls-232" cx="471.07" cy="73.09" r="21.44"/><circle class="cls-233" cx="471.07" cy="73.09" r="21.24"/><circle class="cls-234" cx="471.07" cy="73.09" r="21.03"/><circle class="cls-235" cx="471.07" cy="73.09" r="20.83"/><circle class="cls-236" cx="471.07" cy="73.09" r="20.62"/><circle class="cls-237" cx="471.07" cy="73.09" r="20.41"/><circle class="cls-238" cx="471.07" cy="73.09" r="20.21"/><circle class="cls-239" cx="471.07" cy="73.09" r="20"/><circle class="cls-240" cx="471.07" cy="73.09" r="19.8"/><circle class="cls-241" cx="471.07" cy="73.09" r="19.59"/><circle class="cls-242" cx="471.07" cy="73.09" r="19.38"/><circle class="cls-243" cx="471.07" cy="73.09" r="19.18"/><circle class="cls-244" cx="471.07" cy="73.09" r="18.97"/><circle class="cls-245" cx="471.07" cy="73.09" r="18.76"/><circle class="cls-246" cx="471.07" cy="73.09" r="18.56"/><circle class="cls-247" cx="471.07" cy="73.09" r="18.35"/><circle class="cls-248" cx="471.07" cy="73.09" r="18.15"/><circle class="cls-249" cx="471.07" cy="73.09" r="17.94"/><circle class="cls-250" cx="471.07" cy="73.09" r="17.73"/><circle class="cls-251" cx="471.07" cy="73.09" r="17.53"/><circle class="cls-252" cx="471.07" cy="73.09" r="17.32"/><circle class="cls-253" cx="471.07" cy="73.09" r="17.11"/><circle class="cls-254" cx="471.07" cy="73.09" r="16.91"/><circle class="cls-255" cx="471.07" cy="73.09" r="16.7"/><circle class="cls-256" cx="471.07" cy="73.09" r="16.5"/><circle class="cls-257" cx="471.07" cy="73.09" r="16.29"/><circle class="cls-258" cx="471.07" cy="73.09" r="16.08"/><circle class="cls-259" cx="471.07" cy="73.09" r="15.88"/><circle class="cls-260" cx="471.07" cy="73.09" r="15.67"/><circle class="cls-261" cx="471.07" cy="73.09" r="15.46"/><circle class="cls-262" cx="471.07" cy="73.09" r="15.26"/><circle class="cls-263" cx="471.07" cy="73.09" r="15.05"/><circle class="cls-264" cx="471.07" cy="73.09" r="14.85"/><circle class="cls-265" cx="471.07" cy="73.09" r="14.64"/><circle class="cls-266" cx="471.07" cy="73.09" r="14.43"/><circle class="cls-267" cx="471.07" cy="73.09" r="14.23"/><circle class="cls-268" cx="471.07" cy="73.09" r="14.02"/><circle class="cls-269" cx="471.07" cy="73.09" r="13.82"/><circle class="cls-270" cx="471.07" cy="73.09" r="13.61"/><circle class="cls-271" cx="471.07" cy="73.09" r="13.4"/><circle class="cls-272" cx="471.07" cy="73.09" r="13.2"/><circle class="cls-273" cx="471.07" cy="73.09" r="12.99"/><circle class="cls-274" cx="471.07" cy="73.09" r="12.78"/><circle class="cls-275" cx="471.07" cy="73.09" r="12.58"/><circle class="cls-276" cx="471.07" cy="73.09" r="12.37"/><circle class="cls-277" cx="471.07" cy="73.09" r="12.17"/><circle class="cls-278" cx="471.07" cy="73.09" r="11.96"/><circle class="cls-279" cx="471.07" cy="73.09" r="11.75"/><circle class="cls-280" cx="471.07" cy="73.09" r="11.55"/><circle class="cls-281" cx="471.07" cy="73.09" r="11.34"/><circle class="cls-282" cx="471.07" cy="73.09" r="11.13"/><circle class="cls-283" cx="471.07" cy="73.09" r="10.93"/><circle class="cls-284" cx="471.07" cy="73.09" r="10.72"/><circle class="cls-285" cx="471.07" cy="73.09" r="10.52"/><circle class="cls-286" cx="471.07" cy="73.09" r="10.31"/><circle class="cls-287" cx="471.07" cy="73.09" r="10.1"/><circle class="cls-288" cx="471.07" cy="73.09" r="9.9"/><circle class="cls-289" cx="471.07" cy="73.09" r="9.69"/><circle class="cls-290" cx="471.07" cy="73.09" r="9.49"/><circle class="cls-291" cx="471.07" cy="73.09" r="9.28"/><circle class="cls-292" cx="471.07" cy="73.09" r="9.07"/><circle class="cls-293" cx="471.07" cy="73.09" r="8.87"/><circle class="cls-294" cx="471.07" cy="73.09" r="8.66"/><circle class="cls-295" cx="471.07" cy="73.09" r="8.45"/><circle class="cls-296" cx="471.07" cy="73.09" r="8.25"/><circle class="cls-297" cx="471.07" cy="73.09" r="8.04"/><circle class="cls-298" cx="471.07" cy="73.09" r="7.84"/><circle class="cls-299" cx="471.07" cy="73.09" r="7.63"/><circle class="cls-300" cx="471.07" cy="73.09" r="7.42"/><circle class="cls-301" cx="471.07" cy="73.09" r="7.22"/><circle class="cls-302" cx="471.07" cy="73.09" r="7.01"/><circle class="cls-303" cx="471.07" cy="73.09" r="6.8"/><circle class="cls-304" cx="471.07" cy="73.09" r="6.6"/><circle class="cls-305" cx="471.07" cy="73.09" r="6.39"/><circle class="cls-306" cx="471.07" cy="73.09" r="6.19"/><circle class="cls-307" cx="471.07" cy="73.09" r="5.98"/><circle class="cls-308" cx="471.07" cy="73.09" r="5.77"/><circle class="cls-309" cx="471.07" cy="73.09" r="5.57"/><circle class="cls-310" cx="471.07" cy="73.09" r="5.36"/><circle class="cls-311" cx="471.07" cy="73.09" r="5.15"/><circle class="cls-312" cx="471.07" cy="73.09" r="4.95"/><circle class="cls-313" cx="471.07" cy="73.09" r="4.74"/><circle class="cls-314" cx="471.07" cy="73.09" r="4.54"/><circle class="cls-315" cx="471.07" cy="73.09" r="4.33"/><circle class="cls-316" cx="471.07" cy="73.09" r="4.12"/><circle class="cls-317" cx="471.07" cy="73.09" r="3.92"/><circle class="cls-318" cx="471.07" cy="73.09" r="3.71"/><circle class="cls-319" cx="471.07" cy="73.09" r="3.51"/><circle class="cls-320" cx="471.07" cy="73.09" r="3.3"/><circle class="cls-321" cx="471.07" cy="73.09" r="3.09"/><circle class="cls-322" cx="471.07" cy="73.09" r="2.89"/><circle class="cls-323" cx="471.07" cy="73.09" r="2.68"/><circle class="cls-324" cx="471.07" cy="73.09" r="2.47"/><circle class="cls-325" cx="471.07" cy="73.09" r="2.27"/><circle class="cls-326" cx="471.07" cy="73.09" r="2.06"/><circle class="cls-327" cx="471.07" cy="73.09" r="1.86"/><circle class="cls-328" cx="471.07" cy="73.09" r="1.65"/><circle class="cls-329" cx="471.07" cy="73.09" r="1.44"/><circle class="cls-330" cx="471.07" cy="73.09" r="1.24"/><circle class="cls-331" cx="471.07" cy="73.09" r="1.03"/><circle class="cls-332" cx="471.07" cy="73.09" r="0.82"/><circle class="cls-333" cx="471.07" cy="73.09" r="0.62"/><circle class="cls-334" cx="471.07" cy="73.09" r="0.41"/><circle class="cls-4" cx="471.07" cy="73.09" r="0.21"/></g><polygon class="cls-196" points="48.2 115.93 48.2 106.63 52.61 106.63 52.61 97.24 59.8 97.24 59.8 106.63 64.21 106.63 64.21 115.93 59.8 115.93 59.8 119.38 64.21 119.38 64.21 133.06 59.8 133.06 59.8 449.79 52.61 449.79 52.61 133.06 48.2 133.06 48.2 119.38 52.61 119.38 52.61 115.93 48.2 115.93"/><g class="cls-335"><rect class="cls-196" x="26.93" y="43.81" width="58.56" height="58.56"/><circle class="cls-196" cx="56.21" cy="73.09" r="29.28"/><circle class="cls-196" cx="56.21" cy="73.09" r="29.07"/><circle class="cls-198" cx="56.21" cy="73.09" r="28.87"/><circle class="cls-199" cx="56.21" cy="73.09" r="28.66"/><circle class="cls-199" cx="56.21" cy="73.09" r="28.46"/><circle class="cls-200" cx="56.21" cy="73.09" r="28.25"/><circle class="cls-201" cx="56.21" cy="73.09" r="28.04"/><circle class="cls-202" cx="56.21" cy="73.09" r="27.84"/><circle class="cls-203" cx="56.21" cy="73.09" r="27.63"/><circle class="cls-204" cx="56.21" cy="73.09" r="27.42"/><circle class="cls-205" cx="56.21" cy="73.09" r="27.22"/><circle class="cls-206" cx="56.21" cy="73.09" r="27.01"/><circle class="cls-207" cx="56.21" cy="73.09" r="26.81"/><circle class="cls-208" cx="56.21" cy="73.09" r="26.6"/><circle class="cls-209" cx="56.21" cy="73.09" r="26.39"/><circle class="cls-210" cx="56.21" cy="73.09" r="26.19"/><circle class="cls-211" cx="56.21" cy="73.09" r="25.98"/><circle class="cls-212" cx="56.21" cy="73.09" r="25.77"/><circle class="cls-213" cx="56.21" cy="73.09" r="25.57"/><circle class="cls-214" cx="56.21" cy="73.09" r="25.36"/><circle class="cls-215" cx="56.21" cy="73.09" r="25.16"/><circle class="cls-216" cx="56.21" cy="73.09" r="24.95"/><circle class="cls-217" cx="56.21" cy="73.09" r="24.74"/><circle class="cls-218" cx="56.21" cy="73.09" r="24.54"/><circle class="cls-219" cx="56.21" cy="73.09" r="24.33"/><circle class="cls-220" cx="56.21" cy="73.09" r="24.13"/><circle class="cls-220" cx="56.21" cy="73.09" r="23.92"/><circle class="cls-221" cx="56.21" cy="73.09" r="23.71"/><circle class="cls-222" cx="56.21" cy="73.09" r="23.51"/><circle class="cls-223" cx="56.21" cy="73.09" r="23.3"/><circle class="cls-224" cx="56.21" cy="73.09" r="23.09"/><circle class="cls-225" cx="56.21" cy="73.09" r="22.89"/><circle class="cls-226" cx="56.21" cy="73.09" r="22.68"/><circle class="cls-227" cx="56.21" cy="73.09" r="22.48"/><circle class="cls-228" cx="56.21" cy="73.09" r="22.27"/><circle class="cls-229" cx="56.21" cy="73.09" r="22.06"/><circle class="cls-230" cx="56.21" cy="73.09" r="21.86"/><circle class="cls-231" cx="56.21" cy="73.09" r="21.65"/><circle class="cls-232" cx="56.21" cy="73.09" r="21.44"/><circle class="cls-233" cx="56.21" cy="73.09" r="21.24"/><circle class="cls-234" cx="56.21" cy="73.09" r="21.03"/><circle class="cls-235" cx="56.21" cy="73.09" r="20.83"/><circle class="cls-236" cx="56.21" cy="73.09" r="20.62"/><circle class="cls-237" cx="56.21" cy="73.09" r="20.41"/><circle class="cls-238" cx="56.21" cy="73.09" r="20.21"/><circle class="cls-239" cx="56.21" cy="73.09" r="20"/><circle class="cls-240" cx="56.21" cy="73.09" r="19.8"/><circle class="cls-241" cx="56.21" cy="73.09" r="19.59"/><circle class="cls-242" cx="56.21" cy="73.09" r="19.38"/><circle class="cls-243" cx="56.21" cy="73.09" r="19.18"/><circle class="cls-244" cx="56.21" cy="73.09" r="18.97"/><circle class="cls-245" cx="56.21" cy="73.09" r="18.76"/><circle class="cls-246" cx="56.21" cy="73.09" r="18.56"/><circle class="cls-247" cx="56.21" cy="73.09" r="18.35"/><circle class="cls-248" cx="56.21" cy="73.09" r="18.15"/><circle class="cls-249" cx="56.21" cy="73.09" r="17.94"/><circle class="cls-250" cx="56.21" cy="73.09" r="17.73"/><circle class="cls-251" cx="56.21" cy="73.09" r="17.53"/><circle class="cls-252" cx="56.21" cy="73.09" r="17.32"/><circle class="cls-253" cx="56.21" cy="73.09" r="17.11"/><circle class="cls-254" cx="56.21" cy="73.09" r="16.91"/><circle class="cls-255" cx="56.21" cy="73.09" r="16.7"/><circle class="cls-256" cx="56.21" cy="73.09" r="16.5"/><circle class="cls-257" cx="56.21" cy="73.09" r="16.29"/><circle class="cls-258" cx="56.21" cy="73.09" r="16.08"/><circle class="cls-259" cx="56.21" cy="73.09" r="15.88"/><circle class="cls-260" cx="56.21" cy="73.09" r="15.67"/><circle class="cls-261" cx="56.21" cy="73.09" r="15.46"/><circle class="cls-262" cx="56.21" cy="73.09" r="15.26"/><circle class="cls-263" cx="56.21" cy="73.09" r="15.05"/><circle class="cls-264" cx="56.21" cy="73.09" r="14.85"/><circle class="cls-265" cx="56.21" cy="73.09" r="14.64"/><circle class="cls-266" cx="56.21" cy="73.09" r="14.43"/><circle class="cls-267" cx="56.21" cy="73.09" r="14.23"/><circle class="cls-268" cx="56.21" cy="73.09" r="14.02"/><circle class="cls-269" cx="56.21" cy="73.09" r="13.82"/><circle class="cls-270" cx="56.21" cy="73.09" r="13.61"/><circle class="cls-271" cx="56.21" cy="73.09" r="13.4"/><circle class="cls-272" cx="56.21" cy="73.09" r="13.2"/><circle class="cls-273" cx="56.21" cy="73.09" r="12.99"/><circle class="cls-274" cx="56.21" cy="73.09" r="12.78"/><circle class="cls-275" cx="56.21" cy="73.09" r="12.58"/><circle class="cls-276" cx="56.21" cy="73.09" r="12.37"/><circle class="cls-277" cx="56.21" cy="73.09" r="12.17"/><circle class="cls-278" cx="56.21" cy="73.09" r="11.96"/><circle class="cls-279" cx="56.21" cy="73.09" r="11.75"/><circle class="cls-280" cx="56.21" cy="73.09" r="11.55"/><circle class="cls-281" cx="56.21" cy="73.09" r="11.34"/><circle class="cls-282" cx="56.21" cy="73.09" r="11.13"/><circle class="cls-283" cx="56.21" cy="73.09" r="10.93"/><circle class="cls-284" cx="56.21" cy="73.09" r="10.72"/><circle class="cls-285" cx="56.21" cy="73.09" r="10.52"/><circle class="cls-286" cx="56.21" cy="73.09" r="10.31"/><circle class="cls-287" cx="56.21" cy="73.09" r="10.1"/><circle class="cls-288" cx="56.21" cy="73.09" r="9.9"/><circle class="cls-289" cx="56.21" cy="73.09" r="9.69"/><circle class="cls-290" cx="56.21" cy="73.09" r="9.49"/><circle class="cls-291" cx="56.21" cy="73.09" r="9.28"/><circle class="cls-292" cx="56.21" cy="73.09" r="9.07"/><circle class="cls-293" cx="56.21" cy="73.09" r="8.87"/><circle class="cls-294" cx="56.21" cy="73.09" r="8.66"/><circle class="cls-295" cx="56.21" cy="73.09" r="8.45"/><circle class="cls-296" cx="56.21" cy="73.09" r="8.25"/><circle class="cls-297" cx="56.21" cy="73.09" r="8.04"/><circle class="cls-298" cx="56.21" cy="73.09" r="7.84"/><circle class="cls-299" cx="56.21" cy="73.09" r="7.63"/><circle class="cls-300" cx="56.21" cy="73.09" r="7.42"/><circle class="cls-301" cx="56.21" cy="73.09" r="7.22"/><circle class="cls-302" cx="56.21" cy="73.09" r="7.01"/><circle class="cls-303" cx="56.21" cy="73.09" r="6.8"/><circle class="cls-304" cx="56.21" cy="73.09" r="6.6"/><circle class="cls-305" cx="56.21" cy="73.09" r="6.39"/><circle class="cls-306" cx="56.21" cy="73.09" r="6.19"/><circle class="cls-307" cx="56.21" cy="73.09" r="5.98"/><circle class="cls-308" cx="56.21" cy="73.09" r="5.77"/><circle class="cls-309" cx="56.21" cy="73.09" r="5.57"/><circle class="cls-310" cx="56.21" cy="73.09" r="5.36"/><circle class="cls-311" cx="56.21" cy="73.09" r="5.15"/><circle class="cls-312" cx="56.21" cy="73.09" r="4.95"/><circle class="cls-313" cx="56.21" cy="73.09" r="4.74"/><circle class="cls-314" cx="56.21" cy="73.09" r="4.54"/><circle class="cls-315" cx="56.21" cy="73.09" r="4.33"/><circle class="cls-316" cx="56.21" cy="73.09" r="4.12"/><circle class="cls-317" cx="56.21" cy="73.09" r="3.92"/><circle class="cls-318" cx="56.21" cy="73.09" r="3.71"/><circle class="cls-319" cx="56.21" cy="73.09" r="3.51"/><circle class="cls-320" cx="56.21" cy="73.09" r="3.3"/><circle class="cls-321" cx="56.21" cy="73.09" r="3.09"/><circle class="cls-322" cx="56.21" cy="73.09" r="2.89"/><circle class="cls-323" cx="56.21" cy="73.09" r="2.68"/><circle class="cls-324" cx="56.21" cy="73.09" r="2.47"/><circle class="cls-325" cx="56.21" cy="73.09" r="2.27"/><circle class="cls-326" cx="56.21" cy="73.09" r="2.06"/><circle class="cls-327" cx="56.21" cy="73.09" r="1.86"/><circle class="cls-328" cx="56.21" cy="73.09" r="1.65"/><circle class="cls-329" cx="56.21" cy="73.09" r="1.44"/><circle class="cls-330" cx="56.21" cy="73.09" r="1.24"/><circle class="cls-331" cx="56.21" cy="73.09" r="1.03"/><circle class="cls-332" cx="56.21" cy="73.09" r="0.82"/><circle class="cls-333" cx="56.21" cy="73.09" r="0.62"/><circle class="cls-334" cx="56.21" cy="73.09" r="0.41"/><circle class="cls-4" cx="56.21" cy="73.09" r="0.21"/></g><path class="cls-336" d="M72,472.23s40-39.35,35.68-118.86c0,0-38.17,45.15-41.32,90,0,0-8.51-45.7-35.36-53.45Z"/><ellipse class="cls-337" cx="226.77" cy="493.91" rx="31.93" ry="2.66"/><ellipse class="cls-337" cx="391.34" cy="462.24" rx="25.22" ry="2.1"/><ellipse class="cls-337" cx="120.97" cy="493.91" rx="53.21" ry="2.66"/><path class="cls-124" d="M134.56,416.89l32.56,11.64c12,4.28,12.2,21.53.16,25.61-.36.12-.71.23-1.08.33-13.19,3.59-37.41,9-37.41,9l-26.37-35.08S116.1,417.67,134.56,416.89Z"/><path class="cls-124" d="M136.17,452.43s10.88-10.75,21.85-10.75"/><path class="cls-124" d="M136.17,452.43l-7.38,11.06L148,459S139.51,459.38,136.17,452.43Z"/><path class="cls-124" d="M130.08,462.59l-1.74,6.67s11.55.75,13.73,5.82H123.16V462.59Z"/><path class="cls-124" d="M134.56,416.89c3.09-6.39,17.44-22.94,16.63-43.78,0,0-17.25,9.07-17.27,8.84-.75-7.87-15.32-27.62-15.32-27.62S101.87,348,95,363c0,0-2.5,7-2.3,23s-1.19,39.56-1.19,39.56A35.09,35.09,0,0,0,89.72,439C94.8,433.31,108.88,420.54,134.56,416.89Z"/><path class="cls-124" d="M115.33,343.92c.53,5.23,3.92,9.17,7.57,8.8s6.19-4.9,5.67-10.13-3.92-9.17-7.57-8.8S114.81,338.7,115.33,343.92Z"/><path class="cls-124" d="M123.81,334.46a1.69,1.69,0,0,0-1.34-.49c-1.21.12-3.3.84-3.61,4.28,0,0,0,6.36-3.53,5.67,0,0-.83.36,1.15,2.93,0,0,5.47,4.46.16,10.9,0,0,4.19,5,.09,9.15,0,0-2.57,2-3.34-1.71,0,0-6.33.86-8.12-6.33,0,0-5.59-1.48-10.18,6.59,0,0-4.54-6.16,2.14-10.35,0,0-3.94-10,6.5-13.43,0,0-1.24-14.62,14.69-12.14A4.17,4.17,0,0,1,124,333s3.19-.3,2.54,3.83Z"/><path class="cls-124" d="M113.88,345.81c.28,1.09,1.13,1.82,1.89,1.62s1.16-1.24.87-2.33-1.12-1.82-1.89-1.62S113.6,344.72,113.88,345.81Z"/><path class="cls-124" d="M95,367.43a57.15,57.15,0,0,0,3.29,17.33"/><path class="cls-124" d="M118,378.67a28.18,28.18,0,0,1-3.17-7.09"/><path class="cls-124" d="M151.19,373.11c-11.88,11.65-22.75,15.63-22.75,15.63s-5.28,1.2-10.48-10.07c-11.3-2.85-17,2.17-19.69,6.09,3.91,10.32,18.11,20,30.36,17,0,0,12.2-2.1,27.88-23.54Z"/><path class="cls-124" d="M151.19,373.11c2.6-2.55,2-8,4.13-9.74l3-1.5a2.14,2.14,0,0,1,2.12.11l.39.25s3.23-1.74,3.22,1.35c0,0,2.34-.73,2.16,2.08,0,0,1.55-.42,1.38,2.31,0,0,.78,1.47-1.17,2.93l-9.86,7.29Z"/><path class="cls-124" d="M159.4,359.77s.41-3,2.4-1.79c0,0,2.86-3.89,5.11-.71a4.94,4.94,0,0,1,.87,3.14c-.07,1.67-.73,3.87-3.78,3.17a1.63,1.63,0,0,0-.81-1.71c-1.14-.55-3.15,1.88-3.46,1.15C157.46,361.64,159.4,359.77,159.4,359.77Z"/><line class="cls-124" x1="158.02" y1="364.31" x2="160.78" y2="362.23"/><polyline class="cls-124" points="116.29 465.7 111.94 479.89 119.35 479.89 125.57 468.84"/><path class="cls-124" d="M111.94,479.9a15.35,15.35,0,0,0,2.87,14h14s-2.52-6.08-8.12-5.43c-2.36-2.67-1.32-8.58-1.32-8.58h0a3.33,3.33,0,0,0-4.85-.95l-.09.07Z"/><line class="cls-124" x1="125.57" y1="468.84" x2="116.29" y2="465.7"/><path class="cls-124" d="M146,432.49c.31-5.17-4.5-9.92-10.24-9.93-22.07,0-33.32,5.85-33.32,5.85A61.67,61.67,0,0,0,89.72,439c.6,6.84,4,14.19,15.42,16.48,2.93.58,11.47,1.45,14.21.28,0,0-5.52,6.24-3.06,10a8,8,0,0,0,9.28,3.14,2.71,2.71,0,0,0,1.87-3.33l14.72-22.05A22.33,22.33,0,0,0,146,432.49Z"/><path class="cls-124" d="M121,423.5a77.26,77.26,0,0,0-14.43,3.25"/><path class="cls-124" d="M136.17,452.43l6-9a22.33,22.33,0,0,0,3.82-11,8.91,8.91,0,0,0-2.6-6.65"/><path class="cls-124" d="M119.35,455.72c1.32-4.65,1.4-15.5,7.61-20.37"/><path class="cls-124" d="M119.35,434.35s-.9,5.3,2.75,8.84"/><path class="cls-338" d="M533.17,332.41c-15.8,7.5-53.68,34.45-28.43,118.83l28.43-95.57"/><path class="cls-338" d="M504.74,451.24s7.19-70.48-61.22-84.06Z"/><path class="cls-338" d="M503.44,433.28s25.64-85-14.5-132.19C488.94,301.09,463.1,359.44,503.44,433.28Z"/><path class="cls-336" d="M472,491.65l31.81-106.93S444.8,400.73,472,491.65Z"/><path class="cls-336" d="M472,491.65s6.29-61.7-53.59-73.59Z"/><path class="cls-336" d="M470.87,475.92s22.45-74.39-12.69-115.72C458.18,360.2,435.56,411.29,470.87,475.92Z"/><path class="cls-124" d="M242.48,428.73l8.6,53.19h3.13s2.79-24.47-1.54-31.85l-1.5-21.34Z"/><polygon class="cls-124" points="256.62 479.54 255.93 485.97 264.11 493.91 251.08 493.91 249.71 479.54 256.62 479.54"/><path class="cls-124" d="M232.74,428.73l-5.22,53.19H224.4s-2.7-23.67.38-31.85l-.72-21.34Z"/><polygon class="cls-124" points="221.98 479.54 222.67 485.97 214.5 493.91 227.52 493.91 228.9 479.54 221.98 479.54"/><path class="cls-124" d="M221.9,406.49s-1.61,11.76-1.91,21.24c0,0,7,4.42,17.68,1.69v-8.91l2.85,9.51a22.6,22.6,0,0,0,15.41-1.11l-2.08-25.8S238.64,394.44,221.9,406.49Z"/><line class="cls-124" x1="237.67" y1="420.51" x2="235.72" y2="412.64"/><path class="cls-124" d="M232.92,414.61a5,5,0,0,0,3.78,2"/><path class="cls-124" d="M249.36,350.39c5.09,25.91,10.78,55.12,4.49,52.72-14-5.84-35.66,11.42-32.81-.75,5.42-15,7.79-50.79,7.79-50.79S236.23,346,249.36,350.39Z"/><path class="cls-124" d="M233.15,345.94l.32,3.37a4.22,4.22,0,0,0,4.2,3.82h0a4.21,4.21,0,0,0,4.21-4.22V338.82Z"/><path class="cls-124" d="M239.76,338.57c-.52,5.22-3.91,9.16-7.56,8.8s-6.19-4.91-5.67-10.13,3.92-9.17,7.57-8.81S240.29,333.34,239.76,338.57Z"/><path class="cls-124" d="M230,329.9a17.42,17.42,0,0,1,2.71-1.93c6.45-3.77,14.82,1.1,14,8.53-.24,2.12-2.44,4.83-4.79,6.6L238.77,339a9.83,9.83,0,0,0-.2-2.05C236.7,329.52,230,329.9,230,329.9Z"/><path class="cls-124" d="M244.92,330.25s2.64-5.13,7.21,0c3.82,4.27-2.77,13.71,5.17,12.88,0,0-13,8.84-12.38-8.22Z"/><path class="cls-124" d="M241.22,340.46c-.29,1.09-1.13,1.81-1.9,1.62s-1.15-1.24-.87-2.34,1.13-1.81,1.89-1.62S241.5,339.36,241.22,340.46Z"/><path class="cls-124" d="M259.43,365.15c-4.36-11.07-10.07-14.76-10.07-14.76l3.83,20.49A9,9,0,0,1,259.43,365.15Z"/><path class="cls-124" d="M259.43,365.15a9,9,0,0,0-6.24,5.73l1.16,6.2-9.43.66-2.44,3.95s22.71,8.79,20.36-4.24A65.28,65.28,0,0,0,259.43,365.15Z"/><path class="cls-124" d="M254.35,377.08s3.16-1.09,5.08-.64"/><path class="cls-124" d="M246.47,377.71l-4.94-1.91-4.82-1.68a5,5,0,0,0,2.12,1.83l-6.1-.15,1.83,1.16,4.34.75s-4,1.74-5.4,1.54c0,0,.58.77,2.51.65a19.11,19.11,0,0,1,3.14,0L235.49,382a1.5,1.5,0,0,0,1.67.4A10.85,10.85,0,0,1,240,382l2.49-.31s7.22,3.72,7.4-.9C250,377.07,246.47,377.71,246.47,377.71Z"/><path class="cls-124" d="M216,354.44l-1.14-5.84a2.77,2.77,0,0,1,.51-2.19l2.07-2.71a2,2,0,0,1,3.17.05l1.72,2.41a6.92,6.92,0,0,1,2.59-.57s1.82.09,1,1.1a16.06,16.06,0,0,0-2.66.73L221,353.94Z"/><path class="cls-124" d="M223.22,360.59a29.56,29.56,0,0,0-1,3.7L221,353.94l-5,.5c-4.14,24.87,5.55,33.26,12.1,15.66l.07-1.82A12.48,12.48,0,0,1,223.22,360.59Z"/><path class="cls-124" d="M223.22,360.59a12.48,12.48,0,0,0,5,7.69l.64-16.71C225.92,353.79,224.17,357.69,223.22,360.59Z"/><path class="cls-124" d="M222.24,364.29a19.34,19.34,0,0,1,.74,7.29"/><path class="cls-124" d="M244.92,330.25s3.09,4.22.54,8.57"/><path class="cls-339" d="M121.66,519.13c12.52.81,25.16,1.62,37.55-.4,1.56-.25,3.53-1.09,3.34-2.66-.14-1.17-1.46-1.77-2.59-2.13a83.11,83.11,0,0,0-40.29-2.29,6.26,6.26,0,0,0-3.44,1.46c-1.74,1.79-.26,5.41,2.23,5.47Z"/><path class="cls-339" d="M340.63,520.55c12.51.81,25.16,1.62,37.54-.4,1.56-.26,3.54-1.09,3.35-2.66-.15-1.17-1.46-1.77-2.59-2.13a83.15,83.15,0,0,0-40.3-2.29,6.29,6.29,0,0,0-3.44,1.46c-1.73,1.79-.25,5.41,2.24,5.47Z"/><path class="cls-339" d="M367.35,513.78c18.81,1.22,37.81,2.44,56.42-.59,2.35-.39,5.32-1.64,5-4-.22-1.76-2.19-2.66-3.89-3.2a124.89,124.89,0,0,0-60.55-3.44c-1.87.36-3.85.82-5.18,2.19-2.6,2.69-.38,8.13,3.37,8.22Z"/><path class="cls-339" d="M299.83,480c7.25.47,14.57.94,21.74-.23.9-.15,2.05-.63,1.94-1.54-.09-.68-.85-1-1.5-1.23a48.21,48.21,0,0,0-23.34-1.33,3.62,3.62,0,0,0-2,.85,2,2,0,0,0,1.3,3.16Z"/><path class="cls-340" d="M326.16,418.16c18.81,1.22,37.82,2.43,56.42-.6,2.35-.38,5.32-1.63,5-4-.22-1.77-2.19-2.67-3.89-3.2a124.9,124.9,0,0,0-60.55-3.45c-1.87.36-3.85.83-5.18,2.19-2.6,2.69-.37,8.13,3.37,8.23Z"/><line class="cls-124" x1="373.84" y1="306.24" x2="372.44" y2="312.34"/><path class="cls-124" d="M396.67,389.32l6.82,64.05h3.36s4.35-24.54-2.57-41.07l1.26-25.1S399.48,382.45,396.67,389.32Z"/><path class="cls-124" d="M391.34,387.2a94.25,94.25,0,0,1-5.84,23.52l-2.27,42.65h-3.36s-5.42-31.61,1.05-45.81l1.26-22.72S387.71,382.78,391.34,387.2Z"/><polygon class="cls-124" points="403.49 453.37 403.49 462.24 411.93 462.24 408.74 459.4 406.85 453.37 403.49 453.37"/><polygon class="cls-124" points="383.23 453.37 383.23 462.24 374.79 462.24 377.98 459.4 379.87 453.37 383.23 453.37"/><path class="cls-124" d="M380.92,358.32s-3.31,14.84-1.58,26.83c0,0,16.48,7.38,33.46,3l-.47-25.41S392,354.85,380.92,358.32Z"/><path class="cls-124" d="M389.89,331s-6,24.75-14,16.52c-4.05-4.15-2.88-21.35-2.88-21.35l3.36-1.15,3,13.86c1.56-3.8,4.85-11.6,4.85-11.6S390.51,325.07,389.89,331Z"/><path class="cls-124" d="M376.35,325l.18-7.3a4.39,4.39,0,0,0-1.19-3.12c-1.22-1.28-3-2.89-3.89-2.21-1.38,1.08.25,1.78.25,1.78a2.64,2.64,0,0,0-2.69,1.75s-1.24-.56-1,1.33c0,0-1.92,1.52-.84,3.09s5.85,5.83,5.85,5.83Z"/><path class="cls-124" d="M368.05,300.21c-.79,3.73,1.77,6.46,5.5,7.26s7.18-.64,8-4.37-.71-8.67-5.29-8.18C372.4,292.7,368.85,296.49,368.05,300.21Z"/><path class="cls-124" d="M393.14,313s-9.85-.28-12.5,12.45c0,0,2.81,1.95,9.63,4Z"/><path class="cls-124" d="M393.14,313l-12.5,45.12s15.53,9.77,31.36,4.72l3.48-49.63S404,308.41,393.14,313Z"/><path class="cls-124" d="M414.26,330.58s-2.83,25.32,7.52,20.33c5.23-2.52,10-19.08,10-19.08L429,329.6l-8.47,13.47c-.17-4.11.33-14,.33-14S415.71,324.79,414.26,330.58Z"/><path class="cls-124" d="M429,329.6l2.33-6.92a4.36,4.36,0,0,1,2.19-2.52c1.58-.8,3.82-1.69,4.4-.75.94,1.48-.84,1.58-.84,1.58a2.65,2.65,0,0,1,1.93,2.57s1.36-.11.52,1.6c0,0,1.28,2.08-.27,3.19s-7.49,3.48-7.49,3.48Z"/><path class="cls-124" d="M445.31,309.11c-.52,3.77-3.88,5.46-7.65,4.94s-6.53-3.07-6-6.84,3.64-7.91,7.78-5.88C443.8,300.56,445.83,305.34,445.31,309.11Z"/><line class="cls-124" x1="437.81" y1="312.79" x2="437.04" y2="319.01"/><path class="cls-124" d="M415.48,313.18s8.31.84,8.79,12.61a10.79,10.79,0,0,1-10,4.79Z"/><path class="cls-124" d="M396.89,302.77l.25,8.29a3.33,3.33,0,0,0,3.32,3h0a3.33,3.33,0,0,0,3.33-3.33v-8Z"/><path class="cls-124" d="M395.63,296.3s.68,23.52-8,27.31c0,0,6.47,3.55,9.86-2.61,0,0,1.23-9.22.74-14.51Z"/><path class="cls-124" d="M405.59,299.61c0,4.15-2.35,7.52-5.25,7.52s-5.25-3.37-5.25-7.52,2.35-7.52,5.25-7.52S405.6,295.46,405.59,299.61Z"/><path class="cls-124" d="M400.34,292.09s-1.55,4,3.45,5.44c0,0-1.83,10.89,1.2,20.84a10.81,10.81,0,0,0,4.93,6.34c2,1.12,4.46,1.59,6.19-1,0,0-6.15-4-5.68-11.59l4.9,1a18.39,18.39,0,0,1-4.11-12.51c.48-7.42-.63-15.31-11.83-12.68,0,0-7.11,2.65-3.76,8.41A5.6,5.6,0,0,0,400.34,292.09Z"/><g class="cls-341"><path class="cls-342" d="M533.86,533.87H0V0H533.86ZM3,530.87H530.86V3H3Z"/></g></g></g></svg>