<svg xmlns="http://www.w3.org/2000/svg" xmlns:xlink="http://www.w3.org/1999/xlink" viewBox="0 0 346.92 411.91"><defs><style>.cls-1{fill:url(#Gradiente_sem_nome_40);}.cls-2{fill:#fff;}.cls-3{fill:#0a0a0a;}.cls-4{fill:#f9f9f9;}.cls-5{fill:#ec9477;}.cls-6{fill:#393b30;}.cls-7,.cls-9{fill:none;stroke-miterlimit:10;}.cls-7{stroke:#d87d64;}.cls-8{fill:#f4ab98;}.cls-9{stroke:#fada99;stroke-width:3px;opacity:0.8;}</style><radialGradient id="Gradiente_sem_nome_40" cx="173.46" cy="205.95" r="188.91" gradientUnits="userSpaceOnUse"><stop offset="0" stop-color="#dbe271"/><stop offset="0.6" stop-color="#d4db95"/><stop offset="1" stop-color="#d1d8a8"/></radialGradient></defs><title>3-344px</title><g id="Camada_2" data-name="Camada 2"><g id="Camada_1-2" data-name="Camada 1"><rect class="cls-1" x="1.5" y="1.5" width="343.92" height="408.91"/><path class="cls-2" d="M92.41,348.43s-4.06-201.24,10-327c0,0,191.12,22,205.17,14.05,0,0-.7,303.3-7,309.63C300.55,345.15,103.5,355,92.41,348.43Z"/><path class="cls-3" d="M121.62,102.33a534.91,534.91,0,0,1,78.25,7.9c1.89.34,2.7-2.55.8-2.89a540.37,540.37,0,0,0-79-8c-1.94,0-1.93,3,0,3Z"/><path class="cls-3" d="M220,111.91a63,63,0,0,0,15.87-.87c1.89-.34,1.09-3.23-.8-2.89a59.91,59.91,0,0,1-15.07.76c-1.92-.14-1.92,2.86,0,3Z"/><path class="cls-3" d="M119.27,125.55a415.43,415.43,0,0,1,77.25,1.7c1.92.22,1.9-2.78,0-3a415.43,415.43,0,0,0-77.25-1.7c-1.92.14-1.93,3.14,0,3Z"/><path class="cls-4" d="M306.41,189.77S186.25,283.24,94.05,290.27l-1.64,58.16s48,10.15,208.14-3.28C300.55,345.15,305.07,345.3,306.41,189.77Z"/><path class="cls-3" d="M219,130.22q17.85,1.46,35.6,3.78c1.91.25,1.89-2.75,0-3q-17.76-2.33-35.6-3.78c-1.92-.16-1.91,2.84,0,3Z"/><path class="cls-3" d="M118.81,144.13q66.7,2.87,133.07,10.54c1.91.22,1.89-2.78,0-3Q185.55,144,118.81,141.13c-1.94-.08-1.93,2.92,0,3Z"/><path class="cls-3" d="M120.75,164l128.31,11.67c1.92.17,1.91-2.83,0-3L120.75,161c-1.92-.17-1.91,2.83,0,3Z"/><path class="cls-3" d="M119.27,181.69a643.82,643.82,0,0,1,126.05,9.53c1.88.33,2.69-2.56.79-2.89a648,648,0,0,0-126.84-9.64c-1.93,0-1.94,3,0,3Z"/><path class="cls-5" d="M49.36,410.41c17.64-27.58,33.4-52.52,33.4-53.55,0-2.34,12.5-18,14.06-18s20.92-17.33,27.48-49.49c0,0,10-20,10-32.17,0,0,5.93-17.33,7.1-18.5s8.83-8.82,13-26.62l7.64-16.58s4.15-17.93-17.79-13.64-33.1,46.53-33.1,46.53S103.84,247.56,99,248.65c0,0-4.57-7.69-6.91-8.63l.67-52.42s-27.48,15-31.86,15-19.83,5.15-22.79,14.52c0,0-7.18,3-9.76,9.76,0,0-1.68,25.88-3,27.17s-6.56,41.69-6.56,41.69-4.21,30.45-5.38,30.45S3.21,348.43,1.53,348.43Z"/><path class="cls-6" d="M65.78,410.41c5.11-10,8.52-16.7,8.52-16.7C56.5,370.6,1.5,348.43,1.5,348.43v62"/><path class="cls-7" d="M99,248.65s-3.12,2.19-9.84,13.28"/><path class="cls-7" d="M95.63,252.29s-6.34-.51-11.18,1.2"/><line class="cls-7" x1="91.95" y1="239.92" x2="81.96" y2="231.95"/><path class="cls-8" d="M143.47,185.26s-6.25,11.24-6.25,13.12,6.52,0,14.49,6.71a16.23,16.23,0,0,1,2.3,3.67c.9,1.77,6.63-13.58,6.63-13.58S163.06,181.75,143.47,185.26Z"/><path d="M126.73,52.21l2.61.21L127.82,71l-2.61-.22Zm0,16.24,10.65.86-.2,2.49-10.65-.87Z"/><path d="M142.85,72.26l-2.61-.21,1.52-18.61,2.61.21Z"/><path d="M151.69,73.17l-1.18-.35a9.72,9.72,0,0,1-2.18-.95,9.49,9.49,0,0,1-1.85-1.44l1.79-1.87a7.32,7.32,0,0,0,2.23,1.58,8.3,8.3,0,0,0,2.74.68,5.61,5.61,0,0,0,3.2-.49,2.4,2.4,0,0,0,1.28-2h0a2.17,2.17,0,0,0-.38-1.58,2.94,2.94,0,0,0-1.23-.95,14,14,0,0,0-2-.68l-.08,0-.08,0-.19-.05a20.5,20.5,0,0,1-3-1,4.31,4.31,0,0,1-1.89-1.64,4.88,4.88,0,0,1-.58-3.11h0a5.38,5.38,0,0,1,1-2.88,4.85,4.85,0,0,1,2.41-1.68,8.88,8.88,0,0,1,3.63-.35,9.11,9.11,0,0,1,1.94.37,9.53,9.53,0,0,1,1.86.81,10.38,10.38,0,0,1,1.76,1.23l-1.65,2a8.68,8.68,0,0,0-2-1.34,6,6,0,0,0-2.08-.57,5.14,5.14,0,0,0-3,.52,2.56,2.56,0,0,0-1.23,2.08h0a2.06,2.06,0,0,0,.42,1.55,3.25,3.25,0,0,0,1.29.93,19.51,19.51,0,0,0,2.22.72l.09,0,.1,0,.13,0,.14,0a15.13,15.13,0,0,1,2.76,1,4.42,4.42,0,0,1,1.77,1.69,4.9,4.9,0,0,1,.53,2.94v0a5.2,5.2,0,0,1-1,2.85A5,5,0,0,1,156.78,73a9.59,9.59,0,0,1-3.74.33Z"/><path d="M162.56,55.13l13.13,1.07-.2,2.48-13.14-1.07Zm5.13,1.95,2.62.21-1.4,17.09-2.61-.21Z"/><path d="M182.17,56.72l2.22.19,5.35,19.17-2.82-.23L183,60.41,176.61,75l-2.82-.23Zm-4.68,11.75,9.79.8-.2,2.48-9.79-.8Z"/><rect class="cls-9" x="1.5" y="1.5" width="343.92" height="408.91"/></g></g></svg>