<svg id="Camada_1" data-name="Camada 1" xmlns="http://www.w3.org/2000/svg" xmlns:xlink="http://www.w3.org/1999/xlink" viewBox="0 0 321.69 343.68"><defs><style>.cls-1{fill:none;}.cls-2{clip-path:url(#clip-path);}.cls-3{fill:#97db81;}.cls-4{fill:#98db83;}.cls-5{fill:#9adc84;}.cls-6{fill:#9bdc86;}.cls-7{fill:#9cdd87;}.cls-8{fill:#9ddd89;}.cls-9{fill:#9ede8a;}.cls-10{fill:#a0de8c;}.cls-11{fill:#a1de8d;}.cls-12{fill:#a2df8f;}.cls-13{fill:#a3df90;}.cls-14{fill:#a5e091;}.cls-15{fill:#a6e093;}.cls-16{fill:#a7e194;}.cls-17{fill:#a8e196;}.cls-18{fill:#a9e197;}.cls-19{fill:#abe299;}.cls-20{fill:#ace29a;}.cls-21{fill:#ade39b;}.cls-22{fill:#aee39d;}.cls-23{fill:#afe39e;}.cls-24{fill:#b0e4a0;}.cls-25{fill:#b1e4a1;}.cls-26{fill:#b3e5a2;}.cls-27{fill:#b4e5a4;}.cls-28{fill:#b5e5a5;}.cls-29{fill:#b6e6a7;}.cls-30{fill:#b7e6a8;}.cls-31{fill:#b8e7a9;}.cls-32{fill:#b9e7ab;}.cls-33{fill:#bae7ac;}.cls-34{fill:#bce8ad;}.cls-35{fill:#bde8af;}.cls-36{fill:#bee8b0;}.cls-37{fill:#bfe9b1;}.cls-38{fill:#c0e9b2;}.cls-39{fill:#c1eab4;}.cls-40{fill:#c2eab5;}.cls-41{fill:#c3eab6;}.cls-42{fill:#c4ebb8;}.cls-43{fill:#c5ebb9;}.cls-44{fill:#c6ebba;}.cls-45{fill:#c7ecbb;}.cls-46{fill:#c8ecbd;}.cls-47{fill:#c9ecbe;}.cls-48{fill:#caedbf;}.cls-49{fill:#cbedc0;}.cls-50{fill:#ccedc1;}.cls-51{fill:#cdeec3;}.cls-52{fill:#ceeec4;}.cls-53{fill:#cfeec5;}.cls-54{fill:#d0efc6;}.cls-55{fill:#d1efc7;}.cls-56{fill:#d2efc8;}.cls-57{fill:#d3f0ca;}.cls-58{fill:#d4f0cb;}.cls-59{fill:#d5f0cc;}.cls-60{fill:#d6f1cd;}.cls-61{fill:#d7f1ce;}.cls-62{fill:#d8f1cf;}.cls-63{fill:#d8f2d0;}.cls-64{fill:#d9f2d1;}.cls-65{fill:#daf2d2;}.cls-66{fill:#dbf3d4;}.cls-67{fill:#dcf3d5;}.cls-68{fill:#ddf3d6;}.cls-69{fill:#def3d7;}.cls-70{fill:#dff4d8;}.cls-71{fill:#dff4d9;}.cls-72{fill:#e0f4da;}.cls-73{fill:#e1f5db;}.cls-74{fill:#e2f5dc;}.cls-75{fill:#e3f5dd;}.cls-76{fill:#e4f5de;}.cls-77{fill:#e4f6df;}.cls-78{fill:#e5f6e0;}.cls-79{fill:#e6f6e1;}.cls-80{fill:#e7f7e2;}.cls-81{fill:#e8f7e3;}.cls-82{fill:#e9f7e4;}.cls-83{fill:#eaf8e5;}.cls-84{fill:#eaf8e6;}.cls-85{fill:#ebf8e7;}.cls-86{fill:#ecf8e8;}.cls-87{fill:#edf9e9;}.cls-88{fill:#eef9ea;}.cls-89{fill:#eff9eb;}.cls-90{fill:#effaec;}.cls-91{fill:#f0faed;}.cls-92{fill:#f1faee;}.cls-93{fill:#f2faef;}.cls-94{fill:#f2fbf0;}.cls-95{fill:#f3fbf1;}.cls-96{fill:#f4fbf1;}.cls-97{fill:#f4fbf2;}.cls-98{fill:#f5fbf3;}.cls-99{fill:#f5fcf3;}.cls-100{fill:#f6fcf4;}.cls-101{fill:#f7fcf5;}.cls-102{fill:#f8fcf6;}.cls-103{fill:#f8fdf7;}.cls-104{fill:#f9fdf7;}.cls-105{fill:#f9fdf8;}.cls-106{fill:#fafdf8;}.cls-107{fill:#fafdf9;}.cls-108{fill:#fbfefa;}.cls-109{fill:#fcfefb;}.cls-110{fill:#fcfefc;}.cls-111{fill:#fdfefc;}.cls-112{fill:#fdfefd;}.cls-113{fill:#fefffd;}.cls-114{fill:#fefffe;}.cls-115{fill:#fff;}.cls-116{fill:#3a1e1c;}.cls-117{clip-path:url(#clip-path-3);}.cls-118{fill:#d58068;}.cls-119{fill:#d68169;}.cls-120{fill:#d78269;}.cls-121{fill:#d8836a;}.cls-122{fill:#d9846b;}.cls-123{fill:#da856b;}.cls-124{fill:#db856c;}.cls-125{fill:#dc866d;}.cls-126{fill:#dd876d;}.cls-127{fill:#de886e;}.cls-128{fill:#df896f;}.cls-129{fill:#e18a70;}.cls-130{fill:#e28b70;}.cls-131{fill:#e38c71;}.cls-132{fill:#e48d72;}.cls-133{fill:#e58e72;}.cls-134{fill:#e68f73;}.cls-135{fill:#e78f74;}.cls-136{fill:#e89074;}.cls-137{fill:#e99175;}.cls-138{fill:#ea9276;}.cls-139{fill:#eb9376;}.cls-140{fill:#ec9477;}.cls-141{fill:#3d201f;}.cls-142{fill:#b2574d;}.cls-143{fill:#f6a7a7;}.cls-144{fill:#802222;}.cls-145{fill:#983737;}.cls-146{fill:#312235;}.cls-147{fill:#5b1f3c;}.cls-148{fill:#b0514e;}.cls-149{fill:#e8e8e8;}.cls-150{opacity:0.8;}.cls-151{fill:#fada99;}</style><clipPath id="clip-path"><rect class="cls-1" width="321.69" height="343.68"/></clipPath><clipPath id="clip-path-3"><path class="cls-1" d="M143.52,177.67,141.8,185s-14.56,9.6-27.7,8.84c-3.9-.23,49.5,31.89,52.41,32s25.11-37.37,25.11-37.37-14.91-2.79-19.85-3-10.56-13.63-10.56-13.63Z"/></clipPath></defs><title>8-322px</title><g class="cls-2"><g class="cls-2"><rect class="cls-3" width="321.69" height="343.68"/><circle class="cls-3" cx="160.85" cy="171.84" r="166.43"/><circle class="cls-4" cx="160.85" cy="171.84" r="165.11"/><circle class="cls-5" cx="160.85" cy="171.84" r="163.79"/><circle class="cls-6" cx="160.85" cy="171.84" r="162.47"/><circle class="cls-7" cx="160.85" cy="171.84" r="161.15"/><circle class="cls-8" cx="160.85" cy="171.84" r="159.83"/><circle class="cls-9" cx="160.85" cy="171.84" r="158.51"/><circle class="cls-10" cx="160.85" cy="171.84" r="157.19"/><circle class="cls-11" cx="160.85" cy="171.84" r="155.87"/><circle class="cls-12" cx="160.85" cy="171.84" r="154.55"/><circle class="cls-13" cx="160.85" cy="171.84" r="153.22"/><circle class="cls-14" cx="160.85" cy="171.84" r="151.9"/><circle class="cls-15" cx="160.85" cy="171.84" r="150.58"/><circle class="cls-16" cx="160.85" cy="171.84" r="149.26"/><circle class="cls-17" cx="160.85" cy="171.84" r="147.94"/><circle class="cls-18" cx="160.85" cy="171.84" r="146.62"/><circle class="cls-19" cx="160.85" cy="171.84" r="145.3"/><circle class="cls-20" cx="160.85" cy="171.84" r="143.98"/><circle class="cls-21" cx="160.85" cy="171.84" r="142.66"/><circle class="cls-22" cx="160.85" cy="171.84" r="141.34"/><circle class="cls-23" cx="160.85" cy="171.84" r="140.02"/><circle class="cls-24" cx="160.85" cy="171.84" r="138.69"/><circle class="cls-25" cx="160.85" cy="171.84" r="137.37"/><circle class="cls-26" cx="160.85" cy="171.84" r="136.05"/><circle class="cls-27" cx="160.85" cy="171.84" r="134.73"/><circle class="cls-28" cx="160.85" cy="171.84" r="133.41"/><circle class="cls-29" cx="160.85" cy="171.84" r="132.09"/><circle class="cls-30" cx="160.85" cy="171.84" r="130.77"/><circle class="cls-31" cx="160.85" cy="171.84" r="129.45"/><circle class="cls-32" cx="160.85" cy="171.84" r="128.13"/><circle class="cls-33" cx="160.85" cy="171.84" r="126.81"/><circle class="cls-34" cx="160.85" cy="171.84" r="125.49"/><circle class="cls-35" cx="160.85" cy="171.84" r="124.16"/><circle class="cls-36" cx="160.85" cy="171.84" r="122.84"/><circle class="cls-37" cx="160.85" cy="171.84" r="121.52"/><circle class="cls-38" cx="160.85" cy="171.84" r="120.2"/><circle class="cls-39" cx="160.85" cy="171.84" r="118.88"/><circle class="cls-40" cx="160.85" cy="171.84" r="117.56"/><circle class="cls-41" cx="160.85" cy="171.84" r="116.24"/><circle class="cls-42" cx="160.85" cy="171.84" r="114.92"/><circle class="cls-43" cx="160.85" cy="171.84" r="113.6"/><circle class="cls-44" cx="160.85" cy="171.84" r="112.28"/><circle class="cls-45" cx="160.85" cy="171.84" r="110.96"/><circle class="cls-46" cx="160.85" cy="171.84" r="109.63"/><circle class="cls-47" cx="160.85" cy="171.84" r="108.31"/><circle class="cls-48" cx="160.85" cy="171.84" r="106.99"/><circle class="cls-49" cx="160.85" cy="171.84" r="105.67"/><circle class="cls-50" cx="160.85" cy="171.84" r="104.35"/><circle class="cls-51" cx="160.85" cy="171.84" r="103.03"/><circle class="cls-52" cx="160.85" cy="171.84" r="101.71"/><circle class="cls-53" cx="160.85" cy="171.84" r="100.39"/><circle class="cls-54" cx="160.85" cy="171.84" r="99.07"/><circle class="cls-55" cx="160.85" cy="171.84" r="97.75"/><circle class="cls-56" cx="160.85" cy="171.84" r="96.43"/><circle class="cls-57" cx="160.85" cy="171.84" r="95.1"/><circle class="cls-58" cx="160.85" cy="171.84" r="93.78"/><circle class="cls-59" cx="160.85" cy="171.84" r="92.46"/><circle class="cls-60" cx="160.85" cy="171.84" r="91.14"/><circle class="cls-61" cx="160.85" cy="171.84" r="89.82"/><circle class="cls-62" cx="160.85" cy="171.84" r="88.5"/><circle class="cls-63" cx="160.85" cy="171.84" r="87.18"/><circle class="cls-64" cx="160.85" cy="171.84" r="85.86"/><circle class="cls-65" cx="160.85" cy="171.84" r="84.54"/><circle class="cls-66" cx="160.85" cy="171.84" r="83.22"/><circle class="cls-67" cx="160.85" cy="171.84" r="81.9"/><circle class="cls-68" cx="160.85" cy="171.84" r="80.58"/><circle class="cls-69" cx="160.85" cy="171.84" r="79.25"/><circle class="cls-70" cx="160.85" cy="171.84" r="77.93"/><circle class="cls-71" cx="160.85" cy="171.84" r="76.61"/><circle class="cls-72" cx="160.85" cy="171.84" r="75.29"/><circle class="cls-73" cx="160.85" cy="171.84" r="73.97"/><circle class="cls-74" cx="160.85" cy="171.84" r="72.65"/><circle class="cls-75" cx="160.85" cy="171.84" r="71.33"/><circle class="cls-76" cx="160.85" cy="171.84" r="70.01"/><circle class="cls-77" cx="160.85" cy="171.84" r="68.69"/><circle class="cls-78" cx="160.85" cy="171.84" r="67.37"/><circle class="cls-79" cx="160.85" cy="171.84" r="66.05"/><circle class="cls-80" cx="160.85" cy="171.84" r="64.72"/><circle class="cls-80" cx="160.85" cy="171.84" r="63.4"/><circle class="cls-81" cx="160.85" cy="171.84" r="62.08"/><circle class="cls-82" cx="160.85" cy="171.84" r="60.76"/><circle class="cls-83" cx="160.85" cy="171.84" r="59.44"/><circle class="cls-84" cx="160.85" cy="171.84" r="58.12"/><circle class="cls-85" cx="160.85" cy="171.84" r="56.8"/><circle class="cls-86" cx="160.85" cy="171.84" r="55.48"/><circle class="cls-87" cx="160.85" cy="171.84" r="54.16"/><circle class="cls-87" cx="160.85" cy="171.84" r="52.84"/><circle class="cls-88" cx="160.85" cy="171.84" r="51.52"/><circle class="cls-89" cx="160.85" cy="171.84" r="50.19"/><circle class="cls-90" cx="160.85" cy="171.84" r="48.87"/><circle class="cls-91" cx="160.85" cy="171.84" r="47.55"/><circle class="cls-92" cx="160.85" cy="171.84" r="46.23"/><circle class="cls-92" cx="160.85" cy="171.84" r="44.91"/><circle class="cls-93" cx="160.85" cy="171.84" r="43.59"/><circle class="cls-94" cx="160.85" cy="171.84" r="42.27"/><circle class="cls-95" cx="160.85" cy="171.84" r="40.95"/><circle class="cls-96" cx="160.85" cy="171.84" r="39.63"/><circle class="cls-97" cx="160.85" cy="171.84" r="38.31"/><circle class="cls-98" cx="160.85" cy="171.84" r="36.99"/><circle class="cls-99" cx="160.85" cy="171.84" r="35.66"/><circle class="cls-100" cx="160.85" cy="171.84" r="34.34"/><circle class="cls-101" cx="160.85" cy="171.84" r="33.02"/><circle class="cls-101" cx="160.85" cy="171.84" r="31.7"/><circle class="cls-102" cx="160.85" cy="171.84" r="30.38"/><circle class="cls-103" cx="160.85" cy="171.84" r="29.06"/><circle class="cls-104" cx="160.85" cy="171.84" r="27.74"/><circle class="cls-105" cx="160.85" cy="171.84" r="26.42"/><circle class="cls-106" cx="160.85" cy="171.84" r="25.1"/><circle class="cls-107" cx="160.85" cy="171.84" r="23.78"/><circle class="cls-107" cx="160.85" cy="171.84" r="22.46"/><circle class="cls-108" cx="160.85" cy="171.84" r="21.13"/><circle class="cls-108" cx="160.85" cy="171.84" r="19.81"/><circle class="cls-109" cx="160.85" cy="171.84" r="18.49"/><circle class="cls-109" cx="160.85" cy="171.84" r="17.17"/><circle class="cls-110" cx="160.85" cy="171.84" r="15.85"/><circle class="cls-111" cx="160.85" cy="171.84" r="14.53"/><circle class="cls-112" cx="160.85" cy="171.84" r="13.21"/><circle class="cls-112" cx="160.85" cy="171.84" r="11.89"/><circle class="cls-113" cx="160.85" cy="171.84" r="10.57"/><circle class="cls-114" cx="160.85" cy="171.84" r="9.25"/><circle class="cls-114" cx="160.85" cy="171.84" r="7.93"/><circle class="cls-114" cx="160.85" cy="171.84" r="6.6"/><circle class="cls-115" cx="160.85" cy="171.84" r="5.28"/><circle class="cls-115" cx="160.85" cy="171.84" r="3.96"/><circle class="cls-115" cx="160.85" cy="171.84" r="2.64"/><circle class="cls-115" cx="160.85" cy="171.84" r="1.32"/></g><path class="cls-115" d="M89.17,360.29S107.05,344,107.05,340.2,96.57,334,96.57,334L81.66,356l7,5.46Z"/><path class="cls-116" d="M105.72,206.88s-34.26-98.24,5.44-148.21c0,0,42.45-29.67,74.17,5.2s9.48,133,9.48,133Z"/><g class="cls-117"><polygon class="cls-118" points="191.62 172.07 110.2 179.8 110.2 171.84 191.62 171.84 191.62 172.07"/><polygon class="cls-118" points="191.62 172.68 110.2 180.41 110.2 179.8 191.62 172.07 191.62 172.68"/><polygon class="cls-119" points="191.62 173.29 110.2 181.02 110.2 180.41 191.62 172.68 191.62 173.29"/><polygon class="cls-120" points="191.62 173.89 110.2 181.62 110.2 181.02 191.62 173.29 191.62 173.89"/><polygon class="cls-121" points="191.62 174.5 110.2 182.23 110.2 181.62 191.62 173.89 191.62 174.5"/><polygon class="cls-122" points="191.62 175.1 110.2 182.83 110.2 182.23 191.62 174.5 191.62 175.1"/><polygon class="cls-123" points="191.62 175.71 110.2 183.44 110.2 182.83 191.62 175.1 191.62 175.71"/><polygon class="cls-124" points="191.62 176.32 110.2 184.05 110.2 183.44 191.62 175.71 191.62 176.32"/><polygon class="cls-125" points="191.62 176.92 110.2 184.65 110.2 184.05 191.62 176.32 191.62 176.92"/><polygon class="cls-126" points="191.62 177.53 110.2 185.26 110.2 184.65 191.62 176.92 191.62 177.53"/><polygon class="cls-127" points="191.62 178.13 110.2 185.86 110.2 185.26 191.62 177.53 191.62 178.13"/><polygon class="cls-128" points="191.62 178.74 110.2 186.47 110.2 185.86 191.62 178.13 191.62 178.74"/><polygon class="cls-129" points="191.62 179.34 110.2 187.08 110.2 186.47 191.62 178.74 191.62 179.34"/><polygon class="cls-130" points="191.62 179.95 110.2 187.68 110.2 187.08 191.62 179.34 191.62 179.95"/><polygon class="cls-131" points="191.62 180.56 110.2 188.29 110.2 187.68 191.62 179.95 191.62 180.56"/><polygon class="cls-132" points="191.62 181.16 110.2 188.89 110.2 188.29 191.62 180.56 191.62 181.16"/><polygon class="cls-133" points="191.62 181.77 110.2 189.5 110.2 188.89 191.62 181.16 191.62 181.77"/><polygon class="cls-134" points="191.62 182.38 110.2 190.1 110.2 189.5 191.62 181.77 191.62 182.38"/><polygon class="cls-135" points="191.62 182.98 110.2 190.71 110.2 190.1 191.62 182.38 191.62 182.98"/><polygon class="cls-136" points="191.62 183.59 110.2 191.32 110.2 190.71 191.62 182.98 191.62 183.59"/><polygon class="cls-137" points="191.62 184.19 110.2 191.92 110.2 191.32 191.62 183.59 191.62 184.19"/><polygon class="cls-138" points="191.62 184.8 110.2 192.53 110.2 191.92 191.62 184.19 191.62 184.8"/><polygon class="cls-139" points="191.62 185.41 110.2 193.13 110.2 192.53 191.62 184.8 191.62 185.41"/><polygon class="cls-140" points="191.62 186.01 110.2 193.74 110.2 193.13 191.62 185.41 191.62 186.01"/><polygon class="cls-140" points="110.49 225.92 110.2 222.67 110.2 193.74 191.62 186.01 191.62 225.92 110.49 225.92"/></g><path class="cls-140" d="M110.41,104s-.65,82.55,47.3,75.77c25.93-3.66,34.71-30.11,29.86-52.84A145.52,145.52,0,0,1,184.81,92s-3-21.89-28.28-15.13-36.26,4.26-36.26,4.26S108.9,83.54,110.41,104Z"/><path class="cls-116" d="M106.37,108.57s18.32-2.07,26.61-5.72l.42-11.47s1.86,7.4,3.54,9.25,16.72-.55,23.4-2.67,3.5-11,3.5-11L167,95.84s20.87,2.56,21-.7-2.82-18.41-8.92-21.42-54-3.3-60.69,3.06S106.7,99.47,106.37,108.57Z"/><ellipse class="cls-141" cx="175.09" cy="115.19" rx="2.86" ry="2.36" transform="translate(-11.31 19.37) rotate(-6.14)"/><ellipse class="cls-141" cx="147.76" cy="117.56" rx="2.86" ry="2.36" transform="translate(-11.72 16.47) rotate(-6.14)"/><path class="cls-142" d="M160.09,146.22a11.16,11.16,0,0,1-3.92-.63l.45-1.26c3.59,1.35,9.86,0,11-2.34.73-1.49-1-3.05-2.65-4.1-5.24-3.39-4-7-3.95-7.16l1.24.46c0,.11-.87,2.79,3.41,5.56,3.76,2.44,3.78,4.52,3.14,5.84C167.67,144.92,163.7,146.22,160.09,146.22Z"/><path class="cls-115" d="M137.27,186.71s16.45,10.17,27,8.8c5-.66,13.84-10.42,13.84-10.42l9.47,96.68-36.37,1.67Z"/><path class="cls-116" d="M177.88,110s-4.71-3.29-7.48.07a.68.68,0,0,0-.15.93c.37.53,1-1.6,7.45-.35C177.7,110.66,178.11,110.74,177.88,110Z"/><path class="cls-116" d="M140.09,114.12s4.85,2.79,7.42-.64a.63.63,0,0,0,.1-.89c-.39-.49-.87,1.6-7.38.9C140.23,113.49,139.82,113.44,140.09,114.12Z"/><ellipse class="cls-143" cx="182.29" cy="127.85" rx="2.7" ry="4.55" transform="translate(39.16 298.42) rotate(-85.04)"/><ellipse class="cls-143" cx="133.92" cy="134.74" rx="4.56" ry="2.7" transform="translate(-27.35 34.34) rotate(-13.27)"/><path class="cls-144" d="M217.84,282.88s-1.29,8.94-2.87,13.18-.2,18.37-.2,18.37,12.8,40.51,13.46,47.32-6,13.62-6,13.62l-37.1-26.56-28.83,32.26s-25.92-8.06-34-12.16c-18.47-9.4-19.2-15.31-19.2-15.31s7.35-29.56,18.26-45.71c0,0,.58-19.69-7.07-31.4s-12.07-21.2-12.37-24.23c0,0-18.5,21.38-31.14,35.16a10.21,10.21,0,0,1-1.14,8s26.3,36.72,31.51,37.09L80.86,359l-57.6-62.43s-2.06-7,1.94-10,31.38-37.19,31.38-37.19h0c6.89-10.16,12.74-18.68,14.33-20.66,0,0,2.67-13.53,8-15.09s12.82-22.21,12.82-22.21,16.61-4,26.48-2.7a46.39,46.39,0,0,0,19.05-1.94L180,271.07l-1.93-86s11.63.09,14-1,9,2.32,10.39,3.46l29.32,46.76s38,49.17,23.19,64c-6.79,6.79-37.18-15.39-37.18-15.39"/><path class="cls-118" d="M89.17,360.29s8.91,8,10.72,6.14L109,340.2A102.4,102.4,0,0,0,89.17,360.29Z"/><path class="cls-140" d="M101.84,361.16s4.31-4.36,10.86,2.09,7.07,6.9,7.07,6.9,5.08,2.15,5.49-3.44c0,0,6.43,1,5-6.26,0,0,4.48-3.29.52-9,0,0,4-.79,1.63-8.54s-17.56-15.26-17.56-15.26-7.26-2.6-7.9,6c0,0-5.24.28-3.41,7.73,0,0-3.4,3.14-2.67,6.54s-.08,2.73-.08,2.73S95.93,356.27,101.84,361.16Z"/><path class="cls-142" d="M129.8,360.94c-.13-.12-12.5-12-21.48-16.91l.63-1.18c9.13,5,21.63,17,21.75,17.11Z"/><path class="cls-142" d="M130.26,351.91c-.11-.13-11.06-13.27-20-16.12l.4-1.28c9.29,3,20.14,16,20.6,16.53Z"/><path class="cls-145" d="M137.27,186.71s-17.64,8.68-27.19,23.42l32.41,9.44s-11,11.07-10.8,13.47,48.34,38,48.34,38,24.5-45.84,21.78-48.11-17.75-5.08-17.75-5.08,14.23-20.57,16.71-20.82-20.44-12.19-22.67-12,1.84,82.18,1.84,82.18l-.11,1.78Z"/><path class="cls-146" d="M180,271.07s6.77,61,5.11,77.74"/><ellipse class="cls-145" cx="190.07" cy="289.46" rx="3.9" ry="3.97"/><ellipse class="cls-145" cx="191.62" cy="317.78" rx="3.9" ry="3.97"/><path class="cls-147" d="M104.27,239.8l-1.29-.31a57.68,57.68,0,0,0-8.4-45.11l1.09-.77A59.14,59.14,0,0,1,104.27,239.8Z"/><path class="cls-147" d="M217.71,241.39l-1.32-.12c.8-9.09-2.45-18.21-5.32-26.26-3.39-9.52-7.24-20.32-14.59-28.12l1-.93c7.55,8,11.45,18.94,14.89,28.59C215.23,222.73,218.53,232,217.71,241.39Z"/><path class="cls-147" d="M83.62,219.14a20.51,20.51,0,0,0-2.51-5.1l1.08-.77a21.69,21.69,0,0,1,2.68,5.44Z"/><path class="cls-147" d="M76.32,231a24.83,24.83,0,0,0-4.38-.61L72,229a26.5,26.5,0,0,1,4.62.65Z"/><path class="cls-147" d="M221.62,266.75l-1.31-.15a55.57,55.57,0,0,0,.31-8.84l1.32-.06A55.83,55.83,0,0,1,221.62,266.75Z"/><path class="cls-147" d="M123.57,308.42l-.69-1.15a43.72,43.72,0,0,1,8.53-4.16l.44,1.27A42.29,42.29,0,0,0,123.57,308.42Z"/><path class="cls-147" d="M70.25,288.1c-1.88,0-7.35-.18-9.27-2.14l.93-.95c1.54,1.56,6.94,1.79,8.89,1.73l0,1.35Z"/><path class="cls-147" d="M63.82,298.27v-1.35c2.42,0,5.46-2.06,5.49-2.08L70,296C69.91,296.06,66.64,298.27,63.82,298.27Z"/><path class="cls-148" d="M156.09,158.19l-.32-.39c.37-.3,9-7.48,14.48-4.75l-.22.45C164.88,150.91,156.18,158.11,156.09,158.19Z"/><path class="cls-140" d="M186,189.61c.83-1.18.22-2.39.62-3.7,1.17-3.79,0-16.94,2.18-20.25a4.54,4.54,0,0,0,.9-2.84,4,4,0,0,0-2.84-3.21c-1.48-.41-4.39,1-4.39,1-2.12.93-5.64,15.14-7.76,16.07-3.49,1.53-7-2-11.05-3.17-3.36-1-4.9-4.64-7.33-7.16s-8.3-12.83-10.66-15.27a5.94,5.94,0,0,0-2-1.57c-2.29-.86-4.14,1.7-3.57,3.91s4.47,11.41,6,13.26,3.41,3.65,4.28,5.67a1.93,1.93,0,0,1,.22,1.22c-.32,1-2,1.49-3.1,1.88-2.83,1,2.87,8.6.13,9.81-1.25.56-1.6-.14-2.6.73s0,3.37.36,4.58.63,2.46-.67,2.45c-.41,0-1.27,1.24-1.65,1.35-.68.19-.3,1.47-.07,2.15,1.23,3.76,1.83,4.39,5.26,6.86a63.85,63.85,0,0,0,11.16,6,14.88,14.88,0,0,0,4.7,1.53,6.09,6.09,0,0,0,.74,0l0,0,9.06,2.77,14.92-18.73A6.8,6.8,0,0,1,186,189.61Z"/><path class="cls-118" d="M174.11,214.25l-9.39-2.87h0a5.86,5.86,0,0,1-.59,0,16,16,0,0,1-4.86-1.57,64.05,64.05,0,0,1-11.24-6c-3.51-2.52-4.16-3.21-5.45-7.1a3.28,3.28,0,0,1-.18-2.31.93.93,0,0,1,.59-.49,4,4,0,0,0,.5-.48c.46-.47.85-.88,1.29-.88h0c.12,0,.3,0,.36-.1.21-.26-.07-1.24-.2-1.72l-.14-.48c-.46-1.57-1.09-3.72-.06-4.61a2.1,2.1,0,0,1,1.66-.6,2.33,2.33,0,0,0,1.07-.2c.95-.42.25-2.5-.36-4.34-.8-2.35-1.62-4.79.26-5.49l.47-.17c.9-.31,2.12-.74,2.32-1.38a1.6,1.6,0,0,0-.2-.88,18.53,18.53,0,0,0-3.16-4.35c-.36-.4-.72-.8-1-1.2-1.59-1.89-5.51-11.12-6.12-13.46a4,4,0,0,1,1.16-3.91,2.92,2.92,0,0,1,3.07-.58,6.35,6.35,0,0,1,2.21,1.68,69.78,69.78,0,0,1,5.39,7.71,69.55,69.55,0,0,0,5.27,7.56,27.21,27.21,0,0,1,2.15,2.64c1.44,1.94,2.81,3.77,4.95,4.38a23.41,23.41,0,0,1,4.07,1.77c2.45,1.26,4.57,2.34,6.65,1.43.86-.38,2.45-4.64,3.61-7.75,1.8-4.81,3-7.79,4.15-8.32.3-.14,3.11-1.49,4.73-1a4.46,4.46,0,0,1,3.2,3.64,5.13,5.13,0,0,1-1,3.16c-1.16,1.8-1.3,7.07-1.43,11.71-.09,3.48-.18,6.77-.69,8.42a4.79,4.79,0,0,0-.13,1.42,3.88,3.88,0,0,1-.46,2.26,6.18,6.18,0,0,0,2.57,4.77l.48.3-.35.44Zm-8.43-3.62,8.07,2.47L188.13,195a7.39,7.39,0,0,1-2.6-5.39v-.18l.1-.14a2.81,2.81,0,0,0,.38-1.83,5.57,5.57,0,0,1,.18-1.72c.46-1.53.55-4.75.64-8.16.14-5,.28-10.18,1.59-12.22a4.14,4.14,0,0,0,.82-2.53,3.47,3.47,0,0,0-2.47-2.77c-1.06-.29-3.28.61-4,1s-2.47,4.65-3.63,7.76c-1.8,4.81-3,7.79-4.15,8.32-2.51,1.1-4.94-.14-7.5-1.46a22.56,22.56,0,0,0-3.89-1.69c-2.47-.72-4-2.77-5.48-4.75a27.24,27.24,0,0,0-2.07-2.54,67.46,67.46,0,0,1-5.39-7.72,69.6,69.6,0,0,0-5.27-7.55,5.65,5.65,0,0,0-1.85-1.45,1.94,1.94,0,0,0-2,.39,3,3,0,0,0-.86,2.92c.58,2.22,4.43,11.3,5.92,13.07.32.39.67.78,1,1.18a18.78,18.78,0,0,1,3.32,4.61,2.24,2.24,0,0,1,.24,1.57c-.34,1.13-1.78,1.63-2.94,2l-.45.16c-.9.33-.43,2,.33,4.24s1.61,4.77-.18,5.56a3.32,3.32,0,0,1-1.47.29,1.16,1.16,0,0,0-1,.35c-.55.47.09,2.65.36,3.58l.15.5c.24.86.53,1.93,0,2.59a1.51,1.51,0,0,1-1.18.49c-.05,0-.38.38-.57.58a2.51,2.51,0,0,1-1,.75s-.13.29.27,1.51c1.21,3.66,1.71,4.19,5.08,6.61a63.67,63.67,0,0,0,11.07,5.91,14.91,14.91,0,0,0,4.54,1.48,3.57,3.57,0,0,0,.46,0l1.22,0Z"/><path class="cls-144" d="M242.71,258.66C226,236,198.66,207,195.52,202.35c-4.57-6.68-17.09,18.25-17.09,18.25s22.18,44.93,37.23,60S249.92,299,249.92,299"/><path class="cls-147" d="M249.83,299.46c-.19,0-19.54-3.54-34.52-18.52s-37.1-59.67-37.32-60.12l-.11-.22.11-.22c.39-.79,9.73-19.28,15.42-19.66a2.7,2.7,0,0,1,2.52,1.35c1.06,1.55,5,6,10.38,12.1,10.29,11.66,25.84,29.29,36.8,44.19l-.8.59c-10.93-14.86-26.47-32.47-36.75-44.12-5.43-6.15-9.36-10.59-10.45-12.2a1.76,1.76,0,0,0-1.64-.91c-4.18.28-11.76,13.51-14.48,18.89,1.72,3.45,22.75,45.34,37,59.62,14.77,14.77,33.8,18.21,34,18.25Z"/><path class="cls-115" d="M177.25,221.21S199,206.94,199.57,203s-10.51-8-10.51-8L169.7,215.59l6.83,6.73Z"/><path class="cls-149" d="M176.62,223.1,169,215.6l19.92-21.23.31.12c1.17.43,11.42,4.34,10.84,8.57-.55,4-19.83,16.78-22.46,18.51Zm-6.22-7.53,6,6,.53-.74c8.67-5.69,21.72-15.14,22.09-17.87s-6.72-6.17-9.88-7.38Z"/><path class="cls-115" d="M224.86,77.54a2.64,2.64,0,0,0-2.35.46,6.58,6.58,0,0,0-1.6,1.88,31.09,31.09,0,0,0-2.46,4.63,1.66,1.66,0,0,0-.19.78c.06.76,1,1.08,1.53,1.61,1,.95.77,2.63,1.48,3.83.92,1.56,3.09,1.78,4.89,1.55a11.42,11.42,0,0,0,6.11-2.45,6.49,6.49,0,0,0,2.3-5.94,6.66,6.66,0,0,0-3-4.15A13.78,13.78,0,0,0,226.62,78"/><path class="cls-115" d="M237.76,61.65a13.07,13.07,0,0,0-1.19,3,3.44,3.44,0,0,0,0,2.15,4,4,0,0,0,1.76,1.69,22.82,22.82,0,0,0,5.05,2.61,14.08,14.08,0,0,0,4.37.61c2.49,0,5.13-.62,6.8-2.46,1.85-2,2.08-5,2.22-7.72a3.27,3.27,0,0,0-.41-2.17,3.21,3.21,0,0,0-1.48-.9l-4.56-1.73a16.82,16.82,0,0,0-4.15-1.19,8.57,8.57,0,0,0-6.28,1.84"/><path class="cls-115" d="M221.28,0H321.69V72.78l.22,6.07A32.23,32.23,0,0,1,308.78,77a21.56,21.56,0,0,1-7.59-4.47,16.46,16.46,0,0,1-4-17.19,48.77,48.77,0,0,1-15.34-.7c-3.72-.77-7.47-2-10.27-4.61-4.52-4.13-5.7-10.79-5.56-16.91-5,2-10.19,3.78-15.58,4.2s-11-.66-15.33-4-6.87-9-5.53-14.26a14.91,14.91,0,0,1-14-3.73c-3.6-3.56-7-10.49-5.77-15.4Z"/><g class="cls-150"><path class="cls-151" d="M323.19,345.18H-1.5V-1.5H323.19Zm-321.69-3H320.19V1.5H1.5Z"/></g></g></svg>