<svg xmlns="http://www.w3.org/2000/svg" xmlns:xlink="http://www.w3.org/1999/xlink" viewBox="0 0 478.28 478.28"><defs><style>.cls-1{fill:none;}.cls-2{clip-path:url(#clip-path);}.cls-3{fill:#48806c;}.cls-4{fill:#49816d;}.cls-5{fill:#4a826e;}.cls-6{fill:#4c8370;}.cls-7{fill:#4d8571;}.cls-8{fill:#4e8672;}.cls-9{fill:#4f8773;}.cls-10{fill:#508874;}.cls-11{fill:#518975;}.cls-12{fill:#528a76;}.cls-13{fill:#548b78;}.cls-14{fill:#558d79;}.cls-15{fill:#568e7a;}.cls-16{fill:#578f7b;}.cls-17{fill:#58907c;}.cls-18{fill:#59917d;}.cls-19{fill:#5a927e;}.cls-20{fill:#5b937f;}.cls-21{fill:#5d9481;}.cls-22{fill:#5e9582;}.cls-23{fill:#5f9683;}.cls-24{fill:#609884;}.cls-25{fill:#619985;}.cls-26{fill:#629a86;}.cls-27{fill:#639b87;}.cls-28{fill:#649c88;}.cls-29{fill:#659d89;}.cls-30{fill:#669e8a;}.cls-31{fill:#689f8c;}.cls-32{fill:#69a08d;}.cls-33{fill:#6aa18e;}.cls-34{fill:#6ba28f;}.cls-35{fill:#6ca390;}.cls-36{fill:#6da491;}.cls-37{fill:#6ea592;}.cls-38{fill:#6fa693;}.cls-39{fill:#70a794;}.cls-40{fill:#71a895;}.cls-41{fill:#72a996;}.cls-42{fill:#73aa97;}.cls-43{fill:#74ab98;}.cls-44{fill:#75ac99;}.cls-45{fill:#76ad9a;}.cls-46{fill:#77ae9b;}.cls-47{fill:#78af9c;}.cls-48{fill:#79b09d;}.cls-49{fill:#7ab19e;}.cls-50{fill:#7bb29f;}.cls-51{fill:#7cb3a0;}.cls-52{fill:#7db4a1;}.cls-53{fill:#7eb5a2;}.cls-54{fill:#7fb6a3;}.cls-55{fill:#7fb7a3;}.cls-56{fill:#80b7a4;}.cls-57{fill:#81b8a5;}.cls-58{fill:#82b9a6;}.cls-59{fill:#83baa7;}.cls-60{fill:#84bba8;}.cls-61{fill:#85bca9;}.cls-62{fill:#86bdaa;}.cls-63{fill:#87beab;}.cls-64{fill:#88bfac;}.cls-65{fill:#fff;}.cls-66{fill:#3a1e1c;}.cls-67{clip-path:url(#clip-path-2);}.cls-68{fill:#d88268;}.cls-69{fill:#d98369;}.cls-70{fill:#da8469;}.cls-71{fill:#db856a;}.cls-72{fill:#dc866b;}.cls-73{fill:#dd876b;}.cls-74{fill:#de886c;}.cls-75{fill:#df896d;}.cls-76{fill:#e08a6d;}.cls-77{fill:#e18b6e;}.cls-78{fill:#e28c6f;}.cls-79{fill:#e48d70;}.cls-80{fill:#e58d70;}.cls-81{fill:#e68e71;}.cls-82{fill:#e78f72;}.cls-83{fill:#e89072;}.cls-84{fill:#e99173;}.cls-85{fill:#ea9274;}.cls-86{fill:#eb9374;}.cls-87{fill:#ec9475;}.cls-88{fill:#ed9576;}.cls-89{fill:#ee9676;}.cls-90{fill:#ef9777;}.cls-91{fill:#3d201f;}.cls-92{fill:#b5574d;}.cls-93{fill:#e57e73;}.cls-94{fill:#312235;}.cls-95{fill:#5b1f3c;}.cls-96{fill:#9b3737;}.cls-97{fill:#7d4e84;}.cls-98{fill:#b3514e;}.cls-99{clip-path:url(#clip-path-3);}.cls-100{fill:#e27c60;}.cls-101{fill:#e27b60;}.cls-102{fill:#e17b60;}.cls-103{fill:#e17b5f;}.cls-104{fill:#e07b5f;}.cls-105{fill:#e07a5f;}.cls-106{fill:#df7a5f;}.cls-107{fill:#de7a5e;}.cls-108{fill:#de795e;}.cls-109{fill:#dd795e;}.cls-110{fill:#dc785d;}.cls-111{fill:#db785d;}.cls-112{fill:#da775d;}.cls-113{fill:#da775c;}.cls-114{fill:#d9765c;}.cls-115{fill:#d8765b;}.cls-116{fill:#d7755b;}.cls-117{fill:#d5755b;}.cls-118{fill:#d4745a;}.cls-119{fill:#d3735a;}.cls-120{fill:#d27359;}.cls-121{fill:#d17259;}.cls-122{fill:#cf7158;}.cls-123{fill:#ce7158;}.cls-124{fill:#cc7057;}.cls-125{fill:#cb6f56;}.cls-126{fill:#ca6e56;}.cls-127{fill:#c86d55;}.cls-128{fill:#c66d54;}.cls-129{fill:#c56c54;}.cls-130{fill:#c36b53;}.cls-131{fill:#c16a52;}.cls-132{fill:#bf6952;}.cls-133{fill:#be6851;}.cls-134{fill:#bc6750;}.cls-135{fill:#ba664f;}.cls-136{fill:#b8654e;}.cls-137{fill:#b6644e;}.cls-138{fill:#b4634d;}.cls-139{fill:#b1614c;}.cls-140{fill:#af604b;}.cls-141{fill:#ad5f4a;}.cls-142{fill:#7f6644;}.cls-143{fill:#e57d61;}.cls-144{fill:#c46353;}.cls-145{fill:#2d3f2f;}.cls-146{fill:#425943;}.cls-147{fill:#7c5343;}.cls-148{fill:#5e2716;}.cls-149{fill:#633e33;}.cls-150{fill:#b55c47;}.cls-151{fill:#681414;}.cls-152{fill:#c6644e;}.cls-153{fill:#634e34;}.cls-154{fill:#f2d8b9;}.cls-155{fill:#333;}.cls-156{fill:#e6cdaf;}.cls-157{fill:#d982a2;}.cls-158{fill:#e66f9b;}.cls-159{fill:#fbb03b;}.cls-160{fill:#e09d35;}.cls-161{fill:#4d4d4d;}.cls-162{opacity:0.8;}.cls-163{fill:#fada99;}</style><clipPath id="clip-path"><rect class="cls-1" x="1.5" y="1.5" width="475.28" height="475.28"/></clipPath><clipPath id="clip-path-2"><path class="cls-1" d="M378.81,132.53l1.67,7s14.18,9.17,27,8.44c3.81-.22-48.2,30.44-51,30.55S332,142.8,332,142.8s14.52-2.66,19.33-2.84,10.29-13,10.29-13Z"/></clipPath><clipPath id="clip-path-3"><path class="cls-1" d="M190,242.7l15.34-5L206,224.1l28.55,1.53-.75,13.92s13.63,4.4,18.64,6.51-32.14,14.8-32.14,14.8S196.13,251.12,190,242.7Z"/></clipPath></defs><title>4-478px</title><g id="Camada_2" data-name="Camada 2"><g id="Camada_1-2" data-name="Camada 1"><g class="cls-2"><polygon class="cls-3" points="1.5 376.58 476.78 378.09 476.78 476.78 1.5 476.78 1.5 376.58"/><polygon class="cls-3" points="1.5 373.09 476.78 374.6 476.78 378.09 1.5 376.58 1.5 373.09"/><polygon class="cls-4" points="1.5 369.6 476.78 371.11 476.78 374.6 1.5 373.09 1.5 369.6"/><polygon class="cls-5" points="1.5 366.11 476.78 367.62 476.78 371.11 1.5 369.6 1.5 366.11"/><polygon class="cls-6" points="1.5 362.62 476.78 364.13 476.78 367.62 1.5 366.11 1.5 362.62"/><polygon class="cls-7" points="1.5 359.13 476.78 360.64 476.78 364.13 1.5 362.62 1.5 359.13"/><polygon class="cls-8" points="1.5 355.64 476.78 357.15 476.78 360.64 1.5 359.13 1.5 355.64"/><polygon class="cls-9" points="1.5 352.14 476.78 353.66 476.78 357.15 1.5 355.64 1.5 352.14"/><polygon class="cls-10" points="1.5 348.65 476.78 350.17 476.78 353.66 1.5 352.14 1.5 348.65"/><polygon class="cls-11" points="1.5 345.17 476.78 346.68 476.78 350.17 1.5 348.65 1.5 345.17"/><polygon class="cls-12" points="1.5 341.68 476.78 343.19 476.78 346.68 1.5 345.17 1.5 341.68"/><polygon class="cls-13" points="1.5 338.19 476.78 339.7 476.78 343.19 1.5 341.68 1.5 338.19"/><polygon class="cls-14" points="1.5 334.69 476.78 336.21 476.78 339.7 1.5 338.19 1.5 334.69"/><polygon class="cls-15" points="1.5 331.2 476.78 332.72 476.78 336.21 1.5 334.69 1.5 331.2"/><polygon class="cls-16" points="1.5 327.71 476.78 329.23 476.78 332.72 1.5 331.2 1.5 327.71"/><polygon class="cls-17" points="1.5 324.22 476.78 325.74 476.78 329.23 1.5 327.71 1.5 324.22"/><polygon class="cls-18" points="1.5 320.73 476.78 322.25 476.78 325.74 1.5 324.22 1.5 320.73"/><polygon class="cls-19" points="1.5 317.24 476.78 318.76 476.78 322.25 1.5 320.73 1.5 317.24"/><polygon class="cls-20" points="1.5 313.75 476.78 315.27 476.78 318.76 1.5 317.24 1.5 313.75"/><polygon class="cls-21" points="1.5 310.26 476.78 311.78 476.78 315.27 1.5 313.75 1.5 310.26"/><polygon class="cls-22" points="1.5 306.77 476.78 308.29 476.78 311.78 1.5 310.26 1.5 306.77"/><polygon class="cls-23" points="1.5 303.28 476.78 304.8 476.78 308.29 1.5 306.77 1.5 303.28"/><polygon class="cls-24" points="1.5 299.79 476.78 301.31 476.78 304.8 1.5 303.28 1.5 299.79"/><polygon class="cls-25" points="1.5 296.3 476.78 297.82 476.78 301.31 1.5 299.79 1.5 296.3"/><polygon class="cls-26" points="1.5 292.81 476.78 294.33 476.78 297.82 1.5 296.3 1.5 292.81"/><polygon class="cls-27" points="1.5 289.32 476.78 290.84 476.78 294.33 1.5 292.81 1.5 289.32"/><polygon class="cls-28" points="1.5 285.83 476.78 287.35 476.78 290.84 1.5 289.32 1.5 285.83"/><polygon class="cls-29" points="1.5 282.34 476.78 283.86 476.78 287.35 1.5 285.83 1.5 282.34"/><polygon class="cls-30" points="1.5 278.85 476.78 280.37 476.78 283.86 1.5 282.34 1.5 278.85"/><polygon class="cls-31" points="1.5 275.36 476.78 276.88 476.78 280.37 1.5 278.85 1.5 275.36"/><polygon class="cls-32" points="1.5 271.87 476.78 273.38 476.78 276.88 1.5 275.36 1.5 271.87"/><polygon class="cls-33" points="1.5 268.38 476.78 269.89 476.78 273.38 1.5 271.87 1.5 268.38"/><polygon class="cls-34" points="1.5 264.89 476.78 266.4 476.78 269.89 1.5 268.38 1.5 264.89"/><polygon class="cls-35" points="1.5 261.4 476.78 262.92 476.78 266.4 1.5 264.89 1.5 261.4"/><polygon class="cls-36" points="1.5 257.91 476.78 259.42 476.78 262.92 1.5 261.4 1.5 257.91"/><polygon class="cls-37" points="1.5 254.42 476.78 255.93 476.78 259.42 1.5 257.91 1.5 254.42"/><polygon class="cls-38" points="1.5 250.93 476.78 252.44 476.78 255.93 1.5 254.42 1.5 250.93"/><polygon class="cls-39" points="1.5 247.44 476.78 248.95 476.78 252.44 1.5 250.93 1.5 247.44"/><polygon class="cls-40" points="1.5 243.95 476.78 245.46 476.78 248.95 1.5 247.44 1.5 243.95"/><polygon class="cls-41" points="1.5 240.46 476.78 241.97 476.78 245.46 1.5 243.95 1.5 240.46"/><polygon class="cls-42" points="1.5 236.97 476.78 238.48 476.78 241.97 1.5 240.46 1.5 236.97"/><polygon class="cls-43" points="1.5 233.48 476.78 234.99 476.78 238.48 1.5 236.97 1.5 233.48"/><polygon class="cls-44" points="1.5 229.99 476.78 231.5 476.78 234.99 1.5 233.48 1.5 229.99"/><polygon class="cls-45" points="1.5 226.5 476.78 228.01 476.78 231.5 1.5 229.99 1.5 226.5"/><polygon class="cls-46" points="1.5 223.01 476.78 224.52 476.78 228.01 1.5 226.5 1.5 223.01"/><polygon class="cls-47" points="1.5 219.52 476.78 221.03 476.78 224.52 1.5 223.01 1.5 219.52"/><polygon class="cls-48" points="1.5 216.03 476.78 217.54 476.78 221.03 1.5 219.52 1.5 216.03"/><polygon class="cls-49" points="1.5 212.54 476.78 214.05 476.78 217.54 1.5 216.03 1.5 212.54"/><polygon class="cls-50" points="1.5 209.05 476.78 210.56 476.78 214.05 1.5 212.54 1.5 209.05"/><polygon class="cls-51" points="1.5 205.56 476.78 207.07 476.78 210.56 1.5 209.05 1.5 205.56"/><polygon class="cls-52" points="1.5 202.07 476.78 203.58 476.78 207.07 1.5 205.56 1.5 202.07"/><polygon class="cls-53" points="1.5 198.58 476.78 200.09 476.78 203.58 1.5 202.07 1.5 198.58"/><polygon class="cls-54" points="1.5 195.09 476.78 196.6 476.78 200.09 1.5 198.58 1.5 195.09"/><polygon class="cls-55" points="1.5 191.6 476.78 193.11 476.78 196.6 1.5 195.09 1.5 191.6"/><polygon class="cls-56" points="1.5 188.11 476.78 189.62 476.78 193.11 1.5 191.6 1.5 188.11"/><polygon class="cls-57" points="1.5 184.62 476.78 186.13 476.78 189.62 1.5 188.11 1.5 184.62"/><polygon class="cls-58" points="1.5 181.13 476.78 182.64 476.78 186.13 1.5 184.62 1.5 181.13"/><polygon class="cls-59" points="1.5 177.64 476.78 179.15 476.78 182.64 1.5 181.13 1.5 177.64"/><polygon class="cls-60" points="1.5 174.15 476.78 175.66 476.78 179.15 1.5 177.64 1.5 174.15"/><polygon class="cls-61" points="1.5 170.66 476.78 172.17 476.78 175.66 1.5 174.15 1.5 170.66"/><polygon class="cls-61" points="1.5 167.17 476.78 168.68 476.78 172.17 1.5 170.66 1.5 167.17"/><polygon class="cls-62" points="1.5 163.68 476.78 165.19 476.78 168.68 1.5 167.17 1.5 163.68"/><polygon class="cls-63" points="1.5 160.19 476.78 161.7 476.78 165.19 1.5 163.68 1.5 160.19"/><polygon class="cls-63" points="1.5 156.7 476.78 158.21 476.78 161.7 1.5 160.19 1.5 156.7"/><polygon class="cls-64" points="1.5 153.21 476.78 154.72 476.78 158.21 1.5 156.7 1.5 153.21"/><polygon class="cls-64" points="476.78 154.72 1.5 153.21 1.5 1.5 476.78 1.5 476.78 154.72"/></g><path class="cls-65" d="M415.1,287.41s5-5.72,13,3.89,6,17.24,4.66,18.62-12,5.65-12,5.65Z"/><path class="cls-66" d="M415.61,160.41S449,66.62,410.32,18.92c0,0-41.34-28.33-72.23,5s-9.23,127-9.23,127Z"/><g class="cls-67"><polygon class="cls-68" points="411.26 129.48 392.68 126.96 411.26 126.96 411.26 129.48"/><polygon class="cls-68" points="411.26 131.62 376.93 126.96 392.68 126.96 411.26 129.48 411.26 131.62"/><polygon class="cls-69" points="411.26 133.76 361.17 126.96 376.93 126.96 411.26 131.62 411.26 133.76"/><polygon class="cls-70" points="411.26 135.89 345.42 126.96 361.17 126.96 411.26 133.76 411.26 135.89"/><polygon class="cls-71" points="411.26 138.03 332.05 127.28 332.1 126.96 345.42 126.96 411.26 135.89 411.26 138.03"/><polygon class="cls-72" points="411.26 140.17 331.96 129.41 331.96 127.93 332.05 127.28 411.26 138.03 411.26 140.17"/><polygon class="cls-73" points="411.26 142.31 331.96 131.55 331.96 129.41 411.26 140.17 411.26 142.31"/><polygon class="cls-74" points="411.26 144.44 331.96 133.69 331.96 131.55 411.26 142.31 411.26 144.44"/><polygon class="cls-75" points="411.26 146.58 331.96 135.82 331.96 133.69 411.26 144.44 411.26 146.58"/><polygon class="cls-76" points="411.26 148.72 331.96 137.96 331.96 135.82 411.26 146.58 411.26 148.72"/><polygon class="cls-77" points="411.26 150.86 331.96 140.1 331.96 137.96 411.26 148.72 411.26 150.86"/><polygon class="cls-78" points="411.26 152.99 331.96 142.24 331.96 140.1 411.26 150.86 411.26 152.99"/><polygon class="cls-79" points="411.26 155.13 331.96 144.37 331.96 142.24 411.26 152.99 411.26 155.13"/><polygon class="cls-80" points="411.26 157.27 331.96 146.51 331.96 144.37 411.26 155.13 411.26 157.27"/><polygon class="cls-81" points="411.26 159.41 331.96 148.65 331.96 146.51 411.26 157.27 411.26 159.41"/><polygon class="cls-82" points="411.26 161.54 331.96 150.78 331.96 148.65 411.26 159.41 411.26 161.54"/><polygon class="cls-83" points="411.26 162.59 411.11 163.66 331.96 152.92 331.96 150.78 411.26 161.54 411.26 162.59"/><polygon class="cls-84" points="411.11 163.66 410.82 165.76 331.96 155.06 331.96 152.92 411.11 163.66"/><polygon class="cls-85" points="410.82 165.76 410.54 167.86 331.96 157.2 331.96 155.06 410.82 165.76"/><polygon class="cls-86" points="410.54 167.86 410.26 169.96 331.96 159.34 331.96 157.2 410.54 167.86"/><polygon class="cls-87" points="410.26 169.96 409.97 172.06 331.96 161.47 331.96 159.34 410.26 169.96"/><polygon class="cls-88" points="409.97 172.06 409.69 174.16 331.96 163.61 331.96 161.47 409.97 172.06"/><polygon class="cls-89" points="409.69 174.16 409.4 176.25 331.96 165.75 331.96 163.61 409.69 174.16"/><polygon class="cls-90" points="409.4 176.25 409.12 178.35 331.96 167.88 331.96 165.75 409.4 176.25"/><polygon class="cls-90" points="409.12 178.35 409.08 178.59 331.96 178.59 331.96 167.88 409.12 178.35"/></g><path class="cls-90" d="M411.05,62.16s.63,78.8-46.07,72.33C339.74,131,331.19,105.74,335.91,84a136.31,136.31,0,0,0,2.69-33.27s2.9-20.89,27.53-14.44,35.32,4.07,35.32,4.07S412.52,42.66,411.05,62.16Z"/><path class="cls-66" d="M415,66.56s-17.84-2-25.91-5.46l-.41-11s-1.81,7.06-3.45,8.83-16.28-.53-22.78-2.55S359,46,359,46l-3.08,8.43s-20.33,2.45-20.45-.66,2.75-17.58,8.69-20.45,52.55-3.16,59.1,2.92S414.66,57.87,415,66.56Z"/><ellipse class="cls-91" cx="352.47" cy="78.41" rx="2.26" ry="2.79" transform="translate(240.3 421.64) rotate(-84.44)"/><ellipse class="cls-91" cx="378.71" cy="81.78" rx="2.26" ry="2.79" transform="translate(260.65 450.8) rotate(-84.44)"/><path class="cls-92" d="M362.74,102.34c-3.49,0-7.37-1.23-8.43-3.37-.6-1.21-.56-3.12,3-5.39,4.28-2.72,3.42-5.37,3.38-5.48l.94-.34c.05.14,1.21,3.49-3.79,6.67-1.62,1-3.39,2.57-2.63,4.09,1.14,2.31,7.35,3.62,10.88,2.31l.35.94A11.1,11.1,0,0,1,362.74,102.34Z"/><path class="cls-66" d="M349.77,70.68s3.85,4,7.14,1.4a.63.63,0,0,0,.32-.83c-.24-.58-1.22,1.31-7.17-1.14C350.06,70.11,349.68,69.94,349.77,70.68Z"/><path class="cls-66" d="M384.74,75.81s-4.78,2.83-7.25-.55a.64.64,0,0,1-.09-.9c.39-.48.82,1.59,7.21.83C384.61,75.19,385,75.13,384.74,75.81Z"/><ellipse class="cls-93" cx="341.05" cy="84.26" rx="4.43" ry="2.58" transform="translate(-5.82 28.59) rotate(-4.76)"/><ellipse class="cls-93" cx="388.15" cy="91.54" rx="2.58" ry="4.43" transform="translate(213.16 449.9) rotate(-77.24)"/><path class="cls-65" d="M384.52,140.68s-16,9.72-26.27,8.4c-4.87-.62-13.48-9.94-13.48-9.94l-9.23,92.29L371,233Z"/><path class="cls-94" d="M417.76,300s12.53,51.63,11.12,65.77-3.33,37.11-24.19,103.82c0,0-10.62-22.19-61.8-45.8,0,0-49.52,43.91-52.81,14.06s-8.83-101.43,6.2-133.35S417.76,300,417.76,300Z"/><path class="cls-95" d="M476.78,222.43c-11.15-17.24-25.09-38.61-27.63-41.7,0,0-2.6-12.92-7.81-14.41s-12.48-21.21-12.48-21.21-16.17-3.8-25.78-2.57a46,46,0,0,1-18.56-1.86l-41.63,80.54,1.88-82.08s-11.33.09-13.65-1-8.8,2.22-10.12,3.31-28.88,27.79-49.66,57.19S233,233,233,233s-21.31,11.34-21.57,13.91-13.28,49-13.28,49l72.42-54.66,32.69-24.39s4,24.16,5.57,28.2.19,17.55.19,17.55S296.6,301.28,296,307.79s5.84,13,5.84,13l36.12-25.35L366,326.22s25.24-7.68,33.09-11.6c18-9,18.69-14.62,18.69-14.62s-7.15-28.21-17.78-43.63c0,0-.56-18.8,6.89-30s11.76-20.24,12-23.13c0,0,36.51,41.37,41.09,44.26a91.69,91.69,0,0,0,16.78,2.81Z"/><path class="cls-96" d="M384.52,140.68S401.71,149,411,163l-31.57,9s10.75,10.56,10.52,12.85-47.07,36.31-47.07,36.31S319,177.46,321.68,175.29,339,170.45,339,170.45s-13.86-19.64-16.27-19.88,19.91-11.64,22.08-11.43-1.8,78.45-1.8,78.45l.11,1.7Z"/><path class="cls-94" d="M342.89,221.22s-6.59,58.19-5,74.21"/><circle class="cls-97" cx="333.12" cy="238.77" r="3.79"/><circle class="cls-97" cx="331.6" cy="265.81" r="3.79"/><path class="cls-94" d="M416.81,191.33a55.31,55.31,0,0,1,8.35-44l.82.57a54.32,54.32,0,0,0-8.2,43.17Z"/><path class="cls-94" d="M306.34,192.87c-.8-8.94,2.41-17.76,5.25-25.55,3.34-9.2,7.13-19.63,14.46-27.25l.72.69c-7.18,7.47-10.93,17.79-14.25,26.9-2.79,7.69-6,16.41-5.18,25.12Z"/><path class="cls-94" d="M436.64,171.6l-.95-.32a20.47,20.47,0,0,1,2.59-5.16l.82.57A19.31,19.31,0,0,0,436.64,171.6Z"/><path class="cls-94" d="M443.84,182.83l-.22-1a26,26,0,0,1,4.47-.61l.05,1A25,25,0,0,0,443.84,182.83Z"/><path class="cls-94" d="M302.53,217.08a54,54,0,0,1-.31-8.62l1,0a52,52,0,0,0,.3,8.46Z"/><path class="cls-94" d="M397.94,256.75a41.09,41.09,0,0,0-8.08-3.87l.33-.94a42.54,42.54,0,0,1,8.28,4Z"/><path class="cls-98" d="M369.62,110.36a28.8,28.8,0,0,0-10.08-1.8,53.42,53.42,0,0,0-7,1.28l-.24-1a51.2,51.2,0,0,1,7.18-1.31A30.92,30.92,0,0,1,370,109.43Z"/><path class="cls-95" d="M476.79,240.16c-7.8-2.91-17.06-4.53-22.52.93,0,0-31.9,40.73-37,42.51,0,0,20.39,21.38,15.45,26.32-3.44,3.44,25.92-28.41,44.07-48.07Z"/><g class="cls-99"><polygon class="cls-100" points="217.31 260.86 257.46 260.53 257.46 260.86 217.31 260.86"/><polygon class="cls-101" points="189.95 260.26 257.46 259.71 257.46 260.53 217.31 260.86 189.95 260.86 189.95 260.26"/><polygon class="cls-102" points="189.95 259.44 257.46 258.89 257.46 259.71 189.95 260.26 189.95 259.44"/><polygon class="cls-103" points="189.95 258.63 257.46 258.07 257.46 258.89 189.95 259.44 189.95 258.63"/><polygon class="cls-104" points="189.95 257.81 257.46 257.26 257.46 258.07 189.95 258.63 189.95 257.81"/><polygon class="cls-105" points="189.95 256.99 257.46 256.44 257.46 257.26 189.95 257.81 189.95 256.99"/><polygon class="cls-106" points="189.95 256.17 257.46 255.62 257.46 256.44 189.95 256.99 189.95 256.17"/><polygon class="cls-107" points="189.95 255.35 257.46 254.8 257.46 255.62 189.95 256.17 189.95 255.35"/><polygon class="cls-108" points="189.95 254.53 257.46 253.98 257.46 254.8 189.95 255.35 189.95 254.53"/><polygon class="cls-109" points="189.95 253.71 257.46 253.16 257.46 253.98 189.95 254.53 189.95 253.71"/><polygon class="cls-110" points="189.95 252.89 257.46 252.34 257.46 253.16 189.95 253.71 189.95 252.89"/><polygon class="cls-111" points="189.95 252.07 257.46 251.53 257.46 252.34 189.95 252.89 189.95 252.07"/><polygon class="cls-112" points="189.95 251.26 257.46 250.71 257.46 251.53 189.95 252.07 189.95 251.26"/><polygon class="cls-113" points="189.95 250.44 257.46 249.89 257.46 250.71 189.95 251.26 189.95 250.44"/><polygon class="cls-114" points="189.95 249.62 257.46 249.07 257.46 249.89 189.95 250.44 189.95 249.62"/><polygon class="cls-115" points="189.95 248.8 257.46 248.25 257.46 249.07 189.95 249.62 189.95 248.8"/><polygon class="cls-116" points="189.95 247.98 257.46 247.43 257.46 248.25 189.95 248.8 189.95 247.98"/><polygon class="cls-117" points="189.95 247.16 257.46 246.61 257.46 247.43 189.95 247.98 189.95 247.16"/><polygon class="cls-118" points="189.95 246.34 257.46 245.79 257.46 246.61 189.95 247.16 189.95 246.34"/><polygon class="cls-119" points="189.95 245.53 257.46 244.97 257.46 245.79 189.95 246.34 189.95 245.53"/><polygon class="cls-120" points="189.95 244.71 257.46 244.16 257.46 244.97 189.95 245.53 189.95 244.71"/><polygon class="cls-121" points="189.95 243.89 257.46 243.34 257.46 244.16 189.95 244.71 189.95 243.89"/><polygon class="cls-122" points="189.95 243.07 257.46 242.52 257.46 243.34 189.95 243.89 189.95 243.07"/><polygon class="cls-123" points="189.95 242.25 257.46 241.7 257.46 242.52 189.95 243.07 189.95 242.25"/><polygon class="cls-124" points="189.95 241.43 257.46 240.88 257.46 241.7 189.95 242.25 189.95 241.43"/><polygon class="cls-125" points="189.95 240.61 257.46 240.06 257.46 240.88 189.95 241.43 189.95 240.61"/><polygon class="cls-126" points="189.95 239.79 257.46 239.24 257.46 240.06 189.95 240.61 189.95 239.79"/><polygon class="cls-127" points="189.95 238.97 257.46 238.42 257.46 239.24 189.95 239.79 189.95 238.97"/><polygon class="cls-128" points="189.95 238.16 257.46 237.6 257.46 238.42 189.95 238.97 189.95 238.16"/><polygon class="cls-129" points="189.95 237.34 257.46 236.79 257.46 237.6 189.95 238.16 189.95 237.34"/><polygon class="cls-130" points="189.95 236.52 257.46 235.97 257.46 236.79 189.95 237.34 189.95 236.52"/><polygon class="cls-131" points="189.95 235.7 257.46 235.15 257.46 235.97 189.95 236.52 189.95 235.7"/><polygon class="cls-132" points="189.95 234.88 257.46 234.33 257.46 235.15 189.95 235.7 189.95 234.88"/><polygon class="cls-133" points="189.95 234.06 257.46 233.51 257.46 234.33 189.95 234.88 189.95 234.06"/><polygon class="cls-134" points="189.95 233.24 257.46 232.69 257.46 233.51 189.95 234.06 189.95 233.24"/><polygon class="cls-135" points="189.95 232.42 257.46 231.87 257.46 232.69 189.95 233.24 189.95 232.42"/><polygon class="cls-136" points="189.95 231.6 257.46 231.05 257.46 231.87 189.95 232.42 189.95 231.6"/><polygon class="cls-137" points="189.95 230.79 257.46 230.24 257.46 231.05 189.95 231.6 189.95 230.79"/><polygon class="cls-138" points="189.95 229.97 257.46 229.42 257.46 230.24 189.95 230.79 189.95 229.97"/><polygon class="cls-139" points="189.95 229.15 257.46 228.6 257.46 229.42 189.95 229.97 189.95 229.15"/><polygon class="cls-140" points="189.95 228.33 257.46 227.78 257.46 228.6 189.95 229.15 189.95 228.33"/><polygon class="cls-141" points="189.95 227.51 257.46 226.96 257.46 227.78 189.95 228.33 189.95 227.51"/><polygon class="cls-141" points="257.46 226.96 189.95 227.51 189.95 224.1 257.46 224.1 257.46 226.96"/></g><polygon class="cls-142" points="1.79 353.43 53.84 332.83 459.15 349.01 465.79 476.78 1.5 428.37 1.79 353.43"/><polygon class="cls-65" points="140.31 348.03 242.32 354.49 216.85 438.56 44.28 419.88 140.31 348.03"/><path class="cls-143" d="M285.67,358.46s-40.31,23.91-59.28,34.84-27.74,3.36-27.74,3.36-2.14-10.93-5.7-10.93-17.83,4.41-18.85,5.43c0,0-6.95-4.72-12.72-2.23s-6.66,24-2.22,28.46,14.23,11.73,14.23,11.73l40.91-6s95-34.15,98.16-45.18S300.84,354.31,285.67,358.46Z"/><path class="cls-143" d="M313.11,372.76s3.62-38.15.94-44.22S294.27,307,294.27,307l-19.1,31,5.57,27.87S307.9,386.21,313.11,372.76Z"/><path class="cls-144" d="M90.52,348s12.09-42.45,15.41-45.77,37.23,1.66,39.84,4.27-22.41,41.32-27.63,45.08S90.52,348,90.52,348Z"/><path class="cls-145" d="M275.17,337.94s31.69-9.4,38.88-9.4-18.95-70.86-18.95-70.86-35-12.33-41.21-12.33-36,16.84-36,16.84l-27.5-21.1s-40.5.37-44.39,4.26-40,52.64-40,56.91,12.31,7.84,12.31,7.84H146l-2.66,28.13,133,5.31Z"/><path class="cls-146" d="M190.35,241.09s3.83,2.69,9.09,6.73c5.61,4.32,12.84,10.08,18.77,12.53-.68-.06,30-13.84,35.27-15.41L258,246s-4.94,4.09-40,17.42c0,0-18.38-8.83-32.31-22.26Z"/><path class="cls-143" d="M218.17,237.74s30.5-.15,39.65-36.42c2.51.06,5.41-.35,6.87-2.26,0,0,13-14.45,7.66-27.2s-11.21,10.47-11.21,10.47h0a146.6,146.6,0,0,0-3.24-49.87s-60.35-22.38-82.17,2.27c-8.25,9.31-10.31,26.3-7.38,43.82-2-6-6.14-16.09-10.11-6.7-5.38,12.75,7.65,27.2,7.65,27.2,1.91,2.5,6.3,2.43,9,2.1,8.54,20.16,23.66,36.58,43.27,36.58"/><path class="cls-147" d="M199.8,136.72S205.47,157.5,227,157.5c0,0-7.94-20,0-22.29s22.85-3.23,26.35,12.93-.79,30.44,3.49,32.31,7.95-1.78,7.95-1.78,13.23-46.85,0-60.08-19.5-3-19.5-3-19.54-32.45-42.72-3.75c0,0-20-9.92-35.51,5.64s-4.29,59.32-4.29,59.32,1.69,9.83,5.08,9.83,7.65-4.27,7.65-4.27-4.46-30-.27-34.19S182.8,132.94,199.8,136.72Z"/><ellipse class="cls-148" cx="230.46" cy="182.03" rx="3.4" ry="4.53"/><ellipse class="cls-148" cx="201.38" cy="182.03" rx="3.19" ry="4.57"/><path class="cls-149" d="M184.17,162.06s14.64,8.22,21.72,1.14C205.89,163.2,199.85,177.74,184.17,162.06Z"/><path class="cls-149" d="M247.87,161s-14.64,8.22-21.72,1.14C226.15,162.12,232.19,176.66,247.87,161Z"/><path class="cls-149" d="M207.7,201.32s-7.09.81-10.92,4.64-3.82,6.52-3.82,6.52,33.65-2.93,44-1.66c0,0-8.59-10.11-15.63-10.11,0,0-4.57,3.71-7.41,3.71S209,203.49,207.7,201.32Z"/><path class="cls-150" d="M213.58,204.93a6.72,6.72,0,0,1-4.87-2.11,4.53,4.53,0,0,1-1.46-4c.71-4.84,9-9.32,9.32-9.51l.47.88c-.08,0-8.16,4.44-8.8,8.78a3.54,3.54,0,0,0,1.17,3.15,5.63,5.63,0,0,0,4.28,1.82c4.1-.07,8-4.22,8.05-4.26l.73.68c-.17.18-4.24,4.5-8.76,4.58Z"/><path class="cls-151" d="M206.68,215.81l-.15-1a155.67,155.67,0,0,1,18.31-1.61v1A154.07,154.07,0,0,0,206.68,215.81Z"/><path class="cls-143" d="M91.53,342s5.65-13.95,21.4-30.24c13.4-13.87,36.31-29.45,45.72-39.56l17.94-46.3L198,221.84s22.44,5.47,21.78,7.74-10.58,10.65-13.86,14.82c-4.37,5.57-4.34,14.79-8,20.4s-20.18,20.66-20.18,20.66-51.75,68.5-68,68.69S85,356.66,91.53,342Z"/><path class="cls-143" d="M202.44,234.33l13.82-7.06s2.94,1.46,3.49,2.31-2.76,12-2.76,12-3.5,3.85-5.36,4.3-4.45-3-4.45-3l5.34-5.63s3.88-1.94,4.26-3.16"/><path class="cls-152" d="M211.28,246.4c-2,0-4.23-2.84-4.5-3.19l-.26-.34,5.77-6c1.54-.77,3.79-2.16,4-2.86l.95.3c-.42,1.31-3.61,3-4.44,3.41l-5,5.25c1,1.19,2.65,2.69,3.67,2.44,1.37-.33,4-3,5-4.06,1.52-5.1,3-10.77,2.76-11.51a13,13,0,0,0-3-2l-13.59,6.94-.46-.89,14-7.17.22.11c.51.25,3.09,1.57,3.69,2.49s-1.16,7.22-2.7,12.4l-.11.19c-.37.4-3.66,4-5.62,4.44A1.76,1.76,0,0,1,211.28,246.4Z"/><path class="cls-152" d="M194,231.83l-.36-.93c3.06-1.18,18.4-7,20.26-6.41a5.15,5.15,0,0,1,2.85,2.57l-.91.41a4.22,4.22,0,0,0-2.26-2C212.47,225.13,202.74,228.45,194,231.83Z"/><path class="cls-152" d="M187.89,227.91l-.3-1c.68-.21,16.75-5.24,20.19-4.62a9.63,9.63,0,0,1,5.09,2.24l-.71.7a8.77,8.77,0,0,0-4.55-2C205,222.85,192.47,226.47,187.89,227.91Z"/><path class="cls-152" d="M176.71,226.39l-.24-1c.67-.16,16.48-4.08,21.5-4.08s6.83,1.25,6.9,1.3l-.6.8.3-.4-.3.4s-1.58-1.1-6.3-1.1C193.07,222.34,176.88,226.35,176.71,226.39Z"/><path class="cls-90" d="M424.74,303.33c-.5-4.47-11.55-18.4-11.55-18.4l2.38,7.38s-4.73,7.49-7.4,8.44c-1.59.57-9.23,2.29-14.77,3.73-3.2.84-4.81,1-5.62,2.2-.68,1-.77,2.21,1.21,3.36,1.25.73,5.73-.06,5.73-.06l13.16-1.79-16.45,5.16s-5.12,4.8-1.41,6c0,0,.16,4.63,2.29,4.63l5.9-1.42s-.56,3.62,2.28,3.62,21.54-7.4,21.54-7.4A30.46,30.46,0,0,0,424.74,303.33Z"/><path class="cls-152" d="M398.36,323.07l-.31-.95c5.52-1.84,14.54-4.93,15.22-5.41l.68.73C413.34,318.05,402.85,321.58,398.36,323.07Z"/><path class="cls-152" d="M390.16,319.88l-.27-1c10.35-2.81,21.76-6.34,22.54-7.33a.34.34,0,0,0-.05.17h1C413.38,312.19,413.38,313.55,390.16,319.88Z"/><polygon class="cls-153" points="465.79 476.78 1.5 428.37 1.5 476.78 465.79 476.78"/><polygon class="cls-154" points="157.26 377.28 158.4 376.65 171.36 366.01 155.53 371.48 154.39 372.11 157.26 377.28"/><polygon class="cls-155" points="168.66 368.38 171.41 366.09 168.03 367.23 168.66 368.38"/><polygon class="cls-156" points="158.5 376.7 167.59 369.24 156.34 375.48 157.36 377.33 158.5 376.7"/><path class="cls-157" d="M98.72,409.88a3,3,0,0,1-4-1.16h0a3,3,0,0,1,1.16-4l2-1.11a3,3,0,0,1,4,1.16h0a3,3,0,0,1-1.16,4Z"/><path class="cls-158" d="M102.17,405.54l-7,3.86a3,3,0,0,0,3.52.48l2-1.11A3,3,0,0,0,102.17,405.54Z"/><rect class="cls-159" x="96.28" y="386.88" width="64.85" height="5.94" transform="translate(-172.98 111.4) rotate(-29.02)"/><rect class="cls-160" x="97.02" y="389.76" width="64.85" height="2.86" transform="translate(-173.53 111.93) rotate(-29.02)"/><rect class="cls-161" x="96.33" y="389.2" width="64.85" height="1.48" transform="translate(-173.01 111.43) rotate(-29.02)"/><rect class="cls-161" x="98.06" y="403.2" width="2.44" height="5.94" transform="translate(-184.59 99.17) rotate(-29.02)"/><g class="cls-162"><path class="cls-163" d="M478.28,478.28H0V0H478.28ZM3,475.28H475.28V3H3Z"/></g></g></g></svg>