<svg xmlns="http://www.w3.org/2000/svg" xmlns:xlink="http://www.w3.org/1999/xlink" viewBox="0 0 449.55 392.13"><defs><style>.cls-1{fill:none;}.cls-2{isolation:isolate;}.cls-3{clip-path:url(#clip-path);}.cls-4{fill:#ffdf57;}.cls-5{fill:#ffdf59;}.cls-6{fill:#ffe05a;}.cls-7{fill:#ffe05c;}.cls-8{fill:#ffe05d;}.cls-9{fill:#ffe05f;}.cls-10{fill:#ffe160;}.cls-11{fill:#ffe162;}.cls-12{fill:#ffe163;}.cls-13{fill:#ffe265;}.cls-14{fill:#ffe266;}.cls-15{fill:#ffe268;}.cls-16{fill:#ffe269;}.cls-17{fill:#ffe36a;}.cls-18{fill:#ffe36c;}.cls-19{fill:#ffe36d;}.cls-20{fill:#ffe46f;}.cls-21{fill:#ffe470;}.cls-22{fill:#ffe472;}.cls-23{fill:#ffe473;}.cls-24{fill:#ffe575;}.cls-25{fill:#ffe576;}.cls-26{fill:#ffe577;}.cls-27{fill:#ffe579;}.cls-28{fill:#ffe67a;}.cls-29{fill:#ffe67c;}.cls-30{fill:#ffe67d;}.cls-31{fill:#ffe77e;}.cls-32{fill:#ffe780;}.cls-33{fill:#ffe781;}.cls-34{fill:#ffe783;}.cls-35{fill:#ffe884;}.cls-36{fill:#ffe885;}.cls-37{fill:#ffe887;}.cls-38{fill:#ffe888;}.cls-39{fill:#ffe989;}.cls-40{fill:#ffe98b;}.cls-41{fill:#ffe98c;}.cls-42{fill:#ffe98d;}.cls-43{fill:#ffea8f;}.cls-44{fill:#ffea90;}.cls-45{fill:#ffea91;}.cls-46{fill:#ffea93;}.cls-47{fill:#ffeb94;}.cls-48{fill:#ffeb95;}.cls-49{fill:#ffeb97;}.cls-50{fill:#ffeb98;}.cls-51{fill:#ffec99;}.cls-52{fill:#ffec9b;}.cls-53{fill:#ffec9c;}.cls-54{fill:#ffec9d;}.cls-55{fill:#ffed9e;}.cls-56{fill:#ffeda0;}.cls-57{fill:#ffeda1;}.cls-58{fill:#ffeda2;}.cls-59{fill:#ffeea3;}.cls-60{fill:#ffeea5;}.cls-61{fill:#ffeea6;}.cls-62{fill:#ffeea7;}.cls-63{fill:#ffeea8;}.cls-64{fill:#ffefaa;}.cls-65{fill:#ffefab;}.cls-66{fill:#ffefac;}.cls-67{fill:#ffefad;}.cls-68{fill:#fff0ae;}.cls-69{fill:#fff0af;}.cls-70{fill:#fff0b1;}.cls-71{fill:#fff0b2;}.cls-72{fill:#fff1b3;}.cls-73{fill:#fff1b4;}.cls-74{fill:#fff1b5;}.cls-75{fill:#fff1b6;}.cls-76{fill:#fff1b8;}.cls-77{fill:#fff2b9;}.cls-78{fill:#fff2ba;}.cls-79{fill:#fff2bb;}.cls-80{fill:#fff2bc;}.cls-81{fill:#fff2bd;}.cls-82{fill:#fff3be;}.cls-83{fill:#fff3bf;}.cls-84{fill:#fff3c1;}.cls-85{fill:#fff3c2;}.cls-86{fill:#fff4c3;}.cls-87{fill:#fff4c4;}.cls-88{fill:#fff4c5;}.cls-89{fill:#fff4c6;}.cls-90{fill:#fff4c7;}.cls-91{fill:#fff5c8;}.cls-92{fill:#fff5c9;}.cls-93{fill:#fff5ca;}.cls-94{fill:#fff5cb;}.cls-95{fill:#fff5cc;}.cls-96{fill:#fff6cd;}.cls-97{fill:#fff6ce;}.cls-98{fill:#fff6cf;}.cls-99{fill:#fff6d0;}.cls-100{fill:#fff6d1;}.cls-101{fill:#fff6d2;}.cls-102{fill:#fff7d3;}.cls-103{fill:#fff7d4;}.cls-104{fill:#fff7d5;}.cls-105{fill:#fff7d6;}.cls-106{fill:#fff7d7;}.cls-107{fill:#fff8d8;}.cls-108{fill:#fff8d9;}.cls-109{fill:#fff8da;}.cls-110{fill:#fff8db;}.cls-111{fill:#fff8dc;}.cls-112{fill:#fff9dd;}.cls-113{fill:#fff9de;}.cls-114{fill:#fff9df;}.cls-115{fill:#fff9e0;}.cls-116{fill:#fff9e1;}.cls-117{fill:#fff9e2;}.cls-118{fill:#fffae2;}.cls-119{fill:#fffae3;}.cls-120{fill:#fffae4;}.cls-121{fill:#fffae5;}.cls-122{fill:#fffae6;}.cls-123{fill:#fffae7;}.cls-124{fill:#fffbe8;}.cls-125{fill:#fffbe9;}.cls-126{fill:#fffbea;}.cls-127{fill:#fffbeb;}.cls-128{fill:#fffbec;}.cls-129{fill:#fffbed;}.cls-130{fill:#fffced;}.cls-131{fill:#fffcee;}.cls-132{fill:#fffcef;}.cls-133{fill:#fffcf0;}.cls-134{fill:#fffcf1;}.cls-135{fill:#fffdf2;}.cls-136{fill:#fffdf3;}.cls-137{fill:#fffdf4;}.cls-138{fill:#fffdf5;}.cls-139{fill:#fffdf6;}.cls-140{fill:#fffdf7;}.cls-141{fill:#fffef7;}.cls-142{fill:#fffef8;}.cls-143{fill:#fffef9;}.cls-144{fill:#fffefa;}.cls-145{fill:#fffefb;}.cls-146{fill:#fffefc;}.cls-147{fill:#fffffd;}.cls-148{fill:#fffffe;}.cls-149{fill:#fff;}.cls-150{fill:#29c7b8;}.cls-151{fill:#705ee4;}.cls-152{fill:#269795;}.cls-153{fill:#2fe6d4;}.cls-154{fill:#b499ff;}.cls-155{mix-blend-mode:multiply;}.cls-156{fill:#cfcfcf;}.cls-157{fill:#cbb8ff;}.cls-158{opacity:0.8;}.cls-159{fill:#fada99;}</style><clipPath id="clip-path"><rect class="cls-1" x="1.5" y="8" width="446.55" height="376.14"/></clipPath></defs><title>6-449px</title><g class="cls-2"><g id="Camada_2" data-name="Camada 2"><g id="Camada_1-2" data-name="Camada 1"><g class="cls-3"><rect class="cls-4" x="1.5" y="8" width="446.55" height="376.14"/><path class="cls-4" d="M440.24,163c10,65.09-5.09,127.72-37.53,176.36A224.72,224.72,0,0,1,375.24,373q-7.62,7.66-15.95,14.53v-2.44H98v1c-45.54-36.67-78.7-91.9-88.69-157S14.4,101.41,46.84,52.77A224.72,224.72,0,0,1,74.31,19.09a214.88,214.88,0,0,1,16-14.53V7H351.55V6C397.09,42.68,430.25,97.91,440.24,163Z"/><path class="cls-5" d="M439,163.2c9.93,64.7-5.06,127-37.31,175.31A223.2,223.2,0,0,1,374.34,372a214.4,214.4,0,0,1-15.86,14.44v-1.3H107.38v6.48Q103,388.42,98.75,385c-45.26-36.45-78.23-91.35-88.16-156.06S15.65,102,47.9,53.62A223.12,223.12,0,0,1,75.21,20.15,212.34,212.34,0,0,1,91.07,5.7V7h251.1V.52q4.38,3.2,8.63,6.62C396.07,43.59,429,98.49,439,163.2Z"/><path class="cls-6" d="M437.67,163.39c9.87,64.32-5,126.21-37.08,174.27a222,222,0,0,1-27.14,33.27,209.83,209.83,0,0,1-15.77,14.36v-.16H108.08v5.31q-4.35-3.18-8.57-6.58c-45-36.24-77.76-90.81-87.63-155.12S16.9,102.53,49,54.47A222,222,0,0,1,76.1,21.2,209.83,209.83,0,0,1,91.87,6.84V7h249.6V1.69q4.35,3.18,8.57,6.58C395,44.51,427.8,99.08,437.67,163.39Z"/><path class="cls-7" d="M436.39,163.59c9.81,63.93-5,125.44-36.86,173.21a220.09,220.09,0,0,1-27,33.08,211.32,211.32,0,0,1-15.67,14.27c-2.72,2.24-5.5,4.42-8.34,6.51v-5.53H108.79v4.14q-4.33-3.16-8.53-6.54c-44.72-36-77.29-90.26-87.1-154.19S18.15,103.1,50,55.33A220.71,220.71,0,0,1,77,22.25,211.32,211.32,0,0,1,92.67,8c2.72-2.24,5.5-4.42,8.34-6.51V7H340.76V2.86Q345.1,6,349.29,9.4C394,45.42,426.58,99.66,436.39,163.59Z"/><path class="cls-8" d="M435.11,163.79c9.75,63.54-5,124.68-36.64,172.16a219,219,0,0,1-26.81,32.87A206.77,206.77,0,0,1,356.08,383q-4.06,3.35-8.29,6.48v-4.36H109.49v3q-4.3-3.15-8.47-6.5c-44.46-35.8-76.83-89.72-86.58-153.26s5-124.68,36.64-172.16A218.49,218.49,0,0,1,77.9,23.31,208.78,208.78,0,0,1,93.47,9.12q4.07-3.34,8.29-6.48V7h238.3V4q4.31,3.14,8.48,6.49C393,46.33,425.36,100.25,435.11,163.79Z"/><path class="cls-9" d="M433.83,164c9.69,63.16-4.94,123.93-36.42,171.12a217.52,217.52,0,0,1-26.65,32.67,208.44,208.44,0,0,1-15.48,14.1q-4,3.33-8.24,6.44v-3.18H110.19v1.79q-4.27-3.12-8.42-6.45c-44.18-35.59-76.35-89.17-86-152.32S20.66,104.23,52.14,57A218,218,0,0,1,78.79,24.36q7.39-7.44,15.48-14.1,4-3.33,8.24-6.44V7H339.36V5.21q4.27,3.12,8.42,6.45C392,47.25,424.14,100.83,433.83,164Z"/><path class="cls-10" d="M432.54,164.18c9.64,62.77-4.9,123.16-36.19,170.06a216.58,216.58,0,0,1-26.49,32.48,207.77,207.77,0,0,1-15.38,14q-4,3.3-8.19,6.4v-2H119.53v6.61q-8.76-5.76-17-12.41C58.61,344,26.64,290.72,17,228S21.91,104.79,53.2,57.89A216.58,216.58,0,0,1,79.69,25.41a207.77,207.77,0,0,1,15.38-14q4-3.3,8.19-6.4V7H330V.39q8.76,5.76,17,12.41C390.94,48.16,422.91,101.41,432.54,164.18Z"/><path class="cls-11" d="M431.26,164.38c9.57,62.38-4.87,122.4-36,169a209.27,209.27,0,0,1-58.21,58.48v-6.74H120.18v5.4q-8.72-5.73-16.9-12.33c-43.64-35.14-75.42-88.07-85-150.45s4.87-122.4,36-169A209.1,209.1,0,0,1,112.46.26V7H329.37V1.6q8.72,5.73,16.9,12.33C389.91,49.07,421.69,102,431.26,164.38Z"/><path class="cls-12" d="M430,164.58c9.51,62-4.84,121.63-35.74,168a208,208,0,0,1-57.85,58.12v-5.53H120.83v4.19q-8.65-5.69-16.8-12.25c-43.36-34.92-74.95-87.52-84.46-149.51s4.84-121.64,35.74-168A208.17,208.17,0,0,1,113.16,1.47V7H328.72V2.81q8.65,5.68,16.8,12.25C388.89,50,420.47,102.58,430,164.58Z"/><path class="cls-13" d="M428.7,164.77c9.45,61.61-4.82,120.88-35.52,166.92a206.86,206.86,0,0,1-57.48,57.75v-4.31H121.48v3q-8.6-5.67-16.69-12.18c-43.1-34.71-74.48-87-83.94-148.58S25.67,106.48,56.37,60.44A206.77,206.77,0,0,1,113.86,2.69V7H328.07V4c5.73,3.78,11.31,7.84,16.69,12.18C387.86,50.9,419.24,103.17,428.7,164.77Z"/><path class="cls-14" d="M427.41,165c9.4,61.22-4.78,120.12-35.29,165.86A205.54,205.54,0,0,1,335,388.23v-3.1H122.13v1.78q-8.55-5.62-16.59-12.1c-42.82-34.49-74-86.43-83.4-147.65S26.92,107,57.43,61.3A205.54,205.54,0,0,1,114.55,3.9V7H327.42V5.22Q336,10.85,344,17.32C386.83,51.81,418,103.75,427.41,165Z"/><path class="cls-15" d="M426.13,165.17C435.47,226,421.38,284.52,391.06,330a204,204,0,0,1-56.76,57v-1.88H122.78v.57q-8.49-5.59-16.48-12C63.74,339.41,32.75,287.79,23.42,227S28.17,107.61,58.49,62.15a204,204,0,0,1,56.76-57V7H326.77V6.43q8.49,5.6,16.48,12C385.81,52.72,416.8,104.34,426.13,165.17Z"/><path class="cls-16" d="M424.85,165.36C434.12,225.8,420.13,284,390,329.13a202.73,202.73,0,0,1-56.4,56.66v-.66H132v4.7q-4.33-2.56-8.55-5.34-8.45-5.55-16.38-11.94C64.77,338.49,34,287.21,24.7,226.77S29.42,108.17,59.55,63A202.86,202.86,0,0,1,116,6.34V7H317.57V2.3q4.33,2.57,8.55,5.34,8.44,5.55,16.38,11.94C384.78,53.64,415.57,104.92,424.85,165.36Z"/><path class="cls-17" d="M423.57,165.56c9.21,60.05-4.69,117.84-34.63,162.71a201.54,201.54,0,0,1-56,56.31q-4.14,2.75-8.43,5.28v-4.73H132.58v3.46q-4.31-2.55-8.5-5.3-8.39-5.52-16.27-11.87C65.79,337.58,35.2,286.63,26,226.57s4.7-117.84,34.63-162.71a201.54,201.54,0,0,1,56-56.31q4.14-2.74,8.43-5.28V7H317V3.54q4.3,2.55,8.5,5.3,8.38,5.52,16.27,11.87C383.76,54.55,414.35,105.5,423.57,165.56Z"/><path class="cls-18" d="M422.28,165.76c9.16,59.66-4.66,117.07-34.4,161.66a200.23,200.23,0,0,1-55.67,55.94q-4.12,2.73-8.38,5.25v-3.48H133.17v2.22q-4.28-2.53-8.44-5.27-8.34-5.49-16.17-11.8C66.82,336.67,36.42,286,27.27,226.37S31.93,109.3,61.67,64.71A200.23,200.23,0,0,1,117.34,8.77q4.13-2.73,8.38-5.25V7H316.38V4.78q4.28,2.53,8.44,5.27,8.34,5.49,16.17,11.8C382.73,55.46,413.13,106.09,422.28,165.76Z"/><path class="cls-19" d="M421,166c9.1,59.28-4.63,116.32-34.18,160.62a198.7,198.7,0,0,1-55.31,55.57,185,185,0,0,1-16.92,10v-7H142.38v5.78a204.14,204.14,0,0,1-33.06-21.76c-41.47-33.4-71.67-83.69-80.77-143S33.18,109.86,62.73,65.56A198.7,198.7,0,0,1,118,10,185,185,0,0,1,135,0V7H307.17V1.22A204.14,204.14,0,0,1,340.23,23C381.71,56.38,411.9,106.67,421,166Z"/><path class="cls-20" d="M419.72,166.15c9,58.89-4.6,115.56-34,159.56a197.37,197.37,0,0,1-54.95,55.22A185.79,185.79,0,0,1,314,390.85v-5.72H142.92v4.51A203.3,203.3,0,0,1,110.07,368c-41.2-33.18-71.2-83.15-80.24-142s4.6-115.56,34-159.56a197.5,197.5,0,0,1,55-55.22,187.17,187.17,0,0,1,16.81-9.92V7H306.63V2.49a203.3,203.3,0,0,1,32.85,21.62C380.68,57.29,410.68,107.26,419.72,166.15Z"/><path class="cls-21" d="M418.44,166.35c9,58.5-4.57,114.79-33.74,158.51a196.1,196.1,0,0,1-54.59,54.85,184.78,184.78,0,0,1-16.7,9.86v-4.44h-170v3.23a201.66,201.66,0,0,1-32.63-21.47c-40.93-33-70.74-82.6-79.72-141.11S35.68,111,64.85,67.27a196.1,196.1,0,0,1,54.59-54.85,184.78,184.78,0,0,1,16.7-9.86V7h170V3.77a201.74,201.74,0,0,1,32.64,21.47C379.65,58.2,409.46,107.84,418.44,166.35Z"/><path class="cls-22" d="M417.15,166.54c8.92,58.12-4.54,114-33.5,157.47a195.27,195.27,0,0,1-54.23,54.49,186.06,186.06,0,0,1-16.59,9.79v-3.16H144v2a200.82,200.82,0,0,1-32.42-21.33C70.92,333,41.32,283.7,32.4,225.59s4.54-114,33.51-157.47a195.1,195.1,0,0,1,54.22-54.49,186.06,186.06,0,0,1,16.59-9.79V7H305.56V5A200.74,200.74,0,0,1,338,26.37C378.63,59.11,408.24,108.43,417.15,166.54Z"/><path class="cls-23" d="M415.87,166.74c8.86,57.73-4.51,113.28-33.28,156.42a193.73,193.73,0,0,1-53.87,54.12A181.21,181.21,0,0,1,312.24,387v-1.87H144.53v.69a199.38,199.38,0,0,1-32.19-21.19C72,332.1,42.54,283.12,33.68,225.39S38.19,112.11,67,69a193.57,193.57,0,0,1,53.86-54.12,181.21,181.21,0,0,1,16.48-9.72V7H305V6.31a199.9,199.9,0,0,1,32.2,21.19C377.6,60,407,109,415.87,166.74Z"/><path class="cls-24" d="M414.59,166.94c8.8,57.34-4.48,112.51-33.06,155.36A192.24,192.24,0,0,1,328,376.06a177.51,177.51,0,0,1-16.37,9.66v-.59h-158v3.63q-4.31-2-8.53-4.22a198.26,198.26,0,0,1-32-21C73,331.19,43.76,282.54,35,225.19S39.44,112.68,68,69.83a192.37,192.37,0,0,1,53.51-53.76A177.51,177.51,0,0,1,137.9,6.41V7H296V3.37q4.31,2,8.53,4.22a198.26,198.26,0,0,1,32,21C376.58,60.94,405.79,109.59,414.59,166.94Z"/><path class="cls-25" d="M413.31,167.13c8.74,57-4.45,111.76-32.84,154.32a191.14,191.14,0,0,1-53.15,53.4,178.52,178.52,0,0,1-16.25,9.59q-4.2,2.19-8.52,4.15v-3.46H162.74v6.08a186.89,186.89,0,0,1-17.13-7.94,197.42,197.42,0,0,1-31.77-20.9C74,330.28,45,282,36.24,225S40.69,113.24,69.08,70.68a191.14,191.14,0,0,1,53.15-53.4,179.89,179.89,0,0,1,16.25-9.59q4.2-2.19,8.52-4.15V7H286.81V.92a185.66,185.66,0,0,1,17.13,7.94,196.38,196.38,0,0,1,31.77,20.91C375.55,61.85,404.57,110.18,413.31,167.13Z"/><path class="cls-26" d="M412,167.33c8.68,56.57-4.41,111-32.61,153.27a189.83,189.83,0,0,1-52.78,53A176.73,176.73,0,0,1,293.31,391v-5.83H163.16v4.76q-8.68-3.51-17-7.89a195.46,195.46,0,0,1-31.55-20.77C75,329.36,46.21,281.37,37.53,224.8S42,113.8,70.14,71.53a189.83,189.83,0,0,1,52.78-53A176.73,176.73,0,0,1,156.24,1.17V7H286.39V2.24a185.83,185.83,0,0,1,17,7.9A194.73,194.73,0,0,1,335,30.9C374.53,62.77,403.34,110.76,412,167.33Z"/><path class="cls-27" d="M410.74,167.53c8.62,56.18-4.39,110.23-32.39,152.21a188.5,188.5,0,0,1-52.42,52.68,175.76,175.76,0,0,1-33.09,17.21v-4.5H163.59v3.43a183.36,183.36,0,0,1-16.9-7.84,193.23,193.23,0,0,1-31.34-20.62c-39.3-31.65-67.92-79.32-76.54-135.5S43.2,114.37,71.2,72.39a188.5,188.5,0,0,1,52.42-52.68A175.76,175.76,0,0,1,156.71,2.5V7H286V3.57a184.41,184.41,0,0,1,16.89,7.84A193.23,193.23,0,0,1,334.2,32C373.5,63.68,402.12,111.35,410.74,167.53Z"/><path class="cls-28" d="M409.46,167.72c8.56,55.8-4.36,109.48-32.17,151.17a187.1,187.1,0,0,1-52.06,52.31,173.34,173.34,0,0,1-32.86,17.09v-3.16H164v2.1a184.61,184.61,0,0,1-16.78-7.78A193,193,0,0,1,116.11,359c-39-31.43-67.46-78.77-76-134.56S44.45,114.93,72.26,73.24a187.23,187.23,0,0,1,52.06-52.31A173.34,173.34,0,0,1,157.18,3.84V7H285.54V4.9q8.56,3.47,16.78,7.78a193,193,0,0,1,31.12,20.48C372.47,64.59,400.9,111.93,409.46,167.72Z"/><path class="cls-29" d="M408.18,167.92c8.5,55.41-4.33,108.72-31.95,150.12A185.83,185.83,0,0,1,324.53,370a173,173,0,0,1-32.63,17v-1.83H181.76v6.76a185.77,185.77,0,0,1-64.9-34.05c-38.76-31.22-67-78.23-75.49-133.63S45.7,115.49,73.32,74.09A185.83,185.83,0,0,1,125,22.15a173,173,0,0,1,32.63-17V7H267.79V.24a185.77,185.77,0,0,1,64.9,34.05C371.45,65.51,399.67,112.52,408.18,167.92Z"/><path class="cls-30" d="M406.89,168.12c8.45,55-4.29,108-31.72,149.07a184.7,184.7,0,0,1-51.33,51.58,171.49,171.49,0,0,1-32.41,16.85v-.49H182.06v5.39a184.5,184.5,0,0,1-64.44-33.81c-38.49-31-66.52-77.68-75-132.7S47,116.06,74.38,75a184.5,184.5,0,0,1,51.34-51.59,171.41,171.41,0,0,1,32.4-16.85V7H267.49V1.61a184.5,184.5,0,0,1,64.44,33.81C370.42,66.42,398.45,113.1,406.89,168.12Z"/><path class="cls-31" d="M405.61,168.31c8.38,54.63-4.27,107.2-31.5,148a183.2,183.2,0,0,1-51,51.22A169,169,0,0,1,273.47,390v-4.91H182.36v4a183.29,183.29,0,0,1-64-33.57C80.15,324.8,52.32,278.45,43.94,223.82s4.27-107.2,31.5-148a183.2,183.2,0,0,1,51-51.22A170.57,170.57,0,0,1,158.59,7.84a168.75,168.75,0,0,1,17.49-5.75V7h91.11V3a183.29,183.29,0,0,1,64,33.57C369.4,67.33,397.23,113.68,405.61,168.31Z"/><path class="cls-32" d="M404.33,168.51c8.32,54.24-4.24,106.44-31.28,147a181.8,181.8,0,0,1-50.61,50.85A169,169,0,0,1,290.49,383a163.37,163.37,0,0,1-17.37,5.71v-3.53H182.66v2.65a181.85,181.85,0,0,1-63.53-33.33c-37.95-30.56-65.58-76.59-73.91-130.83s4.24-106.44,31.28-147A181.8,181.8,0,0,1,127.11,25.8a169,169,0,0,1,32-16.62,164.12,164.12,0,0,1,17.37-5.71V7h90.46V4.35a181.85,181.85,0,0,1,63.53,33.33C368.37,68.24,396,114.27,404.33,168.51Z"/><path class="cls-33" d="M403.05,168.71C419.58,276.42,353.16,376,254.7,391.09v-6H183v1.29a180.68,180.68,0,0,1-63.08-33.11C82.2,323,54.77,277.28,46.5,223.42,30,115.71,96.39,16.15,194.85,1V7h71.74V5.72a180.49,180.49,0,0,1,63.08,33.1C367.35,69.16,394.78,114.85,403.05,168.71Z"/><path class="cls-34" d="M401.76,168.91c16.41,106.93-49.52,205.78-147.27,220.78v-4.56H218.22v6.1a167,167,0,0,1-35-6.18,179.24,179.24,0,0,1-62.62-32.87c-37.41-30.12-64.65-75.49-72.85-129C31.38,116.29,97.31,17.44,195.06,2.44V7h36.28V.9a167,167,0,0,1,35,6.18A179.24,179.24,0,0,1,328.91,40C366.32,70.07,393.56,115.44,401.76,168.91Z"/><path class="cls-35" d="M400.48,169.1c16.29,106.16-49.17,204.3-146.21,219.19a164.23,164.23,0,0,1-70.71-4.61,178,178,0,0,1-62.17-32.63c-37.13-29.9-64.17-74.94-72.32-128C32.78,116.87,98.24,18.73,195.28,3.84A164.23,164.23,0,0,1,266,8.45a178.36,178.36,0,0,1,62.17,32.63C365.29,71,392.34,116,400.48,169.1Z"/><path class="cls-36" d="M399.2,169.3c16.17,105.38-48.81,202.8-145.14,217.58a163,163,0,0,1-70.2-4.57,176.92,176.92,0,0,1-61.71-32.39c-36.87-29.69-63.71-74.4-71.8-127.09C34.18,117.45,99.16,20,195.49,5.25a163,163,0,0,1,70.2,4.57,177.05,177.05,0,0,1,61.72,32.39C364.27,71.9,391.11,116.61,399.2,169.3Z"/><path class="cls-37" d="M397.92,169.5c16.05,104.61-48.45,201.31-144.08,216a161.86,161.86,0,0,1-69.68-4.54,175.7,175.7,0,0,1-61.26-32.15c-36.59-29.47-63.24-73.85-71.27-126.16C35.58,118,100.09,21.32,195.71,6.65a161.86,161.86,0,0,1,69.68,4.54,175.7,175.7,0,0,1,61.26,32.15C363.24,72.81,389.89,117.19,397.92,169.5Z"/><path class="cls-38" d="M396.63,169.69c15.94,103.84-48.09,199.82-143,214.39-47.46,7.28-93.65-7.17-130-36.42s-62.77-73.3-70.73-125.22C37,118.6,101,22.62,195.92,8.05c47.46-7.28,93.66,7.17,130,36.42S388.67,117.77,396.63,169.69Z"/><path class="cls-39" d="M395.35,169.89C411.17,273,347.62,368.22,253.41,382.67c-47.1,7.23-92.95-7.11-129-36.14S62.11,273.77,54.2,222.24C38.38,119.18,101.93,23.91,196.14,9.46c47.1-7.23,92.95,7.11,129,36.14S387.44,118.36,395.35,169.89Z"/><path class="cls-40" d="M394.07,170.09c15.7,102.28-47.38,196.83-140.87,211.18-46.75,7.18-92.26-7.06-128-35.87S63.33,273.19,55.48,222C39.79,119.76,102.86,25.21,196.35,10.86c46.75-7.17,92.26,7.06,128,35.87S386.22,118.94,394.07,170.09Z"/><path class="cls-41" d="M392.79,170.28c15.57,101.51-47,195.35-139.81,209.59-46.39,7.12-91.55-7-127.06-35.61S64.55,272.6,56.76,221.85C41.19,120.34,103.78,26.5,196.57,12.26c46.39-7.12,91.55,7,127.06,35.61S385,119.53,392.79,170.28Z"/><path class="cls-42" d="M391.5,170.48c15.46,100.74-46.65,193.85-138.73,208-46,7.06-90.86-7-126.1-35.34S65.78,272,58.05,221.65C42.59,120.91,104.7,27.8,196.79,13.67c46-7.07,90.85,7,126.09,35.33S383.77,120.11,391.5,170.48Z"/><ellipse class="cls-43" cx="224.78" cy="196.07" rx="167.38" ry="183.12" transform="translate(-27.14 36.36) rotate(-8.72)"/><ellipse class="cls-44" cx="224.78" cy="196.07" rx="166.08" ry="181.7" transform="translate(-27.14 36.36) rotate(-8.72)"/><ellipse class="cls-45" cx="224.78" cy="196.07" rx="164.79" ry="180.28" transform="translate(-27.14 36.36) rotate(-8.72)"/><ellipse class="cls-46" cx="224.78" cy="196.07" rx="163.49" ry="178.86" transform="translate(-27.14 36.36) rotate(-8.72)"/><ellipse class="cls-47" cx="224.78" cy="196.07" rx="162.19" ry="177.44" transform="translate(-27.14 36.36) rotate(-8.72)"/><ellipse class="cls-48" cx="224.78" cy="196.07" rx="160.89" ry="176.02" transform="translate(-27.14 36.36) rotate(-8.72)"/><ellipse class="cls-49" cx="224.78" cy="196.07" rx="159.6" ry="174.6" transform="translate(-27.14 36.36) rotate(-8.72)"/><ellipse class="cls-50" cx="224.78" cy="196.07" rx="158.3" ry="173.18" transform="translate(-27.14 36.36) rotate(-8.72)"/><ellipse class="cls-51" cx="224.78" cy="196.07" rx="157" ry="171.76" transform="matrix(0.99, -0.15, 0.15, 0.99, -27.14, 36.36)"/><ellipse class="cls-52" cx="224.78" cy="196.07" rx="155.7" ry="170.34" transform="translate(-27.14 36.36) rotate(-8.72)"/><ellipse class="cls-53" cx="224.78" cy="196.07" rx="154.41" ry="168.92" transform="translate(-27.14 36.36) rotate(-8.72)"/><ellipse class="cls-54" cx="224.78" cy="196.07" rx="153.11" ry="167.5" transform="translate(-27.14 36.36) rotate(-8.72)"/><ellipse class="cls-55" cx="224.78" cy="196.07" rx="151.81" ry="166.08" transform="translate(-27.14 36.36) rotate(-8.72)"/><ellipse class="cls-56" cx="224.78" cy="196.07" rx="150.51" ry="164.66" transform="translate(-27.14 36.36) rotate(-8.72)"/><ellipse class="cls-57" cx="224.78" cy="196.07" rx="149.22" ry="163.24" transform="translate(-27.14 36.36) rotate(-8.72)"/><ellipse class="cls-58" cx="224.78" cy="196.07" rx="147.92" ry="161.82" transform="translate(-27.14 36.36) rotate(-8.72)"/><ellipse class="cls-59" cx="224.78" cy="196.07" rx="146.62" ry="160.4" transform="translate(-27.14 36.36) rotate(-8.72)"/><ellipse class="cls-60" cx="224.78" cy="196.07" rx="145.32" ry="158.98" transform="translate(-27.14 36.36) rotate(-8.72)"/><ellipse class="cls-61" cx="224.78" cy="196.07" rx="144.03" ry="157.56" transform="translate(-27.14 36.36) rotate(-8.72)"/><ellipse class="cls-62" cx="224.78" cy="196.07" rx="142.73" ry="156.15" transform="translate(-27.14 36.36) rotate(-8.72)"/><ellipse class="cls-63" cx="224.78" cy="196.07" rx="141.43" ry="154.73" transform="translate(-27.14 36.36) rotate(-8.72)"/><ellipse class="cls-64" cx="224.78" cy="196.07" rx="140.13" ry="153.31" transform="translate(-27.14 36.36) rotate(-8.72)"/><ellipse class="cls-65" cx="224.78" cy="196.07" rx="138.84" ry="151.89" transform="translate(-27.14 36.36) rotate(-8.72)"/><ellipse class="cls-66" cx="224.78" cy="196.07" rx="137.54" ry="150.47" transform="translate(-27.14 36.36) rotate(-8.72)"/><ellipse class="cls-67" cx="224.78" cy="196.07" rx="136.24" ry="149.05" transform="translate(-27.14 36.36) rotate(-8.72)"/><ellipse class="cls-68" cx="224.78" cy="196.07" rx="134.94" ry="147.63" transform="translate(-27.14 36.36) rotate(-8.72)"/><ellipse class="cls-69" cx="224.78" cy="196.07" rx="133.65" ry="146.21" transform="translate(-27.14 36.36) rotate(-8.72)"/><ellipse class="cls-70" cx="224.78" cy="196.07" rx="132.35" ry="144.79" transform="translate(-27.14 36.36) rotate(-8.72)"/><ellipse class="cls-71" cx="224.78" cy="196.07" rx="131.05" ry="143.37" transform="translate(-27.14 36.36) rotate(-8.72)"/><ellipse class="cls-72" cx="224.78" cy="196.07" rx="129.75" ry="141.95" transform="matrix(0.99, -0.15, 0.15, 0.99, -27.14, 36.36)"/><ellipse class="cls-73" cx="224.78" cy="196.07" rx="128.46" ry="140.53" transform="translate(-27.14 36.36) rotate(-8.72)"/><ellipse class="cls-74" cx="224.78" cy="196.07" rx="127.16" ry="139.11" transform="translate(-27.14 36.36) rotate(-8.72)"/><ellipse class="cls-75" cx="224.78" cy="196.07" rx="125.86" ry="137.69" transform="translate(-27.14 36.36) rotate(-8.72)"/><ellipse class="cls-76" cx="224.78" cy="196.07" rx="124.56" ry="136.27" transform="translate(-27.14 36.36) rotate(-8.72)"/><ellipse class="cls-77" cx="224.78" cy="196.07" rx="123.27" ry="134.85" transform="translate(-27.14 36.36) rotate(-8.72)"/><ellipse class="cls-78" cx="224.78" cy="196.07" rx="121.97" ry="133.43" transform="translate(-27.14 36.36) rotate(-8.72)"/><ellipse class="cls-79" cx="224.78" cy="196.07" rx="120.67" ry="132.01" transform="translate(-27.14 36.36) rotate(-8.72)"/><ellipse class="cls-80" cx="224.78" cy="196.07" rx="119.37" ry="130.59" transform="translate(-27.14 36.36) rotate(-8.72)"/><ellipse class="cls-81" cx="224.78" cy="196.07" rx="118.08" ry="129.17" transform="translate(-27.14 36.36) rotate(-8.72)"/><ellipse class="cls-82" cx="224.78" cy="196.07" rx="116.78" ry="127.76" transform="translate(-27.14 36.36) rotate(-8.72)"/><ellipse class="cls-83" cx="224.78" cy="196.07" rx="115.48" ry="126.34" transform="translate(-27.14 36.36) rotate(-8.72)"/><ellipse class="cls-84" cx="224.78" cy="196.07" rx="114.18" ry="124.92" transform="translate(-27.14 36.36) rotate(-8.72)"/><ellipse class="cls-85" cx="224.78" cy="196.07" rx="112.89" ry="123.5" transform="translate(-27.14 36.36) rotate(-8.72)"/><ellipse class="cls-86" cx="224.78" cy="196.07" rx="111.59" ry="122.08" transform="translate(-27.14 36.36) rotate(-8.72)"/><ellipse class="cls-87" cx="224.78" cy="196.07" rx="110.29" ry="120.66" transform="translate(-27.14 36.36) rotate(-8.72)"/><ellipse class="cls-88" cx="224.78" cy="196.07" rx="108.99" ry="119.24" transform="matrix(0.99, -0.15, 0.15, 0.99, -27.14, 36.36)"/><ellipse class="cls-89" cx="224.78" cy="196.07" rx="107.7" ry="117.82" transform="translate(-27.14 36.36) rotate(-8.72)"/><ellipse class="cls-90" cx="224.78" cy="196.07" rx="106.4" ry="116.4" transform="translate(-27.14 36.36) rotate(-8.72)"/><ellipse class="cls-91" cx="224.78" cy="196.07" rx="105.1" ry="114.98" transform="translate(-27.14 36.36) rotate(-8.72)"/><ellipse class="cls-92" cx="224.78" cy="196.07" rx="103.8" ry="113.56" transform="translate(-27.14 36.36) rotate(-8.72)"/><ellipse class="cls-93" cx="224.78" cy="196.07" rx="102.51" ry="112.14" transform="matrix(0.99, -0.15, 0.15, 0.99, -27.14, 36.36)"/><ellipse class="cls-94" cx="224.78" cy="196.07" rx="101.21" ry="110.72" transform="translate(-27.14 36.36) rotate(-8.72)"/><ellipse class="cls-95" cx="224.78" cy="196.07" rx="99.91" ry="109.3" transform="translate(-27.14 36.36) rotate(-8.72)"/><ellipse class="cls-96" cx="224.78" cy="196.07" rx="98.61" ry="107.88" transform="translate(-27.14 36.36) rotate(-8.72)"/><ellipse class="cls-97" cx="224.78" cy="196.07" rx="97.32" ry="106.46" transform="translate(-27.14 36.36) rotate(-8.72)"/><ellipse class="cls-98" cx="224.78" cy="196.07" rx="96.02" ry="105.04" transform="translate(-27.14 36.36) rotate(-8.72)"/><ellipse class="cls-99" cx="224.78" cy="196.07" rx="94.72" ry="103.62" transform="translate(-27.14 36.36) rotate(-8.72)"/><ellipse class="cls-100" cx="224.78" cy="196.07" rx="93.42" ry="102.2" transform="translate(-27.14 36.36) rotate(-8.72)"/><ellipse class="cls-101" cx="224.78" cy="196.07" rx="92.13" ry="100.78" transform="translate(-27.14 36.36) rotate(-8.72)"/><ellipse class="cls-102" cx="224.78" cy="196.07" rx="90.83" ry="99.37" transform="translate(-27.14 36.36) rotate(-8.72)"/><ellipse class="cls-103" cx="224.78" cy="196.07" rx="89.53" ry="97.95" transform="translate(-27.14 36.36) rotate(-8.72)"/><ellipse class="cls-104" cx="224.78" cy="196.07" rx="88.23" ry="96.53" transform="translate(-27.14 36.36) rotate(-8.72)"/><ellipse class="cls-105" cx="224.78" cy="196.07" rx="86.93" ry="95.11" transform="translate(-27.14 36.36) rotate(-8.72)"/><ellipse class="cls-106" cx="224.78" cy="196.07" rx="85.64" ry="93.69" transform="translate(-27.14 36.36) rotate(-8.72)"/><ellipse class="cls-107" cx="224.78" cy="196.07" rx="84.34" ry="92.27" transform="translate(-27.14 36.36) rotate(-8.72)"/><ellipse class="cls-108" cx="224.78" cy="196.07" rx="83.04" ry="90.85" transform="translate(-27.14 36.36) rotate(-8.72)"/><ellipse class="cls-109" cx="224.78" cy="196.07" rx="81.74" ry="89.43" transform="translate(-27.14 36.36) rotate(-8.72)"/><ellipse class="cls-110" cx="224.78" cy="196.07" rx="80.45" ry="88.01" transform="translate(-27.14 36.36) rotate(-8.72)"/><ellipse class="cls-110" cx="224.78" cy="196.07" rx="79.15" ry="86.59" transform="translate(-27.14 36.36) rotate(-8.72)"/><ellipse class="cls-111" cx="224.78" cy="196.07" rx="77.85" ry="85.17" transform="matrix(0.99, -0.15, 0.15, 0.99, -27.14, 36.36)"/><ellipse class="cls-112" cx="224.78" cy="196.07" rx="76.55" ry="83.75" transform="translate(-27.14 36.36) rotate(-8.72)"/><ellipse class="cls-113" cx="224.78" cy="196.07" rx="75.26" ry="82.33" transform="translate(-27.14 36.36) rotate(-8.72)"/><ellipse class="cls-114" cx="224.78" cy="196.07" rx="73.96" ry="80.91" transform="translate(-27.14 36.36) rotate(-8.72)"/><ellipse class="cls-115" cx="224.78" cy="196.07" rx="72.66" ry="79.49" transform="translate(-27.14 36.36) rotate(-8.72)"/><ellipse class="cls-116" cx="224.78" cy="196.07" rx="71.36" ry="78.07" transform="matrix(0.99, -0.15, 0.15, 0.99, -27.14, 36.36)"/><ellipse class="cls-117" cx="224.78" cy="196.07" rx="70.07" ry="76.65" transform="matrix(0.99, -0.15, 0.15, 0.99, -27.14, 36.36)"/><ellipse class="cls-118" cx="224.78" cy="196.07" rx="68.77" ry="75.23" transform="translate(-27.14 36.36) rotate(-8.72)"/><ellipse class="cls-119" cx="224.78" cy="196.07" rx="67.47" ry="73.81" transform="translate(-27.14 36.36) rotate(-8.72)"/><ellipse class="cls-120" cx="224.78" cy="196.07" rx="66.17" ry="72.39" transform="translate(-27.14 36.36) rotate(-8.72)"/><ellipse class="cls-121" cx="224.78" cy="196.07" rx="64.88" ry="70.98" transform="translate(-27.14 36.36) rotate(-8.72)"/><ellipse class="cls-122" cx="224.78" cy="196.07" rx="63.58" ry="69.56" transform="translate(-27.14 36.36) rotate(-8.72)"/><ellipse class="cls-122" cx="224.78" cy="196.07" rx="62.28" ry="68.14" transform="translate(-27.14 36.36) rotate(-8.72)"/><ellipse class="cls-123" cx="224.78" cy="196.07" rx="60.98" ry="66.72" transform="translate(-27.14 36.36) rotate(-8.72)"/><ellipse class="cls-124" cx="224.78" cy="196.07" rx="59.69" ry="65.3" transform="matrix(0.99, -0.15, 0.15, 0.99, -27.14, 36.36)"/><ellipse class="cls-125" cx="224.78" cy="196.07" rx="58.39" ry="63.88" transform="translate(-27.14 36.36) rotate(-8.72)"/><ellipse class="cls-126" cx="224.78" cy="196.07" rx="57.09" ry="62.46" transform="translate(-27.14 36.36) rotate(-8.72)"/><ellipse class="cls-126" cx="224.78" cy="196.07" rx="55.79" ry="61.04" transform="translate(-27.14 36.36) rotate(-8.72)"/><ellipse class="cls-127" cx="224.78" cy="196.07" rx="54.5" ry="59.62" transform="translate(-27.14 36.36) rotate(-8.72)"/><ellipse class="cls-128" cx="224.78" cy="196.07" rx="53.2" ry="58.2" transform="translate(-27.14 36.36) rotate(-8.72)"/><ellipse class="cls-129" cx="224.78" cy="196.07" rx="51.9" ry="56.78" transform="translate(-27.14 36.36) rotate(-8.72)"/><ellipse class="cls-130" cx="224.78" cy="196.07" rx="50.6" ry="55.36" transform="translate(-27.14 36.36) rotate(-8.72)"/><ellipse class="cls-131" cx="224.78" cy="196.07" rx="49.31" ry="53.94" transform="translate(-27.14 36.36) rotate(-8.72)"/><ellipse class="cls-132" cx="224.78" cy="196.07" rx="48.01" ry="52.52" transform="translate(-27.14 36.36) rotate(-8.72)"/><ellipse class="cls-132" cx="224.78" cy="196.07" rx="46.71" ry="51.1" transform="translate(-27.14 36.36) rotate(-8.72)"/><ellipse class="cls-133" cx="224.78" cy="196.07" rx="45.41" ry="49.68" transform="translate(-27.14 36.36) rotate(-8.72)"/><ellipse class="cls-134" cx="224.78" cy="196.07" rx="44.12" ry="48.26" transform="translate(-27.14 36.36) rotate(-8.72)"/><ellipse class="cls-134" cx="224.78" cy="196.07" rx="42.82" ry="46.84" transform="translate(-27.14 36.36) rotate(-8.72)"/><ellipse class="cls-135" cx="224.78" cy="196.07" rx="41.52" ry="45.42" transform="translate(-27.14 36.36) rotate(-8.72)"/><ellipse class="cls-136" cx="224.78" cy="196.07" rx="40.22" ry="44" transform="translate(-27.14 36.36) rotate(-8.72)"/><ellipse class="cls-136" cx="224.78" cy="196.07" rx="38.93" ry="42.59" transform="translate(-27.14 36.36) rotate(-8.72)"/><ellipse class="cls-137" cx="224.78" cy="196.07" rx="37.63" ry="41.17" transform="translate(-27.14 36.36) rotate(-8.72)"/><ellipse class="cls-137" cx="224.78" cy="196.07" rx="36.33" ry="39.75" transform="translate(-27.14 36.36) rotate(-8.72)"/><ellipse class="cls-138" cx="224.78" cy="196.07" rx="35.03" ry="38.33" transform="translate(-27.14 36.36) rotate(-8.72)"/><ellipse class="cls-139" cx="224.78" cy="196.07" rx="33.74" ry="36.91" transform="translate(-27.14 36.36) rotate(-8.72)"/><ellipse class="cls-139" cx="224.78" cy="196.07" rx="32.44" ry="35.49" transform="translate(-27.14 36.36) rotate(-8.72)"/><ellipse class="cls-140" cx="224.78" cy="196.07" rx="31.14" ry="34.07" transform="translate(-27.14 36.36) rotate(-8.72)"/><ellipse class="cls-141" cx="224.78" cy="196.07" rx="29.84" ry="32.65" transform="translate(-27.14 36.36) rotate(-8.72)"/><ellipse class="cls-142" cx="224.78" cy="196.07" rx="28.55" ry="31.23" transform="translate(-27.14 36.36) rotate(-8.72)"/><ellipse class="cls-142" cx="224.78" cy="196.07" rx="27.25" ry="29.81" transform="translate(-27.14 36.36) rotate(-8.72)"/><ellipse class="cls-143" cx="224.78" cy="196.07" rx="25.95" ry="28.39" transform="matrix(0.99, -0.15, 0.15, 0.99, -27.14, 36.36)"/><ellipse class="cls-143" cx="224.78" cy="196.07" rx="24.65" ry="26.97" transform="translate(-27.14 36.36) rotate(-8.72)"/><ellipse class="cls-144" cx="224.78" cy="196.07" rx="23.36" ry="25.55" transform="translate(-27.14 36.36) rotate(-8.72)"/><ellipse class="cls-144" cx="224.78" cy="196.07" rx="22.06" ry="24.13" transform="translate(-27.14 36.36) rotate(-8.72)"/><ellipse class="cls-145" cx="224.78" cy="196.07" rx="20.76" ry="22.71" transform="translate(-27.14 36.36) rotate(-8.72)"/><ellipse class="cls-145" cx="224.78" cy="196.07" rx="19.46" ry="21.29" transform="translate(-27.14 36.36) rotate(-8.72)"/><ellipse class="cls-146" cx="224.78" cy="196.07" rx="18.17" ry="19.87" transform="translate(-27.14 36.36) rotate(-8.72)"/><ellipse class="cls-146" cx="224.78" cy="196.07" rx="16.87" ry="18.45" transform="translate(-27.14 36.36) rotate(-8.72)"/><ellipse class="cls-146" cx="224.78" cy="196.07" rx="15.57" ry="17.03" transform="translate(-27.14 36.36) rotate(-8.72)"/><ellipse class="cls-147" cx="224.78" cy="196.07" rx="14.27" ry="15.61" transform="translate(-27.14 36.36) rotate(-8.72)"/><ellipse class="cls-147" cx="224.78" cy="196.07" rx="12.98" ry="14.2" transform="translate(-27.14 36.36) rotate(-8.72)"/><ellipse class="cls-147" cx="224.78" cy="196.07" rx="11.68" ry="12.78" transform="translate(-27.14 36.36) rotate(-8.72)"/><ellipse class="cls-148" cx="224.78" cy="196.07" rx="10.38" ry="11.36" transform="translate(-27.14 36.36) rotate(-8.72)"/><ellipse class="cls-148" cx="224.78" cy="196.07" rx="9.08" ry="9.94" transform="translate(-27.14 36.36) rotate(-8.72)"/><ellipse class="cls-148" cx="224.78" cy="196.07" rx="7.79" ry="8.52" transform="translate(-27.14 36.36) rotate(-8.72)"/><ellipse class="cls-148" cx="224.78" cy="196.07" rx="6.49" ry="7.1" transform="translate(-27.14 36.36) rotate(-8.72)"/><ellipse class="cls-149" cx="224.78" cy="196.07" rx="5.19" ry="5.68" transform="translate(-27.14 36.36) rotate(-8.72)"/><ellipse class="cls-149" cx="224.78" cy="196.07" rx="3.89" ry="4.26" transform="translate(-27.14 36.36) rotate(-8.72)"/><ellipse class="cls-149" cx="224.78" cy="196.07" rx="2.6" ry="2.84" transform="translate(-27.14 36.36) rotate(-8.72)"/><ellipse class="cls-149" cx="224.78" cy="196.07" rx="1.3" ry="1.42" transform="translate(-27.14 36.36) rotate(-8.72)"/></g><polygon class="cls-150" points="396.25 290.05 134.68 340.14 134.68 230.2 396.25 180.1 396.25 290.05"/><polygon class="cls-151" points="294.76 309.48 236.16 320.7 236.16 210.76 294.76 199.54 294.76 309.48"/><polygon class="cls-152" points="54.08 223.58 134.68 340.14 134.68 230.2 54.08 113.63 54.08 223.58"/><polygon class="cls-151" points="85.35 268.8 103.41 294.92 103.41 184.97 85.35 158.86 85.35 268.8"/><polygon class="cls-153" points="396.26 180.1 294.77 199.54 236.15 210.76 134.66 230.2 103.4 184.97 85.35 158.85 54.09 113.63 158.59 95.42 214.55 85.65 293.78 71.85 329.73 109.82 351.57 132.9 396.26 180.1"/><polygon class="cls-154" points="294.77 199.54 236.15 210.76 204.53 163.75 187.47 138.38 158.59 95.42 214.55 85.65 243.73 127.1 261.2 151.87 294.77 199.54"/><polygon class="cls-154" points="351.57 132.9 261.2 151.87 204.53 163.75 103.4 184.97 85.35 158.85 187.47 138.38 243.73 127.1 329.73 109.82 351.57 132.9"/><g class="cls-155"><path class="cls-156" d="M257.6,150.25a76.76,76.76,0,0,1-33.32-14.6c-9.25-7.08-16.76-16.17-25.7-23.63s-20.13-13.4-31.72-12.28-22.67,11.61-21,23.13c1.39,9.37,10.18,15.9,19,19.31s18.5,4.84,26.72,9.55c13.6,7.8,20.88,23,31.72,34.34,8.3,8.67,19.3,15.25,31.27,16.26s24.78-4.36,30.79-14.76,3.43-25.51-6.75-31.88C272.48,151.82,264.8,151.5,257.6,150.25Z"/></g><path class="cls-151" d="M280.59,190.13a54.85,54.85,0,0,1-14.21-3.92c-26-10.62-44.71-43-44.71-43s91.71-30.12,97.66,0C324.42,169.18,308.51,193.66,280.59,190.13Z"/><path class="cls-157" d="M280.59,190.13c5.72-1.51,11.33-5,13.63-12.71,5.48-18.26-72.55-34.22-72.55-34.22s91.71-30.12,97.66,0C324.42,169.18,308.51,193.66,280.59,190.13Z"/><path class="cls-151" d="M146.67,105.18a48.28,48.28,0,0,0,9,10.52C175.24,133.55,212,136.3,212,136.3s-7.3-90.48-37.1-83.27C149.18,59.27,132.83,82.8,146.67,105.18Z"/><path class="cls-157" d="M146.67,105.18a17.41,17.41,0,0,1,6.44-16.8C167.73,76.27,212,136.3,212,136.3s-7.3-90.48-37.1-83.27C149.18,59.27,132.83,82.8,146.67,105.18Z"/><path class="cls-151" d="M227.89,143.45c-2.29,4.81-8.74,6.52-14.41,3.82s-8.39-8.79-6.1-13.6,8.74-6.52,14.4-3.81S230.18,138.64,227.89,143.45Z"/><g class="cls-158"><path class="cls-159" d="M449.55,385.63H0V6.5H449.55ZM3,382.63H446.55V9.5H3Z"/></g></g></g></g></svg>