<svg xmlns="http://www.w3.org/2000/svg" xmlns:xlink="http://www.w3.org/1999/xlink" viewBox="0 0 364.98 459.31"><defs><style>.cls-1{fill:none;}.cls-2{clip-path:url(#clip-path);}.cls-3{fill:#fff;}.cls-4{fill:#feffff;}.cls-5{fill:#fdffff;}.cls-6{fill:#fcffff;}.cls-7{fill:#fafeff;}.cls-8{fill:#f9feff;}.cls-9{fill:#f8feff;}.cls-10{fill:#f7feff;}.cls-11{fill:#f6feff;}.cls-12{fill:#f5feff;}.cls-13{fill:#f4feff;}.cls-14{fill:#f2feff;}.cls-15{fill:#f1fdff;}.cls-16{fill:#f0fdff;}.cls-17{fill:#effdff;}.cls-18{fill:#eefdff;}.cls-19{fill:#edfdff;}.cls-20{fill:#ecfdff;}.cls-21{fill:#eafdff;}.cls-22{fill:#e9fdff;}.cls-23{fill:#e8fcff;}.cls-24{fill:#e7fcff;}.cls-25{fill:#e6fcff;}.cls-26{fill:#e5fcff;}.cls-27{fill:#e4fcff;}.cls-28{fill:#e3fcff;}.cls-29{fill:#e1fcff;}.cls-30{fill:#e0fcff;}.cls-31{fill:#dffbff;}.cls-32{fill:#defbff;}.cls-33{fill:#ddfbff;}.cls-34{fill:#dcfbff;}.cls-35{fill:#dbfbff;}.cls-36{fill:#dafbff;}.cls-37{fill:#d9fbff;}.cls-38{fill:#d7fbff;}.cls-39{fill:#d6faff;}.cls-40{fill:#d5faff;}.cls-41{fill:#d4faff;}.cls-42{fill:#d3faff;}.cls-43{fill:#d2faff;}.cls-44{fill:#d1faff;}.cls-45{fill:#d0faff;}.cls-46{fill:#cffaff;}.cls-47{fill:#cefaff;}.cls-48{fill:#cdf9ff;}.cls-49{fill:#cbf9ff;}.cls-50{fill:#caf9ff;}.cls-51{fill:#c9f9ff;}.cls-52{fill:#c8f9ff;}.cls-53{fill:#c7f9ff;}.cls-54{fill:#c6f9ff;}.cls-55{fill:#c5f9ff;}.cls-56{fill:#c4f8ff;}.cls-57{fill:#c3f8ff;}.cls-58{fill:#c2f8ff;}.cls-59{fill:#c1f8ff;}.cls-60{fill:#c0f8ff;}.cls-61{fill:#bff8ff;}.cls-62{fill:#bef8ff;}.cls-63{fill:#bdf8ff;}.cls-64{fill:#bcf8ff;}.cls-65{fill:#baf7ff;}.cls-66{fill:#b9f7ff;}.cls-67{fill:#b8f7ff;}.cls-68{fill:#b7f7ff;}.cls-69{fill:#b6f7ff;}.cls-70{fill:#b5f7ff;}.cls-71{fill:#b4f7ff;}.cls-72{fill:#b3f7ff;}.cls-73{fill:#b2f6ff;}.cls-74{fill:#b1f6ff;}.cls-75{fill:#b0f6ff;}.cls-76{fill:#aff6ff;}.cls-77{fill:#aef6ff;}.cls-78{fill:#adf6ff;}.cls-79{fill:#acf6ff;}.cls-80{fill:#abf6ff;}.cls-81{fill:#aaf6ff;}.cls-82{fill:#a9f5ff;}.cls-83{fill:#a8f5ff;}.cls-84{fill:#a7f5ff;}.cls-85{fill:#a6f5ff;}.cls-86{fill:#a5f5ff;}.cls-87{fill:#a4f5ff;}.cls-88{fill:#a3f5ff;}.cls-89{fill:#a2f5ff;}.cls-90{fill:#a1f5ff;}.cls-91{fill:#a0f4ff;}.cls-92{fill:#9ff4ff;}.cls-93{fill:#9ef4ff;}.cls-94{fill:#9df4ff;}.cls-95{fill:#9cf4ff;}.cls-96{fill:#9bf4ff;}.cls-97{fill:#9af4ff;}.cls-98{fill:#99f4ff;}.cls-99{fill:#98f4ff;}.cls-100{fill:#97f3ff;}.cls-101{fill:#96f3ff;}.cls-102{fill:#95f3ff;}.cls-103{fill:#94f3ff;}.cls-104{fill:#93f3ff;}.cls-105{fill:#92f3ff;}.cls-106{fill:#91f3ff;}.cls-107{fill:#90f3ff;}.cls-108{fill:#8ff3ff;}.cls-109{fill:#8ef2ff;}.cls-110{fill:#8df2ff;}.cls-111{fill:#8cf2ff;}.cls-112{fill:#8bf2ff;}.cls-113{fill:#8af2ff;}.cls-114{fill:#89f2ff;}.cls-115{fill:#88f2ff;}.cls-116{fill:#87f2ff;}.cls-117{fill:#86f2ff;}.cls-118{fill:#85f1ff;}.cls-119{fill:#84f1ff;}.cls-120{fill:#83f1ff;}.cls-121{fill:#82f1ff;}.cls-122{fill:#81f1ff;}.cls-123{clip-path:url(#clip-path-2);}.cls-124{fill:#fefefe;}.cls-125{fill:#fdfdfd;}.cls-126{fill:#fcfcfc;}.cls-127{fill:#fbfbfb;}.cls-128{fill:#fafafa;}.cls-129{fill:#f9f9f9;}.cls-130{fill:#f8f8f8;}.cls-131{fill:#f7f7f7;}.cls-132{fill:#f6f6f6;}.cls-133{fill:#f5f5f5;}.cls-134{fill:#f4f4f4;}.cls-135{fill:#f3f3f3;}.cls-136{fill:#f2f2f2;}.cls-137{fill:#f1f1f1;}.cls-138{fill:#f0f0f0;}.cls-139{fill:#efefef;}.cls-140{fill:#eee;}.cls-141{fill:#ededed;}.cls-142{fill:#ececec;}.cls-143{fill:#ebebeb;}.cls-144{fill:#eaeaea;}.cls-145{fill:#e9e9e9;}.cls-146{fill:#e8e8e8;}.cls-147{fill:#e7e7e7;}.cls-148{fill:#e6e6e6;}.cls-149{fill:#e5e5e5;}.cls-150{fill:#e4e4e4;}.cls-151{fill:#e3e3e3;}.cls-152{fill:#e2e2e2;}.cls-153{fill:#e1e1e1;}.cls-154{fill:#e0e0e0;}.cls-155{fill:#dfdfdf;}.cls-156{fill:#dedede;}.cls-157{fill:#ddd;}.cls-158{fill:#dcdcdc;}.cls-159{fill:#dbdbdb;}.cls-160{fill:#dadada;}.cls-161{fill:#d9d9d9;}.cls-162{fill:#d8d8d8;}.cls-163{fill:#d7d7d7;}.cls-164{fill:#d6d6d6;}.cls-165{fill:#d5d5d5;}.cls-166{fill:#d4d4d4;}.cls-167{fill:#d3d3d3;}.cls-168{fill:#d2d2d2;}.cls-169{fill:#d1d1d1;}.cls-170{fill:#d0d0d0;}.cls-171{fill:#cfcfcf;}.cls-172{fill:#cecece;}.cls-173{fill:#cdcdcd;}.cls-174{fill:#ccc;}.cls-175{fill:#cbcbcb;}.cls-176{fill:#cacaca;}.cls-177{fill:#c9c9c9;}.cls-178{fill:#c8c8c8;}.cls-179{fill:#c7c7c7;}.cls-180{fill:#c6c6c6;}.cls-181{fill:#c5c5c5;}.cls-182{fill:#c4c4c4;}.cls-183{fill:#c3c3c3;}.cls-184{fill:#c2c2c2;}.cls-185{fill:#c1c1c1;}.cls-186{fill:silver;}.cls-187{fill:#bfbfbf;}.cls-188{fill:#bebebe;}.cls-189{fill:#bdbdbd;}.cls-190{fill:#bcbcbc;}.cls-191{fill:#bbb;}.cls-192{fill:#bababa;}.cls-193{fill:#b9b9b9;}.cls-194{fill:#b8b8b8;}.cls-195{fill:#b7b7b7;}.cls-196{fill:#b6b6b6;}.cls-197{fill:#b5b5b5;}.cls-198{fill:#b4b4b4;}.cls-199{fill:#b3b3b3;}.cls-200{fill:#b2b2b2;}.cls-201{fill:#b1b1b1;}.cls-202{fill:#b0b0b0;}.cls-203{fill:#afafaf;}.cls-204{fill:#aeaeae;}.cls-205{fill:#adadad;}.cls-206{fill:#acacac;}.cls-207{fill:#ababab;}.cls-208{fill:#aaa;}.cls-209{fill:#a9a9a9;}.cls-210{fill:#a8a8a8;}.cls-211{fill:#a7a7a7;}.cls-212{fill:#a6a6a6;}.cls-213{fill:#a5a5a5;}.cls-214{fill:#a4a4a4;}.cls-215{fill:#a3a3a3;}.cls-216{fill:#a2a2a2;}.cls-217{fill:#a1a1a1;}.cls-218{fill:#a0a0a0;}.cls-219{fill:#9f9f9f;}.cls-220{fill:#9e9e9e;}.cls-221{fill:#9d9d9d;}.cls-222{fill:#9c9c9c;}.cls-223{fill:#9b9b9b;}.cls-224{fill:#9a9a9a;}.cls-225{fill:#999;}.cls-226{fill:#989898;}.cls-227{fill:#979797;}.cls-228{fill:#969696;}.cls-229{fill:#959595;}.cls-230{fill:#949494;}.cls-231{fill:#939393;}.cls-232{fill:#929292;}.cls-233{fill:#919191;}.cls-234{fill:#909090;}.cls-235{fill:#8f8f8f;}.cls-236{fill:#8e8e8e;}.cls-237{fill:#8e8e8c;}.cls-238{fill:#8d8d8b;}.cls-239{fill:#8c8c8a;}.cls-240{fill:#8b8b89;}.cls-241{fill:#8a8a88;}.cls-242{fill:#898987;}.cls-243{fill:#888886;}.cls-244{fill:#878785;}.cls-245{fill:#868684;}.cls-246{fill:#858583;}.cls-247{fill:#848482;}.cls-248{fill:#838381;}.cls-249{fill:#828280;}.cls-250{fill:#81817f;}.cls-251{fill:#80807e;}.cls-252{fill:#7f7f7d;}.cls-253{fill:#7e7e7c;}.cls-254{fill:#7d7d7b;}.cls-255{fill:#7c7c7a;}.cls-256{fill:#7b7b79;}.cls-257{fill:#7a7a78;}.cls-258{fill:#797977;}.cls-259{fill:#787876;}.cls-260{fill:#777775;}.cls-261{fill:#767674;}.cls-262{fill:#757573;}.cls-263{fill:#747472;}.cls-264{fill:#737371;}.cls-265{fill:#727270;}.cls-266{fill:#71716f;}.cls-267{fill:#70706e;}.cls-268{fill:#6f6f6d;}.cls-269{fill:#6e6e6c;}.cls-270{fill:#6d6d6b;}.cls-271{fill:#6c6c6a;}.cls-272{fill:#6b6b69;}.cls-273{fill:#6a6a68;}.cls-274{fill:#696967;}.cls-275{fill:#686866;}.cls-276{fill:#676765;}.cls-277{fill:#666664;}.cls-278{fill:#656563;}.cls-279{fill:#646462;}.cls-280{fill:#636361;}.cls-281{fill:#626260;}.cls-282{fill:#61615f;}.cls-283{fill:#60605e;}.cls-284{fill:#5f5f5d;}.cls-285{fill:#5e5e5c;}.cls-286{fill:#5d5d5b;}.cls-287{fill:#5c5c5a;}.cls-288{fill:#5b5b59;}.cls-289{fill:#5a5a58;}.cls-290{fill:#595957;}.cls-291{fill:#585856;}.cls-292{fill:#575755;}.cls-293{fill:#565654;}.cls-294{fill:#555553;}.cls-295{fill:#545452;}.cls-296{fill:#535351;}.cls-297{fill:#525250;}.cls-298{fill:#51514f;}.cls-299{fill:#50504e;}.cls-300{fill:#4f4f4d;}.cls-301{fill:#4e4e4c;}.cls-302{fill:#4d4d4b;}.cls-303{fill:#4c4c4a;}.cls-304{fill:#4b4b49;}.cls-305{fill:#4a4a48;}.cls-306{fill:#494947;}.cls-307{fill:#484846;}.cls-308{fill:#474745;}.cls-309{fill:#464644;}.cls-310{fill:#454543;}.cls-311{fill:#444442;}.cls-312{fill:#434341;}.cls-313{fill:#424240;}.cls-314{fill:#41413f;}.cls-315{fill:#40403e;}.cls-316{fill:#3f3f3d;}.cls-317{fill:#3e3e3c;}.cls-318{fill:#3d3d3b;}.cls-319{fill:#3c3c3a;}.cls-320{fill:#3b3b39;}.cls-321{fill:#3a3a38;}.cls-322{fill:#393937;}.cls-323{fill:#383836;}.cls-324{fill:#373735;}.cls-325{fill:#363634;}.cls-326{fill:#353533;}.cls-327{fill:#343432;}.cls-328{fill:#333331;}.cls-329{fill:#323230;}.cls-330{fill:#31312f;}.cls-331{fill:#30302e;}.cls-332{fill:#2f2f2d;}.cls-333{fill:#2e2e2c;}.cls-334{fill:#2d2d2b;}.cls-335{fill:#2c2c2a;}.cls-336{fill:#2b2b29;}.cls-337{fill:#2a2a28;}.cls-338{fill:#292927;}.cls-339{fill:#282826;}.cls-340{fill:#272725;}.cls-341{fill:#262624;}.cls-342{fill:#252523;}.cls-343{fill:#242422;}.cls-344{fill:#232321;}.cls-345{fill:#222220;}.cls-346{fill:#21211f;}.cls-347{fill:#20201e;}.cls-348{fill:#1f1f1d;}.cls-349{fill:#1e1e1c;}.cls-350{fill:#1d1d1b;}.cls-351{fill:#87a064;}.cls-352{fill:#ceeaa4;}.cls-353{fill:#664f40;}.cls-354{fill:#47342a;}.cls-355{fill:#894415;}.cls-356{fill:#cc7962;}.cls-357{fill:#9b783b;}.cls-358{fill:#9aba74;}.cls-359{fill:#5e3424;}.cls-360{fill:#ec9477;}.cls-361{fill:#b2574d;}.cls-362{fill:#6d462b;}.cls-363{fill:#3a2313;}.cls-364{fill:#b0514e;}.cls-365{fill:#63300d;}.cls-366{fill:#703d1a;}.cls-367{fill:#846535;}.cls-368{fill:#4c4c4c;}.cls-369{fill:#ba0000;}.cls-370{fill:#7c5e2f;}.cls-371{clip-path:url(#clip-path-3);}.cls-372{fill:#fada78;}.cls-373{fill:#f9da78;}.cls-374{fill:#f9d978;}.cls-375{fill:#f9d977;}.cls-376{fill:#f8d977;}.cls-377{fill:#f8d877;}.cls-378{fill:#f7d777;}.cls-379{fill:#f7d776;}.cls-380{fill:#f6d776;}.cls-381{fill:#f6d676;}.cls-382{fill:#f5d676;}.cls-383{fill:#f4d575;}.cls-384{fill:#f3d475;}.cls-385{fill:#f3d374;}.cls-386{fill:#f2d374;}.cls-387{fill:#f1d274;}.cls-388{fill:#f1d273;}.cls-389{fill:#f0d173;}.cls-390{fill:#efd073;}.cls-391{fill:#eecf72;}.cls-392{fill:#edcf72;}.cls-393{fill:#ecce71;}.cls-394{fill:#ebcd71;}.cls-395{fill:#eacc70;}.cls-396{fill:#e9cb70;}.cls-397{fill:#e8ca6f;}.cls-398{fill:#e7c96e;}.cls-399{fill:#e6c86e;}.cls-400{fill:#e4c76d;}.cls-401{fill:#e3c66d;}.cls-402{fill:#e2c46c;}.cls-403{fill:#e0c36b;}.cls-404{fill:#dfc26b;}.cls-405{fill:#ddc06a;}.cls-406{fill:#dcbf69;}.cls-407{fill:#dabe68;}.cls-408{fill:#d8bc67;}.cls-409{fill:#d7bb67;}.cls-410{fill:#d5b966;}.cls-411{fill:#d3b765;}.cls-412{fill:#d1b664;}.cls-413{fill:#cfb463;}.cls-414{fill:#cdb262;}.cls-415{fill:#cbb061;}.cls-416{fill:#c9ae60;}.cls-417{fill:#c7ac5f;}.cls-418{fill:#c4aa5e;}.cls-419{fill:#c2a85c;}.cls-420{fill:#c0a65b;}.cls-421{fill:#bda45a;}.cls-422{fill:#bba259;}.cls-423{fill:#b8a058;}.cls-424{fill:#b69d56;}.cls-425{fill:#b39b55;}.cls-426{fill:#9b8c65;}.cls-427{fill:#b0d38c;}.cls-428{opacity:0.8;}.cls-429{fill:#fada99;}</style><clipPath id="clip-path"><rect class="cls-1" x="17.19" y="-10.84" width="331.19" height="358.64" transform="translate(14.31 351.26) rotate(-90)"/></clipPath><clipPath id="clip-path-2"><path class="cls-1" d="M362.56,334.53H3V2.42H362.56ZM3.93,333.61H361.64V3.34H3.93Z"/></clipPath><clipPath id="clip-path-3"><path class="cls-1" d="M35.08,448.6a31.22,31.22,0,0,1,2-6.81l-1.66-.62c14.8.61,29.29-4.78,42.15-12.14s24.48-16.68,36.81-24.9c5.15-3.44,10.53-6.73,16.49-8.4,4.7-1.31,9.61-1.58,14.48-1.82q39.46-1.91,79-1.43c1.11,0,2.43.14,3,1.11.63,1.13-.25,2.46-1.07,3.45C216,409.24,206.46,424.35,209.46,440c.57,3,1.58,5.63,1.81,8.64"/></clipPath></defs><title>5-365</title><g id="Camada_2" data-name="Camada 2"><g id="Camada_1-2" data-name="Camada 1"><g class="cls-2"><path class="cls-3" d="M3.47,334.07h0Z"/><rect class="cls-3" x="3.47" y="331.44" width="358.64" height="2.63"/><rect class="cls-4" x="3.47" y="328.81" width="358.64" height="2.63"/><rect class="cls-5" x="3.47" y="326.19" width="358.64" height="2.63"/><rect class="cls-6" x="3.47" y="323.56" width="358.64" height="2.63"/><rect class="cls-7" x="3.47" y="320.93" width="358.64" height="2.63"/><rect class="cls-8" x="3.47" y="318.3" width="358.64" height="2.63"/><rect class="cls-9" x="3.47" y="315.67" width="358.64" height="2.63"/><rect class="cls-10" x="3.47" y="313.04" width="358.64" height="2.63"/><rect class="cls-11" x="3.47" y="310.41" width="358.64" height="2.63"/><rect class="cls-12" x="3.47" y="307.79" width="358.64" height="2.63"/><rect class="cls-13" x="3.47" y="305.16" width="358.64" height="2.63"/><rect class="cls-14" x="3.47" y="302.53" width="358.64" height="2.63"/><rect class="cls-15" x="3.47" y="299.9" width="358.64" height="2.63"/><rect class="cls-16" x="3.47" y="297.27" width="358.64" height="2.63"/><rect class="cls-17" x="3.47" y="294.64" width="358.64" height="2.63"/><rect class="cls-18" x="3.47" y="292.02" width="358.64" height="2.63"/><rect class="cls-19" x="3.47" y="289.39" width="358.64" height="2.63"/><rect class="cls-20" x="3.47" y="286.76" width="358.64" height="2.63"/><rect class="cls-21" x="3.47" y="284.13" width="358.64" height="2.63"/><rect class="cls-22" x="3.47" y="281.5" width="358.64" height="2.63"/><rect class="cls-23" x="3.47" y="278.87" width="358.64" height="2.63"/><rect class="cls-24" x="3.47" y="276.24" width="358.64" height="2.63"/><rect class="cls-25" x="3.47" y="273.62" width="358.64" height="2.63"/><rect class="cls-26" x="3.47" y="270.99" width="358.64" height="2.63"/><rect class="cls-27" x="3.47" y="268.36" width="358.64" height="2.63"/><rect class="cls-28" x="3.47" y="265.73" width="358.64" height="2.63"/><rect class="cls-29" x="3.47" y="263.1" width="358.64" height="2.63"/><rect class="cls-30" x="3.47" y="260.47" width="358.64" height="2.63"/><rect class="cls-31" x="3.47" y="257.84" width="358.64" height="2.63"/><rect class="cls-32" x="3.47" y="255.22" width="358.64" height="2.63"/><rect class="cls-33" x="3.47" y="252.59" width="358.64" height="2.63"/><rect class="cls-34" x="3.47" y="249.96" width="358.64" height="2.63"/><rect class="cls-35" x="3.47" y="247.33" width="358.64" height="2.63"/><rect class="cls-36" x="3.47" y="244.7" width="358.64" height="2.63"/><rect class="cls-37" x="3.47" y="242.07" width="358.64" height="2.63"/><rect class="cls-38" x="3.47" y="239.45" width="358.64" height="2.63"/><rect class="cls-39" x="3.47" y="236.82" width="358.64" height="2.63"/><rect class="cls-40" x="3.47" y="234.19" width="358.64" height="2.63"/><rect class="cls-41" x="3.47" y="231.56" width="358.64" height="2.63"/><rect class="cls-42" x="3.47" y="228.93" width="358.64" height="2.63"/><rect class="cls-43" x="3.47" y="226.3" width="358.64" height="2.63"/><rect class="cls-44" x="3.47" y="223.67" width="358.64" height="2.63"/><rect class="cls-45" x="3.47" y="221.05" width="358.64" height="2.63"/><rect class="cls-46" x="3.47" y="218.42" width="358.64" height="2.63"/><rect class="cls-47" x="3.47" y="215.79" width="358.64" height="2.63"/><rect class="cls-48" x="3.47" y="213.16" width="358.64" height="2.63"/><rect class="cls-49" x="3.47" y="210.53" width="358.64" height="2.63"/><rect class="cls-50" x="3.47" y="207.9" width="358.64" height="2.63"/><rect class="cls-51" x="3.47" y="205.27" width="358.64" height="2.63"/><rect class="cls-52" x="3.47" y="202.65" width="358.64" height="2.63"/><rect class="cls-53" x="3.47" y="200.02" width="358.64" height="2.63"/><rect class="cls-54" x="3.47" y="197.39" width="358.64" height="2.63"/><rect class="cls-55" x="3.47" y="194.76" width="358.64" height="2.63"/><rect class="cls-56" x="3.47" y="192.13" width="358.64" height="2.63"/><rect class="cls-57" x="3.47" y="189.5" width="358.64" height="2.63"/><rect class="cls-58" x="3.47" y="186.88" width="358.64" height="2.63"/><rect class="cls-59" x="3.47" y="184.25" width="358.64" height="2.63"/><rect class="cls-60" x="3.47" y="181.62" width="358.64" height="2.63"/><rect class="cls-61" x="3.47" y="178.99" width="358.64" height="2.63"/><rect class="cls-62" x="3.47" y="176.36" width="358.64" height="2.63"/><rect class="cls-63" x="3.47" y="173.73" width="358.64" height="2.63"/><rect class="cls-64" x="3.47" y="171.1" width="358.64" height="2.63"/><rect class="cls-65" x="3.47" y="168.48" width="358.64" height="2.63"/><rect class="cls-66" x="3.47" y="165.85" width="358.64" height="2.63"/><rect class="cls-67" x="3.47" y="163.22" width="358.64" height="2.63"/><rect class="cls-68" x="3.47" y="160.59" width="358.64" height="2.63"/><rect class="cls-69" x="3.47" y="157.96" width="358.64" height="2.63"/><rect class="cls-70" x="3.47" y="155.33" width="358.64" height="2.63"/><rect class="cls-71" x="3.47" y="152.7" width="358.64" height="2.63"/><rect class="cls-72" x="3.47" y="150.08" width="358.64" height="2.63"/><rect class="cls-73" x="3.47" y="147.45" width="358.64" height="2.63"/><rect class="cls-74" x="3.47" y="144.82" width="358.64" height="2.63"/><rect class="cls-75" x="3.47" y="142.19" width="358.64" height="2.63"/><rect class="cls-76" x="3.47" y="139.56" width="358.64" height="2.63"/><rect class="cls-77" x="3.47" y="136.93" width="358.64" height="2.63"/><rect class="cls-78" x="3.47" y="134.31" width="358.64" height="2.63"/><rect class="cls-79" x="3.47" y="131.68" width="358.64" height="2.63"/><rect class="cls-80" x="3.47" y="129.05" width="358.64" height="2.63"/><rect class="cls-81" x="3.47" y="126.42" width="358.64" height="2.63"/><rect class="cls-82" x="3.47" y="123.79" width="358.64" height="2.63"/><rect class="cls-83" x="3.47" y="121.16" width="358.64" height="2.63"/><rect class="cls-84" x="3.47" y="118.53" width="358.64" height="2.63"/><rect class="cls-85" x="3.47" y="115.91" width="358.64" height="2.63"/><rect class="cls-86" x="3.47" y="113.28" width="358.64" height="2.63"/><rect class="cls-87" x="3.47" y="110.65" width="358.64" height="2.63"/><rect class="cls-88" x="3.47" y="108.02" width="358.64" height="2.63"/><rect class="cls-89" x="3.47" y="105.39" width="358.64" height="2.63"/><rect class="cls-90" x="3.47" y="102.76" width="358.64" height="2.63"/><rect class="cls-91" x="3.47" y="100.13" width="358.64" height="2.63"/><rect class="cls-92" x="3.47" y="97.51" width="358.64" height="2.63"/><rect class="cls-93" x="3.47" y="94.88" width="358.64" height="2.63"/><rect class="cls-94" x="3.47" y="92.25" width="358.64" height="2.63"/><rect class="cls-95" x="3.47" y="89.62" width="358.64" height="2.63"/><rect class="cls-96" x="3.47" y="86.99" width="358.64" height="2.63"/><rect class="cls-97" x="3.47" y="84.36" width="358.64" height="2.63"/><rect class="cls-97" x="3.47" y="81.74" width="358.64" height="2.63"/><rect class="cls-98" x="3.47" y="79.11" width="358.64" height="2.63"/><rect class="cls-99" x="3.47" y="76.48" width="358.64" height="2.63"/><rect class="cls-100" x="3.47" y="73.85" width="358.64" height="2.63"/><rect class="cls-101" x="3.47" y="71.22" width="358.64" height="2.63"/><rect class="cls-102" x="3.47" y="68.59" width="358.64" height="2.63"/><rect class="cls-103" x="3.47" y="65.96" width="358.64" height="2.63"/><rect class="cls-104" x="3.47" y="63.34" width="358.64" height="2.63"/><rect class="cls-105" x="3.47" y="60.71" width="358.64" height="2.63"/><rect class="cls-106" x="3.47" y="58.08" width="358.64" height="2.63"/><rect class="cls-107" x="3.47" y="55.45" width="358.64" height="2.63"/><rect class="cls-107" x="3.47" y="52.82" width="358.64" height="2.63"/><rect class="cls-108" x="3.47" y="50.19" width="358.64" height="2.63"/><rect class="cls-109" x="3.47" y="47.56" width="358.64" height="2.63"/><rect class="cls-110" x="3.47" y="44.94" width="358.64" height="2.63"/><rect class="cls-111" x="3.47" y="42.31" width="358.64" height="2.63"/><rect class="cls-112" x="3.47" y="39.68" width="358.64" height="2.63"/><rect class="cls-113" x="3.47" y="37.05" width="358.64" height="2.63"/><rect class="cls-113" x="3.47" y="34.42" width="358.64" height="2.63"/><rect class="cls-114" x="3.47" y="31.79" width="358.64" height="2.63"/><rect class="cls-115" x="3.47" y="29.17" width="358.64" height="2.63"/><rect class="cls-116" x="3.47" y="26.54" width="358.64" height="2.63"/><rect class="cls-117" x="3.47" y="23.91" width="358.64" height="2.63"/><rect class="cls-117" x="3.47" y="21.28" width="358.64" height="2.63"/><rect class="cls-118" x="3.47" y="18.65" width="358.64" height="2.63"/><rect class="cls-119" x="3.47" y="16.02" width="358.64" height="2.63"/><rect class="cls-120" x="3.47" y="13.39" width="358.64" height="2.63"/><rect class="cls-120" x="3.47" y="10.77" width="358.64" height="2.63"/><rect class="cls-121" x="3.47" y="8.14" width="358.64" height="2.63"/><rect class="cls-122" x="3.47" y="5.51" width="358.64" height="2.63"/><rect class="cls-122" x="3.47" y="2.88" width="358.64" height="2.63"/><path class="cls-122" d="M362.1,2.88h0Z"/></g><g class="cls-123"><rect class="cls-3" x="3.93" y="333.07" width="357.72" height="0.54"/><rect class="cls-124" x="3.93" y="331.62" width="357.72" height="1.46"/><rect class="cls-125" x="3.93" y="330.16" width="357.72" height="1.46"/><rect class="cls-126" x="3.93" y="328.71" width="357.72" height="1.46"/><rect class="cls-127" x="3.93" y="327.25" width="357.72" height="1.46"/><rect class="cls-128" x="3.93" y="325.79" width="357.72" height="1.46"/><rect class="cls-129" x="3.93" y="324.34" width="357.72" height="1.46"/><rect class="cls-130" x="3.93" y="322.88" width="357.72" height="1.46"/><rect class="cls-131" x="3.93" y="321.42" width="357.72" height="1.46"/><rect class="cls-132" x="3.93" y="319.97" width="357.72" height="1.46"/><rect class="cls-133" x="3.93" y="318.51" width="357.72" height="1.46"/><rect class="cls-134" x="3.93" y="317.05" width="357.72" height="1.46"/><rect class="cls-135" x="3.93" y="315.6" width="357.72" height="1.46"/><rect class="cls-136" x="3.93" y="314.14" width="357.72" height="1.46"/><rect class="cls-137" x="3.93" y="312.68" width="357.72" height="1.46"/><rect class="cls-138" x="3.93" y="311.23" width="357.72" height="1.46"/><rect class="cls-139" x="3.93" y="309.77" width="357.72" height="1.46"/><rect class="cls-140" x="3.93" y="308.31" width="357.72" height="1.46"/><rect class="cls-141" x="3.93" y="306.86" width="357.72" height="1.46"/><rect class="cls-142" x="3.93" y="305.4" width="357.72" height="1.46"/><rect class="cls-143" x="3.93" y="303.94" width="357.72" height="1.46"/><rect class="cls-144" x="3.93" y="302.49" width="357.72" height="1.46"/><rect class="cls-145" x="3.93" y="301.03" width="357.72" height="1.46"/><rect class="cls-146" x="3.93" y="299.57" width="357.72" height="1.46"/><rect class="cls-147" x="3.93" y="298.12" width="357.72" height="1.46"/><rect class="cls-148" x="3.93" y="296.66" width="357.72" height="1.46"/><rect class="cls-149" x="3.93" y="295.2" width="357.72" height="1.46"/><rect class="cls-150" x="3.93" y="293.75" width="357.72" height="1.46"/><rect class="cls-151" x="3.93" y="292.29" width="357.72" height="1.46"/><rect class="cls-152" x="3.93" y="290.83" width="357.72" height="1.46"/><rect class="cls-153" x="3.93" y="289.38" width="357.72" height="1.46"/><rect class="cls-154" x="3.93" y="287.92" width="357.72" height="1.46"/><rect class="cls-155" x="3.93" y="286.46" width="357.72" height="1.46"/><rect class="cls-156" x="3.93" y="285.01" width="357.72" height="1.46"/><rect class="cls-157" x="3.93" y="283.55" width="357.72" height="1.46"/><rect class="cls-158" x="3.93" y="282.09" width="357.72" height="1.46"/><rect class="cls-159" x="3.93" y="280.64" width="357.72" height="1.46"/><rect class="cls-160" x="3.93" y="279.18" width="357.72" height="1.46"/><rect class="cls-161" x="3.93" y="277.72" width="357.72" height="1.46"/><rect class="cls-162" x="3.93" y="276.27" width="357.72" height="1.46"/><rect class="cls-163" x="3.93" y="274.81" width="357.72" height="1.46"/><rect class="cls-164" x="3.93" y="273.35" width="357.72" height="1.46"/><rect class="cls-165" x="3.93" y="271.9" width="357.72" height="1.46"/><rect class="cls-166" x="3.93" y="270.44" width="357.72" height="1.46"/><rect class="cls-167" x="3.93" y="268.98" width="357.72" height="1.46"/><rect class="cls-168" x="3.93" y="267.53" width="357.72" height="1.46"/><rect class="cls-169" x="3.93" y="266.07" width="357.72" height="1.46"/><rect class="cls-170" x="3.93" y="264.61" width="357.72" height="1.46"/><rect class="cls-171" x="3.93" y="263.16" width="357.72" height="1.46"/><rect class="cls-172" x="3.93" y="261.7" width="357.72" height="1.46"/><rect class="cls-173" x="3.93" y="260.24" width="357.72" height="1.46"/><rect class="cls-174" x="3.93" y="258.79" width="357.72" height="1.46"/><rect class="cls-175" x="3.93" y="257.33" width="357.72" height="1.46"/><rect class="cls-176" x="3.93" y="255.87" width="357.72" height="1.46"/><rect class="cls-177" x="3.93" y="254.42" width="357.72" height="1.46"/><rect class="cls-178" x="3.93" y="252.96" width="357.72" height="1.46"/><rect class="cls-179" x="3.93" y="251.5" width="357.72" height="1.46"/><rect class="cls-180" x="3.93" y="250.05" width="357.72" height="1.46"/><rect class="cls-181" x="3.93" y="248.59" width="357.72" height="1.46"/><rect class="cls-182" x="3.93" y="247.13" width="357.72" height="1.46"/><rect class="cls-183" x="3.93" y="245.68" width="357.72" height="1.46"/><rect class="cls-184" x="3.93" y="244.22" width="357.72" height="1.46"/><rect class="cls-185" x="3.93" y="242.76" width="357.72" height="1.46"/><rect class="cls-186" x="3.93" y="241.31" width="357.72" height="1.46"/><rect class="cls-187" x="3.93" y="239.85" width="357.72" height="1.46"/><rect class="cls-188" x="3.93" y="238.39" width="357.72" height="1.46"/><rect class="cls-189" x="3.93" y="236.94" width="357.72" height="1.46"/><rect class="cls-190" x="3.93" y="235.48" width="357.72" height="1.46"/><rect class="cls-191" x="3.93" y="234.02" width="357.72" height="1.46"/><rect class="cls-192" x="3.93" y="232.57" width="357.72" height="1.46"/><rect class="cls-193" x="3.93" y="231.11" width="357.72" height="1.46"/><rect class="cls-194" x="3.93" y="229.65" width="357.72" height="1.46"/><rect class="cls-195" x="3.93" y="228.2" width="357.72" height="1.46"/><rect class="cls-196" x="3.93" y="226.74" width="357.72" height="1.46"/><rect class="cls-197" x="3.93" y="225.28" width="357.72" height="1.46"/><rect class="cls-198" x="3.93" y="223.83" width="357.72" height="1.46"/><rect class="cls-199" x="3.93" y="222.37" width="357.72" height="1.46"/><rect class="cls-200" x="3.93" y="220.91" width="357.72" height="1.46"/><rect class="cls-201" x="3.93" y="219.46" width="357.72" height="1.46"/><rect class="cls-202" x="3.93" y="218" width="357.72" height="1.46"/><rect class="cls-203" x="3.93" y="216.54" width="357.72" height="1.46"/><rect class="cls-204" x="3.93" y="215.09" width="357.72" height="1.46"/><rect class="cls-205" x="3.93" y="213.63" width="357.72" height="1.46"/><rect class="cls-206" x="3.93" y="212.17" width="357.72" height="1.46"/><rect class="cls-207" x="3.93" y="210.72" width="357.72" height="1.46"/><rect class="cls-208" x="3.93" y="209.26" width="357.72" height="1.46"/><rect class="cls-209" x="3.93" y="207.8" width="357.72" height="1.46"/><rect class="cls-210" x="3.93" y="206.35" width="357.72" height="1.46"/><rect class="cls-211" x="3.93" y="204.89" width="357.72" height="1.46"/><rect class="cls-212" x="3.93" y="203.43" width="357.72" height="1.46"/><rect class="cls-213" x="3.93" y="201.98" width="357.72" height="1.46"/><rect class="cls-214" x="3.93" y="200.52" width="357.72" height="1.46"/><rect class="cls-215" x="3.93" y="199.07" width="357.72" height="1.46"/><rect class="cls-216" x="3.93" y="197.61" width="357.72" height="1.46"/><rect class="cls-217" x="3.93" y="196.15" width="357.72" height="1.46"/><rect class="cls-218" x="3.93" y="194.7" width="357.72" height="1.46"/><rect class="cls-219" x="3.93" y="193.24" width="357.72" height="1.46"/><rect class="cls-220" x="3.93" y="191.78" width="357.72" height="1.46"/><rect class="cls-221" x="3.93" y="190.33" width="357.72" height="1.46"/><rect class="cls-222" x="3.93" y="188.87" width="357.72" height="1.46"/><rect class="cls-223" x="3.93" y="187.41" width="357.72" height="1.46"/><rect class="cls-224" x="3.93" y="185.96" width="357.72" height="1.46"/><rect class="cls-225" x="3.93" y="184.5" width="357.72" height="1.46"/><rect class="cls-226" x="3.93" y="183.04" width="357.72" height="1.46"/><rect class="cls-227" x="3.93" y="181.59" width="357.72" height="1.46"/><rect class="cls-228" x="3.93" y="180.13" width="357.72" height="1.46"/><rect class="cls-229" x="3.93" y="178.67" width="357.72" height="1.46"/><rect class="cls-230" x="3.93" y="177.22" width="357.72" height="1.46"/><rect class="cls-231" x="3.93" y="175.76" width="357.72" height="1.46"/><rect class="cls-232" x="3.93" y="174.3" width="357.72" height="1.46"/><rect class="cls-233" x="3.93" y="172.85" width="357.72" height="1.46"/><rect class="cls-234" x="3.93" y="171.39" width="357.72" height="1.46"/><rect class="cls-235" x="3.93" y="169.93" width="357.72" height="1.46"/><rect class="cls-236" x="3.93" y="168.48" width="357.72" height="1.46"/><rect class="cls-237" x="3.93" y="167.02" width="357.72" height="1.46"/><rect class="cls-238" x="3.93" y="165.56" width="357.72" height="1.46"/><rect class="cls-239" x="3.93" y="164.11" width="357.72" height="1.46"/><rect class="cls-240" x="3.93" y="162.65" width="357.72" height="1.46"/><rect class="cls-241" x="3.93" y="161.19" width="357.72" height="1.46"/><rect class="cls-242" x="3.93" y="159.74" width="357.72" height="1.46"/><rect class="cls-243" x="3.93" y="158.28" width="357.72" height="1.46"/><rect class="cls-244" x="3.93" y="156.82" width="357.72" height="1.46"/><rect class="cls-245" x="3.93" y="155.37" width="357.72" height="1.46"/><rect class="cls-246" x="3.93" y="153.91" width="357.72" height="1.46"/><rect class="cls-247" x="3.93" y="152.45" width="357.72" height="1.46"/><rect class="cls-248" x="3.93" y="151" width="357.72" height="1.46"/><rect class="cls-249" x="3.93" y="149.54" width="357.72" height="1.46"/><rect class="cls-250" x="3.93" y="148.08" width="357.72" height="1.46"/><rect class="cls-251" x="3.93" y="146.63" width="357.72" height="1.46"/><rect class="cls-252" x="3.93" y="145.17" width="357.72" height="1.46"/><rect class="cls-253" x="3.93" y="143.71" width="357.72" height="1.46"/><rect class="cls-254" x="3.93" y="142.26" width="357.72" height="1.46"/><rect class="cls-255" x="3.93" y="140.8" width="357.72" height="1.46"/><rect class="cls-256" x="3.93" y="139.34" width="357.72" height="1.46"/><rect class="cls-257" x="3.93" y="137.89" width="357.72" height="1.46"/><rect class="cls-258" x="3.93" y="136.43" width="357.72" height="1.46"/><rect class="cls-259" x="3.93" y="134.97" width="357.72" height="1.46"/><rect class="cls-260" x="3.93" y="133.52" width="357.72" height="1.46"/><rect class="cls-261" x="3.93" y="132.06" width="357.72" height="1.46"/><rect class="cls-262" x="3.93" y="130.6" width="357.72" height="1.46"/><rect class="cls-263" x="3.93" y="129.15" width="357.72" height="1.46"/><rect class="cls-264" x="3.93" y="127.69" width="357.72" height="1.46"/><rect class="cls-265" x="3.93" y="126.23" width="357.72" height="1.46"/><rect class="cls-266" x="3.93" y="124.78" width="357.72" height="1.46"/><rect class="cls-267" x="3.93" y="123.32" width="357.72" height="1.46"/><rect class="cls-268" x="3.93" y="121.86" width="357.72" height="1.46"/><rect class="cls-269" x="3.93" y="120.41" width="357.72" height="1.46"/><rect class="cls-270" x="3.93" y="118.95" width="357.72" height="1.46"/><rect class="cls-271" x="3.93" y="117.49" width="357.72" height="1.46"/><rect class="cls-272" x="3.93" y="116.04" width="357.72" height="1.46"/><rect class="cls-273" x="3.93" y="114.58" width="357.72" height="1.46"/><rect class="cls-274" x="3.93" y="113.12" width="357.72" height="1.46"/><rect class="cls-275" x="3.93" y="111.67" width="357.72" height="1.46"/><rect class="cls-276" x="3.93" y="110.21" width="357.72" height="1.46"/><rect class="cls-277" x="3.93" y="108.75" width="357.72" height="1.46"/><rect class="cls-278" x="3.93" y="107.3" width="357.72" height="1.46"/><rect class="cls-279" x="3.93" y="105.84" width="357.72" height="1.46"/><rect class="cls-280" x="3.93" y="104.38" width="357.72" height="1.46"/><rect class="cls-281" x="3.93" y="102.93" width="357.72" height="1.46"/><rect class="cls-282" x="3.93" y="101.47" width="357.72" height="1.46"/><rect class="cls-283" x="3.93" y="100.01" width="357.72" height="1.46"/><rect class="cls-284" x="3.93" y="98.56" width="357.72" height="1.46"/><rect class="cls-285" x="3.93" y="97.1" width="357.72" height="1.46"/><rect class="cls-286" x="3.93" y="95.64" width="357.72" height="1.46"/><rect class="cls-287" x="3.93" y="94.19" width="357.72" height="1.46"/><rect class="cls-288" x="3.93" y="92.73" width="357.72" height="1.46"/><rect class="cls-289" x="3.93" y="91.27" width="357.72" height="1.46"/><rect class="cls-290" x="3.93" y="89.82" width="357.72" height="1.46"/><rect class="cls-291" x="3.93" y="88.36" width="357.72" height="1.46"/><rect class="cls-292" x="3.93" y="86.9" width="357.72" height="1.46"/><rect class="cls-293" x="3.93" y="85.45" width="357.72" height="1.46"/><rect class="cls-294" x="3.93" y="83.99" width="357.72" height="1.46"/><rect class="cls-295" x="3.93" y="82.53" width="357.72" height="1.46"/><rect class="cls-296" x="3.93" y="81.08" width="357.72" height="1.46"/><rect class="cls-297" x="3.93" y="79.62" width="357.72" height="1.46"/><rect class="cls-298" x="3.93" y="78.16" width="357.72" height="1.46"/><rect class="cls-299" x="3.93" y="76.71" width="357.72" height="1.46"/><rect class="cls-300" x="3.93" y="75.25" width="357.72" height="1.46"/><rect class="cls-301" x="3.93" y="73.79" width="357.72" height="1.46"/><rect class="cls-302" x="3.93" y="72.34" width="357.72" height="1.46"/><rect class="cls-303" x="3.93" y="70.88" width="357.72" height="1.46"/><rect class="cls-304" x="3.93" y="69.42" width="357.72" height="1.46"/><rect class="cls-305" x="3.93" y="67.97" width="357.72" height="1.46"/><rect class="cls-306" x="3.93" y="66.51" width="357.72" height="1.46"/><rect class="cls-307" x="3.93" y="65.06" width="357.72" height="1.46"/><rect class="cls-308" x="3.93" y="63.6" width="357.72" height="1.46"/><rect class="cls-309" x="3.93" y="62.14" width="357.72" height="1.46"/><rect class="cls-310" x="3.93" y="60.69" width="357.72" height="1.46"/><rect class="cls-311" x="3.93" y="59.23" width="357.72" height="1.46"/><rect class="cls-312" x="3.93" y="57.77" width="357.72" height="1.46"/><rect class="cls-313" x="3.93" y="56.32" width="357.72" height="1.46"/><rect class="cls-314" x="3.93" y="54.86" width="357.72" height="1.46"/><rect class="cls-315" x="3.93" y="53.4" width="357.72" height="1.46"/><rect class="cls-316" x="3.93" y="51.95" width="357.72" height="1.46"/><rect class="cls-317" x="3.93" y="50.49" width="357.72" height="1.46"/><rect class="cls-318" x="3.93" y="49.03" width="357.72" height="1.46"/><rect class="cls-319" x="3.93" y="47.58" width="357.72" height="1.46"/><rect class="cls-320" x="3.93" y="46.12" width="357.72" height="1.46"/><rect class="cls-321" x="3.93" y="44.66" width="357.72" height="1.46"/><rect class="cls-322" x="3.93" y="43.21" width="357.72" height="1.46"/><rect class="cls-323" x="3.93" y="41.75" width="357.72" height="1.46"/><rect class="cls-324" x="3.93" y="40.29" width="357.72" height="1.46"/><rect class="cls-325" x="3.93" y="38.84" width="357.72" height="1.46"/><rect class="cls-326" x="3.93" y="37.38" width="357.72" height="1.46"/><rect class="cls-327" x="3.93" y="35.92" width="357.72" height="1.46"/><rect class="cls-328" x="3.93" y="34.47" width="357.72" height="1.46"/><rect class="cls-329" x="3.93" y="33.01" width="357.72" height="1.46"/><rect class="cls-330" x="3.93" y="31.55" width="357.72" height="1.46"/><rect class="cls-331" x="3.93" y="30.1" width="357.72" height="1.46"/><rect class="cls-332" x="3.93" y="28.64" width="357.72" height="1.46"/><rect class="cls-333" x="3.93" y="27.18" width="357.72" height="1.46"/><rect class="cls-334" x="3.93" y="25.73" width="357.72" height="1.46"/><rect class="cls-335" x="3.93" y="24.27" width="357.72" height="1.46"/><rect class="cls-336" x="3.93" y="22.81" width="357.72" height="1.46"/><rect class="cls-337" x="3.93" y="21.36" width="357.72" height="1.46"/><rect class="cls-338" x="3.93" y="19.9" width="357.72" height="1.46"/><rect class="cls-339" x="3.93" y="18.44" width="357.72" height="1.46"/><rect class="cls-340" x="3.93" y="16.99" width="357.72" height="1.46"/><rect class="cls-341" x="3.93" y="15.53" width="357.72" height="1.46"/><rect class="cls-342" x="3.93" y="14.07" width="357.72" height="1.46"/><rect class="cls-343" x="3.93" y="12.62" width="357.72" height="1.46"/><rect class="cls-344" x="3.93" y="11.16" width="357.72" height="1.46"/><rect class="cls-345" x="3.93" y="9.7" width="357.72" height="1.46"/><rect class="cls-346" x="3.93" y="8.25" width="357.72" height="1.46"/><rect class="cls-347" x="3.93" y="6.79" width="357.72" height="1.46"/><rect class="cls-348" x="3.93" y="5.33" width="357.72" height="1.46"/><rect class="cls-349" x="3.93" y="3.88" width="357.72" height="1.46"/><rect class="cls-350" x="3.93" y="3.34" width="357.72" height="0.54"/><path class="cls-3" d="M3,334.53H3Z"/><rect class="cls-3" x="3.01" y="333.07" width="359.56" height="1.46"/><rect class="cls-124" x="3.01" y="331.62" width="359.56" height="1.46"/><rect class="cls-125" x="3.01" y="330.16" width="359.56" height="1.46"/><rect class="cls-126" x="3.01" y="328.71" width="359.56" height="1.46"/><rect class="cls-127" x="3.01" y="327.25" width="359.56" height="1.46"/><rect class="cls-128" x="3.01" y="325.79" width="359.56" height="1.46"/><rect class="cls-129" x="3.01" y="324.34" width="359.56" height="1.46"/><rect class="cls-130" x="3.01" y="322.88" width="359.56" height="1.46"/><rect class="cls-131" x="3.01" y="321.42" width="359.56" height="1.46"/><rect class="cls-132" x="3.01" y="319.97" width="359.56" height="1.46"/><rect class="cls-133" x="3.01" y="318.51" width="359.56" height="1.46"/><rect class="cls-134" x="3.01" y="317.05" width="359.56" height="1.46"/><rect class="cls-135" x="3.01" y="315.6" width="359.56" height="1.46"/><rect class="cls-136" x="3.01" y="314.14" width="359.56" height="1.46"/><rect class="cls-137" x="3.01" y="312.68" width="359.56" height="1.46"/><rect class="cls-138" x="3.01" y="311.23" width="359.56" height="1.46"/><rect class="cls-139" x="3.01" y="309.77" width="359.56" height="1.46"/><rect class="cls-140" x="3.01" y="308.31" width="359.56" height="1.46"/><rect class="cls-141" x="3.01" y="306.86" width="359.56" height="1.46"/><rect class="cls-142" x="3.01" y="305.4" width="359.56" height="1.46"/><rect class="cls-143" x="3.01" y="303.94" width="359.56" height="1.46"/><rect class="cls-144" x="3.01" y="302.49" width="359.56" height="1.46"/><rect class="cls-145" x="3.01" y="301.03" width="359.56" height="1.46"/><rect class="cls-146" x="3.01" y="299.57" width="359.56" height="1.46"/><rect class="cls-147" x="3.01" y="298.12" width="359.56" height="1.46"/><rect class="cls-148" x="3.01" y="296.66" width="359.56" height="1.46"/><rect class="cls-149" x="3.01" y="295.2" width="359.56" height="1.46"/><rect class="cls-150" x="3.01" y="293.75" width="359.56" height="1.46"/><rect class="cls-151" x="3.01" y="292.29" width="359.56" height="1.46"/><rect class="cls-152" x="3.01" y="290.83" width="359.56" height="1.46"/><rect class="cls-153" x="3.01" y="289.38" width="359.56" height="1.46"/><rect class="cls-154" x="3.01" y="287.92" width="359.56" height="1.46"/><rect class="cls-155" x="3.01" y="286.46" width="359.56" height="1.46"/><rect class="cls-156" x="3.01" y="285.01" width="359.56" height="1.46"/><rect class="cls-157" x="3.01" y="283.55" width="359.56" height="1.46"/><rect class="cls-158" x="3.01" y="282.09" width="359.56" height="1.46"/><rect class="cls-159" x="3.01" y="280.64" width="359.56" height="1.46"/><rect class="cls-160" x="3.01" y="279.18" width="359.56" height="1.46"/><rect class="cls-161" x="3.01" y="277.72" width="359.56" height="1.46"/><rect class="cls-162" x="3.01" y="276.27" width="359.56" height="1.46"/><rect class="cls-163" x="3.01" y="274.81" width="359.56" height="1.46"/><rect class="cls-164" x="3.01" y="273.35" width="359.56" height="1.46"/><rect class="cls-165" x="3.01" y="271.9" width="359.56" height="1.46"/><rect class="cls-166" x="3.01" y="270.44" width="359.56" height="1.46"/><rect class="cls-167" x="3.01" y="268.98" width="359.56" height="1.46"/><rect class="cls-168" x="3.01" y="267.53" width="359.56" height="1.46"/><rect class="cls-169" x="3.01" y="266.07" width="359.56" height="1.46"/><rect class="cls-170" x="3.01" y="264.61" width="359.56" height="1.46"/><rect class="cls-171" x="3.01" y="263.16" width="359.56" height="1.46"/><rect class="cls-172" x="3.01" y="261.7" width="359.56" height="1.46"/><rect class="cls-173" x="3.01" y="260.24" width="359.56" height="1.46"/><rect class="cls-174" x="3.01" y="258.79" width="359.56" height="1.46"/><rect class="cls-175" x="3.01" y="257.33" width="359.56" height="1.46"/><rect class="cls-176" x="3.01" y="255.87" width="359.56" height="1.46"/><rect class="cls-177" x="3.01" y="254.42" width="359.56" height="1.46"/><rect class="cls-178" x="3.01" y="252.96" width="359.56" height="1.46"/><rect class="cls-179" x="3.01" y="251.5" width="359.56" height="1.46"/><rect class="cls-180" x="3.01" y="250.05" width="359.56" height="1.46"/><rect class="cls-181" x="3.01" y="248.59" width="359.56" height="1.46"/><rect class="cls-182" x="3.01" y="247.13" width="359.56" height="1.46"/><rect class="cls-183" x="3.01" y="245.68" width="359.56" height="1.46"/><rect class="cls-184" x="3.01" y="244.22" width="359.56" height="1.46"/><rect class="cls-185" x="3.01" y="242.76" width="359.56" height="1.46"/><rect class="cls-186" x="3.01" y="241.31" width="359.56" height="1.46"/><rect class="cls-187" x="3.01" y="239.85" width="359.56" height="1.46"/><rect class="cls-188" x="3.01" y="238.39" width="359.56" height="1.46"/><rect class="cls-189" x="3.01" y="236.94" width="359.56" height="1.46"/><rect class="cls-190" x="3.01" y="235.48" width="359.56" height="1.46"/><rect class="cls-191" x="3.01" y="234.02" width="359.56" height="1.46"/><rect class="cls-192" x="3.01" y="232.57" width="359.56" height="1.46"/><rect class="cls-193" x="3.01" y="231.11" width="359.56" height="1.46"/><rect class="cls-194" x="3.01" y="229.65" width="359.56" height="1.46"/><rect class="cls-195" x="3.01" y="228.2" width="359.56" height="1.46"/><rect class="cls-196" x="3.01" y="226.74" width="359.56" height="1.46"/><rect class="cls-197" x="3.01" y="225.28" width="359.56" height="1.46"/><rect class="cls-198" x="3.01" y="223.83" width="359.56" height="1.46"/><rect class="cls-199" x="3.01" y="222.37" width="359.56" height="1.46"/><rect class="cls-200" x="3.01" y="220.91" width="359.56" height="1.46"/><rect class="cls-201" x="3.01" y="219.46" width="359.56" height="1.46"/><rect class="cls-202" x="3.01" y="218" width="359.56" height="1.46"/><rect class="cls-203" x="3.01" y="216.54" width="359.56" height="1.46"/><rect class="cls-204" x="3.01" y="215.09" width="359.56" height="1.46"/><rect class="cls-205" x="3.01" y="213.63" width="359.56" height="1.46"/><rect class="cls-206" x="3.01" y="212.17" width="359.56" height="1.46"/><rect class="cls-207" x="3.01" y="210.72" width="359.56" height="1.46"/><rect class="cls-208" x="3.01" y="209.26" width="359.56" height="1.46"/><rect class="cls-209" x="3.01" y="207.8" width="359.56" height="1.46"/><rect class="cls-210" x="3.01" y="206.35" width="359.56" height="1.46"/><rect class="cls-211" x="3.01" y="204.89" width="359.56" height="1.46"/><rect class="cls-212" x="3.01" y="203.43" width="359.56" height="1.46"/><rect class="cls-213" x="3.01" y="201.98" width="359.56" height="1.46"/><rect class="cls-214" x="3.01" y="200.52" width="359.56" height="1.46"/><rect class="cls-215" x="3.01" y="199.07" width="359.56" height="1.46"/><rect class="cls-216" x="3.01" y="197.61" width="359.56" height="1.46"/><rect class="cls-217" x="3.01" y="196.15" width="359.56" height="1.46"/><rect class="cls-218" x="3.01" y="194.7" width="359.56" height="1.46"/><rect class="cls-219" x="3.01" y="193.24" width="359.56" height="1.46"/><rect class="cls-220" x="3.01" y="191.78" width="359.56" height="1.46"/><rect class="cls-221" x="3.01" y="190.33" width="359.56" height="1.46"/><rect class="cls-222" x="3.01" y="188.87" width="359.56" height="1.46"/><rect class="cls-223" x="3.01" y="187.41" width="359.56" height="1.46"/><rect class="cls-224" x="3.01" y="185.96" width="359.56" height="1.46"/><rect class="cls-225" x="3.01" y="184.5" width="359.56" height="1.46"/><rect class="cls-226" x="3.01" y="183.04" width="359.56" height="1.46"/><rect class="cls-227" x="3.01" y="181.59" width="359.56" height="1.46"/><rect class="cls-228" x="3.01" y="180.13" width="359.56" height="1.46"/><rect class="cls-229" x="3.01" y="178.67" width="359.56" height="1.46"/><rect class="cls-230" x="3.01" y="177.22" width="359.56" height="1.46"/><rect class="cls-231" x="3.01" y="175.76" width="359.56" height="1.46"/><rect class="cls-232" x="3.01" y="174.3" width="359.56" height="1.46"/><rect class="cls-233" x="3.01" y="172.85" width="359.56" height="1.46"/><rect class="cls-234" x="3.01" y="171.39" width="359.56" height="1.46"/><rect class="cls-235" x="3.01" y="169.93" width="359.56" height="1.46"/><rect class="cls-236" x="3.01" y="168.48" width="359.56" height="1.46"/><rect class="cls-237" x="3.01" y="167.02" width="359.56" height="1.46"/><rect class="cls-238" x="3.01" y="165.56" width="359.56" height="1.46"/><rect class="cls-239" x="3.01" y="164.11" width="359.56" height="1.46"/><rect class="cls-240" x="3.01" y="162.65" width="359.56" height="1.46"/><rect class="cls-241" x="3.01" y="161.19" width="359.56" height="1.46"/><rect class="cls-242" x="3.01" y="159.74" width="359.56" height="1.46"/><rect class="cls-243" x="3.01" y="158.28" width="359.56" height="1.46"/><rect class="cls-244" x="3.01" y="156.82" width="359.56" height="1.46"/><rect class="cls-245" x="3.01" y="155.37" width="359.56" height="1.46"/><rect class="cls-246" x="3.01" y="153.91" width="359.56" height="1.46"/><rect class="cls-247" x="3.01" y="152.45" width="359.56" height="1.46"/><rect class="cls-248" x="3.01" y="151" width="359.56" height="1.46"/><rect class="cls-249" x="3.01" y="149.54" width="359.56" height="1.46"/><rect class="cls-250" x="3.01" y="148.08" width="359.56" height="1.46"/><rect class="cls-251" x="3.01" y="146.63" width="359.56" height="1.46"/><rect class="cls-252" x="3.01" y="145.17" width="359.56" height="1.46"/><rect class="cls-253" x="3.01" y="143.71" width="359.56" height="1.46"/><rect class="cls-254" x="3.01" y="142.26" width="359.56" height="1.46"/><rect class="cls-255" x="3.01" y="140.8" width="359.56" height="1.46"/><rect class="cls-256" x="3.01" y="139.34" width="359.56" height="1.46"/><rect class="cls-257" x="3.01" y="137.89" width="359.56" height="1.46"/><rect class="cls-258" x="3.01" y="136.43" width="359.56" height="1.46"/><rect class="cls-259" x="3.01" y="134.97" width="359.56" height="1.46"/><rect class="cls-260" x="3.01" y="133.52" width="359.56" height="1.46"/><rect class="cls-261" x="3.01" y="132.06" width="359.56" height="1.46"/><rect class="cls-262" x="3.01" y="130.6" width="359.56" height="1.46"/><rect class="cls-263" x="3.01" y="129.15" width="359.56" height="1.46"/><rect class="cls-264" x="3.01" y="127.69" width="359.56" height="1.46"/><rect class="cls-265" x="3.01" y="126.23" width="359.56" height="1.46"/><rect class="cls-266" x="3.01" y="124.78" width="359.56" height="1.46"/><rect class="cls-267" x="3.01" y="123.32" width="359.56" height="1.46"/><rect class="cls-268" x="3.01" y="121.86" width="359.56" height="1.46"/><rect class="cls-269" x="3.01" y="120.41" width="359.56" height="1.46"/><rect class="cls-270" x="3.01" y="118.95" width="359.56" height="1.46"/><rect class="cls-271" x="3.01" y="117.49" width="359.56" height="1.46"/><rect class="cls-272" x="3.01" y="116.04" width="359.56" height="1.46"/><rect class="cls-273" x="3.01" y="114.58" width="359.56" height="1.46"/><rect class="cls-274" x="3.01" y="113.12" width="359.56" height="1.46"/><rect class="cls-275" x="3.01" y="111.67" width="359.56" height="1.46"/><rect class="cls-276" x="3.01" y="110.21" width="359.56" height="1.46"/><rect class="cls-277" x="3.01" y="108.75" width="359.56" height="1.46"/><rect class="cls-278" x="3.01" y="107.3" width="359.56" height="1.46"/><rect class="cls-279" x="3.01" y="105.84" width="359.56" height="1.46"/><rect class="cls-280" x="3.01" y="104.38" width="359.56" height="1.46"/><rect class="cls-281" x="3.01" y="102.93" width="359.56" height="1.46"/><rect class="cls-282" x="3.01" y="101.47" width="359.56" height="1.46"/><rect class="cls-283" x="3.01" y="100.01" width="359.56" height="1.46"/><rect class="cls-284" x="3.01" y="98.56" width="359.56" height="1.46"/><rect class="cls-285" x="3.01" y="97.1" width="359.56" height="1.46"/><rect class="cls-286" x="3.01" y="95.64" width="359.56" height="1.46"/><rect class="cls-287" x="3.01" y="94.19" width="359.56" height="1.46"/><rect class="cls-288" x="3.01" y="92.73" width="359.56" height="1.46"/><rect class="cls-289" x="3.01" y="91.27" width="359.56" height="1.46"/><rect class="cls-290" x="3.01" y="89.82" width="359.56" height="1.46"/><rect class="cls-291" x="3.01" y="88.36" width="359.56" height="1.46"/><rect class="cls-292" x="3.01" y="86.9" width="359.56" height="1.46"/><rect class="cls-293" x="3.01" y="85.45" width="359.56" height="1.46"/><rect class="cls-294" x="3.01" y="83.99" width="359.56" height="1.46"/><rect class="cls-295" x="3.01" y="82.53" width="359.56" height="1.46"/><rect class="cls-296" x="3.01" y="81.08" width="359.56" height="1.46"/><rect class="cls-297" x="3.01" y="79.62" width="359.56" height="1.46"/><rect class="cls-298" x="3.01" y="78.16" width="359.56" height="1.46"/><rect class="cls-299" x="3.01" y="76.71" width="359.56" height="1.46"/><rect class="cls-300" x="3.01" y="75.25" width="359.56" height="1.46"/><rect class="cls-301" x="3.01" y="73.79" width="359.56" height="1.46"/><rect class="cls-302" x="3.01" y="72.34" width="359.56" height="1.46"/><rect class="cls-303" x="3.01" y="70.88" width="359.56" height="1.46"/><rect class="cls-304" x="3.01" y="69.42" width="359.56" height="1.46"/><rect class="cls-305" x="3.01" y="67.97" width="359.56" height="1.46"/><rect class="cls-306" x="3.01" y="66.51" width="359.56" height="1.46"/><rect class="cls-307" x="3.01" y="65.06" width="359.56" height="1.46"/><rect class="cls-308" x="3.01" y="63.6" width="359.56" height="1.46"/><rect class="cls-309" x="3.01" y="62.14" width="359.56" height="1.46"/><rect class="cls-310" x="3.01" y="60.69" width="359.56" height="1.46"/><rect class="cls-311" x="3.01" y="59.23" width="359.56" height="1.46"/><rect class="cls-312" x="3.01" y="57.77" width="359.56" height="1.46"/><rect class="cls-313" x="3.01" y="56.32" width="359.56" height="1.46"/><rect class="cls-314" x="3.01" y="54.86" width="359.56" height="1.46"/><rect class="cls-315" x="3.01" y="53.4" width="359.56" height="1.46"/><rect class="cls-316" x="3.01" y="51.95" width="359.56" height="1.46"/><rect class="cls-317" x="3.01" y="50.49" width="359.56" height="1.46"/><rect class="cls-318" x="3.01" y="49.03" width="359.56" height="1.46"/><rect class="cls-319" x="3.01" y="47.58" width="359.56" height="1.46"/><rect class="cls-320" x="3.01" y="46.12" width="359.56" height="1.46"/><rect class="cls-321" x="3.01" y="44.66" width="359.56" height="1.46"/><rect class="cls-322" x="3.01" y="43.21" width="359.56" height="1.46"/><rect class="cls-323" x="3.01" y="41.75" width="359.56" height="1.46"/><rect class="cls-324" x="3.01" y="40.29" width="359.56" height="1.46"/><rect class="cls-325" x="3.01" y="38.84" width="359.56" height="1.46"/><rect class="cls-326" x="3.01" y="37.38" width="359.56" height="1.46"/><rect class="cls-327" x="3.01" y="35.92" width="359.56" height="1.46"/><rect class="cls-328" x="3.01" y="34.47" width="359.56" height="1.46"/><rect class="cls-329" x="3.01" y="33.01" width="359.56" height="1.46"/><rect class="cls-330" x="3.01" y="31.55" width="359.56" height="1.46"/><rect class="cls-331" x="3.01" y="30.1" width="359.56" height="1.46"/><rect class="cls-332" x="3.01" y="28.64" width="359.56" height="1.46"/><rect class="cls-333" x="3.01" y="27.18" width="359.56" height="1.46"/><rect class="cls-334" x="3.01" y="25.73" width="359.56" height="1.46"/><rect class="cls-335" x="3.01" y="24.27" width="359.56" height="1.46"/><rect class="cls-336" x="3.01" y="22.81" width="359.56" height="1.46"/><rect class="cls-337" x="3.01" y="21.36" width="359.56" height="1.46"/><rect class="cls-338" x="3.01" y="19.9" width="359.56" height="1.46"/><rect class="cls-339" x="3.01" y="18.44" width="359.56" height="1.46"/><rect class="cls-340" x="3.01" y="16.99" width="359.56" height="1.46"/><rect class="cls-341" x="3.01" y="15.53" width="359.56" height="1.46"/><rect class="cls-342" x="3.01" y="14.07" width="359.56" height="1.46"/><rect class="cls-343" x="3.01" y="12.62" width="359.56" height="1.46"/><rect class="cls-344" x="3.01" y="11.16" width="359.56" height="1.46"/><rect class="cls-345" x="3.01" y="9.7" width="359.56" height="1.46"/><rect class="cls-346" x="3.01" y="8.25" width="359.56" height="1.46"/><rect class="cls-347" x="3.01" y="6.79" width="359.56" height="1.46"/><rect class="cls-348" x="3.01" y="5.33" width="359.56" height="1.46"/><rect class="cls-349" x="3.01" y="3.88" width="359.56" height="1.46"/><rect class="cls-350" x="3.01" y="2.42" width="359.56" height="1.46"/><path class="cls-350" d="M362.56,2.42h0Z"/></g><path class="cls-351" d="M4,320a13.59,13.59,0,0,1,5.57-16.61,6,6,0,0,0,2.14-1.54,4.62,4.62,0,0,0,.68-2.06c.75-4.84.62-9.8,1.57-14.61s3.26-9.67,7.52-12.1c5.51-3.13,13.43-.68,16.2,5,1.62-1.52,2.14-4.14,4.13-5.12a6.59,6.59,0,0,1,2.86-.49l8.58-.17.3-8.27c.17-4.85.36-9.74,1.71-14.4s4-9.1,8.15-11.63,9.15-2.86,14-2.69c3.94.15,8,.66,11.28,2.92a19.87,19.87,0,0,1,5.28,6.23c6.38,10.62,9.1,23.12,9.61,35.49s-1.09,24.74-2.86,37a4.4,4.4,0,0,1-.94,2.56,4.35,4.35,0,0,1-2.64,1,202,202,0,0,1-21.87,1.22l-61,1.16c-4,.08-8.36,0-11.41-2.55"/><rect class="cls-352" x="2.88" y="320.03" width="359.22" height="128.58"/><rect class="cls-353" x="81.66" y="98.13" width="187.62" height="128.1"/><rect class="cls-354" x="79.72" y="124.56" width="191.11" height="5.62"/><rect class="cls-354" x="79.72" y="155.41" width="191.11" height="5.62"/><rect class="cls-354" x="79.72" y="183.43" width="191.11" height="5.62"/><rect class="cls-354" x="79.72" y="217" width="191.11" height="5.62"/><path class="cls-355" d="M179.9,178.42c4.49.77,7.92,4.46,10.29,8.35,5.44,8.92,7.08,19.57,8.46,29.93a26.51,26.51,0,0,1,.35,5.41c-.34,5-3.49,9.52-7.58,12.4s-9.06,4.29-14,5c-14.09,2.09-28.37-.95-42.28-4a10.8,10.8,0,0,1-3.25-1.07c-1.75-1-2.78-2.91-3.72-4.7-2.11-4-4.25-8.08-5-12.54a28.42,28.42,0,0,1,1-12.18,24,24,0,0,1,4.37-8.95c1.36-1.62,3-3,4.52-4.46,2.22-2.21,4.52-8,7.32-9.43,3.66-1.84,7.69,1.91,11.72,2.71s8.21,1.76,12.16.64c5.43-1.55,9.46-6.87,15.09-7.41"/><path class="cls-356" d="M149.51,177.63a8.39,8.39,0,0,0,2.16-3.13,2.17,2.17,0,0,1,.47-.84,1.72,1.72,0,0,1,.87-.38,16.07,16.07,0,0,1,5.08.16,53.93,53.93,0,0,0,9.92.29,2.15,2.15,0,0,1,1,.09,1.77,1.77,0,0,1,.47.34,3.94,3.94,0,0,1,.1,5.35,19.85,19.85,0,0,1-2.62,1.85c-2.32,1.75-3.29,5-5.86,6.37a2.17,2.17,0,0,1-1.83.22,2.6,2.6,0,0,1-.73-.55l-7.46-7.13a3.27,3.27,0,0,1-1.3-2.16"/><rect class="cls-357" x="76.15" y="222.65" width="196.69" height="154.44"/><path class="cls-358" d="M361.52,266.09c-8.71,4.13-29.58,19-15.67,65.47l15.67-52.66"/><path class="cls-358" d="M345.85,331.56s4-38.83-33.73-46.31Z"/><path class="cls-358" d="M345.13,321.66s14.13-46.82-8-72.83C337.15,248.83,322.91,281,345.13,321.66Z"/><rect class="cls-359" x="76.15" y="101.38" width="7.13" height="275.72"/><rect class="cls-359" x="265.72" y="101.38" width="7.13" height="275.72"/><polyline class="cls-357" points="76.15 89.87 76.15 101.38 36.88 101.38"/><polygon class="cls-357" points="36.88 101.38 312.12 101.38 272.85 13.84 76.15 13.84 36.88 101.38"/><polygon class="cls-360" points="178.9 159.1 182.8 154.81 182.8 152.03 177.79 152.48 178.9 159.1"/><path class="cls-361" d="M178.82,159.35l-1.16-7h.12l5.13-.47v2.95Zm-.89-6.77,1,6.26,3.71-4.08v-2.61Z"/><polygon class="cls-360" points="142.48 158.32 139.25 152.76 145.61 152.48 142.48 158.32"/><path class="cls-361" d="M142.49,158.56l-3.44-5.9h.19l6.57-.29Zm-3.05-5.69,3,5.22,2.94-5.48Z"/><path class="cls-360" d="M180.11,159.3c-.2-3.08-.74-9.84-1.78-13.72a2.09,2.09,0,0,0-.11-.3,17,17,0,0,0-33.79.37l-.07-.07c-1.05,3.88-1.58,10.64-1.78,13.72a14.38,14.38,0,0,0-.1,1.62c0,8.91,8.45,16.13,18.86,16.13s18.86-7.22,18.86-16.13A14.39,14.39,0,0,0,180.11,159.3Z"/><path class="cls-362" d="M149.72,148.36l-.85-.36a4.67,4.67,0,0,1,7.34-1.91l-.48.78a4.4,4.4,0,0,0-3.67-.76A4.31,4.31,0,0,0,149.72,148.36Z"/><ellipse class="cls-363" cx="154.73" cy="152.76" rx="1.25" ry="1.7"/><path class="cls-362" d="M171.34,148.36a4.35,4.35,0,0,0-2.35-2.25,4.42,4.42,0,0,0-3.66.76l-.49-.78a4.67,4.67,0,0,1,7.35,1.91Z"/><ellipse class="cls-363" cx="166.33" cy="152.76" rx="1.25" ry="1.7"/><path class="cls-361" d="M159.05,153.38c-.36,2.14-1.56,3.21-2.94,4.74a4.34,4.34,0,0,0-1.31,2.38,1.51,1.51,0,0,0,1.2,1.7c.73.19,1.24-.15,1.95.3.39.24.61.71,1.05.94a2.76,2.76,0,0,0,2.33.13,7.5,7.5,0,0,1,2.45-.63,3,3,0,0,0,1-.11,2.12,2.12,0,0,0-.05-4c-.8-.36-1.51.83-.7,1.19.23,1.27,0,1.73-.82,1.37a2.44,2.44,0,0,0-.66,0c-.48.08-.68.37-1.1.53a1.61,1.61,0,0,1-2.16,0,3.48,3.48,0,0,0-.71-.77,2.18,2.18,0,0,0-.93-.34,6.09,6.09,0,0,0-1,0,1.24,1.24,0,0,1,.42-1.78c.51-.58,1.13-1.06,1.63-1.65a7.48,7.48,0,0,0,1.66-3.69c.15-.87-1.18-1.25-1.33-.37Z"/><path class="cls-364" d="M156.43,167.59a7.21,7.21,0,0,0,1.64,3.52,3.74,3.74,0,0,0,3.55,1.18,3.58,3.58,0,0,0,2.08-1.66,6.05,6.05,0,0,0,.78-2.59.68.68,0,0,0-.06-.47,1,1,0,0,0-.34-.24c-1.15-.59-1.87-1.92-3.12-2.26a3,3,0,0,0-2.41.51,9.14,9.14,0,0,0-1.8,1.77"/><path class="cls-360" d="M143,152.48a2.7,2.7,0,0,0-2.37-2.48,2.18,2.18,0,0,0-.88.07,2.86,2.86,0,0,0-1.1.89,2,2,0,0,0-.72,1.7c.15.56.74.87,1,1.39a2.77,2.77,0,0,1,.11,1.46,5.16,5.16,0,0,0,.12,2,2.29,2.29,0,0,0,1.2,1.49,1.51,1.51,0,0,0,1.79-.39.86.86,0,0,0,0-1.07c-.09-.08-.19-.14-.28-.21a1.34,1.34,0,0,1-.24-1.42,5.54,5.54,0,0,0,.4-1.47c0-.51-.36-1.08-.87-1s-.77.78-.57,1.28"/><path class="cls-361" d="M143.29,152.48A2.84,2.84,0,0,0,138,151.1c-.77,1.07-.48,1.51.06,2.51.77,1.45.22,2.51.67,3.95a2.88,2.88,0,0,0,.92,1.42,1.92,1.92,0,0,0,2.68-.2,1.42,1.42,0,0,0,.24-1c0-.18-.22-.32-.26-.48-.49-1.79-.37-1-.1-2.27.46-2.25-2.43-2.56-2-.25.07.44.74.25.66-.18.71,0,.89.23.54.73a3.31,3.31,0,0,0-.24.87,2.18,2.18,0,0,0,0,.57c-.07-.36.37,1.15.36.73.5.62-.19.59-2.09-.08a4.71,4.71,0,0,1-.13-1.54,4.39,4.39,0,0,0-.38-2.32,2.57,2.57,0,0,0-.35-.39l.26-1.93c1-2.06,3.58-.24,3.76,1.28.05.44.74.44.69,0Z"/><path class="cls-360" d="M179.54,152.48a2.7,2.7,0,0,1,2.37-2.48,2.13,2.13,0,0,1,.87.07,2.82,2.82,0,0,1,1.11.89,2,2,0,0,1,.72,1.7c-.15.56-.75.87-1,1.39a2.77,2.77,0,0,0-.11,1.46,5.16,5.16,0,0,1-.12,2,2.32,2.32,0,0,1-1.2,1.49,1.51,1.51,0,0,1-1.79-.39.86.86,0,0,1,0-1.07c.09-.08.19-.14.28-.21a1.34,1.34,0,0,0,.24-1.42,6,6,0,0,1-.41-1.47c0-.51.37-1.08.88-1s.77.78.57,1.28"/><path class="cls-361" d="M179.89,152.48c.18-1.52,2.75-3.34,3.76-1.28l.25,1.93a4.4,4.4,0,0,0-.35.39,5.69,5.69,0,0,0-.38,2.32,4.45,4.45,0,0,1-.12,1.54c-1.9.67-2.59.7-2.09.08,0-.1.33-.6.35-.73a1.82,1.82,0,0,0,0-.57,3.31,3.31,0,0,0-.24-.87c-.35-.5-.17-.74.54-.73-.08.43.59.62.66.18.39-2.28-2.44-2-2,.25.13.72.33.82.11,1.62.05-.17-.45,1.07-.45,1.09a1.46,1.46,0,0,0,.19,1,1.92,1.92,0,0,0,2.71.24c1.54-1.17.68-3.18,1.3-4.67.55-1.32,1.3-1.84.35-3.21a2.84,2.84,0,0,0-5.25,1.38c-.06.44.64.44.69,0Z"/><path class="cls-362" d="M156.2,162.4a18.09,18.09,0,0,0-3.33.94,6.09,6.09,0,0,0-2.72,2.07,1.5,1.5,0,0,1-.42.48,2.85,2.85,0,0,1-.51.2,2.07,2.07,0,0,0-.9,1.58,4.66,4.66,0,0,0,3-.44,3,3,0,0,1,1.74-.22l2.86.27a3.77,3.77,0,0,0,.75,0c.23,0,.45-.12.68-.15a9.92,9.92,0,0,0,1.23-.07c.6-.18.94-.79,1.23-1.34a2,2,0,0,0,1.28,1.25,6,6,0,0,0,1.84.26,3.44,3.44,0,0,0,1.8-.26.43.43,0,0,1,.28-.09c.14,0,.22.18.3.3a1.56,1.56,0,0,0,1.57.47,3.48,3.48,0,0,1,1.72-.06c.38.13.68.43,1.05.57s.91,0,1-.36a.78.78,0,0,0-.09-.47,5.9,5.9,0,0,0-2.83-2.61c-.83-.47-1.69-.91-2.55-1.34a4.28,4.28,0,0,0-2-.61c-.85,0-1.65.53-2.5.5a5.16,5.16,0,0,1-2.18-.95,2.3,2.3,0,0,0-2.28-.23"/><path class="cls-362" d="M142.53,152a3.23,3.23,0,0,0,3.34-2.22c.31-1,0-2.2.38-3.24a4.26,4.26,0,0,0,.46-1.74c-.07-.43-.36-.81-.41-1.24a2,2,0,0,1,1-1.74,5.4,5.4,0,0,0,1.62-1.37,4.87,4.87,0,0,0,.4-2.16,7.47,7.47,0,0,1,1.66-4.1,14.88,14.88,0,0,0,6.49,3.57,5.47,5.47,0,0,0,4.1-.23,2.66,2.66,0,0,1,.77-.39c.53-.11,1,.22,1.56.31,1.68.29,2.75-1.72,4.28-2.46.92-.45,2.12-.49,2.73-1.32-.34,2,2,3.49,2.21,5.49a8.39,8.39,0,0,0,.11,1.23,5,5,0,0,0,.83,1.41,15.36,15.36,0,0,1,1.66,4.77c.46,1.63,1.28,3.34,2.83,4,1.21.53,3,0,3.18-1.28.27-1.6-1.86-2.81-1.72-4.43,0-.59.4-1.13.48-1.72.18-1.29-.94-2.37-1.3-3.62-.41-1.44.22-3,0-4.48a3.92,3.92,0,0,0-1.39-2.39,4.22,4.22,0,0,1-.64-.55c-.54-.7-.19-1.7-.32-2.57-.21-1.42-1.67-2.33-3.08-2.6s-2.88-.11-4.28-.41c-2.38-.49-4.54-2.26-6.95-1.94-1.66.22-3.1,1.44-4.77,1.54a6.63,6.63,0,0,0-1.95.14c-.51.19-.93.61-1.46.69a3.34,3.34,0,0,1-1.34-.27,5.19,5.19,0,0,0-6.26,3.46,1.79,1.79,0,0,1-.32.79,3,3,0,0,1-.73.47c-1,.67-.9,2.15-1.15,3.34-.43,2.13-2.28,3.68-3,5.71s-.34,4.47.29,6.63a4.83,4.83,0,0,1,.25,1.3,11.15,11.15,0,0,1-.35,1.7,1.58,1.58,0,0,0,.44,1.59"/><path class="cls-365" d="M160.06,189.83a34,34,0,0,0-21-7.64,40.18,40.18,0,0,1,5.85-8.08,2.08,2.08,0,0,1,1-.76,2,2,0,0,1,1.16.16,21.73,21.73,0,0,1,13.64,15.82"/><path class="cls-365" d="M160.06,189.83a34,34,0,0,1,21-7.64,39.85,39.85,0,0,0-5.86-8.08,2.11,2.11,0,0,0-1-.76,2,2,0,0,0-1.16.16,21.71,21.71,0,0,0-13.64,15.82"/><path class="cls-354" d="M103,153.13c-1.72-.34-2.42-1.31-3.36-2.65a8.52,8.52,0,0,0-1.28-1.4c-.36-.32-1.3-.85-1.42-1.32-.18-.69.68-.68,1.32-.68a2,2,0,0,1,2,1.5,28.3,28.3,0,0,1,1,5.18c.28,1.75,2.94,1,2.66-.74-.41-2.54-.42-6.1-2.68-7.82-1.66-1.26-5.3-1.33-6.69.44-1.61,2,.46,4.11,1.92,5.39,1,.9,1.53,2.16,2.52,3.08a6.74,6.74,0,0,0,3.33,1.68c1.74.34,2.48-2.32.74-2.66Z"/><path class="cls-354" d="M102.83,154.6a7.73,7.73,0,0,1-.82-2.73l-1.26-7.45a.65.65,0,0,1,0-.39c.1-.2.35-.24.57-.25q6.41-.5,12.83-.61c.84,0,2,.25,2,1.09,0,.55-.54.92-.9,1.35a4.48,4.48,0,0,0-.66,3,13.27,13.27,0,0,1-.24,3.88,4.19,4.19,0,0,1-2.35,2.92,6.46,6.46,0,0,1-2,.29l-8.5.27"/><path class="cls-354" d="M193.88,153.13c-1.71-.34-2.41-1.31-3.36-2.65a8,8,0,0,0-1.27-1.4c-.36-.32-1.31-.85-1.43-1.32-.17-.69.69-.68,1.33-.68a2,2,0,0,1,2,1.5,28.28,28.28,0,0,1,.94,5.18c.29,1.75,2.95,1,2.67-.74-.41-2.54-.42-6.1-2.68-7.82-1.66-1.26-5.3-1.33-6.69.44-1.61,2,.45,4.11,1.92,5.39,1,.9,1.53,2.16,2.52,3.08a6.74,6.74,0,0,0,3.33,1.68c1.74.34,2.48-2.32.73-2.66Z"/><path class="cls-354" d="M193.74,154.6a7.73,7.73,0,0,1-.82-2.73l-1.26-7.45a.58.58,0,0,1,0-.39c.09-.2.35-.24.56-.25q6.4-.5,12.84-.61c.83,0,2,.25,2,1.09,0,.55-.55.92-.9,1.35a4.48,4.48,0,0,0-.66,3,13.62,13.62,0,0,1-.24,3.88,4.2,4.2,0,0,1-2.36,2.92,6.37,6.37,0,0,1-2,.29l-8.49.27"/><path class="cls-354" d="M231.53,155.53c-2.26-.06-4.52.42-6.78.35-1.81,0-3.84.35-5.05-1-.67-.76-1-2.88-1.17-3.87a21.52,21.52,0,0,1,.06-9,15.67,15.67,0,0,0,.74-4.77c-.15-1.61-1.25-3.28-2.86-3.43A125.46,125.46,0,0,1,231.6,133a2,2,0,0,1,1.51.42,2,2,0,0,1,.37,1.52l-.42,19.21c0,.65-.4,1.56-1,1.29"/><path class="cls-354" d="M232.78,139.42c.64-.78,1.4-2.37,2.08-1.77s.29,2.26.26,3.1c-.09,2.23-.47,4.44-.57,6.67-.12,2.47-.43,5.64,2,7.06a1.38,1.38,0,0,0,1.39-2.39c-1.84-1.08-.27-8.16-.13-10,.15-2,.57-4.85-.39-6.74-1.93-3.79-5.19.44-6.57,2.13-1.11,1.36.83,3.33,1.95,1.95Z"/><path class="cls-354" d="M256.15,155.53c-2.26-.06-4.52.42-6.78.35-1.81,0-3.84.35-5.05-1-.67-.76-1-2.88-1.17-3.87a21.52,21.52,0,0,1,.06-9,15.37,15.37,0,0,0,.74-4.77c-.15-1.61-1.25-3.28-2.85-3.43a125.18,125.18,0,0,1,15.12-.86,2,2,0,0,1,1.51.42,2,2,0,0,1,.38,1.52l-.43,19.21c0,.65-.4,1.56-1,1.29"/><path class="cls-354" d="M257.41,139.42c.63-.78,1.39-2.37,2.07-1.77s.29,2.26.26,3.1c-.09,2.23-.46,4.44-.57,6.67-.12,2.47-.43,5.64,2,7.06a1.38,1.38,0,0,0,1.39-2.39c-1.84-1.08-.27-8.16-.13-10,.15-2,.57-4.85-.39-6.74-1.93-3.79-5.19.44-6.57,2.13-1.11,1.36.83,3.33,2,1.95Z"/><circle class="cls-354" cx="215.57" cy="178.37" r="5.41"/><circle class="cls-354" cx="230.93" cy="176.9" r="6.87"/><circle class="cls-354" cx="249.54" cy="174.41" r="9.36"/><path class="cls-366" d="M162.65,218.33s18.14.6,21-4.2c0,0,7.21,4.56,14.77.94,0,0,.92,4.78.57,7l0,.54H160.68Z"/><path class="cls-365" d="M180.2,201.54c1.68,2.16,1.75,7.51,2.26,10.09l2.15,10.79c.17.87,1.5.5,1.33-.37l-2.64-13.28c-.51-2.57-.48-6.08-2.13-8.21-.54-.7-1.51.28-1,1Z"/><path class="cls-354" d="M106.64,213.86c-2.52,0-21.57-.28-21.57,0s.26.26.26.26c1.84,0,10.93,2.87,10.93,2.87H117s9.09-2.87,10.93-2.87c0,0,.27.05.27-.26S109.15,213.83,106.64,213.86Z"/><rect class="cls-359" x="83.28" y="222.65" width="182.44" height="5.91"/><path class="cls-360" d="M161.4,224.93a18.86,18.86,0,0,0,5.27.71,6.28,6.28,0,0,0,4.67-2.2l-.57,1.68a.4.4,0,0,0,0,.3.38.38,0,0,0,.32.15,19.22,19.22,0,0,0,2.84.12,1.28,1.28,0,0,0,.67-.16c.38-.27.36-.82.35-1.29a5.32,5.32,0,0,1,.82-2.93,2,2,0,0,0,.47-1.23,1.56,1.56,0,0,0-.57-.85,16,16,0,0,0-15.21-3.53,3.86,3.86,0,0,0-1.34.64,3.74,3.74,0,0,0-1,2.23,4.12,4.12,0,0,0,.2,2.8c.6,1.08,2,1.58,2.46,2.7"/><path class="cls-365" d="M161.22,225.59c3.82.87,7.67,1.4,10.61-1.67l-1.16-.67a8.78,8.78,0,0,0-.61,2.17.7.7,0,0,0,.34.6c4.83,2.26,4.9-1.16,5.94-4.37.46-1.41.89-1.56-.2-2.91-1.26-1.56-3.55-2.6-5.37-3.28-3.19-1.19-9.2-2.15-12.09.34a5.11,5.11,0,0,0-1.41,3.73c0,2.51,1.56,3,2.88,4.89.5.73,1.7,0,1.19-.69-1.44-2.12-4.26-4-1.56-6.58,2.09-2,6.44-1.59,9.07-.86a13.35,13.35,0,0,1,3.84,1.6,4.57,4.57,0,0,1,2.46,3.07l-.46.92a3.53,3.53,0,0,1-.37,1.34q.31,1.77-1.83,1.77c-.86-.23-1-.68-.49-1.37a.69.69,0,0,0-1.15-.67c-2.58,2.69-6,2.05-9.26,1.31-.87-.2-1.24,1.13-.37,1.33Z"/><path class="cls-355" d="M140.82,178.7c-2,0-11.41,3.69-14.67,8.41-2.36,3.43-5.71,14-5.57,18.18.57,17.36,4.43,17.54,6.25,18.74,2.88,1.89,5.27,1,8.7,1.18l23.32,1.49a2,2,0,0,0,1-.1,2.06,2.06,0,0,0,.92-1.55c.64-2.76,2.1-9.69.44-12-.55-.77-2.21,2.36-2.64,1.51-.25-.52-.37-1.11-.67-1.6-.77-1.23-2.43-1.47-3.88-1.59l-8.75-.7a20.39,20.39,0,0,1-6-1.09,6.94,6.94,0,0,1-4.23-4.17,4.26,4.26,0,0,1,2.21-5.14"/><path class="cls-365" d="M143.43,195.16c-1,1.05-1.84,2.82-2.35.09l-1.26.53c2.09,3.7-2.4,7.29-1.08,11,.89,2.53,3.62,3.48,6,3.91a56.16,56.16,0,0,0,11.88.47c4.18-.16,4.61,1.71,4.74,5.61a24,24,0,0,1-1.75,9.26c-.32.83,1,1.19,1.33.37,1.61-4.29,4.78-16.92-2.71-16.7-2.7.08-5.37.18-8.08.06-1.34-.05-2.7-.11-4-.27-2.82-.35-4.09-.58-5.21-3.41-1.29-3.27.43-4.21.82-7.37a5.27,5.27,0,0,0-.76-3.65c-.4-.71-1.4-.2-1.26.53a4.7,4.7,0,0,0,1,2.76.71.71,0,0,0,1.09.14,20.19,20.19,0,0,0,2.52-2.37c.6-.66-.38-1.64-1-1Z"/><path class="cls-354" d="M232.07,213.86c-2.51,0-21.56-.28-21.56,0s.26.26.26.26c1.84,0,10.93,2.87,10.93,2.87h20.75s9.09-2.87,10.93-2.87c0,0,.26.05.26-.26S234.59,213.83,232.07,213.86Z"/><rect class="cls-367" x="110.95" y="228.56" width="0.92" height="148.54"/><rect class="cls-367" x="140.66" y="228.56" width="0.92" height="148.54"/><rect class="cls-367" x="170.36" y="228.56" width="0.92" height="148.54"/><rect class="cls-367" x="200.06" y="228.56" width="0.92" height="148.54"/><rect class="cls-367" x="229.76" y="228.56" width="0.92" height="148.54"/><rect class="cls-367" x="259.47" y="228.56" width="0.92" height="148.54"/><rect class="cls-368" x="244.26" y="249.78" width="88.64" height="140.49"/><rect class="cls-131" x="251.79" y="257.92" width="73.58" height="124.22"/><path d="M268.39,287h-.31l-1.27-4-2.34,1.22v-.34c1.58-.79,2.34-1.18,2.28-1.18l-.95-3L263.29,287H263l2.72-8h.22l1.08,3.49h.07l.09.23-.08,0Z"/><path d="M272.41,279.75a2.48,2.48,0,0,1,.06.54,2.93,2.93,0,0,1-1.18,2.18,3.71,3.71,0,0,1-2.53.82V287h-.28v-5.32h-.1a1.3,1.3,0,0,1,.1-.18V279h.28v2.05a6.21,6.21,0,0,1,1.5-1.41,2.74,2.74,0,0,1,1.39-.5A.69.69,0,0,1,272.41,279.75Zm-.29.06a.45.45,0,0,0-.49-.38,2.82,2.82,0,0,0-1.51.69,5.22,5.22,0,0,0-1.36,1.4V283a3.55,3.55,0,0,0,2.34-.76,2.68,2.68,0,0,0,1.07-2A2.59,2.59,0,0,0,272.12,279.81Zm.35,7.07h-.07c-.22,0-.69-.31-1.39-.94a25,25,0,0,1-1.79-1.78l.2-.18c.57.61,1.12,1.16,1.65,1.64s1,.89,1.22.89h.06Z"/><path d="M277.08,279.39l-2.42,1.27V287h-.29V280.8l-1.66.87v-.32l1.66-.87v-.69h.29v.54l2.43-1.27Z"/><path d="M280.66,285.3l-3.54,1.77-.12-.13v-8h.28v1.26l3-1.46v.33l-3,1.46v2.18l3.23-1.63v.32l-3.23,1.63v3.6l3.38-1.69Z"/><path d="M286.22,283.84a3.43,3.43,0,0,1-1.78,2.31,12,12,0,0,1-2.44,1v-.31a11.46,11.46,0,0,0,2.27-.9,3.17,3.17,0,0,0,1.65-2.15,2,2,0,0,0,0-.34c0-.63-.46-.95-1.38-.95-.21,0-.53,0-1,.06l-.91.05c-.58,0-.87-.17-.87-.5a1,1,0,0,1,.06-.32,3.86,3.86,0,0,1,1.36-1.93,3.45,3.45,0,0,1,2.09-.67h.28v.3h-.29a3.25,3.25,0,0,0-3.17,2.39.59.59,0,0,0,0,.14c0,.19.21.29.62.29.15,0,.45,0,.89-.06s.77-.06,1-.06c1.08,0,1.62.4,1.62,1.18A2.79,2.79,0,0,1,286.22,283.84Z"/><path d="M291.68,287h-.31l-1.27-4-2.33,1.22v-.34c1.58-.79,2.34-1.18,2.27-1.18l-1-3L286.58,287h-.31l2.72-8h.21l1.09,3.49h.07l.08.23-.08,0Z"/><path d="M296.66,286.92l-.2.1a23.68,23.68,0,0,1-2.55-3.51,21.37,21.37,0,0,1-1.69-3.5v7h-.29v-8h.26a22.71,22.71,0,0,0,2,4.33,22.15,22.15,0,0,0,2.18,3.08l-.05-7.32h.3Z"/><path d="M302.57,287h-.31l-1.27-4-2.34,1.22v-.34a25.5,25.5,0,0,0,2.28-1.18l-.95-3L297.47,287h-.31l2.71-8h.22l1.09,3.49h.06l.09.23-.08,0Z"/><path d="M306.75,279.39l-2.43,1.27V287H304V280.8l-1.66.87v-.32l1.66-.87v-.69h.29v.54l2.43-1.27Z"/><path d="M312.54,282.42a13.88,13.88,0,0,1-1.2,2.72A3.86,3.86,0,0,1,308.7,287a1.53,1.53,0,0,1-.3,0,1.45,1.45,0,0,1-1.29-.79,3.74,3.74,0,0,1-.44-1.9,5.78,5.78,0,0,1,.18-1.43,4.81,4.81,0,0,1,4.14-4l.21,0a1.27,1.27,0,0,1,1.14.7,3.07,3.07,0,0,1,.4,1.59A3.68,3.68,0,0,1,312.54,282.42Zm-.29-.1a3.33,3.33,0,0,0,.2-1.14,2.64,2.64,0,0,0-.32-1.35,1,1,0,0,0-.93-.58H311a4.53,4.53,0,0,0-3.88,3.74,6,6,0,0,0-.18,1.44,3.23,3.23,0,0,0,.36,1.63,1.2,1.2,0,0,0,1.08.68l.26,0a3.65,3.65,0,0,0,2.47-1.81A14.66,14.66,0,0,0,312.25,282.32Z"/><path d="M276.9,297.23,273.44,299l-.13-.12V291h.29v7.54l3.3-1.66Z"/><path d="M283.85,294.32a13.88,13.88,0,0,1-1.2,2.72,3.82,3.82,0,0,1-2.63,1.89l-.3,0a1.45,1.45,0,0,1-1.29-.79,3.64,3.64,0,0,1-.45-1.9,5.78,5.78,0,0,1,.18-1.43,4.82,4.82,0,0,1,4.15-4l.21,0a1.31,1.31,0,0,1,1.14.71,3,3,0,0,1,.39,1.58A3.36,3.36,0,0,1,283.85,294.32Zm-.28-.1a3.33,3.33,0,0,0,.19-1.14,2.67,2.67,0,0,0-.31-1.35,1,1,0,0,0-.93-.58h-.18a4.53,4.53,0,0,0-3.88,3.74,5.59,5.59,0,0,0-.19,1.44,3.12,3.12,0,0,0,.37,1.63,1.18,1.18,0,0,0,1.08.68l.25,0a3.64,3.64,0,0,0,2.48-1.81A15.46,15.46,0,0,0,283.57,294.22Z"/><path d="M289.16,291.54a2.37,2.37,0,0,0-.7-.1,3.31,3.31,0,0,0-2.52,1.27,4.63,4.63,0,0,0-1.17,3.1c0,1.71.44,2.64,1.38,2.77l.45,0a2.58,2.58,0,0,0,2.27-1.46l.23.21a2.79,2.79,0,0,1-2.48,1.56,3.08,3.08,0,0,1-.51,0c-1.11-.15-1.65-1.18-1.63-3.06a4.87,4.87,0,0,1,1.27-3.32,3.53,3.53,0,0,1,2.7-1.36,2.44,2.44,0,0,1,.71.1Z"/><path d="M295,298.87h-.31l-1.27-4.05L291,296.05v-.34c1.59-.79,2.34-1.18,2.28-1.18l-.95-3-2.51,7.36h-.31l2.71-8h.22l1.08,3.49h.07l.09.23-.08,0Z"/><path d="M298.58,297.23,295.12,299l-.13-.12V291h.29v7.54l3.3-1.66Z"/><path d="M301.25,297.67v1.16H301v-1.16Zm.15-1.42h-.29l-.05-5.33h.3Z"/><path class="cls-369" d="M271.88,318.82a3.66,3.66,0,0,0-.93-.13,4.41,4.41,0,0,0-3.37,1.71,6.2,6.2,0,0,0-1.56,4.13c0,2.28.59,3.51,1.84,3.68a4.35,4.35,0,0,0,.61,0,3.44,3.44,0,0,0,3-1.94l.31.28a3.73,3.73,0,0,1-3.31,2.09,4,4,0,0,1-.67-.06c-1.49-.21-2.21-1.57-2.19-4.08a6.59,6.59,0,0,1,1.7-4.43,4.73,4.73,0,0,1,3.59-1.81,3.42,3.42,0,0,1,1,.13Z"/><path class="cls-369" d="M268.49,329.18a5.14,5.14,0,0,1-.75-.06c-1.76-.25-2.64-1.8-2.61-4.59a7.08,7.08,0,0,1,1.82-4.76,5.26,5.26,0,0,1,4-2A4,4,0,0,1,272,318l.37.1v1.44l-.65-.19a2.88,2.88,0,0,0-.78-.11,3.87,3.87,0,0,0-3,1.54,5.56,5.56,0,0,0-1.44,3.81c0,3,1.05,3.13,1.41,3.18a3,3,0,0,0,3.13-1.67l.31-.52,1.06,1-.2.35A4.22,4.22,0,0,1,268.49,329.18Z"/><path class="cls-369" d="M280.75,322.54a18.73,18.73,0,0,1-1.6,3.62,5.18,5.18,0,0,1-3.52,2.53,1.75,1.75,0,0,1-.4,0,1.94,1.94,0,0,1-1.72-1.06,5,5,0,0,1-.59-2.54,7.73,7.73,0,0,1,.24-1.9q1.17-4.67,5.52-5.32a1.37,1.37,0,0,1,.28,0,1.71,1.71,0,0,1,1.52.93,4,4,0,0,1,.53,2.12A5,5,0,0,1,280.75,322.54Zm-.39-.13a4.32,4.32,0,0,0,.27-1.53,3.51,3.51,0,0,0-.42-1.79,1.41,1.41,0,0,0-1.24-.78h-.24c-2.71.42-4.44,2.09-5.18,5a8,8,0,0,0-.25,1.92,4.32,4.32,0,0,0,.49,2.18,1.58,1.58,0,0,0,1.44.9l.34,0a4.83,4.83,0,0,0,3.3-2.41A18.85,18.85,0,0,0,280.36,322.41Z"/><path class="cls-369" d="M275.23,329.23a2.43,2.43,0,0,1-2.14-1.3,5.33,5.33,0,0,1-.67-2.8,8.22,8.22,0,0,1,.25-2c.84-3.31,2.84-5.22,5.94-5.69a2.07,2.07,0,0,1,.35,0,2.19,2.19,0,0,1,2,1.18,4.46,4.46,0,0,1,.6,2.37,5.47,5.47,0,0,1-.29,1.77h0a19.91,19.91,0,0,1-1.65,3.73,5.67,5.67,0,0,1-3.85,2.74A2.63,2.63,0,0,1,275.23,329.23ZM279,318.81h-.19c-2.49.39-4,1.9-4.74,4.61a7.08,7.08,0,0,0-.24,1.8,3.75,3.75,0,0,0,.42,1.92,1.11,1.11,0,0,0,1.28.63,4.29,4.29,0,0,0,2.95-2.18,18.54,18.54,0,0,0,1.44-3.36h0a4.09,4.09,0,0,0,.23-1.36,3,3,0,0,0-.36-1.54A.86.86,0,0,0,279,318.81Z"/><path class="cls-369" d="M288.36,328.54l-.26.14a31.55,31.55,0,0,1-3.41-4.69,29.4,29.4,0,0,1-2.25-4.66v9.28h-.38V318h.34a30.11,30.11,0,0,0,2.65,5.78,27.92,27.92,0,0,0,2.9,4.1l-.06-9.76h.39Z"/><path class="cls-369" d="M288,329.29l-.26-.29a32,32,0,0,1-3.46-4.76c-.49-.83-.93-1.66-1.32-2.46v7.33h-1.38V317.5h.38v-1l.36,1h.46l.11.34a30.71,30.71,0,0,0,4.57,8.62l-.06-8.84h1.4l.09,11.23-.41.2v.2l-.11-.14Z"/><path class="cls-369" d="M294.22,321.36,290,323.49v5.19h-.38V318.12H290v1.66l4-1.91v.44L290,320.22v2.84l4.22-2.13Z"/><polygon class="cls-369" points="290.5 329.18 289.12 329.18 289.12 317.62 290.5 317.62 290.5 318.98 294.46 317.07 294.45 318.63 290.5 320.53 290.5 322.24 294.72 320.12 294.73 321.66 290.5 323.79 290.5 329.18"/><path class="cls-369" d="M296.59,328.68h-.38V317.94h.38Z"/><rect class="cls-369" x="295.71" y="317.44" width="1.38" height="11.74"/><path class="cls-369" d="M303.44,319a3.53,3.53,0,0,1,.08.72,4,4,0,0,1-1.58,2.91,5,5,0,0,1-3.37,1.09v4.91h-.38v-7.1h-.13a1.23,1.23,0,0,1,.13-.24V318h.38v2.74a8.41,8.41,0,0,1,2-1.88,3.55,3.55,0,0,1,1.85-.67A.93.93,0,0,1,303.44,319Zm-.4.08a.59.59,0,0,0-.65-.51,3.75,3.75,0,0,0-2,.92,6.85,6.85,0,0,0-1.81,1.87v2a4.68,4.68,0,0,0,3.11-1,3.57,3.57,0,0,0,1.43-2.62A2.68,2.68,0,0,0,303,319.06Zm.48,9.42a.16.16,0,0,1-.1,0c-.3,0-.92-.41-1.86-1.25a33.39,33.39,0,0,1-2.38-2.38l.27-.24q1.14,1.23,2.19,2.19c.85.79,1.4,1.18,1.64,1.18h.08Z"/><path class="cls-369" d="M299.07,329.11h-1.38V322h-.44l.36-.72.08-.16V317.5h1.38v1.93a7.45,7.45,0,0,1,1.23-1,4,4,0,0,1,2.12-.76,1.44,1.44,0,0,1,1.51,1.19,3.75,3.75,0,0,1,.09.82,4.41,4.41,0,0,1-1.75,3.28,5,5,0,0,1-2.61,1.14l.15.17c.75.81,1.48,1.54,2.17,2.17a5.18,5.18,0,0,0,1.34,1.05h.36l.43,1.17-.44.3-.25,0c-.33,0-.83-.16-2.19-1.38-.73-.66-1.46-1.37-2.16-2.13Zm0-4.93v.11l.14-.12Zm0-2.7v1.3a3.89,3.89,0,0,0,2.28-.85,3.14,3.14,0,0,0,1.26-2.25,2.29,2.29,0,0,0-.06-.51h0c0-.1,0-.11-.16-.11a3.19,3.19,0,0,0-1.71.82A6.78,6.78,0,0,0,299.07,321.48Z"/><path class="cls-369" d="M310.84,328.61h-.41l-1.69-5.39-3.12,1.62v-.45c2.11-1.05,3.12-1.57,3-1.57l-1.26-3.95L304,328.68h-.42l3.63-10.62h.29l1.44,4.65h.09l.12.31-.11,0Z"/><path class="cls-369" d="M304.4,329.18h-1.47l4-11.61h.42l.09-.29.14.29h.37l1.46,4.72.17.25.32.85-.14,0,1.8,5.7h-1.46l-1.62-5.17-2.74,1.42Zm3-8.72-1,3c.93-.47,1.44-.73,1.71-.88Z"/><path class="cls-369" d="M272.38,344.41l-.26.13a31.48,31.48,0,0,1-3.41-4.68,29.48,29.48,0,0,1-2.25-4.67v9.29h-.38V333.87h.34a30.39,30.39,0,0,0,2.65,5.78,28.47,28.47,0,0,0,2.9,4.1l-.06-9.76h.39Z"/><path class="cls-369" d="M272,345.16l-.26-.29a32,32,0,0,1-3.46-4.76c-.49-.84-.93-1.66-1.32-2.47V345h-1.38V333.37H266v-1l.36,1h.46l.11.34a30.39,30.39,0,0,0,4.57,8.61l-.06-8.83h1.4l.09,11.23-.41.2v.19l-.11-.13Z"/><path class="cls-369" d="M281.4,338.41a18.69,18.69,0,0,1-1.6,3.62,5.16,5.16,0,0,1-3.52,2.53,2.58,2.58,0,0,1-.39,0,1.94,1.94,0,0,1-1.72-1.06,4.85,4.85,0,0,1-.6-2.54,7.67,7.67,0,0,1,.24-1.9q1.19-4.67,5.53-5.32l.28,0a1.74,1.74,0,0,1,1.52.94,4,4,0,0,1,.53,2.12A4.72,4.72,0,0,1,281.4,338.41Zm-.38-.13a4.64,4.64,0,0,0,.26-1.53,3.58,3.58,0,0,0-.42-1.8,1.4,1.4,0,0,0-1.24-.77h-.24q-4.06.63-5.17,5a7.63,7.63,0,0,0-.25,1.93,4.24,4.24,0,0,0,.49,2.18,1.59,1.59,0,0,0,1.43.89l.35,0a4.88,4.88,0,0,0,3.3-2.42A19.82,19.82,0,0,0,281,338.28Z"/><path class="cls-369" d="M275.89,345.1a2.44,2.44,0,0,1-2.15-1.3,5.42,5.42,0,0,1-.67-2.8,8.37,8.37,0,0,1,.26-2c.83-3.3,2.83-5.21,5.93-5.68a1.47,1.47,0,0,1,.36,0,2.23,2.23,0,0,1,1.95,1.18,4.62,4.62,0,0,1,.6,2.38,5.17,5.17,0,0,1-.3,1.76h0a18.24,18.24,0,0,1-1.65,3.72,5.66,5.66,0,0,1-3.85,2.75A2.61,2.61,0,0,1,275.89,345.1Zm3.73-10.42h-.18c-2.5.39-4.06,1.89-4.75,4.61a7.53,7.53,0,0,0-.23,1.8,3.77,3.77,0,0,0,.42,1.92,1.11,1.11,0,0,0,1.28.63,4.3,4.3,0,0,0,2.94-2.18,19.12,19.12,0,0,0,1.45-3.36h0a4.13,4.13,0,0,0,.23-1.36,3.08,3.08,0,0,0-.35-1.54A.88.88,0,0,0,279.62,334.68Z"/><path class="cls-369" d="M288.38,340.3a4.55,4.55,0,0,1-2.36,3.08,16.72,16.72,0,0,1-3.26,1.32v-.41a15.79,15.79,0,0,0,3-1.2,4.23,4.23,0,0,0,2.21-2.87,3.75,3.75,0,0,0,0-.45c0-.85-.62-1.27-1.84-1.27-.28,0-.72,0-1.3.07s-1,.08-1.21.08c-.78,0-1.17-.22-1.17-.67a1.59,1.59,0,0,1,.08-.43,5.13,5.13,0,0,1,1.83-2.57,4.57,4.57,0,0,1,2.77-.9l.39,0v.39h-.4a4.26,4.26,0,0,0-2.6.85,4.31,4.31,0,0,0-1.62,2.34.62.62,0,0,0,0,.19c0,.26.27.39.82.39.2,0,.59,0,1.18-.08s1-.08,1.35-.08c1.44,0,2.16.53,2.16,1.58A2.94,2.94,0,0,1,288.38,340.3Z"/><path class="cls-369" d="M282.26,345.38v-1.46l.35-.11a14.85,14.85,0,0,0,2.92-1.15,3.77,3.77,0,0,0,2-2.53,2.28,2.28,0,0,0,0-.36c0-.25,0-.77-1.34-.77-.27,0-.69,0-1.25.07s-1,.08-1.26.08c-1.45,0-1.67-.73-1.67-1.17a2.28,2.28,0,0,1,.1-.58,5.65,5.65,0,0,1,2-2.82,5,5,0,0,1,3.49-1l.47,0V335h-.9a3.83,3.83,0,0,0-3.71,2.75,6.43,6.43,0,0,0,1.42-.06c.61-.05,1.08-.08,1.4-.08,2.31,0,2.66,1.3,2.66,2.08a3.86,3.86,0,0,1-.08.71h0a5.09,5.09,0,0,1-2.6,3.42,16,16,0,0,1-3.36,1.37Z"/><path class="cls-369" d="M294.93,340.3a4.59,4.59,0,0,1-2.37,3.08,16.58,16.58,0,0,1-3.25,1.32v-.41a15.64,15.64,0,0,0,3-1.2,4.23,4.23,0,0,0,2.21-2.87,2.42,2.42,0,0,0,0-.45c0-.85-.61-1.27-1.84-1.27-.28,0-.71,0-1.29.07s-1,.08-1.22.08c-.77,0-1.16-.22-1.16-.67a1.28,1.28,0,0,1,.08-.43A5.17,5.17,0,0,1,291,335a4.6,4.6,0,0,1,2.78-.9l.38,0v.39h-.39a4.29,4.29,0,0,0-2.61.85,4.35,4.35,0,0,0-1.61,2.34.63.63,0,0,0,0,.19c0,.26.27.39.82.39.2,0,.6,0,1.18-.08s1-.08,1.36-.08c1.44,0,2.16.53,2.16,1.58A3.79,3.79,0,0,1,294.93,340.3Z"/><path class="cls-369" d="M288.81,345.38v-1.46l.35-.11a15,15,0,0,0,2.91-1.15,3.74,3.74,0,0,0,2-2.53,2.28,2.28,0,0,0,0-.36c0-.25,0-.77-1.34-.77-.27,0-.69,0-1.25.07s-1,.08-1.26.08c-1.45,0-1.66-.73-1.66-1.17a1.91,1.91,0,0,1,.1-.58,5.7,5.7,0,0,1,2-2.82,5.09,5.09,0,0,1,3.5-1l.46,0V335h-.89a3.84,3.84,0,0,0-3.72,2.75,6.53,6.53,0,0,0,1.43-.06c.61-.05,1.07-.08,1.4-.08,2.31,0,2.66,1.3,2.66,2.08a3.86,3.86,0,0,1-.08.71h0a5.09,5.09,0,0,1-2.6,3.42,16.21,16.21,0,0,1-3.36,1.37Z"/><path class="cls-369" d="M303.35,338.41a19.33,19.33,0,0,1-1.6,3.62,5.16,5.16,0,0,1-3.52,2.53,2.58,2.58,0,0,1-.39,0,1.93,1.93,0,0,1-1.72-1.06,4.85,4.85,0,0,1-.6-2.54,7.67,7.67,0,0,1,.24-1.9q1.19-4.67,5.53-5.32l.28,0a1.74,1.74,0,0,1,1.52.94,4,4,0,0,1,.53,2.12A4.72,4.72,0,0,1,303.35,338.41Zm-.38-.13a4.64,4.64,0,0,0,.26-1.53,3.58,3.58,0,0,0-.42-1.8,1.4,1.4,0,0,0-1.24-.77h-.24q-4.06.63-5.17,5a7.63,7.63,0,0,0-.25,1.93,4.24,4.24,0,0,0,.49,2.18,1.59,1.59,0,0,0,1.43.89l.35,0a4.88,4.88,0,0,0,3.3-2.42A19.82,19.82,0,0,0,303,338.28Z"/><path class="cls-369" d="M297.84,345.1a2.44,2.44,0,0,1-2.15-1.3A5.42,5.42,0,0,1,295,341a8.37,8.37,0,0,1,.26-2c.83-3.3,2.83-5.21,5.93-5.68a1.47,1.47,0,0,1,.36,0,2.23,2.23,0,0,1,1.95,1.18,4.62,4.62,0,0,1,.6,2.38,5.17,5.17,0,0,1-.3,1.76h0a18.24,18.24,0,0,1-1.65,3.72,5.66,5.66,0,0,1-3.85,2.75A2.61,2.61,0,0,1,297.84,345.1Zm3.73-10.42h-.18c-2.5.39-4.06,1.89-4.75,4.61a7.53,7.53,0,0,0-.23,1.8,3.77,3.77,0,0,0,.42,1.92,1.11,1.11,0,0,0,1.28.63,4.3,4.3,0,0,0,2.94-2.18,19.12,19.12,0,0,0,1.45-3.36h0a4.13,4.13,0,0,0,.23-1.36,3.08,3.08,0,0,0-.35-1.54A.88.88,0,0,0,301.57,334.68Z"/><path class="cls-369" d="M310.33,340.3a4.55,4.55,0,0,1-2.36,3.08,16.72,16.72,0,0,1-3.26,1.32v-.41a15.79,15.79,0,0,0,3-1.2,4.23,4.23,0,0,0,2.21-2.87,3.75,3.75,0,0,0,0-.45c0-.85-.62-1.27-1.84-1.27-.28,0-.72,0-1.3.07s-1,.08-1.21.08c-.78,0-1.17-.22-1.17-.67a1.59,1.59,0,0,1,.08-.43,5.13,5.13,0,0,1,1.83-2.57,4.57,4.57,0,0,1,2.77-.9l.39,0v.39h-.4a4.35,4.35,0,0,0-4.22,3.19.62.62,0,0,0,0,.19c0,.26.27.39.82.39.2,0,.59,0,1.18-.08s1-.08,1.35-.08c1.44,0,2.16.53,2.16,1.58A2.94,2.94,0,0,1,310.33,340.3Z"/><path class="cls-369" d="M304.21,345.38v-1.46l.35-.11a14.85,14.85,0,0,0,2.92-1.15,3.77,3.77,0,0,0,2-2.53c0-.12,0-.25,0-.36s0-.77-1.34-.77c-.27,0-.69,0-1.26.07s-1,.08-1.25.08c-1.45,0-1.67-.73-1.67-1.17a2.28,2.28,0,0,1,.1-.58,5.65,5.65,0,0,1,2-2.82,5.08,5.08,0,0,1,3.49-1l.47,0V335h-.9a3.82,3.82,0,0,0-2.31.75,3.75,3.75,0,0,0-1.4,2,6.43,6.43,0,0,0,1.42-.06c.61-.05,1.08-.08,1.4-.08,2.31,0,2.66,1.3,2.66,2.08a3.86,3.86,0,0,1-.08.71h0a5.09,5.09,0,0,1-2.6,3.42,16,16,0,0,1-3.36,1.37Z"/><path class="cls-369" d="M263.33,350.72a3.43,3.43,0,0,1,.08.71,3.92,3.92,0,0,1-1.58,2.91,5,5,0,0,1-3.37,1.1v4.9h-.38v-7.1H258a1.44,1.44,0,0,1,.13-.23v-3.27h.38v2.74a8.21,8.21,0,0,1,2-1.88,3.58,3.58,0,0,1,1.85-.68A.94.94,0,0,1,263.33,350.72Zm-.4.08a.59.59,0,0,0-.65-.52,3.71,3.71,0,0,0-2,.93,6.82,6.82,0,0,0-1.81,1.86v2a4.67,4.67,0,0,0,3.11-1,3.59,3.59,0,0,0,1.43-2.62A3.37,3.37,0,0,0,262.93,350.8Z"/><path class="cls-369" d="M259,360.84h-1.38v-7.1h-.44l.36-.72a1,1,0,0,1,.08-.15v-3.63H259v1.92a9.19,9.19,0,0,1,1.22-1,4.06,4.06,0,0,1,2.13-.76,1.45,1.45,0,0,1,1.51,1.19,3.81,3.81,0,0,1,.09.82,4.42,4.42,0,0,1-1.75,3.29,5.26,5.26,0,0,1-3.2,1.2Zm0-7.62v1.3a3.83,3.83,0,0,0,2.28-.86,3.12,3.12,0,0,0,1.26-2.24,2.37,2.37,0,0,0-.06-.52h0c0-.1,0-.12-.16-.12a3.29,3.29,0,0,0-1.72.83A6.91,6.91,0,0,0,259,353.22Z"/><path class="cls-369" d="M269.81,350.72a3.43,3.43,0,0,1,.08.71,3.92,3.92,0,0,1-1.58,2.91,5,5,0,0,1-3.37,1.1v4.9h-.38v-7.1h-.14a2.65,2.65,0,0,1,.14-.23v-3.27h.38v2.74a8,8,0,0,1,2-1.88,3.58,3.58,0,0,1,1.85-.68A.94.94,0,0,1,269.81,350.72Zm-.4.08a.59.59,0,0,0-.65-.52,3.76,3.76,0,0,0-2,.93,6.92,6.92,0,0,0-1.8,1.86v2a4.67,4.67,0,0,0,3.11-1,3.59,3.59,0,0,0,1.43-2.62A3.37,3.37,0,0,0,269.41,350.8Zm.48,9.41a.17.17,0,0,1-.1,0q-.45,0-1.86-1.26a29.69,29.69,0,0,1-2.38-2.38l.26-.24c.77.82,1.5,1.56,2.2,2.2.85.78,1.4,1.18,1.64,1.18h.08Z"/><path class="cls-369" d="M265.44,360.84h-1.38v-7.1h-.44L264,353a.53.53,0,0,1,.08-.15v-3.63h1.38v1.92a9.19,9.19,0,0,1,1.22-1,4.06,4.06,0,0,1,2.13-.76,1.43,1.43,0,0,1,1.5,1.19,3.83,3.83,0,0,1,.1.82,4.42,4.42,0,0,1-1.75,3.29,5,5,0,0,1-2.62,1.14l.16.16c.75.81,1.48,1.54,2.17,2.17a5.18,5.18,0,0,0,1.34,1.05h.36l.43,1.18-.45.29-.24,0c-.33,0-.83-.17-2.19-1.38-.74-.66-1.46-1.38-2.16-2.13Zm0-4.92V356l.13-.12Zm0-2.7v1.3a3.85,3.85,0,0,0,2.28-.86,3.12,3.12,0,0,0,1.26-2.24,2.37,2.37,0,0,0-.06-.52h0c0-.1,0-.12-.16-.12a3.29,3.29,0,0,0-1.72.83A6.91,6.91,0,0,0,265.44,353.22Z"/><path class="cls-369" d="M278.35,354.28a19.33,19.33,0,0,1-1.6,3.62,5.14,5.14,0,0,1-3.52,2.52,1.75,1.75,0,0,1-.4,0,2,2,0,0,1-1.72-1,5,5,0,0,1-.59-2.54,7.81,7.81,0,0,1,.24-1.91q1.17-4.65,5.52-5.31l.28,0a1.71,1.71,0,0,1,1.52.94,3.94,3.94,0,0,1,.53,2.11A5,5,0,0,1,278.35,354.28Zm-.38-.13a4.64,4.64,0,0,0,.26-1.53,3.55,3.55,0,0,0-.42-1.8,1.41,1.41,0,0,0-1.24-.78l-.24,0q-4.06.63-5.18,5a8,8,0,0,0-.25,1.93,4.3,4.3,0,0,0,.49,2.17,1.58,1.58,0,0,0,1.44.9l.34,0a4.8,4.8,0,0,0,3.3-2.41A19.23,19.23,0,0,0,278,354.15Z"/><path class="cls-369" d="M272.83,361a2.43,2.43,0,0,1-2.14-1.3,5.29,5.29,0,0,1-.67-2.79,8.3,8.3,0,0,1,.25-2c.84-3.3,2.83-5.21,5.94-5.69a2,2,0,0,1,.35,0,2.21,2.21,0,0,1,1.95,1.18,4.51,4.51,0,0,1,.6,2.37,5.43,5.43,0,0,1-.29,1.77h0a19.3,19.3,0,0,1-1.65,3.73,5.68,5.68,0,0,1-3.85,2.75A2.63,2.63,0,0,1,272.83,361Zm3.74-10.42h-.19c-2.49.39-4.05,1.9-4.74,4.62a7,7,0,0,0-.24,1.8,3.77,3.77,0,0,0,.42,1.92,1.14,1.14,0,0,0,1.29.63,4.33,4.33,0,0,0,2.94-2.18,19.23,19.23,0,0,0,1.44-3.36h0a4,4,0,0,0,.23-1.35,3,3,0,0,0-.36-1.55A.86.86,0,0,0,276.57,350.54Z"/><path class="cls-369" d="M285.26,350c.49.22.73.82.73,1.8a7.39,7.39,0,0,1-.49,2.53,8,8,0,0,1-1.44,2.53,17.23,17.23,0,0,1-2.49,2.42,8.92,8.92,0,0,1-1.82,1.19l-.16-.16v-6.79l-.28-.27.28-.31v-3.07H280v2.67c1.81-1.81,3.29-2.71,4.47-2.71A2,2,0,0,1,285.26,350Zm-.16.37a1.65,1.65,0,0,0-.7-.14c-1.1,0-2.57,1-4.43,2.89v6.8a14.58,14.58,0,0,0,3.77-3.32,8.45,8.45,0,0,0,1.43-2.45,6.71,6.71,0,0,0,.52-2.38C285.69,351,285.49,350.54,285.1,350.36Z"/><path class="cls-369" d="M279.64,361.06l-.55-.55v-6.79l-.47-.44.47-.54v-3.38h1.38v2c2-1.84,3.75-2.41,5-1.83q1,.46,1,2.25a7.85,7.85,0,0,1-.52,2.7,8.73,8.73,0,0,1-1.53,2.69,18.17,18.17,0,0,1-2.55,2.49,9.72,9.72,0,0,1-1.94,1.25Zm.83-7.75V359a15.67,15.67,0,0,0,2.89-2.73A7.83,7.83,0,0,0,284.7,354a6.21,6.21,0,0,0,.49-2.2c0-.51-.11-.86-.29-.94a1.21,1.21,0,0,0-.5-.1C283.76,350.72,282.57,351.17,280.47,353.31Z"/><path class="cls-369" d="M292.39,357.59l-.33.36v2.46h-.38V358.3a6.41,6.41,0,0,1-2.14,1.78,2.8,2.8,0,0,1-1.06.22,1.41,1.41,0,0,1-.91-.27,1,1,0,0,1-.35-.78v-9.46h.38v9.46c0,.46.29.68.86.68a2.47,2.47,0,0,0,.93-.21,4.93,4.93,0,0,0,1.33-1,7.27,7.27,0,0,0,1-1.1v-7.84h.38v7.29Z"/><path class="cls-369" d="M292.56,360.91h-1.38v-1.36a5.17,5.17,0,0,1-1.44,1,2.52,2.52,0,0,1-2.49-.12,1.44,1.44,0,0,1-.53-1.17v-10h1.38v10c0,.11,0,.18.36.18a1.82,1.82,0,0,0,.73-.17,4.27,4.27,0,0,0,1.18-.89,7.6,7.6,0,0,0,.81-.9v-8.18h1.38v7.64l.46.72-.46.5Z"/><path class="cls-369" d="M298.48,350.23l-3.23,1.69v8.42h-.39v-8.23l-2.21,1.16v-.43l2.21-1.15v-.92h.39v.72l3.24-1.7Z"/><polygon class="cls-369" points="295.75 360.85 294.36 360.85 294.36 352.94 292.15 354.1 292.16 352.54 294.36 351.39 294.36 350.27 295.75 350.27 295.75 350.66 298.99 348.97 298.98 350.53 295.75 352.23 295.75 360.85"/><path class="cls-369" d="M306.21,354.28a19.33,19.33,0,0,1-1.6,3.62,5.14,5.14,0,0,1-3.52,2.52,1.75,1.75,0,0,1-.4,0,1.92,1.92,0,0,1-1.71-1,4.87,4.87,0,0,1-.6-2.54,7.81,7.81,0,0,1,.24-1.91c.78-3.1,2.63-4.87,5.53-5.31l.27,0a1.71,1.71,0,0,1,1.52.94,3.94,3.94,0,0,1,.53,2.11A5,5,0,0,1,306.21,354.28Zm-.38-.13a4.64,4.64,0,0,0,.26-1.53,3.55,3.55,0,0,0-.42-1.8,1.4,1.4,0,0,0-1.24-.78l-.24,0q-4.06.63-5.18,5a8,8,0,0,0-.25,1.93,4.3,4.3,0,0,0,.49,2.17,1.59,1.59,0,0,0,1.44.9l.34,0a4.8,4.8,0,0,0,3.3-2.41A19.23,19.23,0,0,0,305.83,354.15Z"/><path class="cls-369" d="M300.69,361a2.43,2.43,0,0,1-2.14-1.3,5.29,5.29,0,0,1-.67-2.79,8.81,8.81,0,0,1,.25-2c.84-3.3,2.84-5.21,5.94-5.69a2.07,2.07,0,0,1,.35,0,2.21,2.21,0,0,1,1.95,1.18,4.51,4.51,0,0,1,.6,2.37,5.43,5.43,0,0,1-.29,1.77h0a19.3,19.3,0,0,1-1.65,3.73,5.68,5.68,0,0,1-3.85,2.75A2.63,2.63,0,0,1,300.69,361Zm3.74-10.42h-.19c-2.49.39-4.05,1.9-4.74,4.62a7,7,0,0,0-.24,1.8,3.77,3.77,0,0,0,.42,1.92,1.14,1.14,0,0,0,1.29.63,4.33,4.33,0,0,0,2.94-2.18,19.23,19.23,0,0,0,1.44-3.36h0a4,4,0,0,0,.23-1.35,3,3,0,0,0-.36-1.55A.86.86,0,0,0,304.43,350.54Z"/><path class="cls-369" d="M313.19,356.17a4.59,4.59,0,0,1-2.37,3.08,16.31,16.31,0,0,1-3.25,1.32v-.41a15.37,15.37,0,0,0,3-1.2,4.2,4.2,0,0,0,2.21-2.87,2.42,2.42,0,0,0,0-.45c0-.85-.61-1.27-1.84-1.27-.28,0-.71,0-1.29.07s-1,.07-1.22.07c-.77,0-1.16-.22-1.16-.66a1.52,1.52,0,0,1,.08-.43,5.17,5.17,0,0,1,1.82-2.57A4.6,4.6,0,0,1,312,350h.38v.4H312a4.32,4.32,0,0,0-4.22,3.19.57.57,0,0,0,0,.18c0,.27.27.4.82.4.2,0,.6,0,1.19-.08s1-.08,1.35-.08c1.44,0,2.16.53,2.16,1.57A3.79,3.79,0,0,1,313.19,356.17Z"/><path class="cls-369" d="M307.07,361.25v-1.46l.35-.11a15.52,15.52,0,0,0,2.91-1.16,3.67,3.67,0,0,0,2-2.52,2.28,2.28,0,0,0,0-.36c0-.25,0-.77-1.34-.77-.27,0-.69,0-1.25.07s-1,.07-1.26.07c-1.5,0-1.66-.81-1.66-1.16a1.91,1.91,0,0,1,.1-.58,5.7,5.7,0,0,1,2-2.82,5,5,0,0,1,3.5-1l.46,0v1.36H312a3.87,3.87,0,0,0-2.32.75,3.82,3.82,0,0,0-1.4,2,7.38,7.38,0,0,0,1.43-.06c.61-.05,1.07-.08,1.4-.08,2.31,0,2.66,1.3,2.66,2.07a3.86,3.86,0,0,1-.08.72,5.09,5.09,0,0,1-2.6,3.42,16.79,16.79,0,0,1-3.36,1.37Z"/><path class="cls-369" d="M315.9,358.74v1.54h-.38v-1.54Zm.2-1.9h-.38l-.07-7.1h.4Z"/><path class="cls-369" d="M316.4,360.78H315v-2.54h1.38Zm.2-3.44h-1.38l-.08-8.1h1.4Z"/><path class="cls-370" d="M71.28,101.38H36.88v8.41a148,148,0,0,0,17.2,1.1,159.26,159.26,0,0,0,17.2-1.1Z"/><path class="cls-370" d="M105.65,101.38H71.24v8.41a148.26,148.26,0,0,0,17.21,1.1,159.26,159.26,0,0,0,17.2-1.1Z"/><path class="cls-370" d="M140,101.38H105.61v8.41a148.26,148.26,0,0,0,17.21,1.1,159.5,159.5,0,0,0,17.2-1.1Z"/><path class="cls-370" d="M174.39,101.38H140v8.41a148.2,148.2,0,0,0,17.2,1.1,159.56,159.56,0,0,0,17.21-1.1Z"/><path class="cls-370" d="M208.76,101.38H174.35v8.41a148.2,148.2,0,0,0,17.2,1.1,159.56,159.56,0,0,0,17.21-1.1Z"/><path class="cls-370" d="M243.12,101.38h-34.4v8.41a148.2,148.2,0,0,0,17.2,1.1,159.26,159.26,0,0,0,17.2-1.1Z"/><path class="cls-370" d="M277.49,101.38h-34.4v8.41a148,148,0,0,0,17.2,1.1,159.26,159.26,0,0,0,17.2-1.1Z"/><path class="cls-370" d="M311.86,101.38h-34.4v8.41a148,148,0,0,0,17.2,1.1,159.26,159.26,0,0,0,17.2-1.1Z"/><rect class="cls-370" x="39.8" y="57.15" width="92.37" height="0.92" transform="matrix(0.32, -0.95, 0.95, 0.32, 3.99, 120.76)"/><rect class="cls-370" x="70.59" y="57.15" width="89.73" height="0.92" transform="translate(33.99 157.66) rotate(-77.36)"/><rect class="cls-370" x="100.88" y="57.15" width="88.1" height="0.92" transform="translate(71.28 195.08) rotate(-83.5)"/><rect class="cls-370" x="130.63" y="57.15" width="87.54" height="0.92" transform="translate(116.45 231.89) rotate(-89.89)"/><rect class="cls-370" x="203.41" y="13.57" width="0.92" height="88.07" transform="translate(-5.1 22.79) rotate(-6.32)"/><rect class="cls-370" x="232.88" y="12.77" width="0.92" height="89.68" transform="translate(-6.94 52.08) rotate(-12.55)"/><rect class="cls-370" x="262.35" y="11.45" width="0.92" height="92.31" transform="translate(-4.7 86.35) rotate(-18.5)"/><g class="cls-371"><rect class="cls-372" x="34" y="392.16" width="1.08" height="67.15"/><rect class="cls-372" x="35.08" y="392.16" width="2.71" height="67.15"/><rect class="cls-372" x="37.79" y="392.16" width="2.71" height="67.15"/><rect class="cls-372" x="40.5" y="392.16" width="2.71" height="67.15"/><rect class="cls-372" x="43.21" y="392.16" width="2.71" height="67.15"/><rect class="cls-372" x="45.92" y="392.16" width="2.71" height="67.15"/><rect class="cls-372" x="48.63" y="392.16" width="2.71" height="67.15"/><rect class="cls-372" x="51.34" y="392.16" width="2.71" height="67.15"/><rect class="cls-372" x="54.05" y="392.16" width="2.71" height="67.15"/><rect class="cls-372" x="56.76" y="392.16" width="2.71" height="67.15"/><rect class="cls-372" x="59.48" y="392.16" width="2.71" height="67.15"/><rect class="cls-372" x="62.19" y="392.16" width="2.71" height="67.15"/><rect class="cls-373" x="64.9" y="392.16" width="2.71" height="67.15"/><rect class="cls-374" x="67.61" y="392.16" width="2.71" height="67.15"/><rect class="cls-374" x="70.32" y="392.16" width="2.71" height="67.15"/><rect class="cls-374" x="73.03" y="392.16" width="2.71" height="67.15"/><rect class="cls-375" x="75.74" y="392.16" width="2.71" height="67.15"/><rect class="cls-375" x="78.45" y="392.16" width="2.71" height="67.15"/><rect class="cls-376" x="81.16" y="392.16" width="2.71" height="67.15"/><rect class="cls-377" x="83.87" y="392.16" width="2.71" height="67.15"/><rect class="cls-377" x="86.58" y="392.16" width="2.71" height="67.15"/><rect class="cls-377" x="89.29" y="392.16" width="2.71" height="67.15"/><rect class="cls-378" x="92" y="392.16" width="2.71" height="67.15"/><rect class="cls-379" x="94.71" y="392.16" width="2.71" height="67.15"/><rect class="cls-380" x="97.42" y="392.16" width="2.71" height="67.15"/><rect class="cls-381" x="100.13" y="392.16" width="2.71" height="67.15"/><rect class="cls-382" x="102.84" y="392.16" width="2.71" height="67.15"/><rect class="cls-382" x="105.55" y="392.16" width="2.71" height="67.15"/><rect class="cls-383" x="108.26" y="392.16" width="2.71" height="67.15"/><rect class="cls-383" x="110.97" y="392.16" width="2.71" height="67.15"/><rect class="cls-384" x="113.68" y="392.16" width="2.71" height="67.15"/><rect class="cls-385" x="116.39" y="392.16" width="2.71" height="67.15"/><rect class="cls-386" x="119.1" y="392.16" width="2.71" height="67.15"/><rect class="cls-387" x="121.81" y="392.16" width="2.71" height="67.15"/><rect class="cls-388" x="124.52" y="392.16" width="2.71" height="67.15"/><rect class="cls-389" x="127.23" y="392.16" width="2.71" height="67.15"/><rect class="cls-390" x="129.94" y="392.16" width="2.71" height="67.15"/><rect class="cls-391" x="132.65" y="392.16" width="2.71" height="67.15"/><rect class="cls-392" x="135.36" y="392.16" width="2.71" height="67.15"/><rect class="cls-393" x="138.07" y="392.16" width="2.71" height="67.15"/><rect class="cls-394" x="140.78" y="392.16" width="2.71" height="67.15"/><rect class="cls-395" x="143.49" y="392.16" width="2.71" height="67.15"/><rect class="cls-396" x="146.2" y="392.16" width="2.71" height="67.15"/><rect class="cls-397" x="148.91" y="392.16" width="2.71" height="67.15"/><rect class="cls-398" x="151.62" y="392.16" width="2.71" height="67.15"/><rect class="cls-399" x="154.33" y="392.16" width="2.71" height="67.15"/><rect class="cls-400" x="157.04" y="392.16" width="2.71" height="67.15"/><rect class="cls-401" x="159.75" y="392.16" width="2.71" height="67.15"/><rect class="cls-402" x="162.46" y="392.16" width="2.71" height="67.15"/><rect class="cls-403" x="165.17" y="392.16" width="2.71" height="67.15"/><rect class="cls-404" x="167.88" y="392.16" width="2.71" height="67.15"/><rect class="cls-405" x="170.59" y="392.16" width="2.71" height="67.15"/><rect class="cls-406" x="173.3" y="392.16" width="2.71" height="67.15"/><rect class="cls-407" x="176.01" y="392.16" width="2.71" height="67.15"/><rect class="cls-408" x="178.72" y="392.16" width="2.71" height="67.15"/><rect class="cls-409" x="181.43" y="392.16" width="2.71" height="67.15"/><rect class="cls-410" x="184.14" y="392.16" width="2.71" height="67.15"/><rect class="cls-411" x="186.85" y="392.16" width="2.71" height="67.15"/><rect class="cls-412" x="189.56" y="392.16" width="2.71" height="67.15"/><rect class="cls-413" x="192.27" y="392.16" width="2.71" height="67.15"/><rect class="cls-414" x="194.98" y="392.16" width="2.71" height="67.15"/><rect class="cls-415" x="197.69" y="392.16" width="2.71" height="67.15"/><rect class="cls-416" x="200.4" y="392.16" width="2.71" height="67.15"/><rect class="cls-417" x="203.11" y="392.16" width="2.71" height="67.15"/><rect class="cls-418" x="205.82" y="392.16" width="2.71" height="67.15"/><rect class="cls-419" x="208.54" y="392.16" width="2.71" height="67.15"/><rect class="cls-420" x="211.25" y="392.16" width="2.71" height="67.15"/><rect class="cls-421" x="213.96" y="392.16" width="2.71" height="67.15"/><rect class="cls-422" x="216.67" y="392.16" width="2.71" height="67.15"/><rect class="cls-423" x="219.38" y="392.16" width="2.71" height="67.15"/><rect class="cls-424" x="222.09" y="392.16" width="2.71" height="67.15"/><rect class="cls-425" x="224.8" y="392.16" width="2.71" height="67.15"/><rect class="cls-425" x="227.51" y="392.16" width="0.41" height="67.15"/></g><path class="cls-426" d="M191.38,423.67c13.65.89,27.43,1.77,40.93-.43,1.7-.28,3.85-1.19,3.64-2.9-.15-1.28-1.58-1.93-2.82-2.32a90.67,90.67,0,0,0-43.92-2.5,6.86,6.86,0,0,0-3.75,1.59c-1.89,1.95-.27,5.9,2.44,6Z"/><path class="cls-426" d="M92.27,428c10.36.67,20.83,1.34,31.08-.33,1.29-.21,2.93-.9,2.77-2.2-.12-1-1.21-1.47-2.14-1.76a68.83,68.83,0,0,0-33.36-1.9A5.24,5.24,0,0,0,87.77,423a2.82,2.82,0,0,0,1.85,4.53Z"/><path class="cls-426" d="M65.35,397.68c10.36.67,20.83,1.34,31.08-.33,1.29-.21,2.93-.9,2.77-2.2-.12-1-1.21-1.47-2.14-1.76a68.83,68.83,0,0,0-33.36-1.9,5.17,5.17,0,0,0-2.85,1.21,2.82,2.82,0,0,0,1.85,4.53Z"/><path class="cls-427" d="M72.66,382.14s22-21.68,19.66-65.49c0,0-21,24.87-22.77,49.61,0,0-4.69-25.18-19.48-29.45Z"/><path class="cls-427" d="M338.9,406.69l17.52-40.13S323.91,372.57,338.9,406.69Z"/><path class="cls-427" d="M338.9,406.69s3.46-23.15-29.53-27.62Z"/><path class="cls-427" d="M338.27,400.79s12.37-27.92-7-43.43C331.28,357.36,318.81,376.53,338.27,400.79Z"/><g class="cls-428"><path class="cls-429" d="M365,451.48H0V0H365ZM5.76,445.72H359.22V5.76H5.76Z"/></g></g></g></svg>