<svg xmlns="http://www.w3.org/2000/svg" xmlns:xlink="http://www.w3.org/1999/xlink" viewBox="0 0 1124.64 651.26"><defs><style>.cls-1{fill:none;}.cls-2{fill:#dd7a7a;}.cls-3{fill:#c6b366;}.cls-4{clip-path:url(#clip-path);}.cls-5{fill:#fff3c2;}.cls-6{fill:#fff3c3;}.cls-7{fill:#fff3c4;}.cls-8{fill:#fff4c5;}.cls-9{fill:#fff4c6;}.cls-10{fill:#fff4c7;}.cls-11{fill:#fff4c8;}.cls-12{fill:#fff4c9;}.cls-13{fill:#fff5ca;}.cls-14{fill:#fff5cb;}.cls-15{fill:#fff5cc;}.cls-16{fill:#fff5cd;}.cls-17{fill:#fff5ce;}.cls-18{fill:#fff6cf;}.cls-19{fill:#fff6d0;}.cls-20{fill:#fff6d1;}.cls-21{fill:#fff6d2;}.cls-22{fill:#fff6d3;}.cls-23{fill:#fff7d4;}.cls-24{fill:#fff7d5;}.cls-25{fill:#fff7d6;}.cls-26{fill:#fff7d7;}.cls-27{fill:#fff7d8;}.cls-28{fill:#fff8d9;}.cls-29{fill:#fff8da;}.cls-30{fill:#fff8db;}.cls-31{fill:#fff8dc;}.cls-32{fill:#fff8dd;}.cls-33{fill:#fff9de;}.cls-34{fill:#fff9df;}.cls-35{fill:#fff9e0;}.cls-36{fill:#fff9e2;}.cls-37{fill:#fff9e3;}.cls-38{fill:#fffae4;}.cls-39{fill:#fffae5;}.cls-40{fill:#fffae6;}.cls-41{fill:#fffae7;}.cls-42{fill:#fffae8;}.cls-43{fill:#fffbe9;}.cls-44{fill:#fffbea;}.cls-45{fill:#fffbeb;}.cls-46{fill:#fffbec;}.cls-47{fill:#fffbed;}.cls-48{fill:#fffcee;}.cls-49{fill:#fffcef;}.cls-50{fill:#fffcf0;}.cls-51{fill:#fffcf1;}.cls-52{fill:#fffcf2;}.cls-53{fill:#fffdf3;}.cls-54{fill:#fffdf4;}.cls-55{fill:#fffdf5;}.cls-56{fill:#fffdf6;}.cls-57{fill:#fffdf7;}.cls-58{fill:#fffef8;}.cls-59{fill:#fffef9;}.cls-60{fill:#fffefa;}.cls-61{fill:#fffefb;}.cls-62{fill:#fffefc;}.cls-63{fill:#fffffd;}.cls-64{fill:#fffffe;}.cls-65{fill:#fff;}.cls-66{fill:#ffeda1;}.cls-67{clip-path:url(#clip-path-2);}.cls-68{fill:#fffdfd;}.cls-69{fill:#3a1e1c;}.cls-70{clip-path:url(#clip-path-3);}.cls-71{fill:#d88268;}.cls-72{fill:#d98369;}.cls-73{fill:#da8469;}.cls-74{fill:#db856a;}.cls-75{fill:#dc866b;}.cls-76{fill:#dd876b;}.cls-77{fill:#de886c;}.cls-78{fill:#df896d;}.cls-79{fill:#e08a6d;}.cls-80{fill:#e18b6e;}.cls-81{fill:#e28c6f;}.cls-82{fill:#e48d70;}.cls-83{fill:#e58d70;}.cls-84{fill:#e68e71;}.cls-85{fill:#e78f72;}.cls-86{fill:#e89072;}.cls-87{fill:#e99173;}.cls-88{fill:#ea9274;}.cls-89{fill:#eb9374;}.cls-90{fill:#ec9475;}.cls-91{fill:#ed9576;}.cls-92{fill:#ee9676;}.cls-93{fill:#ef9777;}.cls-94{fill:#3d201f;}.cls-95{fill:#b5574d;}.cls-96{fill:#b3514e;}.cls-97{fill:#312235;}.cls-98{fill:#fc999c;}.cls-99{fill:#f9aaaa;}.cls-100{fill:#822222;}.cls-101{fill:#9b3737;}.cls-102{fill:#5b1f3c;}</style><clipPath id="clip-path"><path class="cls-1" d="M428.87,402.79a192.51,192.51,0,0,0-5.05-43.86c-32.69-73-109.23-124.15-198.45-124.15C106.43,234.78,10,325.78,10,438a193.16,193.16,0,0,0,5,43.87C47.74,554.84,124.28,606,213.5,606,332.44,606,428.87,515,428.87,402.79Z"/></clipPath><clipPath id="clip-path-2"><path class="cls-1" d="M541.11,351.64c-10.3-18-97.34-31.5-97.34-31.5S301.45,131.38,232.44,137.81s-80.25,56.58-80.25,56.58l-32.63,66.55C54.29,295.86,10.25,362,10.25,437.86c0,112.25,96.43,203.24,215.37,203.24,117.57,0,213.12-88.9,215.32-199.35C473.29,419.44,549.06,365.51,541.11,351.64Z"/></clipPath><clipPath id="clip-path-3"><path class="cls-1" d="M227.93,321.46l-2.36,9.79s-19.92,12.89-37.91,11.87c-5.34-.31,67.76,42.79,71.74,42.94s34.38-50.15,34.38-50.15-20.41-3.74-27.17-4-14.47-18.28-14.47-18.28Z"/></clipPath></defs><title>M1-fala1</title><g id="Camada_5" data-name="Camada 5"><path class="cls-2" d="M225.37,234.78c119,0,215.37,91,215.37,203.24S344.32,641.26,225.37,641.26,10,550.27,10,438s96.42-203.24,215.37-203.24m0-10a235.1,235.1,0,0,0-87.54,16.69A225.72,225.72,0,0,0,66.22,287,212.37,212.37,0,0,0,17.8,354.82a203.34,203.34,0,0,0,0,166.4A212.3,212.3,0,0,0,66.22,589a225.89,225.89,0,0,0,71.61,45.57,238.05,238.05,0,0,0,175.08,0A225.94,225.94,0,0,0,384.53,589a212.12,212.12,0,0,0,48.41-67.79,203.34,203.34,0,0,0,0-166.4A212.19,212.19,0,0,0,384.53,287a225.76,225.76,0,0,0-71.62-45.57,235.1,235.1,0,0,0-87.54-16.69Z"/><ellipse class="cls-3" cx="225.37" cy="438.02" rx="215.37" ry="203.24"/><g class="cls-4"><rect class="cls-5" x="10" y="234.78" width="418.87" height="371.24"/><path class="cls-5" d="M206.79,475.71a120.37,120.37,0,1,1,167,33A120.37,120.37,0,0,1,206.79,475.71Z"/><path class="cls-6" d="M208.43,474.61a118.4,118.4,0,1,1,164.26,32.46A118.39,118.39,0,0,1,208.43,474.61Z"/><path class="cls-7" d="M210.07,473.51a116.43,116.43,0,1,1,161.52,31.92A116.42,116.42,0,0,1,210.07,473.51Z"/><path class="cls-8" d="M211.71,472.41A114.45,114.45,0,1,1,370.5,503.79,114.44,114.44,0,0,1,211.71,472.41Z"/><circle class="cls-9" cx="306.79" cy="408.71" r="112.48"/><circle class="cls-10" cx="306.79" cy="408.71" r="110.5"/><circle class="cls-11" cx="306.79" cy="408.71" r="108.53"/><circle class="cls-12" cx="306.79" cy="408.71" r="106.56"/><circle class="cls-13" cx="306.79" cy="408.71" r="104.58"/><circle class="cls-14" cx="306.79" cy="408.71" r="102.61"/><circle class="cls-15" cx="306.79" cy="408.71" r="100.64"/><circle class="cls-16" cx="306.79" cy="408.71" r="98.66"/><circle class="cls-17" cx="306.79" cy="408.71" r="96.69"/><circle class="cls-18" cx="306.79" cy="408.71" r="94.72"/><circle class="cls-19" cx="306.79" cy="408.71" r="92.74"/><circle class="cls-20" cx="306.79" cy="408.71" r="90.77"/><circle class="cls-21" cx="306.79" cy="408.71" r="88.8"/><circle class="cls-22" cx="306.79" cy="408.71" r="86.82"/><circle class="cls-23" cx="306.79" cy="408.71" r="84.85"/><circle class="cls-24" cx="306.79" cy="408.71" r="82.88"/><circle class="cls-25" cx="306.79" cy="408.71" r="80.9"/><circle class="cls-26" cx="306.79" cy="408.71" r="78.93"/><circle class="cls-27" cx="306.79" cy="408.71" r="76.96"/><circle class="cls-28" cx="306.79" cy="408.71" r="74.98"/><circle class="cls-29" cx="306.79" cy="408.71" r="73.01"/><circle class="cls-30" cx="306.79" cy="408.71" r="71.04"/><circle class="cls-31" cx="306.79" cy="408.71" r="69.06"/><circle class="cls-32" cx="306.79" cy="408.71" r="67.09"/><circle class="cls-33" cx="306.79" cy="408.71" r="65.12"/><circle class="cls-34" cx="306.79" cy="408.71" r="63.15"/><circle class="cls-35" cx="306.79" cy="408.71" r="61.17"/><circle class="cls-36" cx="306.79" cy="408.71" r="59.2"/><circle class="cls-37" cx="306.79" cy="408.71" r="57.23"/><circle class="cls-38" cx="306.79" cy="408.71" r="55.25"/><circle class="cls-39" cx="306.79" cy="408.71" r="53.28"/><circle class="cls-40" cx="306.79" cy="408.71" r="51.31"/><circle class="cls-41" cx="306.79" cy="408.71" r="49.33"/><circle class="cls-42" cx="306.79" cy="408.71" r="47.36"/><circle class="cls-43" cx="306.79" cy="408.71" r="45.39"/><circle class="cls-44" cx="306.79" cy="408.71" r="43.41"/><circle class="cls-45" cx="306.79" cy="408.71" r="41.44"/><circle class="cls-46" cx="306.79" cy="408.71" r="39.47"/><circle class="cls-47" cx="306.79" cy="408.71" r="37.49"/><circle class="cls-48" cx="306.79" cy="408.71" r="35.52"/><circle class="cls-49" cx="306.79" cy="408.71" r="33.55"/><circle class="cls-50" cx="306.79" cy="408.71" r="31.57"/><circle class="cls-51" cx="306.79" cy="408.71" r="29.6"/><circle class="cls-52" cx="306.79" cy="408.71" r="27.63"/><circle class="cls-53" cx="306.79" cy="408.71" r="25.65"/><circle class="cls-54" cx="306.79" cy="408.71" r="23.68"/><circle class="cls-55" cx="306.79" cy="408.71" r="21.71"/><circle class="cls-56" cx="306.79" cy="408.71" r="19.73"/><circle class="cls-57" cx="306.79" cy="408.71" r="17.76"/><circle class="cls-58" cx="306.79" cy="408.71" r="15.79"/><circle class="cls-59" cx="306.79" cy="408.71" r="13.81"/><circle class="cls-60" cx="306.79" cy="408.71" r="11.84"/><circle class="cls-61" cx="306.79" cy="408.71" r="9.87"/><circle class="cls-62" cx="306.79" cy="408.71" r="7.89"/><circle class="cls-63" cx="306.79" cy="408.71" r="5.92"/><circle class="cls-64" cx="306.79" cy="408.71" r="3.95"/><circle class="cls-65" cx="306.79" cy="408.71" r="1.97"/></g><path class="cls-3" d="M787.8,44.22c-174.89,0-318.64,118.13-335.23,269.27L353,353.14s-6.51,2.41-5.85,11.74a12.7,12.7,0,0,0,7.43,10.89L458.82,407C492,541,626.68,641.26,787.8,641.26c186,0,336.84-133.65,336.84-298.52S973.83,44.22,787.8,44.22Z"/><path class="cls-66" d="M787.75,0C612.85,0,469.11,118.13,452.52,269.27L353,308.92s-6.51,2.41-5.86,11.74a12.7,12.7,0,0,0,7.44,10.88l104.21,31.28C492,496.78,626.63,597,787.75,597c186,0,336.84-133.65,336.84-298.52S973.78,0,787.75,0Z"/><g class="cls-67"><path class="cls-68" d="M329.94,510.18s.78-10,4.41-10.57l24.22,31.55-9.37,5.44Z"/><path class="cls-65" d="M153.53,566.53s24.48-21.86,24.48-27-14.35-8.34-14.35-8.34l-20.41,29.5,9.58,7.33Z"/><path class="cls-69" d="M176.44,360.74s-46.9-131.84,7.44-198.9c0,0,58.11-39.81,101.53,7s13,178.54,13,178.54Z"/><g class="cls-70"><polygon class="cls-71" points="293.71 313.64 293.74 313.95 182.31 324.32 182.31 313.64 293.71 313.64"/><polygon class="cls-71" points="293.74 313.95 293.78 314.33 293.78 314.76 182.31 325.13 182.31 324.32 293.74 313.95"/><polygon class="cls-72" points="293.78 315.57 182.31 325.95 182.31 325.13 293.78 314.76 293.78 315.57"/><polygon class="cls-73" points="293.78 316.39 182.31 326.76 182.31 325.95 293.78 315.57 293.78 316.39"/><polygon class="cls-74" points="293.78 317.2 182.31 327.57 182.31 326.76 293.78 316.39 293.78 317.2"/><polygon class="cls-75" points="293.78 318.01 182.31 328.39 182.31 327.57 293.78 317.2 293.78 318.01"/><polygon class="cls-76" points="293.78 318.83 182.31 329.2 182.31 328.39 293.78 318.01 293.78 318.83"/><polygon class="cls-77" points="293.78 319.64 182.31 330.01 182.31 329.2 293.78 318.83 293.78 319.64"/><polygon class="cls-78" points="293.78 320.45 182.31 330.83 182.31 330.01 293.78 319.64 293.78 320.45"/><polygon class="cls-79" points="293.78 321.27 182.31 331.64 182.31 330.83 293.78 320.45 293.78 321.27"/><polygon class="cls-80" points="293.78 322.08 182.31 332.45 182.31 331.64 293.78 321.27 293.78 322.08"/><polygon class="cls-81" points="293.78 322.89 182.31 333.27 182.31 332.45 293.78 322.08 293.78 322.89"/><polygon class="cls-82" points="293.78 323.71 182.31 334.08 182.31 333.27 293.78 322.89 293.78 323.71"/><polygon class="cls-83" points="293.78 324.52 182.31 334.89 182.31 334.08 293.78 323.71 293.78 324.52"/><polygon class="cls-84" points="293.78 325.33 182.31 335.71 182.31 334.89 293.78 324.52 293.78 325.33"/><polygon class="cls-85" points="293.78 326.14 182.31 336.52 182.31 335.71 293.78 325.33 293.78 326.14"/><polygon class="cls-86" points="293.78 326.96 182.31 337.33 182.31 336.52 293.78 326.14 293.78 326.96"/><polygon class="cls-87" points="293.78 327.77 182.31 338.14 182.31 337.33 293.78 326.96 293.78 327.77"/><polygon class="cls-88" points="293.78 328.58 182.31 338.96 182.31 338.14 293.78 327.77 293.78 328.58"/><polygon class="cls-89" points="293.78 329.4 182.31 339.77 182.31 338.96 293.78 328.58 293.78 329.4"/><polygon class="cls-90" points="293.78 330.21 182.31 340.58 182.31 339.77 293.78 329.4 293.78 330.21"/><polygon class="cls-91" points="293.78 331.02 182.31 341.4 182.31 340.58 293.78 330.21 293.78 331.02"/><polygon class="cls-92" points="293.78 331.84 182.31 342.21 182.31 341.4 293.78 331.02 293.78 331.84"/><polygon class="cls-93" points="293.78 332.65 182.31 343.02 182.31 342.21 293.78 331.84 293.78 332.65"/><polygon class="cls-93" points="184.35 386.21 182.31 364.39 182.31 343.02 293.78 332.65 293.78 386.21 184.35 386.21"/></g><path class="cls-93" d="M182.6,222.54s-.88,110.78,64.76,101.68c35.49-4.92,47.51-40.41,40.88-70.91a191.62,191.62,0,0,1-3.79-46.77s-4.08-29.37-38.7-20.3S196.11,192,196.11,192,180.54,195.13,182.6,222.54Z"/><path class="cls-69" d="M177.07,228.73s25.09-2.78,36.43-7.67l.58-15.4s2.55,9.93,4.85,12.41,22.88-.74,32-3.59,4.81-14.7,4.81-14.7l4.34,11.86s28.57,3.44,28.73-.93S285,186,276.62,182s-73.88-4.43-83.08,4.1S177.53,216.52,177.07,228.73Z"/><ellipse class="cls-94" cx="262.95" cy="244.39" rx="3.92" ry="3.17" transform="matrix(1, -0.1, 0.1, 1, -22.42, 26.6)"/><ellipse class="cls-94" cx="223.88" cy="248.1" rx="3.92" ry="3.17" transform="translate(-22.97 22.84) rotate(-5.56)"/><path class="cls-95" d="M250.55,278.83a15.34,15.34,0,0,1-5.17-.8l.35-.94c5.16,1.92,13.88,0,15.56-3.33,1.13-2.28-1.44-4.53-3.78-6-6.89-4.38-5.32-8.93-5.25-9.13l.94.35c0,.16-1.33,4,4.84,7.94,4.88,3.1,4.95,5.69,4.14,7.31C260.72,277.15,255.37,278.83,250.55,278.83Z"/><path class="cls-96" d="M262,289.89c-18.37,4.75-31.32.71-30.6,2,0,0-.78,13.73,15.42,13.63C263.55,305.45,262,289.89,262,289.89Z"/><path class="cls-65" d="M219.38,333.59s22.52,13.65,36.94,11.8c6.84-.87,18.95-14,18.95-14l13,129.74-49.8,2.24Z"/><path class="cls-97" d="M172.66,557.55S155.05,630.13,157,650s4.68,52.17,34,146c0,0,78.26,32.38,150.2-.81,0,0,6.29-1.86,10.91-43.81s12.42-142.59-8.72-187.47S172.66,557.55,172.66,557.55Z"/><path class="cls-69" d="M270.81,230.55s-4.74-6.21-9.75-3.11a.89.89,0,0,0-.58,1.12c.25.84,1.91-1.63,9.83,2.73C270.31,231.29,270.81,231.58,270.81,230.55Z"/><path class="cls-69" d="M213.93,234s4.75-6.2,9.75-3.1a.89.89,0,0,1,.58,1.12c-.25.83-1.91-1.64-9.83,2.73C214.43,234.73,213.93,235,213.93,234Z"/><path class="cls-65" d="M259.62,290.44s-.65,3.21-2,4.12-15.59,1.66-24.11,1c-2.87-.24-2.32-2.92-2.18-3.89C231.35,291.63,246.09,293.49,259.62,290.44Z"/><path class="cls-98" d="M251.34,305.09s-1.86-9.5-19.13-7C232.21,298.13,235.94,307.82,251.34,305.09Z"/><ellipse class="cls-99" cx="281.01" cy="254.61" rx="3.62" ry="6.23" transform="translate(3.96 513.52) rotate(-85.24)"/><ellipse class="cls-99" cx="214.79" cy="263.85" rx="6.23" ry="3.62" transform="translate(-52.96 53.94) rotate(-12.76)"/><path class="cls-100" d="M334.61,435.84,357,461.35s-6.12,9.16-12,18.65c-6.27,10.12-15.54,20.35-13.57,20.57,4,.44,26.78,31.77,26.78,31.77l28-38s21.11-33.38,20.75-37-18.37-28.47-24.44-34.21c-3.74-3.54-9.95-8.73-15.17-16.12-29.22-41.32-56.53-70.82-58.39-72.35s-11-6.17-14.23-4.64-19.19,1.4-19.19,1.4l2.64,115.37L219.63,333.58s-12.56,4.34-26.08,2.61-36.24,3.62-36.24,3.62-10.24,27.71-17.55,29.81-11,20.26-11,20.26c-2.17,2.65-10.18,14.08-19.61,27.71h0s-37.48,45.94-43,49.92S63.56,481,63.56,481l78.84,83.79,27.83-35.52c-7.13-.49-43.13-49.77-43.13-49.77,2.53-4.53,2.3-8.25,1.56-10.71,17.3-18.49,42.63-47.19,42.63-47.19.41,4.07,6.47,16.8,16.93,32.52s9.69,42.14,9.69,42.14c-14.94,21.68-25,61.34-25,61.34s1,7.93,26.28,20.55c11,5.5,46.51,16.31,46.51,16.31l39.46-43.29,50.78,35.64s9.12-9.12,8.21-18.27S325.71,505,325.71,505s-1.89-19,.27-24.66S334.61,435.84,334.61,435.84Z"/><path class="cls-71" d="M153.53,566.53s12.2,10.71,14.67,8.24l12.43-35.2S165.06,550.81,153.53,566.53Z"/><path class="cls-93" d="M170.88,567.7s5.9-5.86,14.86,2.8,9.68,9.26,9.68,9.26,7,2.88,7.52-4.62c0,0,8.8,1.29,6.83-8.4,0,0,6.13-4.42.7-12,0,0,5.51-1.05,2.24-11.46s-24-20.47-24-20.47-9.94-3.49-10.82,8.08c0,0-7.16.37-4.66,10.37,0,0-4.65,4.21-3.65,8.77s-.11,3.67-.11,3.67S162.79,561.13,170.88,567.7Z"/><path class="cls-95" d="M202.56,575.46c-.11-.13-11.87-13.67-24.48-19.79l.44-.9c12.79,6.21,24.68,19.9,24.8,20Z"/><path class="cls-95" d="M209.42,567.1c-.17-.16-17.14-16.09-29.48-22.74l.48-.88c12.45,6.71,29.52,22.74,29.69,22.9Z"/><path class="cls-95" d="M210.09,555c-.15-.17-15.21-17.9-27.55-21.75l.3-1c12.61,4,27.39,21.33,28,22.07Z"/><path class="cls-93" d="M347.86,556.51l-16.17,4.75s-6.95,2.88-7.52-4.62c0,0-8.8,1.29-6.82-8.4,0,0-6.14-4.42-.71-12,0,0-5.51-1.05-2.24-11.46s15.67-13.15,15.67-13.15,9.94-3.49,10.82,8.07c0,0,7.16.38,4.66,10.37,0,0,4.65,4.21,3.65,8.78s.11,3.66.11,3.66S356,549.94,347.86,556.51Z"/><path class="cls-95" d="M324.44,557.06l-.54-.84A275.78,275.78,0,0,1,349.09,542l.44.9A276.26,276.26,0,0,0,324.44,557.06Z"/><path class="cls-95" d="M317.64,548.64l-.59-.8c.16-.12,15.84-11.55,28.27-18.25l.47.88C333.42,537.14,317.8,548.53,317.64,548.64Z"/><path class="cls-95" d="M317.07,536.46l-.86-.51c.09-.16,9.39-15.38,24.63-16.79l.09,1C326.2,521.52,317.16,536.31,317.07,536.46Z"/><path class="cls-101" d="M219.38,333.59S195.23,345.24,182.15,365l44.38,12.67s-15.11,14.85-14.79,18.07,66.17,51,66.17,51,33.54-61.51,29.81-64.56-24.29-6.81-24.29-6.81,19.48-27.6,22.87-27.94-28-16.36-31-16.06,2.52,110.28,2.52,110.28l-.15,2.38Z"/><path class="cls-97" d="M277.91,446.79s9.26,81.81,7,104.33"/><circle class="cls-101" cx="291.65" cy="471.48" r="5.33"/><circle class="cls-101" cx="293.78" cy="509.48" r="5.33"/><path class="cls-102" d="M173.81,404.74l-1-.23a76.63,76.63,0,0,0-11.55-60.86l.82-.57A77.66,77.66,0,0,1,173.81,404.74Z"/><path class="cls-102" d="M329.09,406.93l-1-.09c1.1-12.29-3.36-24.57-7.3-35.4-4.66-12.82-10-27.35-20.07-37.88l.72-.7c10.27,10.69,15.59,25.32,20.29,38.23C325.7,382,330.21,394.42,329.09,406.93Z"/><path class="cls-102" d="M146.32,377a27.46,27.46,0,0,0-3.49-7l.82-.57a28.62,28.62,0,0,1,3.62,7.2Z"/><path class="cls-102" d="M136,392.63a35.43,35.43,0,0,0-6.08-.83l0-1a35.48,35.48,0,0,1,6.25.86Z"/><path class="cls-102" d="M334.44,441l-1-.12a73,73,0,0,0,.43-11.92l1-.05A75.14,75.14,0,0,1,334.44,441Z"/><path class="cls-102" d="M355.5,460.4l-.14-1a76.2,76.2,0,0,1,12.07-.73l0,1A73,73,0,0,0,355.5,460.4Z"/><path class="cls-102" d="M365,468.05a59.33,59.33,0,0,0-8.69-6.35l.51-.86a61.54,61.54,0,0,1,8.84,6.45Z"/><path class="cls-102" d="M200.41,496.57l-.52-.85a60,60,0,0,1,11.6-5.55l.33.94A59.49,59.49,0,0,0,200.41,496.57Z"/><path class="cls-102" d="M127.77,469.24c-2.32,0-10-.2-12.54-2.74l.7-.71c2.66,2.65,12.37,2.44,12.47,2.45l0,1Z"/><path class="cls-102" d="M118.83,482.89v-1c3.43,0,7.7-2.82,7.74-2.85l.56.83C126.94,480,122.56,482.89,118.83,482.89Z"/></g><path d="M627.94,228.46h-2.71l-.72-4a7.56,7.56,0,0,0-2.31-1.5,8.08,8.08,0,0,0-3.26-.59,8,8,0,0,0-6.82,3.21,13.38,13.38,0,0,0-2.38,8.16v.45a13.59,13.59,0,0,0,2.34,8.17,7.54,7.54,0,0,0,6.47,3.23,9.89,9.89,0,0,0,3.52-.6,6.87,6.87,0,0,0,2.44-1.49l.72-4h2.71v5.06a10.74,10.74,0,0,1-3.69,2.82,12.46,12.46,0,0,1-5.7,1.24,11.51,11.51,0,0,1-9.1-4.1,15.19,15.19,0,0,1-3.56-10.31v-.41a15.39,15.39,0,0,1,3.5-10.35,11.48,11.48,0,0,1,9.16-4.09,12.34,12.34,0,0,1,5.7,1.26,11,11,0,0,1,3.69,2.82Z"/><path d="M645.84,248.17c-.12-.57-.21-1.09-.28-1.54s-.11-.91-.13-1.37a9.33,9.33,0,0,1-2.79,2.37,8,8,0,0,1-8.58-.66,5.92,5.92,0,0,1-1.72-4.54,5.26,5.26,0,0,1,2.43-4.64,11.84,11.84,0,0,1,6.67-1.63h4V233.7a3.78,3.78,0,0,0-1.18-2.94,4.57,4.57,0,0,0-3.26-1.09,8.25,8.25,0,0,0-2.55.37,4.79,4.79,0,0,0-1.78,1l-.41,2.23h-3v-4.1a11.34,11.34,0,0,1,3.49-1.85,13.9,13.9,0,0,1,4.46-.69,8.89,8.89,0,0,1,5.82,1.83,6.45,6.45,0,0,1,2.22,5.26v10.17c0,.28,0,.54,0,.8s0,.52,0,.78l1.56.22v2.46Zm-6.2-2.81a6.85,6.85,0,0,0,3.5-.92,5.76,5.76,0,0,0,2.27-2.21v-3.47H641.3a5.86,5.86,0,0,0-3.74,1.09,3.3,3.3,0,0,0-1.37,2.66,2.58,2.58,0,0,0,.86,2.11A3.89,3.89,0,0,0,639.64,245.36Z"/><path d="M654.08,229.52V227h6.62l.37,3.06a7.47,7.47,0,0,1,2.22-2.54,5.14,5.14,0,0,1,3-.91,7.5,7.5,0,0,1,.93.06,6,6,0,0,1,.73.15l-.5,3.58-2.19-.12a4.44,4.44,0,0,0-2.56.71,4.65,4.65,0,0,0-1.6,2v12.13l3.18.55v2.46H654.08v-2.46l3.18-.55v-15.1Z"/><path d="M702.16,238.36a12.88,12.88,0,0,1-2.34,7.2,7.48,7.48,0,0,1-6.48,3,3.93,3.93,0,0,1-2.48-.81,4.46,4.46,0,0,1-1.49-2.28,6.38,6.38,0,0,1-2.38,2.33,6.74,6.74,0,0,1-3.26.76,4.17,4.17,0,0,1-3.79-2.35,10.44,10.44,0,0,1-1-6.19,15.92,15.92,0,0,1,2.69-8.11,6.57,6.57,0,0,1,5.44-3.06,8.84,8.84,0,0,1,3.29.51,14.76,14.76,0,0,1,2.74,1.56L693,231h.12l-1,11.43a4.73,4.73,0,0,0,.42,3,1.89,1.89,0,0,0,1.6.81A4.36,4.36,0,0,0,698,244a11.2,11.2,0,0,0,1.6-5.64q.33-7.46-2.81-11.63t-9.68-4.17a11.83,11.83,0,0,0-9.68,4.52q-3.66,4.5-3.95,11.75t2.93,11.61q3.29,4.27,9.42,4.27a14.89,14.89,0,0,0,3.47-.42,11.76,11.76,0,0,0,3-1.1l.76,2.09a11,11,0,0,1-3.35,1.28,18.05,18.05,0,0,1-3.93.46q-7.43,0-11.49-4.88t-3.69-13.31q.38-8.25,4.87-13.43a14.81,14.81,0,0,1,11.75-5.18q7.41,0,11.36,4.88T702.16,238.36ZM682.38,240a8.92,8.92,0,0,0,.43,4.21,2.17,2.17,0,0,0,2.09,1.46,5.2,5.2,0,0,0,2.27-.49,5,5,0,0,0,1.91-1.72,2.64,2.64,0,0,1,0-.49,3.87,3.87,0,0,1,0-.56l.91-10.51a5.31,5.31,0,0,0-1.06-.37,4.91,4.91,0,0,0-1.16-.14,4.11,4.11,0,0,0-3.73,2.13A15.67,15.67,0,0,0,682.38,240Z"/><path d="M725.62,245.57a5.17,5.17,0,0,0,3.37-1.18,3.6,3.6,0,0,0,1.45-2.9h3.46l0,.12a5.89,5.89,0,0,1-2.43,4.85,8.92,8.92,0,0,1-5.89,2.12,8.51,8.51,0,0,1-7-3,11.62,11.62,0,0,1-2.43-7.56v-.82a11.6,11.6,0,0,1,2.44-7.53,8.52,8.52,0,0,1,7-3,11.8,11.8,0,0,1,4.56.84,9.1,9.1,0,0,1,3.35,2.3l.18,4.69h-3.07l-.84-3.32a5.26,5.26,0,0,0-1.76-1.08,6.78,6.78,0,0,0-2.42-.41,4.65,4.65,0,0,0-4.33,2.18,10.3,10.3,0,0,0-1.29,5.34V238a10.45,10.45,0,0,0,1.28,5.4A4.65,4.65,0,0,0,725.62,245.57Z"/><path d="M752.81,245a6.86,6.86,0,0,1-6.19,3.54,6.75,6.75,0,0,1-5.37-2.21q-1.93-2.2-1.94-6.87v-9.44l-2.42-.54V227h6.27v12.5c0,2.25.33,3.8,1,4.65a3.7,3.7,0,0,0,3.1,1.26,6.26,6.26,0,0,0,3.39-.83,5.12,5.12,0,0,0,2-2.35V230.06l-2.83-.54V227h6.68v18.12l2.42.55v2.46h-5.88Z"/><path d="M762,229.52V227h6.62l.37,3.06a7.47,7.47,0,0,1,2.22-2.54,5.14,5.14,0,0,1,3-.91,7.5,7.5,0,0,1,.93.06,5.61,5.61,0,0,1,.73.15l-.5,3.58-2.19-.12a4.44,4.44,0,0,0-2.56.71,4.65,4.65,0,0,0-1.6,2v12.13l3.18.55v2.46H762v-2.46l3.18-.55v-15.1Z"/><path d="M794.7,233.68h-2.89l-.62-2.54a5.33,5.33,0,0,0-1.77-1.07,7,7,0,0,0-2.41-.4,4.43,4.43,0,0,0-3,.9,2.83,2.83,0,0,0-1,2.17,2.43,2.43,0,0,0,.88,2,9.22,9.22,0,0,0,3.58,1.29,15.18,15.18,0,0,1,6,2.34,4.68,4.68,0,0,1,2,3.95,5.45,5.45,0,0,1-2.28,4.55,9.52,9.52,0,0,1-5.95,1.74,15.42,15.42,0,0,1-4.31-.56,11.47,11.47,0,0,1-3.42-1.61l0-4.82h2.89l.72,2.83a4.09,4.09,0,0,0,1.81.88,10.1,10.1,0,0,0,2.33.27,5.43,5.43,0,0,0,3.22-.83,2.57,2.57,0,0,0,1.16-2.18,2.62,2.62,0,0,0-1-2.09,9.09,9.09,0,0,0-3.66-1.42,15.29,15.29,0,0,1-5.8-2.29,4.6,4.6,0,0,1-1.95-3.9,5.53,5.53,0,0,1,2.19-4.4,8.69,8.69,0,0,1,5.72-1.81,13.72,13.72,0,0,1,4.31.62,9.11,9.11,0,0,1,3.19,1.74Z"/><path d="M798.92,245.71l3.18-.55v-15.1l-3.18-.54V227h7v18.12l3.19.55v2.46H798.92Zm7-24.08H802.1V217.7H806Z"/><path d="M828.24,233.68h-2.89l-.63-2.54a5.33,5.33,0,0,0-1.77-1.07,7,7,0,0,0-2.41-.4,4.42,4.42,0,0,0-3,.9,2.8,2.8,0,0,0-1,2.17,2.4,2.4,0,0,0,.88,2A9.16,9.16,0,0,0,821,236a15.24,15.24,0,0,1,6,2.34,4.7,4.7,0,0,1,2,3.95,5.47,5.47,0,0,1-2.27,4.55,9.54,9.54,0,0,1-6,1.74,15.54,15.54,0,0,1-4.32-.56,11.53,11.53,0,0,1-3.41-1.61l0-4.82h2.89l.72,2.83a4,4,0,0,0,1.81.88,10.1,10.1,0,0,0,2.33.27,5.37,5.37,0,0,0,3.21-.83,2.55,2.55,0,0,0,1.17-2.18,2.65,2.65,0,0,0-1-2.09,9.22,9.22,0,0,0-3.66-1.42,15.22,15.22,0,0,1-5.8-2.29,4.58,4.58,0,0,1-2-3.9,5.51,5.51,0,0,1,2.2-4.4,8.66,8.66,0,0,1,5.71-1.81,13.83,13.83,0,0,1,4.32.62A9.06,9.06,0,0,1,828,229Z"/><path d="M839.18,221.94V227h4v2.85h-4v12.83a2.87,2.87,0,0,0,.61,2.09,2.23,2.23,0,0,0,1.63.61,8.13,8.13,0,0,0,1.14-.09c.43-.06.78-.12,1.07-.19l.53,2.64a4.86,4.86,0,0,1-1.61.57,10,10,0,0,1-2.11.23,5,5,0,0,1-3.73-1.42,6.15,6.15,0,0,1-1.38-4.44V229.89H832V227h3.34v-5.1Z"/><path d="M860.89,248.17c-.11-.57-.2-1.09-.27-1.54s-.11-.91-.14-1.37a9.29,9.29,0,0,1-2.78,2.37,8,8,0,0,1-8.58-.66,5.92,5.92,0,0,1-1.72-4.54,5.26,5.26,0,0,1,2.43-4.64,11.82,11.82,0,0,1,6.67-1.63h4V233.7a3.8,3.8,0,0,0-1.17-2.94,4.59,4.59,0,0,0-3.26-1.09,8.25,8.25,0,0,0-2.55.37,4.92,4.92,0,0,0-1.79,1l-.41,2.23h-3v-4.1a11.23,11.23,0,0,1,3.49-1.85,13.9,13.9,0,0,1,4.46-.69,8.89,8.89,0,0,1,5.82,1.83,6.45,6.45,0,0,1,2.22,5.26v10.17c0,.28,0,.54,0,.8s0,.52,0,.78l1.56.22v2.46Zm-6.19-2.81a6.88,6.88,0,0,0,3.5-.92,5.66,5.66,0,0,0,2.26-2.21v-3.47h-4.1a5.86,5.86,0,0,0-3.74,1.09,3.27,3.27,0,0,0-1.37,2.66,2.61,2.61,0,0,0,.85,2.11A3.93,3.93,0,0,0,854.7,245.36Z"/><path d="M873.55,246.76a9.62,9.62,0,0,1-1,4,9.81,9.81,0,0,1-2.57,3.47l-2.17-1.44a12,12,0,0,0,1.38-2.87,9.92,9.92,0,0,0,.47-3.11v-3h3.85Z"/><path d="M612.53,324.77l-2.63.2,5.27,13.91.68,2.48H616l.74-2.48,5.2-13.91-2.64-.2V323h7.11v1.73l-2.07.18-7.46,19.22H615L607.5,325l-2.07-.18V323h7.1Z"/><path d="M643.26,344.17a18.6,18.6,0,0,1-.33-1.86,11.76,11.76,0,0,1-.1-1.58,9.34,9.34,0,0,1-3.13,2.76,8.8,8.8,0,0,1-4.39,1.09,6.75,6.75,0,0,1-4.81-1.6,5.69,5.69,0,0,1-1.7-4.34,5.37,5.37,0,0,1,2.52-4.65,12,12,0,0,1,6.84-1.72h4.67v-2.79a4.5,4.5,0,0,0-1.46-3.55,5.93,5.93,0,0,0-4.07-1.29,10.2,10.2,0,0,0-3.21.48,7.21,7.21,0,0,0-2.43,1.3l-.2,2.83h-1.93l0-4.06a12,12,0,0,1,3.5-1.84,13.22,13.22,0,0,1,4.35-.7,8.5,8.5,0,0,1,5.62,1.77,6.28,6.28,0,0,1,2.13,5.1v10.39c0,.43,0,.84,0,1.24a8.57,8.57,0,0,0,.13,1.16l2.11.14v1.72Zm-7.7-1.66a8.44,8.44,0,0,0,4.47-1.17,7,7,0,0,0,2.8-3v-4.24h-4.71a8.79,8.79,0,0,0-5.09,1.32,3.92,3.92,0,0,0-1.9,3.33,3.46,3.46,0,0,0,1.18,2.74A4.72,4.72,0,0,0,635.56,342.51Z"/><path d="M650.23,324.77V323h5.25l.22,3.49a7.5,7.5,0,0,1,2.71-2.87,7.73,7.73,0,0,1,4.05-1,6.66,6.66,0,0,1,4,1.18,6.54,6.54,0,0,1,2.32,3.6,8.22,8.22,0,0,1,2.73-3.5,7.09,7.09,0,0,1,4.3-1.28,6.37,6.37,0,0,1,5.23,2.24q1.84,2.25,1.85,7v10.33l3.18.27v1.72h-8.73v-1.72l3.18-.27V331.81q0-3.92-1.37-5.52a4.77,4.77,0,0,0-3.84-1.61,5.2,5.2,0,0,0-4.21,1.74,8.29,8.29,0,0,0-1.83,4.43,2.71,2.71,0,0,0,0,.29c0,.09,0,.21,0,.35V342.2l3.19.25v1.72H663.8v-1.72l3.19-.25V331.81c0-2.56-.47-4.38-1.4-5.48a4.76,4.76,0,0,0-3.84-1.65,5.83,5.83,0,0,0-4,1.26,6.7,6.7,0,0,0-2,3.39V342.2l3.18.25v1.72h-8.71v-1.72l3.18-.25V325Z"/><path d="M688.8,333.29a11.41,11.41,0,0,1,2.56-7.66,9.23,9.23,0,0,1,13.58,0,11.41,11.41,0,0,1,2.56,7.66v.65A11.35,11.35,0,0,1,705,341.6a9.24,9.24,0,0,1-13.59,0,11.36,11.36,0,0,1-2.56-7.66Zm2.35.65a10.13,10.13,0,0,0,1.85,6.17,6.55,6.55,0,0,0,10.3,0,10.13,10.13,0,0,0,1.85-6.17v-.65a10,10,0,0,0-1.86-6.13,6.51,6.51,0,0,0-10.29,0,10.09,10.09,0,0,0-1.85,6.13Z"/><path d="M726.64,329.56h-1.92l-.27-3a5.89,5.89,0,0,0-2.22-1.42,8.59,8.59,0,0,0-3.07-.51,5.77,5.77,0,0,0-3.84,1.1,3.32,3.32,0,0,0-1.28,2.59,3.08,3.08,0,0,0,1.1,2.42,10.75,10.75,0,0,0,4.41,1.68,14.4,14.4,0,0,1,5.64,2.3,4.73,4.73,0,0,1,1.88,3.95,5.14,5.14,0,0,1-2.14,4.27,9.08,9.08,0,0,1-5.66,1.63,13.32,13.32,0,0,1-4.26-.65,10.14,10.14,0,0,1-3.33-1.85v-4.26h1.89l.33,3a5.56,5.56,0,0,0,2.37,1.36,10.66,10.66,0,0,0,3,.42,6.43,6.43,0,0,0,4-1.12,3.3,3.3,0,0,0,1.46-2.69,3.43,3.43,0,0,0-1.22-2.6,9.92,9.92,0,0,0-4.4-1.82,14.81,14.81,0,0,1-5.6-2.17,4.46,4.46,0,0,1-1.83-3.8,5.08,5.08,0,0,1,2.06-4.09,8.25,8.25,0,0,1,5.41-1.67,12,12,0,0,1,4.24.71,8.57,8.57,0,0,1,3.14,1.92Z"/><path d="M750.07,342.61a6.74,6.74,0,0,0,4.11-1.33,4.36,4.36,0,0,0,1.77-3.69H758l0,.11a5.8,5.8,0,0,1-2.33,4.91,8.75,8.75,0,0,1-5.66,2,8.06,8.06,0,0,1-6.66-3,11.84,11.84,0,0,1-2.36-7.61v-.82a11.83,11.83,0,0,1,2.36-7.58,8,8,0,0,1,6.64-3,10.81,10.81,0,0,1,4.48.91,9,9,0,0,1,3.3,2.5l.1,4.61h-2l-.37-3.75a6.66,6.66,0,0,0-2.33-1.67,7.81,7.81,0,0,0-3.18-.61,5.65,5.65,0,0,0-5,2.43,10.81,10.81,0,0,0-1.63,6.12V334a10.84,10.84,0,0,0,1.63,6.18A5.65,5.65,0,0,0,750.07,342.61Z"/><path d="M762.42,333.29a11.36,11.36,0,0,1,2.56-7.66,9.21,9.21,0,0,1,13.57,0,11.36,11.36,0,0,1,2.56,7.66v.65a11.35,11.35,0,0,1-2.55,7.66,9.23,9.23,0,0,1-13.58,0,11.31,11.31,0,0,1-2.56-7.66Zm2.34.65a10.07,10.07,0,0,0,1.86,6.17,6.54,6.54,0,0,0,10.29,0,10.07,10.07,0,0,0,1.86-6.17v-.65a10,10,0,0,0-1.87-6.13,6.5,6.5,0,0,0-10.28,0,10,10,0,0,0-1.86,6.13Z"/><path d="M784.41,324.77V323h5.25l.22,3.49a7.5,7.5,0,0,1,2.71-2.87,7.73,7.73,0,0,1,4-1,6.66,6.66,0,0,1,4,1.18,6.54,6.54,0,0,1,2.32,3.6,8.22,8.22,0,0,1,2.73-3.5,7.09,7.09,0,0,1,4.3-1.28,6.37,6.37,0,0,1,5.23,2.24q1.85,2.25,1.84,7v10.33l3.19.27v1.72h-8.73v-1.72l3.18-.27V331.81q0-3.92-1.38-5.52a4.73,4.73,0,0,0-3.83-1.61,5.2,5.2,0,0,0-4.21,1.74,8.29,8.29,0,0,0-1.83,4.43,2.71,2.71,0,0,0,0,.29c0,.09,0,.21,0,.35V342.2l3.18.25v1.72H798v-1.72l3.19-.25V331.81c0-2.56-.47-4.38-1.4-5.48a4.76,4.76,0,0,0-3.84-1.65,5.83,5.83,0,0,0-3.95,1.26,6.7,6.7,0,0,0-2,3.39V342.2l3.18.25v1.72h-8.71v-1.72l3.18-.25V325Z"/><path d="M832.3,344.58a8.46,8.46,0,0,1-6.6-2.92,10.69,10.69,0,0,1-2.62-7.43v-1.08a11,11,0,0,1,2.61-7.52,8.08,8.08,0,0,1,6.3-3,7.82,7.82,0,0,1,6.11,2.46,9.38,9.38,0,0,1,2.23,6.56v2H825.41v.57a9.29,9.29,0,0,0,1.9,6,6.05,6.05,0,0,0,5,2.42A10.22,10.22,0,0,0,836,342a7.24,7.24,0,0,0,2.64-1.74l1,1.6a8.34,8.34,0,0,1-3,2A11.56,11.56,0,0,1,832.3,344.58ZM832,324.64a5.61,5.61,0,0,0-4.35,2,8.51,8.51,0,0,0-2.06,5l0,.1H838v-.59a6.78,6.78,0,0,0-1.62-4.61A5.54,5.54,0,0,0,832,324.64Z"/><path d="M853.53,342.61a6.69,6.69,0,0,0,4.1-1.33,4.35,4.35,0,0,0,1.78-3.69h2.07l0,.11a5.83,5.83,0,0,1-2.33,4.91,8.77,8.77,0,0,1-5.66,2,8.06,8.06,0,0,1-6.66-3,11.79,11.79,0,0,1-2.36-7.61v-.82a11.78,11.78,0,0,1,2.36-7.58,8,8,0,0,1,6.64-3,10.73,10.73,0,0,1,4.47.91,8.82,8.82,0,0,1,3.3,2.5l.1,4.61h-2l-.37-3.75a6.75,6.75,0,0,0-2.33-1.67,7.84,7.84,0,0,0-3.18-.61,5.65,5.65,0,0,0-5,2.43,10.73,10.73,0,0,0-1.63,6.12V334a10.92,10.92,0,0,0,1.62,6.18A5.67,5.67,0,0,0,853.53,342.61Zm.61,1.74-.22,1.25a4.66,4.66,0,0,1,2.49.94,2.92,2.92,0,0,1,1,2.4,3.31,3.31,0,0,1-1.54,2.84,7.74,7.74,0,0,1-4.42,1.06l-.13-1.52a6.51,6.51,0,0,0,2.93-.6,1.88,1.88,0,0,0,1.21-1.75,1.61,1.61,0,0,0-.81-1.55,7.59,7.59,0,0,0-2.83-.59l.55-2.48Z"/><path d="M880.46,344.17q-.23-1.08-.33-1.86a13.67,13.67,0,0,1-.1-1.58,9.31,9.31,0,0,1-3.12,2.76,8.82,8.82,0,0,1-4.39,1.09,6.72,6.72,0,0,1-4.81-1.6,5.69,5.69,0,0,1-1.7-4.34,5.37,5.37,0,0,1,2.52-4.65,12,12,0,0,1,6.84-1.72H880v-2.79a4.49,4.49,0,0,0-1.45-3.55,5.93,5.93,0,0,0-4.07-1.29,10.26,10.26,0,0,0-3.22.48,7.21,7.21,0,0,0-2.43,1.3l-.19,2.83h-1.94l0-4.06a12.15,12.15,0,0,1,3.51-1.84,13.21,13.21,0,0,1,4.34-.7,8.51,8.51,0,0,1,5.63,1.77,6.28,6.28,0,0,1,2.13,5.1v10.39c0,.43,0,.84,0,1.24a8.57,8.57,0,0,0,.13,1.16l2.1.14v1.72Zm-7.69-1.66a8.47,8.47,0,0,0,4.47-1.17,6.88,6.88,0,0,0,2.79-3v-4.24h-4.7a8.79,8.79,0,0,0-5.09,1.32,3.92,3.92,0,0,0-1.9,3.33,3.46,3.46,0,0,0,1.18,2.74A4.7,4.7,0,0,0,872.77,342.51Z"/><path d="M893,323l.3,3.51v.26a7.38,7.38,0,0,1,2.45-3.06,6.64,6.64,0,0,1,4.55-1q.42.07.69.15l-.31,2.19-1.74-.12a5.27,5.27,0,0,0-3.62,1.24,6.77,6.77,0,0,0-2,3.41V342.2l3.18.25v1.72h-8.69v-1.72l3.18-.25V325l-3.18-.26V323H893Z"/><path d="M913.75,333.29a11.41,11.41,0,0,1,2.55-7.66,9.23,9.23,0,0,1,13.58,0,11.41,11.41,0,0,1,2.56,7.66v.65a11.35,11.35,0,0,1-2.55,7.66,9.24,9.24,0,0,1-13.59,0,11.35,11.35,0,0,1-2.55-7.66Zm2.34.65a10.13,10.13,0,0,0,1.85,6.17,6.55,6.55,0,0,0,10.3,0,10.13,10.13,0,0,0,1.85-6.17v-.65a10,10,0,0,0-1.86-6.13,6.51,6.51,0,0,0-10.29,0,10.09,10.09,0,0,0-1.85,6.13Z"/><path d="M611.77,365.63V371h4.65V373h-4.65v13.77a4.52,4.52,0,0,0,.75,2.94,2.53,2.53,0,0,0,2,.87c.37,0,.74,0,1.1,0s.77-.09,1.24-.17l.35,1.74a5.91,5.91,0,0,1-1.42.39,10.58,10.58,0,0,1-1.68.14,4.38,4.38,0,0,1-3.47-1.41,6.59,6.59,0,0,1-1.24-4.45V373h-3.63V371h3.63v-5.41Z"/><path d="M625.78,371l.29,3.51v.26a7.46,7.46,0,0,1,2.45-3.06,6.64,6.64,0,0,1,4.55-1l.7.15-.32,2.19-1.74-.12a5.29,5.29,0,0,0-3.62,1.24,6.84,6.84,0,0,0-2,3.41V390.2l3.18.25v1.72h-8.69v-1.72l3.19-.25V373l-3.19-.26V371h5.22Z"/><path d="M651.38,392.17q-.23-1.08-.33-1.86a11.76,11.76,0,0,1-.1-1.58,9.31,9.31,0,0,1-3.12,2.76,8.84,8.84,0,0,1-4.4,1.09,6.71,6.71,0,0,1-4.8-1.6,5.69,5.69,0,0,1-1.7-4.34,5.37,5.37,0,0,1,2.52-4.65,12,12,0,0,1,6.83-1.72H651v-2.79a4.49,4.49,0,0,0-1.45-3.55,5.93,5.93,0,0,0-4.07-1.29,10.22,10.22,0,0,0-3.22.48,7.21,7.21,0,0,0-2.43,1.3l-.19,2.83h-1.94l0-4.06a12.15,12.15,0,0,1,3.51-1.84,13.21,13.21,0,0,1,4.34-.7,8.53,8.53,0,0,1,5.63,1.77,6.28,6.28,0,0,1,2.13,5.1v10.39c0,.43,0,.84,0,1.24a10.58,10.58,0,0,0,.12,1.16l2.11.14v1.72Zm-7.69-1.66a8.47,8.47,0,0,0,4.47-1.17,6.88,6.88,0,0,0,2.79-3v-4.24h-4.7a8.77,8.77,0,0,0-5.09,1.32,3.93,3.93,0,0,0-1.91,3.33,3.47,3.47,0,0,0,1.19,2.74A4.7,4.7,0,0,0,643.69,390.51Z"/><path d="M677,382.19a12.22,12.22,0,0,1-2.15,7.57,7,7,0,0,1-5.92,2.82,8.13,8.13,0,0,1-4-.93,7.23,7.23,0,0,1-2.72-2.66l-.25,3.18h-2V363.69l-3.19-.25V361.7h5.51v12.66a7.2,7.2,0,0,1,6.6-3.71,6.9,6.9,0,0,1,6,3,13.8,13.8,0,0,1,2.15,8.1Zm-2.37-.41a12.34,12.34,0,0,0-1.56-6.57,5.07,5.07,0,0,0-4.61-2.53,6,6,0,0,0-4,1.21,7.2,7.2,0,0,0-2.22,3.1v9.55a6.33,6.33,0,0,0,6.21,4,5.2,5.2,0,0,0,4.59-2.27,10.65,10.65,0,0,0,1.54-6.09Z"/><path d="M695.58,392.17c-.15-.72-.27-1.34-.33-1.86a11.76,11.76,0,0,1-.1-1.58,9.31,9.31,0,0,1-3.12,2.76,8.86,8.86,0,0,1-4.4,1.09,6.71,6.71,0,0,1-4.8-1.6,5.65,5.65,0,0,1-1.7-4.34,5.37,5.37,0,0,1,2.52-4.65,12,12,0,0,1,6.83-1.72h4.67v-2.79a4.49,4.49,0,0,0-1.45-3.55,5.94,5.94,0,0,0-4.08-1.29,10.2,10.2,0,0,0-3.21.48,7.21,7.21,0,0,0-2.43,1.3l-.2,2.83h-1.93l0-4.06a12.15,12.15,0,0,1,3.51-1.84,13.21,13.21,0,0,1,4.34-.7,8.53,8.53,0,0,1,5.63,1.77,6.28,6.28,0,0,1,2.13,5.1v10.39c0,.43,0,.84,0,1.24a8.59,8.59,0,0,0,.12,1.16l2.11.14v1.72Zm-7.69-1.66a8.47,8.47,0,0,0,4.47-1.17,6.88,6.88,0,0,0,2.79-3v-4.24h-4.71a8.76,8.76,0,0,0-5.08,1.32,3.93,3.93,0,0,0-1.91,3.33,3.5,3.5,0,0,0,1.18,2.74A4.75,4.75,0,0,0,687.89,390.51Z"/><path d="M702.59,363.44V361.7h5.51v28.5l3.18.25v1.72h-8.69v-1.72l3.19-.25V363.69Z"/><path d="M714.29,363.44V361.7h5.51v12.95a7.75,7.75,0,0,1,2.81-2.95,7.84,7.84,0,0,1,4.1-1.05,6.4,6.4,0,0,1,5.13,2.07q1.78,2.07,1.79,6.42V390.2l3.18.25v1.72H728.1v-1.72l3.18-.25V379.1q0-3.44-1.35-4.93a4.82,4.82,0,0,0-3.74-1.49,6.35,6.35,0,0,0-4,1.26,7.33,7.33,0,0,0-2.37,3.35V390.2l3.18.25v1.72h-8.69v-1.72l3.19-.25V363.69Z"/><path d="M740.13,381.29a11.36,11.36,0,0,1,2.56-7.66,9.23,9.23,0,0,1,13.58,0,11.41,11.41,0,0,1,2.55,7.66v.65a11.35,11.35,0,0,1-2.55,7.66,8.43,8.43,0,0,1-6.76,3,8.54,8.54,0,0,1-6.82-3,11.31,11.31,0,0,1-2.56-7.66Zm2.35.65a10.06,10.06,0,0,0,1.85,6.17,6.1,6.1,0,0,0,5.18,2.5,6,6,0,0,0,5.11-2.5,10.07,10.07,0,0,0,1.86-6.17v-.65a10,10,0,0,0-1.87-6.13,6.5,6.5,0,0,0-10.28,0,10,10,0,0,0-1.85,6.13Z"/><path d="M766.3,392.17h-2.77v-3.26h2.77Zm-.23-9.34h-2.32v-19.1h2.32Z"/></g></svg>