<svg xmlns="http://www.w3.org/2000/svg" xmlns:xlink="http://www.w3.org/1999/xlink" viewBox="0 0 1124.64 651.26"><defs><style>.cls-1{fill:none;}.cls-2{clip-path:url(#clip-path);}.cls-3{fill:#312235;}.cls-4{fill:#dd7a7a;}.cls-5{fill:#c6b366;}.cls-6{clip-path:url(#clip-path-2);}.cls-7{fill:#fff3c2;}.cls-8{fill:#fff3c3;}.cls-9{fill:#fff3c4;}.cls-10{fill:#fff4c5;}.cls-11{fill:#fff4c6;}.cls-12{fill:#fff4c7;}.cls-13{fill:#fff4c8;}.cls-14{fill:#fff4c9;}.cls-15{fill:#fff5ca;}.cls-16{fill:#fff5cb;}.cls-17{fill:#fff5cc;}.cls-18{fill:#fff5cd;}.cls-19{fill:#fff5ce;}.cls-20{fill:#fff6cf;}.cls-21{fill:#fff6d0;}.cls-22{fill:#fff6d1;}.cls-23{fill:#fff6d2;}.cls-24{fill:#fff6d3;}.cls-25{fill:#fff7d4;}.cls-26{fill:#fff7d5;}.cls-27{fill:#fff7d6;}.cls-28{fill:#fff7d7;}.cls-29{fill:#fff7d8;}.cls-30{fill:#fff8d9;}.cls-31{fill:#fff8da;}.cls-32{fill:#fff8db;}.cls-33{fill:#fff8dc;}.cls-34{fill:#fff8dd;}.cls-35{fill:#fff9de;}.cls-36{fill:#fff9df;}.cls-37{fill:#fff9e0;}.cls-38{fill:#fff9e2;}.cls-39{fill:#fff9e3;}.cls-40{fill:#fffae4;}.cls-41{fill:#fffae5;}.cls-42{fill:#fffae6;}.cls-43{fill:#fffae7;}.cls-44{fill:#fffae8;}.cls-45{fill:#fffbe9;}.cls-46{fill:#fffbea;}.cls-47{fill:#fffbeb;}.cls-48{fill:#fffbec;}.cls-49{fill:#fffbed;}.cls-50{fill:#fffcee;}.cls-51{fill:#fffcef;}.cls-52{fill:#fffcf0;}.cls-53{fill:#fffcf1;}.cls-54{fill:#fffcf2;}.cls-55{fill:#fffdf3;}.cls-56{fill:#fffdf4;}.cls-57{fill:#fffdf5;}.cls-58{fill:#fffdf6;}.cls-59{fill:#fffdf7;}.cls-60{fill:#fffef8;}.cls-61{fill:#fffef9;}.cls-62{fill:#fffefa;}.cls-63{fill:#fffefb;}.cls-64{fill:#fffefc;}.cls-65{fill:#fffffd;}.cls-66{fill:#fffffe;}.cls-67{fill:#fff;}.cls-68{fill:#ffeda1;}.cls-69{fill:#3a1e1c;}.cls-70{clip-path:url(#clip-path-3);}.cls-71{fill:#fffdfd;}.cls-72{clip-path:url(#clip-path-4);}.cls-73{fill:#d88268;}.cls-74{fill:#d98369;}.cls-75{fill:#da8469;}.cls-76{fill:#db856a;}.cls-77{fill:#dc866b;}.cls-78{fill:#dd876b;}.cls-79{fill:#de886c;}.cls-80{fill:#df896d;}.cls-81{fill:#e08a6d;}.cls-82{fill:#e18b6e;}.cls-83{fill:#e28c6f;}.cls-84{fill:#e48d70;}.cls-85{fill:#e58d70;}.cls-86{fill:#e68e71;}.cls-87{fill:#e78f72;}.cls-88{fill:#e89072;}.cls-89{fill:#e99173;}.cls-90{fill:#ea9274;}.cls-91{fill:#eb9374;}.cls-92{fill:#ec9475;}.cls-93{fill:#ed9576;}.cls-94{fill:#ee9676;}.cls-95{fill:#ef9777;}.cls-96{fill:#3d201f;}.cls-97{fill:#b5574d;}.cls-98{fill:#b3514e;}.cls-99{fill:#fc999c;}.cls-100{fill:#f9aaaa;}.cls-101{fill:#822222;}.cls-102{fill:#9b3737;}.cls-103{fill:#5b1f3c;}</style><clipPath id="clip-path"><path class="cls-1" d="M540.86-728.3c-10.3-18-97.34-31.5-97.34-31.5S301.2-948.56,232.19-942.13s-80.25,56.58-80.25,56.58L119.31-819C54-784.08,10-717.94,10-642.08c0,112.24,96.43,203.24,215.37,203.24,117.57,0,213.12-88.9,215.32-199.35C473-660.5,548.81-714.43,540.86-728.3Z"/></clipPath><clipPath id="clip-path-2"><path class="cls-1" d="M428.87,402.79a192.51,192.51,0,0,0-5.05-43.86c-32.69-73-109.23-124.15-198.45-124.15C106.43,234.78,10,325.78,10,438a193.16,193.16,0,0,0,5,43.87C47.74,554.84,124.28,606,213.5,606,332.44,606,428.87,515,428.87,402.79Z"/></clipPath><clipPath id="clip-path-3"><path class="cls-1" d="M541.11,351.64c-10.3-18-97.34-31.5-97.34-31.5S301.45,131.38,232.44,137.81s-80.25,56.58-80.25,56.58l-32.63,66.55C54.29,295.86,10.25,362,10.25,437.86c0,112.25,96.43,203.24,215.37,203.24,117.57,0,213.12-88.9,215.32-199.35C473.29,419.44,549.06,365.51,541.11,351.64Z"/></clipPath><clipPath id="clip-path-4"><path class="cls-1" d="M227.93,321.46l-2.36,9.79s-19.92,12.89-37.91,11.87c-5.34-.31,67.76,42.79,71.74,42.94s34.38-50.15,34.38-50.15-20.41-3.74-27.17-4-14.47-18.28-14.47-18.28Z"/></clipPath></defs><title>M1-fala1</title><g id="Camada_5" data-name="Camada 5"><g class="cls-2"><path class="cls-3" d="M189.7-50.32s-6.77,14.39-4.3,22.7,17.23,13.73,17.23,13.73S239.7,8.55,271.5,4.56s21.38-11,21.38-11L237.09-52.4Z"/></g><path class="cls-4" d="M225.37,234.78c119,0,215.37,91,215.37,203.24S344.32,641.26,225.37,641.26,10,550.27,10,438s96.42-203.24,215.37-203.24m0-10a235.1,235.1,0,0,0-87.54,16.69A225.72,225.72,0,0,0,66.22,287,212.37,212.37,0,0,0,17.8,354.82a203.34,203.34,0,0,0,0,166.4A212.3,212.3,0,0,0,66.22,589a225.89,225.89,0,0,0,71.61,45.57,238.05,238.05,0,0,0,175.08,0A225.94,225.94,0,0,0,384.53,589a212.12,212.12,0,0,0,48.41-67.79,203.34,203.34,0,0,0,0-166.4A212.19,212.19,0,0,0,384.53,287a225.76,225.76,0,0,0-71.62-45.57,235.1,235.1,0,0,0-87.54-16.69Z"/><ellipse class="cls-5" cx="225.37" cy="438.02" rx="215.37" ry="203.24"/><g class="cls-6"><rect class="cls-7" x="10" y="234.78" width="418.87" height="371.24"/><path class="cls-7" d="M206.79,475.71a120.37,120.37,0,1,1,167,33A120.37,120.37,0,0,1,206.79,475.71Z"/><path class="cls-8" d="M208.43,474.61a118.4,118.4,0,1,1,164.26,32.46A118.39,118.39,0,0,1,208.43,474.61Z"/><path class="cls-9" d="M210.07,473.51a116.43,116.43,0,1,1,161.52,31.92A116.42,116.42,0,0,1,210.07,473.51Z"/><path class="cls-10" d="M211.71,472.41A114.45,114.45,0,1,1,370.5,503.79,114.44,114.44,0,0,1,211.71,472.41Z"/><circle class="cls-11" cx="306.79" cy="408.71" r="112.48"/><circle class="cls-12" cx="306.79" cy="408.71" r="110.5"/><circle class="cls-13" cx="306.79" cy="408.71" r="108.53"/><circle class="cls-14" cx="306.79" cy="408.71" r="106.56"/><circle class="cls-15" cx="306.79" cy="408.71" r="104.58"/><circle class="cls-16" cx="306.79" cy="408.71" r="102.61"/><circle class="cls-17" cx="306.79" cy="408.71" r="100.64"/><circle class="cls-18" cx="306.79" cy="408.71" r="98.66"/><circle class="cls-19" cx="306.79" cy="408.71" r="96.69"/><circle class="cls-20" cx="306.79" cy="408.71" r="94.72"/><circle class="cls-21" cx="306.79" cy="408.71" r="92.74"/><circle class="cls-22" cx="306.79" cy="408.71" r="90.77"/><circle class="cls-23" cx="306.79" cy="408.71" r="88.8"/><circle class="cls-24" cx="306.79" cy="408.71" r="86.82"/><circle class="cls-25" cx="306.79" cy="408.71" r="84.85"/><circle class="cls-26" cx="306.79" cy="408.71" r="82.88"/><circle class="cls-27" cx="306.79" cy="408.71" r="80.9"/><circle class="cls-28" cx="306.79" cy="408.71" r="78.93"/><circle class="cls-29" cx="306.79" cy="408.71" r="76.96"/><circle class="cls-30" cx="306.79" cy="408.71" r="74.98"/><circle class="cls-31" cx="306.79" cy="408.71" r="73.01"/><circle class="cls-32" cx="306.79" cy="408.71" r="71.04"/><circle class="cls-33" cx="306.79" cy="408.71" r="69.06"/><circle class="cls-34" cx="306.79" cy="408.71" r="67.09"/><circle class="cls-35" cx="306.79" cy="408.71" r="65.12"/><circle class="cls-36" cx="306.79" cy="408.71" r="63.15"/><circle class="cls-37" cx="306.79" cy="408.71" r="61.17"/><circle class="cls-38" cx="306.79" cy="408.71" r="59.2"/><circle class="cls-39" cx="306.79" cy="408.71" r="57.23"/><circle class="cls-40" cx="306.79" cy="408.71" r="55.25"/><circle class="cls-41" cx="306.79" cy="408.71" r="53.28"/><circle class="cls-42" cx="306.79" cy="408.71" r="51.31"/><circle class="cls-43" cx="306.79" cy="408.71" r="49.33"/><circle class="cls-44" cx="306.79" cy="408.71" r="47.36"/><circle class="cls-45" cx="306.79" cy="408.71" r="45.39"/><circle class="cls-46" cx="306.79" cy="408.71" r="43.41"/><circle class="cls-47" cx="306.79" cy="408.71" r="41.44"/><circle class="cls-48" cx="306.79" cy="408.71" r="39.47"/><circle class="cls-49" cx="306.79" cy="408.71" r="37.49"/><circle class="cls-50" cx="306.79" cy="408.71" r="35.52"/><circle class="cls-51" cx="306.79" cy="408.71" r="33.55"/><circle class="cls-52" cx="306.79" cy="408.71" r="31.57"/><circle class="cls-53" cx="306.79" cy="408.71" r="29.6"/><circle class="cls-54" cx="306.79" cy="408.71" r="27.63"/><circle class="cls-55" cx="306.79" cy="408.71" r="25.65"/><circle class="cls-56" cx="306.79" cy="408.71" r="23.68"/><circle class="cls-57" cx="306.79" cy="408.71" r="21.71"/><circle class="cls-58" cx="306.79" cy="408.71" r="19.73"/><circle class="cls-59" cx="306.79" cy="408.71" r="17.76"/><circle class="cls-60" cx="306.79" cy="408.71" r="15.79"/><circle class="cls-61" cx="306.79" cy="408.71" r="13.81"/><circle class="cls-62" cx="306.79" cy="408.71" r="11.84"/><circle class="cls-63" cx="306.79" cy="408.71" r="9.87"/><circle class="cls-64" cx="306.79" cy="408.71" r="7.89"/><circle class="cls-65" cx="306.79" cy="408.71" r="5.92"/><circle class="cls-66" cx="306.79" cy="408.71" r="3.95"/><circle class="cls-67" cx="306.79" cy="408.71" r="1.97"/></g><path class="cls-5" d="M787.8,44.22c-174.89,0-318.64,118.13-335.23,269.27L353,353.14s-6.51,2.41-5.85,11.74a12.7,12.7,0,0,0,7.43,10.89L458.82,407C492,541,626.68,641.26,787.8,641.26c186,0,336.84-133.65,336.84-298.52S973.83,44.22,787.8,44.22Z"/><path class="cls-68" d="M787.75,0C612.85,0,469.11,118.13,452.52,269.27L353,308.92s-6.51,2.41-5.86,11.74a12.7,12.7,0,0,0,7.44,10.88l104.21,31.28C492,496.78,626.63,597,787.75,597c186,0,336.84-133.65,336.84-298.52S973.78,0,787.75,0Z"/><path class="cls-69" d="M588.6,272.8h-1.53l-.28-3.67a6.93,6.93,0,0,0-2.48-1.85,8.33,8.33,0,0,0-3.53-.71,7.78,7.78,0,0,0-6.38,2.95,11.81,11.81,0,0,0-2.36,7.61v.35a12,12,0,0,0,2.34,7.63,7.47,7.47,0,0,0,6.15,3,9.32,9.32,0,0,0,3.68-.71,6.79,6.79,0,0,0,2.58-1.84l.28-3.67h1.53v4.25a8.41,8.41,0,0,1-3.26,2.6,10.78,10.78,0,0,1-4.81,1.05A9.41,9.41,0,0,1,573,286.3a13.13,13.13,0,0,1-2.93-8.82v-.32a13.25,13.25,0,0,1,2.92-8.84,9.53,9.53,0,0,1,7.63-3.44,10.48,10.48,0,0,1,4.76,1.05,8.77,8.77,0,0,1,3.21,2.62Z"/><path class="cls-69" d="M604.42,289.4c-.13-.61-.22-1.13-.28-1.58a11.9,11.9,0,0,1-.08-1.34,7.87,7.87,0,0,1-2.63,2.34,7.37,7.37,0,0,1-3.7.93,5.67,5.67,0,0,1-4-1.36,4.87,4.87,0,0,1-1.43-3.69,4.56,4.56,0,0,1,2.12-3.95,10,10,0,0,1,5.75-1.46h3.93v-2.37a3.87,3.87,0,0,0-1.22-3,5,5,0,0,0-3.43-1.09,8.51,8.51,0,0,0-2.7.4,6.17,6.17,0,0,0-2.05,1.11l-.16,2.41h-1.63l0-3.46a10.18,10.18,0,0,1,3-1.56,11,11,0,0,1,3.65-.6,7.07,7.07,0,0,1,4.73,1.52A5.32,5.32,0,0,1,606,277v8.83c0,.37,0,.72,0,1.06a7.94,7.94,0,0,0,.11,1l1.77.12v1.46ZM598,288a7,7,0,0,0,3.76-1,5.8,5.8,0,0,0,2.35-2.57v-3.6h-4a7.31,7.31,0,0,0-4.28,1.12,3.34,3.34,0,0,0-1.6,2.83,3,3,0,0,0,1,2.33A4,4,0,0,0,598,288Z"/><path class="cls-69" d="M615,271.44l.25,3v.21a6.34,6.34,0,0,1,2.06-2.6,5.19,5.19,0,0,1,3.09-.94,4.44,4.44,0,0,1,.74.06,4.29,4.29,0,0,1,.58.13l-.26,1.86-1.47-.1a4.43,4.43,0,0,0-3,1.05,5.71,5.71,0,0,0-1.7,2.9v10.72l2.67.22v1.46h-7.31v-1.46l2.68-.22V273.13l-2.68-.22v-1.47H615Z"/><path class="cls-69" d="M623.91,280.15a9.72,9.72,0,0,1,2.15-6.51,7.69,7.69,0,0,1,11.42,0,9.77,9.77,0,0,1,2.15,6.51v.55a9.74,9.74,0,0,1-2.14,6.52,7.72,7.72,0,0,1-11.43,0,9.69,9.69,0,0,1-2.15-6.52Zm2,.55a8.64,8.64,0,0,0,1.56,5.25,5.48,5.48,0,0,0,8.66,0,8.64,8.64,0,0,0,1.56-5.25v-.55a8.54,8.54,0,0,0-1.57-5.21,5.44,5.44,0,0,0-8.65,0,8.6,8.6,0,0,0-1.56,5.21Z"/><path class="cls-69" d="M658.61,288.07a5.54,5.54,0,0,0,3.45-1.13,3.72,3.72,0,0,0,1.49-3.13h1.74l0,.09a5,5,0,0,1-2,4.17,7.26,7.26,0,0,1-4.75,1.68,6.75,6.75,0,0,1-5.61-2.52,10.12,10.12,0,0,1-2-6.46v-.7a10.12,10.12,0,0,1,2-6.44,6.73,6.73,0,0,1,5.59-2.53,8.8,8.8,0,0,1,3.76.79,7.34,7.34,0,0,1,2.78,2.12l.08,3.92h-1.68l-.31-3.19a5.57,5.57,0,0,0-2-1.42,6.46,6.46,0,0,0-2.67-.52,4.72,4.72,0,0,0-4.23,2.06,9.2,9.2,0,0,0-1.37,5.21v.7a9.3,9.3,0,0,0,1.36,5.24A4.73,4.73,0,0,0,658.61,288.07Z"/><path class="cls-69" d="M682.05,286.44a6.09,6.09,0,0,1-2.29,2.45,6.64,6.64,0,0,1-3.43.86,5.36,5.36,0,0,1-4.39-1.93q-1.59-1.92-1.59-6v-8.72l-2.2-.22v-1.47h4.16v10.44q0,3.28,1.11,4.71a3.73,3.73,0,0,0,3.14,1.43,5.81,5.81,0,0,0,3.56-1,5.33,5.33,0,0,0,1.86-2.76V273.13l-2.53-.22v-1.47H684v16.28l2.38.22v1.46h-4.11Z"/><path class="cls-69" d="M693.49,271.44l.24,3v.21a6.42,6.42,0,0,1,2.06-2.6,5.24,5.24,0,0,1,3.1-.94,4.32,4.32,0,0,1,.73.06,4.47,4.47,0,0,1,.59.13l-.27,1.86-1.46-.1a4.45,4.45,0,0,0-3.05,1.05,5.85,5.85,0,0,0-1.7,2.9v10.72l2.68.22v1.46H689.1v-1.46l2.68-.22V273.13l-2.68-.22v-1.47h4.39Z"/><path class="cls-69" d="M715.65,277H714l-.23-2.54a5,5,0,0,0-1.87-1.21,7.12,7.12,0,0,0-2.58-.43,4.77,4.77,0,0,0-3.23.94,2.83,2.83,0,0,0-1.08,2.2A2.6,2.6,0,0,0,706,278a8.86,8.86,0,0,0,3.7,1.43,12.14,12.14,0,0,1,4.75,1.95,4.06,4.06,0,0,1,1.58,3.36,4.36,4.36,0,0,1-1.8,3.63,7.53,7.53,0,0,1-4.75,1.39,11,11,0,0,1-3.59-.56,8.45,8.45,0,0,1-2.81-1.57V284h1.6l.28,2.56a4.47,4.47,0,0,0,2,1.15,8.84,8.84,0,0,0,2.53.36,5.39,5.39,0,0,0,3.36-.94,2.84,2.84,0,0,0,1.23-2.3,2.91,2.91,0,0,0-1-2.2,8.34,8.34,0,0,0-3.71-1.55,12.28,12.28,0,0,1-4.7-1.85,3.79,3.79,0,0,1-1.54-3.23,4.36,4.36,0,0,1,1.73-3.48,7,7,0,0,1,4.55-1.42,10.21,10.21,0,0,1,3.57.61,7.11,7.11,0,0,1,2.64,1.64Z"/><path class="cls-69" d="M719.46,287.94l2.68-.22V273.13l-2.68-.22v-1.47h4.63v16.28l2.68.22v1.46h-7.31Zm4.63-21.65h-2V263.5h2Z"/><path class="cls-69" d="M743,277h-1.61l-.23-2.54a5,5,0,0,0-1.86-1.21,7.21,7.21,0,0,0-2.59-.43,4.77,4.77,0,0,0-3.23.94,2.83,2.83,0,0,0-1.08,2.2,2.6,2.6,0,0,0,.93,2.05,8.92,8.92,0,0,0,3.71,1.43,12.15,12.15,0,0,1,4.74,1.95,4,4,0,0,1,1.58,3.36,4.36,4.36,0,0,1-1.8,3.63,7.53,7.53,0,0,1-4.75,1.39,11,11,0,0,1-3.59-.56,8.31,8.31,0,0,1-2.8-1.57V284H732l.28,2.56a4.47,4.47,0,0,0,2,1.15,8.84,8.84,0,0,0,2.53.36,5.39,5.39,0,0,0,3.36-.94,2.82,2.82,0,0,0,1.24-2.3,2.92,2.92,0,0,0-1-2.2,8.29,8.29,0,0,0-3.71-1.55,12.28,12.28,0,0,1-4.7-1.85A3.79,3.79,0,0,1,730.4,276a4.36,4.36,0,0,1,1.73-3.48,7,7,0,0,1,4.55-1.42,10.21,10.21,0,0,1,3.57.61,7.11,7.11,0,0,1,2.64,1.64Z"/><path class="cls-69" d="M751.43,266.84v4.6h3.91v1.62h-3.91v11.71a3.89,3.89,0,0,0,.63,2.5,2.14,2.14,0,0,0,1.69.74c.32,0,.62,0,.93-.05a9.74,9.74,0,0,0,1-.14l.29,1.48a4.72,4.72,0,0,1-1.19.33,8.51,8.51,0,0,1-1.42.12,3.64,3.64,0,0,1-2.91-1.2,5.63,5.63,0,0,1-1-3.78V273.06h-3.05v-1.62h3.05v-4.6Z"/><path class="cls-69" d="M771.23,289.4c-.13-.61-.23-1.13-.28-1.58a9.94,9.94,0,0,1-.08-1.34,8,8,0,0,1-2.63,2.34,7.39,7.39,0,0,1-3.7.93,5.66,5.66,0,0,1-4-1.36,4.87,4.87,0,0,1-1.43-3.69,4.56,4.56,0,0,1,2.12-3.95,10,10,0,0,1,5.75-1.46h3.93v-2.37a3.85,3.85,0,0,0-1.23-3,4.93,4.93,0,0,0-3.42-1.09,8.61,8.61,0,0,0-2.71.4,6.22,6.22,0,0,0-2,1.11l-.16,2.41h-1.63l0-3.46a10.25,10.25,0,0,1,2.94-1.56,11.06,11.06,0,0,1,3.66-.6,7.07,7.07,0,0,1,4.73,1.52,5.32,5.32,0,0,1,1.79,4.33v8.83c0,.37,0,.72,0,1.06a7.93,7.93,0,0,0,.1,1l1.78.12v1.46ZM764.76,288a7,7,0,0,0,3.76-1,5.86,5.86,0,0,0,2.35-2.57v-3.6h-4a7.31,7.31,0,0,0-4.28,1.12,3.34,3.34,0,0,0-1.6,2.83,3,3,0,0,0,1,2.33A4,4,0,0,0,764.76,288Z"/><path class="cls-69" d="M780.38,288.6a7.45,7.45,0,0,1-.62,3,7.21,7.21,0,0,1-1.68,2.47l-1.17-.86a8.63,8.63,0,0,0,1.15-2.17,7.54,7.54,0,0,0,.37-2.39v-2.36h2Z"/><path class="cls-69" d="M576.39,315.81l-2.26.35L578,327l.31,1.37h.11l.33-1.37,3.76-10.83-2.28-.35v-2.23h7.27v2.23l-1.55.27-6.31,16.52h-2.6l-6.38-16.52-1.55-.27v-2.23h7.27Z"/><path class="cls-69" d="M601.84,332.6c-.1-.52-.18-1-.24-1.39s-.1-.82-.12-1.23a8.3,8.3,0,0,1-2.48,2.14,7.06,7.06,0,0,1-7.65-.6,5.37,5.37,0,0,1-1.53-4.09,4.76,4.76,0,0,1,2.17-4.17,10.44,10.44,0,0,1,5.94-1.47h3.53v-2.22a3.46,3.46,0,0,0-1-2.64,4.11,4.11,0,0,0-2.91-1,6.86,6.86,0,0,0-2.27.34,4.23,4.23,0,0,0-1.59.91l-.37,2h-2.64v-3.7a10.34,10.34,0,0,1,3.11-1.66,12.37,12.37,0,0,1,4-.62,7.83,7.83,0,0,1,5.18,1.65,5.79,5.79,0,0,1,2,4.73v9.16c0,.24,0,.48,0,.72s0,.47,0,.7l1.39.2v2.21Zm-5.51-2.53a6,6,0,0,0,3.11-.83,5.13,5.13,0,0,0,2-2v-3.13h-3.65a5.18,5.18,0,0,0-3.33,1,3,3,0,0,0-1.23,2.39,2.39,2.39,0,0,0,.77,1.91A3.46,3.46,0,0,0,596.33,330.07Z"/><path class="cls-69" d="M608.51,330.39l2.83-.5V316.31l-2.83-.5v-2.23h5.91l.23,2.48A6.16,6.16,0,0,1,617,314a7.1,7.1,0,0,1,3.3-.74,5.74,5.74,0,0,1,3.23.88,5.31,5.31,0,0,1,2,2.63,7,7,0,0,1,2.35-2.56,6.12,6.12,0,0,1,3.4-.95,5.62,5.62,0,0,1,4.56,2c1.12,1.33,1.67,3.34,1.67,6v8.66l2.84.5v2.21h-9.12v-2.21l2.84-.5v-8.7a6.36,6.36,0,0,0-1-4,3.44,3.44,0,0,0-2.83-1.17,3.59,3.59,0,0,0-2.88,1.28,5.55,5.55,0,0,0-1.27,3.2v9.37l2.84.5v2.21h-9.1v-2.21l2.84-.5v-8.7a6.33,6.33,0,0,0-1-3.91,3.42,3.42,0,0,0-2.85-1.24,4.69,4.69,0,0,0-2.57.65,4.16,4.16,0,0,0-1.55,1.83v11.37l2.83.5v2.21h-9.09Z"/><path class="cls-69" d="M642.69,322.91a10.52,10.52,0,0,1,2.26-7,7.55,7.55,0,0,1,6.14-2.73,7.63,7.63,0,0,1,6.17,2.72,10.54,10.54,0,0,1,2.27,7v.39a10.51,10.51,0,0,1-2.26,7,8.35,8.35,0,0,1-12.32,0,10.47,10.47,0,0,1-2.26-6.95Zm3.42.39a9.08,9.08,0,0,0,1.27,5,4.51,4.51,0,0,0,7.45,0,9,9,0,0,0,1.27-5v-.39a9,9,0,0,0-1.27-5,4.17,4.17,0,0,0-3.74-2,4.12,4.12,0,0,0-3.72,2,9.1,9.1,0,0,0-1.26,5Z"/><path class="cls-69" d="M677.06,319.56h-2.57l-.56-2.29a4.63,4.63,0,0,0-1.57-1,6.06,6.06,0,0,0-2.15-.36,4,4,0,0,0-2.72.81,2.55,2.55,0,0,0-.88,1.95,2.19,2.19,0,0,0,.78,1.78,8.1,8.1,0,0,0,3.18,1.16,13.48,13.48,0,0,1,5.31,2.1,4.24,4.24,0,0,1,1.74,3.56,4.92,4.92,0,0,1-2,4.09,8.39,8.39,0,0,1-5.3,1.57,13.8,13.8,0,0,1-3.84-.5,10.3,10.3,0,0,1-3-1.45l0-4.34H666l.65,2.55a3.63,3.63,0,0,0,1.61.79,8.94,8.94,0,0,0,2.07.24,4.89,4.89,0,0,0,2.87-.74,2.32,2.32,0,0,0,1-2,2.4,2.4,0,0,0-.86-1.89,8,8,0,0,0-3.26-1.28,13.49,13.49,0,0,1-5.17-2.06,4.14,4.14,0,0,1-1.74-3.51,5,5,0,0,1,2-4,7.66,7.66,0,0,1,5.09-1.63,12.36,12.36,0,0,1,3.84.56,8.09,8.09,0,0,1,2.84,1.57Z"/><path class="cls-69" d="M698.13,330.26a4.61,4.61,0,0,0,3-1.06,3.26,3.26,0,0,0,1.29-2.61h3.08l0,.1a5.36,5.36,0,0,1-2.17,4.37,7.87,7.87,0,0,1-5.24,1.91,7.53,7.53,0,0,1-6.27-2.71,10.5,10.5,0,0,1-2.17-6.8v-.74a10.52,10.52,0,0,1,2.18-6.78,7.53,7.53,0,0,1,6.26-2.71,10.46,10.46,0,0,1,4.06.75,8.28,8.28,0,0,1,3,2.08l.16,4.22H702.6l-.75-3a4.61,4.61,0,0,0-1.57-1,6,6,0,0,0-2.15-.37,4.15,4.15,0,0,0-3.86,2,9.34,9.34,0,0,0-1.15,4.81v.74a9.4,9.4,0,0,0,1.15,4.86A4.12,4.12,0,0,0,698.13,330.26Z"/><path class="cls-69" d="M708.9,322.91a10.52,10.52,0,0,1,2.26-7,7.55,7.55,0,0,1,6.14-2.73,7.63,7.63,0,0,1,6.17,2.72,10.53,10.53,0,0,1,2.26,7v.39a10.46,10.46,0,0,1-2.26,7,8.33,8.33,0,0,1-12.31,0,10.47,10.47,0,0,1-2.26-6.95Zm3.42.39a9.08,9.08,0,0,0,1.26,5,4.52,4.52,0,0,0,7.46,0,9.08,9.08,0,0,0,1.27-5v-.39a9.1,9.1,0,0,0-1.27-5,4.18,4.18,0,0,0-3.74-2,4.12,4.12,0,0,0-3.72,2,9.1,9.1,0,0,0-1.26,5Z"/><path class="cls-69" d="M728.19,330.39l2.83-.5V316.31l-2.83-.5v-2.23h5.91l.23,2.48a6.16,6.16,0,0,1,2.33-2.09,7.1,7.1,0,0,1,3.3-.74,5.74,5.74,0,0,1,3.23.88,5.26,5.26,0,0,1,2,2.63,7,7,0,0,1,2.35-2.56,6.13,6.13,0,0,1,3.41-.95,5.61,5.61,0,0,1,4.55,2c1.12,1.33,1.67,3.34,1.67,6v8.66l2.84.5v2.21h-9.12v-2.21l2.84-.5v-8.7a6.36,6.36,0,0,0-1-4A3.44,3.44,0,0,0,750,316a3.59,3.59,0,0,0-2.88,1.28,5.47,5.47,0,0,0-1.26,3.2v9.37l2.83.5v2.21h-9.1v-2.21l2.84-.5v-8.7a6.33,6.33,0,0,0-1-3.91,3.42,3.42,0,0,0-2.85-1.24,4.69,4.69,0,0,0-2.57.65,4.23,4.23,0,0,0-1.55,1.83v11.37l2.84.5v2.21h-9.1Z"/><path class="cls-69" d="M771,333a7.89,7.89,0,0,1-6.26-2.65,10,10,0,0,1-2.32-6.86v-.77a9.84,9.84,0,0,1,2.39-6.76,7.34,7.34,0,0,1,5.66-2.7,7.08,7.08,0,0,1,5.75,2.32,9.26,9.26,0,0,1,2,6.19v2.16H765.92l0,.09a7.57,7.57,0,0,0,1.37,4.51,4.38,4.38,0,0,0,3.71,1.76,8.45,8.45,0,0,0,3-.5,7,7,0,0,0,2.27-1.38l1.34,2.25a8.07,8.07,0,0,1-2.67,1.66A10.6,10.6,0,0,1,771,333Zm-.53-17a3.72,3.72,0,0,0-2.94,1.47A7,7,0,0,0,766,321.1l0,.09h8.68v-.46a5.37,5.37,0,0,0-1.08-3.41A3.82,3.82,0,0,0,770.42,316Z"/><path class="cls-69" d="M790,330.26a4.57,4.57,0,0,0,3-1.06,3.28,3.28,0,0,0,1.3-2.61h3.07l0,.1a5.33,5.33,0,0,1-2.17,4.37A7.87,7.87,0,0,1,790,333a7.53,7.53,0,0,1-6.27-2.71,10.5,10.5,0,0,1-2.17-6.8v-.74a10.52,10.52,0,0,1,2.18-6.78,7.54,7.54,0,0,1,6.26-2.71A10.46,10.46,0,0,1,794,314a8.19,8.19,0,0,1,3,2.08l.16,4.22h-2.73l-.75-3a4.56,4.56,0,0,0-1.56-1A6.11,6.11,0,0,0,790,316a4.12,4.12,0,0,0-3.85,2,9.24,9.24,0,0,0-1.16,4.81v.74a9.4,9.4,0,0,0,1.15,4.86A4.12,4.12,0,0,0,790,330.26Zm.14,2.5-.21.91a3.52,3.52,0,0,1,1.88.92,2.81,2.81,0,0,1,.75,2.12,3.16,3.16,0,0,1-1.38,2.69,6.56,6.56,0,0,1-3.93,1l-.12-1.91a4.05,4.05,0,0,0,2-.43,1.4,1.4,0,0,0,.75-1.29,1.2,1.2,0,0,0-.62-1.18,6,6,0,0,0-2.14-.46l.55-2.37Z"/><path class="cls-69" d="M813,332.6c-.1-.52-.19-1-.24-1.39s-.1-.82-.12-1.23a8.42,8.42,0,0,1-2.48,2.14,7.06,7.06,0,0,1-7.65-.6,5.37,5.37,0,0,1-1.53-4.09,4.74,4.74,0,0,1,2.17-4.17,10.44,10.44,0,0,1,5.94-1.47h3.53v-2.22a3.43,3.43,0,0,0-1.05-2.64,4.07,4.07,0,0,0-2.9-1,6.82,6.82,0,0,0-2.27.34,4.08,4.08,0,0,0-1.59.91l-.37,2h-2.64v-3.7a10.22,10.22,0,0,1,3.11-1.66,12.37,12.37,0,0,1,4-.62,7.83,7.83,0,0,1,5.18,1.65,5.82,5.82,0,0,1,2,4.73v9.88c0,.23,0,.47.05.7l1.39.2v2.21Zm-5.51-2.53a6.06,6.06,0,0,0,3.11-.83,5.13,5.13,0,0,0,2-2v-3.13H809a5.23,5.23,0,0,0-3.34,1,3,3,0,0,0-1.22,2.39,2.39,2.39,0,0,0,.76,1.91A3.47,3.47,0,0,0,807.48,330.07Z"/><path class="cls-69" d="M820.33,315.81v-2.23h5.9l.33,2.76a6.6,6.6,0,0,1,2-2.28,4.51,4.51,0,0,1,2.69-.83,6,6,0,0,1,.83.06,5.63,5.63,0,0,1,.65.13l-.45,3.22-2-.11a3.88,3.88,0,0,0-2.28.65,4.12,4.12,0,0,0-1.43,1.8v10.91l2.84.5v2.21h-9.1v-2.21l2.84-.5V316.31Z"/><path class="cls-69" d="M843.94,322.91a10.52,10.52,0,0,1,2.26-7,7.55,7.55,0,0,1,6.14-2.73,7.63,7.63,0,0,1,6.17,2.72,10.54,10.54,0,0,1,2.27,7v.39a10.51,10.51,0,0,1-2.26,7,8.35,8.35,0,0,1-12.32,0,10.47,10.47,0,0,1-2.26-6.95Zm3.42.39a9.08,9.08,0,0,0,1.27,5,4.51,4.51,0,0,0,7.45,0,9,9,0,0,0,1.27-5v-.39a9,9,0,0,0-1.27-5,4.17,4.17,0,0,0-3.74-2,4.12,4.12,0,0,0-3.72,2,9.1,9.1,0,0,0-1.26,5Z"/><path class="cls-69" d="M878.75,309v4.59h3.56v2.57h-3.56V327.7a2.64,2.64,0,0,0,.54,1.88,2,2,0,0,0,1.46.54,6.29,6.29,0,0,0,1-.08c.38-.05.7-.11,1-.16l.47,2.37a4.47,4.47,0,0,1-1.42.52,9.32,9.32,0,0,1-1.88.2,4.44,4.44,0,0,1-3.33-1.28,5.56,5.56,0,0,1-1.23-4V316.15h-3v-2.57h3V309Z"/><path class="cls-69" d="M885.81,315.81v-2.23h5.9l.33,2.76a6.6,6.6,0,0,1,2-2.28,4.49,4.49,0,0,1,2.69-.83,6,6,0,0,1,.83.06,5.63,5.63,0,0,1,.65.13l-.46,3.22-1.94-.11a3.86,3.86,0,0,0-2.28.65,4.05,4.05,0,0,0-1.43,1.8v10.91l2.84.5v2.21h-9.1v-2.21l2.83-.5V316.31Z"/><path class="cls-69" d="M912.82,332.6c-.1-.52-.18-1-.24-1.39s-.1-.82-.12-1.23a8.3,8.3,0,0,1-2.48,2.14,7,7,0,0,1-7.64-.6,5.34,5.34,0,0,1-1.54-4.09,4.76,4.76,0,0,1,2.17-4.17,10.44,10.44,0,0,1,5.94-1.47h3.53v-2.22a3.46,3.46,0,0,0-1-2.64,4.11,4.11,0,0,0-2.91-1,6.9,6.9,0,0,0-2.27.34,4.23,4.23,0,0,0-1.59.91l-.36,2h-2.65v-3.7a10.28,10.28,0,0,1,3.12-1.66,12.31,12.31,0,0,1,4-.62,7.86,7.86,0,0,1,5.19,1.65,5.81,5.81,0,0,1,2,4.73v9.16c0,.24,0,.48,0,.72s0,.47,0,.7l1.39.2v2.21Zm-5.51-2.53a6,6,0,0,0,3.11-.83,5.07,5.07,0,0,0,2-2v-3.13h-3.65a5.22,5.22,0,0,0-3.33,1,3,3,0,0,0-1.23,2.39,2.39,2.39,0,0,0,.77,1.91A3.46,3.46,0,0,0,907.31,330.07Z"/><path class="cls-69" d="M937.39,323.81a10.57,10.57,0,0,1-2,6.64,6.43,6.43,0,0,1-5.38,2.52,6.84,6.84,0,0,1-3.2-.71,6.15,6.15,0,0,1-2.27-2.1l-.31,2.44h-3V307.9l-2.83-.49v-2.23h6.26v10.65a6,6,0,0,1,2.2-1.93,6.64,6.64,0,0,1,3.07-.67,6.25,6.25,0,0,1,5.43,2.81,12.75,12.75,0,0,1,1.95,7.4Zm-3.45-.37a10.61,10.61,0,0,0-1.18-5.34,3.91,3.91,0,0,0-3.62-2.06,4.55,4.55,0,0,0-2.67.77,5.54,5.54,0,0,0-1.73,2.08v8.4a5.3,5.3,0,0,0,1.75,2.09,4.52,4.52,0,0,0,2.69.78,4,4,0,0,0,3.59-1.74,8.14,8.14,0,0,0,1.17-4.61Z"/><path class="cls-69" d="M953.08,332.6c-.11-.52-.19-1-.25-1.39s-.09-.82-.12-1.23a8.3,8.3,0,0,1-2.48,2.14,7,7,0,0,1-7.64-.6,5.37,5.37,0,0,1-1.53-4.09,4.75,4.75,0,0,1,2.16-4.17,10.48,10.48,0,0,1,5.94-1.47h3.54v-2.22a3.43,3.43,0,0,0-1.05-2.64,4.07,4.07,0,0,0-2.9-1,6.82,6.82,0,0,0-2.27.34,4.2,4.2,0,0,0-1.6.91l-.36,2h-2.64v-3.7a10.1,10.1,0,0,1,3.11-1.66,12.37,12.37,0,0,1,4-.62,7.83,7.83,0,0,1,5.18,1.65,5.81,5.81,0,0,1,2,4.73v9.16c0,.24,0,.48,0,.72s0,.47,0,.7l1.4.2v2.21Zm-5.52-2.53a6.07,6.07,0,0,0,3.12-.83,5.13,5.13,0,0,0,2-2v-3.13H949a5.22,5.22,0,0,0-3.33,1,3,3,0,0,0-1.23,2.39,2.39,2.39,0,0,0,.77,1.91A3.46,3.46,0,0,0,947.56,330.07Z"/><path class="cls-69" d="M960,307.41v-2.23h6.26v24.71l2.84.5v2.21H960v-2.21l2.83-.5v-22Z"/><path class="cls-69" d="M971.17,330.39l2.83-.5v-22l-2.83-.49v-2.23h6.26v10.93a7.1,7.1,0,0,1,2.38-2.13,6.59,6.59,0,0,1,3.14-.75,6,6,0,0,1,4.69,1.83c1.12,1.22,1.67,3.09,1.67,5.62v9.21l2.84.5v2.21h-9.1v-2.21l2.84-.5v-9.24a5.16,5.16,0,0,0-1-3.48,3.81,3.81,0,0,0-3-1.13,5,5,0,0,0-2.56.68,5.51,5.51,0,0,0-1.91,1.84v11.33l2.84.5v2.21h-9.1Z"/><path class="cls-69" d="M994.48,322.91a10.52,10.52,0,0,1,2.26-7,7.55,7.55,0,0,1,6.14-2.73,7.63,7.63,0,0,1,6.17,2.72,10.54,10.54,0,0,1,2.27,7v.39a10.51,10.51,0,0,1-2.26,7,8.35,8.35,0,0,1-12.32,0,10.47,10.47,0,0,1-2.26-6.95Zm3.42.39a9.08,9.08,0,0,0,1.27,5,4.51,4.51,0,0,0,7.45,0,9,9,0,0,0,1.27-5v-.39a9,9,0,0,0-1.27-5,4.17,4.17,0,0,0-3.74-2,4.12,4.12,0,0,0-3.72,2,9.1,9.1,0,0,0-1.26,5Z"/><path class="cls-69" d="M1018.81,324.2h-3.42V307h3.42Zm0,8.4h-3.42V329h3.42Z"/><g class="cls-70"><path class="cls-71" d="M329.94,510.18s.78-10,4.41-10.57l24.22,31.55-9.37,5.44Z"/><path class="cls-67" d="M153.53,566.53s24.48-21.86,24.48-27-14.35-8.34-14.35-8.34l-20.41,29.5,9.58,7.33Z"/><path class="cls-69" d="M176.44,360.74s-46.9-131.84,7.44-198.9c0,0,58.11-39.81,101.53,7s13,178.54,13,178.54Z"/><g class="cls-72"><polygon class="cls-73" points="293.71 313.64 293.74 313.95 182.31 324.32 182.31 313.64 293.71 313.64"/><polygon class="cls-73" points="293.74 313.95 293.78 314.33 293.78 314.76 182.31 325.13 182.31 324.32 293.74 313.95"/><polygon class="cls-74" points="293.78 315.57 182.31 325.95 182.31 325.13 293.78 314.76 293.78 315.57"/><polygon class="cls-75" points="293.78 316.39 182.31 326.76 182.31 325.95 293.78 315.57 293.78 316.39"/><polygon class="cls-76" points="293.78 317.2 182.31 327.57 182.31 326.76 293.78 316.39 293.78 317.2"/><polygon class="cls-77" points="293.78 318.01 182.31 328.39 182.31 327.57 293.78 317.2 293.78 318.01"/><polygon class="cls-78" points="293.78 318.83 182.31 329.2 182.31 328.39 293.78 318.01 293.78 318.83"/><polygon class="cls-79" points="293.78 319.64 182.31 330.01 182.31 329.2 293.78 318.83 293.78 319.64"/><polygon class="cls-80" points="293.78 320.45 182.31 330.83 182.31 330.01 293.78 319.64 293.78 320.45"/><polygon class="cls-81" points="293.78 321.27 182.31 331.64 182.31 330.83 293.78 320.45 293.78 321.27"/><polygon class="cls-82" points="293.78 322.08 182.31 332.45 182.31 331.64 293.78 321.27 293.78 322.08"/><polygon class="cls-83" points="293.78 322.89 182.31 333.27 182.31 332.45 293.78 322.08 293.78 322.89"/><polygon class="cls-84" points="293.78 323.71 182.31 334.08 182.31 333.27 293.78 322.89 293.78 323.71"/><polygon class="cls-85" points="293.78 324.52 182.31 334.89 182.31 334.08 293.78 323.71 293.78 324.52"/><polygon class="cls-86" points="293.78 325.33 182.31 335.71 182.31 334.89 293.78 324.52 293.78 325.33"/><polygon class="cls-87" points="293.78 326.14 182.31 336.52 182.31 335.71 293.78 325.33 293.78 326.14"/><polygon class="cls-88" points="293.78 326.96 182.31 337.33 182.31 336.52 293.78 326.14 293.78 326.96"/><polygon class="cls-89" points="293.78 327.77 182.31 338.14 182.31 337.33 293.78 326.96 293.78 327.77"/><polygon class="cls-90" points="293.78 328.58 182.31 338.96 182.31 338.14 293.78 327.77 293.78 328.58"/><polygon class="cls-91" points="293.78 329.4 182.31 339.77 182.31 338.96 293.78 328.58 293.78 329.4"/><polygon class="cls-92" points="293.78 330.21 182.31 340.58 182.31 339.77 293.78 329.4 293.78 330.21"/><polygon class="cls-93" points="293.78 331.02 182.31 341.4 182.31 340.58 293.78 330.21 293.78 331.02"/><polygon class="cls-94" points="293.78 331.84 182.31 342.21 182.31 341.4 293.78 331.02 293.78 331.84"/><polygon class="cls-95" points="293.78 332.65 182.31 343.02 182.31 342.21 293.78 331.84 293.78 332.65"/><polygon class="cls-95" points="184.35 386.21 182.31 364.39 182.31 343.02 293.78 332.65 293.78 386.21 184.35 386.21"/></g><path class="cls-95" d="M182.6,222.54s-.88,110.78,64.76,101.68c35.49-4.92,47.51-40.41,40.88-70.91a191.62,191.62,0,0,1-3.79-46.77s-4.08-29.37-38.7-20.3S196.11,192,196.11,192,180.54,195.13,182.6,222.54Z"/><path class="cls-69" d="M177.07,228.73s25.09-2.78,36.43-7.67l.58-15.4s2.55,9.93,4.85,12.41,22.88-.74,32-3.59,4.81-14.7,4.81-14.7l4.34,11.86s28.57,3.44,28.73-.93S285,186,276.62,182s-73.88-4.43-83.08,4.1S177.53,216.52,177.07,228.73Z"/><ellipse class="cls-96" cx="262.95" cy="244.39" rx="3.92" ry="3.17" transform="translate(-22.42 26.6) rotate(-5.56)"/><ellipse class="cls-96" cx="223.88" cy="248.1" rx="3.92" ry="3.17" transform="translate(-22.97 22.84) rotate(-5.56)"/><path class="cls-97" d="M250.55,278.83a15.34,15.34,0,0,1-5.17-.8l.35-.94c5.16,1.92,13.88,0,15.56-3.33,1.13-2.28-1.44-4.53-3.78-6-6.89-4.38-5.32-8.93-5.25-9.13l.94.35c0,.16-1.33,4,4.84,7.94,4.88,3.1,4.95,5.69,4.14,7.31C260.72,277.15,255.37,278.83,250.55,278.83Z"/><path class="cls-98" d="M262,289.89c-18.37,4.75-31.32.71-30.6,2,0,0-.78,13.73,15.42,13.63C263.55,305.45,262,289.89,262,289.89Z"/><path class="cls-67" d="M219.38,333.59s22.52,13.65,36.94,11.8c6.84-.87,18.95-14,18.95-14l13,129.74-49.8,2.24Z"/><path class="cls-3" d="M172.66,557.55S155.05,630.13,157,650s4.68,52.17,34,146c0,0,78.26,32.38,150.2-.81,0,0,6.29-1.86,10.91-43.81s12.42-142.59-8.72-187.47S172.66,557.55,172.66,557.55Z"/><path class="cls-69" d="M270.81,230.55s-4.74-6.21-9.75-3.11a.89.89,0,0,0-.58,1.12c.25.84,1.91-1.63,9.83,2.73C270.31,231.29,270.81,231.58,270.81,230.55Z"/><path class="cls-69" d="M213.93,234s4.75-6.2,9.75-3.1a.89.89,0,0,1,.58,1.12c-.25.83-1.91-1.64-9.83,2.73C214.43,234.73,213.93,235,213.93,234Z"/><path class="cls-67" d="M259.62,290.44s-.65,3.21-2,4.12-15.59,1.66-24.11,1c-2.87-.24-2.32-2.92-2.18-3.89C231.35,291.63,246.09,293.49,259.62,290.44Z"/><path class="cls-99" d="M251.34,305.09s-1.86-9.5-19.13-7C232.21,298.13,235.94,307.82,251.34,305.09Z"/><ellipse class="cls-100" cx="281.01" cy="254.61" rx="3.62" ry="6.23" transform="translate(3.96 513.52) rotate(-85.24)"/><ellipse class="cls-100" cx="214.79" cy="263.85" rx="6.23" ry="3.62" transform="translate(-52.96 53.94) rotate(-12.76)"/><path class="cls-101" d="M334.61,435.84,357,461.35s-6.12,9.16-12,18.65c-6.27,10.12-15.54,20.35-13.57,20.57,4,.44,26.78,31.77,26.78,31.77l28-38s21.11-33.38,20.75-37-18.37-28.47-24.44-34.21c-3.74-3.54-9.95-8.73-15.17-16.12-29.22-41.32-56.53-70.82-58.39-72.35s-11-6.17-14.23-4.64-19.19,1.4-19.19,1.4l2.64,115.37L219.63,333.58s-12.56,4.34-26.08,2.61-36.24,3.62-36.24,3.62-10.24,27.71-17.55,29.81-11,20.26-11,20.26c-2.17,2.65-10.18,14.08-19.61,27.71h0s-37.48,45.94-43,49.92S63.56,481,63.56,481l78.84,83.79,27.83-35.52c-7.13-.49-43.13-49.77-43.13-49.77,2.53-4.53,2.3-8.25,1.56-10.71,17.3-18.49,42.63-47.19,42.63-47.19.41,4.07,6.47,16.8,16.93,32.52s9.69,42.14,9.69,42.14c-14.94,21.68-25,61.34-25,61.34s1,7.93,26.28,20.55c11,5.5,46.51,16.31,46.51,16.31l39.46-43.29,50.78,35.64s9.12-9.12,8.21-18.27S325.71,505,325.71,505s-1.89-19,.27-24.66S334.61,435.84,334.61,435.84Z"/><path class="cls-73" d="M153.53,566.53s12.2,10.71,14.67,8.24l12.43-35.2S165.06,550.81,153.53,566.53Z"/><path class="cls-95" d="M170.88,567.7s5.9-5.86,14.86,2.8,9.68,9.26,9.68,9.26,7,2.88,7.52-4.62c0,0,8.8,1.29,6.83-8.4,0,0,6.13-4.42.7-12,0,0,5.51-1.05,2.24-11.46s-24-20.47-24-20.47-9.94-3.49-10.82,8.08c0,0-7.16.37-4.66,10.37,0,0-4.65,4.21-3.65,8.77s-.11,3.67-.11,3.67S162.79,561.13,170.88,567.7Z"/><path class="cls-97" d="M202.56,575.46c-.11-.13-11.87-13.67-24.48-19.79l.44-.9c12.79,6.21,24.68,19.9,24.8,20Z"/><path class="cls-97" d="M209.42,567.1c-.17-.16-17.14-16.09-29.48-22.74l.48-.88c12.45,6.71,29.52,22.74,29.69,22.9Z"/><path class="cls-97" d="M210.09,555c-.15-.17-15.21-17.9-27.55-21.75l.3-1c12.61,4,27.39,21.33,28,22.07Z"/><path class="cls-95" d="M347.86,556.51l-16.17,4.75s-6.95,2.88-7.52-4.62c0,0-8.8,1.29-6.82-8.4,0,0-6.14-4.42-.71-12,0,0-5.51-1.05-2.24-11.46s15.67-13.15,15.67-13.15,9.94-3.49,10.82,8.07c0,0,7.16.38,4.66,10.37,0,0,4.65,4.21,3.65,8.78s.11,3.66.11,3.66S356,549.94,347.86,556.51Z"/><path class="cls-97" d="M324.44,557.06l-.54-.84A275.78,275.78,0,0,1,349.09,542l.44.9A276.26,276.26,0,0,0,324.44,557.06Z"/><path class="cls-97" d="M317.64,548.64l-.59-.8c.16-.12,15.84-11.55,28.27-18.25l.47.88C333.42,537.14,317.8,548.53,317.64,548.64Z"/><path class="cls-97" d="M317.07,536.46l-.86-.51c.09-.16,9.39-15.38,24.63-16.79l.09,1C326.2,521.52,317.16,536.31,317.07,536.46Z"/><path class="cls-102" d="M219.38,333.59S195.23,345.24,182.15,365l44.38,12.67s-15.11,14.85-14.79,18.07,66.17,51,66.17,51,33.54-61.51,29.81-64.56-24.29-6.81-24.29-6.81,19.48-27.6,22.87-27.94-28-16.36-31-16.06,2.52,110.28,2.52,110.28l-.15,2.38Z"/><path class="cls-3" d="M277.91,446.79s9.26,81.81,7,104.33"/><circle class="cls-102" cx="291.65" cy="471.48" r="5.33"/><circle class="cls-102" cx="293.78" cy="509.48" r="5.33"/><path class="cls-103" d="M173.81,404.74l-1-.23a76.63,76.63,0,0,0-11.55-60.86l.82-.57A77.66,77.66,0,0,1,173.81,404.74Z"/><path class="cls-103" d="M329.09,406.93l-1-.09c1.1-12.29-3.36-24.57-7.3-35.4-4.66-12.82-10-27.35-20.07-37.88l.72-.7c10.27,10.69,15.59,25.32,20.29,38.23C325.7,382,330.21,394.42,329.09,406.93Z"/><path class="cls-103" d="M146.32,377a27.46,27.46,0,0,0-3.49-7l.82-.57a28.62,28.62,0,0,1,3.62,7.2Z"/><path class="cls-103" d="M136,392.63a35.43,35.43,0,0,0-6.08-.83l0-1a35.48,35.48,0,0,1,6.25.86Z"/><path class="cls-103" d="M334.44,441l-1-.12a73,73,0,0,0,.43-11.92l1-.05A75.14,75.14,0,0,1,334.44,441Z"/><path class="cls-103" d="M355.5,460.4l-.14-1a76.2,76.2,0,0,1,12.07-.73l0,1A73,73,0,0,0,355.5,460.4Z"/><path class="cls-103" d="M365,468.05a59.33,59.33,0,0,0-8.69-6.35l.51-.86a61.54,61.54,0,0,1,8.84,6.45Z"/><path class="cls-103" d="M200.41,496.57l-.52-.85a60,60,0,0,1,11.6-5.55l.33.94A59.49,59.49,0,0,0,200.41,496.57Z"/><path class="cls-103" d="M127.77,469.24c-2.32,0-10-.2-12.54-2.74l.7-.71c2.66,2.65,12.37,2.44,12.47,2.45l0,1Z"/><path class="cls-103" d="M118.83,482.89v-1c3.43,0,7.7-2.82,7.74-2.85l.56.83C126.94,480,122.56,482.89,118.83,482.89Z"/></g></g></svg>