<svg xmlns="http://www.w3.org/2000/svg" xmlns:xlink="http://www.w3.org/1999/xlink" viewBox="0 0 1124.64 651.26"><defs><style>.cls-1{fill:none;}.cls-2{fill:#dd7a7a;}.cls-3{fill:#c6b366;}.cls-4{clip-path:url(#clip-path);}.cls-5{fill:#fff3c2;}.cls-6{fill:#fff3c3;}.cls-7{fill:#fff3c4;}.cls-8{fill:#fff4c5;}.cls-9{fill:#fff4c6;}.cls-10{fill:#fff4c7;}.cls-11{fill:#fff4c8;}.cls-12{fill:#fff4c9;}.cls-13{fill:#fff5ca;}.cls-14{fill:#fff5cb;}.cls-15{fill:#fff5cc;}.cls-16{fill:#fff5cd;}.cls-17{fill:#fff5ce;}.cls-18{fill:#fff6cf;}.cls-19{fill:#fff6d0;}.cls-20{fill:#fff6d1;}.cls-21{fill:#fff6d2;}.cls-22{fill:#fff6d3;}.cls-23{fill:#fff7d4;}.cls-24{fill:#fff7d5;}.cls-25{fill:#fff7d6;}.cls-26{fill:#fff7d7;}.cls-27{fill:#fff7d8;}.cls-28{fill:#fff8d9;}.cls-29{fill:#fff8da;}.cls-30{fill:#fff8db;}.cls-31{fill:#fff8dc;}.cls-32{fill:#fff8dd;}.cls-33{fill:#fff9de;}.cls-34{fill:#fff9df;}.cls-35{fill:#fff9e0;}.cls-36{fill:#fff9e2;}.cls-37{fill:#fff9e3;}.cls-38{fill:#fffae4;}.cls-39{fill:#fffae5;}.cls-40{fill:#fffae6;}.cls-41{fill:#fffae7;}.cls-42{fill:#fffae8;}.cls-43{fill:#fffbe9;}.cls-44{fill:#fffbea;}.cls-45{fill:#fffbeb;}.cls-46{fill:#fffbec;}.cls-47{fill:#fffbed;}.cls-48{fill:#fffcee;}.cls-49{fill:#fffcef;}.cls-50{fill:#fffcf0;}.cls-51{fill:#fffcf1;}.cls-52{fill:#fffcf2;}.cls-53{fill:#fffdf3;}.cls-54{fill:#fffdf4;}.cls-55{fill:#fffdf5;}.cls-56{fill:#fffdf6;}.cls-57{fill:#fffdf7;}.cls-58{fill:#fffef8;}.cls-59{fill:#fffef9;}.cls-60{fill:#fffefa;}.cls-61{fill:#fffefb;}.cls-62{fill:#fffefc;}.cls-63{fill:#fffffd;}.cls-64{fill:#fffffe;}.cls-65{fill:#fff;}.cls-66{fill:#ffeda1;}.cls-67{clip-path:url(#clip-path-2);}.cls-68{fill:#ef9777;}.cls-69{fill:#3a1e1c;}.cls-70{clip-path:url(#clip-path-3);}.cls-71{fill:#d88268;}.cls-72{fill:#d98369;}.cls-73{fill:#da8469;}.cls-74{fill:#db856a;}.cls-75{fill:#dc866b;}.cls-76{fill:#dd876b;}.cls-77{fill:#de886c;}.cls-78{fill:#df896d;}.cls-79{fill:#e08a6d;}.cls-80{fill:#e18b6e;}.cls-81{fill:#e28c6f;}.cls-82{fill:#e48d70;}.cls-83{fill:#e58d70;}.cls-84{fill:#e68e71;}.cls-85{fill:#e78f72;}.cls-86{fill:#e89072;}.cls-87{fill:#e99173;}.cls-88{fill:#ea9274;}.cls-89{fill:#eb9374;}.cls-90{fill:#ec9475;}.cls-91{fill:#ed9576;}.cls-92{fill:#ee9676;}.cls-93{fill:#3d201f;}.cls-94{fill:#b5574d;}.cls-95{fill:#b3514e;}.cls-96{fill:#312235;}.cls-97{fill:#fc999c;}.cls-98{fill:#f9aaaa;}.cls-99{fill:#822222;}.cls-100{fill:#9b3737;}.cls-101{fill:#5b1f3c;}.cls-102{fill:#fffdfd;}.cls-103{clip-path:url(#clip-path-4);}.cls-104{fill:#ce7061;}</style><clipPath id="clip-path"><path class="cls-1" d="M428.87,402.79a192.51,192.51,0,0,0-5.05-43.86c-32.69-73-109.23-124.15-198.45-124.15C106.43,234.78,10,325.78,10,438a193.16,193.16,0,0,0,5,43.87C47.74,554.84,124.28,606,213.5,606,332.44,606,428.87,515,428.87,402.79Z"/></clipPath><clipPath id="clip-path-2"><path class="cls-1" d="M540.86,351.81c-10.3-18-97.34-31.5-97.34-31.5S301.2,131.55,232.19,138s-80.25,56.59-80.25,56.59l-32.63,66.55C54,296,10,362.17,10,438c0,112.25,96.43,203.24,215.37,203.24,117.57,0,213.12-88.9,215.32-199.34C473,419.61,548.81,365.68,540.86,351.81Z"/></clipPath><clipPath id="clip-path-3"><path class="cls-1" d="M227.68,319.63l-2.36,9.78s-19.92,12.9-37.91,11.87c-5.34-.3,67.76,42.8,71.74,43s34.38-50.16,34.38-50.16-20.41-3.73-27.17-4-14.47-18.28-14.47-18.28Z"/></clipPath><clipPath id="clip-path-4"><path class="cls-1" d="M541.11-404.43c-10.3-18-97.34-31.5-97.34-31.5S301.45-624.7,232.44-618.27s-80.25,56.59-80.25,56.59l-32.63,66.55C54.29-460.21,10.25-394.07,10.25-318.22,10.25-206,106.68-115,225.62-115c117.57,0,213.12-88.9,215.32-199.35C473.29-336.63,549.06-390.56,541.11-404.43Z"/></clipPath></defs><title>M1-fala2</title><g id="Camada_5" data-name="Camada 5"><path class="cls-2" d="M225.37,234.78c119,0,215.37,91,215.37,203.24S344.32,641.26,225.37,641.26,10,550.27,10,438s96.42-203.24,215.37-203.24m0-10a235.1,235.1,0,0,0-87.54,16.69A225.72,225.72,0,0,0,66.22,287,212.37,212.37,0,0,0,17.8,354.82a203.34,203.34,0,0,0,0,166.4A212.3,212.3,0,0,0,66.22,589a225.89,225.89,0,0,0,71.61,45.57,238.05,238.05,0,0,0,175.08,0A225.94,225.94,0,0,0,384.53,589a212.12,212.12,0,0,0,48.41-67.79,203.34,203.34,0,0,0,0-166.4A212.19,212.19,0,0,0,384.53,287a225.76,225.76,0,0,0-71.62-45.57,235.1,235.1,0,0,0-87.54-16.69Z"/><ellipse class="cls-3" cx="225.37" cy="438.02" rx="215.37" ry="203.24"/><g class="cls-4"><rect class="cls-5" x="10" y="234.78" width="418.87" height="371.24"/><path class="cls-5" d="M206.79,475.71a120.37,120.37,0,1,1,167,33A120.37,120.37,0,0,1,206.79,475.71Z"/><path class="cls-6" d="M208.43,474.61a118.4,118.4,0,1,1,164.26,32.46A118.39,118.39,0,0,1,208.43,474.61Z"/><path class="cls-7" d="M210.07,473.51a116.43,116.43,0,1,1,161.52,31.92A116.42,116.42,0,0,1,210.07,473.51Z"/><path class="cls-8" d="M211.71,472.41A114.45,114.45,0,1,1,370.5,503.79,114.44,114.44,0,0,1,211.71,472.41Z"/><circle class="cls-9" cx="306.79" cy="408.71" r="112.48"/><circle class="cls-10" cx="306.79" cy="408.71" r="110.5"/><circle class="cls-11" cx="306.79" cy="408.71" r="108.53"/><circle class="cls-12" cx="306.79" cy="408.71" r="106.56"/><circle class="cls-13" cx="306.79" cy="408.71" r="104.58"/><circle class="cls-14" cx="306.79" cy="408.71" r="102.61"/><circle class="cls-15" cx="306.79" cy="408.71" r="100.64"/><circle class="cls-16" cx="306.79" cy="408.71" r="98.66"/><circle class="cls-17" cx="306.79" cy="408.71" r="96.69"/><circle class="cls-18" cx="306.79" cy="408.71" r="94.72"/><circle class="cls-19" cx="306.79" cy="408.71" r="92.74"/><circle class="cls-20" cx="306.79" cy="408.71" r="90.77"/><circle class="cls-21" cx="306.79" cy="408.71" r="88.8"/><circle class="cls-22" cx="306.79" cy="408.71" r="86.82"/><circle class="cls-23" cx="306.79" cy="408.71" r="84.85"/><circle class="cls-24" cx="306.79" cy="408.71" r="82.88"/><circle class="cls-25" cx="306.79" cy="408.71" r="80.9"/><circle class="cls-26" cx="306.79" cy="408.71" r="78.93"/><circle class="cls-27" cx="306.79" cy="408.71" r="76.96"/><circle class="cls-28" cx="306.79" cy="408.71" r="74.98"/><circle class="cls-29" cx="306.79" cy="408.71" r="73.01"/><circle class="cls-30" cx="306.79" cy="408.71" r="71.04"/><circle class="cls-31" cx="306.79" cy="408.71" r="69.06"/><circle class="cls-32" cx="306.79" cy="408.71" r="67.09"/><circle class="cls-33" cx="306.79" cy="408.71" r="65.12"/><circle class="cls-34" cx="306.79" cy="408.71" r="63.15"/><circle class="cls-35" cx="306.79" cy="408.71" r="61.17"/><circle class="cls-36" cx="306.79" cy="408.71" r="59.2"/><circle class="cls-37" cx="306.79" cy="408.71" r="57.23"/><circle class="cls-38" cx="306.79" cy="408.71" r="55.25"/><circle class="cls-39" cx="306.79" cy="408.71" r="53.28"/><circle class="cls-40" cx="306.79" cy="408.71" r="51.31"/><circle class="cls-41" cx="306.79" cy="408.71" r="49.33"/><circle class="cls-42" cx="306.79" cy="408.71" r="47.36"/><circle class="cls-43" cx="306.79" cy="408.71" r="45.39"/><circle class="cls-44" cx="306.79" cy="408.71" r="43.41"/><circle class="cls-45" cx="306.79" cy="408.71" r="41.44"/><circle class="cls-46" cx="306.79" cy="408.71" r="39.47"/><circle class="cls-47" cx="306.79" cy="408.71" r="37.49"/><circle class="cls-48" cx="306.79" cy="408.71" r="35.52"/><circle class="cls-49" cx="306.79" cy="408.71" r="33.55"/><circle class="cls-50" cx="306.79" cy="408.71" r="31.57"/><circle class="cls-51" cx="306.79" cy="408.71" r="29.6"/><circle class="cls-52" cx="306.79" cy="408.71" r="27.63"/><circle class="cls-53" cx="306.79" cy="408.71" r="25.65"/><circle class="cls-54" cx="306.79" cy="408.71" r="23.68"/><circle class="cls-55" cx="306.79" cy="408.71" r="21.71"/><circle class="cls-56" cx="306.79" cy="408.71" r="19.73"/><circle class="cls-57" cx="306.79" cy="408.71" r="17.76"/><circle class="cls-58" cx="306.79" cy="408.71" r="15.79"/><circle class="cls-59" cx="306.79" cy="408.71" r="13.81"/><circle class="cls-60" cx="306.79" cy="408.71" r="11.84"/><circle class="cls-61" cx="306.79" cy="408.71" r="9.87"/><circle class="cls-62" cx="306.79" cy="408.71" r="7.89"/><circle class="cls-63" cx="306.79" cy="408.71" r="5.92"/><circle class="cls-64" cx="306.79" cy="408.71" r="3.95"/><circle class="cls-65" cx="306.79" cy="408.71" r="1.97"/></g><path class="cls-3" d="M787.8,44.22c-174.89,0-318.64,118.13-335.23,269.27L353,353.14s-6.51,2.41-5.85,11.74a12.7,12.7,0,0,0,7.43,10.89L458.82,407C492,541,626.68,641.26,787.8,641.26c186,0,336.84-133.65,336.84-298.52S973.83,44.22,787.8,44.22Z"/><path class="cls-66" d="M787.75,0C612.85,0,469.11,118.13,452.52,269.27L353,308.92s-6.51,2.41-5.86,11.74a12.7,12.7,0,0,0,7.44,10.88l104.21,31.28C492,496.78,626.63,597,787.75,597c186,0,336.84-133.65,336.84-298.52S973.78,0,787.75,0Z"/><g class="cls-67"><path class="cls-68" d="M534.21,352.94a18,18,0,0,0-2.21-1.87,19.39,19.39,0,0,0-1.77-1.13A22.73,22.73,0,0,0,526,348.1a17.85,17.85,0,0,0-2.86-.67s-45.4,6.11-38.5,3-1.62-3.79-1.62-3.79-21.76,4.67-30,9.17c-5.48,3-12.26,25.5-12.26,25.5L453,395.57s13.81-9.68,18.89-14.76c3.66-3.66,20.55-3.28,33.25-5.34,4.95-.8,12.12-3.69,14.92-4.36,3.25-.78,3.54-3.18,6.58-5.16a30.6,30.6,0,0,0,4.82-3.82c1.7-1.67,1.32-1.57,1.87-3.17.27-.79,1.73-2.75,1.7-3.67A3.43,3.43,0,0,0,534.21,352.94Zm-19.63,13.12s-16.06,2.81-17-.63c-2.53,1,21.79-1.33,28.2-3.88Z"/><path class="cls-65" d="M153.28,564.7s24.48-21.86,24.48-27-14.35-8.35-14.35-8.35L143,558.89l9.58,7.33Z"/><path class="cls-69" d="M175.94,358.82S129,227,183.38,159.92c0,0,58.11-39.81,101.53,7s13,178.54,13,178.54Z"/><g class="cls-70"><polygon class="cls-71" points="293.46 311.8 293.49 312.12 182.06 322.49 182.06 311.8 293.46 311.8"/><polygon class="cls-71" points="293.49 312.12 293.53 312.49 293.53 312.93 182.06 323.3 182.06 322.49 293.49 312.12"/><polygon class="cls-72" points="293.53 313.74 182.06 324.11 182.06 323.3 293.53 312.93 293.53 313.74"/><polygon class="cls-73" points="293.53 314.55 182.06 324.93 182.06 324.11 293.53 313.74 293.53 314.55"/><polygon class="cls-74" points="293.53 315.37 182.06 325.74 182.06 324.93 293.53 314.55 293.53 315.37"/><polygon class="cls-75" points="293.53 316.18 182.06 326.55 182.06 325.74 293.53 315.37 293.53 316.18"/><polygon class="cls-76" points="293.53 316.99 182.06 327.37 182.06 326.55 293.53 316.18 293.53 316.99"/><polygon class="cls-77" points="293.53 317.81 182.06 328.18 182.06 327.37 293.53 316.99 293.53 317.81"/><polygon class="cls-78" points="293.53 318.62 182.06 328.99 182.06 328.18 293.53 317.81 293.53 318.62"/><polygon class="cls-79" points="293.53 319.43 182.06 329.81 182.06 328.99 293.53 318.62 293.53 319.43"/><polygon class="cls-80" points="293.53 320.24 182.06 330.62 182.06 329.81 293.53 319.43 293.53 320.24"/><polygon class="cls-81" points="293.53 321.06 182.06 331.43 182.06 330.62 293.53 320.24 293.53 321.06"/><polygon class="cls-82" points="293.53 321.87 182.06 332.24 182.06 331.43 293.53 321.06 293.53 321.87"/><polygon class="cls-83" points="293.53 322.68 182.06 333.06 182.06 332.24 293.53 321.87 293.53 322.68"/><polygon class="cls-84" points="293.53 323.5 182.06 333.87 182.06 333.06 293.53 322.68 293.53 323.5"/><polygon class="cls-85" points="293.53 324.31 182.06 334.68 182.06 333.87 293.53 323.5 293.53 324.31"/><polygon class="cls-86" points="293.53 325.12 182.06 335.5 182.06 334.68 293.53 324.31 293.53 325.12"/><polygon class="cls-87" points="293.53 325.94 182.06 336.31 182.06 335.5 293.53 325.12 293.53 325.94"/><polygon class="cls-88" points="293.53 326.75 182.06 337.12 182.06 336.31 293.53 325.94 293.53 326.75"/><polygon class="cls-89" points="293.53 327.56 182.06 337.94 182.06 337.12 293.53 326.75 293.53 327.56"/><polygon class="cls-90" points="293.53 328.38 182.06 338.75 182.06 337.94 293.53 327.56 293.53 328.38"/><polygon class="cls-91" points="293.53 329.19 182.06 339.56 182.06 338.75 293.53 328.38 293.53 329.19"/><polygon class="cls-92" points="293.53 330 182.06 340.38 182.06 339.56 293.53 329.19 293.53 330"/><polygon class="cls-68" points="293.53 330.82 182.06 341.19 182.06 340.38 293.53 330 293.53 330.82"/><polygon class="cls-68" points="184.1 384.38 182.06 362.56 182.06 341.19 293.53 330.82 293.53 384.38 184.1 384.38"/></g><path class="cls-68" d="M182.35,220.71s-.88,110.78,64.76,101.68C282.6,317.47,294.62,282,288,251.47a191.55,191.55,0,0,1-3.79-46.76s-4.08-29.37-38.7-20.31-49.64,5.72-49.64,5.72S180.29,193.3,182.35,220.71Z"/><path class="cls-69" d="M176.82,226.89s25.09-2.78,36.43-7.67l.58-15.39s2.55,9.93,4.85,12.4,22.88-.73,32-3.58,4.81-14.7,4.81-14.7l4.33,11.85s28.58,3.45,28.74-.93-3.86-24.71-12.21-28.74-73.88-4.44-83.08,4.1S177.28,214.69,176.82,226.89Z"/><ellipse class="cls-93" cx="265.7" cy="242.56" rx="3.92" ry="3.17" transform="translate(-22.23 26.86) rotate(-5.56)"/><ellipse class="cls-93" cx="226.63" cy="246.26" rx="3.92" ry="3.17" transform="translate(-22.78 23.1) rotate(-5.56)"/><path class="cls-94" d="M250.3,277a15.34,15.34,0,0,1-5.17-.8l.35-.94c5.16,1.91,13.88,0,15.56-3.34,1.13-2.27-1.44-4.53-3.78-6-6.89-4.38-5.32-8.94-5.25-9.13l.94.34c0,.16-1.33,4,4.84,7.95,4.88,3.1,4.95,5.68,4.14,7.31C260.47,275.31,255.12,277,250.3,277Z"/><path class="cls-95" d="M264.7,287.05c-18.37,4.76-37.46.2-36.73,1.53,0,0,1.77,14.25,18,14.15C262.72,302.62,264.7,287.05,264.7,287.05Z"/><path class="cls-65" d="M219.13,331.75s22.52,13.66,36.94,11.81c6.84-.88,18.95-14,18.95-14l13,129.73-49.8,2.24Z"/><path class="cls-96" d="M172.41,555.72s-17.61,72.57-15.63,92.45,4.68,52.17,34,145.94c0,0,78.25,32.39,150.2-.8,0,0,6.29-1.86,10.91-43.82S364.32,606.9,343.18,562,172.41,555.72,172.41,555.72Z"/><path class="cls-69" d="M274.56,219.71s-4.74-6.2-9.75-3.1a.89.89,0,0,0-.58,1.12c.25.83,1.91-1.64,9.83,2.73C274.06,220.46,274.56,220.75,274.56,219.71Z"/><path class="cls-69" d="M214.68,224.15s4.75-6.21,9.75-3.11a.89.89,0,0,1,.58,1.12c-.25.84-1.91-1.63-9.83,2.73C215.18,224.89,214.68,225.18,214.68,224.15Z"/><path class="cls-65" d="M262.37,287.6s-.65,3.21-2,4.13-15.62,2-24.11.95c-5.38-.66-6.4-3.32-6.26-4.3C230,288.38,248.84,290.65,262.37,287.6Z"/><path class="cls-97" d="M249.13,302.5s-1.22-9.7-18.49-7.16C230.64,295.34,234.77,304.19,249.13,302.5Z"/><ellipse class="cls-98" cx="280.76" cy="252.77" rx="3.62" ry="6.23" transform="translate(5.56 511.58) rotate(-85.24)"/><ellipse class="cls-98" cx="214.54" cy="262.02" rx="6.23" ry="3.62" transform="translate(-52.56 53.84) rotate(-12.76)"/><path class="cls-99" d="M333.31,438.84l41.91,37.38s10.59,6.85,14.41,7.27c4,.44,11.28-4.8,11.28-4.8l67.67-73.64s-37.64-24.88-38-28.5-33.25,46.55-33.25,46.55-2.17-2.74-7.67-1.67c-3,.59-1.59,5.6-7.66-.14-3.74-3.54-9.95-8.73-15.17-16.11-29.22-41.33-56.53-70.83-58.39-72.35s-11-6.17-14.23-4.65S275,329.59,275,329.59L277.66,445,219.13,331.75s-12.56,4.33-26.08,2.61S156.81,338,156.81,338s-10.24,27.71-17.55,29.81-11,20.25-11,20.25c-2.17,2.65-10.18,14.08-19.61,27.72h0s-37.48,45.93-43,49.91-2.65,13.44-2.65,13.44L141.9,562.9l27.83-35.51c-7.13-.5-43.13-49.77-43.13-49.77,2.53-4.53,2.3-8.26,1.56-10.72,17.3-18.49,42.63-47.18,42.63-47.18.41,4.06,6.47,16.8,16.93,32.51s9.69,42.14,9.69,42.14c-14.94,21.68-25,61.35-25,61.35s1,7.92,26.28,20.54c11,5.51,46.51,16.31,46.51,16.31l39.46-43.28,50.78,35.64s9.12-9.13,8.21-18.27-18.44-63.5-18.44-63.5-1.89-19,.27-24.66S333.31,438.84,333.31,438.84Z"/><path class="cls-71" d="M153.28,564.7s12.2,10.7,14.67,8.23l12.43-35.19S164.81,549,153.28,564.7Z"/><path class="cls-68" d="M170.63,565.87s5.9-5.86,14.86,2.8,9.68,9.26,9.68,9.26,7,2.88,7.52-4.63c0,0,8.8,1.29,6.83-8.39,0,0,6.13-4.42.7-12,0,0,5.51-1.06,2.24-11.47s-24-20.46-24-20.46-9.94-3.49-10.82,8.07c0,0-7.16.38-4.66,10.38,0,0-4.65,4.2-3.65,8.77s-.11,3.66-.11,3.66S162.54,559.29,170.63,565.87Z"/><path class="cls-94" d="M202.31,573.63c-.11-.14-11.87-13.67-24.48-19.79l.44-.9c12.79,6.21,24.68,19.9,24.8,20Z"/><path class="cls-94" d="M209.17,565.27c-.17-.16-17.14-16.1-29.48-22.75l.48-.88c12.45,6.72,29.52,22.74,29.69,22.9Z"/><path class="cls-94" d="M209.84,553.19c-.15-.18-15.21-17.9-27.55-21.76l.3-.95c12.61,3.94,27.39,21.33,28,22.07Z"/><path class="cls-100" d="M219.13,331.75S195,343.4,181.9,363.18l44.38,12.67s-15.11,14.86-14.79,18.07,66.17,51,66.17,51,33.54-61.51,29.81-64.56-24.29-6.81-24.29-6.81,19.48-27.61,22.87-27.95-28-16.36-31-16.05,2.52,110.28,2.52,110.28l-.15,2.38Z"/><path class="cls-96" d="M277.66,445s9.26,81.81,7,104.33"/><circle class="cls-100" cx="291.4" cy="469.64" r="5.33"/><circle class="cls-100" cx="293.53" cy="507.64" r="5.33"/><path class="cls-101" d="M173.56,402.91l-1-.24A76.61,76.61,0,0,0,161,341.82l.82-.57A77.65,77.65,0,0,1,173.56,402.91Z"/><path class="cls-101" d="M328.84,405.1l-1-.09c1.1-12.3-3.36-24.58-7.3-35.41-4.66-12.82-10-27.35-20.07-37.88l.72-.69c10.27,10.68,15.59,25.32,20.29,38.23C325.45,380.19,330,392.58,328.84,405.1Z"/><path class="cls-101" d="M146.07,375.14a27.73,27.73,0,0,0-3.49-6.94l.82-.57a28.39,28.39,0,0,1,3.62,7.19Z"/><path class="cls-101" d="M135.79,390.8a34.62,34.62,0,0,0-6.08-.84l0-1a36.56,36.56,0,0,1,6.25.85Z"/><path class="cls-101" d="M334.19,439.12l-1-.12a73,73,0,0,0,.43-11.92l1,0A75,75,0,0,1,334.19,439.12Z"/><path class="cls-101" d="M400.14,437.11a74.37,74.37,0,0,0-2.84-11.6l.95-.31A74,74,0,0,1,401.12,437Z"/><path class="cls-101" d="M384.8,437.09l-1-.15a60.44,60.44,0,0,0,.75-10.74l1,0A60.42,60.42,0,0,1,384.8,437.09Z"/><path class="cls-101" d="M200.16,494.73l-.52-.85a59.68,59.68,0,0,1,11.6-5.54l.33.94A59.45,59.45,0,0,0,200.16,494.73Z"/><path class="cls-101" d="M127.52,467.41c-2.33,0-10-.2-12.54-2.75l.7-.71c2.65,2.65,12.37,2.45,12.47,2.45l0,1Z"/><path class="cls-101" d="M118.58,481.06v-1c3.43,0,7.7-2.83,7.74-2.86l.56.83C126.69,478.16,122.31,481.06,118.58,481.06Z"/><path class="cls-102" d="M429.66,380.81s2.67-5,6.17-7l37.67,21.76L464.16,407Z"/><path class="cls-94" d="M468.18,355l-.7-.71c1.94-1.94,15-3.57,16.44-3.75l.12,1C478.37,352.26,469.47,353.75,468.18,355Z"/><path class="cls-94" d="M493.85,354.74c-1.39,0-1.52-.19-1.63-.35a.58.58,0,0,1,.09-.77l.71.71a.45.45,0,0,0,.09-.36.39.39,0,0,0-.21-.27c1.86.69,34.52-3.93,36.74-4.53v0c.13,0,.56-.05.67.37l-.28.58c-.42.2-11.2,1.79-18.63,2.79C500.48,354.34,495.86,354.74,493.85,354.74Z"/><path class="cls-94" d="M496.51,358.81a13.91,13.91,0,0,1-4-.37l.37-.93c3.79,1.53,39.32-2.56,40.89-4.7a.17.17,0,0,0,0,.1l1,.07a1.12,1.12,0,0,1-.59.8C530.85,355.82,506.61,358.81,496.51,358.81Z"/><path class="cls-94" d="M506.71,368c-3.94,0-8-.56-9.1-1.28a.83.83,0,0,1-.47-1l1,.29a.28.28,0,0,0,0-.22c.27.31,2.34.86,5.94,1.08,4.89.3,9.1-.22,10.23-1.25l.15-.1,17-6.81a8.06,8.06,0,0,1,2,0,.64.64,0,0,1,.41.42c.14.44-.19,1.19-1,2.24l-.81-.59a7.23,7.23,0,0,0,.71-1.15c-.32,0-.81,0-1.25,0l-16.65,6.71C513.51,367.62,510.14,368,506.71,368Z"/><path class="cls-94" d="M470.37,365.43l-.41-.91c.2-.09,4.9-2.33,4.62-8.69l1,0A10,10,0,0,1,470.37,365.43Z"/><path class="cls-94" d="M457.8,373l-.94-.33c.14-.4,3.67-9.86,21.35-8.16.08,0,3.78.61,5.41-1l.08-.08.11,0c.25-.08,6.15-2.06,9.66.62l-.61.79c-2.85-2.18-7.85-.73-8.62-.49-2,1.9-6,1.25-6.16,1.22C461.2,363.85,457.83,372.88,457.8,373Z"/><path class="cls-94" d="M497.86,368.5l-.92-.39c.32-.77.61-2,.29-2.32-.07-.07-6.06-7.14-5.25-8.56a17.69,17.69,0,0,0,.19-4.89l1-.06c0,.74.23,4.49-.31,5.44,0,.89,4.21,6.49,5.08,7.36S498,368.09,497.86,368.5Z"/></g><path class="cls-69" d="M597.27,212.42v1.22l-2.21.18v18.51h-1.61l-11.19-17.12-.08,0V231l2.21.18v1.2h-6v-1.2l2.21-.18V213.82l-2.21-.18v-1.22h3.83l11.19,17.09h.08V213.82l-2.2-.18v-1.22h6Z"/><path class="cls-69" d="M605.94,232.62a5.83,5.83,0,0,1-4.57-2.05,7.53,7.53,0,0,1-1.82-5.2v-.75a7.76,7.76,0,0,1,1.81-5.26,5.56,5.56,0,0,1,4.36-2.1A5.4,5.4,0,0,1,610,219a6.6,6.6,0,0,1,1.54,4.59V225H601.16v.4a6.59,6.59,0,0,0,1.32,4.18,4.21,4.21,0,0,0,3.46,1.69,7,7,0,0,0,2.57-.43,5.22,5.22,0,0,0,1.83-1.21l.69,1.12a5.87,5.87,0,0,1-2.09,1.38A7.78,7.78,0,0,1,605.94,232.62Zm-.22-14a3.85,3.85,0,0,0-3,1.39,6,6,0,0,0-1.42,3.48l0,.06h8.58v-.41a4.73,4.73,0,0,0-1.12-3.22A3.82,3.82,0,0,0,605.72,218.66Z"/><path class="cls-69" d="M625,222.1h-1.33L623.5,220a4.11,4.11,0,0,0-1.53-1,6.1,6.1,0,0,0-2.13-.35,4,4,0,0,0-2.66.77,2.35,2.35,0,0,0-.89,1.81,2.17,2.17,0,0,0,.77,1.7,7.3,7.3,0,0,0,3.05,1.17,9.91,9.91,0,0,1,3.91,1.61,3.35,3.35,0,0,1,1.3,2.77,3.61,3.61,0,0,1-1.49,3,6.22,6.22,0,0,1-3.91,1.14,9.19,9.19,0,0,1-3-.46,7.2,7.2,0,0,1-2.31-1.29v-3H616l.23,2.1a3.67,3.67,0,0,0,1.64.95,7.17,7.17,0,0,0,2.08.3,4.45,4.45,0,0,0,2.77-.78,2.32,2.32,0,0,0,1-1.89,2.43,2.43,0,0,0-.85-1.82,6.82,6.82,0,0,0-3.05-1.27,10.31,10.31,0,0,1-3.88-1.52,3.15,3.15,0,0,1-1.26-2.66,3.58,3.58,0,0,1,1.42-2.87,5.7,5.7,0,0,1,3.75-1.17,8.4,8.4,0,0,1,2.94.5,6,6,0,0,1,2.17,1.35Z"/><path class="cls-69" d="M632,213.75v3.79h3.22v1.34H632v9.64a3.14,3.14,0,0,0,.52,2,1.71,1.71,0,0,0,1.38.61c.26,0,.52,0,.77,0s.53-.06.86-.12l.24,1.22a3.92,3.92,0,0,1-1,.27,7.46,7.46,0,0,1-1.16.1,3,3,0,0,1-2.4-1,4.66,4.66,0,0,1-.86-3.11v-9.64h-2.52v-1.34h2.52v-3.79Z"/><path class="cls-69" d="M644.64,232.62a5.85,5.85,0,0,1-4.58-2.05,7.52,7.52,0,0,1-1.81-5.2v-.75a7.71,7.71,0,0,1,1.81-5.26,5.54,5.54,0,0,1,4.36-2.1,5.38,5.38,0,0,1,4.23,1.73,6.61,6.61,0,0,1,1.55,4.59V225H639.86v.4a6.59,6.59,0,0,0,1.32,4.18,4.2,4.2,0,0,0,3.46,1.69,7.05,7.05,0,0,0,2.57-.43A5.09,5.09,0,0,0,649,229.6l.69,1.12a5.83,5.83,0,0,1-2.08,1.38A7.78,7.78,0,0,1,644.64,232.62Zm-.22-14a3.85,3.85,0,0,0-3,1.39,6,6,0,0,0-1.43,3.48l0,.06h8.58v-.41a4.74,4.74,0,0,0-1.13-3.22A3.8,3.8,0,0,0,644.42,218.66Z"/><path class="cls-69" d="M659.4,236.28l2.2-.38V219.66l-2.2-.39v-1.73h4.49l.24,1.8a4.94,4.94,0,0,1,1.78-1.54,5.24,5.24,0,0,1,2.43-.54,4.87,4.87,0,0,1,4.23,2.18,10,10,0,0,1,1.51,5.77v.28a8.23,8.23,0,0,1-1.52,5.17,5,5,0,0,1-4.18,2,5.82,5.82,0,0,1-2.37-.46,4.69,4.69,0,0,1-1.74-1.36v5.1l2.2.38V238H659.4Zm12-11.07a7.94,7.94,0,0,0-1-4.15,3.17,3.17,0,0,0-2.89-1.61,3.51,3.51,0,0,0-1.95.52,3.9,3.9,0,0,0-1.31,1.42v7.21a3.7,3.7,0,0,0,1.3,1.41,3.65,3.65,0,0,0,2,.5,3.26,3.26,0,0,0,2.86-1.39,6.21,6.21,0,0,0,1-3.63Z"/><path class="cls-69" d="M676.5,219.27v-1.73h4.59l.25,2.14a5.16,5.16,0,0,1,1.54-1.77,3.55,3.55,0,0,1,2.09-.65,4.72,4.72,0,0,1,.64.05,4.59,4.59,0,0,1,.51.1l-.35,2.51-1.52-.09a3.05,3.05,0,0,0-1.77.5,3.25,3.25,0,0,0-1.11,1.4v8.49l2.21.39v1.72H676.5v-1.72l2.2-.39V219.66Z"/><path class="cls-69" d="M688,230.61l2.2-.39V219.66l-2.2-.39v-1.73h4.87v12.68l2.21.39v1.72H688Zm4.87-16.86h-2.67V211h2.67Z"/><path class="cls-69" d="M696.54,230.61l2.2-.39V219.66l-2.2-.39v-1.73h4.6l.17,1.92a4.81,4.81,0,0,1,1.82-1.62,5.53,5.53,0,0,1,2.57-.58,4.47,4.47,0,0,1,2.51.69,4.08,4.08,0,0,1,1.57,2.05,5.44,5.44,0,0,1,1.83-2,4.78,4.78,0,0,1,2.65-.74,4.38,4.38,0,0,1,3.55,1.56,7.16,7.16,0,0,1,1.29,4.66v6.74l2.21.39v1.72h-7.09v-1.72l2.21-.39v-6.76a4.94,4.94,0,0,0-.75-3.1,2.66,2.66,0,0,0-2.2-.91,2.79,2.79,0,0,0-2.24,1,4.28,4.28,0,0,0-1,2.5v7.28l2.2.39v1.72h-7.07v-1.72l2.2-.39v-6.76a4.87,4.87,0,0,0-.76-3,2.65,2.65,0,0,0-2.22-1,3.62,3.62,0,0,0-2,.51,3.23,3.23,0,0,0-1.2,1.42v8.84l2.2.39v1.72h-7.07Z"/><path class="cls-69" d="M729.79,232.62a6.15,6.15,0,0,1-4.86-2.06,7.81,7.81,0,0,1-1.81-5.34v-.6a7.64,7.64,0,0,1,1.86-5.26,5.71,5.71,0,0,1,4.41-2.1,5.53,5.53,0,0,1,4.47,1.81,7.24,7.24,0,0,1,1.52,4.81v1.68h-9.5l0,.07a6,6,0,0,0,1.07,3.51,3.41,3.41,0,0,0,2.88,1.37,6.63,6.63,0,0,0,2.38-.39,5.46,5.46,0,0,0,1.76-1.07L735,230.8a6.48,6.48,0,0,1-2.08,1.29A8.25,8.25,0,0,1,729.79,232.62Zm-.4-13.24a2.87,2.87,0,0,0-2.29,1.14,5.46,5.46,0,0,0-1.16,2.87l0,.07h6.76v-.36a4.14,4.14,0,0,0-.84-2.65A3,3,0,0,0,729.39,219.38Z"/><path class="cls-69" d="M738,230.61l2.2-.39V219.66l-2.2-.39v-1.73h4.87v12.68l2.2.39v1.72H738Zm4.87-16.86h-2.67V211h2.67Z"/><path class="cls-69" d="M747.11,219.27v-1.73h4.59l.26,2.14a5,5,0,0,1,1.53-1.77,3.55,3.55,0,0,1,2.09-.65,4.72,4.72,0,0,1,.64.05,4.59,4.59,0,0,1,.51.1l-.35,2.51-1.52-.09a3.05,3.05,0,0,0-1.77.5,3.25,3.25,0,0,0-1.11,1.4v8.49l2.21.39v1.72h-7.08v-1.72l2.21-.39V219.66Z"/><path class="cls-69" d="M758.31,224.8a8.22,8.22,0,0,1,1.76-5.41,6.46,6.46,0,0,1,9.58,0,8.23,8.23,0,0,1,1.76,5.42v.3a8.11,8.11,0,0,1-1.76,5.41,5.87,5.87,0,0,1-4.77,2.11,5.94,5.94,0,0,1-4.81-2.12,8.16,8.16,0,0,1-1.76-5.4Zm2.67.3a7.09,7.09,0,0,0,1,3.88,3.51,3.51,0,0,0,5.8,0,7,7,0,0,0,1-3.88v-.3a7,7,0,0,0-1-3.87,3.5,3.5,0,0,0-5.81,0,7.21,7.21,0,0,0-1,3.87Z"/><path class="cls-69" d="M799.74,216.39h-.06l-6.38,16h-1.77l-6.37-15.94h-.07l.27,8.06v5.76l2.21.39v1.72h-7.08v-1.72l2.21-.39V214.54l-2.21-.38v-1.74h5.61l6.28,16.18h.08l6.27-16.18h5.63v1.74l-2.21.38v15.68l2.21.39v1.72h-7.08v-1.72l2.21-.39v-5.76Z"/><path class="cls-69" d="M806.51,230.61l2.2-.39V219.66l-2.2-.39v-1.73h4.87v12.68l2.2.39v1.72h-7.07Zm4.87-16.86h-2.67V211h2.67Z"/><path class="cls-69" d="M822.19,230.51a3.52,3.52,0,0,0,2.33-.83,2.53,2.53,0,0,0,1-2h2.4l0,.09a4.14,4.14,0,0,1-1.68,3.39,6.13,6.13,0,0,1-4.08,1.49,5.88,5.88,0,0,1-4.88-2.11,8.21,8.21,0,0,1-1.68-5.29v-.57a8.12,8.12,0,0,1,1.69-5.27,5.88,5.88,0,0,1,4.87-2.12,8.13,8.13,0,0,1,3.16.59,6.39,6.39,0,0,1,2.32,1.61l.12,3.29h-2.12l-.59-2.33a3.46,3.46,0,0,0-1.21-.75,4.7,4.7,0,0,0-1.68-.29,3.2,3.2,0,0,0-3,1.53,7.22,7.22,0,0,0-.9,3.74v.57a7.29,7.29,0,0,0,.9,3.78A3.19,3.19,0,0,0,822.19,230.51Z"/><path class="cls-69" d="M830.55,219.27v-1.73h4.59l.26,2.14a5,5,0,0,1,1.53-1.77,3.55,3.55,0,0,1,2.09-.65,4.72,4.72,0,0,1,.64.05,4.59,4.59,0,0,1,.51.1l-.35,2.51-1.52-.09a3.05,3.05,0,0,0-1.77.5,3.25,3.25,0,0,0-1.11,1.4v8.49l2.21.39v1.72h-7.08v-1.72l2.21-.39V219.66Z"/><path class="cls-69" d="M841.75,224.8a8.22,8.22,0,0,1,1.76-5.41,6.46,6.46,0,0,1,9.58,0,8.23,8.23,0,0,1,1.76,5.42v.3a8.11,8.11,0,0,1-1.76,5.41,5.87,5.87,0,0,1-4.77,2.11,5.94,5.94,0,0,1-4.81-2.12,8.16,8.16,0,0,1-1.76-5.4Zm2.67.3a7.09,7.09,0,0,0,1,3.88,3.51,3.51,0,0,0,5.8,0,7,7,0,0,0,1-3.88v-.3a7,7,0,0,0-1-3.87,3.5,3.5,0,0,0-5.81,0,7.12,7.12,0,0,0-1,3.87Z"/><path class="cls-69" d="M856.76,230.61l2.2-.39V219.66l-2.2-.39v-1.73h4.6l.17,1.92a4.81,4.81,0,0,1,1.82-1.62,5.53,5.53,0,0,1,2.57-.58,4.47,4.47,0,0,1,2.51.69A4.08,4.08,0,0,1,870,220a5.52,5.52,0,0,1,1.83-2,4.78,4.78,0,0,1,2.65-.74,4.38,4.38,0,0,1,3.55,1.56,7.16,7.16,0,0,1,1.3,4.66v6.74l2.2.39v1.72h-7.09v-1.72l2.21-.39v-6.76a4.94,4.94,0,0,0-.75-3.1,2.66,2.66,0,0,0-2.2-.91,2.79,2.79,0,0,0-2.24,1,4.35,4.35,0,0,0-1,2.5v7.28l2.2.39v1.72h-7.07v-1.72l2.2-.39v-6.76a4.87,4.87,0,0,0-.76-3,2.64,2.64,0,0,0-2.21-1,3.63,3.63,0,0,0-2,.51,3.23,3.23,0,0,0-1.2,1.42v8.84l2.21.39v1.72h-7.08Z"/><path class="cls-69" d="M893.94,230.14a4.77,4.77,0,0,1-4.29,2.48,4.66,4.66,0,0,1-3.72-1.55,7.23,7.23,0,0,1-1.34-4.81v-6.6l-1.68-.39v-1.73h4.35v8.75a5.55,5.55,0,0,0,.69,3.25,2.55,2.55,0,0,0,2.15.89,4.3,4.3,0,0,0,2.34-.58,3.68,3.68,0,0,0,1.41-1.65v-8.54l-2-.39v-1.73h4.63v12.68l1.68.39v1.72h-4.07Z"/><path class="cls-69" d="M899.91,230.61l2.2-.39V219.66l-2.2-.39v-1.73h4.58l.19,2.2a5.37,5.37,0,0,1,1.84-1.83,4.85,4.85,0,0,1,2.5-.65,4.73,4.73,0,0,1,3.67,1.41A6.15,6.15,0,0,1,914,223v7.23l2.21.39v1.72h-7.08v-1.72l2.21-.39v-7.17a4,4,0,0,0-.77-2.78,3,3,0,0,0-2.33-.82,3.76,3.76,0,0,0-2,.56,4.16,4.16,0,0,0-1.41,1.53v8.68l2.2.39v1.72h-7.07Z"/><path class="cls-69" d="M927.86,230.57a4.82,4.82,0,0,1-1.75,1.53,5.37,5.37,0,0,1-2.4.52,5,5,0,0,1-4.19-2,8.23,8.23,0,0,1-1.51-5.17v-.28a9.93,9.93,0,0,1,1.51-5.76,4.82,4.82,0,0,1,4.21-2.19,5.26,5.26,0,0,1,2.3.49,4.72,4.72,0,0,1,1.69,1.4v-6l-2.2-.38V211h4.87v19.22l2.2.39v1.72h-4.51Zm-7.19-5.08a6.41,6.41,0,0,0,.91,3.59,3.15,3.15,0,0,0,2.8,1.35,3.44,3.44,0,0,0,2-.55,4.05,4.05,0,0,0,1.34-1.54v-6.87a4.05,4.05,0,0,0-1.34-1.47,3.43,3.43,0,0,0-2-.55,3,3,0,0,0-2.82,1.6,8.32,8.32,0,0,0-.92,4.16Z"/><path class="cls-69" d="M934.64,224.8a8.17,8.17,0,0,1,1.76-5.41,5.85,5.85,0,0,1,4.77-2.13,5.94,5.94,0,0,1,4.8,2.12,8.18,8.18,0,0,1,1.76,5.42v.3a8.16,8.16,0,0,1-1.75,5.41,6.48,6.48,0,0,1-9.58,0,8.1,8.1,0,0,1-1.76-5.4Zm2.66.3a7.09,7.09,0,0,0,1,3.88,3.25,3.25,0,0,0,2.92,1.53,3.22,3.22,0,0,0,2.88-1.53,7,7,0,0,0,1-3.88v-.3a7,7,0,0,0-1-3.87,3.24,3.24,0,0,0-2.91-1.55,3.2,3.2,0,0,0-2.89,1.55,7.12,7.12,0,0,0-1,3.87Z"/><path class="cls-69" d="M952.63,231.67a6.23,6.23,0,0,1-.51,2.46,5.8,5.8,0,0,1-1.38,2l-1-.71a7.54,7.54,0,0,0,.94-1.79,6.12,6.12,0,0,0,.3-2v-1.94h1.61Z"/><path class="cls-69" d="M966.57,218.75l-1.83.14,3.66,9.74.47,1.73H969l.51-1.73,3.6-9.74-1.82-.14v-1.21h4.92v1.21l-1.43.13-5.17,13.45h-1.3l-5.18-13.45-1.44-.13v-1.21h4.93Z"/><path class="cls-69" d="M977.74,224.71a8,8,0,0,1,1.78-5.35,6.31,6.31,0,0,1,9.4,0,8,8,0,0,1,1.77,5.35v.46a8,8,0,0,1-1.76,5.36,6.34,6.34,0,0,1-9.41,0,8,8,0,0,1-1.78-5.36Zm1.63.46a7.16,7.16,0,0,0,1.28,4.32,4.22,4.22,0,0,0,3.59,1.75,4.16,4.16,0,0,0,3.54-1.75,7.09,7.09,0,0,0,1.29-4.32v-.46a7.09,7.09,0,0,0-1.29-4.29,4.49,4.49,0,0,0-7.13,0,7.15,7.15,0,0,0-1.28,4.29Z"/><path class="cls-69" d="M999.58,231.24a4.59,4.59,0,0,0,2.84-.93,3.06,3.06,0,0,0,1.23-2.59h1.44l0,.08a4.08,4.08,0,0,1-1.61,3.44,6,6,0,0,1-3.92,1.38,5.54,5.54,0,0,1-4.61-2.07,8.35,8.35,0,0,1-1.64-5.33v-.57a8.35,8.35,0,0,1,1.64-5.31,5.53,5.53,0,0,1,4.6-2.08,7.39,7.39,0,0,1,3.1.65,6,6,0,0,1,2.28,1.75l.07,3.22h-1.38l-.26-2.62a4.68,4.68,0,0,0-1.61-1.17,5.33,5.33,0,0,0-2.2-.43,3.92,3.92,0,0,0-3.49,1.7,7.63,7.63,0,0,0-1.13,4.29v.57a7.66,7.66,0,0,0,1.13,4.32A3.9,3.9,0,0,0,999.58,231.24Z"/><path class="cls-69" d="M1014.59,232.62a5.85,5.85,0,0,1-4.58-2.05,7.52,7.52,0,0,1-1.81-5.2v-.75a7.71,7.71,0,0,1,1.81-5.26,5.54,5.54,0,0,1,4.36-2.1,5.38,5.38,0,0,1,4.23,1.73,6.61,6.61,0,0,1,1.55,4.59V225h-10.34v.4a6.59,6.59,0,0,0,1.32,4.18,4.2,4.2,0,0,0,3.46,1.69,7.05,7.05,0,0,0,2.57-.43,5.09,5.09,0,0,0,1.82-1.21l.69,1.12a5.83,5.83,0,0,1-2.08,1.38A7.78,7.78,0,0,1,1014.59,232.62Zm-.22-14a3.85,3.85,0,0,0-3,1.39,6,6,0,0,0-1.43,3.48l0,.06h8.58v-.41a4.74,4.74,0,0,0-1.13-3.22A3.8,3.8,0,0,0,1014.37,218.66Zm3.83-4v.25h-1.52l-2.26-2.3-2.24,2.3h-1.48v-.29l3.06-3h1.33Z"/><path class="cls-69" d="M585,264.84a4.59,4.59,0,0,0,2.84-.93,3.07,3.07,0,0,0,1.23-2.59h1.43l0,.08a4.09,4.09,0,0,1-1.62,3.44,6,6,0,0,1-3.91,1.38,5.55,5.55,0,0,1-4.62-2.07,8.37,8.37,0,0,1-1.64-5.33v-.57a8.33,8.33,0,0,1,1.64-5.31,5.54,5.54,0,0,1,4.6-2.08,7.35,7.35,0,0,1,3.1.65,6,6,0,0,1,2.29,1.75l.06,3.22H589l-.25-2.62a4.72,4.72,0,0,0-1.62-1.17,5.3,5.3,0,0,0-2.2-.43,3.89,3.89,0,0,0-3.48,1.7,7.53,7.53,0,0,0-1.13,4.29v.57a7.66,7.66,0,0,0,1.12,4.32A3.92,3.92,0,0,0,585,264.84Z"/><path class="cls-69" d="M593.51,258.31a8,8,0,0,1,1.77-5.35,6.31,6.31,0,0,1,9.4,0,8,8,0,0,1,1.77,5.35v.46a8,8,0,0,1-1.76,5.36,6.34,6.34,0,0,1-9.41,0,8,8,0,0,1-1.77-5.36Zm1.62.46a7.09,7.09,0,0,0,1.29,4.32,4.51,4.51,0,0,0,7.13,0,7.16,7.16,0,0,0,1.28-4.32v-.46a7.09,7.09,0,0,0-1.29-4.29,4.48,4.48,0,0,0-7.12,0,7.09,7.09,0,0,0-1.29,4.29Z"/><path class="cls-69" d="M608.8,264.73l2.2-.18v-12l-2.2-.18v-1.21h3.64l.14,2.58a5.34,5.34,0,0,1,1.9-2.11,5.26,5.26,0,0,1,2.84-.75,4.49,4.49,0,0,1,3.63,1.47,7.07,7.07,0,0,1,1.24,4.59v7.63l2.21.18v1.2h-6v-1.2l2.21-.18v-7.62a5.42,5.42,0,0,0-.94-3.59,3.41,3.41,0,0,0-2.68-1.05,4.2,4.2,0,0,0-2.78.9,5.16,5.16,0,0,0-1.55,2.42v8.94l2.21.18v1.2h-6Z"/><path class="cls-69" d="M626.47,245.82V244.6h3.81v9.07a5.22,5.22,0,0,1,4.79-2.81,4.43,4.43,0,0,1,3.55,1.45,6.81,6.81,0,0,1,1.24,4.5v7.74l2.2.18v1.2h-6v-1.2l2.21-.18v-7.77a5.16,5.16,0,0,0-.94-3.45,3.3,3.3,0,0,0-2.6-1,4.36,4.36,0,0,0-2.78.88,5.11,5.11,0,0,0-1.64,2.34v9l2.21.18v1.2h-6v-1.2l2.2-.18V246Z"/><path class="cls-69" d="M650.82,266.22a5.81,5.81,0,0,1-4.57-2.05,7.53,7.53,0,0,1-1.82-5.2v-.75a7.71,7.71,0,0,1,1.81-5.26,5.56,5.56,0,0,1,4.36-2.1,5.4,5.4,0,0,1,4.24,1.73,6.65,6.65,0,0,1,1.54,4.59v1.39H646v.4a6.59,6.59,0,0,0,1.32,4.18,4.2,4.2,0,0,0,3.46,1.69,7,7,0,0,0,2.57-.43,5.22,5.22,0,0,0,1.83-1.21l.69,1.12a6,6,0,0,1-2.09,1.38A7.78,7.78,0,0,1,650.82,266.22Zm-.22-14a3.85,3.85,0,0,0-3,1.39,6,6,0,0,0-1.43,3.48l0,.06h8.58v-.41a4.73,4.73,0,0,0-1.12-3.22A3.82,3.82,0,0,0,650.6,252.26Z"/><path class="cls-69" d="M665.53,264.84a4.59,4.59,0,0,0,2.84-.93,3.07,3.07,0,0,0,1.23-2.59H671l0,.08a4.09,4.09,0,0,1-1.62,3.44,6,6,0,0,1-3.91,1.38,5.55,5.55,0,0,1-4.62-2.07,8.37,8.37,0,0,1-1.64-5.33v-.57a8.33,8.33,0,0,1,1.64-5.31,5.54,5.54,0,0,1,4.6-2.08,7.35,7.35,0,0,1,3.1.65,6,6,0,0,1,2.29,1.75l.06,3.22h-1.38l-.25-2.62a4.63,4.63,0,0,0-1.62-1.17,5.3,5.3,0,0,0-2.2-.43A3.89,3.89,0,0,0,662,254a7.53,7.53,0,0,0-1.13,4.29v.57a7.66,7.66,0,0,0,1.12,4.32A3.92,3.92,0,0,0,665.53,264.84Z"/><path class="cls-69" d="M680.53,266.22a5.83,5.83,0,0,1-4.57-2.05,7.53,7.53,0,0,1-1.82-5.2v-.75A7.76,7.76,0,0,1,676,253a5.56,5.56,0,0,1,4.36-2.1,5.4,5.4,0,0,1,4.24,1.73,6.6,6.6,0,0,1,1.54,4.59v1.39H675.75v.4a6.59,6.59,0,0,0,1.32,4.18,4.2,4.2,0,0,0,3.46,1.69,7,7,0,0,0,2.57-.43,5.22,5.22,0,0,0,1.83-1.21l.69,1.12a5.87,5.87,0,0,1-2.09,1.38A7.78,7.78,0,0,1,680.53,266.22Zm-.22-14a3.85,3.85,0,0,0-3,1.39,6,6,0,0,0-1.42,3.48l0,.06h8.58v-.41a4.73,4.73,0,0,0-1.12-3.22A3.82,3.82,0,0,0,680.31,252.26Z"/><path class="cls-69" d="M692.49,251.14l.2,2.46v.18a5.25,5.25,0,0,1,1.7-2.14,4.24,4.24,0,0,1,2.55-.78,3.83,3.83,0,0,1,.6,0,4.84,4.84,0,0,1,.48.1l-.21,1.53-1.21-.08a3.65,3.65,0,0,0-2.51.87,4.86,4.86,0,0,0-1.4,2.39v8.83l2.21.18v1.2h-6v-1.2l2.2-.18v-12l-2.2-.18v-1.21h3.61Z"/><path class="cls-69" d="M710.23,265.93a12.48,12.48,0,0,1-.23-1.3,8.07,8.07,0,0,1-.07-1.11,6.42,6.42,0,0,1-2.16,1.93,6.12,6.12,0,0,1-3,.77,4.69,4.69,0,0,1-3.33-1.12,4,4,0,0,1-1.17-3,3.75,3.75,0,0,1,1.74-3.25,8.18,8.18,0,0,1,4.74-1.21h3.23v-2a3.17,3.17,0,0,0-1-2.49,4.08,4.08,0,0,0-2.82-.9,7.09,7.09,0,0,0-2.22.33,5.13,5.13,0,0,0-1.69.91l-.13,2h-1.34v-2.84a8.24,8.24,0,0,1,2.43-1.28,9,9,0,0,1,3-.5,5.87,5.87,0,0,1,3.9,1.25,4.42,4.42,0,0,1,1.47,3.57V263c0,.3,0,.59,0,.87a5.28,5.28,0,0,0,.09.81l1.46.1v1.2Zm-5.33-1.16A5.9,5.9,0,0,0,708,264a4.9,4.9,0,0,0,1.93-2.12v-3h-3.26a6,6,0,0,0-3.52.92,2.77,2.77,0,0,0-1.32,2.34,2.45,2.45,0,0,0,.82,1.92A3.27,3.27,0,0,0,704.9,264.77Zm2.74-19.28h2l0,.08-3.37,3.56h-1.44Z"/><path class="cls-69" d="M721.8,252.35v-1.21h3.64l.15,2.44a5.14,5.14,0,0,1,1.88-2,5.32,5.32,0,0,1,2.8-.71,4.23,4.23,0,0,1,4.41,3.35,5.76,5.76,0,0,1,1.88-2.45,4.93,4.93,0,0,1,3-.9,4.41,4.41,0,0,1,3.62,1.58,7.63,7.63,0,0,1,1.28,4.86v7.24l2.2.19v1.2h-6v-1.2l2.21-.19v-7.26a6,6,0,0,0-1-3.87,3.28,3.28,0,0,0-2.65-1.12,3.59,3.59,0,0,0-2.92,1.21,5.87,5.87,0,0,0-1.26,3.11v.2a1.78,1.78,0,0,1,0,.25v7.49l2.2.18v1.2h-6v-1.2l2.21-.18v-7.27a6,6,0,0,0-1-3.84,3.28,3.28,0,0,0-2.66-1.15,4,4,0,0,0-2.74.88,4.68,4.68,0,0,0-1.41,2.37v9l2.2.18v1.2h-6v-1.2l2.2-.18v-12Z"/><path class="cls-69" d="M748.55,264.73l2.2-.18v-12l-2.2-.18v-1.21h3.81v13.41l2.21.18v1.2h-6Zm3.81-17.83h-1.61v-2.3h1.61Z"/><path class="cls-69" d="M757,264.73l2.2-.18v-12l-2.2-.18v-1.21h3.64l.15,2.58a5.05,5.05,0,0,1,4.73-2.86,4.49,4.49,0,0,1,3.63,1.47,7,7,0,0,1,1.24,4.59v7.63l2.21.18v1.2h-6v-1.2l2.21-.18v-7.62a5.37,5.37,0,0,0-.94-3.59,3.41,3.41,0,0,0-2.67-1.05,4.17,4.17,0,0,0-2.78.9,5,5,0,0,0-1.55,2.42v8.94l2.2.18v1.2h-6Z"/><path class="cls-69" d="M774.66,245.82V244.6h3.81v9.07a5.22,5.22,0,0,1,4.79-2.81,4.41,4.41,0,0,1,3.55,1.45,6.81,6.81,0,0,1,1.24,4.5v7.74l2.21.18v1.2h-6v-1.2l2.21-.18v-7.77a5.1,5.1,0,0,0-.94-3.45,3.3,3.3,0,0,0-2.59-1,4.32,4.32,0,0,0-2.78.88,5.05,5.05,0,0,0-1.65,2.34v9l2.21.18v1.2h-6v-1.2l2.2-.18V246Z"/><path class="cls-69" d="M802.8,265.93a12.48,12.48,0,0,1-.23-1.3,8.07,8.07,0,0,1-.07-1.11,6.42,6.42,0,0,1-2.16,1.93,6.09,6.09,0,0,1-3.05.77A4.69,4.69,0,0,1,794,265.1a4,4,0,0,1-1.17-3,3.75,3.75,0,0,1,1.74-3.25,8.18,8.18,0,0,1,4.74-1.21h3.23v-2a3.14,3.14,0,0,0-1-2.49,4.08,4.08,0,0,0-2.82-.9,7.09,7.09,0,0,0-2.22.33,5.13,5.13,0,0,0-1.69.91l-.13,2h-1.34v-2.84a8.24,8.24,0,0,1,2.43-1.28,9.05,9.05,0,0,1,3-.5,5.87,5.87,0,0,1,3.9,1.25,4.42,4.42,0,0,1,1.47,3.57V263c0,.3,0,.59,0,.87s0,.55.09.81l1.46.1v1.2Zm-5.33-1.16a5.9,5.9,0,0,0,3.1-.82,4.9,4.9,0,0,0,1.93-2.12v-3h-3.26a6.06,6.06,0,0,0-3.52.92,2.77,2.77,0,0,0-1.32,2.34,2.45,2.45,0,0,0,.82,1.92A3.27,3.27,0,0,0,797.47,264.77Z"/><path class="cls-69" d="M814.49,252.48v-1.34h2.42V249a4.93,4.93,0,0,1,1.11-3.45,4,4,0,0,1,3.1-1.22,6.8,6.8,0,0,1,.89.07c.31.05.62.11.94.19l-.21,1.36a4.53,4.53,0,0,0-.66-.13,6.1,6.1,0,0,0-.8-.05,2.48,2.48,0,0,0-2,.85,3.56,3.56,0,0,0-.71,2.38v2.16H822v1.34h-3.49v12.07l2.2.18v1.2h-6v-1.2l2.2-.18V252.48Z"/><path class="cls-69" d="M834.64,265.93a12.48,12.48,0,0,1-.23-1.3,8.07,8.07,0,0,1-.07-1.11,6.36,6.36,0,0,1-2.17,1.93,6.05,6.05,0,0,1-3,.77,4.69,4.69,0,0,1-3.33-1.12,4,4,0,0,1-1.18-3,3.76,3.76,0,0,1,1.75-3.25,8.14,8.14,0,0,1,4.73-1.21h3.24v-2a3.17,3.17,0,0,0-1-2.49,4.08,4.08,0,0,0-2.82-.9,7.19,7.19,0,0,0-2.23.33,5.17,5.17,0,0,0-1.68.91l-.14,2h-1.33v-2.84a8,8,0,0,1,2.43-1.28,9,9,0,0,1,3-.5,5.82,5.82,0,0,1,3.89,1.25,4.39,4.39,0,0,1,1.48,3.57V263c0,.3,0,.59,0,.87a5.28,5.28,0,0,0,.09.81l1.46.1v1.2Zm-5.33-1.16a5.84,5.84,0,0,0,3.09-.82,4.87,4.87,0,0,0,1.94-2.12v-3h-3.26a6.1,6.1,0,0,0-3.53.92,2.77,2.77,0,0,0-1.32,2.34,2.48,2.48,0,0,0,.82,1.92A3.32,3.32,0,0,0,829.31,264.77Z"/><path class="cls-69" d="M839.47,252.35v-1.21h3.64l.15,2.44a5.14,5.14,0,0,1,1.88-2,5.32,5.32,0,0,1,2.8-.71,4.23,4.23,0,0,1,4.41,3.35,5.76,5.76,0,0,1,1.88-2.45,4.93,4.93,0,0,1,3-.9,4.41,4.41,0,0,1,3.62,1.58,7.63,7.63,0,0,1,1.28,4.86v7.24l2.2.19v1.2h-6.05v-1.2l2.21-.19v-7.26a6,6,0,0,0-1-3.87,3.28,3.28,0,0,0-2.65-1.12A3.59,3.59,0,0,0,854,253.5a5.87,5.87,0,0,0-1.26,3.11v.2a1.78,1.78,0,0,1,0,.25v7.49l2.2.18v1.2h-6v-1.2l2.21-.18v-7.27a6,6,0,0,0-1-3.84,3.28,3.28,0,0,0-2.66-1.15,4,4,0,0,0-2.74.88,4.68,4.68,0,0,0-1.41,2.37v9l2.2.18v1.2h-6v-1.2l2.2-.18v-12Z"/><path class="cls-69" d="M866.23,252.35v-1.21H870v13.41l2.21.18v1.2h-6v-1.2l2.2-.18v-12Zm4.49-6.7h2l0,.09-3.37,3.55h-1.45Z"/><path class="cls-69" d="M874.62,245.82V244.6h3.81v20l2.21.18v1.2h-6v-1.2l2.2-.18V246Z"/><path class="cls-69" d="M883.09,264.73l2.2-.18v-12l-2.2-.18v-1.21h3.81v13.41l2.21.18v1.2h-6Zm3.81-17.83h-1.61v-2.3h1.61Z"/><path class="cls-69" d="M901.93,265.93c-.1-.5-.18-.93-.23-1.3a10,10,0,0,1-.06-1.11,6.55,6.55,0,0,1-2.17,1.93,6.08,6.08,0,0,1-3,.77,4.65,4.65,0,0,1-3.33-1.12,4,4,0,0,1-1.18-3,3.74,3.74,0,0,1,1.75-3.25,8.14,8.14,0,0,1,4.73-1.21h3.24v-2a3.17,3.17,0,0,0-1-2.49,4.08,4.08,0,0,0-2.82-.9,7.1,7.1,0,0,0-2.23.33,5.17,5.17,0,0,0-1.68.91l-.14,2h-1.34l0-2.84a8.06,8.06,0,0,1,2.42-1.28,9.1,9.1,0,0,1,3-.5,5.83,5.83,0,0,1,3.9,1.25,4.42,4.42,0,0,1,1.48,3.57V263c0,.3,0,.59,0,.87a6.94,6.94,0,0,0,.08.81l1.46.1v1.2Zm-5.33-1.16a5.88,5.88,0,0,0,3.1-.82,4.93,4.93,0,0,0,1.94-2.12v-3h-3.26a6.08,6.08,0,0,0-3.53.92,2.77,2.77,0,0,0-1.32,2.34,2.45,2.45,0,0,0,.82,1.92A3.31,3.31,0,0,0,896.6,264.77Z"/><path class="cls-69" d="M920.31,266.22a5.85,5.85,0,0,1-4.58-2.05,7.57,7.57,0,0,1-1.81-5.2v-.75a7.71,7.71,0,0,1,1.81-5.26,5.56,5.56,0,0,1,4.36-2.1,5.4,5.4,0,0,1,4.24,1.73,6.65,6.65,0,0,1,1.54,4.59v1.39H915.53v.4a6.59,6.59,0,0,0,1.32,4.18,4.2,4.2,0,0,0,3.46,1.69,7,7,0,0,0,2.57-.43,5.09,5.09,0,0,0,1.82-1.21l.7,1.12a6,6,0,0,1-2.09,1.38A7.78,7.78,0,0,1,920.31,266.22Zm-.22-14a3.85,3.85,0,0,0-3,1.39,6,6,0,0,0-1.43,3.48l0,.06h8.58v-.41a4.78,4.78,0,0,0-1.12-3.22A3.82,3.82,0,0,0,920.09,252.26Z"/><path class="cls-69" d="M588.81,299.53c-.11-.5-.18-.93-.23-1.3a10,10,0,0,1-.07-1.11,6.42,6.42,0,0,1-2.16,1.93,6.09,6.09,0,0,1-3.05.77A4.65,4.65,0,0,1,580,298.7a4,4,0,0,1-1.18-3,3.75,3.75,0,0,1,1.74-3.25,8.28,8.28,0,0,1,4.74-1.21h3.23v-1.95a3.17,3.17,0,0,0-1-2.49,4.12,4.12,0,0,0-2.82-.9,7.1,7.1,0,0,0-2.23.33,5.33,5.33,0,0,0-1.69.91l-.13,2H579.3v-2.84a8.24,8.24,0,0,1,2.43-1.28,9.05,9.05,0,0,1,3-.5,5.83,5.83,0,0,1,3.9,1.25,4.42,4.42,0,0,1,1.47,3.57v7.27c0,.3,0,.59,0,.87s.05.55.09.81l1.46.1v1.2Zm-5.33-1.16a5.88,5.88,0,0,0,3.1-.82,4.84,4.84,0,0,0,1.93-2.12v-3h-3.26a6.06,6.06,0,0,0-3.52.92,2.77,2.77,0,0,0-1.32,2.34,2.45,2.45,0,0,0,.82,1.92A3.27,3.27,0,0,0,583.48,298.37Z"/><path class="cls-69" d="M600.24,298.44a4.6,4.6,0,0,0,2.85-.93,3.06,3.06,0,0,0,1.23-2.59h1.43l0,.08a4.11,4.11,0,0,1-1.62,3.44,6,6,0,0,1-3.92,1.38,5.54,5.54,0,0,1-4.61-2.07,8.35,8.35,0,0,1-1.64-5.33v-.57a8.35,8.35,0,0,1,1.64-5.31,5.54,5.54,0,0,1,4.6-2.08,7.35,7.35,0,0,1,3.1.65,6.12,6.12,0,0,1,2.29,1.75l.06,3.22H604.3l-.25-2.62a4.82,4.82,0,0,0-1.62-1.17,5.33,5.33,0,0,0-2.2-.43,3.89,3.89,0,0,0-3.48,1.7,7.55,7.55,0,0,0-1.13,4.29v.57a7.66,7.66,0,0,0,1.12,4.32A3.91,3.91,0,0,0,600.24,298.44Z"/><path class="cls-69" d="M608.8,291.92a8,8,0,0,1,1.77-5.36,6.31,6.31,0,0,1,9.4,0,8,8,0,0,1,1.77,5.36v.45a8,8,0,0,1-1.76,5.36,6.34,6.34,0,0,1-9.41,0,8,8,0,0,1-1.77-5.36Zm1.62.45a7.16,7.16,0,0,0,1.28,4.32,4.23,4.23,0,0,0,3.59,1.75,4.15,4.15,0,0,0,3.54-1.75,7.09,7.09,0,0,0,1.29-4.32v-.45a7.1,7.1,0,0,0-1.29-4.3,4.49,4.49,0,0,0-7.13,0,7.16,7.16,0,0,0-1.28,4.3Z"/><path class="cls-69" d="M624,286v-1.21h3.64l.15,2.44a5.21,5.21,0,0,1,1.88-2,5.34,5.34,0,0,1,2.8-.71,4.6,4.6,0,0,1,2.8.83,4.53,4.53,0,0,1,1.61,2.52,5.71,5.71,0,0,1,1.89-2.45,4.88,4.88,0,0,1,3-.9A4.4,4.4,0,0,1,645.4,286a7.63,7.63,0,0,1,1.28,4.86v7.24l2.21.19v1.2h-6v-1.2l2.2-.19v-7.26a6.11,6.11,0,0,0-.95-3.87,3.3,3.3,0,0,0-2.66-1.12,3.61,3.61,0,0,0-2.92,1.21,5.87,5.87,0,0,0-1.26,3.11,1.27,1.27,0,0,0,0,.2v7.74l2.21.18v1.2h-6v-1.2l2.21-.18v-7.27a6,6,0,0,0-1-3.84,3.27,3.27,0,0,0-2.66-1.15,4,4,0,0,0-2.74.88,4.72,4.72,0,0,0-1.41,2.37v9l2.2.18v1.2h-6v-1.2l2.21-.18v-12Z"/><path class="cls-69" d="M650.45,286v-1.21H654l.21,2.29a5.11,5.11,0,0,1,4.61-2.57,4.77,4.77,0,0,1,4.13,2.13,9.74,9.74,0,0,1,1.48,5.67v.28a8.61,8.61,0,0,1-1.48,5.3,4.86,4.86,0,0,1-4.1,2,5.78,5.78,0,0,1-2.7-.6,5,5,0,0,1-1.89-1.69v6.29l2.21.18v1.22h-6V304l2.21-.18V286.13Zm12.37,6.31a8.58,8.58,0,0,0-1.11-4.6,3.6,3.6,0,0,0-3.25-1.77,4.24,4.24,0,0,0-2.65.78,4.79,4.79,0,0,0-1.54,2.05v7.11a4.48,4.48,0,0,0,1.6,1.91,4.67,4.67,0,0,0,2.62.7,3.66,3.66,0,0,0,3.23-1.62,7.48,7.48,0,0,0,1.1-4.28Z"/><path class="cls-69" d="M677.19,299.53a12.48,12.48,0,0,1-.23-1.3,8.07,8.07,0,0,1-.07-1.11,6.42,6.42,0,0,1-2.16,1.93,6.12,6.12,0,0,1-3.05.77,4.69,4.69,0,0,1-3.33-1.12,4,4,0,0,1-1.17-3,3.75,3.75,0,0,1,1.74-3.25,8.25,8.25,0,0,1,4.74-1.21h3.23v-1.95a3.14,3.14,0,0,0-1-2.49,4.08,4.08,0,0,0-2.82-.9,7.09,7.09,0,0,0-2.22.33,5.13,5.13,0,0,0-1.69.91l-.13,2h-1.34v-2.84a8.24,8.24,0,0,1,2.43-1.28,9.05,9.05,0,0,1,3-.5,5.87,5.87,0,0,1,3.9,1.25,4.42,4.42,0,0,1,1.47,3.57v7.27c0,.3,0,.59,0,.87a6.92,6.92,0,0,0,.09.81l1.46.1v1.2Zm-5.33-1.16a5.9,5.9,0,0,0,3.1-.82,4.9,4.9,0,0,0,1.93-2.12v-3h-3.26a6.06,6.06,0,0,0-3.52.92,2.77,2.77,0,0,0-1.32,2.34,2.45,2.45,0,0,0,.82,1.92A3.27,3.27,0,0,0,671.86,298.37Z"/><path class="cls-69" d="M682.07,298.33l2.21-.18v-12l-2.21-.18v-1.21h3.64l.15,2.58a5.34,5.34,0,0,1,1.9-2.11,5.26,5.26,0,0,1,2.84-.75,4.47,4.47,0,0,1,3.62,1.47,7,7,0,0,1,1.25,4.59v7.63l2.2.18v1.2h-6v-1.2l2.21-.18v-7.62a5.36,5.36,0,0,0-1-3.59,3.38,3.38,0,0,0-2.67-1.05,4.2,4.2,0,0,0-2.78.9,5.13,5.13,0,0,0-1.55,2.42v8.94l2.21.18v1.2h-6Z"/><path class="cls-69" d="M699.74,279.42V278.2h3.82v9.07a5.22,5.22,0,0,1,4.79-2.81,4.44,4.44,0,0,1,3.55,1.45,6.81,6.81,0,0,1,1.24,4.5v7.74l2.2.18v1.2h-6v-1.2l2.21-.18v-7.77a5.1,5.1,0,0,0-.95-3.45,3.28,3.28,0,0,0-2.59-1,4.34,4.34,0,0,0-2.78.88,5.16,5.16,0,0,0-1.64,2.34v9l2.2.18v1.2h-6v-1.2l2.21-.18V279.6Z"/><path class="cls-69" d="M727.89,299.53a12.48,12.48,0,0,1-.23-1.3,8.07,8.07,0,0,1-.07-1.11,6.45,6.45,0,0,1-2.17,1.93,6.05,6.05,0,0,1-3,.77,4.67,4.67,0,0,1-3.33-1.12,4,4,0,0,1-1.18-3,3.76,3.76,0,0,1,1.75-3.25,8.22,8.22,0,0,1,4.73-1.21h3.24v-1.95a3.17,3.17,0,0,0-1-2.49,4.08,4.08,0,0,0-2.82-.9,7.19,7.19,0,0,0-2.23.33,5.17,5.17,0,0,0-1.68.91l-.14,2h-1.34l0-2.84a8,8,0,0,1,2.43-1.28,9,9,0,0,1,3-.5,5.82,5.82,0,0,1,3.89,1.25,4.39,4.39,0,0,1,1.48,3.57v7.27c0,.3,0,.59,0,.87a5.28,5.28,0,0,0,.09.81l1.46.1v1.2Zm-5.33-1.16a5.84,5.84,0,0,0,3.09-.82,4.87,4.87,0,0,0,1.94-2.12v-3h-3.26a6.1,6.1,0,0,0-3.53.92,2.77,2.77,0,0,0-1.32,2.34,2.48,2.48,0,0,0,.82,1.92A3.32,3.32,0,0,0,722.56,298.37Z"/><path class="cls-69" d="M736.57,284.74l.2,2.46v.18a5.25,5.25,0,0,1,1.7-2.14,4.24,4.24,0,0,1,2.55-.78,4.07,4.07,0,0,1,.61.05l.48.1-.22,1.54-1.2-.09a3.63,3.63,0,0,0-2.51.87,4.79,4.79,0,0,0-1.41,2.39v8.83l2.21.18v1.2h-6v-1.2l2.2-.18v-12L733,286v-1.21h3.61Z"/><path class="cls-69" d="M754.31,299.53a12.48,12.48,0,0,1-.23-1.3,8.07,8.07,0,0,1-.07-1.11,6.42,6.42,0,0,1-2.16,1.93,6.12,6.12,0,0,1-3.05.77,4.69,4.69,0,0,1-3.33-1.12,4,4,0,0,1-1.17-3,3.75,3.75,0,0,1,1.74-3.25,8.25,8.25,0,0,1,4.74-1.21H754v-1.95a3.14,3.14,0,0,0-1-2.49,4.08,4.08,0,0,0-2.82-.9,7.09,7.09,0,0,0-2.22.33,5.13,5.13,0,0,0-1.69.91l-.13,2H744.8v-2.84a8.24,8.24,0,0,1,2.43-1.28,9.05,9.05,0,0,1,3-.5,5.87,5.87,0,0,1,3.9,1.25,4.42,4.42,0,0,1,1.47,3.57v7.27c0,.3,0,.59,0,.87s.05.55.09.81l1.46.1v1.2ZM749,298.37a5.9,5.9,0,0,0,3.1-.82,4.9,4.9,0,0,0,1.93-2.12v-3h-3.26a6.06,6.06,0,0,0-3.52.92,2.77,2.77,0,0,0-1.32,2.34,2.45,2.45,0,0,0,.82,1.92A3.27,3.27,0,0,0,749,298.37Zm2.75-19.28h2l0,.08-3.36,3.56h-1.45Z"/><path class="cls-69" d="M776.34,299.53a12.48,12.48,0,0,1-.23-1.3,8.07,8.07,0,0,1-.07-1.11,6.36,6.36,0,0,1-2.17,1.93,6.05,6.05,0,0,1-3,.77,4.69,4.69,0,0,1-3.33-1.12,4,4,0,0,1-1.18-3,3.76,3.76,0,0,1,1.75-3.25,8.23,8.23,0,0,1,4.74-1.21H776v-1.95a3.17,3.17,0,0,0-1-2.49,4.08,4.08,0,0,0-2.82-.9,7.19,7.19,0,0,0-2.23.33,5.17,5.17,0,0,0-1.68.91l-.14,2h-1.33v-2.84a8.12,8.12,0,0,1,2.43-1.28,9,9,0,0,1,3-.5,5.82,5.82,0,0,1,3.89,1.25,4.39,4.39,0,0,1,1.48,3.57v7.27c0,.3,0,.59,0,.87a5.28,5.28,0,0,0,.09.81l1.46.1v1.2ZM771,298.37a5.84,5.84,0,0,0,3.09-.82,4.87,4.87,0,0,0,1.94-2.12v-3h-3.26a6.1,6.1,0,0,0-3.53.92,2.76,2.76,0,0,0-1.31,2.34,2.47,2.47,0,0,0,.81,1.92A3.32,3.32,0,0,0,771,298.37Z"/><path class="cls-69" d="M792.14,289.3h-1.33l-.19-2.09a4,4,0,0,0-1.53-1,6.1,6.1,0,0,0-2.13-.35,4,4,0,0,0-2.66.77,2.35,2.35,0,0,0-.89,1.81,2.17,2.17,0,0,0,.77,1.7,7.36,7.36,0,0,0,3.05,1.17,10.06,10.06,0,0,1,3.91,1.61,3.35,3.35,0,0,1,1.3,2.77,3.62,3.62,0,0,1-1.48,3,6.27,6.27,0,0,1-3.92,1.14,9,9,0,0,1-3-.46,7.15,7.15,0,0,1-2.3-1.29v-3h1.31l.23,2.1a3.67,3.67,0,0,0,1.64.95,7.22,7.22,0,0,0,2.08.3,4.43,4.43,0,0,0,2.77-.78,2.32,2.32,0,0,0,1-1.89A2.39,2.39,0,0,0,790,294a6.82,6.82,0,0,0-3.05-1.27,10.31,10.31,0,0,1-3.88-1.52,3.15,3.15,0,0,1-1.26-2.66,3.58,3.58,0,0,1,1.42-2.87,5.72,5.72,0,0,1,3.75-1.17,8.4,8.4,0,0,1,2.94.5,6,6,0,0,1,2.17,1.35Z"/><path class="cls-69" d="M808.38,298.44a4.59,4.59,0,0,0,2.84-.93,3.06,3.06,0,0,0,1.23-2.59h1.43l0,.08a4.09,4.09,0,0,1-1.62,3.44,6,6,0,0,1-3.91,1.38,5.55,5.55,0,0,1-4.62-2.07,8.34,8.34,0,0,1-1.63-5.33v-.57a8.34,8.34,0,0,1,1.63-5.31,5.54,5.54,0,0,1,4.6-2.08,7.35,7.35,0,0,1,3.1.65,6.12,6.12,0,0,1,2.29,1.75l.06,3.22h-1.37l-.26-2.62a4.63,4.63,0,0,0-1.62-1.17,5.3,5.3,0,0,0-2.2-.43,3.89,3.89,0,0,0-3.48,1.7,7.63,7.63,0,0,0-1.13,4.29v.57a7.66,7.66,0,0,0,1.12,4.32A3.92,3.92,0,0,0,808.38,298.44Z"/><path class="cls-69" d="M816.93,291.92a8,8,0,0,1,1.77-5.36,6.31,6.31,0,0,1,9.4,0,8,8,0,0,1,1.78,5.36v.45a8,8,0,0,1-1.77,5.36,6.34,6.34,0,0,1-9.41,0,8,8,0,0,1-1.77-5.36Zm1.62.45a7.09,7.09,0,0,0,1.29,4.32,4.51,4.51,0,0,0,7.13,0,7.16,7.16,0,0,0,1.28-4.32v-.45a7.1,7.1,0,0,0-1.29-4.3,4.48,4.48,0,0,0-7.12,0,7.1,7.1,0,0,0-1.29,4.3Z"/><path class="cls-69" d="M832.16,286v-1.21h3.64l.15,2.44a5.28,5.28,0,0,1,1.88-2,5.37,5.37,0,0,1,2.8-.71,4.6,4.6,0,0,1,2.8.83,4.53,4.53,0,0,1,1.61,2.52,5.71,5.71,0,0,1,1.89-2.45,4.9,4.9,0,0,1,3-.9,4.4,4.4,0,0,1,3.62,1.58,7.57,7.57,0,0,1,1.28,4.86v7.24l2.21.19v1.2h-6v-1.2l2.2-.19v-7.26a6,6,0,0,0-.95-3.87,3.3,3.3,0,0,0-2.66-1.12,3.58,3.58,0,0,0-2.91,1.21,5.88,5.88,0,0,0-1.27,3.11,1.27,1.27,0,0,0,0,.2c0,.06,0,.15,0,.25v7.49l2.2.18v1.2h-6v-1.2l2.2-.18v-7.27a6,6,0,0,0-1-3.84,3.26,3.26,0,0,0-2.65-1.15,4,4,0,0,0-2.75.88,4.72,4.72,0,0,0-1.41,2.37v9l2.21.18v1.2h-6v-1.2l2.21-.18v-12Z"/><path class="cls-69" d="M865.34,299.82a5.85,5.85,0,0,1-4.58-2.05,7.57,7.57,0,0,1-1.81-5.2v-.75a7.73,7.73,0,0,1,1.81-5.26,5.56,5.56,0,0,1,4.36-2.1,5.36,5.36,0,0,1,4.23,1.73,6.61,6.61,0,0,1,1.55,4.59v1.39H860.56v.4a6.59,6.59,0,0,0,1.32,4.18,4.2,4.2,0,0,0,3.46,1.69,7.05,7.05,0,0,0,2.57-.43,5.09,5.09,0,0,0,1.82-1.21l.69,1.12a5.83,5.83,0,0,1-2.08,1.38A7.78,7.78,0,0,1,865.34,299.82Zm-.22-14a3.85,3.85,0,0,0-3,1.39,6,6,0,0,0-1.43,3.48l0,.06h8.58v-.41a4.74,4.74,0,0,0-1.13-3.22A3.79,3.79,0,0,0,865.12,285.86Z"/><path class="cls-69" d="M873.44,286v-1.21h3.64l.15,2.44a5.28,5.28,0,0,1,1.88-2,5.37,5.37,0,0,1,2.8-.71,4.6,4.6,0,0,1,2.8.83,4.53,4.53,0,0,1,1.61,2.52,5.71,5.71,0,0,1,1.89-2.45,4.9,4.9,0,0,1,3-.9,4.4,4.4,0,0,1,3.62,1.58,7.63,7.63,0,0,1,1.28,4.86v7.24l2.21.19v1.2h-6v-1.2l2.2-.19v-7.26a6,6,0,0,0-1-3.87,3.3,3.3,0,0,0-2.66-1.12,3.58,3.58,0,0,0-2.91,1.21,5.8,5.8,0,0,0-1.27,3.11,1.27,1.27,0,0,0,0,.2v7.74l2.21.18v1.2h-6v-1.2l2.2-.18v-7.27a6,6,0,0,0-1-3.84,3.27,3.27,0,0,0-2.66-1.15,4,4,0,0,0-2.74.88,4.72,4.72,0,0,0-1.41,2.37v9l2.21.18v1.2h-6v-1.2l2.21-.18v-12Z"/><path class="cls-69" d="M900.16,291.92a8,8,0,0,1,1.78-5.36,6.31,6.31,0,0,1,9.4,0,8,8,0,0,1,1.77,5.36v.45a8,8,0,0,1-1.76,5.36,6.34,6.34,0,0,1-9.41,0,8,8,0,0,1-1.78-5.36Zm1.63.45a7.16,7.16,0,0,0,1.28,4.32,4.22,4.22,0,0,0,3.59,1.75,4.16,4.16,0,0,0,3.54-1.75,7.09,7.09,0,0,0,1.29-4.32v-.45a7.1,7.1,0,0,0-1.29-4.3,4.49,4.49,0,0,0-7.13,0,7.16,7.16,0,0,0-1.28,4.3Z"/><path class="cls-69" d="M919.25,284.74l.21,2.46v.18a5.09,5.09,0,0,1,1.7-2.14,4.2,4.2,0,0,1,2.55-.78,4,4,0,0,1,.6.05l.48.1-.22,1.54-1.2-.09a3.63,3.63,0,0,0-2.51.87,4.78,4.78,0,0,0-1.4,2.39v8.83l2.2.18v1.2h-6v-1.2l2.21-.18v-12l-2.21-.18v-1.21h3.61Z"/><path class="cls-69" d="M937,299.53c-.11-.5-.18-.93-.23-1.3a10,10,0,0,1-.07-1.11,6.42,6.42,0,0,1-2.16,1.93,6.09,6.09,0,0,1-3,.77,4.65,4.65,0,0,1-3.32-1.12,4,4,0,0,1-1.18-3,3.74,3.74,0,0,1,1.75-3.25,8.22,8.22,0,0,1,4.73-1.21h3.23v-1.95a3.17,3.17,0,0,0-1-2.49,4.12,4.12,0,0,0-2.82-.9,7.1,7.1,0,0,0-2.23.33,5.17,5.17,0,0,0-1.68.91l-.14,2h-1.34v-2.84a8.24,8.24,0,0,1,2.43-1.28,9.05,9.05,0,0,1,3-.5,5.83,5.83,0,0,1,3.9,1.25,4.42,4.42,0,0,1,1.47,3.57v7.27c0,.3,0,.59,0,.87s0,.55.09.81l1.46.1v1.2Zm-5.33-1.16a5.88,5.88,0,0,0,3.1-.82,4.84,4.84,0,0,0,1.93-2.12v-3h-3.26a6.06,6.06,0,0,0-3.52.92,2.77,2.77,0,0,0-1.32,2.34,2.45,2.45,0,0,0,.82,1.92A3.27,3.27,0,0,0,931.66,298.37Z"/><path class="cls-69" d="M948.43,298.44a4.59,4.59,0,0,0,2.84-.93,3.06,3.06,0,0,0,1.23-2.59h1.43l0,.08a4.09,4.09,0,0,1-1.62,3.44,6,6,0,0,1-3.91,1.38,5.55,5.55,0,0,1-4.62-2.07,8.35,8.35,0,0,1-1.64-5.33v-.57a8.35,8.35,0,0,1,1.64-5.31,5.54,5.54,0,0,1,4.6-2.08,7.35,7.35,0,0,1,3.1.65,6.12,6.12,0,0,1,2.29,1.75l.06,3.22h-1.38l-.25-2.62a4.72,4.72,0,0,0-1.62-1.17,5.3,5.3,0,0,0-2.2-.43,3.89,3.89,0,0,0-3.48,1.7,7.55,7.55,0,0,0-1.13,4.29v.57a7.66,7.66,0,0,0,1.12,4.32A3.92,3.92,0,0,0,948.43,298.44Zm.41,1.21-.14.88a3.21,3.21,0,0,1,1.72.66,2,2,0,0,1,.66,1.68,2.32,2.32,0,0,1-1.07,2,5.36,5.36,0,0,1-3.06.74l-.09-1.07a4.45,4.45,0,0,0,2-.41,1.32,1.32,0,0,0,.83-1.23,1.12,1.12,0,0,0-.55-1.08,5.07,5.07,0,0,0-2-.42l.38-1.74Z"/><path class="cls-69" d="M957,291.92a8,8,0,0,1,1.77-5.36,6.31,6.31,0,0,1,9.4,0,8,8,0,0,1,1.77,5.36v.45a8,8,0,0,1-1.76,5.36,6.34,6.34,0,0,1-9.41,0,8,8,0,0,1-1.77-5.36Zm1.62.45a7.09,7.09,0,0,0,1.29,4.32,4.51,4.51,0,0,0,7.13,0,7.16,7.16,0,0,0,1.28-4.32v-.45a7.1,7.1,0,0,0-1.29-4.3,4.48,4.48,0,0,0-7.12,0,7.1,7.1,0,0,0-1.29,4.3Zm9.52-13.32a2.8,2.8,0,0,1-.74,2,2.46,2.46,0,0,1-1.85.79,3.53,3.53,0,0,1-2-.75,3.25,3.25,0,0,0-1.77-.76,1.39,1.39,0,0,0-1.07.48,1.75,1.75,0,0,0-.43,1.22l-1.07-.25a2.83,2.83,0,0,1,.72-2,2.41,2.41,0,0,1,1.85-.8,3.72,3.72,0,0,1,2,.75,3.56,3.56,0,0,0,1.82.75,1.4,1.4,0,0,0,1.07-.49,1.81,1.81,0,0,0,.44-1.24Z"/><path class="cls-69" d="M979,299.82a5.85,5.85,0,0,1-4.58-2.05,7.52,7.52,0,0,1-1.81-5.2v-.75a7.73,7.73,0,0,1,1.81-5.26,5.56,5.56,0,0,1,4.36-2.1,5.36,5.36,0,0,1,4.23,1.73,6.61,6.61,0,0,1,1.55,4.59v1.39H974.24v.4a6.59,6.59,0,0,0,1.32,4.18,4.2,4.2,0,0,0,3.46,1.69,7.05,7.05,0,0,0,2.57-.43,5.09,5.09,0,0,0,1.82-1.21l.69,1.12A5.83,5.83,0,0,1,982,299.3,7.78,7.78,0,0,1,979,299.82Zm-.22-14a3.85,3.85,0,0,0-3,1.39,6,6,0,0,0-1.43,3.48l0,.06H983v-.41a4.74,4.74,0,0,0-1.13-3.22A3.79,3.79,0,0,0,978.8,285.86Z"/><path class="cls-69" d="M998.09,289.3h-1.32l-.19-2.09a4.15,4.15,0,0,0-1.54-1,6.06,6.06,0,0,0-2.13-.35,4,4,0,0,0-2.66.77,2.34,2.34,0,0,0-.88,1.81,2.16,2.16,0,0,0,.76,1.7,7.42,7.42,0,0,0,3,1.17,10,10,0,0,1,3.91,1.61,3.32,3.32,0,0,1,1.3,2.77,3.59,3.59,0,0,1-1.48,3,6.25,6.25,0,0,1-3.92,1.14,8.91,8.91,0,0,1-3-.46,7.2,7.2,0,0,1-2.31-1.29v-3H989l.23,2.1a3.71,3.71,0,0,0,1.65.95,7.1,7.1,0,0,0,2.07.3,4.46,4.46,0,0,0,2.78-.78,2.33,2.33,0,0,0,1-1.89,2.42,2.42,0,0,0-.84-1.82,6.93,6.93,0,0,0-3.05-1.27,10.17,10.17,0,0,1-3.88-1.52,3.16,3.16,0,0,1-1.27-2.66,3.61,3.61,0,0,1,1.42-2.87,5.72,5.72,0,0,1,3.75-1.17,8.32,8.32,0,0,1,2.94.5,6,6,0,0,1,2.18,1.35Z"/><path class="cls-69" d="M1018.25,297.4a5,5,0,0,1-1.88,1.79,5.52,5.52,0,0,1-2.7.63,4.83,4.83,0,0,1-4.11-2,8.6,8.6,0,0,1-1.48-5.29v-.28a9.74,9.74,0,0,1,1.48-5.67,4.76,4.76,0,0,1,4.13-2.13,5,5,0,0,1,4.52,2.51V279.6l-2.2-.18V278.2h3.83v19.95l2.2.18v1.2h-3.65Zm-8.53-4.86a7.56,7.56,0,0,0,1.06,4.27,3.59,3.59,0,0,0,3.2,1.59,4.48,4.48,0,0,0,2.6-.72,4.61,4.61,0,0,0,1.63-1.95v-7a5.08,5.08,0,0,0-1.56-2.05,4.17,4.17,0,0,0-2.64-.79,3.53,3.53,0,0,0-3.22,1.77,8.73,8.73,0,0,0-1.07,4.6Z"/><path class="cls-69" d="M1024.53,291.92a8,8,0,0,1,1.77-5.36,6.32,6.32,0,0,1,9.41,0,8,8,0,0,1,1.77,5.36v.45a8,8,0,0,1-1.77,5.36,5.83,5.83,0,0,1-4.68,2.09,5.91,5.91,0,0,1-4.73-2.09,8,8,0,0,1-1.77-5.36Zm1.62.45a7.09,7.09,0,0,0,1.29,4.32,4.51,4.51,0,0,0,7.13,0,7.09,7.09,0,0,0,1.29-4.32v-.45a7,7,0,0,0-1.3-4.3,4.48,4.48,0,0,0-7.12,0,7.1,7.1,0,0,0-1.29,4.3Z"/><path class="cls-69" d="M588.81,333.13c-.11-.5-.18-.93-.23-1.3a10,10,0,0,1-.07-1.11,6.42,6.42,0,0,1-2.16,1.93,6.09,6.09,0,0,1-3.05.77A4.65,4.65,0,0,1,580,332.3a4,4,0,0,1-1.18-3,3.75,3.75,0,0,1,1.74-3.25,8.28,8.28,0,0,1,4.74-1.21h3.23v-1.95a3.17,3.17,0,0,0-1-2.49,4.12,4.12,0,0,0-2.82-.9,7.1,7.1,0,0,0-2.23.33,5.33,5.33,0,0,0-1.69.91l-.13,2H579.3v-2.84a8.24,8.24,0,0,1,2.43-1.28,9.05,9.05,0,0,1,3-.5,5.83,5.83,0,0,1,3.9,1.25,4.42,4.42,0,0,1,1.47,3.57v7.27c0,.3,0,.59,0,.87s.05.55.09.81l1.46.1v1.2ZM583.48,332a5.88,5.88,0,0,0,3.1-.82,4.84,4.84,0,0,0,1.93-2.12v-3h-3.26a6.06,6.06,0,0,0-3.52.92,2.77,2.77,0,0,0-1.32,2.34,2.45,2.45,0,0,0,.82,1.92A3.27,3.27,0,0,0,583.48,332Z"/><path class="cls-69" d="M593.7,331.93l2.2-.18v-12l-2.2-.18v-1.21h3.64l.14,2.58a5.29,5.29,0,0,1,1.91-2.11,5.2,5.2,0,0,1,2.83-.75,4.49,4.49,0,0,1,3.63,1.47,7,7,0,0,1,1.24,4.59v7.63l2.21.18v1.2h-6v-1.2l2.21-.18v-7.62a5.42,5.42,0,0,0-.94-3.59,3.41,3.41,0,0,0-2.68-1.05,4.2,4.2,0,0,0-2.78.9,5.16,5.16,0,0,0-1.55,2.42v8.94l2.21.18v1.2h-6Z"/><path class="cls-69" d="M611.73,331.93l2.21-.18v-12l-2.21-.18v-1.21h3.82v13.41l2.2.18v1.2h-6Zm3.82-17.83h-1.61v-2.3h1.61Z"/><path class="cls-69" d="M624.72,319.55l-1.83.14,3.66,9.73.47,1.74h.08l.51-1.74,3.6-9.73-1.82-.14v-1.21h4.92v1.21l-1.43.13-5.17,13.45h-1.3l-5.18-13.45-1.44-.13v-1.21h4.93Z"/><path class="cls-69" d="M642.38,333.42a5.85,5.85,0,0,1-4.58-2.05,7.52,7.52,0,0,1-1.81-5.2v-.75a7.71,7.71,0,0,1,1.81-5.26,5.54,5.54,0,0,1,4.36-2.1,5.38,5.38,0,0,1,4.23,1.73,6.61,6.61,0,0,1,1.55,4.59v1.39H637.6v.4a6.59,6.59,0,0,0,1.32,4.18,4.2,4.2,0,0,0,3.46,1.69,7.05,7.05,0,0,0,2.57-.43,5.09,5.09,0,0,0,1.82-1.21l.69,1.12a5.83,5.83,0,0,1-2.08,1.38A7.78,7.78,0,0,1,642.38,333.42Zm-.22-14a3.85,3.85,0,0,0-3,1.39,6,6,0,0,0-1.43,3.48l0,.06h8.58V324a4.74,4.74,0,0,0-1.13-3.22A3.8,3.8,0,0,0,642.16,319.46Z"/><path class="cls-69" d="M654.34,318.34l.2,2.46V321a5.09,5.09,0,0,1,1.7-2.14,4.22,4.22,0,0,1,2.55-.78,3.83,3.83,0,0,1,.6.05l.48.1-.22,1.54-1.2-.09a3.63,3.63,0,0,0-2.51.87,4.86,4.86,0,0,0-1.4,2.39v8.83l2.2.18v1.2h-6v-1.2l2.21-.18v-12l-2.21-.18v-1.21h3.62Z"/><path class="cls-69" d="M672.59,322.9h-1.33l-.19-2.09a4.11,4.11,0,0,0-1.53-1,6.1,6.1,0,0,0-2.13-.35,4,4,0,0,0-2.66.77,2.35,2.35,0,0,0-.89,1.81,2.17,2.17,0,0,0,.77,1.7,7.36,7.36,0,0,0,3,1.17,9.91,9.91,0,0,1,3.91,1.61,3.35,3.35,0,0,1,1.3,2.77,3.61,3.61,0,0,1-1.49,3,6.22,6.22,0,0,1-3.91,1.14,9.19,9.19,0,0,1-3-.46,7.2,7.2,0,0,1-2.31-1.29v-3h1.32l.23,2.1a3.67,3.67,0,0,0,1.64.95,7.17,7.17,0,0,0,2.08.3,4.45,4.45,0,0,0,2.77-.78,2.32,2.32,0,0,0,1-1.89,2.43,2.43,0,0,0-.85-1.82,6.82,6.82,0,0,0-3-1.27,10.31,10.31,0,0,1-3.88-1.52,3.15,3.15,0,0,1-1.26-2.66,3.58,3.58,0,0,1,1.42-2.87,5.7,5.7,0,0,1,3.75-1.17,8.4,8.4,0,0,1,2.94.5,6,6,0,0,1,2.17,1.35Z"/><path class="cls-69" d="M685.94,333.13c-.11-.5-.18-.93-.23-1.3a10,10,0,0,1-.06-1.11,6.55,6.55,0,0,1-2.17,1.93,6.08,6.08,0,0,1-3,.77,4.65,4.65,0,0,1-3.33-1.12,4,4,0,0,1-1.18-3,3.74,3.74,0,0,1,1.75-3.25,8.22,8.22,0,0,1,4.73-1.21h3.24v-1.95a3.17,3.17,0,0,0-1-2.49,4.12,4.12,0,0,0-2.82-.9,7.1,7.1,0,0,0-2.23.33,5.17,5.17,0,0,0-1.68.91l-.14,2h-1.34v-2.84a8.24,8.24,0,0,1,2.43-1.28,9.05,9.05,0,0,1,3-.5,5.83,5.83,0,0,1,3.9,1.25,4.42,4.42,0,0,1,1.47,3.57v7.27c0,.3,0,.59,0,.87s.05.55.09.81l1.46.1v1.2ZM680.61,332a5.88,5.88,0,0,0,3.1-.82,4.93,4.93,0,0,0,1.94-2.12v-3h-3.27a6.06,6.06,0,0,0-3.52.92,2.77,2.77,0,0,0-1.32,2.34,2.45,2.45,0,0,0,.82,1.92A3.27,3.27,0,0,0,680.61,332Zm2.75-19.28h2l0,.08L682,316.33h-1.45Z"/><path class="cls-69" d="M694.63,318.34l.2,2.46V321a5.17,5.17,0,0,1,1.7-2.14,4.24,4.24,0,0,1,2.55-.78,3.83,3.83,0,0,1,.6.05,4.84,4.84,0,0,1,.48.1l-.21,1.54-1.21-.09a3.65,3.65,0,0,0-2.51.87,4.86,4.86,0,0,0-1.4,2.39v8.83l2.21.18v1.2h-6v-1.2l2.2-.18v-12l-2.2-.18v-1.21h3.61Z"/><path class="cls-69" d="M702.15,331.93l2.21-.18v-12l-2.21-.18v-1.21H706v13.41l2.2.18v1.2h-6ZM706,314.1h-1.61v-2.3H706Z"/><path class="cls-69" d="M710.89,325.51a8,8,0,0,1,1.77-5.35,6.32,6.32,0,0,1,9.41,0,8,8,0,0,1,1.77,5.35V326a8,8,0,0,1-1.77,5.36,5.83,5.83,0,0,1-4.68,2.09,5.91,5.91,0,0,1-4.73-2.09,8,8,0,0,1-1.77-5.36Zm1.62.46a7.09,7.09,0,0,0,1.29,4.32,4.51,4.51,0,0,0,7.13,0,7.09,7.09,0,0,0,1.29-4.32v-.46a7.09,7.09,0,0,0-1.3-4.29,4.48,4.48,0,0,0-7.12,0,7.09,7.09,0,0,0-1.29,4.29Z"/><path class="cls-69" d="M743.39,331a5.11,5.11,0,0,1-1.88,1.79,5.56,5.56,0,0,1-2.71.63,4.82,4.82,0,0,1-4.1-2,8.6,8.6,0,0,1-1.48-5.29v-.28a9.74,9.74,0,0,1,1.48-5.67,4.75,4.75,0,0,1,4.13-2.13,5.23,5.23,0,0,1,2.65.65,5.37,5.37,0,0,1,1.87,1.86V313.2l-2.2-.18V311.8H745v19.95l2.21.18v1.2h-3.65Zm-8.54-4.86a7.56,7.56,0,0,0,1.07,4.27,3.58,3.58,0,0,0,3.2,1.59,4.5,4.5,0,0,0,2.6-.72,4.68,4.68,0,0,0,1.63-1.95v-7a5.08,5.08,0,0,0-1.56-2.05,4.18,4.18,0,0,0-2.65-.79,3.52,3.52,0,0,0-3.21,1.77,8.73,8.73,0,0,0-1.08,4.6Z"/><path class="cls-69" d="M756.12,333.42a5.83,5.83,0,0,1-4.57-2.05,7.52,7.52,0,0,1-1.81-5.2v-.75a7.76,7.76,0,0,1,1.8-5.26,5.57,5.57,0,0,1,4.37-2.1,5.39,5.39,0,0,1,4.23,1.73,6.6,6.6,0,0,1,1.54,4.59v1.39H751.35v.4a6.59,6.59,0,0,0,1.32,4.18,4.18,4.18,0,0,0,3.45,1.69,7,7,0,0,0,2.57-.43,5.13,5.13,0,0,0,1.83-1.21l.69,1.12a5.92,5.92,0,0,1-2.08,1.38A7.8,7.8,0,0,1,756.12,333.42Zm-.21-14a3.84,3.84,0,0,0-3,1.39,5.9,5.9,0,0,0-1.43,3.48l0,.06h8.58V324a4.73,4.73,0,0,0-1.12-3.22A3.8,3.8,0,0,0,755.91,319.46Z"/><path class="cls-69" d="M778.33,312.94a8.47,8.47,0,0,1,2,.23,6.57,6.57,0,0,1,1.76.67l-.4,1.31a6.45,6.45,0,0,0-1.54-.62,7.44,7.44,0,0,0-1.82-.2,4.4,4.4,0,0,0-3.68,1.82,9,9,0,0,0-1.4,5.52v.67a6,6,0,0,1,2.07-1.71,6.16,6.16,0,0,1,2.79-.64,5.17,5.17,0,0,1,4.19,1.85,7.24,7.24,0,0,1,1.55,4.81,7.15,7.15,0,0,1-1.66,4.85,5.43,5.43,0,0,1-4.31,1.92,5.59,5.59,0,0,1-4.49-2.09,8.87,8.87,0,0,1-1.75-5.88v-3.63q0-4.35,1.88-6.61A5.92,5.92,0,0,1,778.33,312.94Zm-.55,8.39a4.88,4.88,0,0,0-2.86.86,4.36,4.36,0,0,0-1.67,2.22v1.16a7.7,7.7,0,0,0,1.29,4.78,4,4,0,0,0,3.34,1.69,3.77,3.77,0,0,0,3.16-1.57,6.14,6.14,0,0,0,1.18-3.82,6.05,6.05,0,0,0-1.15-3.86A3.94,3.94,0,0,0,777.78,321.33Z"/><path class="cls-69" d="M799.09,325.41a9.47,9.47,0,0,1-1.61,5.93,5.9,5.9,0,0,1-9,0,9.39,9.39,0,0,1-1.63-5.92V321a9.49,9.49,0,0,1,1.62-5.93,5.32,5.32,0,0,1,4.48-2.09,5.37,5.37,0,0,1,4.51,2.09,9.43,9.43,0,0,1,1.63,5.93Zm-1.62-4.72a8.15,8.15,0,0,0-1.16-4.71,3.84,3.84,0,0,0-3.36-1.65,3.81,3.81,0,0,0-3.34,1.66,8.14,8.14,0,0,0-1.15,4.7v5a8.14,8.14,0,0,0,1.17,4.71,4.18,4.18,0,0,0,6.69,0,8.23,8.23,0,0,0,1.15-4.72Z"/><path class="cls-69" d="M819,333.13a12.48,12.48,0,0,1-.23-1.3,8.07,8.07,0,0,1-.07-1.11,6.42,6.42,0,0,1-2.16,1.93,6.12,6.12,0,0,1-3.05.77,4.69,4.69,0,0,1-3.33-1.12,4,4,0,0,1-1.17-3,3.75,3.75,0,0,1,1.74-3.25,8.25,8.25,0,0,1,4.74-1.21h3.23v-1.95a3.17,3.17,0,0,0-1-2.49,4.08,4.08,0,0,0-2.82-.9,7.09,7.09,0,0,0-2.22.33,5.13,5.13,0,0,0-1.69.91l-.13,2h-1.34v-2.84a8.24,8.24,0,0,1,2.43-1.28,9,9,0,0,1,3-.5,5.87,5.87,0,0,1,3.9,1.25,4.42,4.42,0,0,1,1.47,3.57v7.27c0,.3,0,.59,0,.87a5.28,5.28,0,0,0,.09.81l1.46.1v1.2ZM813.71,332a5.9,5.9,0,0,0,3.1-.82,4.9,4.9,0,0,0,1.93-2.12v-3h-3.26A6.1,6.1,0,0,0,812,327a2.79,2.79,0,0,0-1.31,2.34,2.47,2.47,0,0,0,.81,1.92A3.32,3.32,0,0,0,813.71,332Z"/><path class="cls-69" d="M823.92,331.93l2.21-.18v-12l-2.21-.18v-1.21h3.64l.15,2.58a5.05,5.05,0,0,1,4.74-2.86,4.48,4.48,0,0,1,3.62,1.47,7,7,0,0,1,1.25,4.59v7.63l2.2.18v1.2h-6v-1.2l2.2-.18v-7.62a5.37,5.37,0,0,0-.94-3.59,3.38,3.38,0,0,0-2.67-1.05,4.18,4.18,0,0,0-2.78.9,5.08,5.08,0,0,0-1.55,2.42v8.94l2.21.18v1.2h-6Z"/><path class="cls-69" d="M841.93,325.51a8,8,0,0,1,1.77-5.35,6.32,6.32,0,0,1,9.41,0,8,8,0,0,1,1.77,5.35V326a8,8,0,0,1-1.77,5.36,5.83,5.83,0,0,1-4.69,2.09,5.89,5.89,0,0,1-4.72-2.09,8,8,0,0,1-1.77-5.36Zm1.62.46a7.09,7.09,0,0,0,1.29,4.32,4.51,4.51,0,0,0,7.13,0,7.09,7.09,0,0,0,1.28-4.32v-.46a7.09,7.09,0,0,0-1.29-4.29,4.48,4.48,0,0,0-7.12,0,7.09,7.09,0,0,0-1.29,4.29Z"/><path class="cls-69" d="M868.14,322.9h-1.33l-.19-2.09a4.11,4.11,0,0,0-1.53-1,6.1,6.1,0,0,0-2.13-.35,4,4,0,0,0-2.66.77,2.35,2.35,0,0,0-.89,1.81,2.17,2.17,0,0,0,.77,1.7,7.36,7.36,0,0,0,3.05,1.17,9.91,9.91,0,0,1,3.91,1.61,3.35,3.35,0,0,1,1.3,2.77,3.61,3.61,0,0,1-1.49,3,6.22,6.22,0,0,1-3.91,1.14,9.19,9.19,0,0,1-3-.46,7.2,7.2,0,0,1-2.31-1.29v-3h1.32l.23,2.1a3.67,3.67,0,0,0,1.64.95,7.17,7.17,0,0,0,2.08.3,4.45,4.45,0,0,0,2.77-.78,2.32,2.32,0,0,0,1-1.89,2.43,2.43,0,0,0-.85-1.82,6.82,6.82,0,0,0-3.05-1.27,10.31,10.31,0,0,1-3.88-1.52,3.15,3.15,0,0,1-1.26-2.66,3.58,3.58,0,0,1,1.42-2.87,5.7,5.7,0,0,1,3.75-1.17,8.4,8.4,0,0,1,2.94.5,6,6,0,0,1,2.17,1.35Z"/><path class="cls-69" d="M888.3,331a5.19,5.19,0,0,1-1.88,1.79,5.56,5.56,0,0,1-2.71.63,4.83,4.83,0,0,1-4.11-2,8.67,8.67,0,0,1-1.48-5.29v-.28a9.81,9.81,0,0,1,1.48-5.67,4.76,4.76,0,0,1,4.14-2.13,5.23,5.23,0,0,1,2.65.65,5.37,5.37,0,0,1,1.87,1.86V313.2l-2.21-.18V311.8h3.83v19.95l2.21.18v1.2h-3.66Zm-8.54-4.86a7.56,7.56,0,0,0,1.06,4.27A3.6,3.6,0,0,0,884,332a4.51,4.51,0,0,0,2.61-.72,4.68,4.68,0,0,0,1.63-1.95v-7a5,5,0,0,0-1.57-2.05,4.17,4.17,0,0,0-2.64-.79,3.5,3.5,0,0,0-3.21,1.77,8.73,8.73,0,0,0-1.08,4.6Z"/><path class="cls-69" d="M904.68,333.13c-.11-.5-.18-.93-.23-1.3a10,10,0,0,1-.06-1.11,6.55,6.55,0,0,1-2.17,1.93,6.08,6.08,0,0,1-3,.77,4.65,4.65,0,0,1-3.33-1.12,4,4,0,0,1-1.18-3,3.74,3.74,0,0,1,1.75-3.25,8.22,8.22,0,0,1,4.73-1.21h3.24v-1.95a3.17,3.17,0,0,0-1-2.49,4.12,4.12,0,0,0-2.82-.9,7.1,7.1,0,0,0-2.23.33,5.17,5.17,0,0,0-1.68.91l-.14,2h-1.34v-2.84a8.24,8.24,0,0,1,2.43-1.28,9.1,9.1,0,0,1,3-.5,5.83,5.83,0,0,1,3.9,1.25,4.42,4.42,0,0,1,1.47,3.57v7.27q0,.45,0,.87a6.94,6.94,0,0,0,.08.81l1.46.1v1.2ZM899.35,332a5.88,5.88,0,0,0,3.1-.82,4.93,4.93,0,0,0,1.94-2.12v-3h-3.27a6.06,6.06,0,0,0-3.52.92,2.77,2.77,0,0,0-1.32,2.34,2.45,2.45,0,0,0,.82,1.92A3.31,3.31,0,0,0,899.35,332Z"/><path class="cls-69" d="M916.25,319.55v-1.21h3.64l.15,2.44a5.28,5.28,0,0,1,1.88-2,5.34,5.34,0,0,1,2.8-.71,4.6,4.6,0,0,1,2.8.83,4.53,4.53,0,0,1,1.61,2.52A5.71,5.71,0,0,1,931,319a4.9,4.9,0,0,1,3-.9,4.4,4.4,0,0,1,3.62,1.58,7.63,7.63,0,0,1,1.28,4.86v7.24l2.21.19v1.2h-6.05v-1.2l2.2-.19v-7.26a6.11,6.11,0,0,0-1-3.87,3.3,3.3,0,0,0-2.66-1.12,3.62,3.62,0,0,0-2.92,1.21,5.87,5.87,0,0,0-1.26,3.11,1.27,1.27,0,0,0,0,.2v7.74l2.21.18v1.2h-6v-1.2l2.21-.18v-7.27a6,6,0,0,0-1-3.84,3.27,3.27,0,0,0-2.66-1.15,4,4,0,0,0-2.74.88,4.72,4.72,0,0,0-1.41,2.37v9l2.21.18v1.2h-6v-1.2l2.21-.18v-12Z"/><path class="cls-69" d="M943,331.93l2.2-.18v-12l-2.2-.18v-1.21h3.81v13.41l2.21.18v1.2h-6Zm3.81-17.83H945.2v-2.3h1.61Z"/><path class="cls-69" d="M951.44,331.93l2.21-.18v-12l-2.21-.18v-1.21h3.64l.15,2.58a5.05,5.05,0,0,1,4.74-2.86,4.48,4.48,0,0,1,3.62,1.47,7,7,0,0,1,1.25,4.59v7.63l2.2.18v1.2h-6v-1.2l2.2-.18v-7.62a5.37,5.37,0,0,0-.94-3.59,3.38,3.38,0,0,0-2.67-1.05,4.18,4.18,0,0,0-2.78.9,5.08,5.08,0,0,0-1.55,2.42v8.94l2.21.18v1.2h-6Z"/><path class="cls-69" d="M969.11,313V311.8h3.82v9.07a5.26,5.26,0,0,1,2-2.07,5.37,5.37,0,0,1,2.84-.74,4.44,4.44,0,0,1,3.55,1.45,6.87,6.87,0,0,1,1.24,4.5v7.74l2.2.18v1.2h-6v-1.2l2.2-.18V324a5.1,5.1,0,0,0-.94-3.45,3.28,3.28,0,0,0-2.59-1,4.32,4.32,0,0,0-2.78.88,5.16,5.16,0,0,0-1.64,2.34v9l2.2.18v1.2h-6v-1.2l2.21-.18V313.2Z"/><path class="cls-69" d="M997.25,333.13c-.1-.5-.18-.93-.23-1.3a10,10,0,0,1-.06-1.11,6.55,6.55,0,0,1-2.17,1.93,6.08,6.08,0,0,1-3,.77,4.65,4.65,0,0,1-3.33-1.12,4,4,0,0,1-1.18-3A3.74,3.74,0,0,1,989,326a8.22,8.22,0,0,1,4.73-1.21H997v-1.95a3.17,3.17,0,0,0-1-2.49,4.08,4.08,0,0,0-2.82-.9,7.1,7.1,0,0,0-2.23.33,5.17,5.17,0,0,0-1.68.91l-.14,2h-1.34l0-2.84a8.06,8.06,0,0,1,2.42-1.28,9.1,9.1,0,0,1,3-.5,5.83,5.83,0,0,1,3.9,1.25,4.42,4.42,0,0,1,1.48,3.57v7.27c0,.3,0,.59,0,.87a6.94,6.94,0,0,0,.08.81l1.47.1v1.2ZM991.92,332a5.85,5.85,0,0,0,3.1-.82A4.93,4.93,0,0,0,997,329v-3H993.7a6.1,6.1,0,0,0-3.53.92,2.77,2.77,0,0,0-1.32,2.34,2.45,2.45,0,0,0,.82,1.92A3.31,3.31,0,0,0,991.92,332Z"/><path class="cls-69" d="M578.35,353.15v-1.21H582l.15,2.44a5.18,5.18,0,0,1,1.88-2,5.28,5.28,0,0,1,2.8-.72,4.6,4.6,0,0,1,2.8.83,4.53,4.53,0,0,1,1.61,2.52,5.78,5.78,0,0,1,1.89-2.45,4.9,4.9,0,0,1,3-.9,4.4,4.4,0,0,1,3.62,1.58A7.57,7.57,0,0,1,601,358.1v7.24l2.21.19v1.2h-6.05v-1.2l2.2-.19v-7.26a6,6,0,0,0-1-3.87,3.3,3.3,0,0,0-2.66-1.12,3.58,3.58,0,0,0-2.91,1.21,5.88,5.88,0,0,0-1.27,3.11,1.27,1.27,0,0,0,0,.2c0,.06,0,.15,0,.25v7.49l2.2.18v1.2h-6v-1.2l2.2-.18v-7.27a6,6,0,0,0-1-3.84,3.26,3.26,0,0,0-2.65-1.15,4,4,0,0,0-2.74.88,4.66,4.66,0,0,0-1.42,2.37v9l2.21.18v1.2h-6v-1.2l2.21-.18v-12Z"/><path class="cls-69" d="M615.32,366.73a12.48,12.48,0,0,1-.23-1.3,8.07,8.07,0,0,1-.07-1.11,6.36,6.36,0,0,1-2.17,1.93,6.05,6.05,0,0,1-3,.77,4.69,4.69,0,0,1-3.33-1.12,4,4,0,0,1-1.18-3,3.76,3.76,0,0,1,1.75-3.25,8.22,8.22,0,0,1,4.73-1.21H615v-1.95a3.17,3.17,0,0,0-1-2.49,4.08,4.08,0,0,0-2.82-.9,7.19,7.19,0,0,0-2.23.33,5.17,5.17,0,0,0-1.68.91l-.14,2h-1.33v-2.85a8,8,0,0,1,2.43-1.28,9,9,0,0,1,3-.5,5.82,5.82,0,0,1,3.89,1.25,4.39,4.39,0,0,1,1.48,3.57v7.27c0,.3,0,.59,0,.87a5.28,5.28,0,0,0,.09.81l1.46.1v1.2Zm.58-20.49a2.78,2.78,0,0,1-.75,2,2.42,2.42,0,0,1-1.85.8,3.49,3.49,0,0,1-2-.76,3.28,3.28,0,0,0-1.78-.75,1.36,1.36,0,0,0-1.06.48,1.74,1.74,0,0,0-.44,1.22l-1.07-.25a2.84,2.84,0,0,1,.73-2,2.35,2.35,0,0,1,1.84-.8,3.7,3.7,0,0,1,2,.75,3.6,3.6,0,0,0,1.82.75,1.38,1.38,0,0,0,1.07-.49,1.79,1.79,0,0,0,.45-1.25ZM610,365.57a5.84,5.84,0,0,0,3.09-.82,4.81,4.81,0,0,0,1.94-2.12v-3h-3.26a6.1,6.1,0,0,0-3.53.92,2.77,2.77,0,0,0-1.32,2.34,2.48,2.48,0,0,0,.82,1.92A3.32,3.32,0,0,0,610,365.57Z"/><path class="cls-69" d="M627,367a5.83,5.83,0,0,1-4.57-2,7.52,7.52,0,0,1-1.81-5.2V359a7.77,7.77,0,0,1,1.8-5.26,5.57,5.57,0,0,1,4.37-2.1,5.39,5.39,0,0,1,4.23,1.73,6.62,6.62,0,0,1,1.54,4.59v1.4H622.18v.39A6.59,6.59,0,0,0,623.5,364a4.18,4.18,0,0,0,3.45,1.69,6.81,6.81,0,0,0,2.57-.43,5.13,5.13,0,0,0,1.83-1.21l.69,1.12A5.92,5.92,0,0,1,630,366.5,7.8,7.8,0,0,1,627,367Zm-.21-14a3.84,3.84,0,0,0-3,1.39,5.9,5.9,0,0,0-1.43,3.48l0,.06h8.58v-.41a4.73,4.73,0,0,0-1.12-3.22A3.8,3.8,0,0,0,626.74,353.06Z"/><path class="cls-69" d="M637.76,366.07a6.49,6.49,0,0,1-.5,2.47,6,6,0,0,1-1.39,2l-1-.71a7.19,7.19,0,0,0,.94-1.79,6.12,6.12,0,0,0,.3-2v-1.94h1.61Z"/><path class="cls-69" d="M655.35,346.82a8.31,8.31,0,0,1,6.21,2.4,8.51,8.51,0,0,1,2.34,6.2v2.72a8.46,8.46,0,0,1-2.34,6.2,8.3,8.3,0,0,1-6.21,2.39H647.1V365l2.2-.38V348.94l-2.2-.38v-1.74h8.25ZM652,348.94v15.69h3.38a5.42,5.42,0,0,0,4.31-1.82,6.9,6.9,0,0,0,1.58-4.67V355.4a6.83,6.83,0,0,0-1.58-4.64,5.42,5.42,0,0,0-4.31-1.82Z"/><path class="cls-69" d="M666.56,359.2a8.22,8.22,0,0,1,1.75-5.41,6.46,6.46,0,0,1,9.58,0,8.23,8.23,0,0,1,1.76,5.42v.3a8.11,8.11,0,0,1-1.76,5.41,5.87,5.87,0,0,1-4.77,2.11,6,6,0,0,1-4.81-2.11,8.2,8.2,0,0,1-1.75-5.41Zm2.66.3a7.09,7.09,0,0,0,1,3.88,3.51,3.51,0,0,0,5.8,0,7,7,0,0,0,1-3.88v-.3a7,7,0,0,0-1-3.87,3.5,3.5,0,0,0-5.81,0,7.21,7.21,0,0,0-1,3.87Z"/><path class="cls-69" d="M681.69,365l2.21-.38V354.06l-2.21-.39v-1.73h4.59l.19,2.2a5.43,5.43,0,0,1,1.83-1.83,4.92,4.92,0,0,1,2.51-.65,4.75,4.75,0,0,1,3.67,1.41,6.15,6.15,0,0,1,1.3,4.32v7.24l2.2.38v1.72h-7.07V365l2.2-.38v-7.18a4,4,0,0,0-.76-2.78,3.07,3.07,0,0,0-2.33-.82,3.76,3.76,0,0,0-2,.56,4.16,4.16,0,0,0-1.41,1.53v8.69l2.2.38v1.72h-7.08Z"/><path class="cls-69" d="M709.47,366.73c-.08-.4-.14-.76-.19-1.08s-.07-.64-.09-1a6.46,6.46,0,0,1-1.93,1.66,4.8,4.8,0,0,1-2.47.67,4.91,4.91,0,0,1-3.48-1.13,4.18,4.18,0,0,1-1.19-3.18,3.69,3.69,0,0,1,1.69-3.25,8.14,8.14,0,0,1,4.62-1.14h2.74V356.6a2.69,2.69,0,0,0-.81-2.06,3.2,3.2,0,0,0-2.26-.76,5.57,5.57,0,0,0-1.76.26,3.37,3.37,0,0,0-1.24.71l-.29,1.56h-2v-2.87a7.74,7.74,0,0,1,2.42-1.29,9.62,9.62,0,0,1,3.09-.49,6.09,6.09,0,0,1,4,1.29,4.51,4.51,0,0,1,1.54,3.68v7.12c0,.19,0,.38,0,.56a5.21,5.21,0,0,0,0,.55L713,365v1.72Zm-4.29-2a4.66,4.66,0,0,0,2.42-.64,3.84,3.84,0,0,0,1.57-1.55v-2.43h-2.84a4,4,0,0,0-2.59.77,2.32,2.32,0,0,0-1,1.86,1.87,1.87,0,0,0,.59,1.48A2.72,2.72,0,0,0,705.18,364.76Z"/><path class="cls-69" d="M727.72,348.56l-1.8.29,4.41,12.93.45,1.57h.08l.45-1.57,4.4-12.95-1.78-.27v-1.74h6.21v1.74l-1.58.22-6.6,18h-2.29l-6.6-18-1.57-.22v-1.74h6.22Z"/><path class="cls-69" d="M748,367a6.16,6.16,0,0,1-4.86-2.06,7.81,7.81,0,0,1-1.81-5.34V359a7.64,7.64,0,0,1,1.86-5.26,5.73,5.73,0,0,1,4.41-2.1,5.53,5.53,0,0,1,4.47,1.81,7.19,7.19,0,0,1,1.52,4.81V360h-9.5l0,.07a6,6,0,0,0,1.07,3.51,3.41,3.41,0,0,0,2.88,1.37,6.63,6.63,0,0,0,2.38-.39,5.44,5.44,0,0,0,1.77-1.07l1,1.75a6.48,6.48,0,0,1-2.08,1.29A8.25,8.25,0,0,1,748,367Zm-.4-13.24a2.89,2.89,0,0,0-2.29,1.14,5.46,5.46,0,0,0-1.16,2.87l0,.07H751v-.36a4.14,4.14,0,0,0-.84-2.65A3,3,0,0,0,747.64,353.78Z"/><path class="cls-69" d="M756.26,353.67v-1.73h4.58l.26,2.14a5.25,5.25,0,0,1,1.54-1.77,3.53,3.53,0,0,1,2.09-.65,4.85,4.85,0,0,1,.64,0,4.59,4.59,0,0,1,.51.1l-.35,2.51-1.52-.09a3.05,3.05,0,0,0-1.77.5,3.25,3.25,0,0,0-1.11,1.4v8.5l2.2.38v1.72h-7.07V365l2.2-.38V354.06Z"/><path class="cls-69" d="M767.72,365l2.2-.38V354.06l-2.2-.39v-1.73h4.87v12.69l2.2.38v1.72h-7.07Zm4.87-16.86h-2.67V345.4h2.67Z"/><path class="cls-69" d="M786.69,365a4.85,4.85,0,0,1-1.76,1.53,5.37,5.37,0,0,1-2.4.52,5,5,0,0,1-4.18-2,8.23,8.23,0,0,1-1.51-5.17v-.28a9.93,9.93,0,0,1,1.51-5.76,4.82,4.82,0,0,1,4.21-2.19,5.18,5.18,0,0,1,2.29.49,4.67,4.67,0,0,1,1.7,1.4v-6l-2.2-.38V345.4h4.87v19.23l2.2.38v1.72H786.9Zm-7.19-5.08a6.33,6.33,0,0,0,.91,3.59,3.13,3.13,0,0,0,2.8,1.35,3.46,3.46,0,0,0,2-.55,4.14,4.14,0,0,0,1.34-1.54v-6.86a4,4,0,0,0-1.34-1.48,3.45,3.45,0,0,0-2-.55,3,3,0,0,0-2.83,1.6,8.44,8.44,0,0,0-.91,4.16Z"/><path class="cls-69" d="M793.45,365l2.21-.38V354.06l-2.21-.39v-1.73h4.87v12.69l2.21.38v1.72h-7.08Zm4.87-16.86h-2.66V345.4h2.66Z"/><path class="cls-69" d="M812.11,366.73c-.08-.4-.15-.76-.19-1.08s-.08-.64-.1-1a6.3,6.3,0,0,1-1.92,1.66,5.45,5.45,0,0,1-5.95-.46,4.18,4.18,0,0,1-1.19-3.18,3.7,3.7,0,0,1,1.68-3.25,8.18,8.18,0,0,1,4.62-1.14h2.75V356.6a2.69,2.69,0,0,0-.81-2.06,3.22,3.22,0,0,0-2.26-.76A5.59,5.59,0,0,0,807,354a3.32,3.32,0,0,0-1.23.71l-.29,1.56H803.4v-2.87a7.63,7.63,0,0,1,2.42-1.29,9.52,9.52,0,0,1,3.08-.49,6.05,6.05,0,0,1,4,1.29,4.52,4.52,0,0,1,1.55,3.68v7.68c0,.18,0,.36,0,.55l1.08.15v1.72Zm-4.29-2a4.68,4.68,0,0,0,2.42-.64,4,4,0,0,0,1.57-1.55v-2.43H809a4,4,0,0,0-2.59.77,2.3,2.3,0,0,0-1,1.86,1.84,1.84,0,0,0,.6,1.48A2.72,2.72,0,0,0,807.82,364.76Z"/><path class="cls-69" d="M817.43,365l2.2-.38V354.06l-2.2-.39v-1.73H822l.19,2.2a5.43,5.43,0,0,1,1.83-1.83,4.92,4.92,0,0,1,2.51-.65,4.73,4.73,0,0,1,3.67,1.41,6.15,6.15,0,0,1,1.3,4.32v7.24l2.21.38v1.72h-7.08V365l2.21-.38v-7.18a4,4,0,0,0-.77-2.78,3.07,3.07,0,0,0-2.33-.82,3.76,3.76,0,0,0-2,.56,4.16,4.16,0,0,0-1.41,1.53v8.69l2.2.38v1.72h-7.07Z"/><path class="cls-69" d="M845.2,366.73c-.08-.4-.14-.76-.19-1.08s-.07-.64-.09-1a6.46,6.46,0,0,1-1.93,1.66,4.8,4.8,0,0,1-2.47.67,4.91,4.91,0,0,1-3.48-1.13,4.18,4.18,0,0,1-1.19-3.18,3.69,3.69,0,0,1,1.69-3.25,8.14,8.14,0,0,1,4.62-1.14h2.74V356.6a2.69,2.69,0,0,0-.81-2.06,3.2,3.2,0,0,0-2.26-.76,5.57,5.57,0,0,0-1.76.26,3.45,3.45,0,0,0-1.24.71l-.28,1.56h-2.06v-2.87a7.74,7.74,0,0,1,2.42-1.29,9.62,9.62,0,0,1,3.09-.49,6.09,6.09,0,0,1,4,1.29,4.51,4.51,0,0,1,1.54,3.68v7.12c0,.19,0,.38,0,.56a5.21,5.21,0,0,0,0,.55l1.08.15v1.72Zm-4.29-2a4.72,4.72,0,0,0,2.43-.64,3.87,3.87,0,0,0,1.56-1.55v-2.43h-2.84a4,4,0,0,0-2.59.77,2.32,2.32,0,0,0-1,1.86,1.87,1.87,0,0,0,.59,1.48A2.72,2.72,0,0,0,840.91,364.76Z"/><path class="cls-69" d="M853.52,366.73h-1.85v-2.24h1.85Z"/><g class="cls-103"><path class="cls-96" d="M190,275.55s-6.77,14.38-4.3,22.7S202.88,312,202.88,312s37.07,22.44,68.87,18.45,21.38-11,21.38-11l-55.79-45.94Z"/><path class="cls-96" d="M298,272s-5.18,10.44-3,17.43,15.57,10.15,15.57,10.15l10.35.39,104,5.36s7.43-21.13-51.76-33.44S298,272,298,272Z"/><path class="cls-104" d="M202.2,14.2l2.37,26.31s-29.12,70.66-9.27,203l-6,40.43s24.06,11.27,41.43,15.9a72.35,72.35,0,0,0,32,1.2s-39.64-43.48-45.34-49.63L267.07,11S238.58-46.54,202.2,14.2Z"/><path class="cls-104" d="M284.55,12.39S258.79,82.93,300,217.08c0,0,5.91,55.23-2.05,54.93s81.06,6.76,86.9,7-44.4-20.8-48.8-31.06-6.29-201.14-.33-218.46a234.54,234.54,0,0,0,8.72-34.22S289.46,1.67,284.55,12.39Z"/><path class="cls-96" d="M172.66-198.52S155.05-125.95,157-106.07s4.68,52.17,34,145.94c0,0,78.26,32.39,150.2-.8,0,0,6.29-1.86,10.91-43.82s12.42-142.59-8.72-187.46S172.66-198.52,172.66-198.52Z"/></g></g></svg>