<svg xmlns="http://www.w3.org/2000/svg" xmlns:xlink="http://www.w3.org/1999/xlink" viewBox="0 0 1124.64 651.26"><defs><style>.cls-1{fill:none;}.cls-2{clip-path:url(#clip-path);}.cls-3{fill:#312235;}.cls-4{fill:#ce7061;}.cls-5{fill:#dd7a7a;}.cls-6{fill:#c6b366;}.cls-7{clip-path:url(#clip-path-2);}.cls-8{fill:#fff3c2;}.cls-9{fill:#fff3c3;}.cls-10{fill:#fff3c4;}.cls-11{fill:#fff4c5;}.cls-12{fill:#fff4c6;}.cls-13{fill:#fff4c7;}.cls-14{fill:#fff4c8;}.cls-15{fill:#fff4c9;}.cls-16{fill:#fff5ca;}.cls-17{fill:#fff5cb;}.cls-18{fill:#fff5cc;}.cls-19{fill:#fff5cd;}.cls-20{fill:#fff5ce;}.cls-21{fill:#fff6cf;}.cls-22{fill:#fff6d0;}.cls-23{fill:#fff6d1;}.cls-24{fill:#fff6d2;}.cls-25{fill:#fff6d3;}.cls-26{fill:#fff7d4;}.cls-27{fill:#fff7d5;}.cls-28{fill:#fff7d6;}.cls-29{fill:#fff7d7;}.cls-30{fill:#fff7d8;}.cls-31{fill:#fff8d9;}.cls-32{fill:#fff8da;}.cls-33{fill:#fff8db;}.cls-34{fill:#fff8dc;}.cls-35{fill:#fff8dd;}.cls-36{fill:#fff9de;}.cls-37{fill:#fff9df;}.cls-38{fill:#fff9e0;}.cls-39{fill:#fff9e2;}.cls-40{fill:#fff9e3;}.cls-41{fill:#fffae4;}.cls-42{fill:#fffae5;}.cls-43{fill:#fffae6;}.cls-44{fill:#fffae7;}.cls-45{fill:#fffae8;}.cls-46{fill:#fffbe9;}.cls-47{fill:#fffbea;}.cls-48{fill:#fffbeb;}.cls-49{fill:#fffbec;}.cls-50{fill:#fffbed;}.cls-51{fill:#fffcee;}.cls-52{fill:#fffcef;}.cls-53{fill:#fffcf0;}.cls-54{fill:#fffcf1;}.cls-55{fill:#fffcf2;}.cls-56{fill:#fffdf3;}.cls-57{fill:#fffdf4;}.cls-58{fill:#fffdf5;}.cls-59{fill:#fffdf6;}.cls-60{fill:#fffdf7;}.cls-61{fill:#fffef8;}.cls-62{fill:#fffef9;}.cls-63{fill:#fffefa;}.cls-64{fill:#fffefb;}.cls-65{fill:#fffefc;}.cls-66{fill:#fffffd;}.cls-67{fill:#fffffe;}.cls-68{fill:#fff;}.cls-69{fill:#ffeda1;}.cls-70{fill:#3a1e1c;}.cls-71{clip-path:url(#clip-path-3);}.cls-72{clip-path:url(#clip-path-4);}.cls-73{fill:#d88268;}.cls-74{fill:#d98369;}.cls-75{fill:#da8469;}.cls-76{fill:#db856a;}.cls-77{fill:#dc866b;}.cls-78{fill:#dd876b;}.cls-79{fill:#de886c;}.cls-80{fill:#df896d;}.cls-81{fill:#e08a6d;}.cls-82{fill:#e18b6e;}.cls-83{fill:#e28c6f;}.cls-84{fill:#e48d70;}.cls-85{fill:#e58d70;}.cls-86{fill:#e68e71;}.cls-87{fill:#e78f72;}.cls-88{fill:#e89072;}.cls-89{fill:#e99173;}.cls-90{fill:#ea9274;}.cls-91{fill:#eb9374;}.cls-92{fill:#ec9475;}.cls-93{fill:#ed9576;}.cls-94{fill:#ee9676;}.cls-95{fill:#ef9777;}.cls-96{fill:#3d201f;}.cls-97{fill:#b5574d;}.cls-98{fill:#b3514e;}.cls-99{fill:#fc999c;}.cls-100{fill:#f9aaaa;}.cls-101{fill:#822222;}.cls-102{fill:#9b3737;}.cls-103{fill:#5b1f3c;}.cls-104{fill:#fffdfd;}</style><clipPath id="clip-path"><path class="cls-1" d="M540.86-384.19c-10.3-18-97.34-31.5-97.34-31.5S301.2-604.45,232.19-598s-80.25,56.59-80.25,56.59l-32.63,66.55C54-440,10-373.83,10-298,10-185.73,106.43-94.74,225.37-94.74c117.57,0,213.12-88.9,215.32-199.34C473-316.39,548.81-370.32,540.86-384.19Z"/></clipPath><clipPath id="clip-path-2"><path class="cls-1" d="M428.87,402.79a192.51,192.51,0,0,0-5.05-43.86c-32.69-73-109.23-124.15-198.45-124.15C106.43,234.78,10,325.78,10,438a193.16,193.16,0,0,0,5,43.87C47.74,554.84,124.28,606,213.5,606,332.44,606,428.87,515,428.87,402.79Z"/></clipPath><clipPath id="clip-path-3"><path class="cls-1" d="M541.08,351.81c-8.62-15-92-32.76-90.33-32.5,3.75,5-153.08-187.41-218.34-181.34-69,6.43-80.25,56.59-80.25,56.59l-32.63,66.55C54.27,296,10.22,362.17,10.22,438c0,112.25,96.43,203.24,215.37,203.24,117.57,0,213.12-88.9,215.32-199.34C473.26,419.61,549,365.68,541.08,351.81Z"/></clipPath><clipPath id="clip-path-4"><path class="cls-1" d="M227.9,319.63l-2.36,9.78s-19.92,12.9-37.91,11.87c-5.34-.3,67.76,42.8,71.74,43s34.38-50.16,34.38-50.16-20.41-3.73-27.17-4-14.47-18.28-14.47-18.28Z"/></clipPath></defs><title>M1-fala3</title><g id="Camada_5" data-name="Camada 5"><g class="cls-2"><path class="cls-3" d="M189.7,293.79s-6.77,14.38-4.3,22.7,17.23,13.73,17.23,13.73,37.07,22.44,68.87,18.45,21.38-11,21.38-11l-55.79-45.94Z"/><path class="cls-3" d="M297.71,290.25s-5.18,10.44-3,17.43,15.57,10.15,15.57,10.15l10.35.39,104,5.36s7.43-21.13-51.76-33.44S297.71,290.25,297.71,290.25Z"/><path class="cls-4" d="M202,32.44l2.37,26.31s-29.12,70.66-9.27,203l-6,40.43S213.13,313.4,230.5,318a72.35,72.35,0,0,0,32,1.2s-39.64-43.48-45.34-49.63L266.82,29.2S238.33-28.3,202,32.44Z"/><path class="cls-4" d="M284.3,30.63s-25.76,70.54,15.46,204.69c0,0,5.91,55.23-2.05,54.93s81.06,6.76,86.9,7-44.4-20.8-48.8-31.06S329.52,65,335.48,47.71a234.2,234.2,0,0,0,8.72-34.22S289.21,19.91,284.3,30.63Z"/><path class="cls-3" d="M172.41-180.28s-17.61,72.57-15.63,92.45,4.68,52.17,34,145.94c0,0,78.25,32.39,150.2-.8,0,0,6.29-1.86,10.91-43.82S364.32-129.1,343.18-174,172.41-180.28,172.41-180.28Z"/></g><path class="cls-5" d="M225.37,234.78c119,0,215.37,91,215.37,203.24S344.32,641.26,225.37,641.26,10,550.27,10,438s96.42-203.24,215.37-203.24m0-10a235.1,235.1,0,0,0-87.54,16.69A225.72,225.72,0,0,0,66.22,287,212.37,212.37,0,0,0,17.8,354.82a203.34,203.34,0,0,0,0,166.4A212.3,212.3,0,0,0,66.22,589a225.89,225.89,0,0,0,71.61,45.57,238.05,238.05,0,0,0,175.08,0A225.94,225.94,0,0,0,384.53,589a212.12,212.12,0,0,0,48.41-67.79,203.34,203.34,0,0,0,0-166.4A212.19,212.19,0,0,0,384.53,287a225.76,225.76,0,0,0-71.62-45.57,235.1,235.1,0,0,0-87.54-16.69Z"/><ellipse class="cls-6" cx="225.37" cy="438.02" rx="215.37" ry="203.24"/><g class="cls-7"><rect class="cls-8" x="10" y="234.78" width="418.87" height="371.24"/><path class="cls-8" d="M429.87,358.41v24.32h5.82a120.91,120.91,0,1,1,0-48.65h-5.82Z"/><circle class="cls-9" cx="316.21" cy="360" r="118.73"/><circle class="cls-10" cx="314.98" cy="361.6" r="116.75"/><circle class="cls-11" cx="313.75" cy="363.19" r="114.77"/><circle class="cls-12" cx="312.53" cy="364.78" r="112.79"/><circle class="cls-13" cx="311.3" cy="366.38" r="110.82"/><circle class="cls-14" cx="310.07" cy="367.97" r="108.84"/><circle class="cls-15" cx="308.85" cy="369.57" r="106.86"/><circle class="cls-16" cx="307.62" cy="371.16" r="104.88"/><circle class="cls-17" cx="306.39" cy="372.76" r="102.9"/><circle class="cls-18" cx="305.17" cy="374.35" r="100.92"/><circle class="cls-19" cx="303.94" cy="375.95" r="98.94"/><circle class="cls-20" cx="302.71" cy="377.54" r="96.96"/><circle class="cls-21" cx="301.48" cy="379.13" r="94.98"/><circle class="cls-22" cx="300.26" cy="380.73" r="93.01"/><circle class="cls-23" cx="299.03" cy="382.32" r="91.03"/><circle class="cls-24" cx="297.8" cy="383.92" r="89.05"/><circle class="cls-25" cx="296.58" cy="385.51" r="87.07"/><circle class="cls-26" cx="295.35" cy="387.11" r="85.09"/><circle class="cls-27" cx="294.12" cy="388.7" r="83.11"/><circle class="cls-28" cx="292.9" cy="390.3" r="81.13"/><circle class="cls-29" cx="291.67" cy="391.89" r="79.15"/><circle class="cls-30" cx="290.44" cy="393.48" r="77.18"/><circle class="cls-31" cx="289.22" cy="395.08" r="75.2"/><circle class="cls-32" cx="287.99" cy="396.67" r="73.22"/><circle class="cls-33" cx="286.76" cy="398.27" r="71.24"/><circle class="cls-34" cx="285.54" cy="399.86" r="69.26"/><circle class="cls-35" cx="284.31" cy="401.46" r="67.28"/><circle class="cls-36" cx="283.08" cy="403.05" r="65.3"/><circle class="cls-37" cx="281.85" cy="404.64" r="63.32"/><circle class="cls-38" cx="280.63" cy="406.24" r="61.34"/><circle class="cls-39" cx="279.4" cy="407.83" r="59.37"/><circle class="cls-40" cx="278.17" cy="409.43" r="57.39"/><circle class="cls-41" cx="276.95" cy="411.02" r="55.41"/><circle class="cls-42" cx="275.72" cy="412.62" r="53.43"/><circle class="cls-43" cx="274.49" cy="414.21" r="51.45"/><circle class="cls-44" cx="273.27" cy="415.81" r="49.47"/><circle class="cls-45" cx="272.04" cy="417.4" r="47.49"/><circle class="cls-46" cx="270.81" cy="418.99" r="45.51"/><circle class="cls-47" cx="269.59" cy="420.59" r="43.53"/><circle class="cls-48" cx="268.36" cy="422.18" r="41.56"/><circle class="cls-49" cx="267.13" cy="423.78" r="39.58"/><circle class="cls-50" cx="265.9" cy="425.37" r="37.6"/><circle class="cls-51" cx="264.68" cy="426.97" r="35.62"/><circle class="cls-52" cx="263.45" cy="428.56" r="33.64"/><circle class="cls-53" cx="262.22" cy="430.16" r="31.66"/><circle class="cls-54" cx="261" cy="431.75" r="29.68"/><circle class="cls-55" cx="259.77" cy="433.34" r="27.7"/><circle class="cls-56" cx="258.54" cy="434.94" r="25.73"/><circle class="cls-57" cx="257.32" cy="436.53" r="23.75"/><circle class="cls-58" cx="256.09" cy="438.13" r="21.77"/><circle class="cls-59" cx="254.86" cy="439.72" r="19.79"/><circle class="cls-60" cx="253.64" cy="441.32" r="17.81"/><circle class="cls-61" cx="252.41" cy="442.91" r="15.83"/><circle class="cls-62" cx="251.18" cy="444.51" r="13.85"/><circle class="cls-63" cx="249.96" cy="446.1" r="11.87"/><circle class="cls-64" cx="248.73" cy="447.69" r="9.89"/><circle class="cls-65" cx="247.5" cy="449.29" r="7.92"/><circle class="cls-66" cx="246.27" cy="450.88" r="5.94"/><circle class="cls-67" cx="245.05" cy="452.48" r="3.96"/><circle class="cls-68" cx="243.82" cy="454.07" r="1.98"/></g><path class="cls-6" d="M787.8,44.22c-174.89,0-318.64,118.13-335.23,269.27L353,353.14s-6.51,2.41-5.85,11.74a12.7,12.7,0,0,0,7.43,10.89L458.82,407C492,541,626.68,641.26,787.8,641.26c186,0,336.84-133.65,336.84-298.52S973.83,44.22,787.8,44.22Z"/><path class="cls-69" d="M787.75,0C612.85,0,469.11,118.13,452.52,269.27L353,308.92s-6.51,2.41-5.86,11.74a12.7,12.7,0,0,0,7.44,10.88l104.21,31.28C492,496.78,626.63,597,787.75,597c186,0,336.84-133.65,336.84-298.52S973.78,0,787.75,0Z"/><path class="cls-70" d="M590.25,218.69h-8.08V227h9.31l.12-3H593v4.36H578.35v-1.2l2.21-.18V209.82l-2.21-.18v-1.22H593v4.38h-1.44l-.12-3h-9.24v7.48h8.08Z"/><path class="cls-70" d="M606.73,218.1H605.4l-.19-2.09a4.15,4.15,0,0,0-1.54-1,6,6,0,0,0-2.13-.35,4,4,0,0,0-2.66.77,2.34,2.34,0,0,0-.88,1.81,2.16,2.16,0,0,0,.76,1.7,7.42,7.42,0,0,0,3,1.17,10,10,0,0,1,3.91,1.61,3.32,3.32,0,0,1,1.3,2.77,3.6,3.6,0,0,1-1.48,3,6.24,6.24,0,0,1-3.91,1.14,9.19,9.19,0,0,1-3-.46,7.2,7.2,0,0,1-2.31-1.29v-3h1.31l.23,2.1a3.71,3.71,0,0,0,1.65.95,7.12,7.12,0,0,0,2.08.3,4.45,4.45,0,0,0,2.77-.78,2.3,2.3,0,0,0,1-1.89,2.42,2.42,0,0,0-.84-1.82,6.88,6.88,0,0,0-3.05-1.27,10.24,10.24,0,0,1-3.88-1.52,3.15,3.15,0,0,1-1.26-2.66,3.58,3.58,0,0,1,1.42-2.87,5.68,5.68,0,0,1,3.74-1.17,8.41,8.41,0,0,1,3,.5,6,6,0,0,1,2.17,1.35Z"/><path class="cls-70" d="M609.54,214.75v-1.21h3.56l.2,2.29a5.11,5.11,0,0,1,4.62-2.57,4.75,4.75,0,0,1,4.12,2.13,9.74,9.74,0,0,1,1.49,5.67v.28a8.61,8.61,0,0,1-1.49,5.3,4.84,4.84,0,0,1-4.1,2,5.78,5.78,0,0,1-2.7-.6,4.85,4.85,0,0,1-1.88-1.69v6.29l2.2.18V234h-6V232.8l2.21-.18V214.93Zm12.37,6.31a8.58,8.58,0,0,0-1.11-4.6,3.61,3.61,0,0,0-3.25-1.77,4.27,4.27,0,0,0-2.66.78,4.85,4.85,0,0,0-1.53,2.05v7.1a4.38,4.38,0,0,0,1.6,1.92,4.67,4.67,0,0,0,2.62.7,3.65,3.65,0,0,0,3.22-1.62,7.4,7.4,0,0,0,1.11-4.28Z"/><path class="cls-70" d="M632.62,228.62a5.83,5.83,0,0,1-4.57-2.05,7.52,7.52,0,0,1-1.81-5.2v-.75a7.77,7.77,0,0,1,1.8-5.26,5.57,5.57,0,0,1,4.37-2.1,5.39,5.39,0,0,1,4.23,1.73,6.6,6.6,0,0,1,1.54,4.59V221H627.85v.4a6.59,6.59,0,0,0,1.32,4.18,4.18,4.18,0,0,0,3.45,1.69,6.81,6.81,0,0,0,2.57-.43A5.13,5.13,0,0,0,637,225.6l.69,1.12a6.07,6.07,0,0,1-2.08,1.39A8,8,0,0,1,632.62,228.62Zm-.21-14a3.86,3.86,0,0,0-3,1.39,6,6,0,0,0-1.42,3.48l0,.06h8.58v-.41a4.73,4.73,0,0,0-1.12-3.22A3.8,3.8,0,0,0,632.41,214.66Z"/><path class="cls-70" d="M644.58,213.54l.21,2.46v.18a5.21,5.21,0,0,1,1.69-2.14,4.24,4.24,0,0,1,2.55-.78,4.07,4.07,0,0,1,.61.05l.48.1L649.9,215l-1.2-.09a3.63,3.63,0,0,0-2.51.87,4.71,4.71,0,0,0-1.4,2.39V227l2.2.18v1.2h-6v-1.2l2.2-.18v-12l-2.2-.18v-1.21h3.61Z"/><path class="cls-70" d="M651.94,220.71a8,8,0,0,1,1.77-5.35,6.32,6.32,0,0,1,9.41,0,8,8,0,0,1,1.77,5.35v.46a8,8,0,0,1-1.76,5.36,6.35,6.35,0,0,1-9.42,0,8,8,0,0,1-1.77-5.36Zm1.63.46a7.09,7.09,0,0,0,1.28,4.32,4.51,4.51,0,0,0,7.13,0,7.09,7.09,0,0,0,1.29-4.32v-.46a7,7,0,0,0-1.3-4.29,4.48,4.48,0,0,0-7.12,0,7.08,7.08,0,0,0-1.28,4.29Z"/><path class="cls-70" d="M674.27,221.06a9.74,9.74,0,0,1,1.48-5.67,4.75,4.75,0,0,1,4.13-2.13,5.25,5.25,0,0,1,2.63.64,5.14,5.14,0,0,1,1.86,1.82l.17-2.18H686v19.08l2.2.18V234h-6V232.8l2.2-.18v-6.23a5,5,0,0,1-1.86,1.65,5.58,5.58,0,0,1-2.61.58,4.83,4.83,0,0,1-4.11-2,8.6,8.6,0,0,1-1.48-5.29Zm1.63.28a7.65,7.65,0,0,0,1.07,4.29,3.57,3.57,0,0,0,3.2,1.61,4.5,4.5,0,0,0,2.55-.69,4.61,4.61,0,0,0,1.61-1.9v-7.22a5.24,5.24,0,0,0-1.57-2,4.08,4.08,0,0,0-2.57-.78,3.51,3.51,0,0,0-3.21,1.78,8.83,8.83,0,0,0-1.08,4.62Z"/><path class="cls-70" d="M700.5,225.9a5.14,5.14,0,0,1-1.88,2,5.48,5.48,0,0,1-2.83.71,4.44,4.44,0,0,1-3.62-1.59,7.68,7.68,0,0,1-1.3-4.92v-7.18l-1.81-.18v-1.21h3.42v8.6a6.4,6.4,0,0,0,.91,3.88A3.11,3.11,0,0,0,696,227.2a4.72,4.72,0,0,0,2.93-.83,4.32,4.32,0,0,0,1.54-2.26v-9.18l-2.09-.18v-1.21h3.71V227l2,.18v1.2h-3.38Z"/><path class="cls-70" d="M712.87,228.62a5.81,5.81,0,0,1-4.57-2.05,7.53,7.53,0,0,1-1.82-5.2v-.75a7.78,7.78,0,0,1,1.81-5.26,5.56,5.56,0,0,1,4.36-2.1,5.4,5.4,0,0,1,4.24,1.73,6.6,6.6,0,0,1,1.54,4.59V221H708.09v.4a6.59,6.59,0,0,0,1.32,4.18,4.2,4.2,0,0,0,3.46,1.69,6.81,6.81,0,0,0,2.57-.43,5.22,5.22,0,0,0,1.83-1.21l.69,1.12a6,6,0,0,1-2.09,1.39A8,8,0,0,1,712.87,228.62Zm-.22-14a3.85,3.85,0,0,0-3,1.39,6,6,0,0,0-1.43,3.48l0,.06h8.58v-.41A4.73,4.73,0,0,0,715.7,216,3.82,3.82,0,0,0,712.65,214.66Z"/><path class="cls-70" d="M734.52,228.62a5.85,5.85,0,0,1-4.58-2.05,7.57,7.57,0,0,1-1.81-5.2v-.75a7.73,7.73,0,0,1,1.81-5.26,5.56,5.56,0,0,1,4.36-2.1,5.4,5.4,0,0,1,4.24,1.73,6.65,6.65,0,0,1,1.54,4.59V221H729.74v.4a6.59,6.59,0,0,0,1.32,4.18,4.2,4.2,0,0,0,3.46,1.69,6.81,6.81,0,0,0,2.57-.43,5.09,5.09,0,0,0,1.82-1.21l.69,1.12a6,6,0,0,1-2.08,1.39A8,8,0,0,1,734.52,228.62Zm-.22-14a3.85,3.85,0,0,0-3,1.39,6,6,0,0,0-1.43,3.48l0,.06h8.58v-.41a4.74,4.74,0,0,0-1.13-3.22A3.79,3.79,0,0,0,734.3,214.66Z"/><path class="cls-70" d="M753.59,218.1h-1.32l-.19-2.09a4.15,4.15,0,0,0-1.54-1,6.06,6.06,0,0,0-2.13-.35,4,4,0,0,0-2.66.77,2.34,2.34,0,0,0-.88,1.81,2.16,2.16,0,0,0,.76,1.7,7.42,7.42,0,0,0,3,1.17,10,10,0,0,1,3.91,1.61,3.32,3.32,0,0,1,1.3,2.77,3.6,3.6,0,0,1-1.48,3,6.25,6.25,0,0,1-3.92,1.14,9.17,9.17,0,0,1-3-.46,7.2,7.2,0,0,1-2.31-1.29v-3h1.31l.23,2.1a3.71,3.71,0,0,0,1.65.95,7.1,7.1,0,0,0,2.07.3,4.46,4.46,0,0,0,2.78-.78,2.33,2.33,0,0,0,1-1.89,2.42,2.42,0,0,0-.84-1.82,6.88,6.88,0,0,0-3.05-1.27,10.17,10.17,0,0,1-3.88-1.52,3.16,3.16,0,0,1-1.27-2.66,3.59,3.59,0,0,1,1.43-2.87,5.68,5.68,0,0,1,3.74-1.17,8.41,8.41,0,0,1,3,.5,6,6,0,0,1,2.17,1.35Z"/><path class="cls-70" d="M767.46,218.1h-1.32L766,216a4.15,4.15,0,0,0-1.54-1,6.1,6.1,0,0,0-2.13-.35,4,4,0,0,0-2.66.77,2.34,2.34,0,0,0-.88,1.81,2.16,2.16,0,0,0,.76,1.7,7.42,7.42,0,0,0,3,1.17,10,10,0,0,1,3.91,1.61,3.32,3.32,0,0,1,1.3,2.77,3.6,3.6,0,0,1-1.48,3,6.25,6.25,0,0,1-3.92,1.14,9.13,9.13,0,0,1-3-.46,7.2,7.2,0,0,1-2.31-1.29v-3h1.31l.23,2.1a3.65,3.65,0,0,0,1.65.95,7.1,7.1,0,0,0,2.07.3,4.48,4.48,0,0,0,2.78-.78,2.33,2.33,0,0,0,1-1.89,2.39,2.39,0,0,0-.85-1.82,6.82,6.82,0,0,0-3-1.27,10.18,10.18,0,0,1-3.87-1.52,3.13,3.13,0,0,1-1.27-2.66,3.61,3.61,0,0,1,1.42-2.87,5.72,5.72,0,0,1,3.75-1.17,8.36,8.36,0,0,1,2.94.5,6,6,0,0,1,2.18,1.35Z"/><path class="cls-70" d="M780.82,228.33a12.48,12.48,0,0,1-.23-1.3,8.07,8.07,0,0,1-.07-1.11,6.36,6.36,0,0,1-2.17,1.93,6.05,6.05,0,0,1-3,.77A4.69,4.69,0,0,1,772,227.5a4,4,0,0,1-1.18-3,3.76,3.76,0,0,1,1.75-3.25,8.23,8.23,0,0,1,4.74-1.21h3.23v-1.95a3.17,3.17,0,0,0-1-2.49,4.08,4.08,0,0,0-2.82-.9,7.19,7.19,0,0,0-2.23.33,5.17,5.17,0,0,0-1.68.91l-.14,2h-1.33V215a8.12,8.12,0,0,1,2.43-1.28,9,9,0,0,1,3-.5,5.82,5.82,0,0,1,3.89,1.25,4.39,4.39,0,0,1,1.48,3.57v7.27c0,.3,0,.59,0,.87a5.28,5.28,0,0,0,.09.81l1.46.1v1.2Zm-5.33-1.16a5.84,5.84,0,0,0,3.09-.82,4.81,4.81,0,0,0,1.94-2.12v-3h-3.26a6,6,0,0,0-3.53.93,2.73,2.73,0,0,0-1.31,2.33,2.47,2.47,0,0,0,.81,1.92A3.32,3.32,0,0,0,775.49,227.17Z"/><path class="cls-70" d="M803.36,218.1H802l-.19-2.09a4.11,4.11,0,0,0-1.53-1,6.1,6.1,0,0,0-2.13-.35,4,4,0,0,0-2.66.77,2.35,2.35,0,0,0-.89,1.81,2.17,2.17,0,0,0,.77,1.7,7.36,7.36,0,0,0,3.05,1.17,10.06,10.06,0,0,1,3.91,1.61,3.35,3.35,0,0,1,1.3,2.77,3.61,3.61,0,0,1-1.49,3,6.22,6.22,0,0,1-3.91,1.14,9.19,9.19,0,0,1-3-.46,7.2,7.2,0,0,1-2.31-1.29v-3h1.32l.23,2.1a3.67,3.67,0,0,0,1.64.95,7.17,7.17,0,0,0,2.08.3,4.45,4.45,0,0,0,2.77-.78,2.32,2.32,0,0,0,1-1.89,2.43,2.43,0,0,0-.85-1.82,6.82,6.82,0,0,0-3.05-1.27,10.31,10.31,0,0,1-3.88-1.52A3.15,3.15,0,0,1,793,217.3a3.58,3.58,0,0,1,1.42-2.87,5.72,5.72,0,0,1,3.75-1.17,8.4,8.4,0,0,1,2.94.5,6,6,0,0,1,2.17,1.35Z"/><path class="cls-70" d="M813.06,228.62a5.81,5.81,0,0,1-4.57-2.05,7.53,7.53,0,0,1-1.82-5.2v-.75a7.78,7.78,0,0,1,1.81-5.26,5.56,5.56,0,0,1,4.36-2.1,5.4,5.4,0,0,1,4.24,1.73,6.6,6.6,0,0,1,1.54,4.59V221H808.28v.4a6.59,6.59,0,0,0,1.32,4.18,4.2,4.2,0,0,0,3.46,1.69,6.81,6.81,0,0,0,2.57-.43,5.22,5.22,0,0,0,1.83-1.21l.69,1.12a6,6,0,0,1-2.09,1.39A8,8,0,0,1,813.06,228.62Zm-.22-14a3.85,3.85,0,0,0-3,1.39,6,6,0,0,0-1.42,3.48l0,.06H817v-.41a4.73,4.73,0,0,0-1.12-3.22A3.82,3.82,0,0,0,812.84,214.66Z"/><path class="cls-70" d="M825.64,229.55a5.2,5.2,0,0,1-1.08,3.52,3.81,3.81,0,0,1-3,1.23,4.75,4.75,0,0,1-.78-.06,5.74,5.74,0,0,1-.73-.2l.17-1.38a3.29,3.29,0,0,0,.58.14,3.39,3.39,0,0,0,.67.07,2.29,2.29,0,0,0,1.89-.84,3.9,3.9,0,0,0,.68-2.48V214.93l-2.21-.18v-1.21h3.83Zm-.08-20.31h-1.62V207h1.62Z"/><path class="cls-70" d="M839.23,228.33A12.48,12.48,0,0,1,839,227a8.07,8.07,0,0,1-.07-1.11,6.36,6.36,0,0,1-2.17,1.93,6.05,6.05,0,0,1-3,.77,4.69,4.69,0,0,1-3.33-1.12,4,4,0,0,1-1.18-3,3.76,3.76,0,0,1,1.75-3.25,8.22,8.22,0,0,1,4.73-1.21h3.24v-1.95a3.17,3.17,0,0,0-1-2.49,4.08,4.08,0,0,0-2.82-.9,7.19,7.19,0,0,0-2.23.33,5.17,5.17,0,0,0-1.68.91l-.14,2h-1.34l0-2.84a8,8,0,0,1,2.43-1.28,9,9,0,0,1,3-.5,5.82,5.82,0,0,1,3.89,1.25,4.39,4.39,0,0,1,1.48,3.57v7.27c0,.3,0,.59,0,.87a5.28,5.28,0,0,0,.09.81l1.46.1v1.2Zm-5.33-1.16a5.84,5.84,0,0,0,3.09-.82,4.81,4.81,0,0,0,1.94-2.12v-3h-3.26a6,6,0,0,0-3.53.93,2.75,2.75,0,0,0-1.32,2.33,2.48,2.48,0,0,0,.82,1.92A3.32,3.32,0,0,0,833.9,227.17Z"/><path class="cls-70" d="M861.9,225.9a5.14,5.14,0,0,1-1.88,2,5.48,5.48,0,0,1-2.83.71,4.41,4.41,0,0,1-3.61-1.59,7.61,7.61,0,0,1-1.31-4.92v-7.18l-1.81-.18v-1.21h3.42v8.6a6.4,6.4,0,0,0,.91,3.88,3.11,3.11,0,0,0,2.59,1.18,4.72,4.72,0,0,0,2.93-.83,4.32,4.32,0,0,0,1.54-2.26v-9.18l-2.09-.18v-1.21h3.71V227l2,.18v1.2h-3.38Z"/><path class="cls-70" d="M867.46,214.75v-1.21h3.64l.15,2.44a5.28,5.28,0,0,1,1.88-2,5.37,5.37,0,0,1,2.8-.71,4.58,4.58,0,0,1,2.8.83,4.53,4.53,0,0,1,1.61,2.52,5.86,5.86,0,0,1,1.89-2.45,4.9,4.9,0,0,1,3-.9,4.39,4.39,0,0,1,3.62,1.58,7.57,7.57,0,0,1,1.28,4.86v7.24l2.21.19v1.2h-6.05v-1.2l2.21-.19v-7.26a6,6,0,0,0-1-3.87,3.28,3.28,0,0,0-2.66-1.12A3.58,3.58,0,0,0,882,215.9a5.88,5.88,0,0,0-1.27,3.11,1.27,1.27,0,0,0,0,.2c0,.07,0,.15,0,.25V227l2.2.18v1.2h-6v-1.2l2.2-.18v-7.27a6,6,0,0,0-1-3.84,3.26,3.26,0,0,0-2.65-1.15,4,4,0,0,0-2.74.88,4.66,4.66,0,0,0-1.42,2.37v9l2.21.18v1.2h-6v-1.2l2.21-.18v-12Z"/><path class="cls-70" d="M904.43,228.33a12.48,12.48,0,0,1-.23-1.3,8.07,8.07,0,0,1-.07-1.11,6.36,6.36,0,0,1-2.17,1.93,6.05,6.05,0,0,1-3,.77,4.69,4.69,0,0,1-3.33-1.12,4,4,0,0,1-1.17-3,3.75,3.75,0,0,1,1.74-3.25A8.23,8.23,0,0,1,900.9,220h3.23v-1.95a3.17,3.17,0,0,0-1-2.49,4.08,4.08,0,0,0-2.82-.9,7.09,7.09,0,0,0-2.22.33,5.13,5.13,0,0,0-1.69.91l-.14,2h-1.33V215a8.24,8.24,0,0,1,2.43-1.28,9,9,0,0,1,3-.5,5.82,5.82,0,0,1,3.89,1.25,4.39,4.39,0,0,1,1.48,3.57v7.27c0,.3,0,.59,0,.87a5.28,5.28,0,0,0,.09.81l1.46.1v1.2Zm-5.33-1.16a5.84,5.84,0,0,0,3.09-.82,4.81,4.81,0,0,0,1.94-2.12v-3h-3.26a6,6,0,0,0-3.53.93,2.73,2.73,0,0,0-1.31,2.33,2.47,2.47,0,0,0,.81,1.92A3.32,3.32,0,0,0,899.1,227.17Z"/><path class="cls-70" d="M916,214.75v-1.21h3.64l.14,2.44a5.23,5.23,0,0,1,1.89-2,5.32,5.32,0,0,1,2.8-.71,4.23,4.23,0,0,1,4.41,3.35,5.76,5.76,0,0,1,1.88-2.45,4.91,4.91,0,0,1,3-.9,4.41,4.41,0,0,1,3.62,1.58,7.64,7.64,0,0,1,1.27,4.86v7.24l2.21.19v1.2H934.8v-1.2l2.21-.19v-7.26a6,6,0,0,0-1-3.87,3.28,3.28,0,0,0-2.65-1.12,3.59,3.59,0,0,0-2.92,1.21,6,6,0,0,0-1.27,3.11c0,.07,0,.14,0,.2a1.85,1.85,0,0,1,0,.25V227l2.2.18v1.2h-6v-1.2l2.2-.18v-7.27a6,6,0,0,0-1-3.84,3.28,3.28,0,0,0-2.66-1.15,4,4,0,0,0-2.74.88,4.72,4.72,0,0,0-1.41,2.37v9l2.2.18v1.2h-6v-1.2l2.2-.18v-12Z"/><path class="cls-70" d="M953,228.33a12.48,12.48,0,0,1-.23-1.3,8.07,8.07,0,0,1-.07-1.11,6.42,6.42,0,0,1-2.16,1.93,6.12,6.12,0,0,1-3,.77,4.69,4.69,0,0,1-3.33-1.12,4,4,0,0,1-1.17-3,3.75,3.75,0,0,1,1.74-3.25,8.25,8.25,0,0,1,4.74-1.21h3.23v-1.95a3.14,3.14,0,0,0-1-2.49,4.08,4.08,0,0,0-2.82-.9,7.09,7.09,0,0,0-2.22.33,5.13,5.13,0,0,0-1.69.91l-.13,2h-1.34V215a8.24,8.24,0,0,1,2.43-1.28,9.05,9.05,0,0,1,3-.5,5.87,5.87,0,0,1,3.9,1.25,4.42,4.42,0,0,1,1.47,3.57v7.27c0,.3,0,.59,0,.87s.05.55.09.81l1.46.1v1.2Zm-5.33-1.16a5.9,5.9,0,0,0,3.1-.82,4.85,4.85,0,0,0,1.93-2.12v-3H949.4a6,6,0,0,0-3.52.93,2.75,2.75,0,0,0-1.32,2.33,2.45,2.45,0,0,0,.82,1.92A3.27,3.27,0,0,0,947.63,227.17Z"/><path class="cls-70" d="M957.84,227.13l2.21-.18v-12l-2.21-.18v-1.21h3.64l.15,2.58a5.34,5.34,0,0,1,1.9-2.11,5.26,5.26,0,0,1,2.84-.75,4.47,4.47,0,0,1,3.62,1.47,7,7,0,0,1,1.25,4.59V227l2.2.18v1.2h-6v-1.2l2.21-.18v-7.62a5.36,5.36,0,0,0-1-3.59,3.38,3.38,0,0,0-2.67-1.05,4.16,4.16,0,0,0-2.78.91,5,5,0,0,0-1.55,2.41V227l2.21.18v1.2h-6Z"/><path class="cls-70" d="M982.31,228.62a5.83,5.83,0,0,1-4.58-2.05,7.52,7.52,0,0,1-1.81-5.2v-.75a7.73,7.73,0,0,1,1.81-5.26,5.54,5.54,0,0,1,4.36-2.1,5.38,5.38,0,0,1,4.23,1.73,6.61,6.61,0,0,1,1.55,4.59V221H977.53v.4a6.59,6.59,0,0,0,1.32,4.18,4.2,4.2,0,0,0,3.46,1.69,6.85,6.85,0,0,0,2.57-.43,5.09,5.09,0,0,0,1.82-1.21l.69,1.12a6,6,0,0,1-2.08,1.39A8,8,0,0,1,982.31,228.62Zm-.22-14a3.84,3.84,0,0,0-3,1.39,6,6,0,0,0-1.43,3.48l0,.06h8.58v-.41a4.74,4.74,0,0,0-1.13-3.22A3.8,3.8,0,0,0,982.09,214.66Z"/><path class="cls-70" d="M990.65,227.13l2.21-.18v-12l-2.21-.18v-1.21h3.82V227l2.2.18v1.2h-6Zm3.82-17.83h-1.61V207h1.61Z"/><path class="cls-70" d="M1002.9,213.54l.2,2.46v.18a5.23,5.23,0,0,1,1.7-2.14,4.24,4.24,0,0,1,2.55-.78,3.83,3.83,0,0,1,.6.05c.2,0,.35.07.48.1l-.22,1.54-1.2-.09a3.65,3.65,0,0,0-2.51.87,4.86,4.86,0,0,0-1.4,2.39V227l2.21.18v1.2h-6v-1.2l2.2-.18v-12l-2.2-.18v-1.21h3.61Z"/><path class="cls-70" d="M1020.63,228.33c-.1-.5-.18-.93-.22-1.3a8.07,8.07,0,0,1-.07-1.11,6.45,6.45,0,0,1-2.17,1.93,6.05,6.05,0,0,1-3,.77,4.67,4.67,0,0,1-3.33-1.12,4,4,0,0,1-1.18-3,3.76,3.76,0,0,1,1.75-3.25,8.22,8.22,0,0,1,4.73-1.21h3.24v-1.95a3.17,3.17,0,0,0-1-2.49,4.08,4.08,0,0,0-2.82-.9,7.19,7.19,0,0,0-2.23.33,5.17,5.17,0,0,0-1.68.91l-.14,2h-1.34l0-2.84a8,8,0,0,1,2.43-1.28,9,9,0,0,1,3-.5,5.82,5.82,0,0,1,3.89,1.25,4.39,4.39,0,0,1,1.48,3.57v7.27c0,.3,0,.59,0,.87a5.28,5.28,0,0,0,.09.81l1.46.1v1.2Zm-5.33-1.16a5.85,5.85,0,0,0,3.1-.82,4.81,4.81,0,0,0,1.94-2.12v-3h-3.26a6,6,0,0,0-3.53.93,2.75,2.75,0,0,0-1.32,2.33,2.48,2.48,0,0,0,.82,1.92A3.31,3.31,0,0,0,1015.3,227.17Z"/><path class="cls-70" d="M588.81,261.93c-.11-.5-.18-.93-.23-1.3a10,10,0,0,1-.07-1.11,6.42,6.42,0,0,1-2.16,1.93,6.09,6.09,0,0,1-3.05.77A4.65,4.65,0,0,1,580,261.1a4,4,0,0,1-1.18-3,3.74,3.74,0,0,1,1.75-3.25,8.22,8.22,0,0,1,4.73-1.21h3.23v-1.95a3.17,3.17,0,0,0-1-2.49,4.12,4.12,0,0,0-2.82-.9,7.1,7.1,0,0,0-2.23.33,5.17,5.17,0,0,0-1.68.91l-.14,2H579.3v-2.84a8.24,8.24,0,0,1,2.43-1.28,9.05,9.05,0,0,1,3-.5,5.83,5.83,0,0,1,3.9,1.25,4.42,4.42,0,0,1,1.47,3.57V259c0,.3,0,.59,0,.87s.05.55.09.81l1.46.1v1.2Zm-5.33-1.16a5.88,5.88,0,0,0,3.1-.82,4.79,4.79,0,0,0,1.93-2.12v-3h-3.26a6,6,0,0,0-3.52.93,2.75,2.75,0,0,0-1.32,2.33,2.45,2.45,0,0,0,.82,1.92A3.27,3.27,0,0,0,583.48,260.77Z"/><path class="cls-70" d="M594.06,254.66a9.66,9.66,0,0,1,1.5-5.67,4.78,4.78,0,0,1,4.14-2.13,5.11,5.11,0,0,1,2.7.69,5.45,5.45,0,0,1,1.89,1.95l.19-2.36h1.37v14.6a6.39,6.39,0,0,1-1.53,4.51,5.52,5.52,0,0,1-4.26,1.65,10.25,10.25,0,0,1-2.26-.26,8.68,8.68,0,0,1-2.09-.71l.44-1.38a9,9,0,0,0,1.84.66,8.51,8.51,0,0,0,2,.23,3.89,3.89,0,0,0,3.14-1.24,5.22,5.22,0,0,0,1.05-3.46v-1.87a5.13,5.13,0,0,1-1.88,1.74,5.61,5.61,0,0,1-2.66.61,4.86,4.86,0,0,1-4.13-2,8.6,8.6,0,0,1-1.49-5.29Zm1.63.28a7.47,7.47,0,0,0,1.07,4.26,3.63,3.63,0,0,0,3.21,1.59,4.56,4.56,0,0,0,2.64-.72,4.73,4.73,0,0,0,1.61-2v-6.86a5.28,5.28,0,0,0-1.55-2.11,4.17,4.17,0,0,0-2.67-.81,3.57,3.57,0,0,0-3.23,1.77,8.77,8.77,0,0,0-1.08,4.6Z"/><path class="cls-70" d="M613,247.14l.2,2.46v.18a5.23,5.23,0,0,1,1.7-2.14,4.24,4.24,0,0,1,2.55-.78,3.83,3.83,0,0,1,.6,0,4.84,4.84,0,0,1,.48.1l-.21,1.53-1.21-.08a3.65,3.65,0,0,0-2.51.87,4.81,4.81,0,0,0-1.4,2.39v8.83l2.21.18v1.2h-6v-1.2l2.2-.18v-12l-2.2-.18v-1.21H613Z"/><path class="cls-70" d="M630.77,261.93a12.48,12.48,0,0,1-.23-1.3,8.07,8.07,0,0,1-.07-1.11,6.42,6.42,0,0,1-2.16,1.93,6.12,6.12,0,0,1-3,.77,4.69,4.69,0,0,1-3.33-1.12,4,4,0,0,1-1.17-3,3.75,3.75,0,0,1,1.74-3.25,8.25,8.25,0,0,1,4.74-1.21h3.23v-1.95a3.17,3.17,0,0,0-1-2.49,4.08,4.08,0,0,0-2.82-.9,7.09,7.09,0,0,0-2.22.33,5.13,5.13,0,0,0-1.69.91l-.13,2h-1.34v-2.84a8.24,8.24,0,0,1,2.43-1.28,9,9,0,0,1,3-.5,5.87,5.87,0,0,1,3.9,1.25,4.42,4.42,0,0,1,1.47,3.57V259c0,.3,0,.59,0,.87a5.28,5.28,0,0,0,.09.81l1.46.1v1.2Zm-5.33-1.16a5.9,5.9,0,0,0,3.1-.82,4.85,4.85,0,0,0,1.93-2.12v-3h-3.26a6,6,0,0,0-3.53.93,2.76,2.76,0,0,0-1.31,2.33,2.47,2.47,0,0,0,.81,1.92A3.32,3.32,0,0,0,625.44,260.77Z"/><path class="cls-70" d="M646.13,259.8a5.14,5.14,0,0,1-1.89,1.79,5.5,5.5,0,0,1-2.7.63,4.83,4.83,0,0,1-4.11-2,8.6,8.6,0,0,1-1.48-5.29v-.28a9.74,9.74,0,0,1,1.48-5.67,4.76,4.76,0,0,1,4.14-2.13,5,5,0,0,1,4.51,2.51V242l-2.2-.18V240.6h3.83v20l2.2.18v1.2h-3.65Zm-8.54-4.86a7.56,7.56,0,0,0,1.06,4.27,3.58,3.58,0,0,0,3.2,1.58,4.47,4.47,0,0,0,2.6-.71,4.61,4.61,0,0,0,1.63-1.95v-7a5.08,5.08,0,0,0-1.56-2,4.17,4.17,0,0,0-2.64-.79,3.51,3.51,0,0,0-3.22,1.77,8.82,8.82,0,0,0-1.07,4.6Z"/><path class="cls-70" d="M662.51,261.93a12.48,12.48,0,0,1-.23-1.3,8.07,8.07,0,0,1-.07-1.11,6.42,6.42,0,0,1-2.16,1.93,6.12,6.12,0,0,1-3,.77,4.69,4.69,0,0,1-3.33-1.12,4,4,0,0,1-1.17-3,3.75,3.75,0,0,1,1.74-3.25A8.25,8.25,0,0,1,659,253.6h3.23v-1.95a3.14,3.14,0,0,0-1-2.49,4.08,4.08,0,0,0-2.82-.9,7.09,7.09,0,0,0-2.22.33,5.13,5.13,0,0,0-1.69.91l-.13,2H653v-2.84a8.24,8.24,0,0,1,2.43-1.28,9.05,9.05,0,0,1,3-.5,5.87,5.87,0,0,1,3.9,1.25,4.42,4.42,0,0,1,1.47,3.57V259c0,.3,0,.59,0,.87a6.92,6.92,0,0,0,.09.81l1.46.1v1.2Zm-5.33-1.16a5.9,5.9,0,0,0,3.1-.82,4.85,4.85,0,0,0,1.93-2.12v-3H659a6,6,0,0,0-3.52.93,2.75,2.75,0,0,0-1.32,2.33,2.45,2.45,0,0,0,.82,1.92A3.27,3.27,0,0,0,657.18,260.77Zm2.74-19.28h2l0,.08-3.36,3.56h-1.45Z"/><path class="cls-70" d="M671.74,248.35l-1.83.14,3.65,9.73L674,260h.08l.51-1.74,3.6-9.73-1.83-.14v-1.21h4.93v1.21l-1.43.13-5.17,13.45h-1.3l-5.18-13.45-1.44-.13v-1.21h4.93Z"/><path class="cls-70" d="M689.39,262.22a5.83,5.83,0,0,1-4.57-2.05A7.52,7.52,0,0,1,683,255v-.75a7.82,7.82,0,0,1,1.8-5.27,5.59,5.59,0,0,1,4.37-2.09,5.39,5.39,0,0,1,4.23,1.73,6.6,6.6,0,0,1,1.54,4.59v1.39H684.62v.4a6.59,6.59,0,0,0,1.32,4.18,4.19,4.19,0,0,0,3.45,1.69,6.81,6.81,0,0,0,2.57-.43,5,5,0,0,0,1.83-1.21l.69,1.12a5.83,5.83,0,0,1-2.08,1.38A7.8,7.8,0,0,1,689.39,262.22Zm-.21-14a3.84,3.84,0,0,0-3,1.39,5.89,5.89,0,0,0-1.43,3.47l0,.07h8.57v-.41a4.73,4.73,0,0,0-1.12-3.22A3.8,3.8,0,0,0,689.18,248.26Z"/><path class="cls-70" d="M697.52,241.82V240.6h3.82v20l2.21.18v1.2h-6v-1.2l2.21-.18V242Z"/><path class="cls-70" d="M719.3,262.22a5.83,5.83,0,0,1-4.58-2.05,7.52,7.52,0,0,1-1.81-5.2v-.75a7.82,7.82,0,0,1,1.8-5.27,5.59,5.59,0,0,1,4.37-2.09,5.39,5.39,0,0,1,4.23,1.73,6.61,6.61,0,0,1,1.55,4.59v1.39H714.52v.4a6.59,6.59,0,0,0,1.32,4.18,4.2,4.2,0,0,0,3.46,1.69,6.85,6.85,0,0,0,2.57-.43,5.09,5.09,0,0,0,1.82-1.21l.69,1.12a5.83,5.83,0,0,1-2.08,1.38A7.78,7.78,0,0,1,719.3,262.22Zm-.22-14a3.84,3.84,0,0,0-3,1.39,6,6,0,0,0-1.43,3.47l0,.07h8.58v-.41a4.74,4.74,0,0,0-1.13-3.22A3.8,3.8,0,0,0,719.08,248.26Z"/><path class="cls-70" d="M734.38,260.73l2.21-.18v-12l-2.21-.18v-1.21h3.82v13.41l2.2.18v1.2h-6Zm3.82-17.83h-1.61v-2.3h1.61Z"/><path class="cls-70" d="M742.82,260.73l2.21-.18v-12l-2.21-.18v-1.21h3.64l.15,2.58a5.05,5.05,0,0,1,4.74-2.86,4.48,4.48,0,0,1,3.62,1.47,7,7,0,0,1,1.25,4.59v7.63l2.2.18v1.2h-6v-1.2l2.2-.18v-7.62a5.37,5.37,0,0,0-.94-3.59,3.38,3.38,0,0,0-2.67-1.05,4.16,4.16,0,0,0-2.78.91,5,5,0,0,0-1.55,2.41v8.94l2.21.18v1.2h-6Z"/><path class="cls-70" d="M764.69,243.35v3.79h3.22v1.34h-3.22v9.64a3.14,3.14,0,0,0,.52,2.05,1.72,1.72,0,0,0,1.38.61c.27,0,.52,0,.77,0s.53-.06.86-.12l.24,1.22a3.92,3.92,0,0,1-1,.27,6.41,6.41,0,0,1-1.16.1,3,3,0,0,1-2.4-1,4.66,4.66,0,0,1-.86-3.11v-9.64h-2.52v-1.34h2.52v-3.79Z"/><path class="cls-70" d="M777.34,262.22a5.85,5.85,0,0,1-4.58-2.05A7.57,7.57,0,0,1,771,255v-.75a7.77,7.77,0,0,1,1.81-5.27,5.58,5.58,0,0,1,4.36-2.09,5.4,5.4,0,0,1,4.24,1.73,6.65,6.65,0,0,1,1.54,4.59v1.39H772.56v.4a6.59,6.59,0,0,0,1.32,4.18,4.2,4.2,0,0,0,3.46,1.69,6.81,6.81,0,0,0,2.57-.43,5.09,5.09,0,0,0,1.82-1.21l.69,1.12a5.83,5.83,0,0,1-2.08,1.38A7.78,7.78,0,0,1,777.34,262.22Zm-.22-14a3.85,3.85,0,0,0-3,1.39,6,6,0,0,0-1.43,3.47l0,.07h8.58v-.41a4.78,4.78,0,0,0-1.12-3.22A3.82,3.82,0,0,0,777.12,248.26Z"/><path class="cls-70" d="M789.3,247.14l.2,2.46v.18a5.23,5.23,0,0,1,1.7-2.14,4.24,4.24,0,0,1,2.55-.78,3.83,3.83,0,0,1,.6,0,4.84,4.84,0,0,1,.48.1l-.21,1.53-1.21-.08a3.65,3.65,0,0,0-2.51.87,4.81,4.81,0,0,0-1.4,2.39v8.83l2.21.18v1.2h-6v-1.2l2.2-.18v-12l-2.2-.18v-1.21h3.61Z"/><path class="cls-70" d="M803.13,262.22a5.85,5.85,0,0,1-4.58-2.05,7.52,7.52,0,0,1-1.81-5.2v-.75a7.77,7.77,0,0,1,1.81-5.27,5.56,5.56,0,0,1,4.36-2.09,5.38,5.38,0,0,1,4.23,1.73,6.61,6.61,0,0,1,1.55,4.59v1.39H798.35v.4a6.59,6.59,0,0,0,1.32,4.18,4.2,4.2,0,0,0,3.46,1.69,6.85,6.85,0,0,0,2.57-.43,5.09,5.09,0,0,0,1.82-1.21l.69,1.12a5.83,5.83,0,0,1-2.08,1.38A7.78,7.78,0,0,1,803.13,262.22Zm-.22-14a3.84,3.84,0,0,0-3,1.39,6,6,0,0,0-1.43,3.47l0,.07h8.58v-.41a4.74,4.74,0,0,0-1.13-3.22A3.8,3.8,0,0,0,802.91,248.26Z"/><path class="cls-70" d="M822.2,251.7h-1.32l-.19-2.09a4.15,4.15,0,0,0-1.54-1,6.1,6.1,0,0,0-2.13-.35,4,4,0,0,0-2.66.77,2.33,2.33,0,0,0-.88,1.81,2.16,2.16,0,0,0,.76,1.7,7.42,7.42,0,0,0,3,1.17,10,10,0,0,1,3.91,1.61,3.32,3.32,0,0,1,1.3,2.77,3.6,3.6,0,0,1-1.48,3,6.25,6.25,0,0,1-3.92,1.14,9.13,9.13,0,0,1-3-.46,7.2,7.2,0,0,1-2.31-1.29v-3h1.31l.23,2.1a3.65,3.65,0,0,0,1.65,1,7.1,7.1,0,0,0,2.07.3,4.48,4.48,0,0,0,2.78-.78,2.33,2.33,0,0,0,1-1.89,2.42,2.42,0,0,0-.84-1.82,6.93,6.93,0,0,0-3.06-1.27,10.18,10.18,0,0,1-3.87-1.52,3.13,3.13,0,0,1-1.27-2.66,3.61,3.61,0,0,1,1.42-2.87,5.72,5.72,0,0,1,3.75-1.17,8.36,8.36,0,0,1,2.94.5,6,6,0,0,1,2.18,1.35Z"/><path class="cls-70" d="M836.07,251.7h-1.32l-.19-2.09a4.15,4.15,0,0,0-1.54-1,6.1,6.1,0,0,0-2.13-.35,4,4,0,0,0-2.66.77,2.34,2.34,0,0,0-.89,1.81,2.17,2.17,0,0,0,.77,1.7,7.42,7.42,0,0,0,3,1.17,10.06,10.06,0,0,1,3.91,1.61,3.32,3.32,0,0,1,1.3,2.77,3.6,3.6,0,0,1-1.48,3,6.27,6.27,0,0,1-3.92,1.14,9.24,9.24,0,0,1-3-.46,7.26,7.26,0,0,1-2.3-1.29v-3H827l.23,2.1a3.67,3.67,0,0,0,1.64,1,7.22,7.22,0,0,0,2.08.3,4.43,4.43,0,0,0,2.77-.78,2.32,2.32,0,0,0,1-1.89,2.39,2.39,0,0,0-.85-1.82,6.82,6.82,0,0,0-3-1.27,10.18,10.18,0,0,1-3.87-1.52,3.13,3.13,0,0,1-1.27-2.66,3.58,3.58,0,0,1,1.42-2.87,5.72,5.72,0,0,1,3.75-1.17,8.4,8.4,0,0,1,2.94.5,6,6,0,0,1,2.17,1.35Z"/><path class="cls-70" d="M849.42,261.93c-.1-.5-.18-.93-.22-1.3a8.07,8.07,0,0,1-.07-1.11,6.45,6.45,0,0,1-2.17,1.93,6.05,6.05,0,0,1-3,.77,4.67,4.67,0,0,1-3.33-1.12,4,4,0,0,1-1.18-3,3.76,3.76,0,0,1,1.75-3.25,8.22,8.22,0,0,1,4.73-1.21h3.24v-1.95a3.17,3.17,0,0,0-1-2.49,4.08,4.08,0,0,0-2.82-.9,7.19,7.19,0,0,0-2.23.33,5.17,5.17,0,0,0-1.68.91l-.14,2h-1.34l0-2.84a8,8,0,0,1,2.43-1.28,9,9,0,0,1,3-.5,5.82,5.82,0,0,1,3.89,1.25,4.39,4.39,0,0,1,1.48,3.57V259c0,.3,0,.59,0,.87a5.28,5.28,0,0,0,.09.81l1.46.1v1.2Zm-5.33-1.16a5.85,5.85,0,0,0,3.1-.82,4.81,4.81,0,0,0,1.94-2.12v-3h-3.26a6,6,0,0,0-3.53.93,2.75,2.75,0,0,0-1.32,2.33,2.48,2.48,0,0,0,.82,1.92A3.31,3.31,0,0,0,844.09,260.77Z"/><path class="cls-70" d="M854.31,260.73l2.2-.18v-12l-2.2-.18v-1.21H858l.15,2.58a5.05,5.05,0,0,1,4.73-2.86,4.49,4.49,0,0,1,3.63,1.47,7,7,0,0,1,1.24,4.59v7.63l2.21.18v1.2h-6v-1.2l2.2-.18v-7.62a5.37,5.37,0,0,0-.94-3.59,3.41,3.41,0,0,0-2.67-1.05,4.14,4.14,0,0,0-2.78.91,5,5,0,0,0-1.55,2.41v8.94l2.2.18v1.2h-6Z"/><path class="cls-70" d="M876.17,243.35v3.79h3.22v1.34h-3.22v9.64a3.2,3.2,0,0,0,.52,2.05,1.73,1.73,0,0,0,1.39.61c.26,0,.52,0,.77,0s.53-.06.86-.12l.24,1.22a3.92,3.92,0,0,1-1,.27,6.49,6.49,0,0,1-1.16.1,3,3,0,0,1-2.4-1,4.61,4.61,0,0,1-.86-3.11v-9.64H872v-1.34h2.52v-3.79Z"/><path class="cls-70" d="M888.82,262.22a5.83,5.83,0,0,1-4.57-2.05,7.52,7.52,0,0,1-1.81-5.2v-.75a7.82,7.82,0,0,1,1.8-5.27,5.59,5.59,0,0,1,4.37-2.09,5.39,5.39,0,0,1,4.23,1.73,6.6,6.6,0,0,1,1.54,4.59v1.39H884.05v.4a6.59,6.59,0,0,0,1.32,4.18,4.19,4.19,0,0,0,3.45,1.69,6.77,6.77,0,0,0,2.57-.43,5,5,0,0,0,1.83-1.21l.69,1.12a5.83,5.83,0,0,1-2.08,1.38A7.8,7.8,0,0,1,888.82,262.22Zm-.21-14a3.84,3.84,0,0,0-3,1.39,5.89,5.89,0,0,0-1.43,3.47l0,.07h8.57v-.41a4.73,4.73,0,0,0-1.12-3.22A3.8,3.8,0,0,0,888.61,248.26Z"/><path class="cls-70" d="M914.19,259.8a5,5,0,0,1-1.88,1.79,5.52,5.52,0,0,1-2.7.63,4.83,4.83,0,0,1-4.11-2,8.6,8.6,0,0,1-1.48-5.29v-.28A9.74,9.74,0,0,1,905.5,249a4.76,4.76,0,0,1,4.13-2.13,5.27,5.27,0,0,1,2.66.65,5.34,5.34,0,0,1,1.86,1.86V242l-2.2-.18V240.6h3.83v20l2.2.18v1.2h-3.65Zm-8.53-4.86a7.56,7.56,0,0,0,1.06,4.27,3.58,3.58,0,0,0,3.2,1.58,4.47,4.47,0,0,0,2.6-.71,4.68,4.68,0,0,0,1.63-1.95v-7a5.08,5.08,0,0,0-1.56-2,4.18,4.18,0,0,0-2.65-.79,3.5,3.5,0,0,0-3.21,1.77,8.73,8.73,0,0,0-1.07,4.6Z"/><path class="cls-70" d="M926.92,262.22a5.83,5.83,0,0,1-4.57-2.05,7.52,7.52,0,0,1-1.81-5.2v-.75a7.82,7.82,0,0,1,1.8-5.27,5.59,5.59,0,0,1,4.37-2.09,5.39,5.39,0,0,1,4.23,1.73,6.61,6.61,0,0,1,1.55,4.59v1.39H922.15v.4a6.59,6.59,0,0,0,1.32,4.18,4.19,4.19,0,0,0,3.45,1.69,6.86,6.86,0,0,0,2.58-.43,5.09,5.09,0,0,0,1.82-1.21l.69,1.12a5.83,5.83,0,0,1-2.08,1.38A7.8,7.8,0,0,1,926.92,262.22Zm-.21-14a3.84,3.84,0,0,0-3,1.39,6,6,0,0,0-1.43,3.47l0,.07h8.58v-.41a4.74,4.74,0,0,0-1.13-3.22A3.8,3.8,0,0,0,926.71,248.26Z"/><path class="cls-70" d="M585.16,295.82a5.81,5.81,0,0,1-4.57-2.05,7.53,7.53,0,0,1-1.82-5.2v-.75a7.76,7.76,0,0,1,1.81-5.26,5.56,5.56,0,0,1,4.36-2.1,5.4,5.4,0,0,1,4.24,1.73,6.62,6.62,0,0,1,1.54,4.59v1.4H580.38v.39a6.59,6.59,0,0,0,1.32,4.18,4.2,4.2,0,0,0,3.46,1.69,7,7,0,0,0,2.57-.43,5.22,5.22,0,0,0,1.83-1.21l.69,1.12a5.87,5.87,0,0,1-2.09,1.38A7.78,7.78,0,0,1,585.16,295.82Zm-.22-14a3.85,3.85,0,0,0-3,1.39,6,6,0,0,0-1.43,3.48l0,.06h8.58v-.41a4.73,4.73,0,0,0-1.12-3.22A3.82,3.82,0,0,0,584.94,281.86Z"/><path class="cls-70" d="M593.29,294.33l1.64-.15,4.62-6.18-4.41-5.89-1.65-.16v-1.21h5V282l-1.52.09,3.49,4.74,3.51-4.76-1.5-.07v-1.21h5V282l-1.64.16L601.35,288l4.62,6.18,1.65.15v1.2h-5v-1.2l1.5-.07-3.72-5-3.71,5,1.5.07v1.2h-5Z"/><path class="cls-70" d="M615.93,295.82a5.85,5.85,0,0,1-4.58-2.05,7.52,7.52,0,0,1-1.81-5.2v-.75a7.71,7.71,0,0,1,1.81-5.26,5.54,5.54,0,0,1,4.36-2.1,5.38,5.38,0,0,1,4.23,1.73,6.62,6.62,0,0,1,1.55,4.59v1.4H611.15v.39a6.59,6.59,0,0,0,1.32,4.18,4.2,4.2,0,0,0,3.46,1.69,7.05,7.05,0,0,0,2.57-.43,5.09,5.09,0,0,0,1.82-1.21l.69,1.12a5.83,5.83,0,0,1-2.08,1.38A7.78,7.78,0,0,1,615.93,295.82Zm-.22-14a3.85,3.85,0,0,0-3,1.39,6,6,0,0,0-1.43,3.48l0,.06h8.58v-.41a4.74,4.74,0,0,0-1.13-3.22A3.8,3.8,0,0,0,615.71,281.86Z"/><path class="cls-70" d="M627.89,280.74l.2,2.46v.18a5.09,5.09,0,0,1,1.7-2.14,4.22,4.22,0,0,1,2.55-.78,3.83,3.83,0,0,1,.6.05,3.47,3.47,0,0,1,.48.11l-.22,1.53-1.2-.09a3.63,3.63,0,0,0-2.51.87,4.86,4.86,0,0,0-1.4,2.39v8.83l2.21.18v1.2h-6v-1.2l2.21-.18v-12l-2.21-.18v-1.21h3.62Z"/><path class="cls-70" d="M641.51,294.44a4.57,4.57,0,0,0,2.84-.93,3.06,3.06,0,0,0,1.23-2.59H647l0,.09a4.11,4.11,0,0,1-1.62,3.43,6,6,0,0,1-3.92,1.38,5.54,5.54,0,0,1-4.61-2.07,8.35,8.35,0,0,1-1.64-5.33v-.57a8.35,8.35,0,0,1,1.64-5.31,5.53,5.53,0,0,1,4.6-2.08,7.35,7.35,0,0,1,3.1.65,6.08,6.08,0,0,1,2.28,1.75l.07,3.22h-1.38l-.26-2.62a4.68,4.68,0,0,0-1.61-1.17,5.33,5.33,0,0,0-2.2-.43,3.92,3.92,0,0,0-3.49,1.7,7.63,7.63,0,0,0-1.13,4.29v.57a7.66,7.66,0,0,0,1.13,4.32A3.9,3.9,0,0,0,641.51,294.44Z"/><path class="cls-70" d="M650,294.33l2.21-.18v-12L650,282v-1.21h3.82v13.41l2.2.18v1.2h-6Zm3.82-17.83h-1.61v-2.3h1.61Z"/><path class="cls-70" d="M662.42,277v3.79h3.21v1.34h-3.21v9.64a3.14,3.14,0,0,0,.52,2,1.71,1.71,0,0,0,1.38.61c.26,0,.52,0,.77,0s.53-.06.86-.12l.24,1.22a3.92,3.92,0,0,1-1,.27,6.49,6.49,0,0,1-1.16.1,3,3,0,0,1-2.4-1,4.61,4.61,0,0,1-.86-3.11v-9.64h-2.52v-1.34h2.52V277Z"/><path class="cls-70" d="M678.72,295.53a12.48,12.48,0,0,1-.23-1.3,8.07,8.07,0,0,1-.07-1.11,6.42,6.42,0,0,1-2.16,1.93,6.12,6.12,0,0,1-3,.77,4.69,4.69,0,0,1-3.33-1.12,4,4,0,0,1-1.17-3,3.75,3.75,0,0,1,1.74-3.25,8.25,8.25,0,0,1,4.74-1.21h3.23v-1.95a3.17,3.17,0,0,0-1-2.49,4.08,4.08,0,0,0-2.82-.9,7.09,7.09,0,0,0-2.22.33,5.13,5.13,0,0,0-1.69.91l-.13,2h-1.34v-2.85a8.48,8.48,0,0,1,2.43-1.28,9,9,0,0,1,3-.5,5.87,5.87,0,0,1,3.9,1.25,4.42,4.42,0,0,1,1.47,3.57v7.27c0,.3,0,.59,0,.87a5.28,5.28,0,0,0,.09.81l1.46.1v1.2Zm-5.33-1.16a5.81,5.81,0,0,0,3.1-.82,4.9,4.9,0,0,0,1.93-2.12v-3h-3.26a6.1,6.1,0,0,0-3.53.92,2.79,2.79,0,0,0-1.31,2.34,2.47,2.47,0,0,0,.81,1.92A3.32,3.32,0,0,0,673.39,294.37Z"/><path class="cls-70" d="M687.4,280.74l.21,2.46v.18a5.09,5.09,0,0,1,1.7-2.14,4.2,4.2,0,0,1,2.55-.78,4,4,0,0,1,.6.05,3.47,3.47,0,0,1,.48.11l-.22,1.53-1.2-.09a3.63,3.63,0,0,0-2.51.87,4.78,4.78,0,0,0-1.4,2.39v8.83l2.2.18v1.2h-6v-1.2l2.21-.18v-12l-2.21-.18v-1.21h3.61Z"/><path class="cls-70" d="M712.39,285.3h-1.32l-.19-2.09a4.15,4.15,0,0,0-1.54-1,6.06,6.06,0,0,0-2.13-.35,4,4,0,0,0-2.66.77,2.34,2.34,0,0,0-.88,1.81,2.16,2.16,0,0,0,.76,1.7,7.42,7.42,0,0,0,3.05,1.17,9.84,9.84,0,0,1,3.91,1.61,3.32,3.32,0,0,1,1.3,2.77,3.59,3.59,0,0,1-1.48,3,6.25,6.25,0,0,1-3.92,1.14,8.91,8.91,0,0,1-2.95-.46,7.2,7.2,0,0,1-2.31-1.29v-3h1.31l.23,2.1a3.71,3.71,0,0,0,1.65.95,7.1,7.1,0,0,0,2.07.3,4.46,4.46,0,0,0,2.78-.78,2.33,2.33,0,0,0,1-1.89,2.42,2.42,0,0,0-.84-1.82,6.88,6.88,0,0,0-3-1.27,10.17,10.17,0,0,1-3.88-1.52A3.16,3.16,0,0,1,702,284.5a3.61,3.61,0,0,1,1.42-2.87,5.72,5.72,0,0,1,3.75-1.17,8.41,8.41,0,0,1,2.95.5,6,6,0,0,1,2.17,1.35Z"/><path class="cls-70" d="M722.1,295.82a5.83,5.83,0,0,1-4.58-2.05,7.52,7.52,0,0,1-1.81-5.2v-.75a7.71,7.71,0,0,1,1.81-5.26,5.54,5.54,0,0,1,4.36-2.1,5.38,5.38,0,0,1,4.23,1.73,6.62,6.62,0,0,1,1.55,4.59v1.4H717.32v.39a6.59,6.59,0,0,0,1.32,4.18,4.2,4.2,0,0,0,3.46,1.69,7.05,7.05,0,0,0,2.57-.43,5.09,5.09,0,0,0,1.82-1.21l.69,1.12a5.83,5.83,0,0,1-2.08,1.38A7.78,7.78,0,0,1,722.1,295.82Zm-.22-14a3.84,3.84,0,0,0-3,1.39,6,6,0,0,0-1.43,3.48l0,.06h8.58v-.41a4.74,4.74,0,0,0-1.13-3.22A3.8,3.8,0,0,0,721.88,281.86Z"/><path class="cls-70" d="M741.31,293.1a5.09,5.09,0,0,1-1.89,2,5.47,5.47,0,0,1-2.82.71,4.43,4.43,0,0,1-3.62-1.59,7.67,7.67,0,0,1-1.31-4.92v-7.18l-1.81-.18v-1.21h3.43v8.6a6.4,6.4,0,0,0,.91,3.88,3.1,3.1,0,0,0,2.59,1.18,4.8,4.8,0,0,0,2.93-.82,4.37,4.37,0,0,0,1.53-2.27v-9.18l-2.08-.18v-1.21h3.71v13.41l2,.18v1.2h-3.38Z"/><path class="cls-70" d="M757.84,285.3h-1.32l-.19-2.09a4.15,4.15,0,0,0-1.54-1,6.1,6.1,0,0,0-2.13-.35,4,4,0,0,0-2.66.77,2.34,2.34,0,0,0-.88,1.81,2.16,2.16,0,0,0,.76,1.7,7.42,7.42,0,0,0,3,1.17,9.91,9.91,0,0,1,3.91,1.61,3.32,3.32,0,0,1,1.3,2.77,3.59,3.59,0,0,1-1.48,3,6.27,6.27,0,0,1-3.92,1.14,9,9,0,0,1-3-.46,7.26,7.26,0,0,1-2.3-1.29v-3h1.31l.23,2.1a3.67,3.67,0,0,0,1.64.95,7.22,7.22,0,0,0,2.08.3,4.43,4.43,0,0,0,2.77-.78,2.32,2.32,0,0,0,1-1.89,2.39,2.39,0,0,0-.85-1.82,6.82,6.82,0,0,0-3-1.27,10.18,10.18,0,0,1-3.87-1.52,3.13,3.13,0,0,1-1.27-2.66,3.58,3.58,0,0,1,1.42-2.87,5.72,5.72,0,0,1,3.75-1.17,8.4,8.4,0,0,1,2.94.5,6,6,0,0,1,2.17,1.35Z"/><path class="cls-70" d="M774.08,294.44a4.59,4.59,0,0,0,2.84-.93,3.06,3.06,0,0,0,1.23-2.59h1.44l0,.09a4.07,4.07,0,0,1-1.61,3.43,6,6,0,0,1-3.92,1.38,5.56,5.56,0,0,1-4.62-2.07,8.34,8.34,0,0,1-1.63-5.33v-.57a8.34,8.34,0,0,1,1.63-5.31,5.56,5.56,0,0,1,4.6-2.08,7.35,7.35,0,0,1,3.1.65,6.12,6.12,0,0,1,2.29,1.75l.07,3.22h-1.38l-.26-2.62a4.63,4.63,0,0,0-1.62-1.17,5.3,5.3,0,0,0-2.2-.43,3.9,3.9,0,0,0-3.48,1.7,7.63,7.63,0,0,0-1.13,4.29v.57a7.74,7.74,0,0,0,1.12,4.32A3.92,3.92,0,0,0,774.08,294.44Z"/><path class="cls-70" d="M782.63,287.92a8,8,0,0,1,1.77-5.36,6.31,6.31,0,0,1,9.4,0,8,8,0,0,1,1.78,5.36v.45a8,8,0,0,1-1.77,5.36,6.34,6.34,0,0,1-9.41,0,8,8,0,0,1-1.77-5.36Zm1.62.45a7.09,7.09,0,0,0,1.29,4.32,4.51,4.51,0,0,0,7.13,0,7.16,7.16,0,0,0,1.28-4.32v-.45a7.1,7.1,0,0,0-1.29-4.3,4.48,4.48,0,0,0-7.12,0,7.1,7.1,0,0,0-1.29,4.3Z"/><path class="cls-70" d="M797.92,294.33l2.2-.18v-12l-2.2-.18v-1.21h3.64l.15,2.58a5.05,5.05,0,0,1,4.73-2.86,4.49,4.49,0,0,1,3.63,1.47,7,7,0,0,1,1.24,4.59v7.63l2.21.18v1.2h-6v-1.2l2.21-.18v-7.61a5.38,5.38,0,0,0-.94-3.6,3.41,3.41,0,0,0-2.67-1.05,4.17,4.17,0,0,0-2.78.9,5,5,0,0,0-1.55,2.42v8.94l2.2.18v1.2h-6Z"/><path class="cls-70" d="M815.59,275.42V274.2h3.81v9.07a5.48,5.48,0,0,1,2-2.07,5.39,5.39,0,0,1,2.84-.74,4.41,4.41,0,0,1,3.55,1.45,6.81,6.81,0,0,1,1.24,4.5v7.74l2.21.18v1.2h-6v-1.2l2.21-.18v-7.77a5.1,5.1,0,0,0-.94-3.45,3.3,3.3,0,0,0-2.59-1,4.32,4.32,0,0,0-2.78.88,5.11,5.11,0,0,0-1.65,2.34v9l2.21.18v1.2h-6v-1.2l2.2-.18V275.6Z"/><path class="cls-70" d="M839.94,295.82a5.83,5.83,0,0,1-4.57-2.05,7.53,7.53,0,0,1-1.82-5.2v-.75a7.76,7.76,0,0,1,1.81-5.26,5.57,5.57,0,0,1,4.36-2.1,5.4,5.4,0,0,1,4.24,1.73,6.62,6.62,0,0,1,1.54,4.59v1.4H835.17v.39a6.58,6.58,0,0,0,1.31,4.18,4.21,4.21,0,0,0,3.46,1.69,7,7,0,0,0,2.57-.43,5.22,5.22,0,0,0,1.83-1.21l.69,1.12a5.87,5.87,0,0,1-2.09,1.38A7.74,7.74,0,0,1,839.94,295.82Zm-.22-14a3.85,3.85,0,0,0-3,1.39,6,6,0,0,0-1.42,3.48l0,.06h8.58v-.41a4.73,4.73,0,0,0-1.12-3.22A3.82,3.82,0,0,0,839.72,281.86Z"/><path class="cls-70" d="M854.65,294.44a4.59,4.59,0,0,0,2.84-.93,3.06,3.06,0,0,0,1.23-2.59h1.44l0,.09a4.07,4.07,0,0,1-1.61,3.43,6,6,0,0,1-3.92,1.38,5.56,5.56,0,0,1-4.62-2.07,8.34,8.34,0,0,1-1.63-5.33v-.57a8.34,8.34,0,0,1,1.63-5.31,5.56,5.56,0,0,1,4.6-2.08,7.32,7.32,0,0,1,3.1.65,6.12,6.12,0,0,1,2.29,1.75l.07,3.22h-1.38l-.26-2.62a4.63,4.63,0,0,0-1.62-1.17,5.27,5.27,0,0,0-2.2-.43,3.9,3.9,0,0,0-3.48,1.7,7.63,7.63,0,0,0-1.13,4.29v.57a7.74,7.74,0,0,0,1.12,4.32A3.92,3.92,0,0,0,854.65,294.44Z"/><path class="cls-70" d="M863.09,294.33l2.21-.18v-12l-2.21-.18v-1.21h3.82v13.41l2.2.18v1.2h-6Zm3.82-17.83H865.3v-2.3h1.61Z"/><path class="cls-70" d="M871.48,282v-1.21h3.64l.15,2.45a5.07,5.07,0,0,1,1.88-2,5.25,5.25,0,0,1,2.8-.72,4.6,4.6,0,0,1,2.8.83,4.53,4.53,0,0,1,1.61,2.52,5.77,5.77,0,0,1,1.89-2.45,4.88,4.88,0,0,1,3-.9,4.4,4.4,0,0,1,3.62,1.58,7.63,7.63,0,0,1,1.28,4.86v7.24l2.2.19v1.2h-6v-1.2l2.2-.19v-7.26a6.11,6.11,0,0,0-1-3.87,3.3,3.3,0,0,0-2.66-1.12A3.61,3.61,0,0,0,886,283.1a5.87,5.87,0,0,0-1.26,3.11,1.27,1.27,0,0,0,0,.2v7.74l2.21.18v1.2h-6v-1.2l2.21-.18v-7.27a6,6,0,0,0-1-3.84,3.27,3.27,0,0,0-2.66-1.15,4,4,0,0,0-2.74.88,4.72,4.72,0,0,0-1.41,2.37v9l2.2.18v1.2h-6v-1.2l2.2-.18v-12Z"/><path class="cls-70" d="M904.66,295.82a5.83,5.83,0,0,1-4.58-2.05,7.52,7.52,0,0,1-1.81-5.2v-.75a7.71,7.71,0,0,1,1.81-5.26,5.54,5.54,0,0,1,4.36-2.1,5.39,5.39,0,0,1,4.23,1.73,6.62,6.62,0,0,1,1.55,4.59v1.4H899.88v.39a6.59,6.59,0,0,0,1.32,4.18,4.2,4.2,0,0,0,3.46,1.69,7.05,7.05,0,0,0,2.57-.43,5.09,5.09,0,0,0,1.82-1.21l.69,1.12a5.83,5.83,0,0,1-2.08,1.38A7.78,7.78,0,0,1,904.66,295.82Zm-.22-14a3.84,3.84,0,0,0-3,1.39,6,6,0,0,0-1.43,3.48l0,.06h8.58v-.41a4.74,4.74,0,0,0-1.13-3.22A3.8,3.8,0,0,0,904.44,281.86Z"/><path class="cls-70" d="M912.81,294.33l2.21-.18v-12l-2.21-.18v-1.21h3.64l.15,2.58a5.34,5.34,0,0,1,1.9-2.11,5.26,5.26,0,0,1,2.84-.75,4.48,4.48,0,0,1,3.62,1.47,7,7,0,0,1,1.25,4.59v7.63l2.2.18v1.2h-6v-1.2l2.21-.18v-7.61a5.38,5.38,0,0,0-1-3.6,3.38,3.38,0,0,0-2.67-1.05,4.2,4.2,0,0,0-2.78.9,5.08,5.08,0,0,0-1.55,2.42v8.94l2.21.18v1.2h-6Z"/><path class="cls-70" d="M934.68,277v3.79h3.22v1.34h-3.22v9.64a3.14,3.14,0,0,0,.52,2,1.73,1.73,0,0,0,1.39.61c.26,0,.51,0,.76,0s.53-.06.86-.12l.24,1.22a3.92,3.92,0,0,1-1,.27,6.41,6.41,0,0,1-1.16.1,3,3,0,0,1-2.4-1,4.66,4.66,0,0,1-.86-3.11v-9.64h-2.52v-1.34H933V277Z"/><path class="cls-70" d="M940.6,287.92a8,8,0,0,1,1.78-5.36,6.31,6.31,0,0,1,9.4,0,8,8,0,0,1,1.77,5.36v.45a8,8,0,0,1-1.76,5.36,6.34,6.34,0,0,1-9.41,0,8,8,0,0,1-1.78-5.36Zm1.63.45a7.16,7.16,0,0,0,1.28,4.32,4.22,4.22,0,0,0,3.59,1.75,4.16,4.16,0,0,0,3.54-1.75,7.09,7.09,0,0,0,1.29-4.32v-.45a7.1,7.1,0,0,0-1.29-4.3,4.49,4.49,0,0,0-7.13,0,7.16,7.16,0,0,0-1.28,4.3Z"/><path class="cls-70" d="M966.81,285.3h-1.32l-.19-2.09a4.15,4.15,0,0,0-1.54-1,6.1,6.1,0,0,0-2.13-.35,4,4,0,0,0-2.66.77,2.34,2.34,0,0,0-.88,1.81,2.16,2.16,0,0,0,.76,1.7,7.42,7.42,0,0,0,3,1.17,9.91,9.91,0,0,1,3.91,1.61,3.32,3.32,0,0,1,1.3,2.77,3.59,3.59,0,0,1-1.48,3,6.27,6.27,0,0,1-3.92,1.14,9,9,0,0,1-3-.46,7.26,7.26,0,0,1-2.3-1.29v-3h1.31l.23,2.1a3.67,3.67,0,0,0,1.64.95,7.22,7.22,0,0,0,2.08.3,4.43,4.43,0,0,0,2.77-.78,2.32,2.32,0,0,0,1-1.89,2.39,2.39,0,0,0-.85-1.82,6.82,6.82,0,0,0-3-1.27,10.18,10.18,0,0,1-3.87-1.52,3.13,3.13,0,0,1-1.27-2.66,3.58,3.58,0,0,1,1.42-2.87,5.72,5.72,0,0,1,3.75-1.17,8.4,8.4,0,0,1,2.94.5,6,6,0,0,1,2.17,1.35Z"/><path class="cls-70" d="M983.25,295.82a5.83,5.83,0,0,1-4.57-2.05,7.53,7.53,0,0,1-1.82-5.2v-.75a7.76,7.76,0,0,1,1.81-5.26,5.57,5.57,0,0,1,4.36-2.1,5.4,5.4,0,0,1,4.24,1.73,6.62,6.62,0,0,1,1.54,4.59v1.4H978.47v.39a6.59,6.59,0,0,0,1.32,4.18,4.21,4.21,0,0,0,3.46,1.69,7,7,0,0,0,2.57-.43,5.22,5.22,0,0,0,1.83-1.21l.69,1.12a5.87,5.87,0,0,1-2.09,1.38A7.74,7.74,0,0,1,983.25,295.82Zm-.22-14a3.85,3.85,0,0,0-3,1.39,6,6,0,0,0-1.42,3.48l0,.06h8.58v-.41a4.73,4.73,0,0,0-1.12-3.22A3.82,3.82,0,0,0,983,281.86Z"/><path class="cls-70" d="M991.36,282v-1.21H995l.14,2.45a5.14,5.14,0,0,1,1.88-2,5.29,5.29,0,0,1,2.81-.72,4.23,4.23,0,0,1,4.41,3.35,5.82,5.82,0,0,1,1.88-2.45,4.91,4.91,0,0,1,3-.9,4.41,4.41,0,0,1,3.62,1.58,7.64,7.64,0,0,1,1.27,4.86v7.24l2.21.19v1.2h-6.05v-1.2l2.21-.19v-7.26a6,6,0,0,0-1-3.87,3.28,3.28,0,0,0-2.66-1.12,3.58,3.58,0,0,0-2.91,1.21,6,6,0,0,0-1.27,3.11c0,.07,0,.14,0,.2a1.78,1.78,0,0,1,0,.25v7.49l2.2.18v1.2h-6v-1.2l2.2-.18v-7.27a6,6,0,0,0-1-3.84,3.3,3.3,0,0,0-2.66-1.15,4,4,0,0,0-2.74.88,4.81,4.81,0,0,0-1.42,2.37v9l2.21.18v1.2h-6v-1.2l2.2-.18v-12Z"/><path class="cls-70" d="M587.4,309.22a6.88,6.88,0,0,1,4.91,1.65,6.22,6.22,0,0,1,0,8.65,7,7,0,0,1-4.91,1.63h-4.18V327l2.21.38v1.72h-7.08v-1.72l2.21-.38V311.34l-2.21-.38v-1.74h9ZM583.22,319h4.18a3.84,3.84,0,0,0,3-1.09,3.92,3.92,0,0,0,1-2.74,4,4,0,0,0-1-2.76,3.82,3.82,0,0,0-3-1.11h-4.18Z"/><path class="cls-70" d="M602.71,329.42a6.17,6.17,0,0,1-4.87-2.06A7.81,7.81,0,0,1,596,322v-.6a7.64,7.64,0,0,1,1.86-5.26,5.71,5.71,0,0,1,4.4-2.1,5.52,5.52,0,0,1,4.47,1.81,7.19,7.19,0,0,1,1.53,4.81v1.68h-9.5l0,.07a5.83,5.83,0,0,0,1.07,3.51,3.39,3.39,0,0,0,2.88,1.37,6.62,6.62,0,0,0,2.37-.39,5.62,5.62,0,0,0,1.77-1.07l1,1.75a6.37,6.37,0,0,1-2.08,1.29A8.2,8.2,0,0,1,602.71,329.42Zm-.41-13.24a2.9,2.9,0,0,0-2.29,1.14,5.54,5.54,0,0,0-1.16,2.87l0,.07h6.75v-.36a4.14,4.14,0,0,0-.84-2.65A3,3,0,0,0,602.3,316.18Z"/><path class="cls-70" d="M610.53,327.41l2.2-.38V316.46l-2.2-.39v-1.73h4.58l.19,2.2a5.37,5.37,0,0,1,1.84-1.83,4.86,4.86,0,0,1,2.51-.65,4.74,4.74,0,0,1,3.66,1.4,6.19,6.19,0,0,1,1.3,4.33V327l2.21.38v1.72h-7.08v-1.72L622,327v-7.18a4,4,0,0,0-.77-2.78,3.07,3.07,0,0,0-2.33-.82,3.76,3.76,0,0,0-2,.56,4.16,4.16,0,0,0-1.41,1.53V327l2.2.38v1.72h-7.07Z"/><path class="cls-70" d="M640,319h-2l-.43-1.78a3.7,3.7,0,0,0-1.22-.75,4.89,4.89,0,0,0-1.68-.28,3.06,3.06,0,0,0-2.11.63,2,2,0,0,0-.69,1.52,1.72,1.72,0,0,0,.61,1.38,6.19,6.19,0,0,0,2.48.9,10.62,10.62,0,0,1,4.13,1.64,3.31,3.31,0,0,1,1.35,2.77,3.83,3.83,0,0,1-1.58,3.18,6.55,6.55,0,0,1-4.12,1.22,10.62,10.62,0,0,1-3-.39,8.11,8.11,0,0,1-2.37-1.13v-3.38h2l.5,2a2.86,2.86,0,0,0,1.26.61,6.63,6.63,0,0,0,1.61.19,3.74,3.74,0,0,0,2.23-.58,1.8,1.8,0,0,0,.8-1.52,1.84,1.84,0,0,0-.67-1.47,6.23,6.23,0,0,0-2.53-1,10.77,10.77,0,0,1-4-1.6,3.26,3.26,0,0,1-1.36-2.74,3.85,3.85,0,0,1,1.53-3.07,5.94,5.94,0,0,1,4-1.28,9.54,9.54,0,0,1,3,.44,6.19,6.19,0,0,1,2.21,1.22Z"/><path class="cls-70" d="M652.43,329.13c-.08-.4-.14-.76-.19-1.08a7.79,7.79,0,0,1-.09-1,6.46,6.46,0,0,1-1.93,1.66,5.45,5.45,0,0,1-6-.46,4.18,4.18,0,0,1-1.19-3.18,3.7,3.7,0,0,1,1.68-3.25,8.18,8.18,0,0,1,4.62-1.14h2.75V319a2.69,2.69,0,0,0-.81-2.06,3.2,3.2,0,0,0-2.26-.76,5.48,5.48,0,0,0-1.76.26,3.37,3.37,0,0,0-1.24.71l-.29,1.56h-2v-2.87a7.63,7.63,0,0,1,2.42-1.29,9.56,9.56,0,0,1,3.08-.49,6.05,6.05,0,0,1,4,1.29A4.51,4.51,0,0,1,654.8,319v7.68c0,.18,0,.36,0,.55l1.08.15v1.72Zm-4.29-2a4.68,4.68,0,0,0,2.42-.64,3.9,3.9,0,0,0,1.57-1.55v-2.43h-2.84a4,4,0,0,0-2.59.77,2.29,2.29,0,0,0-1,1.86,1.84,1.84,0,0,0,.59,1.48A2.72,2.72,0,0,0,648.14,327.16Z"/><path class="cls-70" d="M657.61,327.41l2.21-.38V316.46l-2.21-.39v-1.73h4.6l.18,1.93a4.72,4.72,0,0,1,1.81-1.63,5.56,5.56,0,0,1,2.57-.58,4.45,4.45,0,0,1,2.51.69,4.15,4.15,0,0,1,1.58,2.05,5.5,5.5,0,0,1,1.82-2,4.81,4.81,0,0,1,2.66-.74,4.37,4.37,0,0,1,3.54,1.56,7.11,7.11,0,0,1,1.3,4.67V327l2.2.38v1.72H675.3v-1.72l2.2-.38v-6.77a5,5,0,0,0-.74-3.1,2.69,2.69,0,0,0-2.21-.91,2.81,2.81,0,0,0-2.24,1,4.35,4.35,0,0,0-1,2.5V327l2.21.38v1.72h-7.08v-1.72l2.21-.38v-6.77a4.92,4.92,0,0,0-.77-3.05,2.66,2.66,0,0,0-2.21-1,3.6,3.6,0,0,0-2,.51,3.19,3.19,0,0,0-1.21,1.42V327l2.21.38v1.72h-7.08Z"/><path class="cls-70" d="M690.87,329.42a6.17,6.17,0,0,1-4.87-2.06,7.81,7.81,0,0,1-1.8-5.34v-.6a7.64,7.64,0,0,1,1.86-5.26,5.71,5.71,0,0,1,4.4-2.1,5.52,5.52,0,0,1,4.47,1.81,7.19,7.19,0,0,1,1.53,4.81v1.68H687l0,.07a5.83,5.83,0,0,0,1.07,3.51,3.39,3.39,0,0,0,2.88,1.37,6.62,6.62,0,0,0,2.37-.39,5.62,5.62,0,0,0,1.77-1.07l1,1.75a6.37,6.37,0,0,1-2.08,1.29A8.2,8.2,0,0,1,690.87,329.42Zm-.41-13.24a2.9,2.9,0,0,0-2.29,1.14,5.54,5.54,0,0,0-1.16,2.87l0,.07h6.75v-.36a4.14,4.14,0,0,0-.84-2.65A3,3,0,0,0,690.46,316.18Z"/><path class="cls-70" d="M698.69,327.41l2.2-.38V316.46l-2.2-.39v-1.73h4.58l.19,2.2a5.37,5.37,0,0,1,1.84-1.83,4.86,4.86,0,0,1,2.51-.65,4.74,4.74,0,0,1,3.66,1.4,6.19,6.19,0,0,1,1.3,4.33V327l2.21.38v1.72H707.9v-1.72l2.21-.38v-7.18a4,4,0,0,0-.77-2.78,3.07,3.07,0,0,0-2.33-.82,3.76,3.76,0,0,0-2,.56,4.16,4.16,0,0,0-1.41,1.53V327l2.2.38v1.72h-7.07Z"/><path class="cls-70" d="M721.57,310.77v3.57h2.77v2h-2.77v9a2,2,0,0,0,.42,1.46,1.55,1.55,0,0,0,1.13.42,5.79,5.79,0,0,0,.79-.06,6.87,6.87,0,0,0,.74-.13l.37,1.85a3.52,3.52,0,0,1-1.11.4,6.66,6.66,0,0,1-1.46.16,3.44,3.44,0,0,1-2.59-1,4.34,4.34,0,0,1-1-3.11v-9h-2.31v-2h2.31v-3.57Z"/><path class="cls-70" d="M726.8,321.6a8.22,8.22,0,0,1,1.76-5.41,6.45,6.45,0,0,1,9.57,0,8.18,8.18,0,0,1,1.77,5.42v.3a8.17,8.17,0,0,1-1.76,5.41,6.48,6.48,0,0,1-9.58,0,8.16,8.16,0,0,1-1.76-5.4Zm2.67.3a7.11,7.11,0,0,0,1,3.88,3.51,3.51,0,0,0,5.8,0,7,7,0,0,0,1-3.88v-.3a7,7,0,0,0-1-3.87,3.5,3.5,0,0,0-5.81,0,7.12,7.12,0,0,0-1,3.87Z"/><path class="cls-70" d="M764.25,315.34h-1.88l-.5-2.82a5,5,0,0,0-1.59-1,5.6,5.6,0,0,0-2.26-.41,5.53,5.53,0,0,0-4.73,2.24,9.42,9.42,0,0,0-1.65,5.71v.32a9.6,9.6,0,0,0,1.62,5.72,5.2,5.2,0,0,0,4.49,2.26,6.74,6.74,0,0,0,2.43-.42,4.57,4.57,0,0,0,1.69-1l.5-2.82h1.88v3.54a7.34,7.34,0,0,1-2.55,2,8.6,8.6,0,0,1-4,.87,7.94,7.94,0,0,1-6.31-2.87,10.71,10.71,0,0,1-2.46-7.22V319a10.84,10.84,0,0,1,2.42-7.24,7.9,7.9,0,0,1,6.35-2.86,8.48,8.48,0,0,1,4,.88,7.57,7.57,0,0,1,2.55,2Z"/><path class="cls-70" d="M767.11,321.6a8.17,8.17,0,0,1,1.76-5.41,5.85,5.85,0,0,1,4.77-2.13,5.94,5.94,0,0,1,4.8,2.12,8.18,8.18,0,0,1,1.77,5.42v.3a8.17,8.17,0,0,1-1.76,5.41,6.48,6.48,0,0,1-9.58,0,8.1,8.1,0,0,1-1.76-5.4Zm2.66.3a7.11,7.11,0,0,0,1,3.88,3.25,3.25,0,0,0,2.92,1.53,3.22,3.22,0,0,0,2.88-1.53,7,7,0,0,0,1-3.88v-.3a7,7,0,0,0-1-3.87,3.24,3.24,0,0,0-2.91-1.55,3.2,3.2,0,0,0-2.89,1.55,7.12,7.12,0,0,0-1,3.87Z"/><path class="cls-70" d="M782.11,327.41l2.21-.38V316.46l-2.21-.39v-1.73h4.6l.18,1.93a4.72,4.72,0,0,1,1.81-1.63,5.56,5.56,0,0,1,2.57-.58,4.45,4.45,0,0,1,2.51.69,4.1,4.1,0,0,1,1.58,2.05,5.44,5.44,0,0,1,1.83-2,4.75,4.75,0,0,1,2.65-.74,4.36,4.36,0,0,1,3.54,1.56,7.11,7.11,0,0,1,1.3,4.67V327l2.21.38v1.72H799.8v-1.72L802,327v-6.77a5,5,0,0,0-.74-3.1,2.68,2.68,0,0,0-2.21-.91,2.81,2.81,0,0,0-2.24,1,4.35,4.35,0,0,0-1,2.5V327l2.21.38v1.72H791v-1.72l2.21-.38v-6.77a4.92,4.92,0,0,0-.77-3.05,2.65,2.65,0,0,0-2.21-1,3.6,3.6,0,0,0-2,.51,3.25,3.25,0,0,0-1.21,1.42V327l2.21.38v1.72h-7.08Z"/><path class="cls-70" d="M808.5,333.08l2.2-.38V316.46l-2.2-.39v-1.73H813l.24,1.8A4.94,4.94,0,0,1,815,314.6a5.24,5.24,0,0,1,2.43-.54,4.87,4.87,0,0,1,4.23,2.18,10,10,0,0,1,1.51,5.77v.28a8.18,8.18,0,0,1-1.52,5.16,5,5,0,0,1-4.18,2,5.66,5.66,0,0,1-2.37-.46,4.61,4.61,0,0,1-1.74-1.36v5.1l2.2.38v1.74H808.5Zm12-11.07a7.88,7.88,0,0,0-1-4.14,3.16,3.16,0,0,0-2.89-1.62,3.51,3.51,0,0,0-2,.52,3.9,3.9,0,0,0-1.31,1.42v7.21a3.7,3.7,0,0,0,1.3,1.41,3.65,3.65,0,0,0,2,.5,3.26,3.26,0,0,0,2.86-1.39,6.21,6.21,0,0,0,1-3.63Z"/><path class="cls-70" d="M836.07,326.94a4.72,4.72,0,0,1-4.29,2.48,4.66,4.66,0,0,1-3.72-1.55,7.23,7.23,0,0,1-1.34-4.81v-6.6l-1.68-.39v-1.73h4.35v8.75a5.55,5.55,0,0,0,.69,3.25,2.55,2.55,0,0,0,2.15.89,4.33,4.33,0,0,0,2.35-.58A3.72,3.72,0,0,0,836,325v-8.54l-2-.39v-1.73h4.63V327l1.68.38v1.72h-4.07Z"/><path class="cls-70" d="M847.08,310.77v3.57h2.78v2h-2.78v9a2,2,0,0,0,.43,1.46,1.53,1.53,0,0,0,1.13.42,5.91,5.91,0,0,0,.79-.06,7.35,7.35,0,0,0,.74-.13l.36,1.85a3.34,3.34,0,0,1-1.11.4,6.53,6.53,0,0,1-1.46.16,3.43,3.43,0,0,1-2.58-1,4.34,4.34,0,0,1-1-3.11v-9h-2.31v-2h2.31v-3.57Z"/><path class="cls-70" d="M862.13,329.13c-.08-.4-.14-.76-.19-1.08a7.79,7.79,0,0,1-.09-1,6.46,6.46,0,0,1-1.93,1.66,5.45,5.45,0,0,1-5.95-.46,4.18,4.18,0,0,1-1.19-3.18,3.7,3.7,0,0,1,1.68-3.25,8.19,8.19,0,0,1,4.63-1.14h2.74V319a2.69,2.69,0,0,0-.81-2.06,3.2,3.2,0,0,0-2.26-.76,5.48,5.48,0,0,0-1.76.26,3.37,3.37,0,0,0-1.24.71l-.29,1.56h-2.05v-2.87a7.63,7.63,0,0,1,2.42-1.29,9.56,9.56,0,0,1,3.08-.49,6.1,6.1,0,0,1,4,1.29A4.53,4.53,0,0,1,864.5,319v7.68c0,.18,0,.36,0,.55l1.08.15v1.72Zm-4.29-2a4.68,4.68,0,0,0,2.42-.64,3.9,3.9,0,0,0,1.57-1.55v-2.43H859a4,4,0,0,0-2.59.77,2.29,2.29,0,0,0-.95,1.86,1.84,1.84,0,0,0,.59,1.48A2.72,2.72,0,0,0,857.84,327.16Z"/><path class="cls-70" d="M874.41,327.31a3.53,3.53,0,0,0,2.34-.83,2.53,2.53,0,0,0,1-2h2.39l0,.09a4.16,4.16,0,0,1-1.69,3.39,6.09,6.09,0,0,1-4.08,1.49,5.88,5.88,0,0,1-4.87-2.11,8.16,8.16,0,0,1-1.69-5.29v-.57a8.18,8.18,0,0,1,1.69-5.27,5.89,5.89,0,0,1,4.87-2.12,8.09,8.09,0,0,1,3.16.59,6.21,6.21,0,0,1,2.32,1.62l.13,3.28h-2.13l-.58-2.33a3.51,3.51,0,0,0-1.22-.75,4.62,4.62,0,0,0-1.68-.29,3.2,3.2,0,0,0-3,1.53,7.22,7.22,0,0,0-.9,3.74V322a7.39,7.39,0,0,0,.89,3.78A3.21,3.21,0,0,0,874.41,327.31Z"/><path class="cls-70" d="M882.78,327.41,885,327V316.46l-2.2-.39v-1.73h4.87V327l2.2.38v1.72h-7.07Zm4.87-16.86H885V307.8h2.67Z"/><path class="cls-70" d="M891.9,321.6a8.22,8.22,0,0,1,1.75-5.41,6.46,6.46,0,0,1,9.58,0A8.23,8.23,0,0,1,905,321.6v.3a8.11,8.11,0,0,1-1.76,5.41,6.48,6.48,0,0,1-9.58,0,8.15,8.15,0,0,1-1.75-5.4Zm2.66.3a7.11,7.11,0,0,0,1,3.88,3.25,3.25,0,0,0,2.92,1.53,3.22,3.22,0,0,0,2.88-1.53,7,7,0,0,0,1-3.88v-.3a7,7,0,0,0-1-3.87,3.24,3.24,0,0,0-2.91-1.55,3.19,3.19,0,0,0-2.89,1.55,7.12,7.12,0,0,0-1,3.87Z"/><path class="cls-70" d="M907,327.41l2.2-.38V316.46l-2.2-.39v-1.73h4.58l.19,2.2a5.43,5.43,0,0,1,1.83-1.83,4.92,4.92,0,0,1,2.51-.65,4.76,4.76,0,0,1,3.67,1.4,6.19,6.19,0,0,1,1.3,4.33V327l2.21.38v1.72h-7.08v-1.72l2.21-.38v-7.18a4,4,0,0,0-.77-2.78,3.07,3.07,0,0,0-2.33-.82,3.76,3.76,0,0,0-2,.56,4.16,4.16,0,0,0-1.41,1.53V327l2.2.38v1.72H907Z"/><path class="cls-70" d="M934.81,329.13c-.08-.4-.14-.76-.19-1.08s-.07-.64-.09-1a6.46,6.46,0,0,1-1.93,1.66,4.8,4.8,0,0,1-2.47.67,4.91,4.91,0,0,1-3.48-1.13,4.18,4.18,0,0,1-1.19-3.18,3.69,3.69,0,0,1,1.69-3.25,8.14,8.14,0,0,1,4.62-1.14h2.74V319a2.69,2.69,0,0,0-.81-2.06,3.2,3.2,0,0,0-2.26-.76,5.57,5.57,0,0,0-1.76.26,3.37,3.37,0,0,0-1.24.71l-.28,1.56H926.1v-2.87a7.74,7.74,0,0,1,2.42-1.29,9.62,9.62,0,0,1,3.09-.49,6.09,6.09,0,0,1,4,1.29,4.5,4.5,0,0,1,1.54,3.68v7.12c0,.19,0,.38,0,.56a5.21,5.21,0,0,0,0,.55l1.08.15v1.72Zm-4.29-2a4.72,4.72,0,0,0,2.43-.64,3.87,3.87,0,0,0,1.56-1.55v-2.43h-2.84a4,4,0,0,0-2.59.77,2.32,2.32,0,0,0-1,1.86,1.87,1.87,0,0,0,.59,1.48A2.72,2.72,0,0,0,930.52,327.16Z"/><path class="cls-70" d="M940.16,309.54V307.8H945V327l2.2.38v1.72h-7.07v-1.72l2.2-.38V309.92Z"/><path class="cls-70" d="M962.55,329.42a5.81,5.81,0,0,1-4.57-2.05,7.53,7.53,0,0,1-1.82-5.2v-.75a7.71,7.71,0,0,1,1.81-5.26,5.56,5.56,0,0,1,4.36-2.1,5.4,5.4,0,0,1,4.24,1.73,6.67,6.67,0,0,1,1.54,4.59v1.4H957.77v.39a6.59,6.59,0,0,0,1.32,4.18,4.2,4.2,0,0,0,3.46,1.69,7,7,0,0,0,2.57-.43A5.22,5.22,0,0,0,967,326.4l.69,1.12a5.87,5.87,0,0,1-2.09,1.38A7.78,7.78,0,0,1,962.55,329.42Zm-.22-14a3.85,3.85,0,0,0-3,1.39,6,6,0,0,0-1.43,3.48l0,.06h8.58V320a4.73,4.73,0,0,0-1.12-3.22A3.82,3.82,0,0,0,962.33,315.46Z"/><path class="cls-70" d="M585,361.64a4.59,4.59,0,0,0,2.84-.93,3.06,3.06,0,0,0,1.23-2.59h1.43l0,.08a4.09,4.09,0,0,1-1.62,3.44A6,6,0,0,1,585,363a5.55,5.55,0,0,1-4.62-2.07,8.34,8.34,0,0,1-1.63-5.33v-.57a8.34,8.34,0,0,1,1.63-5.31,5.54,5.54,0,0,1,4.6-2.08,7.35,7.35,0,0,1,3.1.65,6.12,6.12,0,0,1,2.29,1.75l.06,3.22H589l-.25-2.62a4.63,4.63,0,0,0-1.62-1.17,5.3,5.3,0,0,0-2.2-.43,3.89,3.89,0,0,0-3.48,1.7,7.63,7.63,0,0,0-1.13,4.29v.57a7.66,7.66,0,0,0,1.12,4.32A3.92,3.92,0,0,0,585,361.64Z"/><path class="cls-70" d="M593.51,355.12a8,8,0,0,1,1.77-5.36,6.31,6.31,0,0,1,9.4,0,8,8,0,0,1,1.78,5.36v.45a8,8,0,0,1-1.77,5.36,6.34,6.34,0,0,1-9.41,0,8,8,0,0,1-1.77-5.36Zm1.62.45a7.09,7.09,0,0,0,1.29,4.32,4.51,4.51,0,0,0,7.13,0,7.16,7.16,0,0,0,1.28-4.32v-.45a7.1,7.1,0,0,0-1.29-4.3,4.48,4.48,0,0,0-7.12,0,7.1,7.1,0,0,0-1.29,4.3Z"/><path class="cls-70" d="M612.6,347.94l.2,2.46v.18a5.23,5.23,0,0,1,1.7-2.14,4.24,4.24,0,0,1,2.55-.78,3.83,3.83,0,0,1,.6,0c.2,0,.35.07.48.1l-.21,1.54-1.21-.09a3.65,3.65,0,0,0-2.51.87,4.86,4.86,0,0,0-1.4,2.39v8.83l2.21.18v1.2h-6v-1.2l2.2-.18v-12l-2.2-.18v-1.21h3.61Z"/><path class="cls-70" d="M623.73,347.94l.21,2.46v.18a5.21,5.21,0,0,1,1.69-2.14,4.24,4.24,0,0,1,2.55-.78,4.07,4.07,0,0,1,.61,0l.48.1-.22,1.54-1.2-.09a3.63,3.63,0,0,0-2.51.87,4.71,4.71,0,0,0-1.4,2.39v8.83l2.2.18v1.2h-6v-1.2l2.21-.18v-12l-2.21-.18v-1.21h3.61Z"/><path class="cls-70" d="M637.56,363a5.83,5.83,0,0,1-4.57-2,7.53,7.53,0,0,1-1.82-5.2V355a7.78,7.78,0,0,1,1.81-5.26,5.56,5.56,0,0,1,4.36-2.1,5.4,5.4,0,0,1,4.24,1.73,6.62,6.62,0,0,1,1.54,4.59v1.39H632.78v.4A6.59,6.59,0,0,0,634.1,360a4.2,4.2,0,0,0,3.46,1.69,6.81,6.81,0,0,0,2.57-.43A5.09,5.09,0,0,0,642,360l.69,1.12a6,6,0,0,1-2.09,1.39A8,8,0,0,1,637.56,363Zm-.22-14a3.85,3.85,0,0,0-3,1.39,6,6,0,0,0-1.42,3.48l0,.06h8.58v-.41a4.73,4.73,0,0,0-1.12-3.22A3.82,3.82,0,0,0,637.34,349.06Z"/><path class="cls-70" d="M645.69,342.62V341.4h3.82v20l2.2.18v1.2h-6v-1.2l2.21-.18V342.8Z"/><path class="cls-70" d="M664.38,362.73a12.48,12.48,0,0,1-.23-1.3,8.07,8.07,0,0,1-.07-1.11,6.36,6.36,0,0,1-2.17,1.93,6.05,6.05,0,0,1-3,.77,4.69,4.69,0,0,1-3.33-1.12,4,4,0,0,1-1.18-3,3.76,3.76,0,0,1,1.75-3.25,8.22,8.22,0,0,1,4.73-1.21h3.24v-1.95a3.17,3.17,0,0,0-1-2.49,4.08,4.08,0,0,0-2.82-.9,7.19,7.19,0,0,0-2.23.33,5.17,5.17,0,0,0-1.68.91l-.14,2h-1.33v-2.85a8,8,0,0,1,2.43-1.28,9,9,0,0,1,3-.5,5.82,5.82,0,0,1,3.89,1.25,4.39,4.39,0,0,1,1.48,3.57v7.27c0,.3,0,.59,0,.87a5.28,5.28,0,0,0,.09.81l1.46.1v1.2Zm-5.33-1.16a5.84,5.84,0,0,0,3.09-.82,4.81,4.81,0,0,0,1.94-2.12v-3h-3.26a6,6,0,0,0-3.53.93,2.75,2.75,0,0,0-1.32,2.33,2.48,2.48,0,0,0,.82,1.92A3.32,3.32,0,0,0,659.05,361.57Z"/><path class="cls-70" d="M675.81,361.64a4.59,4.59,0,0,0,2.84-.93,3.06,3.06,0,0,0,1.23-2.59h1.44l0,.08a4.08,4.08,0,0,1-1.61,3.44,6,6,0,0,1-3.92,1.38A5.54,5.54,0,0,1,671.2,361a8.29,8.29,0,0,1-1.64-5.33v-.57a8.29,8.29,0,0,1,1.64-5.31,5.53,5.53,0,0,1,4.6-2.08,7.31,7.31,0,0,1,3.09.65,6.12,6.12,0,0,1,2.29,1.75l.07,3.22h-1.38l-.26-2.62a4.63,4.63,0,0,0-1.62-1.17,5.25,5.25,0,0,0-2.19-.43,3.9,3.9,0,0,0-3.49,1.7,7.63,7.63,0,0,0-1.13,4.29v.57a7.74,7.74,0,0,0,1.12,4.32A3.92,3.92,0,0,0,675.81,361.64Z"/><path class="cls-70" d="M684.25,361.53l2.21-.18v-12l-2.21-.18v-1.21h3.82v13.41l2.2.18v1.2h-6Zm3.82-17.83h-1.61v-2.3h1.61Z"/><path class="cls-70" d="M693,355.12a8,8,0,0,1,1.77-5.36,6.32,6.32,0,0,1,9.41,0,8,8,0,0,1,1.77,5.36v.45a8,8,0,0,1-1.77,5.36,5.83,5.83,0,0,1-4.68,2.09,5.91,5.91,0,0,1-4.73-2.09,8,8,0,0,1-1.77-5.36Zm1.63.45a7.09,7.09,0,0,0,1.28,4.32,4.51,4.51,0,0,0,7.13,0,7.09,7.09,0,0,0,1.29-4.32v-.45a7,7,0,0,0-1.3-4.3,4.48,4.48,0,0,0-7.12,0,7.09,7.09,0,0,0-1.28,4.3Z"/><path class="cls-70" d="M708.28,361.53l2.21-.18v-12l-2.21-.18v-1.21h3.64l.15,2.58a5.05,5.05,0,0,1,4.74-2.86,4.48,4.48,0,0,1,3.62,1.47,7,7,0,0,1,1.25,4.59v7.63l2.2.18v1.2h-6v-1.2l2.2-.18v-7.62a5.37,5.37,0,0,0-.94-3.59,3.39,3.39,0,0,0-2.67-1.05,4.14,4.14,0,0,0-2.78.91,5,5,0,0,0-1.55,2.41v8.94l2.21.18v1.2h-6Z"/><path class="cls-70" d="M736.53,362.73c-.11-.5-.18-.93-.23-1.3a10,10,0,0,1-.07-1.11,6.42,6.42,0,0,1-2.16,1.93A6.09,6.09,0,0,1,731,363a4.65,4.65,0,0,1-3.32-1.12,4,4,0,0,1-1.18-3,3.75,3.75,0,0,1,1.74-3.25A8.28,8.28,0,0,1,733,354.4h3.23v-1.95a3.17,3.17,0,0,0-1-2.49,4.12,4.12,0,0,0-2.82-.9,7.1,7.1,0,0,0-2.23.33,5.17,5.17,0,0,0-1.68.91l-.14,2H727v-2.85a8.24,8.24,0,0,1,2.43-1.28,9.05,9.05,0,0,1,3-.5,5.83,5.83,0,0,1,3.9,1.25,4.42,4.42,0,0,1,1.47,3.57v7.27c0,.3,0,.59,0,.87s0,.55.09.81l1.46.1v1.2Zm-5.33-1.16a5.88,5.88,0,0,0,3.1-.82,4.79,4.79,0,0,0,1.93-2.12v-3H733a6,6,0,0,0-3.52.93,2.75,2.75,0,0,0-1.32,2.33,2.45,2.45,0,0,0,.82,1.92A3.27,3.27,0,0,0,731.2,361.57ZM734,342.29h2l0,.08-3.37,3.56h-1.45Z"/><path class="cls-70" d="M749,354.94h-6.46v-1.38H749Z"/><path class="cls-70" d="M752.12,342.62V341.4h3.81v20l2.21.18v1.2h-6v-1.2l2.2-.18V342.8Z"/><path class="cls-70" d="M760.43,355.12a8,8,0,0,1,1.77-5.36,6.31,6.31,0,0,1,9.4,0,8,8,0,0,1,1.77,5.36v.45a8,8,0,0,1-1.76,5.36,6.34,6.34,0,0,1-9.41,0,8,8,0,0,1-1.77-5.36Zm1.62.45a7.09,7.09,0,0,0,1.29,4.32,4.2,4.2,0,0,0,3.58,1.75,4.15,4.15,0,0,0,3.54-1.75,7.09,7.09,0,0,0,1.29-4.32v-.45a7.1,7.1,0,0,0-1.29-4.3,4.48,4.48,0,0,0-7.12,0,7.1,7.1,0,0,0-1.29,4.3Z"/><path class="cls-70" d="M786.63,352.5h-1.32l-.19-2.09a4.15,4.15,0,0,0-1.54-1,6.1,6.1,0,0,0-2.13-.35,4,4,0,0,0-2.66.77,2.34,2.34,0,0,0-.88,1.81,2.16,2.16,0,0,0,.76,1.7,7.28,7.28,0,0,0,3.05,1.17,10,10,0,0,1,3.91,1.61,3.32,3.32,0,0,1,1.3,2.77,3.59,3.59,0,0,1-1.48,3,6.25,6.25,0,0,1-3.92,1.14,8.87,8.87,0,0,1-2.95-.46,7.2,7.2,0,0,1-2.31-1.29v-3h1.31l.23,2.1a3.71,3.71,0,0,0,1.65.95,7.1,7.1,0,0,0,2.07.3,4.46,4.46,0,0,0,2.78-.78,2.33,2.33,0,0,0,1-1.89,2.42,2.42,0,0,0-.84-1.82,6.93,6.93,0,0,0-3.06-1.27,10.18,10.18,0,0,1-3.87-1.52,3.16,3.16,0,0,1-1.27-2.66,3.61,3.61,0,0,1,1.42-2.87,5.72,5.72,0,0,1,3.75-1.17,8.32,8.32,0,0,1,2.94.5,6.13,6.13,0,0,1,2.18,1.35Z"/><path class="cls-70" d="M802.87,361.64a4.59,4.59,0,0,0,2.84-.93,3.06,3.06,0,0,0,1.23-2.59h1.44l0,.08a4.08,4.08,0,0,1-1.61,3.44,6,6,0,0,1-3.92,1.38,5.54,5.54,0,0,1-4.61-2.07,8.35,8.35,0,0,1-1.64-5.33v-.57a8.35,8.35,0,0,1,1.64-5.31,5.53,5.53,0,0,1,4.6-2.08,7.39,7.39,0,0,1,3.1.65,6.08,6.08,0,0,1,2.28,1.75l.07,3.22h-1.38l-.26-2.62a4.63,4.63,0,0,0-1.62-1.17,5.25,5.25,0,0,0-2.19-.43,3.92,3.92,0,0,0-3.49,1.7,7.63,7.63,0,0,0-1.13,4.29v.57a7.66,7.66,0,0,0,1.13,4.32A3.89,3.89,0,0,0,802.87,361.64Z"/><path class="cls-70" d="M811.42,355.12a8,8,0,0,1,1.77-5.36,6.32,6.32,0,0,1,9.41,0,8,8,0,0,1,1.77,5.36v.45a8,8,0,0,1-1.77,5.36,5.83,5.83,0,0,1-4.68,2.09,5.91,5.91,0,0,1-4.73-2.09,8,8,0,0,1-1.77-5.36Zm1.62.45a7.09,7.09,0,0,0,1.29,4.32,4.51,4.51,0,0,0,7.13,0,7.09,7.09,0,0,0,1.29-4.32v-.45a7.1,7.1,0,0,0-1.3-4.3,4.48,4.48,0,0,0-7.12,0,7.1,7.1,0,0,0-1.29,4.3Z"/><path class="cls-70" d="M826.66,349.15v-1.21h3.64l.14,2.44a5.23,5.23,0,0,1,1.89-2,5.32,5.32,0,0,1,2.8-.71,4.23,4.23,0,0,1,4.41,3.35,5.76,5.76,0,0,1,1.88-2.45,4.91,4.91,0,0,1,3-.9,4.41,4.41,0,0,1,3.62,1.58,7.66,7.66,0,0,1,1.27,4.86v7.24l2.21.19v1.2h-6v-1.2l2.21-.19v-7.26a6,6,0,0,0-1-3.87,3.28,3.28,0,0,0-2.65-1.12,3.59,3.59,0,0,0-2.92,1.21,5.91,5.91,0,0,0-1.26,3.11v.2a1.85,1.85,0,0,1,0,.25v7.49l2.2.18v1.2h-6v-1.2l2.2-.18v-7.27a6,6,0,0,0-1-3.84,3.28,3.28,0,0,0-2.66-1.15,4,4,0,0,0-2.74.88,4.72,4.72,0,0,0-1.41,2.37v9l2.2.18v1.2h-6v-1.2l2.2-.18v-12Z"/><path class="cls-70" d="M870.36,362.73a12.48,12.48,0,0,1-.23-1.3,8.07,8.07,0,0,1-.07-1.11,6.42,6.42,0,0,1-2.16,1.93,6.12,6.12,0,0,1-3,.77,4.69,4.69,0,0,1-3.33-1.12,4,4,0,0,1-1.17-3,3.75,3.75,0,0,1,1.74-3.25,8.23,8.23,0,0,1,4.74-1.21h3.23v-1.95a3.17,3.17,0,0,0-1-2.49,4.08,4.08,0,0,0-2.82-.9,7.09,7.09,0,0,0-2.22.33,5.13,5.13,0,0,0-1.69.91l-.13,2h-1.34v-2.85a8.24,8.24,0,0,1,2.43-1.28,9,9,0,0,1,3-.5,5.87,5.87,0,0,1,3.9,1.25,4.42,4.42,0,0,1,1.47,3.57v7.27c0,.3,0,.59,0,.87a5.28,5.28,0,0,0,.09.81l1.46.1v1.2ZM865,361.57a5.9,5.9,0,0,0,3.1-.82,4.85,4.85,0,0,0,1.93-2.12v-3H866.8a6,6,0,0,0-3.53.93,2.76,2.76,0,0,0-1.31,2.33,2.47,2.47,0,0,0,.81,1.92A3.32,3.32,0,0,0,865,361.57Z"/><path class="cls-70" d="M886.16,352.5h-1.32l-.19-2.09a4.15,4.15,0,0,0-1.54-1,6.1,6.1,0,0,0-2.13-.35,4,4,0,0,0-2.66.77,2.35,2.35,0,0,0-.89,1.81,2.17,2.17,0,0,0,.77,1.7,7.28,7.28,0,0,0,3,1.17,10.06,10.06,0,0,1,3.91,1.61,3.32,3.32,0,0,1,1.3,2.77,3.62,3.62,0,0,1-1.48,3,6.27,6.27,0,0,1-3.92,1.14,9,9,0,0,1-3-.46,7.26,7.26,0,0,1-2.3-1.29v-3h1.31l.23,2.1a3.67,3.67,0,0,0,1.64.95,7.22,7.22,0,0,0,2.08.3,4.43,4.43,0,0,0,2.77-.78,2.32,2.32,0,0,0,1-1.89,2.39,2.39,0,0,0-.85-1.82,6.82,6.82,0,0,0-3-1.27,10.18,10.18,0,0,1-3.87-1.52,3.13,3.13,0,0,1-1.27-2.66,3.58,3.58,0,0,1,1.42-2.87,5.72,5.72,0,0,1,3.75-1.17,8.4,8.4,0,0,1,2.94.5,6.08,6.08,0,0,1,2.17,1.35Z"/><path class="cls-70" d="M578.23,376.22V375h3.82v9.07a5.26,5.26,0,0,1,2-2.07,5.37,5.37,0,0,1,2.84-.74,4.44,4.44,0,0,1,3.55,1.45,6.87,6.87,0,0,1,1.24,4.5V395l2.2.18v1.2h-6v-1.2L590,395v-7.77a5.1,5.1,0,0,0-.94-3.45,3.32,3.32,0,0,0-2.59-1,4.32,4.32,0,0,0-2.78.88,5.16,5.16,0,0,0-1.64,2.34v9l2.2.18v1.2h-6v-1.2l2.21-.18V376.4Z"/><path class="cls-70" d="M606.37,396.33c-.1-.5-.18-.93-.23-1.3a10,10,0,0,1-.06-1.11,6.55,6.55,0,0,1-2.17,1.93,6.08,6.08,0,0,1-3,.77,4.65,4.65,0,0,1-3.33-1.12,4,4,0,0,1-1.18-3,3.74,3.74,0,0,1,1.75-3.25,8.22,8.22,0,0,1,4.73-1.21h3.24v-1.95a3.17,3.17,0,0,0-1-2.49,4.08,4.08,0,0,0-2.82-.9A7.1,7.1,0,0,0,600,383a5.17,5.17,0,0,0-1.68.91l-.14,2h-1.34l0-2.84a8.06,8.06,0,0,1,2.42-1.28,9.1,9.1,0,0,1,3-.5,5.83,5.83,0,0,1,3.9,1.25,4.42,4.42,0,0,1,1.48,3.57v7.27c0,.3,0,.59,0,.87a6.94,6.94,0,0,0,.08.81l1.46.1v1.2ZM601,395.17a5.88,5.88,0,0,0,3.1-.82,4.87,4.87,0,0,0,1.94-2.12v-3h-3.26a6,6,0,0,0-3.53.93,2.75,2.75,0,0,0-1.32,2.33,2.45,2.45,0,0,0,.82,1.92A3.31,3.31,0,0,0,601,395.17Z"/><path class="cls-70" d="M624.14,389.34a8.61,8.61,0,0,1-1.49,5.3,4.84,4.84,0,0,1-4.1,2,5.62,5.62,0,0,1-2.77-.65,4.89,4.89,0,0,1-1.88-1.87l-.18,2.23h-1.38V376.4l-2.21-.18V375H614v8.86a5.3,5.3,0,0,1,1.87-1.92,5.2,5.2,0,0,1,2.7-.68,4.76,4.76,0,0,1,4.13,2.13,9.74,9.74,0,0,1,1.49,5.67Zm-1.64-.28a8.73,8.73,0,0,0-1.08-4.6,3.51,3.51,0,0,0-3.19-1.77,4.21,4.21,0,0,0-2.74.84,5,5,0,0,0-1.54,2.18v6.68a4.65,4.65,0,0,0,1.62,2.05,4.56,4.56,0,0,0,2.68.76,3.57,3.57,0,0,0,3.18-1.59,7.56,7.56,0,0,0,1.07-4.27Z"/><path class="cls-70" d="M626.78,395.13,629,395v-12l-2.2-.18v-1.21h3.81V395l2.21.18v1.2h-6Zm3.81-17.83H629V375h1.61Z"/><path class="cls-70" d="M635.19,376.22V375H639V395l2.2.18v1.2h-6v-1.2l2.21-.18V376.4Z"/><path class="cls-70" d="M643.66,395.13l2.21-.18v-12l-2.21-.18v-1.21h3.82V395l2.2.18v1.2h-6Zm3.82-17.83h-1.61V375h1.61Z"/><path class="cls-70" d="M662.58,394.2A5.19,5.19,0,0,1,660.7,396a5.56,5.56,0,0,1-2.71.63,4.83,4.83,0,0,1-4.11-2,8.67,8.67,0,0,1-1.48-5.29v-.28a9.81,9.81,0,0,1,1.48-5.67,4.76,4.76,0,0,1,4.14-2.13,5.23,5.23,0,0,1,2.65.65,5.37,5.37,0,0,1,1.87,1.86V376.4l-2.21-.18V375h3.83V395l2.2.18v1.2h-3.65ZM654,389.34a7.56,7.56,0,0,0,1.06,4.27,3.6,3.6,0,0,0,3.2,1.59,4.51,4.51,0,0,0,2.61-.72,4.75,4.75,0,0,0,1.63-2v-7a5.19,5.19,0,0,0-1.57-2,4.17,4.17,0,0,0-2.64-.79,3.53,3.53,0,0,0-3.22,1.77,8.82,8.82,0,0,0-1.07,4.6Z"/><path class="cls-70" d="M679,396.33c-.11-.5-.18-.93-.23-1.3a8.07,8.07,0,0,1-.07-1.11,6.42,6.42,0,0,1-2.16,1.93,6.09,6.09,0,0,1-3,.77,4.65,4.65,0,0,1-3.32-1.12,4,4,0,0,1-1.18-3,3.75,3.75,0,0,1,1.74-3.25,8.28,8.28,0,0,1,4.74-1.21h3.23v-1.95a3.14,3.14,0,0,0-1-2.49,4.08,4.08,0,0,0-2.82-.9,7.09,7.09,0,0,0-2.22.33,5.23,5.23,0,0,0-1.69.91l-.13,2h-1.34V383a8.24,8.24,0,0,1,2.43-1.28,9.05,9.05,0,0,1,3-.5,5.85,5.85,0,0,1,3.9,1.25,4.42,4.42,0,0,1,1.47,3.57v7.27c0,.3,0,.59,0,.87s.05.55.09.81l1.46.1v1.2Zm-5.33-1.16a5.88,5.88,0,0,0,3.1-.82,4.79,4.79,0,0,0,1.93-2.12v-3H675.4a6,6,0,0,0-3.52.93,2.75,2.75,0,0,0-1.32,2.33,2.45,2.45,0,0,0,.82,1.92A3.27,3.27,0,0,0,673.63,395.17Z"/><path class="cls-70" d="M694.32,394.2a5.19,5.19,0,0,1-1.88,1.79,5.56,5.56,0,0,1-2.71.63,4.83,4.83,0,0,1-4.11-2,8.67,8.67,0,0,1-1.48-5.29v-.28a9.81,9.81,0,0,1,1.48-5.67,4.76,4.76,0,0,1,4.14-2.13,5.23,5.23,0,0,1,2.65.65,5.37,5.37,0,0,1,1.87,1.86V376.4l-2.21-.18V375h3.83V395l2.21.18v1.2h-3.66Zm-8.54-4.86a7.56,7.56,0,0,0,1.06,4.27,3.6,3.6,0,0,0,3.2,1.59,4.51,4.51,0,0,0,2.61-.72,4.75,4.75,0,0,0,1.63-2v-7a5.1,5.1,0,0,0-1.57-2,4.17,4.17,0,0,0-2.64-.79,3.5,3.5,0,0,0-3.21,1.77,8.73,8.73,0,0,0-1.08,4.6Z"/><path class="cls-70" d="M707.05,396.62a5.81,5.81,0,0,1-4.57-2.05,7.53,7.53,0,0,1-1.82-5.2v-.75a7.73,7.73,0,0,1,1.81-5.26,5.56,5.56,0,0,1,4.36-2.1,5.4,5.4,0,0,1,4.24,1.73,6.65,6.65,0,0,1,1.54,4.59V389H702.27v.4a6.59,6.59,0,0,0,1.32,4.18,4.2,4.2,0,0,0,3.46,1.69,6.81,6.81,0,0,0,2.57-.43,5.22,5.22,0,0,0,1.83-1.21l.69,1.12a6,6,0,0,1-2.09,1.39A8,8,0,0,1,707.05,396.62Zm-.22-14a3.85,3.85,0,0,0-3,1.39,6,6,0,0,0-1.43,3.48l0,.06H711v-.41a4.73,4.73,0,0,0-1.12-3.22A3.82,3.82,0,0,0,706.83,382.66Z"/><path class="cls-70" d="M726.13,386.1H724.8l-.19-2.09a4.2,4.2,0,0,0-1.53-1,6.12,6.12,0,0,0-2.14-.35,4,4,0,0,0-2.65.77,2.32,2.32,0,0,0-.89,1.81,2.16,2.16,0,0,0,.76,1.7,7.42,7.42,0,0,0,3.05,1.17,10,10,0,0,1,3.92,1.61,3.34,3.34,0,0,1,1.29,2.77,3.6,3.6,0,0,1-1.48,3,6.24,6.24,0,0,1-3.91,1.14,9.19,9.19,0,0,1-3-.46,7.2,7.2,0,0,1-2.31-1.29v-3h1.31l.23,2.1a3.76,3.76,0,0,0,1.65.95,7.12,7.12,0,0,0,2.08.3,4.45,4.45,0,0,0,2.77-.78,2.3,2.3,0,0,0,1-1.89,2.42,2.42,0,0,0-.84-1.82,6.88,6.88,0,0,0-3.05-1.27A10.24,10.24,0,0,1,717,388a3.15,3.15,0,0,1-1.26-2.66,3.58,3.58,0,0,1,1.42-2.87,5.68,5.68,0,0,1,3.74-1.17,8.41,8.41,0,0,1,2.95.5,6,6,0,0,1,2.17,1.35Z"/><path class="cls-70" d="M746.29,394.2a5.19,5.19,0,0,1-1.88,1.79,5.56,5.56,0,0,1-2.71.63,4.83,4.83,0,0,1-4.11-2,8.67,8.67,0,0,1-1.48-5.29v-.28a9.81,9.81,0,0,1,1.48-5.67,4.76,4.76,0,0,1,4.14-2.13,5.23,5.23,0,0,1,2.65.65,5.37,5.37,0,0,1,1.87,1.86V376.4l-2.21-.18V375h3.83V395l2.2.18v1.2h-3.65Zm-8.54-4.86a7.56,7.56,0,0,0,1.06,4.27,3.6,3.6,0,0,0,3.2,1.59,4.51,4.51,0,0,0,2.61-.72,4.75,4.75,0,0,0,1.63-2v-7a5.19,5.19,0,0,0-1.57-2,4.17,4.17,0,0,0-2.64-.79,3.53,3.53,0,0,0-3.22,1.77,8.82,8.82,0,0,0-1.07,4.6Z"/><path class="cls-70" d="M762.67,396.33c-.11-.5-.18-.93-.23-1.3a8.07,8.07,0,0,1-.07-1.11,6.42,6.42,0,0,1-2.16,1.93,6.09,6.09,0,0,1-3.05.77,4.65,4.65,0,0,1-3.32-1.12,4,4,0,0,1-1.18-3,3.75,3.75,0,0,1,1.74-3.25,8.28,8.28,0,0,1,4.74-1.21h3.23v-1.95a3.14,3.14,0,0,0-1-2.49,4.08,4.08,0,0,0-2.82-.9,7.09,7.09,0,0,0-2.22.33,5.23,5.23,0,0,0-1.69.91l-.13,2h-1.34V383a8.24,8.24,0,0,1,2.43-1.28,9.05,9.05,0,0,1,3-.5,5.85,5.85,0,0,1,3.9,1.25,4.42,4.42,0,0,1,1.47,3.57v7.27c0,.3,0,.59,0,.87s0,.55.09.81l1.46.1v1.2Zm-5.33-1.16a5.88,5.88,0,0,0,3.1-.82,4.79,4.79,0,0,0,1.93-2.12v-3h-3.26a6,6,0,0,0-3.52.93,2.75,2.75,0,0,0-1.32,2.33,2.45,2.45,0,0,0,.82,1.92A3.27,3.27,0,0,0,757.34,395.17Z"/><path class="cls-70" d="M782.19,376.42a7.75,7.75,0,0,1,4.79,1.31,4.63,4.63,0,0,1,1.71,3.93,4.33,4.33,0,0,1-.86,2.67,4.42,4.42,0,0,1-2.33,1.57,4.75,4.75,0,0,1,2.92,1.71,4.88,4.88,0,0,1,1.12,3.18,5,5,0,0,1-1.71,4.1,6.88,6.88,0,0,1-4.58,1.44h-9v-1.2l2.2-.18V377.82l-2.2-.18v-1.22h8Zm-4.14,8.93h4.54a5.07,5.07,0,0,0,3.3-1,3.87,3.87,0,0,0-.07-5.63,5.86,5.86,0,0,0-3.63-.95h-4.14Zm0,1.38V395h5.2a5,5,0,0,0,3.42-1.09,3.82,3.82,0,0,0,1.25-3,4,4,0,0,0-1.13-2.94,4.42,4.42,0,0,0-3.28-1.15Z"/><path class="cls-70" d="M811,376.42v1.22l-2.2.18v18.51h-1.61L796,379.21l-.08,0V395l2.2.18v1.2h-6v-1.2l2.2-.18V377.82l-2.2-.18v-1.22H796l11.18,17.09h.09V377.82l-2.21-.18v-1.22h6Z"/><path class="cls-70" d="M828.59,382.66h-1.26l-.23-3a5.71,5.71,0,0,0-2-1.53,6.84,6.84,0,0,0-2.91-.58A6.38,6.38,0,0,0,816.9,380a9.71,9.71,0,0,0-1.95,6.27v.28a9.81,9.81,0,0,0,1.93,6.29,6.15,6.15,0,0,0,5.07,2.44,7.57,7.57,0,0,0,3-.59,5.5,5.5,0,0,0,2.13-1.52l.23-3h1.26v3.5a7,7,0,0,1-2.69,2.15,8.91,8.91,0,0,1-3.95.86,7.76,7.76,0,0,1-6.2-2.84,10.81,10.81,0,0,1-2.41-7.27v-.26a10.9,10.9,0,0,1,2.4-7.28,7.84,7.84,0,0,1,6.29-2.83,8.55,8.55,0,0,1,3.91.87,7,7,0,0,1,2.65,2.15Z"/><path class="cls-70" d="M846.84,382.66h-1.26l-.23-3a5.71,5.71,0,0,0-2-1.53,6.84,6.84,0,0,0-2.91-.58,6.38,6.38,0,0,0-5.25,2.43,9.71,9.71,0,0,0-1.95,6.27v.28a9.87,9.87,0,0,0,1.93,6.29,6.18,6.18,0,0,0,5.07,2.44,7.53,7.53,0,0,0,3-.59,5.5,5.5,0,0,0,2.13-1.52l.23-3h1.26v3.5a7,7,0,0,1-2.68,2.15,9,9,0,0,1-4,.86,7.77,7.77,0,0,1-6.2-2.84,10.86,10.86,0,0,1-2.41-7.27v-.26A10.9,10.9,0,0,1,834,379a7.86,7.86,0,0,1,6.29-2.83,8.59,8.59,0,0,1,3.92.87,6.92,6.92,0,0,1,2.64,2.15Z"/><path class="cls-70" d="M852.27,396.33h-1.86v-2.24h1.86Z"/><g class="cls-71"><path class="cls-68" d="M153.5,564.7s24.48-21.86,24.48-27-14.34-8.35-14.34-8.35l-20.42,29.5,9.58,7.33Z"/><path class="cls-70" d="M176.16,358.82S129.27,227,183.61,159.92c0,0,58.1-39.81,101.53,7s13,178.54,13,178.54Z"/><g class="cls-72"><polygon class="cls-73" points="293.69 311.8 293.71 312.12 182.29 322.49 182.29 311.8 293.69 311.8"/><polygon class="cls-73" points="293.71 312.12 293.75 312.49 293.75 312.93 182.29 323.3 182.29 322.49 293.71 312.12"/><polygon class="cls-74" points="293.75 313.74 182.29 324.11 182.29 323.3 293.75 312.93 293.75 313.74"/><polygon class="cls-75" points="293.75 314.55 182.29 324.93 182.29 324.11 293.75 313.74 293.75 314.55"/><polygon class="cls-76" points="293.75 315.37 182.29 325.74 182.29 324.93 293.75 314.55 293.75 315.37"/><polygon class="cls-77" points="293.75 316.18 182.29 326.55 182.29 325.74 293.75 315.37 293.75 316.18"/><polygon class="cls-78" points="293.75 316.99 182.29 327.37 182.29 326.55 293.75 316.18 293.75 316.99"/><polygon class="cls-79" points="293.75 317.81 182.29 328.18 182.29 327.37 293.75 316.99 293.75 317.81"/><polygon class="cls-80" points="293.75 318.62 182.29 328.99 182.29 328.18 293.75 317.81 293.75 318.62"/><polygon class="cls-81" points="293.75 319.43 182.29 329.81 182.29 328.99 293.75 318.62 293.75 319.43"/><polygon class="cls-82" points="293.75 320.24 182.29 330.62 182.29 329.81 293.75 319.43 293.75 320.24"/><polygon class="cls-83" points="293.75 321.06 182.29 331.43 182.29 330.62 293.75 320.24 293.75 321.06"/><polygon class="cls-84" points="293.75 321.87 182.29 332.24 182.29 331.43 293.75 321.06 293.75 321.87"/><polygon class="cls-85" points="293.75 322.68 182.29 333.06 182.29 332.24 293.75 321.87 293.75 322.68"/><polygon class="cls-86" points="293.75 323.5 182.29 333.87 182.29 333.06 293.75 322.68 293.75 323.5"/><polygon class="cls-87" points="293.75 324.31 182.29 334.68 182.29 333.87 293.75 323.5 293.75 324.31"/><polygon class="cls-88" points="293.75 325.12 182.29 335.5 182.29 334.68 293.75 324.31 293.75 325.12"/><polygon class="cls-89" points="293.75 325.94 182.29 336.31 182.29 335.5 293.75 325.12 293.75 325.94"/><polygon class="cls-90" points="293.75 326.75 182.29 337.12 182.29 336.31 293.75 325.94 293.75 326.75"/><polygon class="cls-91" points="293.75 327.56 182.29 337.94 182.29 337.12 293.75 326.75 293.75 327.56"/><polygon class="cls-92" points="293.75 328.38 182.29 338.75 182.29 337.94 293.75 327.56 293.75 328.38"/><polygon class="cls-93" points="293.75 329.19 182.29 339.56 182.29 338.75 293.75 328.38 293.75 329.19"/><polygon class="cls-94" points="293.75 330 182.29 340.38 182.29 339.56 293.75 329.19 293.75 330"/><polygon class="cls-95" points="293.75 330.82 182.29 341.19 182.29 340.38 293.75 330 293.75 330.82"/><polygon class="cls-95" points="184.32 384.38 182.29 362.56 182.29 341.19 293.75 330.82 293.75 384.38 184.32 384.38"/></g><path class="cls-95" d="M182.57,220.71s-.88,110.78,64.76,101.68c35.49-4.92,47.51-40.41,40.88-70.92a191.55,191.55,0,0,1-3.79-46.76s-4.08-29.37-38.7-20.31-49.64,5.72-49.64,5.72S180.51,193.3,182.57,220.71Z"/><path class="cls-70" d="M177,226.89s25.09-2.78,36.43-7.67l.58-15.39s2.55,9.93,4.85,12.4,22.88-.73,32-3.58,4.81-14.7,4.81-14.7l4.34,11.85s28.57,3.45,28.73-.93-3.86-24.71-12.21-28.74-73.88-4.44-83.08,4.1S177.5,214.69,177,226.89Z"/><ellipse class="cls-96" cx="265.92" cy="242.56" rx="3.92" ry="3.17" transform="translate(-22.23 26.88) rotate(-5.56)"/><ellipse class="cls-96" cx="226.86" cy="246.26" rx="3.92" ry="3.17" transform="translate(-22.77 23.12) rotate(-5.56)"/><path class="cls-97" d="M250.52,277a15.34,15.34,0,0,1-5.17-.8l.35-.94c5.16,1.91,13.88,0,15.56-3.34,1.13-2.27-1.43-4.53-3.78-6-6.89-4.38-5.32-8.94-5.25-9.13l.94.34c0,.16-1.33,4,4.84,7.95,4.89,3.1,4.95,5.68,4.15,7.31C260.69,275.31,255.34,277,250.52,277Z"/><path class="cls-98" d="M264.92,287.05c-18.37,3.57-37.46.15-36.73,1.15,0,0,1.77,10.68,18,10.61C262.94,298.73,264.92,287.05,264.92,287.05Z"/><path class="cls-68" d="M219.35,331.75s22.52,13.66,36.94,11.81c6.84-.88,19-14,19-14l13,129.73-49.8,2.24Z"/><path class="cls-3" d="M172.63,555.72S155,628.29,157,648.17s4.67,52.17,34,145.94c0,0,78.26,32.39,150.2-.8,0,0,6.29-1.86,10.91-43.82S364.54,606.9,343.4,562,172.63,555.72,172.63,555.72Z"/><path class="cls-70" d="M271,224s-6.44-4.41-10.23.1a.9.9,0,0,0-.21,1.24c.5.72,1.31-2.15,10.2-.47C270.78,224.88,271.34,225,271,224Z"/><path class="cls-70" d="M218.7,227.22s5.76-5.29,10.14-1.36a.89.89,0,0,1,.39,1.2c-.4.78-1.61-1.94-10.16,1C219.07,228,218.52,228.24,218.7,227.22Z"/><path class="cls-68" d="M262.59,287.47s-.64,2.4-2,3.09-15.62,1.5-24.11.72c-5.38-.5-6.4-2.5-6.25-3.23C230.25,288.05,249.06,289.75,262.59,287.47Z"/><path class="cls-99" d="M249.35,298.64s-1.22-7.27-18.49-5.37C230.86,293.27,235,299.91,249.35,298.64Z"/><ellipse class="cls-100" cx="280.98" cy="252.77" rx="3.62" ry="6.23" transform="translate(5.76 511.8) rotate(-85.24)"/><ellipse class="cls-100" cx="214.76" cy="262.02" rx="6.23" ry="3.62" transform="translate(-52.56 53.89) rotate(-12.76)"/><path class="cls-101" d="M333.53,438.84l41.91,37.38s10.59,6.85,14.42,7.27S408.13,474,408.13,474l39.67-86.66s-43.31-16.06-43.67-19.67-13.35,48.69-13.35,48.69-1-1.57-6.5-.5c-3,.58-1.8,5.6-7.86-.14-3.75-3.54-4.15-3.13-9.37-10.51-29.22-41.33-56.53-70.83-58.39-72.35s-11-6.17-14.23-4.65-19.18,1.41-19.18,1.41L277.88,445,219.35,331.75s-12.56,4.33-26.08,2.61S157,338,157,338s-10.23,27.71-17.55,29.81-11,20.25-11,20.25c-2.17,2.65-10.18,14.08-19.61,27.72h0s-37.48,45.93-43,49.91-2.65,13.44-2.65,13.44l78.84,83.79L170,527.39c-7.13-.5-43.13-49.77-43.13-49.77,2.54-4.53,2.3-8.26,1.56-10.72,17.3-18.49,42.63-47.18,42.63-47.18.41,4.06,6.47,16.8,16.94,32.51s9.68,42.14,9.68,42.14c-14.94,21.68-25,61.35-25,61.35s1,7.92,26.28,20.54c11,5.51,46.51,16.31,46.51,16.31l39.46-43.28,50.78,35.64s9.12-9.13,8.21-18.27-18.44-63.5-18.44-63.5-1.89-19,.28-24.66S333.53,438.84,333.53,438.84Z"/><path class="cls-73" d="M153.5,564.7s12.2,10.7,14.68,8.23l12.43-35.19S165,549,153.5,564.7Z"/><path class="cls-95" d="M170.85,565.87s5.9-5.86,14.86,2.8,9.68,9.26,9.68,9.26,7,2.88,7.52-4.63c0,0,8.8,1.29,6.83-8.39,0,0,6.13-4.42.71-12,0,0,5.5-1.06,2.23-11.47s-24-20.46-24-20.46-9.94-3.49-10.82,8.07c0,0-7.16.38-4.66,10.38,0,0-4.65,4.2-3.65,8.77s-.11,3.66-.11,3.66S162.76,559.29,170.85,565.87Z"/><path class="cls-97" d="M202.53,573.63c-.11-.14-11.87-13.67-24.48-19.79l.44-.9c12.8,6.21,24.68,19.9,24.8,20Z"/><path class="cls-97" d="M209.39,565.27c-.17-.16-17.14-16.1-29.48-22.75l.48-.88c12.45,6.72,29.52,22.74,29.69,22.9Z"/><path class="cls-97" d="M210.06,553.19c-.15-.18-15.21-17.9-27.54-21.76l.29-.95c12.61,3.94,27.39,21.33,28,22.07Z"/><path class="cls-102" d="M219.35,331.75s-24.15,11.65-37.22,31.43l44.37,12.67s-15.11,14.86-14.79,18.07,66.17,51,66.17,51,33.54-61.51,29.81-64.56-24.28-6.81-24.28-6.81,19.47-27.61,22.86-27.95-28-16.36-31-16.05,2.51,110.28,2.51,110.28l-.15,2.38Z"/><path class="cls-3" d="M277.88,445s9.26,81.81,7,104.33"/><circle class="cls-102" cx="291.62" cy="469.64" r="5.33"/><circle class="cls-102" cx="293.75" cy="507.64" r="5.33"/><path class="cls-103" d="M173.78,402.91l-1-.24a76.65,76.65,0,0,0-11.56-60.85l.82-.57A77.65,77.65,0,0,1,173.78,402.91Z"/><path class="cls-103" d="M329.06,405.1l-1-.09c1.1-12.3-3.36-24.58-7.3-35.41-4.66-12.82-9.95-27.35-20.07-37.88l.72-.69c10.27,10.68,15.59,25.32,20.29,38.23C325.67,380.19,330.18,392.58,329.06,405.1Z"/><path class="cls-103" d="M146.29,375.14a27.4,27.4,0,0,0-3.49-6.94l.82-.57a28.39,28.39,0,0,1,3.62,7.19Z"/><path class="cls-103" d="M136,390.8a34.62,34.62,0,0,0-6.08-.84l0-1a36.56,36.56,0,0,1,6.25.85Z"/><path class="cls-103" d="M334.41,439.12l-1-.12a74.15,74.15,0,0,0,.44-11.92l1,0A73.89,73.89,0,0,1,334.41,439.12Z"/><path class="cls-103" d="M396.36,433.11a73.8,73.8,0,0,0-2.84-11.6l1-.31A74,74,0,0,1,397.34,433Z"/><path class="cls-103" d="M383,434.09l-1-.15a59.23,59.23,0,0,0,.76-10.74l1,0A60.39,60.39,0,0,1,383,434.09Z"/><path class="cls-103" d="M200.39,494.73l-.53-.85a60,60,0,0,1,11.6-5.54l.33.94A59.09,59.09,0,0,0,200.39,494.73Z"/><path class="cls-103" d="M127.74,467.41c-2.32,0-10-.2-12.54-2.75l.71-.71c2.65,2.65,12.36,2.45,12.46,2.45l0,1Z"/><path class="cls-103" d="M118.8,481.06v-1c3.44,0,7.7-2.83,7.74-2.86l.56.83C126.91,478.16,122.54,481.06,118.8,481.06Z"/><path class="cls-104" d="M404.87,372.47a11.23,11.23,0,0,1,3.26-6.3L449,378l-4.26,11.35Z"/><path class="cls-95" d="M413.1,368.67s2.55-5.88,1.16-10.37-5.57-14.17-4.84-19.36a101.16,101.16,0,0,0,1.33-15.6c0-16-1.25-38.25-1.16-38.92.14-1,6.38-.85,6.68,2.46.12,1.26-.27,7.05.61,12.71,1.43,9.25,3.23,20.4,3.23,20.4s12.36-3.55,16.86-.31c0,0,8.21-2.12,9,1.69,0,0,6.59-.47,6.72,2.47a76.37,76.37,0,0,1,.05,9c-.07.53-3.31,5.76-3.68,8.66-.74,5.81,1,11.35-.56,14.66-2.34,5-7.64,8.17-7.83,9.53s-2.62,12.93-3.33,13.46S412.45,373.28,413.1,368.67Z"/><path class="cls-97" d="M431,344.62l-.38,0c-1.67-.14-3.4-1.31-3.24-4.18a17.18,17.18,0,0,1,1.35-4.27c.65-1.63,1.64-4.1,1.24-4.64a13.19,13.19,0,0,1-1.58-4.26c-1.17.7-3.23,1.63-4.27.23l.8-.6c.62.84,2.5-.14,3.5-.85l.71.1.06.09,0,.13a14.13,14.13,0,0,0,1.55,4.56c.74,1-.12,3.13-1.11,5.62a16.75,16.75,0,0,0-1.28,4c-.15,2.63,1.58,3.06,2.32,3.13a3.85,3.85,0,0,0,4.13-3.17,18.17,18.17,0,0,1,.85-2.57,32.9,32.9,0,0,0,1.46-4.53c.18-1.31-.43-10.27-.68-13.62l1-.07c0,.49.9,12.15.67,13.83a33.13,33.13,0,0,1-1.51,4.74c-.36,1-.77,2.09-.8,2.33A4.81,4.81,0,0,1,431,344.62Z"/><path class="cls-97" d="M440.13,344.18l-.3,0a6.62,6.62,0,0,1-4.95-3.46l.91-.42a5.59,5.59,0,0,0,4.18,2.89,1.2,1.2,0,0,0,.88-.26c1.28-1,2.28-4.2,2.95-9.54l.05-.43,1.65-11.64,1,.14-1.7,12.05c-.26,2.1-1.06,8.47-3.33,10.21A2.17,2.17,0,0,1,440.13,344.18Z"/><path class="cls-97" d="M447.39,342.16a4.36,4.36,0,0,1-1.46-.27,4.46,4.46,0,0,1-2.89-2.82l1-.23a3.56,3.56,0,0,0,2.26,2.11,2.43,2.43,0,0,0,2.26-.13c1.28-1,3.14-6.17,3.75-8.1l1,.31c-.24.74-2.34,7.26-4.11,8.59A2.86,2.86,0,0,1,447.39,342.16Z"/><path class="cls-95" d="M421.38,355.71c1.12.16,5.94-3.58,6.86-5.66s1.8-4.73,1.8-4.73,3.7-1.81,5.2-1.54c3.17.58,5.87-2.24,5.84-4,0-2-2.6-4.12-7.44-3,0,0-4.18,1.57-5.11,1.44s-3.64-.13-4.77.72a8.14,8.14,0,0,1-4.51,1.13c-.93-.13-3.36-.13-4.39.64"/><path class="cls-97" d="M421.43,356.21h-.12l.14-1c.79.06,5.42-3.32,6.34-5.37s1.77-4.66,1.78-4.69l.06-.2.19-.09c.39-.19,3.9-1.88,5.51-1.58a4.65,4.65,0,0,0,3.84-1.13,3.58,3.58,0,0,0,1.41-2.38,2.44,2.44,0,0,0-1-1.85c-1.26-1-3.38-1.26-5.8-.72-.65.25-4.29,1.59-5.29,1.45s-3.49-.07-4.4.62a8.56,8.56,0,0,1-4.88,1.22c-1-.14-3.19-.08-4,.55l-.6-.8c1.18-.89,3.76-.88,4.76-.74a7.75,7.75,0,0,0,4.14-1c1.31-1,4.23-.94,5.14-.81a21.68,21.68,0,0,0,4.86-1.42c3.8-.85,5.83.2,6.71.89a3.48,3.48,0,0,1,1.41,2.62,4.48,4.48,0,0,1-1.76,3.17,5.68,5.68,0,0,1-4.67,1.34c-.93-.16-3.3.74-4.7,1.41-.23.66-1,2.83-1.75,4.58C427.76,352.35,423,356.21,421.43,356.21Z"/></g></g></svg>