<svg xmlns="http://www.w3.org/2000/svg" viewBox="0 0 419.38 416.89"><defs><style>.cls-1{fill:#925531;}.cls-2{fill:#63371d;}.cls-3{fill:#4e2d19;}.cls-4{fill:#621b17;}.cls-5{fill:#4f2207;}.cls-6{fill:#a8465e;}.cls-7{fill:#5e110d;}.cls-8{fill:#655851;}.cls-9{fill:#91867f;}.cls-10{fill:#341e10;}.cls-11{fill:#67302b;}.cls-12{fill:#462515;}.cls-13{fill:#4d1d12;}.cls-14{fill:#4e2217;}.cls-15{fill:#4f1b11;}.cls-16{fill:#973f4f;}.cls-17{fill:#662f29;}.cls-18{fill:#51232a;}.cls-19{fill:#68302b;}.cls-20{fill:#4d1c11;}.cls-21{fill:#221c1d;}.cls-22{fill:#221d1c;}.cls-23{fill:#231d1d;}.cls-24{fill:#221c1c;}.cls-25{fill:#231c1c;}.cls-26{fill:#231d1c;}.cls-27{fill:#181212;}.cls-28{fill:#655952;}.cls-29{fill:#171111;}.cls-30{fill:#251f1e;}.cls-31{fill:#181211;}.cls-32{fill:#171211;}.cls-33{fill:#d1f468;}.cls-34{fill:#241d1d;}.cls-35{fill:#b0afaf;}.cls-36{fill:#352e29;}.cls-37{fill:#191212;}.cls-38{fill:#8d8d8a;}.cls-39{fill:#3e3c35;}.cls-40{fill:#342e29;}.cls-41{fill:#181312;}.cls-42{fill:#1b1414;}.cls-43{fill:#9dc564;}.cls-44{fill:#bab9b9;}.cls-45{fill:#4e4b46;}.cls-46{fill:#b9b9b9;}.cls-47{fill:#86847e;}.cls-48{fill:#073625;}.cls-49{fill:#d7824e;}.cls-50{fill:#9e7c3f;}.cls-51{fill:#5c88bc;}.cls-52{fill:#a344c9;}.cls-53{fill:#d9cfa1;}.cls-54{fill:#1c3c43;}.cls-55{fill:#0c3515;}.cls-56{fill:#dcb15a;}.cls-57{fill:#16446c;}.cls-58{fill:#100e3e;}.cls-59{fill:#6b562d;}.cls-60{fill:#183654;}.cls-61{fill:#834f2f;}.cls-62{fill:#867c42;}.cls-63{fill:#706953;}.cls-64{fill:#0a130a;}.cls-65{fill:#1c175c;}.cls-66{fill:#0a110a;}.cls-67{fill:#125348;}.cls-68{fill:#d8cea0;}.cls-69{fill:#dbb15a;}.cls-70{fill:#857b41;}.cls-71{fill:#847a40;}.cls-72{fill:#199632;}.cls-73{fill:#509561;}.cls-74{fill:#b9581b;}.cls-75{fill:#60e365;}.cls-76{fill:#f87d3e;}.cls-77{fill:#114919;}.cls-78{fill:#0b2988;}.cls-79{fill:#0b2887;}.cls-80{fill:#091a50;}.cls-81{fill:#bc501d;}.cls-82{fill:#091a51;}.cls-83{fill:#030203;}.cls-84{fill:#040302;}.cls-85{fill:#b5a398;}.cls-86{fill:#ae8519;}.cls-87{fill:#9ffdf7;}.cls-88{fill:#594413;}.cls-89{fill:#6c5218;}.cls-90{fill:#cf3169;}.cls-91{fill:#9ffcf6;}.cls-92{fill:#4ceee4;}.cls-93{fill:#7e0d35;}.cls-94{fill:#6ec8c2;}.cls-95{fill:#6fcbc6;}.cls-96{fill:#392b11;}.cls-97{fill:#800e36;}.cls-98{fill:#3fbeb4;}.cls-99{fill:#7f0e35;}.cls-100{fill:#90e2dd;}.cls-101{fill:#7549a5;}.cls-102{fill:#837a42;}.cls-103{fill:#6c2384;}.cls-104{fill:#85b264;}.cls-105{fill:#a42902;}.cls-106{fill:#c43300;}.cls-107{fill:#621705;}.cls-108{fill:#631705;}.cls-109{fill:#651704;}.cls-110{fill:#958f8c;}.cls-111{fill:#928986;}.cls-112{fill:#7e6232;}.cls-113{fill:#41331b;}.cls-114{fill:#7e6233;}.cls-115{fill:#6a522b;}.cls-116{fill:#3c310f;}.cls-117{fill:#8b76e4;}.cls-118{fill:#e147a8;}.cls-119{fill:#dfd09d;}.cls-120{fill:#f2bc9a;}.cls-121{fill:#f5f5f2;}.cls-122{fill:#9da8f1;}.cls-123{fill:#8ff473;}.cls-124{fill:#5fcbe5;}.cls-125{fill:#e97795;}.cls-126{fill:#b76a79;}.cls-127{fill:#6c654d;}.cls-128{fill:#5f67f8;}.cls-129{fill:#333775;}.cls-130{fill:#3a3d7d;}.cls-131{fill:#361616;}.cls-132{fill:#4c1515;}.cls-133{fill:#721716;}.cls-134{fill:#d2a953;}.cls-135{fill:#34326a;}.cls-136{fill:#3d3ca3;}.cls-137{fill:#8a6723;}.cls-138{fill:#352183;}.cls-139{fill:#100b08;}.cls-140{fill:#0f0a08;}.cls-141{fill:#0e0b07;}.cls-142{fill:#4c733b;}.cls-143{fill:#443c69;}.cls-144{fill:#797673;}.cls-145{fill:#36676c;}.cls-146{fill:#745a4b;}.cls-147{fill:#6e3b46;}.cls-148{fill:#6c264e;}.cls-149{fill:#4f5376;}.cls-150{fill:#67532c;}.cls-151{fill:#32255d;}.cls-152{fill:#231e1d;}.cls-153{fill:#8b8462;}.cls-154{fill:#a49971;}.cls-155{fill:#b66d42;}.cls-156{fill:#b66e43;}.cls-157{fill:#855030;}.cls-158{fill:#847a43;}.cls-159{fill:#6188ae;}.cls-160{fill:#231f1d;}.cls-161{fill:#f6de72;}.cls-162{fill:#867b44;}.cls-163{fill:#1d5490;}.cls-164{fill:#d7cda1;}.cls-165{fill:#28241d;}.cls-166{fill:#b2a987;}.cls-167{fill:#ada685;}.cls-168{fill:#602d8d;}.cls-169{fill:#4e4378;}.cls-170{fill:#622f8e;}.cls-171{fill:#eda5d3;}.cls-172{fill:#eca3d6;}.cls-173{fill:#f5acdf;}.cls-174{fill:#f1add7;}.cls-175{fill:#f1acd4;}.cls-176{fill:#f0acd6;}.cls-177{fill:#f3aadb;}.cls-178{fill:#f1abd4;}.cls-179{fill:#f1a7da;}.cls-180{fill:#f3aad8;}.cls-181{fill:#f2a7db;}.cls-182{fill:#f2abd6;}.cls-183{fill:#a245c9;}.cls-184{fill:#ce8255;}.cls-185{fill:#b3a987;}.cls-186{fill:#b3aa88;}.cls-187{fill:#141713;}.cls-188{fill:#622327;}.cls-189{fill:#155650;}.cls-190{fill:#14554e;}.cls-191{fill:#827a40;}.cls-192{fill:#f3b2d6;}.cls-193{fill:#261f1e;}.cls-194{fill:#6189b0;}.cls-195{fill:#6c2183;}.cls-196{fill:#372a33;}.cls-197{fill:#642d89;}.cls-198{fill:#832307;}.cls-199{fill:#9f9b9a;}.cls-200{fill:#40330f;}.cls-201{fill:#494ea1;}.cls-202{fill:#5d3ec1;}.cls-203{fill:#5a57d8;}.cls-204{fill:#867c43;}.cls-205{fill:#9a8d67;}.cls-206{fill:#868581;}.cls-207{fill:#8b8a82;}.cls-208{fill:#5c86ba;}.cls-209{fill:#5b87b6;}.cls-210{fill:#cab663;}.cls-211{fill:#efb1cd;}.cls-212{fill:#a244c8;}.cls-213{fill:#a345c9;}.cls-214{fill:#a143c6;}.cls-215{fill:#251d1d;}.cls-216{fill:#632f89;}.cls-217{fill:#73349b;}.cls-218{fill:#eaadc9;}.cls-219{fill:#673881;}.cls-220{fill:#f2b2d1;}.cls-221{fill:#282022;}.cls-222{fill:#2d2920;}.cls-223{fill:#3a2d29;}.cls-224{fill:#b57194;}.cls-225{fill:#edadcd;}.cls-226{opacity:0.8;}.cls-227{fill:#fada99;}</style></defs><title>6</title><g id="Camada_2" data-name="Camada 2"><g id="Camada_1-2" data-name="Camada 1"><path class="cls-1" d="M417.84,2.1v382c-1.25.31-1.92-.55-2.33-1.42-2.68-5.78-6-11.28-7.55-17.58a28.6,28.6,0,0,1-.21-5q0-166.2,0-332.4c0-2.59-.65-5.37,1.29-7.68a8,8,0,0,1,1.1-1.3,4,4,0,0,0,0-5.74c-1.94-1.27-4.11-.8-6.17-.8q-89.5,0-179,0H20c-1.33,0-2.67,0-4,0-1.61.09-3.57-.36-4.31,1.66a4.25,4.25,0,0,0,1.51,5.32,6.28,6.28,0,0,1,2.06,5c0,1.77,0,3.55,0,5.32V358a52.26,52.26,0,0,1-.19,7A12,12,0,0,1,12.88,370C10.3,373.71,8,377.6,5.42,381.3c-.86,1.21-1.63,2.74-3.61,2.25a2,2,0,0,1-.26-1.17V6.12a16.49,16.49,0,0,0,0-2c-.25-2,.73-2.57,2.52-2.37a19,19,0,0,0,2,0H413.92C415.22,1.78,416.57,1.46,417.84,2.1Z"/><path class="cls-2" d="M417.84,386.11c0,9.09,0,18.19,0,27.29,0,1.66-.38,2-2,2-21.3-.07-42.59-.05-63.89-.05a6.74,6.74,0,0,1-2.16-4c-2-8.17-3.68-16.39-5.6-24.57-.38-1.6-.78-3.29.72-4.66,4.19-1.58,8.58-1.07,12.78-.6,5,.56,9.93.53,14.88.9,6.26.48,12.58.76,18.87,1,7.71.3,15.48.08,23.16,1.18A4.83,4.83,0,0,1,417.84,386.11Z"/><path class="cls-3" d="M2,383.48l.57,0c6.48-2.07,13.28-1.81,19.93-2.66,7.43-.95,14.9-1.67,22.36-2.42,6.8-.68,13.6-1.32,20.39-2.15a4.62,4.62,0,0,1,2.58.44c1.85,1.34.71,2.8,0,4.05C62.15,390.78,57.34,401.31,51,411a2.18,2.18,0,0,0-.22.62c-.27,1.84-1.69,2.77-3,3.78H1.88c-.75-3.15-.26-6.35-.3-9.53-.09-6.4-.05-12.8,0-19.2C1.58,385.6,1.17,384.45,2,383.48Z"/><path class="cls-4" d="M238.14,415.39H192.89c-4.85-1.21-8-4.55-10.41-8.63-3-5.13-1.12-9.72,4.61-11.22a33.68,33.68,0,0,1,7.88-.85c6.18-.16,12.38.6,18.52-.6a8,8,0,0,0,1.93-.47c.72-.35,1.39-.78,1.37-1.69,0-1.11-.88-1.46-1.79-1.6-2.58-.4-5.05.37-7.54.8-4.56.8-9.09,1.79-13.64,2.68a14.63,14.63,0,0,1-5.93.09c-1.89-.41-3.65-1.12-3.82-3.48,1.92-2,4.47-2.14,7-2.26,1.43-.07,2.81-.58,3.89-.41-3.47.72-7.75-.43-11,2.77-1.65,2.11-4.17,1.91-6.39,2.2-7.55,1-15,2.71-22.65,3.12-1.53.09-2.9,1.08-4.46,1.26a5,5,0,0,1-3.37-.79c-3.69-3.16-3.08-6.76,1.6-8.83,4.49-2,9.42-2.23,14.14-3.33.85-.2,1.73-.29,2.58-.56,5.26-1.62,5.66-2.83,2.31-7-.69-.87-1.55-1.78-.88-2.94.77-1.36,2.2-1.27,3.54-1.19,8.91.56,17.83.84,26.74,1.38a10.13,10.13,0,0,0,1.65-.07c2.32.38,4.75.18,6.9,1.37,4.48,1.8,9.32,3,11.93,7.73.6,1.08,1.82.73,2.72.5,2.28-.59,4.62-.44,6.91-.83,1.31-.22,2.66-.3,3.7.83.81,1.57-2.69,1.84-1.14,3.44.94,1,2.55.52,3.82.85,2.39.62,4.87.25,7.26.7s4.91,1,5.42,4.05c.37,2.17-1.34,4.32-4.45,5.5-4.91,1.87-10.14,2.18-15.29,2.88a58.93,58.93,0,0,0-10.37,2.14c-1.29.43-2.5,1.1-2.65,2.66s1,2.34,2.22,3c4.06,2.26,8.63,2.67,13.08,3.47,2.39.43,4.8.81,7.15,1.42C237,413.7,238.25,413.82,238.14,415.39Z"/><path class="cls-5" d="M417.84,386.11c-15.45-.68-30.9-1.15-46.33-2.11-8.93-.56-17.84-1.28-26.79-1.26l-.49-.12a6.73,6.73,0,0,1-2.17-2c-4-6-9.47-8.95-16.73-8.52-1.32.07-48.84,7.62-49.92,6.67-.57-.8-7.65-11.32-7.78-12.33s52.94-.21,53.89-.95c1.38-.95,3-.76,4.49-.76q39.12-.06,78.24,0c1.75,0,3.59-.19,4.91,1.41,3,5.94,5.29,12.22,8.68,18Z"/><path class="cls-6" d="M344.72,382.74,352,415.39H306.69c-3.9-.91-7.59-2.21-10.56-5.09-2.17-2.1-3.91-4.42-2.95-7.58s3.4-4.37,6.43-5c6.8-1.37,13.74-1.7,20.55-2.94.87-.16,1.74-.32,2.59-.53,6.63-1.63,7.43-3.25,4.71-9.5-.57-1.31-1.27-2.67.14-3.94a4.57,4.57,0,0,1,3.5-.65,45.84,45.84,0,0,0,8.9.55c1.84,0,3.52.39,4.63,2Z"/><path class="cls-6" d="M238.14,415.39c-5.37-1.73-11-1.91-16.5-3.3a40.14,40.14,0,0,1-5.38-1.62c-2.17-.88-4.57-2-4.5-4.73.07-2.93,2.52-4,5-4.54,3.12-.7,6.28-1.24,9.43-1.77,4.25-.71,8.52-1.28,12.76-2.05a13.91,13.91,0,0,0,4-1.43c1.37-.72,2.72-1.74,2.39-3.6-.3-1.7-1.74-2.19-3.22-2.38-3.39-.42-6.79-.78-10.19-1.16a11.53,11.53,0,0,1-2-.24c-1.35-.41-3.22-.55-3.36-2.24-.17-1.89,1.73-1.92,3.08-2.31a6.9,6.9,0,0,0,1.17-.55c2.7-2.33,6.27-2,9.37-3.05a108.5,108.5,0,0,1,24.89-2.6,6,6,0,0,1,1,.1,57.76,57.76,0,0,1,5.63,3.46c1,.77,47,9.86,46.77,11.2s-44.17,7.24-45.35,7.48c-2.82.58-8.2-12.64-10.91-11.6-1.11.42-2.65.59-2.88,1.94-.26,1.54,1.44,1.71,2.36,2.4s2.6,1,2.43,2.76c-1.4,1.55-3.37,1.53-5.19,1.78a27.17,27.17,0,0,0-5.79,1.32c-3.33,1.24-3.87,3.31-1.48,6s5.65,4.19,8.9,5.57c2.43,1,4.94,1.88,7.43,2.8,1.13.41,2.71.54,2.66,2.36Z"/><path class="cls-7" d="M270.75,415.39c-5.13-2.24-10.77-3.26-15.55-6.37-.74-.48-1.58-.83-2.26-1.37-2.28-1.82-4.69-3.78-4.05-7.07.61-3.08,3.59-3.31,6-3.82,3-.62,6.09-.92,9.15-1.36a2.34,2.34,0,0,1,2.14-1c8.37,1.13,16.81,1.44,25.24,2a15.4,15.4,0,0,0,4.84-.89c2.38,0,4.71-.53,7.08-.74,4.06.76,7.71-.79,11.36-2.18,2.3-.87-43.13-10.44-43.93-12.38,1.43-4.11,48.3-.4,51.08-3.85,3.63.79,5.21,2.29,5.58,5.27l1.71,3.18c2.91,5.44,1.48,8.91-4.44,10.48-5.15,1.37-10.46,1.68-15.74,2.14-3.75.32-7.51.65-11,2.07-4.68,1.89-5.28,5.37-1.72,9,3,3.08,7.07,4.46,10.48,6.87Z"/><path class="cls-6" d="M139.65,415.39H103c-4.12-1.44-7.39-4.23-10.84-6.75-1.13-.83-2.38-1.68-2.22-3.41,1.88-3.07,5.24-2.52,8-2.93,5.65-.83,11.27-1.83,16.92-2.68a8.09,8.09,0,0,1,3.91.25c3,2.46,6.31,1,9.5.54,4.9-.69,9.56-2.73,14.6-2.65,4.71.06,7,3.2,5.19,7.48S144.34,413.58,139.65,415.39Z"/><path class="cls-7" d="M139.65,415.39c2.34-2.93,5-5.66,6.63-9.09.91-1.88,2.14-3.78.72-5.91s-3.75-1.89-5.75-1.53c-4.45.8-8.81,2.11-13.26,2.91-3,.54-6.31,2.08-9-1a.85.85,0,0,1,.11-1c2.56-1.54,5.52-1.31,8.3-1.87,4.86-1,9.8-1.49,14.68-2.41a18.9,18.9,0,0,1,5.57,0,4.66,4.66,0,0,0,2.75.63,59.37,59.37,0,0,1,16.09.23c8.08,1.38,12.1,12.45,7.09,19.1Z"/><path class="cls-6" d="M173.59,415.39c.11-3.18.81-6.29.16-9.55-1.2-6-3-7.84-9.18-8.39-4.72-.43-9.44-.93-14.16-1.39,5.65-2,11.64-2.19,17.46-3.26,5.42-1,10.88-1.78,16.33-2.66h0c1.21,2.34,3.33,2.74,5.65,2.62,5.67-.3,11.09-2,16.65-2.92,2.94-.49,5.86-1.29,8.88-1,1.59.17,3.16.54,3.44,2.49s-1.06,3.14-2.74,3.61a34.83,34.83,0,0,1-8.53,1.12c-6.52.17-13.08-.66-19.56.62-5.87,1.17-7.41,4.92-4.1,9.91,2.37,3.58,5.8,6.05,9,8.76Z"/><path class="cls-7" d="M90.51,406c4.14,3.16,8.9,5.52,12.53,9.37H77.75c-3.52-2.72-4.42-4.91-3.46-8.41,2.22-2.16,5.22-1.47,7.85-2a39.77,39.77,0,0,1,6.57-.69C89.93,404.2,89.87,405.46,90.51,406Z"/><path class="cls-6" d="M74.29,407.5c.7,2.83,2.38,5.23,3.46,7.89H47.8l2-4a6,6,0,0,1,4-2.18c5.8-.76,11.54-2,17.36-2.62a4.68,4.68,0,0,1,2.29.12A1.8,1.8,0,0,1,74.29,407.5Z"/><path class="cls-8" d="M409.16,366.13H321.28c-2.79-1.44-3.15-2.69-1.54-5.4,1.52-.92,3.22-.69,4.85-.67,7.61.11,15.25.29,22.84.21,9-.09,18.1-.06,27.15-.22a99.15,99.15,0,0,1,13.89.41c3.76-.19,7.51-.55,11.28-.47,2.18,0,3.25-1.09,3.3-3.27,0-1.33,0-2.66,0-4V246.26a57.93,57.93,0,0,1,.19-6.32,33.92,33.92,0,0,1,0-5.14c-.42-11.62-.1-23.24-.19-34.86-.07-10.18.1-20.36-.1-30.53.09-2-1.22-2.27-2.83-2.27-4.77,0-9.54.1-14.31.1q-29.93,0-59.87,0c-5.74,0-5.87.11-5.87,5.69q0,27.6,0,55.21c0,5.14.29,5.43,5.5,5.43q28.27,0,56.54,0c1.87,0,3.78-.27,5.6.45a3.73,3.73,0,0,1,1.11.68,4.25,4.25,0,0,1,.15,5,3,3,0,0,1-1,.8c-1.79.83-3.71.54-5.57.54q-27.92,0-55.82,0c-1.22,0-2.44,0-3.66.08a2.65,2.65,0,0,0-2.73,2.73c-.11,1.44-.09,2.88-.09,4.32q0,52.5,0,105c0,2.07.36,4.21-.58,6.22-.79,1.26-1.87,7-2.76,6.26-1.7-1.49-3.52-8.93-3.72-11.46-.89-6.51-.3-13.05-.44-19.57-.16-7.64.24-15.28-.24-22.92a8.45,8.45,0,0,1,.14-5.05,8,8,0,0,0,.52-3.91c0-8,0-15.94,0-23.92-.07-6.43.14-12.86-.13-19.29a28.43,28.43,0,0,1-.31-5.3V196.85q0-49.82,0-99.63c0-7.18-.06-7.24-7.24-7.12-.82,0-1.57-.37-2.39-.42-1.71-.25-3.5.29-5.15-.54a1.56,1.56,0,0,1-.58-1,1.65,1.65,0,0,1,.69-.87c2.9-.73,5.85-.25,8.77-.33a9.7,9.7,0,0,0,5-1.11c1.87-2.76.62-5.74.62-8.64a6.84,6.84,0,0,1,.07-3.83c.28-1,0-1.94.23-2.89a12.79,12.79,0,0,0,.39-4.27c0-11.8.12-23.6-.44-35.39-.06-1.31.1-2.68-.95-3.73-4.51-2.44-9.36-1.26-14.06-1.22-2.42,0-4.86.27-7.3.27H93.62c-7.1,0-7.11,0-7.11,7.17q0,16.47,0,32.94c0,5.17.46,5.56,5.73,5.7,26.05.69,52.12.65,78.16.18,20.19-.37,40.34.35,60.51.12,20.61-.22,41.22.21,61.83,0,1.63,0,3.35-.37,4.85.69,1.5,3.56.66,5.07-3,5.26-1.44.07-2.88,0-4.33,0H94.51a16.3,16.3,0,0,0-6.82,1.08c-2.21,2-1,4.53-1.07,6.84a1.57,1.57,0,0,0,1.25,1.25c10.27.37,20.53.05,30.79.17a20.55,20.55,0,0,1,5,.25c1.47.76,1.73,1.85.92,3.25a1.5,1.5,0,0,1-1.21.39c-11.19-.29-22.38-.1-33.57-.08-2.24,0-3.17,1.23-3.2,3.36,0,1.11,0,2.22,0,3.33V298.75c0,6.55.42,7.11,6.88,7.13,26.62.08,53.24,0,79.85,0q60.52,0,121.06,0a5.67,5.67,0,0,1,2.92.49c1.62,1.46,1.66,3.17.77,5a2.85,2.85,0,0,1-1,.9c-2.21,1.07-4.58.66-6.88.66q-97.8,0-195.6,0c-8,0-8,0-8,8,0,11.31,0,22.62,0,33.93,0,4.69.43,5.12,5.18,5.12q31.1,0,62.2,0c15.84,0,31.68-.1,47.52.05,24.05.23,48.11.41,72.16.39a7.34,7.34,0,0,1,3.59.46c1.4,2.85,1,4-1.92,6.07-2,.76-4.16.54-6.26.54q-48.88,0-97.77,0c-1.89,0-3.77,0-5.66.12-5.71-1.17-11.46-.29-17.19-.24-29.91.28-59.81.07-89.72.12-13.29,0-26.58,0-39.87,0-1.72,0-3.62.36-4.87-1.4q0-88.66-.05-177.35,0-82,0-164c0-1.57.63-3.42-1.3-4.47.63-1.29,1.81-1.51,3.07-1.59,1.55-.09,3.1-.07,4.65-.07H402.78c1.55,0,3.1,0,4.65.07,1.26.08,2.45.28,3.07,1.58-1.91,1.06-1.3,2.9-1.3,4.48q0,111.12,0,222.25Q409.18,306.58,409.16,366.13Z"/><path class="cls-9" d="M410.5,20.28c-1.55-.05-3.1-.15-4.65-.15H16.19c-1.21,0-2.43.1-3.65.16-2.14.11-2.85-.93-2.81-3C9.87,9.52,9,10.77,16,10.77q195.87,0,391.75,0c1.67,0,4.29-1.29,4.65,2-.49,2.36.16,4.78-.36,7.14Z"/><path class="cls-10" d="M13.91,366.15h149c.88,0,1.77,0,2.65.07-.18,2.09-1.87,2.37-3.36,2.5-6.6.57-13.12,1.95-19.78,1.89a15.49,15.49,0,0,0-1.94.45,43.39,43.39,0,0,0-10.87,1.46c-5.89.54-11.78,1.15-17.69,1.4-5.32,1.28-10.83,1.18-16.19,2.16-7.91.36-15.74,1.62-23.62,2.29-1.35.12-2.65.32-3.64-.91-7.56.72-15.13,1.38-22.68,2.17-7.12.75-14.21,1.68-21.33,2.45-6.24.67-12.49,1.2-18.74,1.83-1.11.11-2.2.44-3.13-.46Z"/><path class="cls-8" d="M412,20c.06-2.39-.5-4.8.37-7.14C412.39,15.24,412.94,17.65,412,20Z"/><path class="cls-11" d="M68.44,377.47c9.08-1.08,18.12-2.46,27.28-2.67,5.85,2.05,5.06,7.42,1.15,10.1A28.46,28.46,0,0,1,88,388.57c-2.66.73-5.29,1.54-7.87,2.52-6,2.27-7.27,4.57-6.15,10.93.32,1.8,1.24,3.65-.25,5.37q-10.2,1.67-20.41,3.33c-1.18.2-2.35.47-3.53.7q7.62-14.13,15.24-28.25C66.13,381.23,67.32,379.37,68.44,377.47Z"/><path class="cls-12" d="M140.31,370.14c4.77-1.44,9.8-1.06,14.63-2,3.52-.71,7.3.07,10.59-1.88q27.39,0,54.77-.08,27.54,0,55.09,0c1.64,1.44.86,3.27.85,5-1.16,2.62.42,5.54-.89,8.14-3.18,1.84-6.21.52-9.26-.46l0,0c-.49-.59-1.27-.32-1.86-.63a14.89,14.89,0,0,1-7.32-3.64,10.19,10.19,0,0,0-7.33-2.44,42.55,42.55,0,0,1-10.26-.48c-.82-.17-1.9-.36-2.46.49s.5,1.3.85,1.93c1.33,2.41.71,3.73-2.14,4a36,36,0,0,1-8.62,0,54.27,54.27,0,0,0-11.59-.45c-3.42.2-6.47-1.37-9.78-1.45l-6.67-1.32c-4.28-1.4-8.53-2.85-13.17-2.64-6.06.28-12.12-.22-18.19,0a5,5,0,0,0-2.29.19c-7,3.81-14.3,1.59-21.51,1.07a9,9,0,0,1-1-.33C141.8,372.18,140.06,372,140.31,370.14Z"/><path class="cls-13" d="M143,372.14c2.69.91,5.48.61,8.24.66,3.1.06,6.2.1,9.29.22,1.16.05,2.77,1.27,2.28-1.47-.17-1,1.32-1.12,2.1-1.11,8.49.07,17,0,25.46.48a12.24,12.24,0,0,1,8.54,3.87c-10.45.25-20.87-.61-31.54-1.19.41,1.78,1.87,2.35,2.77,3.33,2.92,3.18,2.69,4.86-1.19,6.85s-8,2.17-12.14,2.94a33.21,33.21,0,0,0-8.54,2.44c-3.35,1.64-3.47,3.72-.57,6.27-2.78,2.06-6.2,1.47-9.28,2-6.41,1.08-12.77,2.7-19.33,2.64-1.69-1.81-.54-3.26.69-4.57a15.2,15.2,0,0,1,5.32-3.33c4.39-1.84,8.91-3.33,13.35-5a42.15,42.15,0,0,0,4.8-2.28c5.69-3.09,5.93-4.7,1.46-9.4C143.8,374.52,142.48,373.79,143,372.14Z"/><path class="cls-14" d="M205.54,376.11c1.08-1.11,2.28-.26,3.43-.22,8.7.31,17.4.62,26.11.88.79,0,2,.5,2.34-.57s-.84-1.39-1.45-2c-.39-.39-.82-.74-1.19-1.15s-1.29-1-.91-1.95,1.15-.4,1.74-.58a12,12,0,0,1,6.53.18,3.45,3.45,0,0,0,1.32,0c7-.92,13.25.63,18.49,5.61a13.23,13.23,0,0,0,2.86,1.61c-4.76.81-9.59.65-14.38.9a32.56,32.56,0,0,1-4.63-.08,5.75,5.75,0,0,0-5.67,2.61c-2.87,1.68-6.07,1.81-9.26,2-4,.37-7.94.51-11.79,1.59-1.69.48-2.57.35-3-1.72-.64-3.09-3.66-3.92-6-5.24A46.41,46.41,0,0,0,205.54,376.11Z"/><path class="cls-15" d="M184.2,390.14c.56-2.38,2.63-3.05,4.51-3.2a47.6,47.6,0,0,1,10.89.46c-4.94,2-10.21,2.16-15.4,2.74Z"/><path class="cls-16" d="M205.27,386.87l9.52-1.37C211.89,388.18,208.5,387.34,205.27,386.87Z"/><path class="cls-17" d="M327.44,381.62c-1.45-2.15-55.28-1.23-57.21-2.82-.7-2,51.37-6.13,51.87-8.11,5.13.14,10.3-.41,14.93,2.87a21.39,21.39,0,0,1,7.6,9.21C339,381.65,333.16,382.14,327.44,381.62Z"/><path class="cls-18" d="M266.09,378.82l9.32-.05c2.19,1.16,2.83,3.06,2.56,5.39-.25.81-.81,1.44-.73,2.47.5,6.62-2.2,9.21-8.88,8.65-.76-.06-1.51-.42-2.23.12h-2.08c-1.48-.72-3-1.42-4.44-2.17-1.09-.55-2.23-1.05-2.24-2.58s1.27-2.21,2.49-2.75A47.1,47.1,0,0,1,271.08,385c.61-.1,1.22-.29,2.14-.53C271.21,381.79,268.21,380.85,266.09,378.82Z"/><path class="cls-19" d="M240.13,381.43c-1-3.47.56-4.22,3.81-4,6.95.37,13.89,1.17,20.87.61l1.24.84c-7.58-.73-14.9,1.21-22.31,2.21C242.54,381.21,241.33,381.31,240.13,381.43Z"/><path class="cls-11" d="M143,372.14c1.57,1.83,3.74,3,5.07,5.16,2,3.32,1.93,4.64-1.2,6.88-4.45,3.18-9.64,4.74-14.68,6.63-3.71,1.39-7.55,2.46-10.82,4.84-1.52,1.1-2.61,2.38-2.28,4.41,0,.24,0,.47,0,.71-9.28.82-18.41,2.72-27.61,4.06-.69.1-.83.61-.89,1.19l-1.44-1.27c-3.2-.65-4.61-2.9-5-5.86-.32-2.67,1.45-5.19,4.47-6.3,5.15-1.9,10.62-2,16-2.48a48,48,0,0,0,8.18-1.28c4.85-1.29,5.79-3.69,3.32-8.09-.94-1.67-2.42-2.88-3.52-4.4-.75-1-1.85-2-.84-3.53a148.14,148.14,0,0,1,18-1.4c4.42.51,9-1.31,13.3.73Z"/><path class="cls-20" d="M111.7,372.81c.65,2.12,2.63,3.18,3.87,4.84,1.92,2.58,4.38,5.23,3.11,8.62s-4.74,4.05-8,4.46c-5.8.73-11.61,1.32-17.4,2a21.18,21.18,0,0,0-4.18,1c-4.35,1.5-5.26,5.06-2.23,8.5.73.83,1.45,1.67,2.17,2.5-2.67,2-6,1.21-8.92,1.85-1.89.41-3.9.59-5.85.9a3.21,3.21,0,0,1-.52-.11c-.25-2.85-1.48-5.51-1.4-8.47.15-5.07,1.24-6.95,6-8.68a63.56,63.56,0,0,1,9.14-2.93,34.71,34.71,0,0,0,4.74-1.49c7.28-2.56,8.12-5.24,3.46-11Z"/><path class="cls-21" d="M297.31,307c-2.11,0-4.22-.09-6.32-.09H89.68c-4.61,0-4.61,0-4.61-4.42v-208c0-4.7,0-4.7,4.68-4.71q15.8-.06,31.6-.13c1.23,0,2.25.09,2.39,1.6,0,2.53-1.86,4.49-2.12,6.94a4.39,4.39,0,0,1-2.42,1.94c-3.94,1.39-7.87,2.81-11.78,4.29a15.82,15.82,0,0,1-4.14,1.09,30.88,30.88,0,0,0-3.29.79c-2.49,1.31-5.47,1.08-8.25,2.46,3.07,1.12,6.57-.83,8.82,2.2.93,2.25.64,4.61.47,6.9-.66,8.6-.7,17.23-1.36,25.81-.87,11.34-1.48,22.69-2.34,34-.61,8.14-1,16.32-1.6,24.47-.85,11.56-1.34,23.15-2.72,34.66,0,2,1.32,2.79,3,2.67,5.76-.38,11.1,1.11,16.53,2.83,4.53,1.44,9.2-.17,13.64-1.29a29.62,29.62,0,0,1,13.11-.17c1.95.38,3.85,1,5.78,1.5,6.24,1.61,8.28.69,11-5.08a5.62,5.62,0,0,0,.89-3.75c-.38-12.67-1.74-25.27-2.22-37.93-.1-2.69-1.44-5.43.4-8a3.34,3.34,0,0,1,4.43,0c1.27,1.21,1.55,2.87,1.9,4.46,1.1,5,2.84,9.66,6.56,13.38a4.89,4.89,0,0,1,1.47,2.88c.17,4.24-1,8.33-1.54,12.48-.19,1.49-.15,2.66,1.52,3.15a7.62,7.62,0,0,0,7,.64c4.92-2.4,9.69-.94,14.54-.28,6.53.9,13.06,2.41,19.36-1.1,2-1.09,4.1-.42,6.13.12,2.85.19,5.64.89,8.56.46,2.46-.36,4.59-.73,4.76-3.84a2.17,2.17,0,0,1,1.11-1.59c1.95-1.09,4.09-.75,6.13-.68a85.83,85.83,0,0,0,23.15-2.29,19.48,19.48,0,0,0,3.5-1.18c2.2-.84,4.57-1.13,6.68-2.23a4.75,4.75,0,0,1,2.65-.63,3.92,3.92,0,0,1,4.44,2.27c.95,5.3-.2,10.55-.5,15.8-.32,5.63-.13,11.28-.92,16.87-.35,2.46,1.45,3.5,3.12,4.6,1.66.87,3.45.73,5.23.61,1.32.24,2.65-.13,4,0,1.88.12,3.65-.53,5.48-.73,1.44-.15,2.83-.27,3.94.92a4.12,4.12,0,0,1,.74,1.81c.79,4.71.79,4.71,5.42,4.73,2.09,0,4.18,0,6.27,0a4.2,4.2,0,0,1,3.56,1.37q0,9.64,0,19.29c-1.35,0-1.43-1.08-1.51-2a10.13,10.13,0,0,0-.81-3.4c-.58-2.74-.33-5.52-.3-8.28,0-2.58-1.09-3.54-3.61-3.52a78.6,78.6,0,0,1-10.29-.2,9.73,9.73,0,0,1-1.79,0c-5.54.45-11.09.23-16.63.24q-39.42,0-78.85,0c-1.33,0-2.66,0-4,.05-2,.06-3.06,1.06-3.1,3.09a47.52,47.52,0,0,0,.17,7.64,69.54,69.54,0,0,1,.23,15.26c-.28,3.77-.21,7.53-.17,11.29a6.4,6.4,0,0,0,1.53,4.3c1.61,1.06,3.44.74,5.18.74q35.53,0,71.08,0c4.63,0,9.26,1.15,13.88,0,1.08-.12,2.11.26,3.18.23a55.2,55.2,0,0,1,9.36,0c3.69-.32,7.38-.19,11.07-.15a4.29,4.29,0,0,1,3.32,1c.52,2.28-1.3,1.91-2.41,1.94-3.85.1-7.7.18-11.54-.05Z"/><path class="cls-22" d="M314.47,360.88c-44.25,0-125.55.63-169.81.62-18.63,0-37.27-.06-55.9.06-2.91,0-3.79-.76-3.75-3.73q.21-21.45,0-42.92c0-2.66.85-3.38,3.44-3.38q104.48.12,209,.1a2.57,2.57,0,0,1,1.25,2.2c0,7.88.59,15.77-.26,23.65a2.32,2.32,0,0,1-1,.81c-1.77.83-3.68.65-5.55.66H228.76c-6.79,0-8.34,2.59-5.25,8.78a8.34,8.34,0,0,1,.37,1.84,18.73,18.73,0,0,1,.39,4.29c.09,4.49.42,4.83,5,4.84,12.28,0,24.57,0,36.86,0,2.65,0,5.31,0,8,0,1.32,0,2.68-.06,3.77.93C278.49,360.5,315.75,360.55,314.47,360.88Z"/><path class="cls-23" d="M297.41,73.29q-54.37,0-108.76-.07-49.56,0-99.12,0c-4.46,0-4.46,0-4.46-4.58,0-13.3.07-26.61-.06-39.91,0-2.92.62-4,3.82-4q110.93.13,221.85.1c1.07,0,2.25-.34,3.15.6-1,1.34-2.45,1.33-3.9,1.36-2.77,0-5.53,0-8.29,0-1.92,0-2.82.9-2.85,2.83,0,3.88-.42,7.81,1.89,11.3-.93,1-2.17,1-3.39.93-11.26.55-22.54.11-33.8.24-2.32,0-4.65.09-7,0-2.74-.1-4.36,1.29-4.44,3.82-.21,7.36-1.26,14.78.85,22,1,2.65,3.37,2.54,5.58,2.55,11.15,0,22.3,0,33.45,0a26.52,26.52,0,0,1,5,.23c.76.1,1.52-.09,2.28,0a12.85,12.85,0,0,0,7.76.25,5.16,5.16,0,0,1,1.52,0c1.76,1.14,3.65-.29,5.44.27a2,2,0,0,1-.57,2,3.81,3.81,0,0,1-2.56,1.33q-5.42.24-10.84,0A3.64,3.64,0,0,1,297.41,73.29Z"/><path class="cls-24" d="M73.21,175.16a17.59,17.59,0,0,1,1,2.78c.24,1.31.75,2,2.18,1.85s1.42-1.21,1.42-2.22c0-4.43,0-8.85,0-14.21,1.37,6.43,2.79,11.81,2.68,17.63-.3,16.84-.16,33.68,0,50.53,0,2.68-.69,3.63-3.52,3.61-18.28-.11-36.57-.06-54.85,0-2,0-3.63.13-3.62-2.81q.14-64.81.12-129.64c1-1.17,2.37-1,3.69-1,14.28,0,28.55,0,42.83,0,3.63,0,4,.49,4,4,.2,7.29.19,14.59.09,21.88-.21,13.9-1.67,27.77-1.09,41.7.07,1.44,0,2.88.16,4.3a5.64,5.64,0,0,0,1.49,2.67c.72,1.3,1.42,2.89,2.4.14A1.64,1.64,0,0,1,73.21,175.16Z"/><path class="cls-23" d="M388.52,235.07c-22.06,0-44.12,0-66.19.07-3,0-3.74-.86-3.72-3.77q.18-30.93,0-61.86c0-2.92.79-3.76,3.73-3.75q39.26.17,78.5,0c2.44,0,4.29.19,3.59,3.35-3.05,1.49-6.3.58-9.46.73-4.43.21-5,.58-5,5-.06,7.4,0,14.8,0,22.21,0,1.52.19,3.11-.77,4.49-1.5,1.59-3.19,1.08-4.88.43-1.18-.31-1.84-1.68-3.23-1.58-1.83,0-3.63-.06-4.95-1.62-1.14-1.71.23-4.18-1.7-5.66a37.44,37.44,0,0,0-20.41,0c-1.93,1.67-.31,4.34-1.72,6.16-2.37,1.8-5.3.54-7.84,1.45-2.06.62-3.67,1.76-3.67,4.1,0,5.95-1.09,11.89-.1,17.85-.84,6.36-2.66,7,6.28,6.92q18.46-.09,36.91,0c1.75,0,3.59-.21,5,1.2C389.82,232.34,390,233.77,388.52,235.07Z"/><path class="cls-25" d="M319.33,361.53l-.76-1.28q.06-29.91.1-59.81c0-18.94.06-37.89-.06-56.83,0-3,.68-4,3.84-4,22.05.15,44.09.09,66.13.11,2.26,3.51,1.8,7.1.32,10.73-2.33,1.78-4.81,1.55-7.35.56-.25-.2-.64-.4-.64-.71,0-3.93-2.59-4.06-5.58-4-4.17.13-8.35.1-12.52,0-2.57-.06-4.83.13-5.74,3.12a2.56,2.56,0,0,1-2.21,1.76c-3.72.36-7.48-.34-11.2.61-6.83,1.77-10.45,7.59-8.85,14.42a2.31,2.31,0,0,0,2,1.9,17.56,17.56,0,0,0,7.22,0c12.95.15,25.89,0,38.83.07,1.75,0,3.54-.21,5.25.46a3.54,3.54,0,0,1,1.15.57,2.06,2.06,0,0,1,.32,2.4,2.27,2.27,0,0,1-1,.74,16.24,16.24,0,0,1-4.29.24H343.09c-1.11,0-2.22,0-3.33.05-4.58.37-5,.82-5,5.47,0,19.83-.1,39.66,0,59.49.06,7.47,1,10.94,10.2,13.55,2.18.62,2.09,1.91,1.59,3.56a1.77,1.77,0,0,0,.25,1.87.6.6,0,0,0,.88.05c.61-.5.5-1.18.34-1.83-.28-1.06-.81-2.11.09-3.14a3.91,3.91,0,0,1,2.76-.91c11.24-.07,22.48-.2,33.72.07a3.78,3.78,0,0,1,.95.24c1,.45,1.69,1.26,1.35,2.32-.85,2.68.41,4.63,2,6.52a1.46,1.46,0,0,1-.31,1.44L327,361.5Z"/><path class="cls-26" d="M85.09,87.4,85.17,78c1-.68,2.16-.36,3.24-.36q104.19,0,208.37,0a1.93,1.93,0,0,1,1.76,2c.1,2.6.79,5.12.88,7.71-.76.39-1.66,0-2.41.49a10.63,10.63,0,0,1-4.27.38c-19.85,0-39.7.09-59.54,0-9.62,0-19.24.18-28.85,0-14-.22-28.06.29-42.09,0-10.6-.25-21.19.43-31.78,0-14.06-.55-28.11-.14-42.17-.3C87.21,87.93,86.08,88.09,85.09,87.4Z"/><path class="cls-24" d="M396.55,161.09q-34.56,0-69.13.1c-8.75,0-8.75,0-8.75-8.92V100.42c0-4.58,0-4.59,4.46-4.59h76.79c4.71,0,4.71,0,4.51,4.76-3.06,1.49-6.32.57-9.49.72-4.5.21-4.91.5-5,5,0,2.66,0,5.32,0,8a5.16,5.16,0,0,1-1.29,4c-1.74,1.34-3.79,1-5.75,1-17,0-34,0-51,.06-1.73,0-3.94-.68-4.65,1.94a20.21,20.21,0,0,0-.34,6.11,18,18,0,0,0,0,4.15,4.51,4.51,0,0,1,0,.9c-.42,1.44.14,2.83.28,4.24a9.79,9.79,0,0,0,0,4.44,10.3,10.3,0,0,0,0,4.75,13.61,13.61,0,0,0,0,5.32c-.68,1.9.21,3.8,0,5.7.2,2,1.71,2.08,3.18,2.12,3.1.08,6.2,0,9.3,0q21.76,0,43.52,0a36,36,0,0,1,5,.2c2.72,0,5.47-.64,8.16.26A1,1,0,0,1,396.55,161.09Z"/><path class="cls-22" d="M404.34,90.58c-1.14,1-2.54.59-3.82.59-26,0-52.07,0-78.11.07-2.84,0-3.83-.65-3.81-3.68q.21-29.57,0-59.16c0-3,1-3.67,3.83-3.66,26.14.1,52.29.05,78.44.07,1.17,0,2.46-.39,3.47.61-1.28,1.69-3.16,1.35-4.89,1.37-10.41.15-9.37-1.25-9.52,9.75,0,2.46.78,5.15-1.3,7.28-1.45.79-3,.52-4.55.53q-23.18,0-46.35,0a23.44,23.44,0,0,0-7.18.9c-4,1.14-5.6,3-5.8,7.29-.18,3.84,0,7.69-.05,11.54,0,3.57,2.53,5.65,4.39,8.15a2.11,2.11,0,0,1,0,1,4.26,4.26,0,0,1-1.73,2c-2.89,2-3,5-2.5,8.07.49,2.77,2.71,3.86,5.28,4.31a24.24,24.24,0,0,0,6.57.75q23.52,0,47,0a28.68,28.68,0,0,1,4.63.16c2,1.08,4.13,1.08,6.42,1C398,89.28,401.43,88.08,404.34,90.58Z"/><path class="cls-27" d="M313.91,259.64c-4.29,0-8.6-.16-12.88.07-3,.16-4-.93-3.68-3.79a34.12,34.12,0,0,0,0-4.29c-1.25-1-1.37-2.45-1.37-3.92q-.08-25.56,0-51.13a6.14,6.14,0,0,1,.69-3.2c1-1.48,2.53-1.59,4.1-1.65a51.89,51.89,0,0,0,5.29-.24c4-.57,4.43-.82,3.81-4.74-1.62-10.32-1.16-20.69-1.25-31.06,0-3,.12-6-1.11-8.79-1.21-3.76-.78-7.28.22-11.18,1.76-6.92,3.13-14.1.78-21.27-1-3.32-.08-6.86-1.11-10.2a17.22,17.22,0,0,0-1.35-4.07A20.4,20.4,0,0,1,304.42,98c-.94-1.94-2.21-3.71-2.09-6.09.1-1.79.61-2.93,2.45-3.25,2.11,0,4.21.08,6.32,0s2.84.92,2.87,2.8c0,.44,0,.88,0,1.33q0,82.74,0,165.48C314,258.76,313.94,259.2,313.91,259.64Z"/><path class="cls-22" d="M80.25,90.59c-.9,1-2.07.61-3.14.61-18.3,0-36.6-.07-54.9,0-2.93,0-3.77-.81-3.75-3.75q.18-29.44,0-58.9c0-3.15,1-3.88,4-3.86,17.41.12,34.83,0,52.24.07,5.92,0,6-1.3,5.66,5.93C77.39,33.19,74,32,70.78,31.84c-4.12-.24-5,.26-4.76,4.41.14,2.56-.32,5.06-.26,7.6a3.74,3.74,0,0,1-1.55,3.48c-3.38.74-6.81.26-10.22.34-7.83.2-15.66-.29-23.48.29-5.76,1.78-7.11,6.91-2.91,11.12.46.46,1.06.81,1.3,1.47a2.35,2.35,0,0,1-.75,2.35c-4.09,4.63-4,6.4.29,11.13A2.12,2.12,0,0,1,29,75.22c-.13,1.71-1.72,2.44-2.56,3.68a5.9,5.9,0,0,0-.18,6.77,4.52,4.52,0,0,0,5.51,2.38,8.43,8.43,0,0,1,1.67.14c4.21,1.22,8.53.68,12.8.75,6,.1,12.09-.11,18.14.11a28,28,0,0,0,9.44.35C76,89.2,78.41,88.55,80.25,90.59Z"/><path class="cls-8" d="M21.85,336.9c-.75-2.13-.4-4.63-2.22-6.41-.27-.26-.45-1.08-.31-1.19,2.51-1.94.43-4.66,1.06-7,.49-1.82-1.69-4.26-1.2-6.74.21-1.74,1.57-1.63,2.75-1.63,18.38,0,36.76,0,55.14,0,2.32,0,3.08,1,3,3.22q-.15,8.81,0,17.6c0,2.3-.82,3.18-3.1,3.18-17.49,0-35,0-52.48,0A2.93,2.93,0,0,1,21.85,336.9Z"/><path class="cls-28" d="M79.74,360.15c-.9.45-2,1-2.84.52-3.21-2-6.69-1.12-10-1.14-14.4-.1-28.8,0-43.2,0-4.47,0-4.47,0-4.47-4.62,0-5.1,0-10.19,0-15.29.33-2.43,2.28-1.68,3.64-1.69,16.27-.05,32.54,0,48.81,0,2,0,4,0,6,0,1.37,0,2.46.52,2.43,2.09C79.92,346.7,80.48,353.43,79.74,360.15Z"/><path class="cls-29" d="M388.55,201.76q0-14.38,0-28.78c0-3.8.67-4.57,4.41-4.46s7.71-.71,11.46.62q0,32.93,0,65.85a3.22,3.22,0,0,1-2.19,1.32,93.72,93.72,0,0,1-11.49,0,4,4,0,0,1-2.27-1.23l0,0,0-4c-2.23-1.87-2.06-4.46-2.11-7,.77-5.91.45-11.86.69-17.78C387.2,204.65,387.09,203,388.55,201.76Z"/><path class="cls-8" d="M79.74,279a6.85,6.85,0,0,1-4.31,1.37c-8.17.23-16.37.32-24.51.29-8.7,0-17.45,0-26.17-.32A7.84,7.84,0,0,1,21,279.17c-2.09-1.2-2.64-2.78-.63-4.44S23,271.4,21.88,269,22.83,267,24,267c6.64,0,13.28,0,19.93,0,10.29,0,20.59.07,30.88-.05,2.68,0,3.94.7,3.64,3.54-.15,1.4-.29,2.94,1.29,3.83A7,7,0,0,1,79.74,279Z"/><path class="cls-30" d="M79.74,279V274.3c.25-7.92.25-7.91-7.73-7.91q-25.61,0-51.21,0c-.86,0-2.2.71-2.22-1s1.31-1.06,2.18-1.07c18.4,0,36.8-.06,55.2.08,3.08,0,4.05-.89,3.91-3.94-.23-4.87-.2-9.76,0-14.63.12-2.81-.9-3.57-3.61-3.56-17.74.1-35.48,0-53.21,0-.89,0-1.78,0-2.66,0s-1.64-.09-1.71-1.15c-.08-1.27.87-1.37,1.79-1.4,1.33,0,2.66,0,4,0q26.27,0,52.54,0c2.15,0,3.45.16,3.44,3q-.14,57.87-.08,115.73v1.66c0,.11,0,.25,0,.33-.43.58-.42-.05-.58-.23,0-6.07,0-12.15.1-18.23,0-2.05-.53-3-2.79-3-18.56.06-37.13,0-55.7,0a2.83,2.83,0,0,0-2.16.62c-1.79-3.54,1.27-2.28,2.66-2.68,18.27,0,36.55,0,54.82.08,2.2,0,3.24-.55,3.18-3-.14-5.43-.1-10.86,0-16.28,0-1.93-.56-2.82-2.64-2.81-18.61.05-37.21,0-55.82,0a3,3,0,0,0-2.19.59c-1.24-1.89-.49-2.6,1.52-2.6h8.63c15.51,0,31-.1,46.51.06,3.28,0,4.19-1,4-4.16a138.81,138.81,0,0,1,0-14.28c.16-3-1-3.7-3.82-3.69-18.16.12-36.32.06-54.48.05-1.78,0-4,.32-2.36-2.71l0,0c1.05.88,2.32.57,3.51.57,17.74,0,35.48-.05,53.22.08,3.1,0,4.21-.93,3.88-4A59.56,59.56,0,0,1,79.74,279Z"/><path class="cls-27" d="M404.34,90.58c-4.24,0-8.49,0-12.73,0-1.13,0-2.49.41-3-1.18a3.39,3.39,0,0,1,2.61-1.84c3.7-1,5.1-3.74,5.26-7.19.21-4.65.19-9.3,0-14a7.29,7.29,0,0,0-4.18-6.34c-2.06-1.12-2.38-2.54-.9-4.59,3.06-4.24,2.56-6.92-1.62-10.36a2.36,2.36,0,0,1-1.16-1.9c0-4.64,0-9.27,0-13.91-.05-2.72.92-4.08,3.88-3.95,4,.17,7.95.05,11.92.05.06,12.75.16,25.49.17,38.24C404.52,72.63,404.4,81.61,404.34,90.58Z"/><path class="cls-31" d="M389.22,271.6c0-.63,0-1.27,0-1.9,1.77-2.21,4.27-1.28,6.47-1.39,3.92-.19,4.08-.25,4.13-4.15.1-7.93-1-9.48-8.8-12a6.18,6.18,0,0,1-2.27-1.29l-.26-.45q0-5.33.08-10.65l0-.05a3.77,3.77,0,0,1,2.55-1.33c3.6-.16,7.21-.17,10.81,0a3.38,3.38,0,0,1,2.51,1.37q0,32.6.09,65.19c0,17.74,0,35.49.06,53.23,0,2.61-.73,3.52-3.38,3.38-4.2-.22-8.42-.12-12.63-.16l0-1.24c1.2-2.27,2.8-4.29,1.81-7.29-.49-1.5,1.24-2.47,2.66-2.91,5.18-1.57,6.87-5.16,6.84-10.36-.14-20.49-.05-41-.07-61.49,0-4.86-.15-4.94-5-5.08C392.82,273,390.66,273.6,389.22,271.6Z"/><path class="cls-32" d="M396.55,161.09l0-1.08c-.38-1.4-.79-2.79-1.13-4.2.09-1.57.64-3.1.39-4.7a14.1,14.1,0,0,0,0-5.14,13,13,0,0,0-.41-4.21,12.76,12.76,0,0,0-.05-5.15,14.32,14.32,0,0,0,.29-4.84,23.26,23.26,0,0,0,0-4.57,27.53,27.53,0,0,0,0-4.63c.5-2.33-.23-3.53-2.82-3.41-1.38.07-2.87.14-4.05-.9l-.22-.41c0-4.66,0-9.32,0-14-.05-2.84,1.25-4.14,4-3.94,3.95.28,8-.7,11.87.65q0,29,.11,57.95c0,2-.71,2.8-2.7,2.65C400.09,161.07,398.32,161.12,396.55,161.09Z"/><path class="cls-31" d="M80.25,90.59c-4.14,0-8.28,0-12.42,0-1.18,0-2.43.25-3.42-.69l-.18-.47a1.81,1.81,0,0,1,.57-.77C66.08,87.88,67.54,88,69,88a4.92,4.92,0,0,0,4.84-3.23,5.29,5.29,0,0,0-1-6.08c-.86-1-2-1.78-2.18-3.2,0-1.48,1.16-2.28,2-3.28,2.42-3,2.29-5.66-.38-8.44-.88-.92-2.19-1.58-2-3.17.48-1.06,1.61-1.49,2.28-2.36,1.4-1.82,2.37-3.7,1.4-6.11a5.88,5.88,0,0,0-5.36-3.77c-1.55-.15-3.45.52-4.09-1.75.07-4.17.09-8.34.21-12.51.1-3.14,1.45-4.51,4.44-3.89,3.74.77,7.48.36,11.21.56Q80.29,60.66,80.25,90.59Z"/><path class="cls-32" d="M298.06,337.45a6.38,6.38,0,0,1-.69-3.54q0-11.13,0-22.28l0-.06a3.76,3.76,0,0,1,2.56-1.32q5.42-.25,10.85,0a3.81,3.81,0,0,1,2.56,1.33c.87.91.64,2.06.64,3.14q0,20,0,40c-3.72-2.39-7.36-5-12-5.38a10.2,10.2,0,0,0-2.52-.23c-.78-.12-1.12-.52-.68-1.3,2-1.69,4.45-.92,6.71-1,3.39-.19,3.77-.52,3.77-3.92s-.4-3.7-3.75-4C303,338.68,300.15,339.94,298.06,337.45Z"/><path class="cls-33" d="M73.21,175.16c0,.77-.08,1.54-.07,2.31,0,1.34.2,2.57-1.91,2.52-1.91,0-2.19-1-2.1-2.47a6.61,6.61,0,0,0-.09-1c-1.2-3.33-.72-6.8-.5-10.16.41-6.33,0-12.63.24-18.28,0,5.13.19,10.93-.14,16.72-.15,2.54,0,5.07-.23,7.59-.07,1,.49,2.33-1.16,2.64-.48-9.6,0-19.2,0-28.8.12-13.6.38-27.19.59-40.78,2.49-.86,4,.06,4.14,3,.19,4.92.5,9.86-.17,14.78l2.25,29.33q.66,8.42,1.32,16.82c.06.74.28,1.63-1,1.67-2-2.63-1.11-5.75-1.46-8.66-.69-5.72-1-11.47-1.68-17.18,1,8,1.33,16.09,2.23,24.11a2.35,2.35,0,0,1-.45,1.86Z"/><path class="cls-27" d="M313.92,71.33c-1.55,1.73-3.32,1.76-5.23.66,3.14-6.24,1.57-12.95,1.91-19.47.1-1.88-.05-3.76.22-5.62-.44-4.73-.44-4.7-5.31-4.83-1.7,0-3.59.38-4.8-1.4-3.06-.46-3.64-2.4-3.38-5.15a50.4,50.4,0,0,0,0-7.27c-.1-2.17.82-2.91,2.93-2.87,4.51.1,9,0,13.55,0Z"/><path class="cls-34" d="M18.52,100.62c0-.89.07-1.78,0-2.65-.21-2.12.86-2.61,2.77-2.6q25.65.06,51.3,0c1,0,2,0,3,0,4.86.32,4.86.33,4.85,5.16-1,1.1-2.4,1-3.73,1-10.07,0-20.15.08-30.22,0-8-.07-15.91.11-23.86,0C21.17,101.57,19.68,101.78,18.52,100.62Z"/><path class="cls-8" d="M19.21,288.23c0-4.67.25-5,5.35-5.25,3.94-.19,7.88.16,11.84.08,12.86-.28,25.73-.13,38.6-.07,1.42,0,3.64-.83,3.69,1.9s-1.22,3.78-3.93,3.41c-1.92-.25-4,.43-5.66-1.19-.67-.66-1.3,0-2,.33a7.91,7.91,0,0,1-8.08-.15c-.7-.43-1.17-.91-2-.33a7.43,7.43,0,0,1-9.08,0,1.25,1.25,0,0,0-.91-.25c-8.85,3.61-18.08.64-27.07,1.6-.22,0-.44,0-.66,0Z"/><path class="cls-35" d="M85.09,87.4q14.14,0,28.28,0,16.55,0,33.08,0h41.74q16.55,0,33.08,0l76,0c.37.06.49.26.35.61l-.47-.1c-.9,1.33-2.3,1-3.56,1-3.46.18-6.95-.35-10.39.39a3.49,3.49,0,0,1-1.16.09,66.47,66.47,0,0,0-15.76-.16,5.54,5.54,0,0,1-1.14.26,10.08,10.08,0,0,1-1.82.07c-5.36-1.19-10.8-.57-16.21-.6-5.63,0-11.28-.49-16.88.58-3,.8-6.15.31-9.23.48-6.91.37-13.86-.72-20.78.75-2.14.45-4.46-.82-6.82-.8-9.93.09-19.87,0-29.81,0a11.18,11.18,0,0,0-5.48.93,2.81,2.81,0,0,1-1.19.06,11.14,11.14,0,0,0-5.46-1c-6.72,0-13.44,0-20.16,0a12.06,12.06,0,0,0-6.33,1.37l-.57-.11a2.57,2.57,0,0,0-.79-2.8c-12.6-.26-25.2-.36-37.79.06C85.07,88.45,85.24,87.82,85.09,87.4Z"/><path class="cls-36" d="M297.39,78H85.17c1.24-1.14,2.75-.64,4.14-.64q101.88,0,203.76,0c3.16,0,4.95-.57,4.34-4.12l15.94,0-.06,4a2.82,2.82,0,0,1-2.24,1.26c-3.86.25-7.74,0-11.61.37A2.79,2.79,0,0,1,297.39,78Z"/><path class="cls-26" d="M80.34,102.65v62.74l-.36,0c-.52-6.85-1-13.71-1.57-20.55-.59-7.49-1.54-15-1.71-22.46-.15-6.75.82-13.55-2.87-19.75A5.16,5.16,0,0,1,80.34,102.65Z"/><path class="cls-37" d="M297.39,78c5.27-1,10.59-.6,15.9-.66a15.78,15.78,0,0,1,.07,9.89,50.67,50.67,0,0,1-14,0c-2.11-.77-2.1-2.5-2-4.31C297.43,81.28,297.39,79.64,297.39,78Z"/><path class="cls-38" d="M18.52,100.62l61.89,0v1.34a16.35,16.35,0,0,1-6.61.12l-.74,0a3.25,3.25,0,0,1-3,1.07c-8.54-1.84-17.17-.44-25.75-.78s-17.2.38-25.79-.4Z"/><path class="cls-39" d="M18.52,101.91l54.54.11c0,6.47.33,12.94-.56,19.38a2.81,2.81,0,0,1-.65,1.81c-.26-4.61-.39-9.23-.83-13.83-.17-1.75-.13-4.21-3.14-3.91.79-2.19,0-3-2.28-2.9-4.75.11-9.5,0-14.25,0l-32.75.05C18.57,102.4,18.55,102.16,18.52,101.91Z"/><path class="cls-36" d="M313.35,311.57h-16c0-1.51-.05-3-.07-4.53l.13-.21c5.34-.3,10.67-.63,16,.16Z"/><path class="cls-40" d="M404.43,239.75l-15.87-.05c0-1.53-.05-3.07-.07-4.6l15.95-.11C404.44,236.57,404.44,238.16,404.43,239.75Z"/><path class="cls-27" d="M313.44,307l-16-.16c3.42-1.26,7-.26,10.45-.58,1.38-.13,2.89.42,4.1-.72-1.25-1-1.37-2.43-1.38-3.89-.05-8-.08-16.05,0-24.07,0-1.56-.26-3.44,2-4,1.48,1.52,0,3.75,1.29,5.32q0,12.76.08,25.53A3.76,3.76,0,0,1,313.44,307Z"/><path class="cls-41" d="M49.47,246.26c-2.88,0-5.76,0-8.63,0-.67,0-1.46-.11-1.47-1s.82-.92,1.47-.92q8.63,0,17.26,0c.66,0,1.48.09,1.48.94s-.82.94-1.48.94C55.22,246.28,52.34,246.26,49.47,246.26Z"/><path class="cls-42" d="M49.79,293.09c2.76,0,5.52,0,8.29,0,.67,0,1.48.13,1.5,1s-.83.9-1.47.9q-8.62,0-17.24,0c-.64,0-1.49,0-1.5-.88s.8-1,1.47-1C43.82,293.08,46.8,293.09,49.79,293.09Z"/><path class="cls-43" d="M73.11,171.16,70.9,143.51l.64,0Q73,157.25,74.47,171Z"/><path class="cls-44" d="M85.79,88.52A3.33,3.33,0,0,1,88,88q16.69,0,33.38,0a10.93,10.93,0,0,1,2.22.45Z"/><path class="cls-23" d="M297.43,88.64l5.19,0a1.08,1.08,0,0,1,.11,1.53c-2.33,1.91-5.29,1.46-7.85,1.48-3.36,0-6.72-.54-10.08.18a1.65,1.65,0,0,1-1.72-.73c-.6-2.08.65-2.48,2.29-2.49,3.81,0,7.63,0,11.45,0Z"/><path class="cls-45" d="M302.7,90c0-.43-.05-.86-.07-1.29h2.15c-2.28,1.84-1.71,4-.79,6.28.42,1,1,2,1.44,3-2.39,2.54-3.22.31-4.23-1.39C300.92,94.16,300.92,91.85,302.7,90Z"/><path class="cls-45" d="M299.39,87.23h14c-2.59,1.52-5.42.5-8.12.7-2.54.18-5.1.06-7.65.07l-.35-.61Z"/><path class="cls-46" d="M282.76,88.44c4.76-1.06,9.58-.09,14.36-.54.1.25.2.49.31.74h-.12C292.46,89,287.6,89.41,282.76,88.44Z"/><path class="cls-47" d="M120.92,97.88a9.13,9.13,0,0,1,2.82-6.56q.32,0,.63-.06l-.05,0c.79,2.62-.12,4.9-1.46,7.09A1.59,1.59,0,0,1,120.92,97.88Z"/><path class="cls-39" d="M73.8,102l6.61-.12c0,.24,0,.48-.07.73H73.83A3.08,3.08,0,0,1,73.8,102Z"/><path class="cls-13" d="M143,372.14c-4.43-.38-8.93.77-13.3-.73a38.57,38.57,0,0,1,10.64-1.27Z"/><path class="cls-48" d="M298.74,348.2c1.09.39,9.78-.38,10.87,0-2,.08-11.58.76-13.55,1.34a5.84,5.84,0,0,1-3.06.95c-3.33-.84-6.56.48-9.86.47-18.22-.05-36.45,0-54.68-.05-1.94,0-4,.4-5.58-1.35l0-1.29c.77-1.37,2.12-1.48,3.47-1.49q34.24-.14,68.49,0a7.1,7.1,0,0,1,2.28.4A2.61,2.61,0,0,1,298.74,348.2Z"/><path class="cls-49" d="M91.81,237.64q1.39-20.53,2.81-41.08c.74-10.71,1.61-21.42,2.24-32.13,1-16.8,1.83-33.61,2.72-50.42.06-1.1,0-2.22,0-3.32-1.6-1.82-1.08-3.6.1-5.36,1-1,2.18-.72,3.35-.67,1.4.89,1.12,2.41,1.41,3.72a15.23,15.23,0,0,1,.28,3.16c0,8.36,0,8.36,8.32,8.36q13.41,0,26.81,0c3.89,0,4.64-.62,5.05-4.44a32.24,32.24,0,0,0,.42-4.61,7.77,7.77,0,0,1,.55-3.5c1.17-3.26,1.95-3.53,4.92-1.74a7.24,7.24,0,0,1,.72,4.75,26,26,0,0,1,.05,2.93c.93,2.66.84,5.42.88,8.17.38,4.69,0,9.4.66,14.09.51,3.35.48,6.78.79,10.17a49.48,49.48,0,0,0,1.06,7.49c.34,10.2,1.07,20.38,2,30.54a4.48,4.48,0,0,1-1.18,4q1.08,17.55,2.17,35.1c.25,4,.53,7.95.9,11.91.15,1.68-.73,2.7-1.81,3.7-1.55,1-2.52,2.65-4.15,3.58-2.5,1.43-4.43,1.22-6.65-.85-2.44-6.57-3-13.55-4.49-20.34q-3-14.27-5.6-28.63a115.14,115.14,0,0,1-1.77-11.74c1.4,5.76,1.14,13,1.87,20.16a13.4,13.4,0,0,1,.13,1.66c-.12,10,.94,19.89.89,29.85a6.48,6.48,0,0,1-1.57,4.6c-3.74,2.67-8,4.14-12.35,5.45-1.5.46-3.5,1-4.93-.71a12.9,12.9,0,0,1-.78-5.54c.06-21.81-.16-43.62.13-65.43.06-4.91.5-9.82.91-14.72.06-.44-.71.15-.3,0,.17-.07.24,0,.23.24-.66,14.33-2.38,28.57-3.91,42.83-1.13,10.54-2.78,21-3.54,31.6-.29,4.05-2.93,5.05-6.08,5.79-2.92.4-5.73,1.3-8.6,1.94C94.87,238.49,93.21,239.09,91.81,237.64Z"/><path class="cls-50" d="M288.05,305.59h-2.63c-6.16-1.1-12.46-1.45-18.39-3.82-3.38-1.35-6.43-2.92-8.55-6-.57-.82-1.43-1.4-2-2.19-3.27-4.34-7.46-5.38-12.63-4.06-5.68,1.45-11.46,1-17.12-.2-7.27-1.56-14.52-1.22-21.76-.07-2.4.38-4.83.49-7.24.81-2.76.37-3.54,1.68-3.44,4.18s0,4.87,0,7.31c0,1.47-.11,2.89-1.35,3.93-1.13-1-.63-2.28-.63-3.43,0-8.09.26-16.19,0-24.28-.15-4.92-1.21-9.79-1-14.78.1-2.15.8-2.88,2.94-2.87q50.4.07,100.8,0a6.74,6.74,0,0,1,1,.14c.89,2.84-1.53,4.38-2.57,6.46-.83,1.67-3.21,3.09-2.69,4.71s3.14.49,4.77,1c1,.28,1.95.47,2.34,1.6a2.1,2.1,0,0,1-.59,2c-1.22,1-2.69,1-4.11.91-2.68-.08-3.75,1.17-3.74,3.81q0,10.1,0,20.19C289.46,302.7,289.52,304.38,288.05,305.59Z"/><path class="cls-51" d="M168.88,208.18c-6-5.22-8.31-12.24-9.5-19.77-3.14-3.31-2.64-7.67-3-11.6a327.59,327.59,0,0,1-1.29-35.71c.17-6.3-.76-12.87,1.9-19a53.26,53.26,0,0,1,4-8.35,24.12,24.12,0,0,1,1.6-3.22,20.27,20.27,0,0,0,.77-2.23c.23-1.1,1.25-1.83,1.4-3a13.11,13.11,0,0,1,2.49-4.33c3.52-1.12,5.38-.53,7.71,2.44.64,2.49,0,5-.22,7.43a9.89,9.89,0,0,1,.09,3.3c-1.28,3.85-.07,7.85-.69,11.73a93.88,93.88,0,0,0-2.29,10c-1.18,7.29.86,13.75,4.26,20.06,7.24,13.44,17,24.82,28,35.23a7.28,7.28,0,0,0,1.37.95c3.91,3.56,4.21,5.07,1.71,9.74-2.66,5-5.45,9.84-8.18,14.75a11,11,0,0,0-1.16,2.71,3.19,3.19,0,0,1-.23.61c-3,5.69-3,5.71-8.94,3.9a62.49,62.49,0,0,0-7-4.64c-2.28-1.43-4.34-3.16-6.49-4.76-1-.48-1.48-1.52-2.5-1.91C171.25,211.31,169.22,210.48,168.88,208.18Z"/><path class="cls-52" d="M261.59,216.17c-10,3.48-20.45,2.91-30.81,2.94-2.1-.31-2-2.17-2.28-3.56-2.38-11.57-4.68-23.16-7-34.75-1.72-8.67-3.56-17.31-5.09-26-.39-2.2-1.47-4.53.28-6.69,2.4-1.63,5-.87,7.54-.62a16.79,16.79,0,0,0,9.06,0c5.07-.33,10.16-1.13,15.18.42,4.56,3.17,7.23,7.92,10.24,12.38.79,1.17,1.43,2.47,2.13,3.73,1.31,4.61-.08,9.2-.35,13.76-.4,6.58-1.13,13.15-1.59,19.73-.3,4.17-.82,8.33-.89,12.53,0,2.48.14,4.34,2.85,5.08C261.32,215.24,261.5,215.73,261.59,216.17Z"/><path class="cls-53" d="M216.87,148.53c1.79,9.56,3.55,19.13,5.4,28.68q3.91,20.19,7.94,40.36a11,11,0,0,0,.57,1.54c.37,5.58.19,5.74-5.89,6.2-2.76.2-5.48.33-8.06-.91a7.07,7.07,0,0,1-.7-.93c-2.34-8.68-2.93-17.64-4.26-26.48-1-6.44-1.77-12.89-2.69-19.33s-1.67-12.68-2.49-18.11c.34,3.35,1,7.59,1.63,11.82.93,6.43,1.9,12.88,2.73,19.32,1.11,8.53,2.43,17,3.37,25.6.16,1.51.2,2.88-1.15,3.89a3.18,3.18,0,0,1-2.57.19,22.53,22.53,0,0,0-12.36-.78,2.18,2.18,0,0,1-1.57-.38c2.54-6.57,6.53-12.4,9.67-18.66,1.85-3.71,1.74-4.65-1.53-7.37-2.64-3.46-5.78-6.5-8.53-9.87-1-1.22-1.89-2.4-1.48-4.1-.1-6.07,0-12.14-.09-18.2a108.55,108.55,0,0,1,.63-12.74c0,5.94-1.78,12.8-2.72,19.77-.23,1.71-.6,3.54-2.33,4.57-1.77.51-2.65-.76-3.49-1.89a154.71,154.71,0,0,1-9.41-14,6.23,6.23,0,0,1-1-5c.07-3.87,0-7.76,2.21-11.22a5.57,5.57,0,0,1,3.65-1.31c10-.09,20.06-.12,30.08,0a4.69,4.69,0,0,1,1.92.44,3.53,3.53,0,0,1,1.55,1C217.1,143.16,218.19,145.7,216.87,148.53Z"/><path class="cls-54" d="M297.43,193.11l-.09,58.52c-2,.36-4,.67-6,1.08-1.18.25-2.32.55-3.35-.38-2-2-1.86-4.71-1.88-7.15-.08-14.49-.67-29-.79-43.45,0-4.86-.29-9.73-.24-14.59,0-.79-.48-1.79,0-2.06,0,3.66-.28,7.7.06,11.67.58,6.85.29,13.71.48,20.55.29,10.28.61,20.57.51,30.85,0,1.54.16,3.16-1.41,4.19-1.79.77-3.57,1.17-5.34,0a9.88,9.88,0,0,1-1.4-5.37c0-15.95-.12-31.9.52-47.83.18-4.59-.08-9.2.33-12.62.11,5.15-.42,11.44-.42,17.74,0,1.29.33,2.72-1.1,3.6-2.6-.71-2.54-2.88-2.72-4.92,2-5.1.88-10.41,1.12-15.63.18-3.93-.47-7.83-.21-11.76a63.83,63.83,0,0,0,1.41-15.07c-.13-9,.24-18.09.94-27.12.49-6.27-.18-12.6.8-18.87.24-1.52,0-3.12,1.37-4.27,3.21-1.69,6.05-.55,8.58,1.42a20.52,20.52,0,0,1,6.48,8.68,50.54,50.54,0,0,1,3.53,24.64,19.2,19.2,0,0,0,.22,6.24c-.05,1.77,0,3.54-.2,5.3a25.57,25.57,0,0,0-.93,7.84c.2,7.94-1.43,15.75-1.88,23.64-.09,1.58-.41,3.08,1,4.25A2,2,0,0,1,297.43,193.11Z"/><path class="cls-55" d="M156.92,284.26c5.2,0,10.41.1,15.62,0,2.32-.05,3.39.82,3,3.09-.86,5.28-.64,10.6-.63,15.9,0,2-1.11,2.37-2.77,2.36-4.76,0-9.53,0-14.3,0-20.61,0-41.22-.07-61.83.07-3.25,0-4.65-.69-4.37-4.21a69.7,69.7,0,0,0-.52-12.57c-.43-4.25.11-4.57,4.29-4.59l5,0a6,6,0,0,1,1-.79c1.54-.83,3.22-.6,4.85-.6,6.27,0,12.54-.13,18.81.15,9.41-.36,18.82-.12,28.23-.13A4.3,4.3,0,0,1,156.92,284.26Z"/><path class="cls-56" d="M192.91,305.52c0-4.54,0-9.08,0-13.62,0-1.65.39-2.74,2.31-2.95,5.48-.6,10.94-1.44,16.43-1.94a60.85,60.85,0,0,1,17.8,1.33A38.34,38.34,0,0,0,244.9,288c4-.82,8.16-1.05,10.82,2.88,5.56,8.22,14,10.94,23.07,12.8,2.25.46,4.59.74,6.63,2Z"/><path class="cls-57" d="M276.79,175.73c.69,7.33-.35,14.66-.06,22a7.88,7.88,0,0,1-1.28,5.33,2.82,2.82,0,0,1-1.33-2.53c-.2-8.51-.76-17-1-25.5,0-.32,0-.68.29-.85.1-.48.4.17,0-.06-.13-.07-.23,0-.22.25,0,6.62.4,13.23.74,19.84.25,5,.16,10,.19,14.94a3.87,3.87,0,0,1-1.44,3.21l-1.86.64a2.21,2.21,0,0,1-1.5-1.07,4.57,4.57,0,0,1-.61-2.55c-.12-9.74-.94-19.45-1-29.19,0-9-.35-18.08-.61-25.87.42,16.7,1,34.64,1.05,52.6,0,1.86.3,3.8-.86,5.49a3.2,3.2,0,0,1-4.08.78c-1.08-1-.94-2.31-.87-3.69.63-11.68,1.2-23.38,1.86-35.06.31-5.4.24-10.82.92-16.2-1.1,17.54-1.6,35.11-3,52.63-.1,1.31-.28,2.71,1.24,3.48a1.84,1.84,0,0,1,.62,1l-2.42.88c-1.48-1.46-4.47.59-5.19-1.84-.49-1.68.19-3.7.33-5.57q1.61-20.49,3.19-41c.1-1.32.36-2.65-.25-3.92-1.37-6.39,0-12.75.53-19.07.65-8,.89-16.06,2.08-24a23.76,23.76,0,0,1,.14-2.39c.63-5.13-.14-10.31.56-15.44a10,10,0,0,1,1.14-3.44c1.38-1.69,3.06-.66,4.64-.52,3.75,1.23,4.58,4.47,4.58,7.69,0,6.32.65,12.59.88,18.88.36,9.49,1.6,18.92,2.25,28.39A146.77,146.77,0,0,1,276.79,175.73Z"/><path class="cls-58" d="M156.92,284.26l-32-.05a13.06,13.06,0,0,0-5.56-2.79,7.09,7.09,0,0,1-5.8-4.87c-.74-2.3-2.28-3.08-4.54-2.88-.32,0-.66,0-1,0-5.58,0-5.57,0-5.65,5.61,0,1.75.25,3.59-1.31,4.93l-.68.05c0-2.44-.12-4.88,0-7.31a10.53,10.53,0,0,0-1.31-6c1.26-1.42,3-1.14,4.62-1.33,2.66-.31,6.74,1.4,7.66-.95,1-2.64-3.08-4.29-4.77-6.51-1-1.35-2.82-2.3-2.25-4.45,17,0,34.08,0,51.12-.1,2.85,0,3.67,1,3.5,3.68-.2,3.09,1,6.77-.37,9.16C156.08,275.06,157.48,279.69,156.92,284.26Z"/><path class="cls-59" d="M297.25,275.75l.08-2.16a14.14,14.14,0,0,1,.11-13.3c4.09,0,8.18.1,12.26,0,2.35-.08,3.13.81,3,3.09-.15,3.42-.08,6.85-.1,10.27-1,1-.6,2.29-.6,3.46q0,14.22,0,28.46l-14.61.05c-1.24-1-1.4-2.43-1.41-3.91q-.08-11.15,0-22.29A4.38,4.38,0,0,1,297.25,275.75Z"/><path class="cls-60" d="M162.36,113.28a1.93,1.93,0,0,1-.14.65c-6.8,10.79-5.89,22.9-5.65,34.78.21,10.51.23,21,1.7,31.49.38,2.74.74,5.47,1.11,8.21-1.11-.83-2.4-.64-3.65-.71q-1.12-17.26-2.27-34.53c-.33-6.91-.54-13.82-.76-20.73-.13-3.77-.31-7.45-1.58-11l-.42-8.17C153.4,111.32,159.69,111.33,162.36,113.28Z"/><path class="cls-56" d="M297.25,275.75q.06,14.91.13,29.83h-9.33c0-8.7.13-17.41-.08-26.11-.07-3.16,1-4.13,4-3.82C293.71,275.84,295.49,275.73,297.25,275.75Z"/><path class="cls-61" d="M146.92,241.08c2.59,1.53,4.79.22,7-1,1-.56,1.71-1.73,3.07-1.7-.75,1.92-2.31,3.2-3.7,4.61A5.64,5.64,0,0,1,147,244.5c-5.58-1.75-11.2-3.58-17.18-2.75a115.85,115.85,0,0,0-11.72,2.07,11.69,11.69,0,0,1-8.37-.75c-4.45-2.27-9.14-2.32-13.91-1.93-2.61.21-4-.79-4-3.5L104.36,235c6.75-1.86,11.34,1,14.7,6.66,2.88.57,5.33-.54,7.83-1.8s5.06-3.1,8.08-3.52a4.53,4.53,0,0,1,5.22-.2C142.6,237.52,145.33,238.54,146.92,241.08Z"/><path class="cls-62" d="M167.53,102c-.67,1.35-.76,3-2,4.05a4.46,4.46,0,0,1-4.57,1c-3-1-6-.7-9.06-.79a14.06,14.06,0,0,1-1.7-.2c-2.21-1.35-3.32-.68-3.39,1.86-1.58.81-3.23.14-4.84.22a3.6,3.6,0,0,1-.88-.28c-3.73-.45-7.56-.38-11-2.28-.67-.37-1.2.33-1.81.49a8.21,8.21,0,0,1-2.37.14c-2.23-.33-4.44-1.19-6.72-.25a3.77,3.77,0,0,1-1.38.07,2.67,2.67,0,0,0-3.53.59,3,3,0,0,1-.94.25c-1.86-.4-4.82.19-5.06-2-.27-2.51,3-2,4.61-2.57a19.55,19.55,0,0,0,6.12-3l1.9-1.36,2.28,0c1.51-1.26,3-.4,4.31.25a48.27,48.27,0,0,0,9.29,3.45c1.86.65,3.74,2.57,5.57-.07A107.58,107.58,0,0,1,153.32,97a19,19,0,0,0,2.47-.52C160.05,97.55,164.27,98.73,167.53,102Z"/><path class="cls-63" d="M216.76,223.82a1.27,1.27,0,0,1,.07.58c-3.05-1.12-5.79-.21-8.51,1.21-4.56,2.38-9.3,1.1-14,.46-2.74-.38-5.42-1.07-8.15-1.48-2.18-.33-4.46-.66-6.5.47-3.63,2-7.21,1.41-10.84.12a2.86,2.86,0,0,1,2.15-1.92c2.16-.28,3-2.59,5-3.17a9.57,9.57,0,0,1,4.87-.11c2.9.44,5.46,1.81,8.1,3a2,2,0,0,1,.62.2c3,2.34,4.77,1.14,6-2a11.27,11.27,0,0,1,1.22-1.92c5.46-2.92,10.75-1.92,16,.69C215.24,220,215.63,222.3,216.76,223.82Z"/><path class="cls-64" d="M276.76,207.8c1.28-4.62.75-9.41,1.18-14.1.39-4.26.63-8.54,1.43-12.81v71.42a1,1,0,0,0-.29-.16c-5.6-1.12-4.8-5.47-4.18-9.16,1-5.58.34-11.2,1-16.8a70.42,70.42,0,0,0,.83-12.5C276.06,211.72,274.44,209.75,276.76,207.8Z"/><path class="cls-65" d="M104.36,257.7c2.2,2.29,4.43,4.56,6.6,6.89a12.77,12.77,0,0,1,2.22,2.83c1.16,2.36.45,3.49-2.21,3.53-4,.06-7.92,0-11.88,0,0-2.65-.07-5.3,0-7.94C99.12,257.55,98.08,257.54,104.36,257.7Z"/><path class="cls-66" d="M284.71,252.34V184.07c1,.77.63,1.63.65,2.36.27,8.84.38,17.69.77,26.52.53,12.14,1.26,24.26,1.89,36.39.05,1,0,2,0,3C286.91,252.9,285.81,253.41,284.71,252.34Z"/><path class="cls-67" d="M276.76,207.8l0,5.89c-1.05-1.36-2.56-1.29-4-1.33q0-19.37,0-38.74c1.19,9.8,2.81,19.55,2.77,29.44C275.73,204.68,277.12,206,276.76,207.8Z"/><path class="cls-68" d="M171.54,224.3l-2.68.88c-1.39-.12-3,.13-2.56-2.21.91-4.92,1.72-9.86,2.57-14.79l4.69,3.68A13.64,13.64,0,0,1,171.54,224.3Z"/><path class="cls-69" d="M297.44,260.29q-.06,6.65-.11,13.3c-2,0-4,.09-6,0-1,0-2.42.53-3-.74s.66-2,1.26-2.88a104.92,104.92,0,0,0,6.42-9.65Z"/><path class="cls-70" d="M119,99.24c-1.38,4.44-5.9,3-8.77,4.65-.42.24-1.13,0-1.38,1l5,1.07c-.09,1.08-.85,1.38-1.75,1.56a57.15,57.15,0,0,1-7.58,1.29,8.51,8.51,0,0,1-1-.17c-.77-1.26-.36-2.68-.53-4Z"/><path class="cls-71" d="M99.65,105.33c0,1.78-.06,3.57-.1,5.36-2.76,0-5.53-.06-8.29-.13-1,0-2.14.14-2.18-1.36,0-1.23.74-1.7,1.85-1.93C93.84,106.66,96.75,106,99.65,105.33Z"/><path class="cls-52" d="M263.51,213.12c1-.71,2.2-.39,3.27-.69a2.23,2.23,0,0,1,3.32,0l.72.57L264,215.3a1.82,1.82,0,0,0-.61-.2A1.36,1.36,0,0,1,263.51,213.12Z"/><path class="cls-72" d="M297.31,348.12l-69.83.06c-1.55,0-3.1.07-4.65.1a1.8,1.8,0,0,1-1.93-1.75c-1.24-8.06-.46-9,7.63-9l68.79.07A9.72,9.72,0,0,1,297.31,348.12Z"/><path class="cls-73" d="M293.27,349.62c-.85.38,17.49-.44,16.65-.05.84-.39,3.24,6.61-.31,10.69-17.08,0-65.74-.15-82.81,0-3.2,0-4.41-.79-4-4a58.75,58.75,0,0,0,.1-6.64Z"/><path class="cls-74" d="M109,345.11c5.78-3,9.6-7.86,12.05-13.66,1.38-3.27,3.71-2.62,6-2.45,2.61.19,1.62,2.39,1.85,3.88a5,5,0,0,1,0,.67c0,7,0,7.12-7,7.34a4.15,4.15,0,0,0-3.46,2.11c-2.34,3.09-4.62,6.23-7.1,9.22-5.68,6.87-13.37,6.5-21.1,5.45-2.14-.29-2.74-4.93-.65-6.35,4.57-3.13,9.08-6.28,12.92-10.3,0-.06.37.14.56.22C104.5,343.36,105.44,346.24,109,345.11Z"/><path class="cls-75" d="M144.37,340.14c1-5-.16-9.92-.08-14.88.07-3.92,1.73-5.34,6-5,3.4.29,5,2.16,4.34,5.61a36.11,36.11,0,0,0-.29,14.16,24.56,24.56,0,0,1,0,3.93,5.2,5.2,0,0,1-4.84,5.33c-2.73.19-4.41-1.41-5-4.55A34,34,0,0,1,144.37,340.14Z"/><path class="cls-75" d="M160.72,339.07a30.47,30.47,0,0,0-.27-12.47c-.38-2-.54-4.15,1.43-5.41a6.94,6.94,0,0,1,7-.25c2.18,1.05,2,3.22,1.86,5.23-.23,4.29-.89,8.57-.18,12.88.1,1.65.09,3.3,0,4.94-.11,3.07-2.05,5.2-4.73,5.3a5.2,5.2,0,0,1-5.18-5A23.73,23.73,0,0,1,160.72,339.07Z"/><path class="cls-76" d="M194.27,348.33q4.62-5.65,9.27-11.3c.49-.59,1.13-1.06,1.66-1.62,1.72-1.81,4.18-3.14,6.22-2.25s.46,3.54.5,5.41a12.19,12.19,0,0,1-.39,2.29,1.51,1.51,0,0,1-2,.12c-4.42-.9-7,1.56-9.13,4.93-2.27,3.58-2.45,7.89-4.16,11.65-1.87,1.07-3.9.53-5.86.57-4,.09-8,0-12,0-1.19,0-2.47.23-3.47-.74.58-1,1.62-1.05,2.57-1.29,5.23-1.27,10.32-2.86,14.43-6.58A7.78,7.78,0,0,1,194.27,348.33Z"/><path class="cls-77" d="M297.31,348.12c0-3.51,0-7,0-10.55l.74-.12c3.31,0,6.61.12,9.91.05,2,0,2.77.69,2.73,2.7-.19,9.76,1.24,7.75-7.66,8-1.44,0-2.87,0-4.3,0Z"/><path class="cls-78" d="M160.72,339.07a50,50,0,0,0,1.06,5.18c.61,2,1.27,4.05,4.11,3.94,2.64-.1,3.22-2,3.7-3.95.42-1.7.64-3.46.95-5.19l1.14,7.09a29.43,29.43,0,0,1-1.63,6.64,4.62,4.62,0,0,1-4.18,3.16,4.2,4.2,0,0,1-4.46-2.69c-1.21-2.9-2.88-5.72-1.85-9.08C160,342.47,160.33,340.77,160.72,339.07Z"/><path class="cls-79" d="M144.37,340.14c.38,1.49.75,3,1.15,4.46.51,1.9,1.15,3.57,3.63,3.59s3.3-1.4,3.85-3.37c.44-1.59.89-3.18,1.33-4.77a17.5,17.5,0,0,1,1.31,6.1,20.64,20.64,0,0,1-1.5,6c-.88,2.16-2.37,3.74-4.93,3.68s-3.69-1.54-4.45-3.72c-.92-2.6-1.94-5.15-1.26-8C143.71,342.79,143.64,341.38,144.37,340.14Z"/><path class="cls-80" d="M159.56,344.17c-.32,3,1,5.61,2.29,8.14,1.69,3.34,5.09,3.31,7.3.24,1.42-2,1.46-4.36,2.53-6.41a18.16,18.16,0,0,1-2.63,11c-1.38,2.41-5.4,2.89-6.63.48C160.31,353.5,157.83,349.22,159.56,344.17Z"/><path class="cls-81" d="M194.27,348.33c-3.89,6.24-10.07,7.56-16.75,7.79,1.48-.74,2.94-1.5,4.42-2.22,4-2,7.36-4.53,7.88-9.57C192.12,345,192.36,347.62,194.27,348.33Z"/><path class="cls-82" d="M143.5,344.14a15.61,15.61,0,0,0,2.08,7.92c2,3.5,4.82,3.64,7.33.46,1.48-1.89,1.66-4.31,2.73-6.36a16.58,16.58,0,0,1-3,11.16c-1.52,2.22-5.27,2.35-6.52.07C143.86,353.32,142.18,349,143.5,344.14Z"/><path class="cls-83" d="M175,357.41l21.29.15c-.44,1.46-1.67,1.24-2.74,1.24q-8,0-16,0C176.44,358.81,175.22,359,175,357.41Z"/><path class="cls-84" d="M209.53,341l2-.12q-.54,6.83-1.07,13.63l-.93,0Z"/><path class="cls-85" d="M109,345.11c-3.34,1.49-4.51.72-5.92-3.87C105,342.66,106.19,345.08,109,345.11Z"/><path class="cls-86" d="M297.32,71.94q-20.4,0-40.8.06c-2.45,0-4.3-.86-5.18-3.29-.49-6.85-.08-13.72-.22-20.58a2.46,2.46,0,0,1,2.68-2.72c7.65-.24,15.3-.3,22.94,0a3.57,3.57,0,0,1,3.67,3.87c-.18-2,.7-3.62,2.72-3.76,4.62-.32,9.27-.83,13.86.36a3.88,3.88,0,0,1,1.92,3.62c.08,5.85,0,11.71,0,17.56C299,68.79,298.93,70.68,297.32,71.94Z"/><path class="cls-87" d="M139.66,44.78c12.43-.53,20.09,7.16,19.3,19.36-2.47,1.88-5.29,1.22-8,1-1.56-.15-1.7-1.43-1.14-2.81-2.35,2.22-2.35,2.22-6.32-1.21-1.2.9.46,2.66-1.06,3.5a9.06,9.06,0,0,1-4.53.71c-3,0-6,.07-9,0a4.84,4.84,0,0,1-3.68-1.21c-1.39-2.16-1.1-4.48-.4-6.71C127.17,50.11,131.72,45.43,139.66,44.78Z"/><path class="cls-88" d="M297.32,71.94c.15-7.76.3-15.52.41-23.28a8.49,8.49,0,0,0-.48-1.91l.37-.54c4.84-1.3,9.66-2,14.37.51,0,6.47,0,12.94.06,19.42,0,2.71-.9,4.67-3.36,5.85l-1.37,0a22.36,22.36,0,0,1-7.91,0Z"/><path class="cls-89" d="M297.25,46.75c-4.21,0-8.42.1-12.62-.08-2.69-.11-3.44.95-3.34,3.51.06,1.55,1,4.32-1.13,4.42-1.44.07-.7-2.83-.7-4.36,0-2.51-.83-3.61-3.47-3.57q-10.78.18-21.58,0c-2.39,0-3,.89-3,3.12.07,6.3,0,12.61-.07,18.91-1.11-2.33-.48-4.8-.52-7.2-.08-5.54,0-11.08.07-16.62,0-3,1.16-4.4,4.62-4.34,13.95.23,27.92.12,41.88.14a4.06,4.06,0,0,1,.12,6Z"/><path class="cls-90" d="M224.23,54.49a11,11,0,0,0,4.48,1.65c.73.3,1.1,1,1.68,1.58,1.22-1,1.44-2.59,2.51-3.56,1.76-.4,2.37,1,2.91,2.12A23.54,23.54,0,0,1,237.45,61c.57,2.51,1.36,4.32,4.53,3.3,1.74-.56,2.49.26,2,2.09-.25,1-.45,1.94-.68,2.9-2.55,2.32-5.68,1.52-8.52,1.28-6-.53-12-1.46-18-1.86a6,6,0,0,1-3.36-1.2c-.81-.64-1.57-1.59-1.19-2.51.48-1.12,1.67-.62,2.6-.36l3.23,0c1.08-1,2.46-.8,3.93-.66A23,23,0,0,1,221.6,57C221.84,55.6,222.12,54.06,224.23,54.49Z"/><path class="cls-91" d="M158.9,66.85l28.57,2.65c-11.71,1.36-23.44,2.14-35.19,2.6-8,.33-15.93.4-23.89,0l0-.15c-2.26-1.2-3.41-2.73-1.63-5.2,1.25-.92,2.72-.82,4.14-.77,5.37.19,10.73-.28,16.13.57,2.55.4,5.39-.73,8.15-.59C156.48,66,157.83,65.84,158.9,66.85Z"/><path class="cls-92" d="M158.9,66.85c-1.42.11-2.86.12-4.25.35-9.42,1.6-18.85-1-28.27.13l-.44-.16a2.13,2.13,0,0,1-.61-2.9l.37-.28H143c-2.63-1.79-2.85-3.16-.34-4.41,4.47-2.22,2.42,3.13,4.68,3.72,1.85-.12,1-5.9,4.61-2.73,2.14,1.91-1.65,1.81-1.67,3.57H159Z"/><path class="cls-93" d="M214.82,64.59l-2.28.36c2.1,2.23,21.54,4.87,30.77,4.29-.24,1.9-1.08,2.83-3.23,2.82-8.6,0-17.21.11-25.81.26A1.94,1.94,0,0,1,212,70.54c-.2-1.08-.4-2.17-.51-3.26C211.07,63.58,211.09,63.58,214.82,64.59Z"/><path class="cls-94" d="M126.38,67.33q1,2.28,2,4.58c-12.15.41-24.23-.8-36.37-1.83l27.07-2.87c2.35-1.5,4.73-1.81,7.16-.2A1.17,1.17,0,0,1,126.38,67.33Z"/><path class="cls-95" d="M139.66,44.78c-5.54,1.75-10,4.75-12.57,10.23a17.71,17.71,0,0,0-1.39,9l-.1.28c-2.13,1.38-4.11,1.62-5.72-.79A12.75,12.75,0,0,1,121,56a20.77,20.77,0,0,1,12-10.69C135.13,44.12,137.42,44.84,139.66,44.78Z"/><path class="cls-96" d="M297.51,46.64l-.12-6,3.32,0c2.42,0,4.87.2,7.27,0,3.21-.3,4.52.91,4,4.09a16.44,16.44,0,0,0,0,2Z"/><path class="cls-97" d="M224.23,54.49c-2.37,2.44-2.11,7.44.63,10.54-2.38.63-4.58-.07-6.81-.49a20.63,20.63,0,0,1,2.07-8.31C220.89,54.4,222.1,53.26,224.23,54.49Z"/><path class="cls-98" d="M119.88,63.48c1.81,1,3.86.21,5.72.79.21.92.42,1.83.64,2.74a32.45,32.45,0,0,1-7.17.2C120.16,66.15,119.59,64.72,119.88,63.48Z"/><path class="cls-99" d="M232.9,54.16a13.84,13.84,0,0,1-.13,1.94c-.36,1.71-.92,4.12-2.53,4.08-1.88,0-1.32-2.51-1.53-4Z"/><path class="cls-8" d="M128.39,72.06l23.89,0c-5.1,1.31-10.29.59-15.44.62C134,72.73,131.11,73.37,128.39,72.06Z"/><path class="cls-100" d="M133,45.29A32.16,32.16,0,0,0,121,56C123,50.23,126.92,46.54,133,45.29Z"/><path class="cls-27" d="M299.41,72h7.91A11.28,11.28,0,0,1,299.41,72Z"/><path class="cls-101" d="M27.82,138.51c1-6.47,2-12.94,3-19.41.2-1.29.24-2.61.35-3.91a1.17,1.17,0,0,1,.18-1.71c4.55-1.2,9.17-.4,13.76-.52,2.6-.07,5.27-.54,7.82.52a1.23,1.23,0,0,1,.22,1.73c1.61,10.32,4.41,20.43,5.64,30.82.49,4.15,1,8.29,1.56,12.43-.29.34-.46.85-.83,1a54.29,54.29,0,0,1-16.83,4.39c-2.21.24-3.22-2-3.81-4A84.26,84.26,0,0,1,37,149.77a11.62,11.62,0,0,0-6.79-9.14A4.11,4.11,0,0,1,27.82,138.51Z"/><path class="cls-101" d="M52.4,163.83c-.43,12.62-.89,25.24-1.28,37.86-.06,1.9-1,2.6-2.73,2.55-3.54-.11-7.08-.33-10.62-.44-1.55-.05-1.73-1-1.81-2.23-.7-11.38-1.44-22.77-2.12-34.15-.48-7.84-.88-15.69-1.32-23.53,2.17-.55,2.92,1,3.66,2.5,1.58,3.22,2,6.75,2.61,10.21.22,1.19.26,2.42.59,3.58,1.17,4,2.17,4.5,6.13,3.6C47.78,163.27,50.12,161.87,52.4,163.83Z"/><path class="cls-102" d="M31.32,114l-.14,1.16c-2.66,0-5.31,0-8,0-.72,0-1.73.17-1.85-.88s.93-1.11,1.63-1.26a97.81,97.81,0,0,0,15.25-4.44c1.64-.66,3-1.45,3.09-3.62.83,2,2.51,2.77,4.2,3.47a81.66,81.66,0,0,0,14.65,4.09c.76.15,1.52.27,2.27.47s1.36.4,1.22,1.27-.89.88-1.55.89c-3,0-6,0-9,0,0-.38-.09-.76-.13-1.14.12-.37.43-.44.75-.5-.14,0-.28,0-.42,0a84.57,84.57,0,0,0-21,0C32,113.63,31.51,113.48,31.32,114Z"/><path class="cls-103" d="M52.4,163.83a35.72,35.72,0,0,0-8.4,1.65c-2.34.65-3.46-.19-4.31-2.29-1.22-3-1.17-6.26-1.9-9.36-.89-3.77-1.74-7.57-5.27-9.94-.74-1.29-2.14-1.48-3.35-1.89-1.93-.66-2.38-1.75-1.35-3.49,6.14,1.23,9.57,5.46,10.66,13,.39,2.72.84,5.44,1.47,8.12s2,3.82,5.06,2.85c5-1.6,10.23-2.73,15.35-4,.48,1.88-.36,2.77-2.13,3.38C56.29,162.51,54,162.17,52.4,163.83Z"/><path class="cls-104" d="M67.25,175.05c.93-4.78.83-9.65,1.09-14.47s.06-9.51.71-14.26q0,15.1,0,30.22Z"/><path class="cls-105" d="M387.76,224.42q.39,3.32.8,6.65c-16,0-32,.06-48,.15-2.29,0-3-.87-2.44-3,.48-1.92.85-3.87,1.26-5.81.7-3.8.75-7.68,1.31-11.5.27-1.88.71-3.71,2.33-5,2.4-1.13,4-.14,5.24,2a4.74,4.74,0,0,1,.71,1.49c.77,5.21,4.06,5.95,8.75,5.86,5.51-.12,11.05-.35,16.57-.12,1.93.07,3.08-.72,3.17-2.54.14-3.08,1.23-6,1.1-9.13-.1-2.4,2.64-2.63,3.39-4.39,1.52-.15,1.41,1.28,2,2,2.82,3.5,2.59,7.84,2.92,11.9C387.14,216.79,387.57,220.6,387.76,224.42Z"/><path class="cls-106" d="M381.92,199c1.48,3.46-1.58,3.23-3.32,4.08.41,3-.71,5.87-.82,8.84-.08,2.12-1.71,3-3.68,3.06-6.51.18-13,.26-19.53,0-2.78-.1-4.05-1.92-4.76-4.33-1-3.33-2.22-6.5-5.87-7.85-.95-1.27-.27-2.22.6-3.14,2.22-2,5-.12,7.41-1.1a3.78,3.78,0,0,1,1.43-1c7.22.25,14.46-.25,21.68.37.56.15,1.1.4,1.66.55Z"/><path class="cls-107" d="M352.64,191.82c7.77-2,15.53-1.7,23.3,0a3.37,3.37,0,0,1,0,2.83c-2.41,2.08-5.16.72-7.57.34-4.13-.66-8.06.12-12,.58-1.31.15-2.6.51-3.81-.31A4.3,4.3,0,0,1,352.64,191.82Z"/><path class="cls-108" d="M387.76,224.42c-1.72-7.71-2.9-15.51-3.85-23.34l4.64.68C388.92,209.33,387.6,216.85,387.76,224.42Z"/><path class="cls-109" d="M344.54,199.71c-.18.88-.35,1.77-.53,2.65,1.24,1.61.56,2.89-.71,4.06-2,5.16-2.05,10.8-3.95,16q0-8.13-.08-16.25C339.25,201,339.25,201,344.54,199.71Z"/><path class="cls-110" d="M352.64,191.82l.17,3.15c1.09,1.24.75,2.43-.13,3.59l-.74.05C352.38,196.37,351.11,194,352.64,191.82Z"/><path class="cls-111" d="M375.79,194.5l.15-2.71c1.65,2.08.3,4.52.78,6.74l-.8.09C374.44,197.29,374.62,195.91,375.79,194.5Z"/><path class="cls-112" d="M386.5,352.23,348,352.18c-7.05-1.07-10-4.23-10.05-11.16-.11-21.4-.07-42.8,0-64.2,0-4.52.43-4.85,5-4.85q21.12,0,42.24,0c1.2,0,2.45-.28,3.61.29,1.19,1,1.19,2.32,1.19,3.65q.1,36.19,0,72.38C389.92,352,389.33,352.48,386.5,352.23Z"/><path class="cls-113" d="M386.5,352.23c2.64-.1,2.08-2.09,2.08-3.65q0-35.31,0-70.62c0-1.88-.05-3.75-.07-5.63-.26-.15-.34-.29-.26-.44s.17-.22.25-.22l.72-.07c3,0,6,.1,9,0,2-.06,3,.52,3,2.79-.05,22.73,0,45.46-.06,68.19,0,4.29-2.67,7.25-7.43,8.61-1.84.53-3.57.48-1.65,3.21,1.54,2.2,0,4.31-3.54,5.74C384.63,358.44,384.1,356.36,386.5,352.23Z"/><path class="cls-114" d="M388.49,269.61H343.3a3.24,3.24,0,0,0-2.26-.29c-2,.13-2.89-.94-3-2.72a36.46,36.46,0,0,1,.09-8.29c.63-4,4.81-7.46,8.91-7.63,2.1-.08,4.21,0,6.3,0,2.11,1.59,3-1.26,4.66-1.3,5.7-.1,11.4,0,17.1-.08,1.68,0,3.19.69,4.84.63a1.39,1.39,0,0,1,1.29.44l7.29,0,0,0c.26.35,0-.15.24.22C390.68,253.56,390.53,266.79,388.49,269.61Z"/><path class="cls-115" d="M388.5,271.67c0,.22,0,.44,0,.66-15.17,0-30.33.06-45.49-.08-2.92,0-3.79.85-3.77,3.77.1,21.25.16,42.51,0,63.75,0,5.56,1.94,10,8.74,12.41.57,1.06,1.76,1.72,1.94,3,.2,1.51.07,2.9-1.32,3.85a2.1,2.1,0,0,1-2.49.1,3.36,3.36,0,0,1-1.42-3.8,14.52,14.52,0,0,1,1.26-2.76,2.64,2.64,0,0,0-.78-.37c-7.85-.76-11.66-4.37-11.71-12.09-.15-21.83,0-43.66-.08-65.5,0-2.37,1.09-3,3.27-3C353.93,271.67,371.21,271.66,388.5,271.67Z"/><path class="cls-113" d="M388.49,269.61q0-9.58,0-19.17c4.61.41,9,1.21,11.56,5.78,2.17,3.95,1,8.2.93,12.33,0,1.27-1.48,1.07-2.44,1.09-3.1,0-6.19,0-9.29.06Z"/><path class="cls-115" d="M354,251.7c-7.49-3.19-16.08,3.23-14.67,10.05a6,6,0,0,1,0,2c-.41,3.17.18,5.62,4,5.88-1.77,0-3.54.07-5.31.06-4.56,0-4.78-.22-4.59-4.94.36-9.3,2.11-12.41,10.59-14.05,3.49-.68,7.05-.22,10.58-.31C355.08,251.14,355.11,251.69,354,251.7Z"/><path class="cls-116" d="M354,251.7c.21-.44.41-.88.61-1.32A2.34,2.34,0,0,0,356.5,248c0-2.86,1.85-3,4-3,5.51.06,11,0,16.53,0s5.6.19,4.15,5.36l-1.24.07a7.71,7.71,0,0,0-3.15-.79c-5.7,0-11.4,0-17.1,0a3.34,3.34,0,0,0-2.46.67,19.36,19.36,0,0,1-2.67,2.17C353.39,253.19,353.8,252.27,354,251.7Z"/><path class="cls-117" d="M326.64,151c-2.14-1.63-1.92-3.31-.08-5,.83-1.54,2.33-1.53,3.76-1.54q27.39-.12,54.76,0a5.47,5.47,0,0,1,3.47.9c1.4,1.58,1,3.41.72,5.22a3,3,0,0,1-.77,1.11c-1.33,1-2.92.91-4.45.91q-26.34.06-52.67,0C329.68,152.58,327.75,152.94,326.64,151Z"/><path class="cls-118" d="M326.36,127.52c-1.62-1.69-1.36-3.46-.2-5.26a5.05,5.05,0,0,1,3.72-1.11q27.62,0,55.24,0a5.29,5.29,0,0,1,2.6.42,3.71,3.71,0,0,1,1.13.67,4.28,4.28,0,0,1,.19,5,2.9,2.9,0,0,1-1,.81,6.82,6.82,0,0,1-3.56.54q-26.86.07-53.72,0C329.19,128.63,327.61,128.72,326.36,127.52Z"/><path class="cls-119" d="M388.42,160.37l-59.53,0c-1.31,0-2.84.29-3.47-1.26a2.44,2.44,0,0,1,1.11-3.41c1-1.32,2.49-1.29,3.93-1.3q27.18-.08,54.37,0a5.61,5.61,0,0,1,3.77,1C390,157.13,390.07,158.78,388.42,160.37Z"/><path class="cls-120" d="M326.36,127.52c3.32-.08,6.63-.22,9.94-.22q26,0,52.08,0c1.83,1.52,1.59,3.15.29,4.86-1.27.93-2.76.69-4.18.69q-26.94,0-53.9,0c-1.5,0-3.15.42-4.36-1C324.86,130.37,324.62,128.91,326.36,127.52Z"/><path class="cls-121" d="M388.44,122.49q-29.49,0-59,0c-1.09,0-2.19-.15-3.29-.23-1.77-3.18-1.14-4.35,2.48-4.35q30-.06,59.94-.06l-.06.09C389.92,119.48,390.14,121,388.44,122.49Z"/><path class="cls-122" d="M388.46,145.88l-61.9.12c-2.24-1.6-1.94-3.11.17-4.55.68-1.45,2-1.62,3.37-1.63,18.61-.09,37.23-.12,55.84,0a3.93,3.93,0,0,1,1.93.43,3.12,3.12,0,0,1,1.09.78C389.78,142.76,390.28,144.44,388.46,145.88Z"/><path class="cls-123" d="M388.35,141.34l-61.62.11c-2.39-1.52-2.05-3.12-.11-4.74.82-1.55,2.31-1.56,3.75-1.56q27.35-.14,54.69,0a5.23,5.23,0,0,1,3.71,1.15C390,138.09,390.27,139.81,388.35,141.34Z"/><path class="cls-124" d="M388.42,155.8l-61.89-.07c-1.63-1.61-2.17-3.19.11-4.71h61.69a1.28,1.28,0,0,1,.81.47,3.85,3.85,0,0,1,.05,3.75A1.52,1.52,0,0,1,388.42,155.8Z"/><path class="cls-125" d="M388.32,136.74l-61.7,0c-1.69-1.17-2.08-2.52-.57-4.13.91-.62,1.93-.35,2.9-.35,19.7,0,39.39,0,59.08,0,2,.72,1.69,2.18,1.23,3.7A1.86,1.86,0,0,1,388.32,136.74Z"/><path class="cls-126" d="M388.52,132.56H326.05l.18-.7,62.3,0,.19.35Z"/><path class="cls-127" d="M388.42,160.37a9.3,9.3,0,0,0,0-4.57,1.41,1.41,0,0,1,.29-.18c2.47-1.69,4.93-1.79,7.35.1,1.77,1.24,1.95,2.67.51,4.29C393.88,160.74,391.14,160.38,388.42,160.37Z"/><path class="cls-128" d="M328.6,88.75c-4.1-1.63-5.31-3.4-5.31-7.75s1.22-6.11,5.32-7.76c1.62-.54,3.29-.24,4.93-.24,14.26,0,28.51,0,42.07,0,1.14.18.46.77.75.44s.3.26,0,0c-.9-1-2-.39-2.94-.39C359.74,73,346,73,332.29,73c-1.17,0-2.44.42-3.53-.42-3.89-1.77-5.47-4.84-5.3-9.05.14-3.65,0-7.3,0-11,0-4.7,1.45-6.76,5.81-8.57a6.67,6.67,0,0,1,2.94-.26q26.56,0,53.14,0c3.95,0,4.6.45,4.53,4.3-.07,3.35,1,6.87-1.06,10a4.64,4.64,0,0,1-2.6.32q-19.25,0-38.5,0c-.68,0-1.53.52-1.83,0a7.88,7.88,0,0,0,1.7,0q18.75,0,37.51,0a9.6,9.6,0,0,1,3.62.24c1.18,1,1.19,2.32,1.2,3.64.08,7.52.11,15,0,22.56-.06,3.68-.63,4.16-4.32,4.16H331.23A7.52,7.52,0,0,1,328.6,88.75Z"/><path class="cls-129" d="M328.6,88.75c18.73,0,37.47-.09,56.21,0,2.92,0,4.05-.6,3.95-3.8-.28-8.75-.19-17.5-.24-26.26-.41-.25-.41-.5,0-.77.06-3.65,0-7.31.22-10.95.18-2.59-.85-3.14-3.25-3.13-14.73.1-29.47,0-44.21,0-4,0-8,0-12,.05,1.25-1,2.75-.66,4.15-.67l55.13-.06c7.51,3.25,8.56,9.27,2,14.86,7.32,1.75,7.54,7.21,7.26,13-.13,2.75.06,5.53,0,8.29-.19,5-.75,9.13-9.27,10q-27.9,0-55.8-.07C331.37,89.32,329.88,89.75,328.6,88.75Z"/><path class="cls-130" d="M328.76,72.54l44.51,0a7,7,0,0,1,3.61.66H328.61Z"/><path class="cls-131" d="M297.43,193.11l-.71-.11c-1.4-2.38-.88-5-.6-7.45,1.06-9.32.89-18.66.93-28a2.12,2.12,0,0,1,.33-1.25c0-1.71,0-3.42,0-5.14.61-1.76.57-3.65,1.08-5.44.42-1.5.88-3,2.61-3.51,1.34,0,2.22.85,3.14,1.63a5.29,5.29,0,0,1,2,3.32c.54-1.16,1.33-1.42,2.4-.66a35.39,35.39,0,0,1,1.42,10.14c-.25,11.06-.21,22.11,1.63,33.07.43,2.58-1.1,3.13-3,3.21C304.93,193.06,301.18,193.05,297.43,193.11Z"/><path class="cls-132" d="M308.64,146.49c-1.35.06-2.1.57-1.6,2.08a2.4,2.4,0,0,1-.65,3c.66-4.5-2.88-6.33-5.06-9a19.56,19.56,0,0,1-2-9.14,181.62,181.62,0,0,0-1.69-20.71c-.81-4.56.33-8.87,1.75-13.11a3.91,3.91,0,0,1,2.79-3c.74,1.25,1.5,2.45,3.22,1.33l1.23,1.39c-.71,8-1.22,16-1.69,24a71.43,71.43,0,0,0-.12,7.6c.06,1.06.44,2,1.68,2.1,1.51.07,1.36-1.19,1.39-2.13.1-4.3,0-8.6.06-12.91,0-1.52-.16-3.15,1.44-4.15,2.23,3,1.31,6.43,1,9.64-.2,2.42-.33,4.83-.46,7.26s.06,4.37-1.5,6.74S307.63,143.47,308.64,146.49Z"/><path class="cls-133" d="M309.42,113.84c0,6.2,0,12.4-.1,18.6,0,1,.54,3.31-.93,2.83-1.71-.55-5,.47-5-3,0-2.66-.37-5.39.1-8,1.12-6.14-.09-12.38,1.17-18.49.46-2.26.37-4.64,2-6.51,2.6,3,2.51,6.65,2.67,10.25C309.4,111,309.39,112.42,309.42,113.84Z"/><path class="cls-134" d="M32.57,89.4l-1.37-.14C28.43,88.53,26.38,87.05,26,84s.33-5.92,3-7.91a24.38,24.38,0,0,1,2.52-1.6A3.57,3.57,0,0,1,32.71,74c9.39-.29,18.79-.1,28.18-.11a6.22,6.22,0,0,1,3.22.64,2.76,2.76,0,0,1,1,.86c.94,4.68,1.84,9.37-.56,13.93l-.1,0C53.81,89.79,43.19,89.74,32.57,89.4Z"/><path class="cls-135" d="M64.46,46.58c.93.85,2,.61,3.09.48a7.11,7.11,0,0,1,8.07,5.61c.78,3.35-1.31,6.76-5,8.1-.12.18-.21.47-.38.53-4.35,1.58-3.87,5.2-3.79,8.72,0,1.73.34,3.56-.87,5.11a1.06,1.06,0,0,1-1,.32l-.2-.18a4.36,4.36,0,0,1-1.34-3.58c0-3.4-.16-6.81.15-10.21-.25-2.86-.14-5.73-.2-8.59-.08-3.54-.54-4-4-4.08-8.61-.08-17.21,0-25.82-.05a7.33,7.33,0,0,1-2-.15c-.75-.36-1.65-.49-2.07-1.35,1.75-1,3.68-.59,5.52-.6C44.56,46.59,54.51,46.6,64.46,46.58Z"/><path class="cls-136" d="M29.09,47.26l2.11.16c.34,1.3-.7,2-1.3,2.82-2.22,3.15-1.95,5.67.84,8.4.82.79,2.14,1.3,1.85,2.83a2.11,2.11,0,0,1-.83.59c-1.45.44-2.4-.3-3.23-1.34A6.6,6.6,0,0,1,23.85,54C23.91,50.46,25.79,48.28,29.09,47.26Z"/><path class="cls-137" d="M31.8,75.47c-6.25,3.88-6.48,9.09-.6,13.79-3.61-.06-6.21-1.72-7.06-4.73a6.82,6.82,0,0,1,2.69-7.87c.61-.46,1.25-.89,1.88-1.33C29.79,74.25,30.83,74.21,31.8,75.47Z"/><path class="cls-138" d="M31.8,75.47l-3.09-.14c-6.73-4.74-6.87-8.09-.59-13.75.22-.19.28-.57.41-.86l3.16.66c.55,1.12-.47,1.54-1,2.14-3,3.37-3.05,6.38,0,9.57.6.63,1.42,1.11,1.3,2.16Z"/><path class="cls-8" d="M32.57,89.4l31.86,0a1.89,1.89,0,0,1,0,.53c-9.32,0-18.63,0-27.94,0C35.16,89.86,33.79,90.16,32.57,89.4Z"/><path class="cls-139" d="M59.41,318.7H39.3C41.22,317.22,55.84,316.9,59.41,318.7Z"/><path class="cls-140" d="M59.4,342.73H39.54l0-.76H59.39Z"/><path class="cls-141" d="M59.4,270.26c-6.62.3-13.24.28-19.87,0v-.85H59.39Z"/><path class="cls-142" d="M388.35,141.34a6.91,6.91,0,0,0,0-4.6,1.79,1.79,0,0,1,.42-.25c2.78-1.88,4.78-1.83,7.28.17,2,1.71,1.78,3.39,0,5.06-2.62,2.14-4.67,2.09-7.39-.17Z"/><path class="cls-143" d="M388.33,151a3.3,3.3,0,0,1,.31-.51,3.74,3.74,0,0,0,.25-1.28c.15-1.56-.68-3.6,1.45-4.3s4.32-1,6.11.91c1.24,1.79,1.44,3.57-.07,5.32-2.68,2-4.92,2-7.65,0A1.38,1.38,0,0,1,388.33,151Z"/><path class="cls-144" d="M388.44,122.49a10.58,10.58,0,0,0,.08-4.55c1.87,0,3.74-.07,5.61,0,3.53.09,4.14,1.38,2.2,4.56-2.47,2-4.7,2-7.54.24C388.67,122.64,388.55,122.57,388.44,122.49Z"/><path class="cls-145" d="M388.73,151.16h7.65c1.53,1.64,1.12,3.14-.32,4.57l-7.35-.09C388.71,154.14,388.72,152.65,388.73,151.16Z"/><path class="cls-146" d="M388.53,131.85a10.86,10.86,0,0,0-.15-4.54,1.93,1.93,0,0,1,.4-.15c2.75-1.86,5-1.83,7.54.1,1.24,1.53,1.42,3.07,0,4.62-2.66,1.91-4.87,1.91-7.54,0Z"/><path class="cls-147" d="M388.82,131.89h7.54c1.11,1.68,1.61,3.32-.34,4.78l-7.28-.17c-.07-1.31-.14-2.62-.22-3.93Z"/><path class="cls-148" d="M396.32,127.26l-7.54-.1c0-1.49,0-3,0-4.45l7.54-.24A3.51,3.51,0,0,1,396.32,127.26Z"/><path class="cls-149" d="M396.45,145.83a7.28,7.28,0,0,1-1.32,0c-3.73-.62-6.4.22-6.49,4.66l-.18-4.62.12-4.33,7.39.17C398,142.87,397.7,144.3,396.45,145.83Z"/><path class="cls-150" d="M64.59,75.45a2.7,2.7,0,0,1,.54-.2c2-1.69,4-1.88,6,.06,4.49,3.52,5.61,6,4.22,9.58-1.22,3.11-3.42,4.69-6.84,4.47-1.31-.08-2.63,0-3.94,0Q64.55,82.39,64.59,75.45Z"/><path class="cls-151" d="M71.08,75.31l-6-.06c0-3.29.11-6.6-.07-9.88-.16-2.77.4-4.52,3.67-4.15a6,6,0,0,0,1.91-.45A23.72,23.72,0,0,1,74.31,64C77.17,67.73,76,71.6,71.08,75.31Z"/><path class="cls-23" d="M167.53,102c-4.24-.82-7.83-3.24-11.8-4.72-2.25-2.7-2.06-3.4,1.79-6.66,0-1.75,1.2-1.76,2.51-1.75,12.18,0,24.35-.17,36.52.11,3.55.08,7.06-.31,10.59-.14,3.76.18,7.53,0,11.29,0l11.62,0a1.8,1.8,0,0,1,.9,1.78,41.53,41.53,0,0,0-3.57,7.75c-3,3.17-7.26,3.82-11.17,5.14-4.74.6-9.06-1-13.41-2.52a31.6,31.6,0,0,1-5-3,3.2,3.2,0,0,1-.6-.76,4.42,4.42,0,0,1-.35-1.12,4.06,4.06,0,0,1,0,1.3,4,4,0,0,1-.27.6c-1.39,2-3.58,2.93-5.71,3.81a93.79,93.79,0,0,1-11.34,3.69c-1.95.53-4,.82-5.26-1.42C172.42,102,170.29,101,167.53,102Z"/><path class="cls-152" d="M153.61,97.9c-3.61,1.58-7,3.76-11,4.19-1.79.94-3.7.64-5.59.56-3.87-.45-7.3-2.13-10.74-3.78-1-.46-1.86-1.22-3-1-1.47-2.51.12-4.5,1.12-6.59a3.42,3.42,0,0,1,3.8-2.48c8.7.19,17.41.08,26.12.08,1.28,0,2.79-.33,2.76,1.76C155.41,92.81,154.85,95.51,153.61,97.9Z"/><path class="cls-153" d="M282.76,88.44l14.55.19c-3.61,1.34-7.36.31-11,.63-1.35.12-3.11-.36-2.85,2,1.46,2.15,3.21,4.22,1.78,7.09a2.8,2.8,0,0,1-3.69-.51,5.64,5.64,0,0,1-.83-4.41c.45-2.1-.6-2.76-2.5-2.77-2.86,0-5.71,0-8.57,0-1.42,0-2.88.09-4.06-1a.85.85,0,0,1-.17-1l.09-.2a161.38,161.38,0,0,1,16.46-.07Z"/><path class="cls-46" d="M230.22,90.59c-.06-.6-.11-1.2-.17-1.8a2.92,2.92,0,0,1,2.42-.8q15,0,30,0a7.07,7.07,0,0,1,1.59.38c-.1.18-.19.36-.28.54C262.57,90.21,261,90,259.44,90c-7.51.06-15,0-22.53,0a13.38,13.38,0,0,0-5.53.8A1.49,1.49,0,0,1,230.22,90.59Z"/><path class="cls-154" d="M265.39,88.69a4.64,4.64,0,0,0,.11.65c1.3,3.36,2.86,6.66,2.5,10.42-1.09.1-2.27-.92-3.26.29-1.64-.14-2-1.49-1.89-2.62.28-2.92.15-5.93,1.29-8.73a.23.23,0,0,1-.06-.31Z"/><path class="cls-44" d="M281.94,88.42l-16.46.07A58.93,58.93,0,0,1,281.94,88.42Z"/><path class="cls-47" d="M153.61,97.9A10.34,10.34,0,0,1,157,90.6a4.52,4.52,0,0,0,.52,0c-.41,2.27-3.61,3.78-1.79,6.66A2.51,2.51,0,0,1,153.61,97.9Z"/><path class="cls-24" d="M285.28,97.88c-.63-2.2-2.84-3.95-1.85-6.6,3.4-1.76,6.92-1.39,10.56-1,2.87.3,5.81-.19,8.71-.33.45,2.26-.48,4.41-.49,6.64a35.33,35.33,0,0,0-3.55,16c-.9,1-.19,2.13-.27,3.19s.11,2.53-1.21,2.78-1.74-1.13-2.2-2.12a24.56,24.56,0,0,1-1.1-2.77c-1.71-5.29-3.56-10.49-7.92-14.32A2.18,2.18,0,0,1,285.28,97.88Z"/><path class="cls-155" d="M119.06,241.63a6.88,6.88,0,0,1-3-1.94c-3.12-3.5-6.87-5.41-11.68-4.72,4.94-1.58,4.76-1.59,5.39-7.33,1.14-10.41,2.56-20.78,3.76-31.17,1-8.87,1.86-17.76,2.86-26.63a108,108,0,0,1,2.69-15.61Z"/><path class="cls-156" d="M146.92,241.08a13.81,13.81,0,0,1-5.27-2.58,10.16,10.16,0,0,0-6.68-2.19,9.07,9.07,0,0,0,.8-4.83c-.33-7.4-.49-14.81-.79-22.21-.4-9.72-.88-19.43-1.31-29.14a10,10,0,0,1,.33-3.36C138.58,198.17,143.18,219.54,146.92,241.08Z"/><path class="cls-157" d="M146.28,110.59c.18,10.62.18,10.62-10.16,10.61-9.49,0-19-.1-28.48,0-2.36,0-3.3-.71-3.62-3a74.06,74.06,0,0,1-.34-7.58,1.33,1.33,0,0,1,1.66-.06,4.8,4.8,0,0,1,1.36,2.26c.92,4.85,2.59,4.31,6.39,4.37,7.76.12,15.53-.26,23.28.2,3.34.31,5.72-.63,6.19-4.44a4.12,4.12,0,0,1,1.71-2.7A1.81,1.81,0,0,1,146.28,110.59Z"/><path class="cls-70" d="M146.28,110.59h-2c-2.21,2.08-5.33,1.16-7.82,2.36a18.38,18.38,0,0,0-6.51-1q-10.12.06-20.26,0c-1.65,0-3.36.1-4.59-1.36l-1.38,0c-.66-.59-.29-1.25-.15-1.9l.36-.21c4.46-.65,9-.86,13.43-1.28a62.78,62.78,0,0,0,11-1.81c.21-1,1-1.75,1.88-1.29,3.43,1.69,6.91,2.81,10.8,2.17.14,0,.4.69.61,1.06a2,2,0,0,1-1.6.57c.41,0,.66,0,.91.06a7.47,7.47,0,0,1,1.24.3c-.25-.27-.78-.39-.53-.94,1.76,0,3.58-.54,5.21.58C146.63,108.8,146.45,109.69,146.28,110.59Z"/><path class="cls-158" d="M150.2,106l.8-.77c3.36,1.39,7.08.76,10.5,1.93,1,.35,2.15.31,2.92,1.23a3.11,3.11,0,0,1-.83,2.19,15.19,15.19,0,0,1-13.13.07C150.38,109.14,150.29,107.59,150.2,106Z"/><path class="cls-159" d="M151.12,121.43a14.62,14.62,0,0,1,2.44,8.69c-.11,7.68-.07,15.37-.1,23-.58-7-1.18-14.1-1.72-21.15C151.47,128.5,151.32,125,151.12,121.43Z"/><path class="cls-160" d="M150.46,110.69l13.13-.07a4.85,4.85,0,0,1-1.23,2.66l-11.66,0Z"/><path class="cls-161" d="M173.58,113.53l.12-3c2-1.85,4.06-1.46,5.76.21,1.41,1.38,3.11,2.33,4.55,3.62,2.61,3.09,6,5.14,9.42,7.18s6.86,1.07,10-.88a71.31,71.31,0,0,0,11.06-8.85c1.76-1.67,3.33-3.57,5.22-5.08,1.7-1.37,3.26-1.36,4.05,1.09.21,1.08-.38,2-.62,3-.75,2.42-1.79,4.73-2.69,7.09-1.46,5.33-3.11,10.6-3.9,16.09a4.24,4.24,0,0,1-2,3.3,3.58,3.58,0,0,1-1.25.46c-9.19.18-18.38.57-27.55-.19-3.46-2.72-6.67-5.37-6.15-10.67.21-2.12-2.36-3.76-3.65-5.62C174.05,119,174.32,116.13,173.58,113.53Z"/><path class="cls-162" d="M183.66,115.4a16.34,16.34,0,0,1-3-2.4c-1.85-2.33-4.22-2.75-6.93-2.42l.57-6.59a6,6,0,0,0,3.56.46c6.34-1.81,12.84-3.24,18.36-7.15a3.88,3.88,0,0,1,2,0,12.81,12.81,0,0,1,4.67,2.36,19.81,19.81,0,0,0,9.27,3.69,21.91,21.91,0,0,1,5.65,1.61c2.35,1.06,2.38,1.67.26,3.57-2.33-.3-4.74-.07-7-.87-5.81.07-11.55-1.77-17.39-.65a10.17,10.17,0,0,1-2.26-.25,2.66,2.66,0,0,0,2.11.53,127.5,127.5,0,0,1,17.7.41,9.31,9.31,0,0,0,3.22.58c1,.06,2.16,0,2.36,1.25.16,1-.78,1.5-1.47,2a3,3,0,0,1-1.85.59c-4.11-.44-8.26.19-12.37-.44a17.08,17.08,0,0,0-1.75-.08,28.79,28.79,0,0,1-8.08.15c-1.05-.07-2.11.3-3.14,0-1.6,0-3.18.21-4.86.13.31,1.17,1.53,1.93,1.16,3.23A.65.65,0,0,1,183.66,115.4Z"/><path class="cls-163" d="M195.52,179.83c1.88,3.62,4.85,6.45,7.15,9.77.8,1.15,2,2.06,2.24,3.58-13.45-11.77-24.69-25.21-32.41-41.49-3.39-7.16-2.11-14.22-.72-21.4.25-1.29.68-2.54,1-3.81,1.63,1,1.52,2.58,1.48,4.09-.22,7.52,1.15,14.83,2.89,22.1,1.1,4.15,4,7.3,6.19,10.83,1.92,3.08,4.18,5.95,6.29,8.91A10.17,10.17,0,0,1,195.52,179.83Z"/><path class="cls-152" d="M177.17,152.67c-2.69-2.95-3-6.71-3.6-10.38-.85-5.24-.5-10.54-.77-15.81l.78-13,3.28,7.06c2.92,4.83,3,10.32,3.72,15.67a4.7,4.7,0,0,1-1.44,4.7Q178.15,146.81,177.17,152.67Z"/><path class="cls-164" d="M180.83,221.17h-5.18c-2.27-1.62-2.28-4.6,0-7.53l6.73,4.65C182.8,219.76,183.5,221.37,180.83,221.17Z"/><path class="cls-165" d="M164.42,108.43c-4.9.75-9.2-1-13.42-3.16,4.88-.52,9.69.34,14.53.74C165.74,107.08,164.77,107.61,164.42,108.43Z"/><path class="cls-166" d="M175.64,213.64c.6,2.51-1.41,5,0,7.53a9,9,0,0,1-4.11,3.13q1-6.23,2-12.44Z"/><path class="cls-167" d="M180.83,221.17c1.6-.38,1.38-1.72,1.53-2.88a31.57,31.57,0,0,1,6.62,4.65Z"/><path class="cls-23" d="M263.39,120.58c-.78,10.3-1.5,20.59-2.37,30.88-.34,4.14,0,8.37-1.35,12.41a133.86,133.86,0,0,0-10.92-14.7c-1.84-2.47-1.46-5.22-1-8a10.35,10.35,0,0,1,1.32-4.71c2.24-4.77,4.77-9.4,6.88-14.24.73-1.66,1.73-3.14,3.95-2.72C261.14,119.59,262.48,119.39,263.39,120.58Z"/><path class="cls-168" d="M248.7,140.5q0,4.33.05,8.67c-3.93-1.37-8-.35-12-.64-1.3-.1-2.61,0-3.92-.05-.21-2.72-.78-5.48,1-8A32.34,32.34,0,0,1,248.7,140.5Z"/><path class="cls-169" d="M233.47,141.21c1.08,2.53,1.12,5-.62,7.27a6.47,6.47,0,0,1-8,0c-3-2.17-3.24-3.56-1.37-7.65C227.29,136.73,231.7,136.92,233.47,141.21Z"/><path class="cls-170" d="M224.19,141.19a7.37,7.37,0,0,0,.65,7.26l-8,.08a33,33,0,0,1-1.55-7.35C216.93,137.77,220.89,137.77,224.19,141.19Z"/><path class="cls-171" d="M226.39,172.88c1,.22,1.48.79,1.45,1.63a1.49,1.49,0,0,1-1.62,1.63,1.41,1.41,0,0,1-1.31-1.57A1.66,1.66,0,0,1,226.39,172.88Z"/><path class="cls-172" d="M221.71,152.07a1.68,1.68,0,0,1,1.55,1.79,1.4,1.4,0,0,1-1.41,1.51,1.54,1.54,0,0,1-1.56-1.74A1.57,1.57,0,0,1,221.71,152.07Z"/><path class="cls-173" d="M251.46,179a1.41,1.41,0,0,1-1.52-1.45c-.07-.82.2-1.58,1.15-1.7,1.13-.14,1.63.54,1.64,1.56A1.43,1.43,0,0,1,251.46,179Z"/><path class="cls-174" d="M244.18,152.59a1.45,1.45,0,0,1,1.23,1.62,1.35,1.35,0,0,1-1.35,1.54c-1.12,0-1.53-.78-1.45-1.76A1.39,1.39,0,0,1,244.18,152.59Z"/><path class="cls-175" d="M254.82,159.81c0,1-.32,1.74-1.2,1.82-1.08.11-1.48-.66-1.49-1.64s.39-1.45,1.33-1.46A1.28,1.28,0,0,1,254.82,159.81Z"/><path class="cls-176" d="M237.44,181.58A1.41,1.41,0,0,1,236.1,180c0-.89.38-1.52,1.34-1.53s1.37.65,1.35,1.52A1.45,1.45,0,0,1,237.44,181.58Z"/><path class="cls-177" d="M239.54,162.11c.06-.85.43-1.45,1.33-1.53s1.36.53,1.4,1.37-.23,1.78-1.38,1.71C240,163.6,239.64,162.93,239.54,162.11Z"/><path class="cls-178" d="M221.37,159.21a1.37,1.37,0,0,1,1.48,1.49c0,.86-.32,1.58-1.28,1.63s-1.36-.61-1.41-1.49A1.4,1.4,0,0,1,221.37,159.21Z"/><path class="cls-179" d="M254.08,168c-.12.86-.6,1.46-1.48,1.41-1.13-.05-1.39-.91-1.28-1.86s.6-1.44,1.55-1.23A1.48,1.48,0,0,1,254.08,168Z"/><path class="cls-180" d="M232.19,159.53a1.38,1.38,0,0,1-1.4-1.47c-.06-.87.28-1.54,1.23-1.6s1.42.48,1.45,1.4A1.49,1.49,0,0,1,232.19,159.53Z"/><path class="cls-181" d="M241.72,173.26c-1,0-1.5-.5-1.54-1.41s.29-1.55,1.23-1.62,1.41.53,1.47,1.4A1.36,1.36,0,0,1,241.72,173.26Z"/><path class="cls-182" d="M228.66,165.45a1.47,1.47,0,0,1,1.42,1.49,1.37,1.37,0,0,1-1.31,1.58c-1,.11-1.39-.51-1.4-1.4A1.52,1.52,0,0,1,228.66,165.45Z"/><path class="cls-183" d="M224.19,141.19c-1.47-.36-2.94-.74-4.42-1.06-1.64-.36-3.26-.53-4.45,1.06l-.49-.51a2.83,2.83,0,0,1-.13-4.1c1.16-6.51,1.84-13.15,4.89-19.18,2.45-.89,4.75-2.23,7.42-2.45a3.91,3.91,0,0,1,1.93,4.2c.3-1.56-.11-3.42,1.83-4.23a3.93,3.93,0,0,1,2.5.56c3.52,1.53,5.9,1,8.42-2,1.92-2.23,2.77-5,3.55-7.7.35-1.24.32-2.65,1.56-3.51a3.7,3.7,0,0,1,2.28,0c3.39.77,6.69,1,10-.64,1.66-.83,3.67-1.21,5,.86-.22,5.25.48,10.53-.65,15.74-.84,1.84-3.06.84-4.21,2-1.23-.19-1.4.79-1.77,1.57q-4.38,9.28-8.78,18.57c-3.7,1.39-7.54.39-11.31.66-1.3.1-2.61,0-3.92.05C229.78,138.38,228.35,138.37,224.19,141.19Z"/><path class="cls-184" d="M214.7,136.58c0,1.37.09,2.73.13,4.1q-16.54,0-33.08,0a21.13,21.13,0,0,0-2.61.32c.15-1.47.3-2.94.46-4.4,1.75-1.87,3.54-1.57,5.35-.09Z"/><path class="cls-185" d="M216.76,223.82c-2.18-.44-2.67-2.62-4-3.92a2.33,2.33,0,0,0,.61-2.13q-2.87-23.1-5.71-46.23a90.09,90.09,0,0,1-.85-14.15c1.13,7.33,2.23,14.67,3.4,22,2.17,13.6,4.38,27.2,6.54,40.8A24.56,24.56,0,0,1,216.76,223.82Z"/><path class="cls-186" d="M195.52,179.83a60.74,60.74,0,0,1-5.87-7.42c2.31-3.14,1.82-7,2.52-10.48,1.22-6.13,2.17-12.31,3.26-18.61.39.26.66.36.66.45q.06,16.95.09,33.89A3,3,0,0,1,195.52,179.83Z"/><path class="cls-23" d="M268,99.76c-2.05-3.18-3.38-6.53-2.5-10.42,4.65,0,9.3-.09,14-.07,3.22,0,3.75.71,2.84,3.82a7.73,7.73,0,0,0-.32,4.2c-.44,1-1.4,1.37-2.12,2-2.22,2.06-2.42,6.13-.46,8.8.55.75,1.71,1.17,1.32,2.43-1.18,3.94-1,8-1.22,12.07-.68,14.77-.87,29.58-1.56,44.35-.13,2.89,0,5.95-1.15,8.76-1.08-12.74-2.23-25.48-3.24-38.22Q272.41,123,272,108.41C271.94,105.05,272.05,101.38,268,99.76Z"/><path class="cls-66" d="M289.41,150.47c0,2.77,0,5.54,0,8.31,0,.65.16,1.63-.2,1.92-2.55,2.09-5.39-.16-8.12.36-1.48.27-1.74-1.1-1.67-2.27.25-4.52.47-9,.83-13.54.55-6.92,1.31-13.83,1.75-20.76.15-2.32.54-4.6.73-6.9a2.28,2.28,0,0,1,2.59-2.36c1.53,0,2.57.5,2.8,2.15a25.05,25.05,0,0,1,.54,3.6C288.45,130.82,289.19,140.64,289.41,150.47Z"/><path class="cls-187" d="M280.72,110.55a8,8,0,0,1-2.93-11.18c1-1.64,2.56-1.85,4.19-2.08,1,.67,2.18.52,3.3.59,2.86,1,4.55,3.28,6,5.79,2.51,4.39,3.6,9.36,5.65,14.1,1.28-1.62-.75-4.17,1.75-5.18,1.94,9.88,2.22,19.9,2.67,29.91-2,2.56-2.24,5.94-3.93,8.65,0-3.86-.25-7.74,0-11.59.46-6.58-1.32-12.73-3.72-18.62C291.4,115.28,288,110.35,280.72,110.55Z"/><path class="cls-188" d="M297.38,156.29c0,10.94.48,21.89,0,32.83-.06,1.32.1,2.67-.63,3.88-3,.18-2.77-1.94-2.57-3.83.63-5.7,1.24-11.41,2.09-17.08.57-3.87.23-7.74.47-11.6C296.8,159.07,296.53,157.59,297.38,156.29Z"/><path class="cls-65" d="M101.09,284.21c0-2.86.11-5.74-.1-8.6s1-3.58,3.48-3.33a17,17,0,0,0,3.64,0c3.74-.47,6.38.33,7.09,4.69.44,2.68,3.1,2.91,5.24,3.24,2.47.38,4.16,1.36,4.5,4Z"/><path class="cls-23" d="M264.11,102.58a6.68,6.68,0,0,0-5.72.82c-4,2.3-7.61.76-11.32-.53a12.74,12.74,0,0,1-5,.68c-4.89-1.11-9.59-2.66-13.58-5.87-2-3.22.81-4.94,2.22-7.1-.06-2.1,1.44-1.77,2.73-1.77l30.67-.11a7.32,7.32,0,0,1,.33,6.07,6.65,6.65,0,0,0,.27,5.28Z"/><path class="cls-189" d="M270.1,212.43h-3.32V151C268.18,171.47,269.71,191.92,270.1,212.43Z"/><path class="cls-190" d="M263.51,213.12c0,.66-.07,1.32-.11,2-2,.14-2.8-.78-2.63-2.77q1-11.37,1.85-22.74.79-10.54,1.46-21.12c.31-4.94.51-9.89,1.18-14.83,0,5.38.16,10.77-.08,16.15-.08,1.85-.35,3.72-.41,5.6Q264.16,194.26,263.51,213.12Z"/><path class="cls-191" d="M271.42,111.15c-.19,1.88.63,4.74-1.8,5.06-2.2.3-2.19-2.61-2.71-4.28a36.41,36.41,0,0,1-1-5.51c-.15-1.07-1.2-2.7.73-2.93,1.57-.19,3.46.24,4.07,2.1A13.73,13.73,0,0,1,271.42,111.15Z"/><path class="cls-192" d="M259.25,120.36c.3-3,2.65-1.68,4.21-2,0,.75,0,1.51-.07,2.26C262,120.63,260.59,121.15,259.25,120.36Z"/><path class="cls-193" d="M128.29,105.39c.27.65,0,.93-.64,1.15-7.77,2.53-15.74,2.53-23.76,1.94,3.1-1.75,6.8-1.06,10-2.47a.82.82,0,0,0,.49,0c1-1.21,2.21-.74,3.41-.58l1.26-.17c2.18-.8,4.39-.22,6.58-.11Z"/><path class="cls-194" d="M137,102.65c1.86-.2,3.54-2.26,5.59-.56.87,1.86.92,3-1.67,2C139.6,103.63,138.11,103.63,137,102.65Z"/><path class="cls-70" d="M125.6,105.12l-6.58.11C121.18,103.23,123.4,104.84,125.6,105.12Z"/><path class="cls-70" d="M117.76,105.4c-1.05.7-2.25.54-3.41.58C115,103.16,116.36,104.05,117.76,105.4Z"/><path class="cls-195" d="M41.45,145c0-2.49,2.24-4.38,5.27-4.41,3.45,0,5.46,3.28,5.71,9.46.09,2.17-2.79,3.65-7.34,3.76C42.7,153.84,41.53,151,41.45,145Z"/><path class="cls-196" d="M31.32,114a1.21,1.21,0,0,1-.32-.11c-.38-.21-.45-.49,0-.59,6.77-1.37,13.55-2.11,20.41-.53a24.08,24.08,0,0,1,4.14,1l-2.55.23C45.79,113.68,38.56,113.73,31.32,114Z"/><path class="cls-197" d="M58.59,155.62l-16.75,4.16-.26-1,16.84-4.21Z"/><path class="cls-198" d="M343.3,206.42c.24-1.35.47-2.7.71-4.06,3.41,0,5.69,1.36,6.15,5,.09.75.58,1.45.69,2.2.52,3.59,2.63,4.25,6,4.32,5.5.1,11-.29,16.47-.09,2.69.09,3.9-.95,3.89-3.62a20,20,0,0,1,1.37-7.08h4.06l.43.89c-5.29,0-3.94,4.07-4.39,6.65-1,5.71-.75,5.74-6.48,5.75-6.31,0-12.61-.13-18.91.05-2.72.08-4.21-.86-4.58-3.51-.2-1.47-1.05-2.67-1.46-4A3.17,3.17,0,0,0,343.3,206.42Z"/><path class="cls-23" d="M375.79,194.5c0,1.37.09,2.75.13,4.12a193.75,193.75,0,0,1-23.24-.06c0-1.19.09-2.39.13-3.59a40.21,40.21,0,0,1,19.73-.86C373.61,194.31,374.71,194.37,375.79,194.5Z"/><path class="cls-199" d="M361.91,209.55c1.27-1.17,2.63-2.12,4.13-.46,1.16,1.29.43,2.33-.75,3.16C362.67,213.22,361.58,212.27,361.91,209.55Z"/><path class="cls-198" d="M361.91,209.55c.36,1.86,1.24,3.06,3.38,2.7a2.08,2.08,0,0,1-3.12.41C361,211.83,361.11,210.66,361.91,209.55Z"/><path class="cls-200" d="M377.82,298.66c0,2.91.07,5.13,0,7.34-.12,2.63-1.58,4.15-4.22,4.12s-3.44-1.91-3.53-4a88.48,88.48,0,0,1,.48-14.91c.26-2,1.36-2.86,3.32-2.94s3.21.5,3.67,2.52C378.16,293.61,377.65,296.49,377.82,298.66Z"/><path class="cls-25" d="M357.26,250.35c.37-1.44,1.55-1.34,2.64-1.34h17.47c1.14,0,2.25,0,2.59,1.44-.3.7-.61,1.4-1.41,3.22.14-3-1-3.33-2.68-3.31C369.67,250.46,363.46,250.37,357.26,250.35Z"/><path class="cls-201" d="M388.5,57.94c0,.26,0,.51,0,.77H344.77v-.77Z"/><path class="cls-202" d="M32,75.25c-2.76-1.23-4.71-3-4.91-6.32-.23-3.71,1.48-6,4.61-7.55l.84-.11c1-1.38,2.45-1.33,3.88-1.34q12-.09,24.09,0c1.46,0,2.87.15,3.91,1.35l0,14Z"/><path class="cls-203" d="M64.42,61.27H32.54c-7.11-3.69-7.64-9.11-1.34-13.85,10.26-.05,20.52-.07,30.79-.16,1.77,0,2.65.51,2.59,2.43C64.45,53.55,64.46,57.41,64.42,61.27Z"/><path class="cls-204" d="M229,97.22l13.24,5.44c-.81,3.35-3.54,4-6.36,4.52a25.79,25.79,0,0,0-11.62-.6c-1.87-1-4.13-.17-6-1.36-1-.66-2.28-1-2-2.59l10.66-4.74A2,2,0,0,1,229,97.22Z"/><path class="cls-205" d="M216.2,102.63c2.13,2.61,5.33,2.49,8.2,3.21a57.43,57.43,0,0,1,6.29.42c1.11.15,2.31.17,2.19,1.8-3.34,2.33-6.62.72-9.91-.14-1-2.55-2.2-1-3.16,0-3.35,3.39-6.79,6.67-10.46,9.72-10.31,8.61-16.92,8-25.69-2.21l.7-.28c1.25-.33,2,.69,3.09,1a22.59,22.59,0,0,1,3,2.39c2.87,1.81,5.59,4.19,9.38,2.44,5-2.54,9.09-6.3,13.39-9.77,1.16-.08,2.45.1,2.95-1.5-1.45-1-3.3.14-4.66-.94.09-.15.19-.3.28-.46,2.05-.94,4.2.08,6.28-.31,1.94-1.5.55-1.79-.77-2.09a47.87,47.87,0,0,1-11.77-4c-1.05-.56-2.28-.91-2.67-2.26C207,102,211.69,102,216.2,102.63Z"/><path class="cls-206" d="M229,97.22a2.45,2.45,0,0,1-2.09.67c0-3,1.48-5.22,3.36-7.3a1.3,1.3,0,0,0,.52,0C230.28,92.83,227.31,94.4,229,97.22Z"/><path class="cls-207" d="M198.22,97.31a1.27,1.27,0,0,1-2,0c.14-1.29.06-2.65,1.1-3.79C197.61,94.83,197.91,96.07,198.22,97.31Z"/><path class="cls-34" d="M105.06,110.63c9.59,0,19.18,0,28.77-.08,1.46,0,2.64.16,2.89,1.89,2.28,1.89,2.08,3.91.32,6-9.27,0-18.54,0-27.81.12-1.84,0-2.92-.52-3.18-2.44S104.94,112.55,105.06,110.63Z"/><path class="cls-208" d="M137,118.46c-.11-2-.21-4-.32-6,.15-1.57,1.12-2,2.53-1.88,1.66.08,3.33,0,5,0-.16.86-.29,1.73-.49,2.58C142.47,118.59,142.47,118.59,137,118.46Z"/><path class="cls-209" d="M141.6,107.32l2.79,1c-4.16.61-5.41.54-8-.57,1.88-1,3.58-.35,5.19-.44Z"/><path class="cls-210" d="M185,136.47l-5.35.09c-1.12-5.29-1.21-10.75-2.74-16,1.59,1.31,1.66,4.11,4.5,4.33.72.06-.2,1.3-.25,2-.21,2.77-1.27,5.86,2.75,7C185.09,134.3,184.81,135.53,185,136.47Z"/><path class="cls-211" d="M226.87,115.27c-2,2-4.34,3.16-7.28,2.13a20.77,20.77,0,0,1,2.6-7,4.81,4.81,0,0,1,5.92-.36C229.58,112.25,229.21,114,226.87,115.27Z"/><path class="cls-204" d="M228.06,110.64l-5.87-.21.78-2.51c3.34-1.66,6.71.78,10.06,0a.9.9,0,0,1,.95.57c-.17,3-.76,3.47-4.34,3.06A4.13,4.13,0,0,1,228.06,110.64Z"/><path class="cls-212" d="M213.25,111.19c0,2.69-2.38,3.45-3.94,4.83a28.17,28.17,0,0,1-9.05,5.79,2,2,0,0,1-.58-1,62.69,62.69,0,0,0,.2-6.85c0-1.21,0-2.42,1-3.3C205,110.71,209.18,109.94,213.25,111.19Z"/><path class="cls-213" d="M191,110.66h8.56a13.73,13.73,0,0,1-.24,8c-2.88,1.86-5.38.28-7.92-.91a2.63,2.63,0,0,1-.67-1C189.84,114.72,188.81,112.62,191,110.66Z"/><path class="cls-214" d="M211.54,108.75l-19.36-.15c-.87-1.24-.36-2.07.79-2.7,6.36-1.83,12.49.38,18.71,1a1.14,1.14,0,0,1,.08,1.48A.57.57,0,0,0,211.54,108.75Z"/><path class="cls-215" d="M187,116.59c-1.43.49-1.6-1.27-2.64-1.47-1-1.54-3-2.27-3.88-4.46h7.09c1.49,1.44,1.08,3,.33,4.61A2.22,2.22,0,0,1,187,116.59Z"/><path class="cls-216" d="M187,115.24c.18-1.53.36-3.06.53-4.58H191a17.23,17.23,0,0,0,.57,6C189.48,117.93,188.33,116.35,187,115.24Z"/><path class="cls-217" d="M198.87,118.55c.07-2.65-.23-5.32.64-7.89h1.39c-.41,3.53.67,7.16-.73,10.63a1.28,1.28,0,0,1-1.33-.45A1.67,1.67,0,0,1,198.87,118.55Z"/><path class="cls-218" d="M211.76,108.42c0-.49,0-1-.08-1.48,2.14.36,4.35.24,6.42,1C216.06,109.19,213.89,108.55,211.76,108.42Z"/><path class="cls-219" d="M193,105.9c-.26.9-.53,1.8-.79,2.7-1.38-.07-1.87-1.81-3.45-1.63C190.05,105.65,191.55,105.93,193,105.9Z"/><path class="cls-220" d="M229.66,110.65c1.69-.3,4.23.73,4-2.57a2,2,0,0,1,2.6-1.53l5.95-3.89c1.66-.85,3.3-1,4.87.2a21.22,21.22,0,0,1-3.84,11.06c-3.47,4.71-7.95,5.14-12.36,1.35C228.85,114.15,228.14,112.69,229.66,110.65Z"/><path class="cls-221" d="M229.66,110.65c-.24,1.71.8,3.08,1.2,4.62l-1.66,6.19c-1.55-2-1.22-4.36-2.33-6.19.41-1.54,1.32-3,1.19-4.63Z"/><path class="cls-222" d="M236.24,106.55l-2.6,1.53a.82.82,0,0,0-.61-.21c-2.71-1.37-5.92-.63-8.63-2C228.43,104.67,232.4,104.53,236.24,106.55Z"/><path class="cls-223" d="M199.44,120.56c.24.24.49.48.73.73,0,.17.05.34.09.52-4.21,2.1-7.32-.5-10.57-2.49a2.24,2.24,0,0,1,2.51-.89C194.47,119.6,197.26,119,199.44,120.56Z"/><path class="cls-224" d="M192.12,119.36l-2.43,0a9.21,9.21,0,0,1-2.69-2.73c0-.45,0-.9,0-1.35l4.48,1.4c0,.23,0,.45.07.68C192.44,117.82,193,118.4,192.12,119.36Z"/><path class="cls-225" d="M192.12,119.36c-.17-.68-.35-1.36-.53-2l7.28,1.23.57,2A11.49,11.49,0,0,1,192.12,119.36Z"/><g class="cls-226"><path class="cls-227" d="M419.38,416.89H0V0H419.38ZM3,413.89H416.38V3H3Z"/></g></g></g></svg>